<svg height="512pt" viewBox="0 0 512 512.00114" width="512pt" xmlns="http://www.w3.org/2000/svg"><path d="m360.691406 120.007812-229.433594 229.574219 31.066407 31.089844 229.433593-229.578125" fill="#ede6f5"/><path d="m356.71875 196.148438c-2.628906 0-5.210938-1.058594-7.070312-2.929688-.460938-.457031-.878907-.96875-1.238282-1.519531-.363281-.539063-.671875-1.117188-.921875-1.71875-.25-.601563-.441406-1.230469-.570312-1.871094-.128907-.648437-.199219-1.300781-.199219-1.960937 0-.648438.070312-1.308594.199219-1.949219.128906-.640625.320312-1.269531.570312-1.867188.25-.613281.558594-1.191406.921875-1.730469.359375-.550781.777344-1.0625 1.238282-1.519531.460937-.460937.96875-.882812 1.519531-1.242187.539062-.359375 1.121093-.667969 1.730469-.917969.601562-.25 1.230468-.441406 1.871093-.570313 1.289063-.261718 2.617188-.261718 3.910157 0 .640624.128907 1.257812.320313 1.867187.570313.601563.25 1.183594.558594 1.722656.917969.550781.359375 1.058594.78125 1.519531 1.242187.46875.457031.878907.96875 1.25 1.519531.359376.539063.667969 1.117188.917969 1.730469.25.597657.441407 1.226563.570313 1.867188.132812.640625.191406 1.300781.191406 1.949219 0 .660156-.058594 1.3125-.191406 1.960937-.128906.640625-.320313 1.269531-.570313 1.871094-.25.601562-.558593 1.179687-.917969 1.71875-.371093.550781-.78125 1.0625-1.25 1.519531-.460937.472656-.96875.882812-1.519531 1.25-.539062.363281-1.121093.671875-1.722656.921875-.609375.25-1.226563.441406-1.867187.570313-.652344.128906-1.300782.1875-1.960938.1875zm0 0"/><path d="m124.671875 456.542969-45.429687 45.457031-10.375-58.902344 57.550781-57.585937zm0 0" fill="#f05f90"/><path d="m126.417969 385.511719-57.550781 57.585937-58.867188-10.382812 45.429688-45.457032zm0 0" fill="#ffe681"/><path d="m173.441406 407.742188-48.769531 48.800781 1.746094-71.03125 48.769531-48.800781zm0 0" fill="#ffe681"/><path d="m175.1875 336.710938-48.769531 48.800781-70.988281 1.746093 48.769531-48.800781zm0 0" fill="#f05f90"/><path d="m501.695312 10-47.238281 123.335938-75.429687-75.480469zm0 0" fill="#52607e"/><path d="m416.375 139.855469c-12.277344 12.28125-32.175781 12.28125-44.453125 0-12.273437-12.285157-12.273437-32.199219 0-44.480469s32.175781-12.28125 44.453125 0 12.277344 32.195312 0 44.480469zm0 0" fill="#7ccafd"/><path d="m119.9375 151.09375 229.433594 229.578125 31.070312-31.089844-229.433594-229.574219" fill="#ede6f5"/><path d="m186.046875 165.058594c-.660156 0-1.308594-.058594-1.957031-.1875-.640625-.128906-1.269532-.320313-1.871094-.570313s-1.179688-.558593-1.730469-.917969c-.539062-.371093-1.058593-.78125-1.519531-1.25-.460938-.460937-.871094-.972656-1.238281-1.523437-.363281-.539063-.671875-1.117187-.921875-1.71875-.25-.609375-.441406-1.226563-.570313-1.871094-.128906-.648437-.191406-1.296875-.191406-1.957031 0-.648438.0625-1.300781.191406-1.953125.128907-.636719.320313-1.269531.570313-1.867187.25-.601563.558594-1.179688.921875-1.730469.367187-.539063.777343-1.058594 1.238281-1.519531.460938-.460938.980469-.882813 1.519531-1.238282.550781-.363281 1.128907-.671875 1.730469-.921875s1.230469-.441406 1.871094-.570312c1.289062-.257813 2.617187-.257813 3.910156 0 .636719.128906 1.269531.320312 1.867188.570312.601562.25 1.191406.558594 1.730468.921875.539063.355469 1.0625.777344 1.519532 1.238282.460937.460937.882812.980468 1.242187 1.519531.359375.550781.667969 1.128906.917969 1.730469.25.601562.441406 1.230468.570312 1.867187.132813.652344.191406 1.304687.191406 1.953125 0 .660156-.058593 1.308594-.191406 1.957031-.128906.644531-.320312 1.261719-.570312 1.871094-.25.601563-.558594 1.179687-.917969 1.71875-.359375.554687-.78125 1.0625-1.242187 1.523437-.457032.46875-.980469.878907-1.519532 1.25-.539062.359376-1.128906.667969-1.730468.917969-.597657.25-1.230469.441407-1.867188.570313-.640625.128906-1.300781.1875-1.953125.1875zm0 0"/><path d="m456.269531 387.257812 45.425781 45.457032-58.863281 10.382812-57.550781-57.585937zm0 0" fill="#f05f90"/><path d="m385.28125 385.511719 57.550781 57.585937-10.375 58.902344-45.429687-45.457031zm0 0" fill="#ffe681"/><path d="m407.496094 338.457031 48.773437 48.800781-70.988281-1.746093-48.773438-48.800781zm0 0" fill="#ffe681"/><path d="m336.507812 336.710938 48.773438 48.800781 1.746094 71.03125-48.773438-48.800781zm0 0" fill="#f05f90"/><path d="m10 10 123.257812 47.269531-75.429687 75.476563zm0 0" fill="#52607e"/><path d="m139.777344 95.375c12.273437 12.28125 12.273437 32.195312 0 44.480469-12.277344 12.28125-32.179688 12.28125-44.453125 0-12.277344-12.285157-12.277344-32.199219 0-44.480469 12.273437-12.28125 32.175781-12.28125 44.453125 0zm0 0" fill="#7ccafd"/><path d="m414.570312 331.390625c-1.816406-1.816406-4.257812-2.867187-6.828124-2.929687l-35.132813-.863282-71.554687-71.597656 35.023437-35.042969c3.902344-3.90625 3.902344-10.238281-.003906-14.140625s-10.238281-3.902344-14.144531.003906l-35.011719 35.03125-16.929688-16.9375 87.644531-87.703124c1.871094 3.492187 4.277344 6.769531 7.214844 9.710937 7.828125 7.832031 18.234375 12.144531 29.300782 12.144531 11.066406 0 21.472656-4.3125 29.300781-12.140625 5.574219-5.578125 9.222656-12.359375 10.949219-19.515625l12.984374 12.992188c1.898438 1.898437 4.449219 2.933594 7.074219 2.933594.691407 0 1.390625-.074219 2.082031-.21875 3.3125-.707032 6.042969-3.042969 7.257813-6.203126l47.238281-123.335937c1.414063-3.695313.515625-7.878906-2.289062-10.671875-2.808594-2.789062-6.996094-3.660156-10.683594-2.222656l-122.671875 47.855468c-3.144531 1.226563-5.457031 3.957032-6.152344 7.261719-.691406 3.304688.328125 6.734375 2.714844 9.125l12.390625 12.398438c-7.320312 1.769531-14.035156 5.519531-19.496094 10.980469-7.0625 7.070312-11.035156 16.074218-11.921875 25.324218l-97.078125 97.136719-35.011718-35.035156c-3.90625-3.90625-10.238282-3.90625-14.140626-.003907-3.910156 3.90625-3.910156 10.234376-.003906 14.144532l136.925782 137.011718-6.707032-.164062c-.136718-.003906-.273437-.007812-.410156-.007812-3.757812-.019532-7.15625 2.089843-8.863281 5.390624-.007813.007813-.011719.019532-.015625.03125-.023438.042969-.042969.082032-.066406.125-.277344.5625-.507813 1.152344-.675782 1.761719 0 .003907-.003906.007813-.003906.011719-.015625.054688-.03125.109375-.042969.164062-.003906.011719-.007812.023438-.007812.035157-.011719.050781-.027344.097656-.039063.148437 0 .011719-.003906.023438-.007812.039063-.011719.046875-.023438.09375-.03125.140625-.003906.015625-.007813.035156-.011719.050781-.011719.042969-.019531.085937-.027344.128906-.003906.019531-.007812.039063-.011719.058594-.007812.042969-.015624.082031-.023437.121094-.003906.023437-.007813.050781-.011719.074219-.007812.035156-.011718.070312-.019531.109374-.003906.03125-.011719.0625-.015625.089844-.003906.03125-.007812.058594-.011719.085938-.007812.042968-.011719.082031-.019531.125 0 .019531-.003906.035156-.007812.054687-.003907.046875-.007813.09375-.015626.136719 0 .015625-.003906.035156-.003906.050781-.003906.046875-.011718.097657-.015625.144531 0 .011719 0 .027344-.003906.039063-.003906.054687-.007813.105469-.011719.160156 0 .011719 0 .015625-.003906.023438-.003906.054687-.003906.109375-.007812.160156 0 .011719 0 .019531-.003907.03125-.011719.257813-.015625.515625-.007812.773437l.167969 6.84375-189.539063-189.660156c3.527344-1.898437 6.796875-4.324218 9.707031-7.234375 16.152344-16.164062 16.152344-42.457031 0-58.617187-5.460937-5.464844-12.175781-9.214844-19.496094-10.984375l12.980469-12.984375c2.390625-2.398438 3.410157-5.839844 2.707031-9.152344-.707031-3.3125-3.039062-6.042969-6.199218-7.253906l-123.257813-47.269532c-3.695312-1.417968-7.878906-.523437-10.671875 2.285157-2.789062 2.804687-3.664062 6.992187-2.226562 10.683593l47.824218 122.746094c1.226563 3.144532 3.960938 5.460938 7.265626 6.152344.683593.144531 1.371093.214844 2.054687.214844 2.625 0 5.175781-1.035156 7.070313-2.929688l12.402343-12.410156c1.726563 7.15625 5.375 13.941406 10.949219 19.515625 6.882812 6.886719 15.761719 11.054687 25.332031 11.957031l97.058594 97.121094-71.550781 71.597656-35.136719.863282c-2.566406.0625-5.011719 1.109374-6.824219 2.929687l-94.203125 94.257813c-2.632812 2.636718-3.582031 6.519531-2.460937 10.074218 1.121094 3.558594 4.128906 6.195313 7.800781 6.839844l51.96875 9.167969 9.160156 52.003906c.648438 3.671875 3.285157 6.683594 6.84375 7.804687.984375.308594 2 .460938 3.003907.460938 2.613281 0 5.167968-1.023438 7.074218-2.929688l94.199219-94.257812c1.8125-1.816406 2.859375-4.261719 2.925781-6.824219l.863282-35.164062 71.542968-71.589844 71.546875 71.589844.863281 35.164062c.0625 2.566407 1.109376 5.007813 2.925782 6.824219l94.199218 94.257812c1.90625 1.90625 4.460938 2.929688 7.074219 2.929688 1.003907 0 2.015625-.148438 3.003907-.460938 3.558593-1.121093 6.195312-4.128906 6.84375-7.804687l9.160156-52.003906 51.96875-9.164063c3.671875-.648437 6.679687-3.285156 7.800781-6.839844 1.121094-3.558593.171875-7.441406-2.464844-10.078124zm69.703126-303.859375-33.640626 87.828125-53.71875-53.75zm-105.277344 74.914062c4.046875-4.050781 9.429687-6.28125 15.152344-6.28125 5.722656 0 11.105468 2.230469 15.152343 6.28125 8.359375 8.363282 8.359375 21.976563 0 30.339844v.003906c-4.046875 4.046876-9.429687 6.277344-15.152343 6.277344-5.722657 0-11.105469-2.230468-15.152344-6.28125-8.363282-8.363281-8.363282-21.976562 0-30.339844zm-317.414063 12.398438-34.058593-87.414062 87.777343 33.660156zm40.8125-12.398438c4.050781-4.050781 9.429688-6.28125 15.152344-6.28125 5.726563 0 11.105469 2.230469 15.15625 6.28125 8.359375 8.363282 8.359375 21.976563 0 30.34375-4.050781 4.046876-9.429687 6.277344-15.15625 6.277344-5.722656 0-11.101563-2.230468-15.152344-6.28125-8.359375-8.363281-8.359375-21.976562 0-30.339844zm6.050781 245.910157 42-1.03125-28.273437 28.289062-42 1.035157zm-48.769531 48.800781 42-1.03125-36.203125 36.222656-34.824218-6.144531zm26.078125 84.179688-6.136718-34.847657 36.1875-36.210937-1.03125 42.023437zm49.527344-49.558594 1.035156-42.023438 28.257813-28.277344-1.03125 42.023438zm49.734375-87.957032.167969-6.832031c.007812-.328125.003906-.65625-.019532-.980469-.003906-.0625-.011718-.125-.015624-.1875 0-.003906 0-.011718 0-.015624-.007813-.054688-.011719-.113282-.019532-.167969 0-.007813 0-.019531-.003906-.027344-.003906-.054687-.011719-.105469-.015625-.160156-.003906-.011719-.003906-.023438-.003906-.035157-.007813-.046874-.015625-.09375-.023438-.144531 0-.019531-.003906-.039062-.007812-.058593-.003907-.039063-.011719-.082032-.019531-.121094-.003907-.023438-.007813-.046875-.011719-.070313-.003907-.035156-.011719-.074219-.019531-.109375-.003907-.027344-.011719-.058594-.015626-.085937-.003906-.03125-.011718-.0625-.019531-.09375-.003906-.035157-.011719-.070313-.019531-.101563-.003906-.027344-.011719-.050781-.015625-.078125-.007813-.039062-.019531-.078125-.027344-.121093-.007812-.019532-.011719-.039063-.015625-.058594-.007812-.042969-.019531-.082032-.03125-.125-.003906-.019532-.007812-.035156-.015625-.054688-.011719-.046875-.023437-.09375-.039062-.144531 0-.007813-.003907-.019531-.007813-.03125-.015625-.054687-.03125-.109375-.046875-.164063 0-.003906 0-.007812-.003906-.011718-.164063-.546875-.371094-1.074219-.625-1.582032-.015625-.03125-.035156-.066406-.050781-.101562-.011719-.015625-.019532-.039062-.03125-.054688-1.722656-3.320312-5.164063-5.425781-8.933594-5.390624-.082031 0-.167969.003906-.253906.007812l-6.792969.164062 56.703125-56.734374 16.929688 16.941406zm246.507813 32.828126-41.996094-1.035157-28.273438-28.289062 41.996094 1.03125zm-84.402344-15.171876 28.261718 28.277344 1.03125 42.023438-28.257812-28.273438zm49.804687 90.824219-1.035156-42.023437 36.191406 36.210937-6.140625 34.847657zm49.296875-19.953125-36.199218-36.222656 42 1.03125 29.027343 29.046875zm0 0"/></svg>