<svg id="Capa_1" enable-background="new 0 0 512 512" height="512" viewBox="0 0 512 512" width="512" xmlns="http://www.w3.org/2000/svg"><g><g><g><path d="m145.108 496.458h35.42c8.251 0 14.941-6.689 14.941-14.941v-155.587c0-8.251-6.689-14.941-14.941-14.941h-155.587c-8.251 0-14.941 6.689-14.941 14.941v155.587c0 8.251 6.689 14.941 14.941 14.941h30.456z" fill="#fff"/></g><g><ellipse cx="72.01" cy="435.424" fill="#838eb1" rx="21.001" ry="21.001" transform="matrix(.999 -.054 .054 .999 -23.206 4.479)"/></g><g><ellipse cx="133.458" cy="373" fill="#838eb1" rx="21.001" ry="21.001" transform="matrix(.999 -.054 .054 .999 -19.776 7.679)"/></g><g><path d="m502 90.09c0 18.829-8.408 35.685-21.669 47.046v168.813c0 23.252-6.569 45.003-17.929 63.494-21.403 34.817-59.857 58.079-103.634 58.079h-.01c-43.777 0-82.22-23.262-103.634-58.079-11.371-18.491-17.929-40.242-17.929-63.494v-163.225c0-8.663-2.38-16.785-6.518-23.743-8.132-13.69-23.068-22.884-40.109-22.884-17.03 0-31.967 9.184-40.089 22.864-4.148 6.957-6.528 15.089-6.528 23.763v168.261h-80.555v-168.261c0-26.102 7.907-50.387 21.444-70.594 22.833-34.102 61.706-56.588 105.728-56.588 44.032 0 82.905 22.496 105.738 56.598 13.537 20.208 21.434 44.492 21.434 70.584v163.225c0 5.813 1.216 11.35 3.412 16.366v.01c6.334 14.497 20.81 24.642 37.606 24.642h.01c16.796 0 31.272-10.155 37.596-24.642 2.207-5.016 3.422-10.553 3.422-16.377v-168.812c-13.261-11.36-21.669-28.217-21.669-47.046 0-34.204 27.727-61.941 61.941-61.941 34.205 0 61.942 27.737 61.942 61.941z" fill="#ff7e96"/></g><g><path d="m190.568 15.542v80.555c-17.03 0-31.967 9.184-40.089 22.864l-65.639-46.831c22.834-34.102 61.706-56.588 105.728-56.588z" fill="#a0c8ff"/></g><g><path d="m462.402 369.443c-21.403 34.817-59.857 58.079-103.634 58.079v-80.555c16.796 0 31.272-10.155 37.596-24.642z" fill="#a0c8ff"/></g><g><path d="m317.74 142.724v32.62h-80.545v-32.62c0-8.663-2.38-16.785-6.518-23.743v-.02l65.629-46.821c13.537 20.208 21.434 44.492 21.434 70.584z" fill="#a0c8ff"/></g><g><path d="m63.398 175.344h80.552v87.386h-80.552z" fill="#a0c8ff"/></g><g><path d="m321.152 322.316v.01l-66.028 47.117c-11.371-18.491-17.929-40.242-17.929-63.494v-43.215h80.545v43.215c0 5.813 1.216 11.35 3.412 16.367z" fill="#a0c8ff"/></g><g><path d="m399.782 175.344h80.552v87.386h-80.552z" fill="#a0c8ff"/></g><g><path d="m103.012 435.424c0-8.28-3.225-16.065-9.08-21.92-11.945-11.948-31.896-11.947-43.843-.001-12.086 12.087-12.086 31.754 0 43.843 11.926 11.924 31.915 11.925 43.842 0 5.856-5.857 9.081-13.642 9.081-21.922zm-23.223 7.779c-4.289 4.29-11.268 4.289-15.558.001-4.289-4.29-4.29-11.27 0-15.559 4.24-4.24 11.315-4.243 15.558 0 4.241 4.242 4.241 11.317 0 15.558z"/><path d="m164.459 372.999c0-8.28-3.225-16.065-9.081-21.921-12.087-12.086-31.755-12.086-43.842 0-11.943 11.943-11.944 31.899 0 43.843 11.946 11.946 31.896 11.947 43.842 0 5.856-5.856 9.081-13.641 9.081-21.922zm-23.222 7.779c-4.243 4.243-11.312 4.245-15.559 0-4.241-4.242-4.241-11.316 0-15.558 4.235-4.234 11.323-4.234 15.559 0 4.241 4.242 4.241 11.317 0 15.558z"/><path d="m490.332 141.533c13.826-13.507 21.668-32.001 21.668-51.443 0-39.668-32.272-71.94-71.941-71.94s-71.941 32.272-71.941 71.94c0 19.442 7.843 37.937 21.669 51.443v164.416c0 16.911-14.16 31.019-31.028 31.019-16.884 0-31.019-14.148-31.019-31.019v-163.224c0-74.744-62.536-137.183-137.172-137.183-74.682 0-137.171 62.476-137.171 137.183v158.265h-28.457c-13.752-.001-24.94 11.188-24.94 24.94v155.588c0 13.752 11.188 24.94 24.94 24.94h30.456c5.523 0 10-4.478 10-10s-4.477-10-10-10h-30.456c-2.724 0-4.94-2.216-4.94-4.94v-155.588c0-2.725 2.216-4.94 4.94-4.94h155.587c2.724 0 4.94 2.216 4.94 4.94v155.588c0 2.725-2.216 4.94-4.94 4.94h-35.42c-5.523 0-10 4.478-10 10s4.477 10 10 10h35.42c13.752 0 24.94-11.188 24.94-24.94v-155.588c0-13.752-11.188-24.94-24.94-24.94h-26.576v-158.265c0-19.906 16.721-36.627 36.616-36.627 19.891 0 36.627 16.708 36.627 36.627v163.225c0 71.6 59.944 131.573 131.573 131.573 71.64 0 131.563-59.974 131.563-131.573v-164.417zm-42.223 231.174c-18.841 25.271-47.929 41.592-79.341 44.364v-61.093c12.129-2.428 23.156-9.347 30.635-19.199l49.271 35.154c-.188.258-.374.519-.565.774zm-38.322-187.363h60.545v67.387h-60.545zm49.269 169.427-50.838-36.273c1.037-4.071 1.569-8.267 1.569-12.549v-33.219h60.545v33.219c0 16.99-3.881 33.669-11.276 48.822zm-70.938-264.681c0-28.64 23.301-51.94 51.941-51.94s51.941 23.301 51.941 51.94c0 15.177-6.625 29.557-18.174 39.451-2.218 1.9-3.494 4.675-3.494 7.595v28.208h-60.545v-28.208c0-2.92-1.276-5.694-3.494-7.595-11.551-9.895-18.175-24.274-18.175-39.451zm-78.819 228.409-50.831 36.273c-7.402-15.148-11.273-31.964-11.273-48.823v-33.215h60.545v33.215c0 4.211.52 8.468 1.559 12.55zm-65.958-196.289 50.004-35.673c9.424 17.158 14.394 36.61 14.394 56.188v22.62h-60.545v-22.62c.001-6.997-1.319-13.994-3.853-20.515zm3.854 63.135h60.545v67.39h-60.545zm-68.517-97.959c-11.676 2.54-22.426 8.817-30.39 17.727l-49.405-35.248c19.923-25.056 49.765-41.164 81.685-43.886v61.022c-.63.128-1.26.257-1.89.385zm-105.282 185.344h60.555v28.255h-60.555zm.002-20v-67.387h60.552v67.387zm14.402-166.204 50.006 35.677c-2.535 6.507-3.855 13.466-3.855 20.521v22.619h-60.555v-22.619c0-19.788 4.965-39.015 14.404-56.198zm112.768.483v-61.03c32.081 2.742 61.576 18.587 81.695 43.896l-49.408 35.248c-8.432-9.442-19.85-15.85-32.287-18.114zm68.285 284.922 49.269-35.159c7.517 9.904 18.42 16.755 30.646 19.199v61.101c-31.981-2.821-60.849-19.121-79.915-45.141z"/><path d="m427.739 110.653c1.953 1.952 4.512 2.929 7.071 2.929s5.119-.977 7.071-2.929l27.039-27.039c3.905-3.905 3.905-10.237 0-14.143-3.905-3.904-10.237-3.904-14.143 0l-19.967 19.968-6.448-6.448c-3.905-3.904-10.237-3.904-14.143 0-3.905 3.905-3.905 10.237 0 14.143z"/></g></g><circle cx="100.515" cy="496.457" r="10"/></g></svg>