<svg id="Capa_1" enable-background="new 0 0 512 512" height="512" viewBox="0 0 512 512" width="512"
     xmlns="http://www.w3.org/2000/svg">
  <g>
    <g>
      <path
        d="m349.131 502-19.52-29.947c-7.028-10.782-10.77-23.375-10.77-36.246v-95.59c0-13.699 11.105-24.804 24.804-24.804 13.699 0 24.804 11.105 24.804 24.804v60.811-145.028l54.781 91.257c9.487 15.805 13.394 34.488 11.742 52.796l-9.197 101.947z"
        fill="#ffdad5"/>
    </g>
    <g>
      <path d="m368.452 137.939v202.281c0-13.5-10.945-24.81-24.81-24.81-6.75 0-12.87 2.7-17.34 7.08v-184.551z"
            fill="#a0c8ff"/>
    </g>
    <g>
      <path
        d="m347.377 79.847c-11.638 0-21.072 9.434-21.072 21.072v37.021h42.145v-37.021c-.001-11.638-9.435-21.072-21.073-21.072z"
        fill="#838eb1"/>
    </g>
    <g>
      <path
        d="m431.805 342.11-53.353-88.877-.003-152.314c0-13.839-9.096-25.59-21.622-29.598-3.961-39.984-37.784-71.321-78.793-71.321h-151.221c-33.167 0-60.15 26.983-60.15 60.15s26.983 60.15 60.15 60.15h91.524c22.139 0 40.149 18.011 40.149 40.15v1.284c0 22.139-18.011 40.149-40.149 40.149h-89.609c-34.223 0-62.065 27.842-62.065 62.065s27.842 62.064 62.065 62.064h87.694c23.194 0 42.064 18.87 42.064 42.064s-18.87 42.064-42.064 42.064h-54.897c-5.523 0-10 4.477-10 10s4.477 10 10 10h54.897c34.222 0 62.064-27.842 62.064-62.064s-27.842-62.064-62.064-62.064h-87.694c-23.195 0-42.065-18.87-42.065-42.064 0-23.195 18.87-42.065 42.065-42.065h89.609c33.167 0 60.149-26.983 60.149-60.149v-1.284c0-33.167-26.983-60.15-60.149-60.15h-91.524c-22.139 0-40.15-18.011-40.15-40.15s18.012-40.15 40.15-40.15h151.221c30.106 0 55.017 22.602 58.699 51.725-11.907 4.355-20.428 15.797-20.428 29.193l-.003 217.804c-4.666 5.923-7.461 13.386-7.461 21.494v95.591c0 14.846 4.285 29.268 12.392 41.706l19.52 29.947c1.846 2.832 4.998 4.54 8.378 4.54h76.646c5.175 0 9.494-3.948 9.96-9.102l9.197-101.946c1.868-20.727-2.794-41.624-13.129-58.842zm-73.356-33.391c-4.495-2.122-9.516-3.309-14.808-3.309-2.496 0-4.952.262-7.34.773v-158.244h22.15zm-11.072-218.872c6.105 0 11.072 4.967 11.072 11.072v27.02h-22.145v-27.02c.001-6.106 4.968-11.072 11.073-11.072zm77.636 309.308-8.376 92.845h-62.088l-16.561-25.407c-5.984-9.182-9.147-19.827-9.147-30.785v-95.591c0-8.051 6.752-14.804 14.804-14.804 8.163 0 14.805 6.641 14.805 14.804v60.811c0 5.523 4.478 10 10 10s10-4.477 10-10v-60.75c0-.02.003-.038.003-.058v-48.127l36.204 60.312c8.17 13.61 11.848 30.213 10.356 46.75z"/>
      <path
        d="m126.782 416.32c-2.067-5.042-8.038-7.489-13.06-5.41-5.037 2.085-7.496 8.023-5.41 13.06 2.083 5.03 8.029 7.498 13.06 5.41 5.021-2.084 7.505-8.032 5.41-13.06z"/>
    </g>
  </g>
</svg>
