<?xml version="1.0" encoding="iso-8859-1"?>
<!-- Generator: Adobe Illustrator 19.0.0, SVG Export Plug-In . SVG Version: 6.00 Build 0)  -->
<svg version="1.1" id="Capa_1" xmlns="http://www.w3.org/2000/svg" x="0px" y="0px"
     viewBox="0 0 512 512" style="enable-background:new 0 0 512 512;" xml:space="preserve">
<path style="fill:#82C378;" d="M379.75,325.139c0,0-9.714-6.598-19.791-13.53c-14.69-10.103-32.09-15.529-49.918-15.529
	l-38.007-16.032c-10.267,10.265-34.279,12.752-48.767,13.694c-2.182,0.142-5.017,0.418-8.234,0.783
	c-34.523,3.925-55.924,19.363-72.025,50.153c-4.35,8.318-7.25,23.515-7.25,31.564v9.839c0,28.531-21.985,53.41-50.503,54.265
	c-29.508,0.885-53.707-22.772-53.707-52.08v9.553c0,38.427,28.999,71.98,67.346,74.46c42.019,2.719,76.945-30.556,76.945-71.989
	c0-0.148,0.001-0.295,0.002-0.442c0.215-19.605,16.88-34.77,36.451-35.929c6.047-0.358,12.538-0.145,17.174,1.709l80.894,32.358
	c17.044,6.818,35.233,10.321,53.591,10.321h44.356v-29.809C408.307,357.056,397.591,337.032,379.75,325.139z"/>
  <path style="fill:#FFE17D;" d="M328.145,280.048l-16.032-48.097l-248.5-96.194l53.88,77.623
	c11.852,17.252,29.009,30.167,48.866,36.786l176.535,60.035L328.145,280.048z"/>
  <path style="fill:#FFD164;" d="M268.742,177.033L7.5,87.661l30.496,45.744c11.431,17.146,28.066,30.169,47.455,37.149l228.73,84.723
	c-1.302-5.711-2.069-11.582-2.069-17.568C312.113,210.292,294.683,185.907,268.742,177.033z"/>
  <g>
	<path style="fill:#9EDF82;" d="M480.452,175.838h-58.864c-1.781,0-3.532-0.231-5.265-0.521v32.586
		c0,13.282,10.767,24.048,24.048,24.048h8.016v-8.016c0-8.854,7.178-16.032,16.032-16.032h32.065c4.489,0,8.05-3.719,8.015-8.208
		C504.396,186.501,493.669,175.838,480.452,175.838z"/>
    <path style="fill:#9EDF82;" d="M424.339,79.643h-58.864c-1.781,0-3.531-0.231-5.265-0.521v32.586
		c0,13.282,10.767,24.048,24.048,24.048h8.016v-8.016c0-8.854,7.178-16.032,16.032-16.032h32.065c4.489,0,8.05-3.719,8.015-8.208
		C448.283,90.307,437.557,79.643,424.339,79.643z"/>
    <path style="fill:#9EDF82;" d="M288.065,39.563h-58.864c-1.781,0-3.532-0.231-5.265-0.521v32.586
		c0,13.282,10.767,24.048,24.048,24.048H256V87.66c0-8.854,7.178-16.032,16.032-16.032h32.065c4.489,0,8.05-3.719,8.015-8.208
		C312.009,50.226,301.282,39.563,288.065,39.563z"/>
</g>
  <polygon style="fill:#5AB478;" points="31.549,280.048 7.5,288.064 31.549,223.935 55.597,288.064 "/>
  <g>
	<path style="fill:#9EDF82;" d="M247.166,344.776L247.166,344.776c-11.965-3.431-24.391,3.744-27.401,15.823l-19.878,79.771
		l26.069-15.642c9.151-5.491,16.546-13.477,21.319-23.022l13.339-25.64C267.032,363.73,260.533,348.608,247.166,344.776z"/>
    <path style="fill:#9EDF82;" d="M376.242,392.254v10.784c0,8.505,3.378,16.661,9.392,22.675l13.281,13.282
		c6.014,6.013,9.392,14.169,9.392,22.673v-69.414c0-7.914-5.775-14.644-13.597-15.846l0,0
		C384.999,374.915,376.242,382.429,376.242,392.254z"/>
</g>
  <path d="M242.496,219.118c-3.898-1.404-8.194,0.619-9.597,4.516s0.619,8.194,4.516,9.597l16.045,5.776
	c0.839,0.302,1.697,0.445,2.54,0.445c3.073,0,5.956-1.903,7.057-4.961c1.403-3.897-0.619-8.194-4.516-9.597L242.496,219.118z"/>
  <path d="M201.224,35.475c7.473,7.473,17.408,11.588,27.977,11.588h27.315v0.516c0,4.142,3.358,7.5,7.5,7.5s7.5-3.358,7.5-7.5v-0.516
	h16.548c9.125,0,16.548,7.423,16.548,16.548c0,0.285-0.231,0.516-0.516,0.516h-32.064c-12.976,0-23.532,10.557-23.532,23.532v0.516
	h-0.516c-9.125,0-16.548-7.423-16.548-16.548c0-4.142-3.358-7.5-7.5-7.5s-7.5,3.358-7.5,7.5c0,17.396,14.152,31.548,31.548,31.548
	h48.097c0.285,0,0.516,0.231,0.516,0.516c0,4.142,3.358,7.5,7.5,7.5s7.5-3.358,7.5-7.5c0-8.556-6.96-15.516-15.516-15.516H263.5
	V87.66c0-4.705,3.828-8.532,8.532-8.532h32.064c8.556,0,15.516-6.96,15.516-15.516c0-17.396-14.152-31.548-31.548-31.548H229.2
	c-6.562,0-12.73-2.555-17.37-7.195l-6.641-6.641c-2.929-2.929-7.678-2.929-10.606,0c-2.929,2.929-2.929,7.678,0,10.606
	L201.224,35.475z"/>
  <path d="M337.499,75.556c7.473,7.473,17.408,11.588,27.976,11.588h27.315v0.516c0,4.142,3.358,7.5,7.5,7.5s7.5-3.358,7.5-7.5v-0.516
	h16.548c9.125,0,16.548,7.423,16.548,16.548c0,0.285-0.231,0.516-0.516,0.516h-32.064c-12.976,0-23.532,10.557-23.532,23.532v0.517
	h-0.517c-9.125,0-16.548-7.424-16.548-16.549c0-4.142-3.358-7.5-7.5-7.5s-7.5,3.358-7.5,7.5c0,17.396,14.152,31.549,31.548,31.549
	h48.097c0.285,0,0.516,0.231,0.516,0.516c0,4.142,3.358,7.5,7.5,7.5s7.5-3.358,7.5-7.5c0-8.556-6.96-15.516-15.516-15.516h-32.581
	v-0.517c0-4.705,3.828-8.532,8.532-8.532h32.064c8.556,0,15.516-6.96,15.516-15.516c0-17.396-14.152-31.548-31.548-31.548h-58.864
	c-6.562,0-12.73-2.555-17.37-7.194l-6.641-6.641c-2.929-2.929-7.678-2.929-10.606,0c-2.929,2.929-2.929,7.678,0,10.606
	L337.499,75.556z"/>
  <path d="M464.42,215.403h32.064c8.556,0,15.516-6.96,15.516-15.516c0-17.396-14.152-31.548-31.548-31.548h-58.864
	c-6.561,0-12.73-2.555-17.37-7.195l-6.641-6.641c-2.929-2.929-7.678-2.929-10.606,0c-2.929,2.929-2.929,7.678,0,10.606l6.641,6.641
	c7.473,7.473,17.408,11.588,27.976,11.588h27.315v0.516c0,4.142,3.358,7.5,7.5,7.5s7.5-3.358,7.5-7.5v-0.516h16.548
	c9.125,0,16.548,7.423,16.548,16.548c0,0.285-0.231,0.516-0.516,0.516H464.42c-12.976,0-23.532,10.557-23.532,23.532v0.516h-0.516
	c-9.125,0-16.548-7.423-16.548-16.548c0-4.142-3.358-7.5-7.5-7.5s-7.5,3.358-7.5,7.5c0,17.396,14.152,31.548,31.548,31.548h48.097
	c0.285,0,0.516,0.231,0.516,0.516c0,4.142,3.358,7.5,7.5,7.5s7.5-3.358,7.5-7.5c0-8.556-6.96-15.516-15.516-15.516h-32.581v-0.516
	C455.887,219.23,459.715,215.403,464.42,215.403z"/>
  <path d="M464.42,256.515h-24.048c-26.805,0-48.613-21.808-48.613-48.613V191.87c0-4.142-3.358-7.5-7.5-7.5s-7.5,3.358-7.5,7.5
	v16.032c0,35.076,28.537,63.613,63.613,63.613h24.048c4.705,0,8.532,3.828,8.532,8.532s-3.828,8.532-8.532,8.532H340.819
	c-5.107-5.051-9.395-10.806-12.745-17.064h44.276c2.904,0,5.547-1.676,6.785-4.304c1.238-2.627,0.848-5.732-1.001-7.972
	c-11.89-14.399-18.438-32.631-18.438-51.337v-14.087c0-8.426-3.281-16.349-9.24-22.308l-9.961-9.961
	c-3.126-3.125-4.847-7.281-4.847-11.701V95.677c0-4.142-3.358-7.5-7.5-7.5s-7.5,3.358-7.5,7.5v54.168
	c0,8.427,3.282,16.35,9.241,22.308l9.96,9.961c3.126,3.126,4.847,7.282,4.847,11.702v14.087c0,17.152,4.645,33.971,13.271,48.613
	h-35.843c-1.642-6.052-2.509-12.366-2.509-18.806c0-24.407-12.375-46.652-32.064-59.7v-18.204c0-21.816-17.749-39.564-39.564-39.564
	c-26.805,0-48.613-21.808-48.613-48.613V55.596c0-4.142-3.358-7.5-7.5-7.5s-7.5,3.358-7.5,7.5v16.032
	c0,35.076,28.537,63.613,63.613,63.613c13.545,0,24.564,11.02,24.564,24.564v10.633c-0.459-0.168-0.915-0.344-1.379-0.502
	L9.928,80.564c-3.042-1.04-6.409-0.027-8.37,2.521c-1.961,2.547-2.081,6.061-0.298,8.736l30.496,45.744
	c12.234,18.352,30.401,32.574,51.155,40.045l1.187,0.427l27.214,39.59c12.697,18.481,31.404,32.564,52.676,39.655l113.689,37.896
	c0.787,0.262,1.586,0.387,2.373,0.387c3.14,0,6.066-1.988,7.114-5.13c1.31-3.93-0.814-8.177-4.744-9.487l-113.689-37.896
	c-18.195-6.065-34.196-18.111-45.056-33.918l-15.379-22.385l97.059,34.941c3.898,1.403,8.194-0.619,9.597-4.516
	s-0.619-8.194-4.516-9.597l-122.444-44.08c-17.751-6.391-33.291-18.555-43.755-34.252l-18.213-27.32l240.291,82.205
	c22.908,7.837,38.299,29.37,38.299,53.581c0,29.024,14.418,55.964,38.567,72.063l32.41,21.606
	c15.79,10.527,25.217,28.141,25.217,47.118v51.783l-9.87-9.87c-4.64-4.64-7.195-10.809-7.195-17.37v-18.783
	c0-4.142-3.358-7.5-7.5-7.5s-7.5,3.358-7.5,7.5v16.548h-1.96c-19.262,0-37.954-3.967-55.556-11.79l-40.294-17.909
	c1.507-3.608-0.011-7.816-3.561-9.59c-3.705-1.853-8.209-0.351-10.062,3.354l-16.741,33.482c-4.142,8.283-10.529,15.18-18.47,19.945
	l-10.542,6.326l19.657-78.628c1.005-4.018-1.438-8.09-5.457-9.095c-4.014-1.005-8.09,1.438-9.095,5.457l-2.6,10.398
	c-25.376,0.981-45.721,21.921-45.721,47.534c0,35.646-29,64.645-64.646,64.645c-21.374,0-40.359-10.429-52.135-26.462
	c9.27,5.946,20.288,9.398,32.095,9.398c32.866,0,59.605-26.739,59.605-59.605v-12.024c0-40.065,32.596-72.661,72.661-72.661h8.016
	c4.142,0,7.5-3.358,7.5-7.5s-3.358-7.5-7.5-7.5h-8.016c-48.336,0-87.661,39.325-87.661,87.661v12.024
	c0,24.595-20.01,44.605-44.605,44.605s-44.605-20.01-44.605-44.605v-97.812l14.177,4.726c0.777,0.259,1.578,0.385,2.371,0.385
	c2.004,0,3.964-0.804,5.401-2.296c2.006-2.082,2.637-5.131,1.622-7.837l-24.048-64.129c-1.098-2.927-3.896-4.867-7.022-4.867
	s-5.925,1.939-7.022,4.867L0.478,285.43c-1.015,2.707-0.384,5.756,1.622,7.837c2.006,2.082,5.03,2.824,7.772,1.911l14.177-4.726
	V400.29c0,43.917,35.729,79.645,79.646,79.645s79.645-35.729,79.645-79.646c0-16.01,11.612-29.351,26.854-32.066l-17.582,70.329
	c-0.435,1.737-0.233,3.572,0.568,5.173l18.621,37.243h-7.906c-4.142,0-7.5,3.358-7.5,7.5s3.358,7.5,7.5,7.5h20.025
	c0.007,0,0.014,0.001,0.021,0.001c0.009,0,0.017-0.001,0.026-0.001h3.976c1.876,0,3.684-0.703,5.067-1.97
	c3.01-2.758,8.051-6.046,14.974-6.046s11.964,3.288,14.974,6.046c1.44,1.319,3.255,1.97,5.065,1.97c2.029,0,4.053-0.819,5.532-2.433
	c2.798-3.054,2.591-7.798-0.463-10.597c-7.028-6.44-15.945-9.986-25.107-9.986c-7.185,0-14.217,2.182-20.307,6.228l-17.975-35.951
	l20.114-12.068c10.392-6.235,18.749-15.26,24.168-26.099l10.256-20.513l40.894,18.175c19.532,8.681,40.274,13.083,61.648,13.083
	h4.065c1.925,5.664,5.129,10.857,9.483,15.21l13.282,13.282c4.64,4.64,7.195,10.809,7.195,17.37v19.299h-12.541
	c-4.142,0-7.5,3.358-7.5,7.5s3.358,7.5,7.5,7.5h24.048c1.876,0,3.684-0.703,5.067-1.971c3.01-2.758,8.051-6.045,14.974-6.045
	s11.963,3.288,14.973,6.045c1.439,1.319,3.255,1.971,5.065,1.971c2.029,0,4.052-0.819,5.531-2.433
	c2.799-3.054,2.592-7.798-0.462-10.596c-7.027-6.44-15.944-9.987-25.107-9.987c-5.749,0-11.399,1.401-16.548,4.032v-98.486
	c0-24.004-11.924-46.284-31.896-59.599l-22.978-15.319H464.42c12.976,0,23.532-10.557,23.532-23.532S477.395,256.515,464.42,256.515
	z M31.549,272.548c-0.801,0-1.602,0.128-2.372,0.385l-9.134,3.045l11.506-30.683l11.506,30.683l-9.134-3.045
	C33.151,272.676,32.349,272.548,31.549,272.548z"/>
  <g>
</g>
  <g>
</g>
  <g>
</g>
  <g>
</g>
  <g>
</g>
  <g>
</g>
  <g>
</g>
  <g>
</g>
  <g>
</g>
  <g>
</g>
  <g>
</g>
  <g>
</g>
  <g>
</g>
  <g>
</g>
  <g>
</g>
</svg>
