<?xml version="1.0" encoding="iso-8859-1"?>
<!-- Generator: Adobe Illustrator 19.0.0, SVG Export Plug-In . SVG Version: 6.00 Build 0)  -->
<svg version="1.1" id="Capa_1" xmlns="http://www.w3.org/2000/svg" xmlns:xlink="http://www.w3.org/1999/xlink" x="0px" y="0px"
	 viewBox="0 0 512 512" style="enable-background:new 0 0 512 512;" xml:space="preserve">
<g>
	<path style="fill:#AFD755;" d="M96.348,103.694h55.696v32.065l-75.151-16.032l6.244-9.083
		C86.128,106.293,91.069,103.694,96.348,103.694z"/>
	<path style="fill:#AFD755;" d="M288.735,280.048h55.696v32.065l-75.151-16.032l6.244-9.083
		C278.515,282.647,283.456,280.048,288.735,280.048z"/>
	<path style="fill:#AFD755;" d="M416.159,280.048h-55.696v32.065l75.151-16.032l-6.244-9.083
		C426.379,282.647,421.438,280.048,416.159,280.048z"/>
	<path style="fill:#AFD755;" d="M220.766,103.694H165.07v32.065l75.151-16.032l-6.244-9.083
		C230.986,106.293,226.045,103.694,220.766,103.694z"/>
</g>
<g>
	<path style="fill:#BEE86E;" d="M284.31,183.855h-60.121c-22.136,0-40.081-17.945-40.081-40.081s17.945-40.081,40.081-40.081h110.85
		l1.375-56.113H220.181c-50.913,0-92.185,41.272-92.185,92.185s41.273,92.186,92.185,92.186h68.137
		c35.417,0,64.129,28.712,64.129,64.129s-28.712,64.129-64.129,64.129c-57.553,0-104.21,46.656-104.21,104.21V504.5
		c17.709,0,32.065-14.356,32.065-32.065v-8.016c0-35.417,28.712-64.129,64.129-64.129h4.008
		c59.767,0,108.218-48.451,108.218-108.218S344.077,183.855,284.31,183.855z"/>
	<path style="fill:#BEE86E;" d="M440.624,47.581h-24.048l-14.657-14.657c-6.013-6.013-14.169-9.392-22.673-9.392H304.35v48.097
		l30.689,30.689c6.013,6.013,14.169,9.391,22.673,9.391h26.799V95.677c0-8.854,7.178-16.032,16.032-16.032h56.113V63.613
		C456.657,54.759,449.479,47.581,440.624,47.581z"/>
</g>
<path style="fill:#AFD755;" d="M384.512,55.597v-7.5H304.35v15.516l30.466,36.559c6.092,7.31,15.117,11.537,24.633,11.537h25.062
	V95.677c0-8.854,7.178-16.032,16.032-16.032h8.016C395.278,79.645,384.512,68.878,384.512,55.597z"/>
<path style="fill:#FFB464;" d="M272.286,47.581l20.325,20.325c7.517,7.517,17.711,11.739,28.341,11.739h29.835
	c3.571,0,5.359-4.317,2.834-6.842L340.138,59.32c-7.517-7.517-17.711-11.739-28.341-11.739H272.286z"/>
<path style="fill:#FFD764;" d="M292.444,7.5h-44.207l25.993,25.993c9.02,9.02,21.253,14.087,34.01,14.087h44.207l-25.993-25.993
	C317.434,12.567,305.2,7.5,292.444,7.5z"/>
<path style="fill:#FFB464;" d="M288.318,207.903h-65.73c-36.257,0-67.967-27.299-70.388-63.474
	c-2.656-39.673,28.87-72.8,67.981-72.8h115.645l0.589-24.048H223.238c-50.756,0-94.297,39.709-95.227,90.458
	c-0.945,51.703,40.682,93.913,92.17,93.913h65.798c33.912,0,63.724,25.329,66.279,59.144c2.825,37.388-26.435,68.645-63.114,69.108
	c-57.76,0.729-105.036,46.472-105.036,104.237c0,8.221,0,15.413,0,21.444c0-56.127,45.5-101.627,101.626-101.627
	c45.889,0,86.059-33.99,90.36-79.677C381.03,252.155,339.745,207.903,288.318,207.903z"/>
<path d="M384.592,63.097c4.142,0,7.5-3.358,7.5-7.5s-3.358-7.5-7.5-7.5h-0.08c-4.142,0-7.46,3.358-7.46,7.5
	S380.45,63.097,384.592,63.097z"/>
<path d="M240.221,239.452c4.142,0,7.5-3.358,7.5-7.5s-3.358-7.5-7.5-7.5h-16.548v-4.023c0-4.143-3.358-7.5-7.5-7.5
	s-7.5,3.357-7.5,7.5v3.22c-14.178-1.936-27.246-7.386-38.299-15.453l3.006-3.005c2.929-2.929,2.929-7.678,0-10.607
	s-7.678-2.929-10.606,0l-3.71,3.71c-12.071-12.6-20.291-28.902-22.765-47.02h7.729c4.142,0,7.5-3.358,7.5-7.5
	c0-4.143-3.358-7.5-7.5-7.5h-8.444c0.705-17.265,6.6-33.207,16.167-46.315l7.406,7.406c1.464,1.464,3.384,2.196,5.303,2.196
	c1.919,0,3.839-0.732,5.303-2.196c2.929-2.929,2.929-7.678,0-10.606l-8.11-8.111c12.6-12.071,28.902-20.291,47.02-22.765v12.76
	c0,4.142,3.358,7.5,7.5,7.5s7.5-3.358,7.5-7.5V55.081h16.548c4.142,0,7.5-3.358,7.5-7.5s-3.358-7.5-7.5-7.5H220.18
	c-39.351,0-73.446,22.922-89.644,56.113H95.424c-7.004,0-13.593,3.086-18.078,8.468l-30.745,36.895
	c-5.732-3.438-12.204-5.281-18.807-5.281c-9.163,0-18.079,3.546-25.107,9.986c-3.054,2.798-3.261,7.542-0.463,10.597
	c1.479,1.614,3.502,2.433,5.532,2.433c1.81,0,3.625-0.651,5.065-1.97c3.01-2.758,8.051-6.045,14.974-6.045
	s11.963,3.287,14.973,6.045c1.383,1.268,3.191,1.971,5.067,1.971h24.048c4.142,0,7.5-3.357,7.5-7.5c0-4.142-3.358-7.5-7.5-7.5
	h-8.036l14.265-17.118l42.443,9.337c-0.035,1.082-0.059,2.166-0.059,3.256c0,54.967,44.719,99.686,99.685,99.686h20.04V239.452z
	 M88.933,114.194c1.625-1.906,3.983-3.001,6.491-3.001h29.251c-1.009,3.368-1.846,6.809-2.498,10.314L88.933,114.194z"/>
<path d="M509.313,322.616c-7.028-6.44-15.944-9.987-25.107-9.987c-6.602,0-13.075,1.843-18.807,5.281l-30.746-36.895
	c-4.484-5.381-11.074-8.467-18.078-8.467h-18.204c-9.307-54.542-56.908-96.194-114.062-96.194h-60.121
	c-17.965,0-32.581-14.615-32.581-32.58c0-2.613,0.318-5.151,0.901-7.587l40.975-9.015l14.265,17.118h-8.035
	c-4.142,0-7.5,3.358-7.5,7.5c0,4.143,3.358,7.5,7.5,7.5h24.048c1.876,0,3.684-0.703,5.067-1.971c3.01-2.758,8.05-6.045,14.973-6.045
	s11.964,3.287,14.974,6.045c1.439,1.319,3.255,1.971,5.065,1.971c2.029,0,4.052-0.818,5.531-2.433
	c2.799-3.054,2.592-7.798-0.462-10.597c-7.027-6.44-15.944-9.986-25.107-9.986c-6.602,0-13.075,1.843-18.807,5.281l-25.301-30.362
	h94.885c7.763,5.214,16.892,8.017,26.453,8.017h79.592c4.142,0,7.5-3.358,7.5-7.5c0-4.143-3.358-7.5-7.5-7.5h-48.613v-8.532
	c0-4.705,3.828-8.532,8.532-8.532h40.597v0.516c0,4.143,3.358,7.5,7.5,7.5s7.5-3.357,7.5-7.5v-0.516h0.516
	c4.142,0,7.5-3.358,7.5-7.5V63.613c0-12.976-10.557-23.532-23.532-23.532h-20.942l-12.46-12.46
	c-7.473-7.473-17.409-11.588-27.977-11.588h-47.753C321.022,5.695,307.172,0,292.444,0h-68.255c-4.142,0-7.5,3.358-7.5,7.5
	s3.358,7.5,7.5,7.5h20.942l25.325,25.331c-2.263,0.571-4.179,2.159-5.1,4.38c-1.161,2.802-0.519,6.028,1.626,8.173l20.325,20.325
	c5.661,5.662,12.5,9.717,19.961,11.945l11.039,11.039h-94.119c-26.236,0-47.581,21.345-47.581,47.581s21.345,47.58,47.581,47.58
	h60.121c55.536,0,100.718,45.182,100.718,100.718s-45.182,100.717-100.718,100.717h-4.008c-39.496,0-71.629,32.133-71.629,71.629
	v8.016c0,10.931-7.176,20.217-17.064,23.394v-31.41c0-6.19,0.592-12.244,1.709-18.114c0.268,0.029,0.537,0.063,0.805,0.063
	c2.28,0,4.532-1.036,6.006-3c2.485-3.313,1.814-8.015-1.5-10.5l-1.368-1.026c5.235-14.589,13.882-27.564,24.974-37.962
	c1.415,1.252,3.185,1.886,4.96,1.886c1.919,0,3.839-0.732,5.303-2.197c2.424-2.424,2.836-6.092,1.247-8.946
	c13.604-9.334,29.702-15.286,47.073-16.625v0.227c0,4.143,3.358,7.5,7.5,7.5s7.5-3.357,7.5-7.5v-0.91
	c16.119-1.685,30.652-8.749,41.8-19.345l0.007,0.007c1.465,1.465,3.384,2.197,5.304,2.197c1.919,0,3.839-0.732,5.303-2.197
	c2.929-2.929,2.929-7.677,0-10.606l-0.84-0.84c6.576-9.574,10.893-20.814,12.161-32.951h0.91c4.142,0,7.5-3.358,7.5-7.5
	s-3.358-7.5-7.5-7.5h-0.91c-1.478-14.135-7.088-27.053-15.591-37.538l0.428-0.428c2.929-2.929,2.928-7.678,0-10.606
	c-2.93-2.929-7.678-2.929-10.607,0l-0.427,0.428c-12.314-9.986-27.986-15.985-45.038-15.985h-0.516v-0.516
	c0-4.142-3.358-7.5-7.5-7.5s-7.5,3.358-7.5,7.5v0.516h-0.519c-4.142,0-7.5,3.358-7.5,7.5s3.358,7.5,7.5,7.5h16.035
	c22.831,0,42.536,13.589,51.488,33.097H287.81c-7.005,0-13.594,3.086-18.078,8.467l-30.745,36.895
	c-5.732-3.438-12.204-5.281-18.806-5.281c-9.164,0-18.081,3.547-25.108,9.987c-3.054,2.798-3.26,7.542-0.462,10.596
	c1.479,1.614,3.502,2.433,5.531,2.433c1.81,0,3.625-0.651,5.065-1.971c3.009-2.758,8.05-6.046,14.973-6.046
	c6.923,0,11.963,3.288,14.973,6.046c1.383,1.268,3.191,1.971,5.067,1.971h24.048c4.142,0,7.5-3.358,7.5-7.5
	c0-4.143-3.358-7.5-7.5-7.5h-8.036l14.265-17.119l69.652,15.324c-8.783,19.916-28.705,33.859-51.833,33.859
	c-61.597,0-111.709,50.112-111.709,111.709V504.5c0,4.142,3.358,7.5,7.5,7.5c21.816,0,39.564-17.749,39.564-39.564v-8.016
	c0-31.225,25.404-56.629,56.629-56.629h4.008c57.246,0,104.908-41.787,114.106-96.459l35.472-7.804l14.265,17.119h-8.036
	c-4.142,0-7.5,3.357-7.5,7.5c0,4.142,3.358,7.5,7.5,7.5h24.048c1.876,0,3.684-0.703,5.067-1.971
	c3.009-2.758,8.05-6.046,14.973-6.046s11.964,3.288,14.974,6.046c1.439,1.319,3.255,1.971,5.065,1.971
	c2.029,0,4.052-0.819,5.531-2.434C512.575,330.158,512.368,325.414,509.313,322.616z M357.75,42.277l-11.245-11.245h32.741
	c6.562,0,12.73,2.555,17.37,7.195l14.657,14.657c1.406,1.406,3.314,2.197,5.303,2.197h24.048c4.705,0,8.532,3.828,8.532,8.532v8.533
	h-0.511c-0.002,0-0.003,0-0.005,0s-0.003,0-0.005,0h-48.092c-12.976,0-23.532,10.556-23.532,23.532v8.532h-15.979
	c-8.703,0-16.884-3.39-23.038-9.543l-7.522-7.521h29.99c3.034,0,5.768-1.828,6.929-4.63c1.161-2.803,0.519-6.028-1.626-8.174
	l-19.261-19.261h5.942c3.034,0,5.768-1.828,6.929-4.63C360.537,47.648,359.895,44.422,357.75,42.277z M279.534,28.19L266.344,15
	h26.1c10.844,0,21.039,4.223,28.707,11.891l13.19,13.19h-26.1C297.396,40.081,287.202,35.858,279.534,28.19z M297.914,62.603
	l-7.522-7.522h21.405c8.703,0,16.884,3.389,23.038,9.542l7.522,7.522h-21.405C312.249,72.146,304.068,68.756,297.914,62.603z
	 M220.363,111.426l2.306,2.768l-18.791,4.134C208.512,114.621,214.174,112.154,220.363,111.426z M281.32,290.549
	c1.624-1.907,3.983-3.001,6.49-3.001h56.493c0.423,2.784,0.644,5.633,0.644,8.533c0,2.83-0.215,5.61-0.618,8.331L281.32,290.549z
	 M399.968,295.631c0.036-1.183,0.06-2.368,0.06-3.559c0-1.516-0.039-3.022-0.097-4.524h16.645c2.508,0,4.866,1.095,6.491,3.001
	L399.968,295.631z"/>
<g>
</g>
<g>
</g>
<g>
</g>
<g>
</g>
<g>
</g>
<g>
</g>
<g>
</g>
<g>
</g>
<g>
</g>
<g>
</g>
<g>
</g>
<g>
</g>
<g>
</g>
<g>
</g>
<g>
</g>
</svg>
