<?xml version="1.0" encoding="iso-8859-1"?>
<!-- Generator: Adobe Illustrator 19.0.0, SVG Export Plug-In . SVG Version: 6.00 Build 0)  -->
<svg version="1.1" id="Capa_1" xmlns="http://www.w3.org/2000/svg" xmlns:xlink="http://www.w3.org/1999/xlink" x="0px" y="0px"
	 viewBox="0 0 512 512" style="enable-background:new 0 0 512 512;" xml:space="preserve">
<path style="fill:#82C378;" d="M488.488,139.755h-25.426c-4.252,0-8.332-1.69-11.338-4.697l-1.94-1.941
	c-6.015-6.016-14.172-9.396-22.679-9.396H384.27c-13.283,0-24.05,10.768-24.05,24.05v88.185c0,17.711-14.357,32.068-32.068,32.068
	H201.021c-21.262,0-41.654,8.447-56.688,23.481l-29.733,29.734c-5.607,5.607-12.784,9.672-20.654,10.649
	c-20.729,2.572-38.366-13.525-38.366-33.742v20.699c0,19.617,12.172,37.896,30.968,43.512c17.279,5.162,35.274-0.658,46.263-13.846
	l5.782-6.937c12.772-15.323,33.677-21.172,52.548-14.702l90.212,30.931c15.063,5.164,30.877,7.801,46.8,7.801h37.36
	c2.731,0,5.464-0.083,8.19-0.248c14.884-0.903,29.089-6.921,40.147-17.18c19.843-18.406,25.029-47.845,14.977-72.974l-19.729-49.322
	c-4.212-10.532,3.543-21.988,14.886-21.988h0.368v-16.033c0-8.855,7.179-16.033,16.033-16.033h64.135V155.79
	C504.521,146.934,497.343,139.755,488.488,139.755z"/>
<path style="fill:#867E88;" d="M328.151,223.297l-152.319-83.54l31.787,63.573c5.339,10.679,14.46,18.991,25.589,23.319
	l94.244,36.65c0.232,0.091,0.467,0.093,0.7,0.176v-40.178H328.151z"/>
<path style="fill:#6F6571;" d="M267.126,147.848L103.681,83.638l26.331,42.13c8.979,14.365,21.904,25.84,37.232,33.053
	l160.797,75.67C326.886,196.113,303.036,161.956,267.126,147.848z"/>
<path style="fill:#5AB478;" d="M392.286,171.823v8.017c0,13.283,10.768,24.05,24.05,24.05h7.649h0.368v-16.033
	c0-8.855,7.179-16.033,16.033-16.033h64.135V155.79h-96.202C399.464,155.79,392.286,162.968,392.286,171.823z"/>
<polygon style="fill:#E6646E;" points="24.485,147.37 52.828,153.039 47.16,124.695 7.479,107.689 "/>
<path style="fill:#5AB478;" d="M392.286,324.142c0-8.856-7.179-16.033-16.033-16.033c-8.855,0-16.033,7.179-16.033,16.033v17.409
	h-24.05c-15.924,0-31.738-2.636-46.8-7.801l-46.274-15.865l0.149-0.297c3.035-6.071,3.536-13.097,1.393-19.537
	c-8.307-24.966-44.93-22.792-49.47,3.125c-0.073,0.419-0.14,0.84-0.201,1.263l-11.117,77.82l26.071-15.643
	c9.152-5.491,16.548-13.479,21.321-23.025l0.415-0.829l49.695,17.038c15.063,5.164,30.877,7.801,46.8,7.801h37.36
	c1.327,0,2.652-0.081,3.978-0.12l22.796,22.795V324.142z"/>
<path d="M439.93,147.773c0-4.142-3.358-7.501-7.501-7.501h-0.08c-4.142,0-7.461,3.358-7.461,7.501s3.398,7.501,7.541,7.501
	C436.571,155.274,439.93,151.915,439.93,147.773z"/>
<path d="M488.466,132.256h-28.96l-4.444-4.444c-7.474-7.474-17.409-11.589-27.978-11.589H393.13c-4.451,0-8.823-1.21-12.639-3.5
	l-32.468-19.481c-3.554-2.132-8.16-0.979-10.291,2.572c-2.131,3.552-0.979,8.16,2.572,10.291l32.468,19.481
	c6.148,3.688,13.188,5.638,20.358,5.638h33.953c6.562,0,12.731,2.555,17.371,7.196l6.642,6.642c1.407,1.406,3.314,2.196,5.303,2.196
	h32.067c4.705,0,8.533,3.828,8.533,8.533v8.533h-56.634c-12.977,0-23.534,10.558-23.534,23.534v8.533h-0.516
	c-9.126,0-16.549-7.424-16.549-16.549c0-4.142-3.358-7.501-7.501-7.501c-4.142,0-7.501,3.358-7.501,7.501
	c0,12.777,7.639,23.796,18.585,28.752c-3.378,6.141-3.869,13.49-1.236,20.073l20.608,51.518
	c9.721,24.304,1.634,51.904-19.666,67.119l-3.289,2.349V332.16c0-4.142-3.358-7.501-7.501-7.501c-4.142,0-7.501,3.358-7.501,7.501
	v38.009l-9.871-9.871c-4.64-4.64-7.196-10.81-7.196-17.371v-10.768c0-4.142-3.358-7.501-7.501-7.501
	c-4.142,0-7.501,3.358-7.501,7.501v10.768c0,5.293,1.033,10.428,3.003,15.174H328.13c-15.128,0-30.057-2.488-44.37-7.396
	c-3.916-1.344-8.185,0.745-9.528,4.663s0.744,8.185,4.663,9.528c15.881,5.444,32.447,8.206,49.234,8.206h38.352l11.086,11.085
	c4.64,4.64,7.196,10.81,7.196,17.371v19.301h-12.542c-4.142,0-7.501,3.358-7.501,7.501s3.358,7.501,7.501,7.501h24.05
	c1.876,0,3.684-0.703,5.067-1.971c3.01-2.758,8.052-6.046,14.975-6.046c6.924,0,11.964,3.288,14.974,6.046
	c1.439,1.319,3.255,1.971,5.065,1.971c2.029,0,4.052-0.819,5.531-2.433c2.799-3.054,2.592-7.799-0.462-10.597
	c-7.028-6.441-15.945-9.988-25.109-9.988c-5.749,0-11.4,1.401-16.549,4.032v-48.789l12.009-8.578
	c26.941-19.245,37.17-54.155,24.874-84.897l-20.608-51.518c-1.068-2.672-0.756-5.57,0.857-7.954
	c1.613-2.383,4.188-3.749,7.066-3.749h64.503c4.142,0,7.501-3.358,7.501-7.501s-3.358-7.501-7.501-7.501h-56.634v-8.533
	c0-4.705,3.828-8.533,8.533-8.533h48.617v0.516c0,4.142,3.358,7.501,7.501,7.501s7.501-3.358,7.501-7.501v-0.516h0.516
	c4.142,0,7.501-3.358,7.501-7.501v-16.033C512,142.813,501.443,132.256,488.466,132.256z"/>
<path d="M123.63,129.744c9.763,15.619,23.732,28.021,40.398,35.864l21.345,10.045l15.515,31.031
	c6.185,12.37,16.689,21.943,29.58,26.955l94.243,36.65c3.701,1.439,7.579,2.147,11.437,2.147c6.27,0,12.488-1.87,17.813-5.511
	c8.602-5.884,13.737-15.619,13.737-26.041v-97.62c0-4.142-3.358-7.501-7.501-7.501c-4.142,0-7.501,3.358-7.501,7.501v97.62
	c0,5.548-2.626,10.527-7.206,13.659c-2.989,2.044-6.409,3.02-9.86,2.899v-20.054c0-20.92-6.228-41.116-18.01-58.403
	c-11.782-17.287-28.302-30.469-47.774-38.118l-163.446-64.21c-3.012-1.184-6.444-0.301-8.512,2.188
	c-2.068,2.489-2.307,6.025-0.591,8.769L123.63,129.744z M264.362,154.83c16.654,6.543,30.785,17.818,40.863,32.605
	c10.078,14.786,15.404,32.061,15.404,49.954v15.217l-84.724-32.949c-9.412-3.66-17.082-10.65-21.599-19.683l-7.001-14.001
	l69.53,32.72c3.747,1.764,8.217,0.155,9.98-3.593s0.155-8.217-3.593-9.98l-112.807-53.086c-14.053-6.614-25.833-17.07-34.065-30.242
	l-14.292-22.868L264.362,154.83z"/>
<path d="M263.681,260.525H201c-23.418,0-45.433,9.119-61.991,25.677l-30.692,30.692c-5.062,5.063-11.814,7.827-18.985,7.765
	c-14.648-0.128-26.274-12.463-26.274-27.112V195.873v-21.289c0-5.18-0.503-10.349-1.502-15.432l-7.063-35.928
	c-0.484-2.422-2.13-4.45-4.4-5.423l-39.681-17.006c-3.151-1.35-6.862-0.405-8.973,2.415c-1.645,2.198-1.849,5.162-0.768,7.687
	l16.898,39.428c0.973,2.27,3.001,3.916,5.423,4.4l18.634,3.727c3.739,0.748,6.432,4.031,6.432,7.845v29.577v102.274v21.591
	c0,27.593,21.52,50.839,49.091,51.947c16.005,0.643,31.206-6.137,41.403-18.373l5.777-6.932
	c9.459-11.349,24.469-16.561,38.746-13.887l-6.673,46.706c-0.215,1.51,0.034,3.05,0.717,4.415l18.623,37.246h-7.592
	c-4.107,0-7.689,3.165-7.812,7.27c-0.127,4.247,3.278,7.732,7.498,7.732h24.05c1.896,0,3.705-0.727,5.105-2.005
	c3.014-2.751,8.043-6.012,14.936-6.012c6.924,0,11.964,3.288,14.974,6.046c1.439,1.319,3.255,1.971,5.065,1.971
	c2.111,0,4.216-0.886,5.709-2.633c2.667-3.122,2.155-7.883-0.896-10.63c-6.988-6.293-15.799-9.755-24.852-9.755
	c-7.186,0-14.218,2.182-20.309,6.229l-17.977-35.954l20.115-12.069c8.764-5.257,16.072-12.506,21.402-21.148l15.725,5.391
	c0.806,0.276,1.626,0.407,2.433,0.407c3.285,0,6.344-2.176,7.253-5.587c1.024-3.844-1.295-7.802-5.058-9.092l-13.334-4.571
	l12.351-24.702c1.837-3.674,0.608-8.295-3.01-10.241c-3.742-2.013-8.38-0.524-10.266,3.249l-16.742,33.484
	c-4.134,8.27-10.542,15.188-18.47,19.945l-12.56,7.537l8.889-62.22c2.278-15.948,16.145-27.975,32.256-27.975h29.37
	c4.219,0,7.625-3.483,7.498-7.732C271.369,263.689,267.788,260.525,263.681,260.525z M29.803,140.789l-8.065-18.819l18.819,8.065
	l2.688,13.442L29.803,140.789z M187.519,301.379l-2.322,16.253c-19.354-3.377-39.589,3.779-52.394,19.145l-5.777,6.932
	c-6.894,8.272-17.023,13.017-27.792,13.017c-16.177,0-29.908-10.675-34.52-25.35c6.934,5.199,15.541,8.284,24.856,8.284
	c11.089,0,21.514-4.318,29.355-12.159l30.692-30.692c13.496-13.496,31.371-21.013,50.418-21.26
	C193.477,282.493,188.943,291.408,187.519,301.379z"/>
<g>
</g>
<g>
</g>
<g>
</g>
<g>
</g>
<g>
</g>
<g>
</g>
<g>
</g>
<g>
</g>
<g>
</g>
<g>
</g>
<g>
</g>
<g>
</g>
<g>
</g>
<g>
</g>
<g>
</g>
</svg>
