<svg height="512pt" viewBox="0 -102 512 512" width="512pt" xmlns="http://www.w3.org/2000/svg"><path d="m42.222656 10c-17.796875 0-32.222656 14.425781-32.222656 32.222656v224.429688c0 17.796875 14.425781 32.222656 32.222656 32.222656h69.277344v-288.875zm0 0" fill="#f05f90"/><path d="m111.5 10h289v288.871094h-289zm0 0" fill="#52607e"/><path d="m469.777344 10h-69.277344v288.871094h69.277344c17.796875 0 32.222656-14.425782 32.222656-32.21875v-224.429688c0-17.796875-14.425781-32.222656-32.222656-32.222656zm0 0" fill="#ffe681"/><path d="m111.5 248.871094v-188.871094h289v188.871094h-177" fill="#ede6f5"/><path d="m176.5 258.878906c-.648438 0-1.308594-.070312-1.949219-.199218-.640625-.132813-1.269531-.320313-1.871093-.570313-.609376-.25-1.191407-.5625-1.730469-.921875-.550781-.359375-1.058594-.78125-1.519531-1.238281-.460938-.460938-.878907-.980469-1.238282-1.519531-.363281-.550782-.671875-1.132813-.921875-1.730469-.25-.601563-.441406-1.230469-.570312-1.871094-.128907-.648437-.199219-1.300781-.199219-1.949219 0-.660156.070312-1.3125.199219-1.960937.128906-.640625.320312-1.269531.570312-1.871094.25-.597656.558594-1.179687.921875-1.726563.359375-.542968.777344-1.0625 1.238282-1.523437.460937-.457031.96875-.878906 1.519531-1.238281.539062-.359375 1.121093-.667969 1.730469-.917969.601562-.25 1.230468-.441406 1.871093-.570313 3.25-.652343 6.699219.410157 9.019531 2.726563.460938.460937.878907.980469 1.238282 1.523437.363281.546876.671875 1.128907.921875 1.726563.25.601563.449219 1.230469.570312 1.871094.128907.648437.199219 1.300781.199219 1.960937 0 .648438-.070312 1.300782-.199219 1.949219-.121093.640625-.320312 1.269531-.570312 1.871094-.25.597656-.558594 1.179687-.921875 1.730469-.359375.539062-.777344 1.058593-1.238282 1.519531-1.859374 1.859375-4.441406 2.929687-7.070312 2.929687zm0 0"/><path d="m81.25 90.777344c0 11.046875-8.953125 20-20 20s-20-8.953125-20-20 8.953125-20 20-20 20 8.953125 20 20zm0 0" fill="#ede6f5"/><path d="m61.25 120.777344c-16.542969 0-30-13.457032-30-30 0-16.542969 13.457031-30 30-30s30 13.457031 30 30c0 16.542968-13.457031 30-30 30zm0-40c-5.515625 0-10 4.484375-10 10 0 5.511718 4.484375 10 10 10s10-4.488282 10-10c0-5.515625-4.484375-10-10-10zm0 0"/><path d="m469.777344 0h-427.554688c-23.28125 0-42.222656 18.941406-42.222656 42.222656v224.429688c0 23.28125 18.941406 42.222656 42.222656 42.222656h427.554688c23.28125 0 42.222656-18.941406 42.222656-42.222656v-224.429688c0-23.28125-18.941406-42.222656-42.222656-42.222656zm-79.277344 50h-269v-30h269zm-370.5 216.652344v-224.429688c0-12.253906 9.96875-22.222656 22.222656-22.222656h59.277344v268.871094h-59.277344c-12.253906 0-22.222656-9.964844-22.222656-22.21875zm101.5-196.652344h269v168.871094h-167c-5.523438 0-10 4.480468-10 10 0 5.523437 4.476562 10 10 10h167v30h-269zm370.5 196.652344c0 12.253906-9.96875 22.222656-22.222656 22.222656h-59.277344v-268.875h59.277344c12.253906 0 22.222656 9.96875 22.222656 22.222656zm0 0"/><path d="m78.746094 210.601562h-7.496094v-7.5c0-5.519531-4.476562-10-10-10s-10 4.480469-10 10v7.5h-7.496094c-5.523437 0-10 4.476563-10 10 0 5.519532 4.476563 10 10 10h7.496094v7.496094c0 5.519532 4.476562 10 10 10s10-4.480468 10-10v-7.496094h7.496094c5.523437 0 10-4.480468 10-10 0-5.523437-4.476563-10-10-10zm0 0"/><path d="m468.246094 210.601562h-7.496094v-7.5c0-5.519531-4.476562-10-10-10s-10 4.480469-10 10v7.5h-7.496094c-5.523437 0-10 4.476563-10 10 0 5.519532 4.476563 10 10 10h7.496094v7.496094c0 5.519532 4.476562 10 10 10s10-4.480468 10-10v-7.496094h7.496094c5.523437 0 10-4.480468 10-10 0-5.523437-4.476563-10-10-10zm0 0"/><path d="m470.75 90.777344c0 11.046875-8.953125 20-20 20s-20-8.953125-20-20 8.953125-20 20-20 20 8.953125 20 20zm0 0" fill="#ede6f5"/><path d="m450.75 120.777344c-16.542969 0-30-13.457032-30-30 0-16.542969 13.457031-30 30-30s30 13.457031 30 30c0 16.542968-13.457031 30-30 30zm0-40c-5.515625 0-10 4.484375-10 10 0 5.511718 4.484375 10 10 10s10-4.488282 10-10c0-5.515625-4.484375-10-10-10zm0 0"/></svg>