<svg id="Capa_1" enable-background="new 0 0 497 497" height="512" viewBox="0 0 497 497" width="512" xmlns="http://www.w3.org/2000/svg"><g><path d="m236.067 353.716c-15.321-5.652-32.323 2.187-37.975 17.508-5.652 15.321 2.187 32.323 17.508 37.975l57.011 21.031 20.467-55.483z" fill="#fed2a4"/><path d="m260.933 125.684c15.321-5.652 32.323 2.187 37.975 17.508 5.652 15.321-2.187 32.323-17.508 37.975l-57.011 21.031-20.467-55.483z" fill="#fed2a4"/><path d="m349.154 233.24c-16.331 0-29.569 13.238-29.569 29.569l-29.569 25.199 29.569 35.568 29.569 19.2 29.569-19.2 29.569-35.568-29.569-25.199c0-16.331-13.238-29.569-29.569-29.569z" fill="#ffbd86"/><path d="m467.43 233.24c-16.331 0-29.569 13.238-29.569 29.569l-29.569 25.199 29.569 35.568 29.569 19.2 29.569-19.2v-60.767c0-16.331-13.238-29.569-29.569-29.569z" fill="#ffbd86"/><g fill="#fed2a4"><path d="m147.846 5.208c16.331 0 29.569 13.239 29.569 29.569l29.569 25.199-29.569 35.568-29.569 19.2-29.569-19.2-29.569-35.569 29.569-25.199c0-16.33 13.238-29.568 29.569-29.568z"/><path d="m29.57 5.208c16.331 0 29.569 13.239 29.569 29.569l29.569 25.199-29.569 35.567-29.569 19.2-29.569-19.2v-60.767c0-16.33 13.238-29.568 29.569-29.568z"/><path d="m290.016 233.24c-16.331 0-29.569 13.238-29.569 29.569v60.767l29.569 19.2 29.569-19.2v-60.767c0-16.331-13.238-29.569-29.569-29.569z"/><path d="m408.292 233.24c-16.331 0-29.569 13.238-29.569 29.569v60.767l29.569 19.2 29.569-19.2v-60.767c0-16.331-13.238-29.569-29.569-29.569z"/></g><path d="m206.984 5.208c16.331 0 29.569 13.239 29.569 29.569v60.767l-29.569 19.2-29.569-19.2v-60.767c0-16.331 13.238-29.569 29.569-29.569z" fill="#ffbd86"/><path d="m88.708 5.208c16.331 0 29.569 13.239 29.569 29.569v60.767l-29.569 19.2-29.569-19.2v-60.767c0-16.331 13.238-29.569 29.569-29.569z" fill="#ffbd86"/><path d="m299.765 234.893c-3.053-1.066-6.332-1.653-9.749-1.653-16.331 0-29.569 13.239-29.569 29.569v60.767l19.92 12.935c.679-37.489 5.901-72.289 19.398-101.618z" fill="#ffbd86"/><path d="m260.447 323.575v98.172c0 .683.01 1.365.029 2.044 1.063 38.026 32.868 68.001 70.909 68.001h94.677c38.041 0 69.847-29.975 70.909-68.001.019-.68.029-1.361.029-2.044v-98.172z" fill="#475c70"/><path d="m420.439 358.488h-83.431c-12.687 0-22.972 10.285-22.972 22.972v32.305c0 12.687 10.285 22.972 22.972 22.972h83.431c12.687 0 22.972-10.285 22.972-22.972v-32.305c0-12.687-10.285-22.972-22.972-22.972z" fill="#879caf"/><path d="m393.508 408.945c-6.321 0-12.643-1.588-18.405-4.765-6.99-3.854-15.336-3.854-22.326 0-3.628 1.999-8.189.68-10.189-2.947-1.999-3.627-.68-8.189 2.947-10.189 11.525-6.354 25.285-6.354 36.811 0 6.989 3.854 15.337 3.854 22.326 0 3.628-2 8.189-.68 10.189 2.947 1.999 3.627.68 8.189-2.947 10.189-5.764 3.177-12.085 4.765-18.406 4.765z" fill="#a6b6c4"/><path d="m39.318 6.86c-3.053-1.066-6.332-1.653-9.749-1.653-16.331 0-29.569 13.239-29.569 29.569v60.767l19.92 12.935c.679-37.488 5.901-72.289 19.398-101.618z" fill="#ffbd86"/><path d="m236.553 95.543v98.172c0 .683-.01 1.365-.029 2.044-1.063 38.026-32.869 68.001-70.909 68.001h-94.677c-38.041 0-69.847-29.975-70.909-68.001-.019-.679-.029-1.36-.029-2.043v-98.172h236.553z" fill="#475c70"/><path d="m76.561 130.456h83.431c12.687 0 22.972 10.285 22.972 22.972v32.305c0 12.687-10.285 22.972-22.972 22.972h-83.431c-12.687 0-22.972-10.285-22.972-22.972v-32.305c0-12.687 10.285-22.972 22.972-22.972z" fill="#879caf"/><path d="m103.492 180.913c-6.322 0-12.642-1.588-18.405-4.765-3.627-2-4.946-6.562-2.947-10.189 2.001-3.627 6.561-4.947 10.189-2.947 6.99 3.854 15.336 3.854 22.326 0 11.524-6.353 25.285-6.354 36.812 0 3.627 2 4.946 6.561 2.947 10.189-2 3.627-6.563 4.948-10.188 2.948-6.993-3.854-15.339-3.853-22.328 0-5.762 3.176-12.086 4.764-18.406 4.764z" fill="#a6b6c4"/><path d="m19.838 117.19c0-7.315.164-14.536.508-21.647h-20.346v98.172c0 .683.01 1.365.029 2.044 1.063 38.026 32.868 68.001 70.909 68.001h13.189c-39.522-36.411-64.289-88.594-64.289-146.57z" fill="#3d4f61"/><path d="m280.285 345.223c0-7.315.164-14.536.508-21.647h-20.346v98.172c0 .683.01 1.365.029 2.044 1.063 38.026 32.868 68 70.909 68h13.189c-39.522-36.411-64.289-88.594-64.289-146.569z" fill="#3d4f61"/><path d="m72.518 159.112c0-10.334 2.529-20.073 6.978-28.656h-2.935c-12.687 0-22.972 10.285-22.972 22.972v32.305c0 12.688 10.285 22.972 22.972 22.972h20.519c-14.925-11.396-24.562-29.365-24.562-49.593z" fill="#7a8fa4"/><path d="m332.965 387.144c0-10.334 2.529-20.073 6.978-28.656h-2.935c-12.687 0-22.972 10.285-22.972 22.972v32.305c0 12.688 10.285 22.972 22.972 22.972h20.519c-14.925-11.396-24.562-29.365-24.562-49.593z" fill="#7a8fa4"/></g></svg>