<svg id="Capa_1" enable-background="new 0 0 512 512" height="512" viewBox="0 0 512 512" width="512" xmlns="http://www.w3.org/2000/svg"><g><g><path d="m174.313 258.697v71.686c10.763.237 22 2.665 34.251 7.046l71.423 24.076c10.346 3.708 17.486 12.716 21.023 22.758 6.856 25.319-16.756 48.323-41.885 40.823 17.486 5.225 36.214 4.447 53.207-2.2l76.951-30.591v-133.598z" fill="#e0a083"/></g><g><path d="m403.276 258.695c6.669 0 12.076-5.407 12.076-12.076v-36.309c0-6.669-5.407-12.076-12.076-12.076h-242.958c-6.669 0-12.076 5.407-12.076 12.076v36.309c0 6.669 5.407 12.076 12.076 12.076z" fill="#ddb7a2"/></g><g><path d="m281.797 148.442h32.667c33.874 0 61.334-27.46 61.334-61.334h-32.667c-33.874 0-61.334 27.46-61.334 61.334z" fill="#a0e4a5"/></g><g><path d="m281.797 71.334h-32.667c-33.874 0-61.334-27.46-61.334-61.334h32.667c33.874 0 61.334 27.46 61.334 61.334z" fill="#a0e4a5"/></g><g><path d="m319.215 490.295c-16.822 6.777-35.419 7.774-52.869 2.835l-88.996-24.784c-8.534-2.377-17.561-2.336-26.074.118l-96.895 33.536v-116.091l19.369-5.377c24.1-6.526 39.106-25.525 49.211-32.707 27.968-19.878 53.299-21.963 85.602-10.395l71.421 24.076c10.353 3.708 17.489 12.711 21.021 22.761 6.856 25.316-16.75 48.323-41.883 40.819 17.486 5.221 36.215 4.448 53.211-2.196l101.169-40.221c17.64-7.013 38.034 3.189 42.992 21.513 4.261 15.734-3.903 32.171-19.015 38.283z" fill="#ffdad5"/></g><g><path d="m466.148 401.568c-6.488-23.955-33.233-37.377-56.339-28.192l-10.524 4.184v-108.865h3.992c12.172 0 22.075-9.903 22.075-22.076v-36.309c0-12.173-9.903-22.076-22.075-22.076h-111.48v-29.793h22.668c39.333 0 71.333-32 71.333-71.333 0-5.523-4.478-10-10-10h-32.667c-20.144 0-38.35 8.406-51.334 21.878v-27.653c0-39.333-32-71.333-71.334-71.333h-32.667c-5.522 0-10 4.477-10 10 0 39.333 32 71.334 71.334 71.334h22.667v106.901h-111.479c-12.173 0-22.076 9.903-22.076 22.076v36.309c0 12.172 9.903 22.076 22.076 22.076h3.995v52.039c-21.712 2.073-41.175 12.943-57.128 27.353-9.18 8.292-20.604 18.61-36.11 22.809l-19.369 5.377c-4.329 1.202-7.325 5.143-7.325 9.636v116.09c0 3.235 1.564 6.27 4.199 8.146 1.717 1.222 3.748 1.854 5.802 1.854 1.099 0 2.204-.181 3.27-.55l96.634-33.446c6.664-1.873 13.706-1.884 20.382-.025l88.956 24.772c19.481 5.514 40.55 4.383 59.329-3.182.004-.001.008-.003.012-.005l118.266-47.83c19.784-8 30.496-29.567 24.917-50.166zm-123.017-304.46h21.689c-4.665 23.536-25.471 41.333-50.355 41.333h-21.69c4.666-23.535 25.471-41.333 50.356-41.333zm-94.001-35.774c-24.885 0-45.69-17.798-50.356-41.334h21.689c24.885 0 45.69 17.798 50.356 41.334zm-90.888 185.286v-36.309c0-1.145.932-2.076 2.076-2.076h242.958c1.145 0 2.075.931 2.075 2.076v36.309c0 1.145-.931 2.076-2.075 2.076h-76.596c-5.522 0-10 4.477-10 10v.001.001c0 5.523 4.478 10 10 10h52.604v116.812l-70.594 28.064c-.682.255-1.365.51-2.047.765 12.776-22.446 1.511-54.052-23.462-62.309l-71.338-24.048c-8.91-3.181-18.131-5.677-27.53-6.862v-52.422h54.447c5.522 0 10-4.477 10-10v-.001-.001c0-5.523-4.478-10-10-10h-78.442c-1.144-.001-2.076-.932-2.076-2.076zm275.49 186.574-118.258 47.827c-14.688 5.916-31.169 6.8-46.444 2.476l-88.997-24.784c-10.326-2.875-21.228-2.826-31.525.142-.168.049-.336.102-.501.159l-83.625 28.943v-94.446l11.983-3.327c20.068-5.435 34.031-18.046 44.227-27.255 14.645-13.227 32.686-22.879 52.865-22.594 11.1.948 21.334 3.017 31.913 6.572l71.322 24.042c15.908 5.775 20.384 27.182 8.39 38.874-6.089 5.933-14.97 8.107-23.119 5.675l-50.838-15.047c-5.299-1.567-10.859 1.456-12.427 6.751-1.538 5.192 1.556 10.889 6.751 12.427l50.814 15.04c19.46 5.838 40.852 4.909 59.766-2.486l101.169-40.221c12.178-4.842 26.232 2.231 29.646 14.834 2.935 10.839-2.702 22.188-13.112 26.398z"/><path d="m278.141 267.01c7.557 4.946 17.636-2.204 15.186-10.977-1.147-4.106-4.871-7.114-9.14-7.326-4.264-.212-8.282 2.417-9.814 6.393-1.662 4.316-.088 9.34 3.768 11.91z"/></g></g></svg>