<svg id="Capa_1" enable-background="new 0 0 511.959 511.959" height="512" viewBox="0 0 511.959 511.959" width="512" xmlns="http://www.w3.org/2000/svg"><g><g><path d="m430.107 437.326-254.812 63.662c-17.926 4.493-36.109-6.402-40.602-24.329l-87.666-349.555c-4.505-17.927 6.391-36.109 24.317-40.602l106.593-26.727v348.707c0 15.93 12.914 28.844 28.844 28.844z" fill="#ff7e96"/></g><g><path d="m465.91 38.755c0-15.881-12.874-28.755-28.755-28.755h-230.467c-15.881 0-28.755 12.874-28.755 28.755v369.811c0 15.881 12.874 28.755 28.755 28.755h230.467c15.881 0 28.755-12.874 28.755-28.755z" fill="#fff"/></g><g><path d="m177.973 410.03-61.63-245.44c-3.87-15.4 5.48-31.02 20.89-34.89l40.7-10.22v289.09c0 .49.01.98.04 1.46z" fill="#a0c8ff"/></g><g><path d="m321.921 303.925-55.215-80.264 55.215-80.265 55.216 80.263z" fill="#ff7e96"/></g><g><path d="m437.155 0h-230.467c-21.37 0-38.755 17.385-38.755 38.754v13.22l-99.02 24.828c-22.964 5.757-37.366 29.733-31.586 52.735l87.666 349.554c5.75 22.945 29.764 37.356 52.726 31.599l253.64-63.37h5.797c21.37 0 38.755-17.385 38.755-38.755v-144.817c0-5.523-4.477-10-10-10-.068 0-.142.001-.214.002-5.435.102-9.809 4.539-9.809 9.998 0 .229.008.457.023.683v144.134c0 10.341-8.414 18.755-18.755 18.755h-230.468c-10.221 0-18.751-8.651-18.751-18.838l-.004-369.728c0-10.341 8.414-18.754 18.755-18.754h230.467c10.341 0 18.755 8.413 18.755 18.754v136.312c-.015.226-.023.454-.023.683 0 5.459 4.375 9.897 9.81 9.998.072.001.145.002.213.002 5.523 0 10-4.477 10-10v-136.995c0-21.369-17.386-38.754-38.755-38.754zm-311.114 162.152c-2.493-9.924 3.721-20.266 13.627-22.754l28.265-7.097v196.683zm46.822 329.137c-12.42 3.108-25.364-4.664-28.471-17.062l-87.667-349.56c-3.12-12.416 4.659-25.36 17.051-28.466l94.157-23.608v39.087l-33.136 8.32c-20.473 5.141-33.307 26.517-28.152 47.024l61.421 244.609c1.571 19.93 18.759 35.691 38.715 35.691h142.045z"/><path d="m313.682 309.592c3.906 5.679 12.571 5.679 16.478 0l55.216-80.265c2.348-3.414 2.348-7.921 0-11.335l-55.215-80.263c-3.906-5.679-12.571-5.679-16.478 0l-55.216 80.266c-2.348 3.414-2.348 7.921 0 11.335zm8.239-148.552 43.078 62.619-43.078 62.621-43.078-62.619z"/><path d="m221.507 39.545c-5.523 0-10 4.477-10 10v58.43c0 5.523 4.477 10 10 10s10-4.477 10-10v-8.782l16.562 15.978c3.921 3.782 10.357 3.667 14.14-.253 3.834-3.975 3.721-10.306-.253-14.14l-23.994-23.148 21.743-19.986c4.066-3.737 4.333-10.063.595-14.129-3.737-4.067-10.063-4.332-14.129-.595l-14.664 13.479v-6.853c0-5.524-4.477-10.001-10-10.001z"/><path d="m424.926 405.495c5.523 0 10-4.477 10-10v-58.43c0-5.523-4.477-10-10-10s-10 4.477-10 10v8.782l-16.562-15.979c-3.976-3.834-10.305-3.721-14.14.253-3.834 3.975-3.721 10.306.253 14.14l23.993 23.148-21.743 19.986c-4.066 3.737-4.333 10.063-.595 14.129 3.686 4.011 10.118 4.282 14.129.595l14.664-13.479v6.854c.001 5.524 4.478 10.001 10.001 10.001z"/><path d="m474.22 214.55c-2.986-4.563-9.356-5.75-13.86-2.76-4.546 3.018-5.766 9.332-2.76 13.86 3.014 4.54 9.331 5.787 13.86 2.77 4.536-3.022 5.776-9.344 2.76-13.87z"/></g></g></svg>