<?xml version="1.0" encoding="iso-8859-1"?>
<!-- Generator: Adobe Illustrator 19.0.0, SVG Export Plug-In . SVG Version: 6.00 Build 0)  -->
<svg version="1.1" id="Capa_1" xmlns="http://www.w3.org/2000/svg" xmlns:xlink="http://www.w3.org/1999/xlink" x="0px" y="0px"
	 viewBox="0 0 512 512" style="enable-background:new 0 0 512 512;" xml:space="preserve">
<path style="fill:#DC8C96;" d="M280.048,55.597L224.47,13.913C218.92,9.75,212.169,7.5,205.231,7.5h-5.344
	c-66.408,0-120.242,53.834-120.242,120.242l0,0c0,4.427,3.589,8.016,8.016,8.016h64.129V87.661h128.258V55.597z"/>
<path style="fill:#A0AAD7;" d="M380.25,167.823H201.265c-16.747,0-31.702-12.244-33.292-28.915
	c-1.824-19.124,13.165-35.214,31.914-35.214H306.32c2.777,4.772,7.889,8.016,13.809,8.016h16.032V95.677
	c0-8.854,7.178-16.032,16.032-16.032h56.113V66.711c0-11.198-7.729-20.914-18.641-23.432L327.53,28.94
	c-8.991-2.075-17.676,2.528-21.457,10.149c-2.719,5.481-8.782,8.492-14.9,8.492h-92.5c-46.344,0-86.099,36.256-86.947,82.592
	c-0.865,47.207,37.144,85.747,84.155,85.747h178.346c26.336,0,49.301,20.294,50.092,46.617c0.818,27.238-21.02,49.576-48.074,49.576
	H199.887c-88.544,0-160.323,71.779-160.323,160.323V504.5h8.016c13.282,0,24.048-10.767,24.048-24.048l0,0
	c0-70.835,57.423-128.258,128.258-128.258h176.072c48.284,0,90.675-35.557,95.519-83.597
	C477.002,213.819,433.997,167.823,380.25,167.823z"/>
<path style="fill:#B4667F;" d="M376.242,191.871H198.284c-32.882,0-60.285-24.594-62.387-55.992
	c-1.127-16.829,4.583-32.866,16.081-45.159c11.347-12.133,27.348-19.091,43.901-19.091h84.169c8.84,0,16.032-7.192,16.032-16.032
	c0-3.058-0.906-5.891-2.397-8.325c-0.838,0.114-1.664,0.309-2.511,0.309h-92.501c-46.343,0-86.099,36.256-86.947,82.591
	c-0.864,47.207,37.144,85.747,84.155,85.747h178.345c26.336,0,49.302,20.293,50.092,46.617c0.817,27.238-21.02,49.576-48.074,49.576
	H199.887c-88.543,0-160.323,71.779-160.323,160.323V504.5h8.016c6.187,0,12.76-3.392,17.022-7.231v-25.823
	c0-75.142,60.143-135.285,135.285-135.285h174.09c39.109,0,71.72-29.526,74.244-67.219c1.351-20.184-5.502-39.422-19.297-54.172
	C415.314,200.217,396.111,191.871,376.242,191.871z"/>
<path d="M351.677,55.597c0-4.142-3.358-7.5-7.5-7.5h-0.08c-4.142,0-7.46,3.358-7.46,7.5s3.398,7.5,7.54,7.5
	S351.677,59.739,351.677,55.597z"/>
<path d="M380.25,160.323H199.887c-13.545,0-24.564-11.02-24.564-24.565s11.02-24.564,24.564-24.564h103.437
	c6.711,5.081,15.03,8.016,23.884,8.016h57.051c4.142,0,7.5-3.358,7.5-7.5s-3.358-7.5-7.5-7.5h-40.597v-8.532
	c0-4.705,3.828-8.532,8.532-8.532h48.613v8.532c0,4.142,3.358,7.5,7.5,7.5s7.5-3.358,7.5-7.5V66.711
	c0-14.777-10.056-27.418-24.455-30.741l-85.569-19.747c-4.035-0.93-8.063,1.585-8.995,5.622c-0.931,4.036,1.585,8.063,5.622,8.995
	l85.569,19.747c7.553,1.743,12.828,8.374,12.828,16.125v5.434h-48.613c-12.976,0-23.532,10.557-23.532,23.532v8.532h-1.454
	c-10.59,0-19.955-6.75-23.304-16.796l-3.384-10.151c-1.31-3.93-5.559-6.054-9.487-4.744c-3.93,1.31-6.053,5.558-4.744,9.487
	l3.384,10.151c0.462,1.387,1.001,2.732,1.601,4.037h-91.387c-21.816,0-39.564,17.749-39.564,39.565s17.749,39.564,39.564,39.564
	H380.25c46.696,0,84.686,37.99,84.686,84.686c0,46.695-37.99,84.685-84.686,84.685H199.887
	c-74.857,0-135.758,60.901-135.758,135.758c0,9.125-7.423,16.548-16.548,16.548h-0.516v-24.564
	c0-84.267,68.556-152.823,152.823-152.823h176.355c30.656,0,55.597-24.94,55.597-55.597s-24.94-55.597-55.597-55.597h-16.036
	c-4.142,0-7.5,3.358-7.5,7.5s3.358,7.5,7.5,7.5h16.036c22.385,0,40.597,18.211,40.597,40.597s-18.211,40.597-40.597,40.597H199.887
	c-92.538,0-167.823,75.285-167.823,167.823V504.5c0,4.142,3.358,7.5,7.5,7.5h8.016c17.396,0,31.548-14.152,31.548-31.548
	c0-66.586,54.172-120.758,120.758-120.758H380.25c54.967,0,99.686-44.719,99.686-99.686S435.217,160.323,380.25,160.323z"/>
<path d="M79.645,143.258h25.285c5.678,45.135,44.299,80.161,90.949,80.161h132.266c4.142,0,7.5-3.358,7.5-7.5s-3.358-7.5-7.5-7.5
	H195.879c-42.276,0-76.669-34.394-76.669-76.669s34.394-76.669,76.669-76.669h100.202c4.142,0,7.5-3.358,7.5-7.5s-3.358-7.5-7.5-7.5
	h-21.645L220.279,1.397C219.007,0.488,217.482,0,215.919,0h-16.032C129.45,0,72.145,57.305,72.145,127.742v8.017
	C72.145,139.9,75.503,143.258,79.645,143.258z M87.145,127.742c0-14.305,2.684-27.994,7.565-40.597h21.109
	c-6.855,12.255-10.976,26.235-11.537,41.113H87.145V127.742z M213.516,15l35.113,25.081h-52.75c-0.632,0-1.261,0.011-1.89,0.024
	l-31.312-18.787C174.333,17.231,186.854,15,199.887,15H213.516z M145.94,28.769l24.73,14.838
	c-17.482,5.007-32.84,15.088-44.378,28.539h-24.455C112.213,53.917,127.523,38.847,145.94,28.769z"/>
<g>
</g>
<g>
</g>
<g>
</g>
<g>
</g>
<g>
</g>
<g>
</g>
<g>
</g>
<g>
</g>
<g>
</g>
<g>
</g>
<g>
</g>
<g>
</g>
<g>
</g>
<g>
</g>
<g>
</g>
</svg>
