<svg height="512pt" viewBox="-37 0 512 512" width="512pt" xmlns="http://www.w3.org/2000/svg"><path d="m109.726562 20h-78.601562c-5.523438 0-10-4.476562-10-10s4.476562-10 10-10h78.601562c5.523438 0 10 4.476562 10 10s-4.472656 10-10 10zm0 0"/><path d="m151.496094 20c-.65625 0-1.308594-.070312-1.960938-.199219-.636718-.121093-1.265625-.320312-1.867187-.570312-.601563-.25-1.179688-.558594-1.730469-.921875-.539062-.359375-1.050781-.777344-1.519531-1.238282-.460938-.460937-.882813-.96875-1.242188-1.519531-.359375-.539062-.667969-1.121093-.917969-1.730469-.25-.601562-.441406-1.230468-.570312-1.871093s-.199219-1.300781-.199219-1.949219.070313-1.308594.199219-1.949219.320312-1.269531.570312-1.878906c.25-.601563.558594-1.179687.917969-1.722656.359375-.550781.78125-1.058594 1.242188-1.519531.46875-.460938.980469-.878907 1.519531-1.238282.550781-.371094 1.128906-.671875 1.730469-.921875.597656-.25 1.230469-.449219 1.867187-.578125 1.292969-.2499998 2.621094-.2499998 3.910156 0 .640626.128906 1.273438.328125 1.871094.578125.601563.25 1.179688.550781 1.730469.921875.539063.359375 1.058594.777344 1.519531 1.238282.460938.460937.878906.96875 1.242188 1.519531.359375.542969.667968 1.121093.917968 1.722656.25.609375.441407 1.238281.570313 1.878906s.199219 1.300781.199219 1.949219-.070313 1.3125-.199219 1.949219c-.128906.640625-.320313 1.269531-.570313 1.871093-.25.609376-.558593 1.191407-.917968 1.730469-.363282.550781-.78125 1.058594-1.242188 1.519531-.460937.460938-.980468.878907-1.519531 1.238282-.550781.363281-1.128906.671875-1.730469.921875-.597656.25-1.230468.449219-1.871094.570312-.648437.128907-1.296874.199219-1.949218.199219zm0 0"/><path d="m327.339844 112.898438h-216.304688c-55.800781 0-101.035156 45.238281-101.035156 101.039062s45.234375 101.035156 101.035156 101.035156c45.875 0 84.601563-30.574218 96.933594-72.453125h22.441406c12.328125 41.878907 51.054688 72.453125 96.929688 72.453125 55.800781 0 101.035156-45.234375 101.035156-101.035156s-45.234375-101.039062-101.035156-101.039062zm0 0" fill="#52607e"/><path d="m171.210938 213.941406c0 34.773438-28.1875 62.960938-62.960938 62.960938s-62.960938-28.1875-62.960938-62.960938c0-34.773437 28.1875-62.964844 62.960938-62.964844s62.960938 28.191407 62.960938 62.964844zm0 0" fill="#7ccafd"/><path d="m108.25 286.902344c-40.230469 0-72.960938-32.730469-72.960938-72.960938 0-40.230468 32.730469-72.964844 72.960938-72.964844s72.960938 32.730469 72.960938 72.964844c0 40.230469-32.730469 72.960938-72.960938 72.960938zm0-125.921875c-29.203125 0-52.960938 23.757812-52.960938 52.960937s23.757813 52.960938 52.960938 52.960938 52.960938-23.757813 52.960938-52.960938-23.757813-52.960937-52.960938-52.960937zm0 0"/><path d="m134.617188 233.453125c-2.558594 0-5.117188-.976563-7.070313-2.929687-3.902344-3.902344-3.90625-10.234376 0-14.140626l2.355469-2.355468-2.355469-2.351563c-3.90625-3.90625-3.90625-10.238281 0-14.144531 3.902344-3.902344 10.234375-3.902344 14.140625 0l9.425781 9.425781c1.875 1.875 2.929688 4.417969 2.929688 7.070313s-1.054688 5.195312-2.929688 7.070312l-9.425781 9.425782c-1.949219 1.953124-4.507812 2.929687-7.070312 2.929687zm0 0"/><path d="m81.882812 233.269531c-2.5625 0-5.121093-.976562-7.074218-2.929687l-9.421875-9.425782c-1.878907-1.875-2.929688-4.417968-2.929688-7.070312s1.054688-5.195312 2.929688-7.070312l9.421875-9.425782c3.90625-3.902344 10.238281-3.902344 14.144531 0 3.902344 3.90625 3.902344 10.238282 0 14.144532l-2.355469 2.351562 2.355469 2.355469c3.902344 3.90625 3.90625 10.238281 0 14.144531-1.953125 1.949219-4.511719 2.925781-7.070313 2.925781zm0 0"/><path d="m108.15625 259.730469c-2.558594 0-5.117188-.976563-7.070312-2.929688l-9.425782-9.425781c-3.902344-3.90625-3.902344-10.238281 0-14.144531 3.90625-3.902344 10.238282-3.902344 14.144532 0l2.351562 2.355469 2.355469-2.355469c3.902343-3.902344 10.234375-3.902344 14.140625 0 3.90625 3.90625 3.90625 10.238281 0 14.144531l-9.421875 9.425781c-1.953125 1.953125-4.511719 2.929688-7.074219 2.929688zm0 0"/><path d="m98.917969 197.566406c-2.558594 0-5.117188-.976562-7.070313-2.929687-3.90625-3.902344-3.90625-10.234375 0-14.140625l9.425782-9.425782c3.90625-3.902343 10.238281-3.902343 14.140624 0l9.425782 9.425782c3.90625 3.902344 3.90625 10.234375 0 14.140625s-10.238282 3.90625-14.144532 0l-2.351562-2.355469-2.355469 2.355469c-1.953125 1.953125-4.511719 2.929687-7.070312 2.929687zm0 0"/><path d="m326.273438 220.65625c-8.320313-8.320312-21.808594-8.320312-30.128907 0-8.316406 8.320312-8.316406 21.808594 0 30.125 8.320313 8.320312 21.808594 8.320312 30.128907 0 8.320312-8.316406 8.320312-21.804688 0-30.125zm0 0" fill="#ffea6e"/><path d="m368.988281 176.90625c-8.320312-8.320312-21.808593-8.320312-30.128906 0-8.316406 8.320312-8.316406 21.808594 0 30.128906 8.320313 8.316406 21.808594 8.316406 30.128906 0 8.320313-8.320312 8.320313-21.808594 0-30.128906zm0 0" fill="#f05f90"/><path d="m326.273438 176.90625c-8.320313-8.320312-21.808594-8.320312-30.125 0-8.320313 8.320312-8.320313 21.808594 0 30.125 8.316406 8.320312 21.804687 8.320312 30.125 0 8.320312-8.316406 8.320312-21.804688 0-30.125zm0 0" fill="#ede6f5"/><path d="m368.988281 220.65625c-8.320312-8.320312-21.808593-8.320312-30.128906 0s-8.320313 21.808594 0 30.125c8.320313 8.320312 21.808594 8.320312 30.128906 0 8.316407-8.316406 8.316407-21.804688 0-30.125zm0 0" fill="#00d2d7"/><path d="m327.339844 102.898438h-96.726563c1.441407-10.289063 10.308594-18.234376 20.996094-18.234376h80.390625c23.347656 0 42.339844-18.988281 42.339844-42.332031s-18.996094-42.332031-42.339844-42.332031h-141.726562c-5.523438 0-10 4.476562-10 10s4.476562 10 10 10h141.726562c12.316406 0 22.339844 10.019531 22.339844 22.332031s-10.023438 22.332031-22.339844 22.332031h-80.390625c-21.722656 0-39.574219 16.898438-41.097656 38.234376h-99.476563c-61.222656 0-111.035156 49.8125-111.035156 111.039062s49.8125 111.035156 111.035156 111.035156c24.460938 0 47.660156-7.800781 67.09375-22.558594 16.773438-12.742187 29.734375-30.257812 37.042969-49.894531h8.03125c7.308594 19.636719 20.269531 37.152344 37.042969 49.894531 19.433594 14.757813 42.632812 22.558594 67.09375 22.558594 61.222656 0 111.035156-49.8125 111.035156-111.035156 0-61.226562-49.8125-111.039062-111.035156-111.039062zm0 202.074218c-40.105469 0-76.019532-26.839844-87.335938-65.277344-1.253906-4.253906-5.160156-7.175781-9.59375-7.175781h-22.441406c-4.4375 0-8.339844 2.921875-9.59375 7.175781-11.316406 38.4375-47.230469 65.277344-87.335938 65.277344-50.199218 0-91.039062-40.835937-91.039062-91.035156s40.839844-91.039062 91.039062-91.039062h216.300782c50.199218 0 91.039062 40.839843 91.039062 91.039062-.003906 50.199219-40.84375 91.035156-91.039062 91.035156zm0 0"/><path d="m376.0625 169.832031c-11.949219-11.949219-31.234375-12.199219-43.492188-.75-12.257812-11.449219-31.542968-11.199219-43.492187.75-5.910156 5.914063-9.167969 13.773438-9.167969 22.136719 0 8.238281 3.164063 15.992188 8.914063 21.875-5.75 5.882812-8.914063 13.636719-8.914063 21.875 0 8.363281 3.257813 16.222656 9.167969 22.136719 6.105469 6.101562 14.117187 9.152343 22.136719 9.152343 7.679687 0 15.359375-2.800781 21.355468-8.402343 6 5.601562 13.675782 8.402343 21.359376 8.402343 8.015624 0 16.03125-3.050781 22.132812-9.152343 12.121094-12.121094 12.203125-31.785157.257812-44.011719 11.945313-12.226562 11.863282-31.890625-.257812-44.011719zm-30.125 14.144531c2.132812-2.136718 4.972656-3.3125 7.992188-3.3125 3.019531 0 5.855468 1.175782 7.992187 3.3125 4.40625 4.40625 4.40625 11.578126 0 15.984376-2.136719 2.132812-4.972656 3.308593-7.992187 3.308593-3.019532 0-5.859376-1.175781-7.992188-3.308593-2.136719-2.136719-3.3125-4.972657-3.3125-7.992188s1.175781-5.859375 3.3125-7.992188zm-42.714844 0c2.203125-2.203124 5.097656-3.304687 7.992188-3.304687 2.894531 0 5.789062 1.101563 7.992187 3.304687 2.136719 2.132813 3.3125 4.972657 3.3125 7.992188s-1.175781 5.855469-3.3125 7.992188c-4.40625 4.40625-11.578125 4.40625-15.984375 0-2.136718-2.136719-3.3125-4.976563-3.3125-7.992188 0-3.019531 1.175782-5.859375 3.3125-7.992188zm15.984375 59.734376c-4.40625 4.40625-11.578125 4.40625-15.984375 0-2.136718-2.132813-3.3125-4.972657-3.3125-7.992188s1.175782-5.855469 3.3125-7.992188c2.203125-2.203124 5.097656-3.304687 7.992188-3.304687 2.894531 0 5.789062 1.101563 7.992187 3.304687 4.40625 4.40625 4.40625 11.578126 0 15.984376zm42.714844 0c-4.40625 4.410156-11.582031 4.410156-15.988281 0-4.40625-4.40625-4.40625-11.578126 0-15.984376 2.136718-2.132812 4.972656-3.3125 7.992187-3.3125s5.859375 1.179688 7.996094 3.3125c4.40625 4.40625 4.40625 11.578126 0 15.984376zm0 0"/><path d="m415.324219 342.570312h-392.261719c-6.4375 0-11.652344 5.21875-11.652344 11.65625v136.125c0 6.429688 5.214844 11.648438 11.652344 11.648438h145.621094c9.324218 0 18.261718-3.699219 24.855468-10.300781l25.644532-25.652344 25.652344 25.652344c6.585937 6.601562 15.535156 10.300781 24.859374 10.300781h145.621094c6.433594 0 11.648438-5.21875 11.648438-11.648438v-136.125c0-6.4375-5.214844-11.65625-11.640625-11.65625zm0 0" fill="#ede6f5"/><path d="m415.316406 512h-145.621094c-12.078124 0-23.417968-4.699219-31.9375-13.234375l-18.574218-18.574219-18.570313 18.578125c-8.523437 8.53125-19.867187 13.230469-31.929687 13.230469h-145.621094c-11.9375 0-21.652344-9.710938-21.652344-21.648438v-136.125c0-11.941406 9.714844-21.65625 21.652344-21.65625h392.261719c11.933593 0 21.640625 9.714844 21.640625 21.65625v136.125c0 11.9375-9.710938 21.648438-21.648438 21.648438zm-196.132812-55.953125c2.652344 0 5.199218 1.054687 7.074218 2.929687l25.648438 25.652344c4.679688 4.6875 11.160156 7.371094 17.789062 7.371094h145.621094c.910156 0 1.648438-.738281 1.648438-1.648438v-136.125c0-.914062-.738282-1.65625-1.640625-1.65625h-392.261719c-.910156 0-1.652344.742188-1.652344 1.65625v136.125c0 .910157.742188 1.648438 1.652344 1.648438h145.621094c6.71875 0 13.035156-2.617188 17.785156-7.367188l25.640625-25.65625c1.878906-1.875 4.421875-2.929687 7.074219-2.929687zm0 0"/><path d="m175.410156 459.140625h-122.714844c-4.539062 0-8.21875-3.683594-8.21875-8.222656v-62.363281c0-4.550782 3.671876-8.234376 8.21875-8.234376h122.714844c4.535156 0 8.222656 3.683594 8.222656 8.234376v62.363281c0 4.539062-3.6875 8.222656-8.222656 8.222656zm0 0" fill="#7ccafd"/><path d="m175.410156 469.140625h-122.714844c-10.046874 0-18.21875-8.175781-18.21875-18.226563v-62.359374c0-10.054688 8.171876-18.234376 18.21875-18.234376h122.714844c10.046875 0 18.222656 8.179688 18.222656 18.234376v62.359374c0 10.050782-8.175781 18.226563-18.222656 18.226563zm-120.933594-20h119.15625v-58.820313h-119.15625zm0 0"/><path d="m385.6875 459.140625h-122.710938c-4.542968 0-8.21875-3.683594-8.21875-8.222656v-62.363281c0-4.550782 3.675782-8.234376 8.21875-8.234376h122.710938c4.539062 0 8.222656 3.683594 8.222656 8.234376v62.363281c0 4.539062-3.683594 8.222656-8.222656 8.222656zm0 0" fill="#43b0fc"/><path d="m385.6875 469.140625h-122.710938c-10.046874 0-18.21875-8.175781-18.21875-18.226563v-62.359374c0-10.054688 8.171876-18.234376 18.21875-18.234376h122.710938c10.050781 0 18.222656 8.179688 18.222656 18.234376v62.359374c0 10.050782-8.171875 18.226563-18.222656 18.226563zm-120.929688-20h119.152344v-58.820313h-119.152344zm0 0"/></svg>