<svg id="Capa_1" enable-background="new 0 0 497 497" height="512" viewBox="0 0 497 497" width="512" xmlns="http://www.w3.org/2000/svg"><g><path d="m479.7 248.534-.024-.034.024-.034c23.814-33.545 13.153-80.346-22.841-100.267l-.014-.008.02-.118c6.834-40.529-23.074-78.001-64.109-80.325l-.13-.007-.004-.014c-11.379-39.538-54.623-60.383-92.642-44.655l-.001.001-.11-.123c-27.412-30.598-75.327-30.598-102.739 0l-.11.123c-38.019-15.728-81.263 5.117-92.642 44.655l-.004.013-.13.007c-41.035 2.324-70.942 39.796-64.109 80.325l.02.119-.015.008c-35.993 19.92-46.654 66.72-22.84 100.266l.024.034-.024.034c-23.814 33.546-13.153 80.346 22.841 100.267l.014.008-.02.118c-6.834 40.529 23.074 78.001 64.109 80.325l.13.007.004.014c11.379 39.538 54.623 60.383 92.642 44.655h.001l.11.123c27.412 30.598 75.327 30.598 102.739 0l.11-.123c38.019 15.728 81.263-5.117 92.642-44.655l.004-.013.13-.007c41.035-2.324 70.942-39.796 64.109-80.325l-.02-.118.015-.008c35.993-19.922 46.654-66.722 22.84-100.268z" fill="#a6b6c4"/><circle cx="248.5" cy="248.5" fill="#516a80" r="153.774"/><path d="m152.033 277.592c0-76.313 57.942-154.335 130.174-179.15-10.849-2.426-22.127-3.716-33.707-3.716-84.927 0-153.774 68.847-153.774 153.774 0 67.796 43.875 125.341 104.778 145.8-29.369-30.136-47.471-71.305-47.471-116.708z" fill="#475c70"/><path d="m328.204 168.481h-159.604c-22.513 21.236-36.566 51.343-36.566 84.734 0 .361.002.722.005 1.083.256 28.038 30.14 45.66 54.961 32.617 17.684-9.292 38.808-14.693 61.5-14.693 22.693 0 43.817 5.401 61.502 14.694 24.913 13.091 54.762-4.712 54.962-32.855.004-.508.004-1.017.001-1.527-.189-33.035-14.314-62.92-36.761-84.053z" fill="#fed2a4"/><path d="m391.651 178.698c-5.422-11.076-12.093-21.435-19.824-30.89-2.611-3.193-6.52-5.043-10.644-5.043h-225.366c-4.124 0-8.033 1.85-10.644 5.043-7.732 9.455-14.402 19.814-19.824 30.89-4.453 9.097 2.249 19.71 12.378 19.71h261.547c10.128 0 16.831-10.613 12.377-19.71z" fill="#90d3f1"/><path d="m287.598 130.351h-78.195c-14.501 0-26.257 11.755-26.257 26.257v30.493c0 14.501 11.756 26.257 26.257 26.257h78.195c14.501 0 26.257-11.756 26.257-26.257v-30.493c-.001-14.501-11.756-26.257-26.257-26.257z" fill="#a6b6c4"/><path d="m271.094 165.286c-5.941 3.275-13.035 3.274-18.973 0-10.476-5.774-22.982-5.774-33.458 0-3.627 2-4.947 6.562-2.947 10.189 1.999 3.627 6.559 4.947 10.189 2.947 5.94-3.275 13.035-3.275 18.973 0 5.238 2.887 10.982 4.331 16.729 4.331 5.745 0 11.491-1.444 16.728-4.331 3.627-2 4.947-6.562 2.948-10.189-2-3.627-6.56-4.947-10.189-2.947z" fill="#879caf"/><path d="m202.174 237.361-22.944-6.148c-3.998-1.072-8.114 1.302-9.186 5.303s1.302 8.113 5.303 9.186l6.4 1.715c-.182.647-.286 1.327-.286 2.032v9.883c0 4.142 3.358 7.5 7.5 7.5s7.5-3.358 7.5-7.5v-7.972l1.83.49c.65.174 1.303.257 1.946.257 3.311 0 6.342-2.21 7.24-5.561 1.072-4-1.303-8.113-5.303-9.185z" fill="#334151"/><path d="m326.956 236.516c-1.072-4.001-5.186-6.376-9.186-5.303l-22.944 6.148c-4.001 1.072-6.375 5.185-5.303 9.186.898 3.351 3.928 5.561 7.24 5.561.643 0 1.296-.083 1.946-.257l1.83-.49v7.972c0 4.142 3.358 7.5 7.5 7.5s7.5-3.358 7.5-7.5v-9.883c0-.705-.104-1.385-.286-2.032l6.4-1.715c4.001-1.073 6.375-5.186 5.303-9.187z" fill="#334151"/><path d="m152.033 277.592c0-38.247 14.563-76.917 38.176-109.111h-21.609c-22.513 21.236-36.566 51.343-36.566 84.734 0 .361.002.722.005 1.083.136 14.886 8.623 26.835 20.271 32.818-.178-3.153-.277-6.327-.277-9.524z" fill="#ffbd86"/><path d="m212.393 142.764h-76.576c-4.124 0-8.033 1.85-10.644 5.043-7.732 9.455-14.403 19.814-19.824 30.89-4.453 9.097 2.249 19.71 12.378 19.71h54.13c10.297-20.48 24.158-39.476 40.536-55.643z" fill="#78cbec"/><g fill="#95a9ba"><path d="m226.15 130.351h-16.747c-14.501 0-26.257 11.755-26.257 26.257v22.109c11.783-18.198 26.409-34.69 43.004-48.366z"/><path d="m55.325 248.5c0-93.504 46.994-176.802 117.864-230.625-30.648-1.128-59.775 18.457-68.811 49.852l-.004.013-.13.007c-41.035 2.324-70.942 39.796-64.109 80.325l.02.119-.015.008c-35.993 19.921-46.654 66.721-22.84 100.267l.024.034-.024.034c-23.814 33.545-13.153 80.346 22.841 100.267l.014.008-.02.118c-6.834 40.529 23.074 78.001 64.109 80.326l.13.007.004.014c9.036 31.395 38.163 50.98 68.811 49.852-70.87-53.824-117.864-137.121-117.864-230.626z"/></g></g></svg>