<svg id="Capa_1" enable-background="new 0 0 512 512" height="512" viewBox="0 0 512 512" width="512" xmlns="http://www.w3.org/2000/svg"><g><g><path d="m501.973 436.571c-1.288-104.468-57.119-215.992-145.1-273.095-12.46-8.087-27.04-12.298-41.895-12.298h-117.957c-14.855 0-29.435 4.211-41.895 12.298-87.98 57.104-143.811 168.627-145.099 273.095-.018 1.477-.027 2.946-.027 4.404h245.999 245.974c0-1.458.018-2.927 0-4.404z" fill="#ff7e96"/></g><g><path d="m10 440.975s137.016-242.691 246.011-242.691 245.961 242.691 245.961 242.691z" fill="#a0e4a5"/></g><g><path d="m10 440.975h491.973v50.84h-491.973z" fill="#ccd3dd"/></g><g><path d="m363.816 440.975s.249-13.63-1.745-26.314c-28.903-183.824-183.24-183.824-212.143 0-1.994 12.684-1.745 26.314-1.745 26.314z" fill="#ff7e96"/></g><g><path d="m467.339 79.23c0 24.799-20.096 44.895-44.884 44.895-11.173 0-21.395-4.087-29.254-10.849 16.547-2.497 29.255-16.794 29.255-34.046 0-17.242-12.707-31.539-29.254-34.035 7.859-6.762 18.081-10.849 29.254-10.849 24.787 0 44.883 20.097 44.883 44.884z" fill="#fff"/></g><g><path d="m512 440.975c0-1.5-.009-3.01-.028-4.53v.002c-1.369-111.081-61.511-224.15-149.654-281.359-14.021-9.1-30.392-13.91-47.339-13.91h-117.958c-16.949 0-33.318 4.81-47.339 13.91-88.144 57.21-148.285 170.28-149.654 281.361-.018 1.518-.028 3.027-.028 4.526v50.84c0 5.523 4.477 10 10 10h201.89c5.523 0 10-4.477 10-10s-4.477-10-10-10h-191.89v-30.84h471.995l-.013 30.84h-192.145c-5.522 0-10 4.477-10 10s4.478 10 10 10h202.141c5.521 0 10.02-4.475 10.022-9.996v-50.84s0-.001 0-.002c0 0 0-.001 0-.002zm-255.989-232.691c41.359 0 95.259 40.581 155.873 117.356 32.867 41.631 59.496 83.699 72.596 105.335h-110.843c-.223-5.124-.696-11.57-1.687-17.867-7.067-44.95-22.091-82.371-43.445-108.217-20.299-24.568-46.048-38.098-72.504-38.098-.002 0 .001 0 0 0-26.455 0-52.206 13.531-72.504 38.097-21.355 25.846-36.378 63.267-43.446 108.217-.99 6.297-1.464 12.743-1.687 17.867h-110.843c13.075-21.596 39.633-63.548 72.463-105.151 60.679-76.894 114.633-117.539 156.027-117.539zm-10.01 79.355.008 143.336h-87.624c.21-4.368.622-9.666 1.422-14.76 6.511-41.411 20.034-75.5 39.107-98.584 13.959-16.895 30.072-27.115 47.087-29.992zm20 0c17.014 2.878 33.127 13.097 47.085 29.991 19.073 23.084 32.596 57.174 39.106 98.585.799 5.077 1.21 10.383 1.42 14.76h-87.603zm85.428-115.775c41.125 26.692 76.272 66.468 101.641 115.028 19.004 36.378 31.336 75.258 36.358 114.131-14.841-23.383-36.461-55.603-61.698-87.588-61.072-77.402-115.41-119.233-161.718-124.562v-27.695h48.967c13.074 0 25.678 3.696 36.45 10.686zm-190.859.001c10.771-6.991 23.376-10.687 36.451-10.687h48.991v27.695c-46.307 5.328-100.649 47.16-161.729 124.561-25.242 31.988-46.867 64.21-61.71 87.594 5.022-38.875 17.354-77.756 36.358-114.136 25.367-48.559 60.514-88.335 101.639-115.027z"/><path d="m265.24 487.99c-3.439-8.256-15.609-7.98-18.637.455-3.087 8.6 6.534 16.554 14.401 12.031 4.293-2.468 6.139-7.918 4.236-12.486z"/><path d="m391.709 103.388c-3.864.583-7.035 3.365-8.117 7.121s.124 7.798 3.087 10.348c9.944 8.557 22.65 13.269 35.777 13.269 30.263 0 54.884-24.626 54.884-54.895 0-30.263-24.621-54.884-54.884-54.884-13.127 0-25.833 4.712-35.777 13.268-2.963 2.55-4.169 6.592-3.087 10.348 1.081 3.756 4.253 6.538 8.117 7.121 11.828 1.784 20.747 12.166 20.747 24.147 0 11.987-8.919 22.373-20.747 24.157zm24.437-58.467c2.068-.381 4.181-.576 6.31-.576 19.235 0 34.884 15.649 34.884 34.884 0 19.241-15.648 34.895-34.884 34.895-2.13 0-4.242-.195-6.312-.576 9.988-8.243 16.312-20.713 16.312-34.319 0-13.6-6.323-26.067-16.31-34.308z"/><path d="m10.023 73.541h102.256c17.467 0 31.678-14.211 31.678-31.679 0-17.467-14.211-31.678-31.678-31.678h-4.84c-5.523 0-10 4.477-10 10s4.477 10 10 10h4.84c6.439 0 11.678 5.239 11.678 11.678s-5.239 11.678-11.678 11.678h-102.256c-5.523 0-10 4.477-10 10s4.477 10.001 10 10.001z"/><path d="m78.238 106.364c0 5.523 4.477 10 10 10h63.802c5.523 0 10-4.477 10-10s-4.477-10-10-10h-63.802c-5.523 0-10 4.477-10 10z"/><path d="m186.67 110.19c2.095 5.029 8.017 7.499 13.06 5.41 5.029-2.083 7.497-8.031 5.41-13.06-2.09-5.035-8.024-7.49-13.06-5.41-5.03 2.077-7.505 8.032-5.41 13.06z"/></g></g></svg>