<svg height="512pt" viewBox="0 -49 512 512" width="512pt" xmlns="http://www.w3.org/2000/svg"><g fill="#52607e"><path d="m10 363.019531h146.554688v41.183594h-146.554688zm0 0"/><path d="m156.554688 363.019531h146.554687v41.183594h-146.554687zm0 0"/><path d="m303.109375 363.019531h146.550781v41.183594h-146.550781zm0 0"/></g><path d="m10 244.5625h146.554688v118.453125h-146.554688zm0 0" fill="#ede6f5"/><path d="m156.554688 244.5625h146.554687v118.453125h-146.554687zm0 0" fill="#f05f90"/><path d="m303.109375 244.5625h146.550781v118.453125h-146.550781zm0 0" fill="#ede6f5"/><path d="m238.042969 318.546875c0-10.890625-28.527344-9-28.527344-30.058594 0-13.5 11.789063-18.628906 23.039063-18.628906 4.769531 0 17.910156.902344 17.910156 7.917969 0 2.433594-1.621094 7.382812-5.582032 7.382812-3.238281 0-4.949218-3.421875-12.328124-3.421875-6.390626 0-9 2.609375-9 5.402344 0 9 28.527343 7.289063 28.527343 29.96875 0 12.957031-9.449219 19.976563-22.496093 19.976563-11.792969 0-21.691407-5.757813-21.691407-11.699219 0-3.058594 2.699219-7.558594 6.121094-7.558594 4.226563 0 6.929687 6.660156 15.296875 6.660156 4.140625 0 8.730469-1.621093 8.730469-5.941406zm0 0"/><path d="m54.273438 330.425781c0-.269531.089843-.628906.179687-.988281l16.738281-54.898438c.992188-3.148437 5.042969-4.679687 9.179688-4.679687 4.140625 0 8.191406 1.53125 9.183594 4.679687l16.828124 54.898438c.089844.359375.179688.71875.179688.988281 0 3.332031-5.128906 5.761719-9 5.761719-2.25 0-4.050781-.71875-4.589844-2.609375l-3.0625-11.25h-18.984375l-3.0625 11.25c-.539062 1.890625-2.339843 2.609375-4.589843 2.609375-3.871094 0-9-2.429688-9-5.761719zm32.667968-18.898437-6.570312-24.117188-6.566406 24.117188zm0 0"/><path d="m380.648438 270.398438c12.417968 0 22.136718 5.761718 22.136718 21.238281v23.308593c0 15.480469-9.71875 21.242188-22.136718 21.242188h-15.929688c-3.691406 0-6.121094-1.980469-6.121094-4.230469v-57.328125c0-2.25 2.429688-4.230468 6.121094-4.230468zm-8.011719 12.242187v41.304687h8.011719c5.039062 0 8.097656-2.878906 8.097656-9v-23.308593c0-6.117188-3.058594-9-8.097656-9h-8.011719zm0 0"/><path d="m62.339844 128.453125h146.550781v41.1875h-146.550781zm0 0" fill="#52607e"/><path d="m208.890625 128.453125h146.554687v41.1875h-146.554687zm0 0" fill="#52607e"/><path d="m355.445312 128.453125h146.554688v41.1875h-146.554688zm0 0" fill="#52607e"/><path d="m62.339844 10h146.550781v118.453125h-146.550781zm0 0" fill="#ede6f5"/><path d="m208.890625 10h146.554687v118.453125h-146.554687zm0 0" fill="#00d2d7"/><path d="m355.445312 10h146.554688v118.453125h-146.554688zm0 0" fill="#ede6f5"/><path d="m449.660156 234.5625h-439.660156c-5.523438 0-10 4.476562-10 10v159.636719c0 5.523437 4.476562 10 10 10h439.660156c5.523438 0 10-4.476563 10-10v-159.636719c0-5.523438-4.476562-10-10-10zm-10 118.457031h-126.550781v-98.457031h126.550781zm-146.550781 0h-126.554687v-98.457031h126.554687zm-273.109375-98.457031h126.554688v98.453125h-126.554688zm0 118.457031h126.554688v21.183594h-126.554688zm146.554688 0h126.554687v21.183594h-126.554687zm273.105468 21.183594h-126.550781v-21.183594h126.550781zm0 0"/><path d="m502 0h-439.660156c-5.523438 0-10 4.476562-10 10v159.636719c0 5.523437 4.476562 10 10 10h439.660156c5.523438 0 10-4.476563 10-10v-159.636719c0-5.523438-4.476562-10-10-10zm-10 118.453125h-126.554688v-98.453125h126.554688zm-146.554688 0h-126.554687v-98.453125h126.554687zm-273.105468-98.453125h126.550781v98.453125h-126.550781zm0 118.453125h126.550781v21.1875h-126.550781zm146.550781 0h126.554687v21.1875h-126.554687zm273.109375 21.1875h-126.554688v-21.1875h126.554688zm0 0"/><path d="m306.957031 97.484375c-1.078125 3.148437-5.128906 4.679687-9.269531 4.679687-4.050781 0-8.371094-1.53125-9.089844-4.679687l-4.679687-21.328125-4.679688 21.328125c-.722656 3.148437-5.039062 4.679687-9.089843 4.679687-4.140626 0-8.28125-1.53125-9.269532-4.679687l-17.910156-54.898437c-.089844-.269532-.179688-.71875-.179688-1.171876 0-3.058593 5.039063-5.578124 9.089844-5.578124 2.160156 0 3.960938.71875 4.5 2.609374l13.679688 46.167969 7.109375-30.417969c.539062-2.429687 3.6875-3.6875 6.75-3.6875 3.058593 0 6.210937 1.257813 6.75 3.6875l7.109375 30.417969 13.679687-46.167969c.539063-1.890624 2.339844-2.609374 4.5-2.609374 4.050781 0 9.089844 2.519531 9.089844 5.578124 0 .453126-.09375.902344-.183594 1.171876zm0 0"/><path d="m451.871094 217.101562c-.652344 0-1.3125-.070312-1.949219-.199218-.640625-.121094-1.273437-.320313-1.871094-.570313-.609375-.25-1.191406-.5625-1.730469-.921875-.550781-.359375-1.058593-.777344-1.519531-1.238281-.460937-.460937-.878906-.972656-1.242187-1.519531-.359375-.542969-.667969-1.121094-.917969-1.722656-.25-.609376-.441406-1.238282-.570313-1.878907-.128906-.640625-.199218-1.300781-.199218-1.949219 0-.652343.070312-1.3125.199218-1.949218.128907-.640625.320313-1.269532.570313-1.871094.25-.609375.558594-1.191406.917969-1.730469.363281-.550781.78125-1.058593 1.242187-1.519531.460938-.460938.96875-.878906 1.519531-1.242188.539063-.367187 1.121094-.667968 1.730469-.917968.597657-.25 1.230469-.449219 1.871094-.570313 1.289063-.261719 2.617187-.261719 3.898437 0 .640626.121094 1.269532.320313 1.878907.570313.601562.25 1.179687.550781 1.722656.917968.546875.363282 1.058594.78125 1.519531 1.242188.457032.460938.878906.96875 1.25 1.519531.359375.539063.667969 1.121094.917969 1.730469.25.601562.441406 1.230469.5625 1.871094.128906.636718.199219 1.296875.199219 1.949218 0 .648438-.070313 1.308594-.199219 1.949219-.121094.640625-.3125 1.269531-.5625 1.878907-.25.601562-.558594 1.179687-.917969 1.722656-.371094.546875-.792968 1.058594-1.25 1.519531-.460937.460937-.972656.878906-1.519531 1.238281-.542969.359375-1.121094.671875-1.722656.921875-.609375.25-1.238281.449219-1.878907.570313-.640624.128906-1.300781.199218-1.949218.199218zm0 0"/><path d="m413.875 217.101562h-353.746094c-5.523437 0-10-4.476562-10-10 0-5.523437 4.476563-10 10-10h353.746094c5.523438 0 10 4.476563 10 10 0 5.523438-4.476562 10-10 10zm0 0"/></svg>