<?xml version="1.0" encoding="iso-8859-1"?>
<!-- Generator: Adobe Illustrator 19.0.0, SVG Export Plug-In . SVG Version: 6.00 Build 0)  -->
<svg version="1.1" id="Capa_1" xmlns="http://www.w3.org/2000/svg" xmlns:xlink="http://www.w3.org/1999/xlink" x="0px" y="0px"
	 viewBox="0 0 511.999 511.999" style="enable-background:new 0 0 511.999 511.999;" xml:space="preserve">
<path style="fill:#BEE86E;" d="M480.451,87.661h-56.112c-35.417,0-64.129,28.712-64.129,64.129v104.209
	c0,24.084-17.72,43.974-40.822,47.489l0,0c-2.379,0.362-4.795,0.608-7.274,0.608h-48.097c-26.563,0-48.097,21.534-48.097,48.097
	c0,26.563-21.534,48.097-48.097,48.097c-70.835,0-128.258-57.423-128.258-128.258v32.065c0,70.835,57.423,128.258,128.258,128.258
	c37.643,0,69.225-25.947,77.84-60.931c2.731-11.093,12.135-19.23,23.559-19.23h18.843l32.065,24.048
	c44.272,0,80.161-35.89,80.161-80.161V159.806c0-8.855,7.178-16.032,16.032-16.032h32.065v-8.016
	c0-8.855,7.178-16.032,16.032-16.032h32.065c4.489,0,8.049-3.718,8.014-8.207C504.397,98.325,493.67,87.661,480.451,87.661z"/>
<path style="fill:#FF8087;" d="M7.5,47.58c0,0,88.177,48.097,104.21,112.226c61.624,39.58,69.139,105.212,69.139,105.212
	s81.664-21.042,107.216,39.079h24.048L256,151.791C256,151.79,167.822,71.628,7.5,47.58z"/>
<path style="fill:#D7AC6E;" d="M256,151.79c0,0-88.177-80.161-248.5-104.21c0,0,50.819,27.745,82.31,69.169
	c5.438,1.961,10.774,3.997,15.995,6.087c66.111,26.475,118.399,78.974,144.848,145.096c15.213,5.952,29.208,16.86,37.412,36.164
	h24.048L256,151.79z"/>
<polygon style="fill:#AFD755;" points="39.564,255.999 71.629,223.935 39.564,151.79 7.5,223.935 "/>
<path style="fill:#DCFF82;" d="M400.29,167.822c-13.285,0-24.048,10.768-24.048,24.048v104.21c0,30.941-25.176,56.113-56.113,56.113
	c-7.867,0-14.785,3.831-19.171,9.669l19.171,14.379c44.272,0,80.161-35.89,80.161-80.161V167.822z"/>
<path style="fill:#AFD755;" d="M296.081,336.161c-8.854,0-16.032,7.178-16.032,16.032v71l19.886-11.363
	c12.488-7.136,20.195-20.416,20.195-34.799v-16.822C320.129,346.927,309.362,336.161,296.081,336.161L296.081,336.161z"/>
<path d="M464.419,127.225h32.064c8.556,0,15.516-6.96,15.516-15.516c0-17.396-14.152-31.548-31.548-31.548h-56.112
	c-39.497,0-71.629,32.133-71.629,71.629v104.209c0,20.655-15.508,37.743-35.49,40.264l-54.182-147.066
	c-0.48-1.303-1.312-2.447-2.404-3.305c-1.167-0.917-29.096-22.73-74.251-46.813c-41.71-22.246-106.45-50.53-178.006-58.948
	c-3.571-0.417-6.933,1.75-8.023,5.173c-1.09,3.424,0.401,7.139,3.555,8.859c0.81,0.442,77.118,42.613,97.72,98.437
	c-3.137,0.897-5.436,3.78-5.436,7.205c0,4.142,3.358,7.5,7.5,7.5h5.771c49.299,32.702,61.275,83.617,63.496,95.852l-3.225,4.514
	c-2.408,3.371-1.627,8.055,1.744,10.462c1.321,0.944,2.844,1.397,4.353,1.397c2.34,0,4.646-1.092,6.109-3.141l3.343-4.68
	c6.02-1.237,21.852-3.919,39.26-2.196c23.389,2.316,40.482,11.415,50.99,27.082h-11.519c-30.656,0-55.597,24.94-55.597,55.597
	c0,22.385-18.212,40.597-40.597,40.597c-66.586,0-120.758-54.172-120.758-120.758v-12.926l29.868-29.868
	c2.194-2.194,2.811-5.514,1.55-8.349l-32.064-72.145c-1.204-2.708-3.89-4.454-6.854-4.454s-5.65,1.746-6.854,4.454L0.646,220.889
	c-1.26,2.835-0.644,6.155,1.55,8.349l29.868,29.868v44.99c0,74.857,60.901,135.758,135.758,135.758
	c40.458,0,75.461-27.402,85.123-66.638c1.991-8.089,8.532-13.523,16.276-13.523h3.327v56.629c0,0.806,0.131,1.581,0.366,2.309
	l-4.542,2.595c-7.313,4.179-11.857,12.008-11.857,20.432v15.261h-8.532c-4.142,0-7.5,3.358-7.5,7.5s3.358,7.5,7.5,7.5h16.011
	c0.004,0,0.008,0,0.012,0c0.003,0,0.006,0,0.009,0c0.02,0,0.039-0.003,0.059-0.003c5.663-0.016,11.373-1.71,16.972-5.043
	c3.265-1.943,7.078-2.97,11.026-2.97c5.616,0,11,2.134,14.773,5.855c1.461,1.441,3.364,2.161,5.267,2.161
	c1.937,0,3.873-0.746,5.34-2.233c2.909-2.949,2.876-7.698-0.072-10.606c-6.653-6.562-15.641-10.177-25.307-10.177
	c-6.648,0-13.113,1.757-18.698,5.081c-0.625,0.372-1.243,0.697-1.859,0.999v-13.324c0-3.054,1.647-5.893,4.299-7.408l27.84-15.908
	c12.907-7.375,21.543-20.374,23.532-34.885c45.049-3.606,80.603-41.416,80.603-87.376v-144.29c0-4.142-3.358-7.5-7.5-7.5
	s-7.5,3.358-7.5,7.5v144.29c0,37.533-28.606,68.509-65.162,72.275v-8.146c0-4.142-3.358-7.5-7.5-7.5s-7.5,3.358-7.5,7.5v16.821
	c0,11.662-6.29,22.501-16.416,28.288l-8.665,4.951v-58.077c0-4.705,3.828-8.532,8.532-8.532c4.142,0,7.5-3.358,7.5-7.5
	s-3.358-7.5-7.5-7.5c-10.354,0-19.16,6.724-22.3,16.032h-4.559c-14.544,0-27.227,10.255-30.841,24.938
	c-8.006,32.515-37.021,55.224-70.558,55.224c-51.147,0-94.965-31.965-112.537-76.966c24.422,36.115,65.754,59.901,112.537,59.901
	c30.656,0,55.597-24.941,55.597-55.597c0-22.385,18.211-40.597,40.597-40.597h48.072c0.009,0,0.017,0.002,0.026,0.002
	c0.036,0,0.072-0.004,0.108-0.005c30.606-0.06,55.487-24.974,55.487-55.594V151.79c0-31.226,25.404-56.629,56.629-56.629h24.564
	v0.516c0,4.142,3.358,7.5,7.5,7.5s7.5-3.358,7.5-7.5v-0.516h16.548c9.125,0,16.548,7.423,16.548,16.548
	c0,0.285-0.231,0.516-0.516,0.516h-32.062c-12.976,0-23.532,10.557-23.532,23.533v0.516h-0.516c-9.125,0-16.548-7.424-16.548-16.549
	c0-4.142-3.358-7.5-7.5-7.5s-7.5,3.358-7.5,7.5c0,17.396,14.152,31.549,31.548,31.549h56.113c4.142,0,7.5-3.358,7.5-7.5
	s-3.358-7.5-7.5-7.5h-40.597v-0.516C455.887,131.053,459.715,127.225,464.419,127.225z M39.564,170.257l23.119,52.017
	l-15.619,15.619v-5.942c0-4.142-3.358-7.5-7.5-7.5s-7.5,3.358-7.5,7.5v5.942l-15.619-15.619L39.564,170.257z M134.242,167.306
	h57.627c4.142,0,7.5-3.358,7.5-7.5s-3.358-7.5-7.5-7.5H117.38c-8.24-26.291-28.052-52.645-58.986-78.423
	c-5.81-4.842-11.49-9.218-16.783-13.081c55.047,11.61,103.873,33.488,137.417,51.356c31,16.511,54.038,32.211,65.077,40.148h-20.173
	c-4.142,0-7.5,3.358-7.5,7.5s3.358,7.5,7.5,7.5h17.494l-56.837,79.571C179.022,227.205,165.577,194.382,134.242,167.306z
	 M225.588,254.545c-10.46-0.999-20.267-0.609-28.173,0.184l58.397-81.756l45.545,123.623h-8.506
	C280.595,272.095,257.452,257.588,225.588,254.545z"/>
<g>
</g>
<g>
</g>
<g>
</g>
<g>
</g>
<g>
</g>
<g>
</g>
<g>
</g>
<g>
</g>
<g>
</g>
<g>
</g>
<g>
</g>
<g>
</g>
<g>
</g>
<g>
</g>
<g>
</g>
</svg>
