<svg height="512pt" viewBox="-21 0 512 512" width="512pt" xmlns="http://www.w3.org/2000/svg"><path d="m81.378906 88.519531h-37.003906c-24.410156 0-44.269531-19.855469-44.269531-44.261719-.003907-24.402343 19.855469-44.257812 44.261719-44.257812h306.21875c5.523437 0 10 4.476562 10 10s-4.476563 10-10 10h-306.21875c-13.378907 0-24.265626 10.882812-24.265626 24.257812 0 13.378907 10.890626 24.265626 24.273438 24.265626h37.003906c5.523438 0 10 4.476562 10 10 0 5.519531-4.480468 9.996093-10 9.996093zm0 0"/><path d="m123.324219 88.519531c-.648438 0-1.308594-.070312-1.949219-.199219-.640625-.121093-1.269531-.320312-1.871094-.570312-.609375-.238281-1.1875-.550781-1.730468-.910156-.546876-.367188-1.058594-.789063-1.519532-1.25-.457031-.457032-.878906-.96875-1.238281-1.519532-.359375-.539062-.671875-1.121093-.921875-1.71875-.25-.609374-.4375-1.242187-.570312-1.871093-.128907-.648438-.199219-1.308594-.199219-1.960938 0-.648437.070312-1.308593.199219-1.949219.132812-.640624.320312-1.269531.570312-1.871093.25-.609375.5625-1.1875.921875-1.726563.359375-.550781.78125-1.0625 1.238281-1.523437.460938-.457031.972656-.878907 1.519532-1.238281.542968-.359376 1.121093-.671876 1.730468-.921876.601563-.25 1.230469-.4375 1.871094-.566406 1.289062-.261718 2.621094-.261718 3.910156 0 .628906.128906 1.261719.316406 1.871094.566406.597656.25 1.179688.5625 1.71875.921876.550781.359374 1.058594.78125 1.519531 1.238281.460938.460937.878907.972656 1.25 1.523437.359375.539063.671875 1.117188.921875 1.726563.25.601562.4375 1.230469.570313 1.871093.128906.640626.1875 1.300782.1875 1.949219 0 .652344-.058594 1.3125-.1875 1.960938-.132813.628906-.320313 1.261719-.570313 1.871093-.25.597657-.5625 1.179688-.921875 1.71875-.371093.550782-.789062 1.0625-1.25 1.519532-.460937.460937-.96875.882812-1.519531 1.25-.539062.359375-1.121094.671875-1.71875.910156-.609375.25-1.242188.449219-1.871094.570312-.648437.128907-1.308594.199219-1.960937.199219zm0 0"/><path d="m201.863281 176.816406h59.261719v39.4375h-59.261719zm0 0" fill="#00d2d7"/><path d="m452.375 307.996094c-9.699219 36.429687-42.917969 63.273437-82.410156 63.273437-47.097656 0-85.277344-38.171875-85.277344-85.257812 0-28.835938 14.320312-54.328125 36.234375-69.757813h-172.214844c21.914063 15.429688 36.234375 40.921875 36.234375 69.757813 0 47.085937-38.179687 85.257812-85.277344 85.257812-39.488281 0-72.710937-26.839843-82.410156-63.273437l-7.253906 146.105468c0 26.453126 21.449219 47.898438 47.910156 47.898438h.003906c18.144532 0 33.886719-10.703125 42.851563-26.476562 13.734375-24.171876 59.992187-93.625 59.992187-93.625 2.628907-5.253907 7.996094-8.570313 13.871094-8.570313h120.375c5.871094 0 11.238282 3.316406 13.867188 8.570313 0 0 46.257812 69.453124 59.992187 93.625 8.96875 15.773437 24.707031 26.476562 42.855469 26.476562h.003906c26.457032 0 47.90625-21.445312 47.90625-47.898438zm0 0" fill="#52607e"/><path d="m144.507812 211.476562-10.359374-33.515624c-4.507813-15.445313-73.238282-15.445313-77.746094 0l-12.773438 41.78125" fill="#43b0fc"/><path d="m426 218.742188-12.773438-40.78125c-4.507812-15.445313-73.238281-15.445313-77.746093 0l-10.359375 32.515624" fill="#43b0fc"/><path d="m184.941406 286.007812c0-47.085937-38.179687-85.257812-85.277344-85.257812-47.09375 0-85.273437 38.171875-85.273437 85.257812 0 47.085938 38.179687 85.257813 85.273437 85.257813 47.097657 0 85.277344-38.171875 85.277344-85.257813zm0 0" fill="#ede6f5"/><path d="m455.238281 286.007812c0-47.085937-38.179687-85.257812-85.273437-85.257812-47.097656 0-85.277344 38.171875-85.277344 85.257812 0 47.085938 38.179688 85.257813 85.277344 85.257813 47.09375 0 85.273437-38.171875 85.273437-85.257813zm0 0" fill="#ede6f5"/><path d="m469.617188 453.601562-7.222657-144.453124c1.855469-7.410157 2.84375-15.160157 2.84375-23.136719 0-26.96875-11.265625-51.355469-29.339843-68.703125-.078126-.519532-.195313-1.039063-.355469-1.554688l-12.75-40.707031c-5.050781-16.847656-35.542969-18.667969-48.4375-18.667969-12.890625 0-43.351563 1.816406-48.433594 18.636719l-9.953125 31.238281h-44.84375v-29.4375c0-5.523437-4.476562-10-10-10h-15.085938c3.167969-7.824218 10.847657-13.355468 19.796876-13.355468h80.746093c23.425781 0 42.480469-19.054688 42.480469-42.472657 0-23.414062-19.054688-42.46875-42.480469-42.46875h-184.304687c-5.519532 0-10 4.480469-10 10 0 5.523438 4.480468 10 10 10h184.304687c12.398438 0 22.480469 10.082031 22.480469 22.46875 0 12.390625-10.085938 22.472657-22.480469 22.472657h-80.746093c-20.070313 0-36.84375 14.367187-40.570313 33.355468h-23.402344c-5.523437 0-10 4.476563-10 10v29.4375h-38.503906l-9.640625-31.1875c-5.035156-16.867187-35.542969-18.6875-48.445312-18.6875-12.910157 0-43.433594 1.820313-48.449219 18.707032l-12.757813 41.730468c-.023437.082032-.046875.160156-.070312.238282-18.226563 17.363281-29.605469 41.855468-29.605469 68.953124 0 7.980469.988281 15.730469 2.84375 23.144532l-7.2226562 144.449218c-.00781255.164063-.0117188.332032-.0117188.5 0 31.925782 25.976562 57.898438 57.914062 57.898438 21.050782 0 40.320313-11.789062 51.542969-31.539062 13.40625-23.585938 59.164063-92.328126 59.625-93.023438.230469-.34375.4375-.699219.621094-1.070312.9375-1.875 2.824219-3.039063 4.925781-3.039063h120.375c2.097656 0 3.984375 1.164063 4.921875 3.039063.183594.371093.394531.730468.621094 1.070312.460937.695312 46.21875 69.441406 59.625 93.023438 11.222656 19.75 30.492187 31.539062 51.550781 31.539062 31.929688 0 57.90625-25.972656 57.90625-57.898438 0-.167968-.003906-.332031-.011718-.5zm-24.378907-167.589843c0 41.496093-33.769531 75.257812-75.273437 75.257812-41.507813 0-75.273438-33.761719-75.273438-75.257812 0-41.5 33.765625-75.261719 75.273438-75.261719 41.503906 0 75.273437 33.761719 75.273437 75.261719zm-70.882812-109.632813c16.59375 0 27.039062 3.28125 29.542969 5.257813l5.539062 17.679687c-12.035156-5.5-25.402344-8.566406-39.472656-8.566406-10.316406 0-20.25 1.648438-29.558594 4.691406l4.398438-13.800781c2.496093-1.976563 12.945312-5.261719 29.550781-5.261719zm-162.492188 10.4375h39.261719v19.4375h-39.261719zm-146.125-5.1875c2.515625-1.976562 12.957031-5.25 29.535157-5.25 16.585937 0 27.03125 3.277344 29.542968 5.253906l4.253906 13.757813c-9.265624-3.011719-19.148437-4.640625-29.40625-4.640625-14.007812 0-27.320312 3.039062-39.3125 8.492188zm33.925781 29.121094c41.507813 0 75.277344 33.761719 75.277344 75.261719 0 41.496093-33.769531 75.257812-75.277344 75.257812-41.503906 0-75.273437-33.761719-75.273437-75.257812 0-41.5 33.769531-75.261719 75.273437-75.261719zm312.054688 281.25c-13.769531 0-26.535156-8.007812-34.160156-21.421875-13.320313-23.4375-55.691406-87.203125-60.0625-93.769531-4.445313-8.335938-13.003906-13.484375-22.492188-13.484375h-120.375c-9.492187 0-18.050781 5.148437-22.496094 13.480469-4.367187 6.566406-46.742187 70.335937-60.0625 93.773437-7.621093 13.414063-20.390624 21.421875-34.160156 21.421875-20.824218 0-37.78125-16.875-37.910156-37.664062l5.433594-108.675782c17.480468 21.699219 44.261718 35.605469 74.230468 35.605469 52.535157 0 95.277344-42.730469 95.277344-95.257813 0-22.609374-7.921875-43.402343-21.132812-59.757812h122.007812c-13.207031 16.355469-21.128906 37.148438-21.128906 59.757812 0 52.527344 42.742188 95.257813 95.273438 95.257813 29.972656 0 56.757812-13.90625 74.234374-35.609375l5.433594 108.679688c-.125 20.792968-17.082031 37.664062-37.910156 37.664062zm0 0"/><path d="m135.96875 271.183594h-21.472656v-21.472656h-29.660156v21.472656h-21.472657v29.652344h21.472657v21.472656h29.660156v-21.472656h21.472656zm0 0" fill="#f05f90"/><path d="m114.496094 332.308594h-29.660156c-5.523438 0-10-4.480469-10-10v-11.472656h-11.472657c-5.523437 0-10-4.476563-10-10v-29.652344c0-5.523438 4.476563-10 10-10h11.472657v-11.472656c0-5.519532 4.476562-10 10-10h29.660156c5.523437 0 10 4.480468 10 10v11.472656h11.472656c5.523438 0 10 4.476562 10 10v29.652344c0 5.523437-4.476562 10-10 10h-11.472656v11.472656c0 5.519531-4.476563 10-10 10zm-19.660156-20h9.660156v-11.472656c0-5.523438 4.476562-10 10-10h11.472656v-9.652344h-11.472656c-5.523438 0-10-4.476563-10-10v-11.472656h-9.660156v11.472656c0 5.523437-4.476563 10-10 10h-11.472657v9.652344h11.472657c5.523437 0 10 4.476562 10 10zm0 0"/><path d="m398.128906 306.175781c-2.558594 0-5.117187-.980469-7.070312-2.933593-3.90625-3.902344-3.902344-10.234376 0-14.140626l2.996094-2.992187-2.996094-2.996094c-3.902344-3.902343-3.90625-10.234375 0-14.140625 3.902344-3.90625 10.238281-3.910156 14.140625-.003906l10.070312 10.066406c1.875 1.875 2.929688 4.417969 2.929688 7.070313 0 2.652343-1.054688 5.199219-2.929688 7.074219l-10.070312 10.0625c-1.953125 1.957031-4.511719 2.933593-7.070313 2.933593zm0 0"/><path d="m341.796875 305.976562c-2.5625 0-5.121094-.976562-7.070313-2.929687l-10.070312-10.066406c-1.875-1.875-2.929688-4.417969-2.929688-7.070313s1.054688-5.195312 2.929688-7.070312l10.070312-10.066406c3.90625-3.902344 10.238282-3.902344 14.140626.003906 3.902343 3.90625 3.902343 10.234375-.003907 14.140625l-2.992187 2.992187 2.992187 2.996094c3.90625 3.90625 3.90625 10.238281.003907 14.144531-1.953126 1.949219-4.511719 2.925781-7.070313 2.925781zm0 0"/><path d="m369.863281 334.238281c-2.558593 0-5.117187-.976562-7.070312-2.929687l-10.066407-10.066406c-3.90625-3.902344-3.90625-10.234376 0-14.140626 3.902344-3.90625 10.238282-3.90625 14.140626 0l2.996093 2.996094 3-2.996094c3.90625-3.90625 10.238281-3.90625 14.140625 0 3.90625 3.90625 3.90625 10.238282 0 14.140626l-10.066406 10.066406c-1.957031 1.953125-4.515625 2.929687-7.074219 2.929687zm0 0"/><path d="m380.128906 267.847656c-2.558594 0-5.117187-.976562-7.070312-2.929687l-2.996094-2.996094-2.996094 2.996094c-3.90625 3.90625-10.238281 3.90625-14.144531 0-3.902344-3.90625-3.902344-10.238281.003906-14.144531l10.066407-10.0625c3.90625-3.90625 10.238281-3.90625 14.140624 0l10.066407 10.0625c3.90625 3.90625 3.90625 10.238281 0 14.144531-1.949219 1.953125-4.511719 2.929687-7.070313 2.929687zm0 0"/><path d="m247.226562 278.804688h-26.753906c-5.523437 0-10-4.480469-10-10 0-5.523438 4.476563-10 10-10h26.753906c5.523438 0 10 4.476562 10 10 0 5.519531-4.476562 10-10 10zm0 0"/><path d="m247.226562 322.75h-26.753906c-5.523437 0-10-4.476562-10-10s4.476563-10 10-10h26.753906c5.523438 0 10 4.476562 10 10s-4.476562 10-10 10zm0 0"/></svg>