<svg id="Capa_1" enable-background="new 0 0 497 497" height="512" viewBox="0 0 497 497" width="512" xmlns="http://www.w3.org/2000/svg"><g><path d="m297.171 378.798-11.467 48.103-37.204 24.084-39.879-24.421-8.792-47.766z" fill="#fed2a4"/><g fill="#90d3f1"><path d="m158.2 378.798s-56.471 35.862-56.471 118.202h115.75l10.207-15.136-19.064-55.299z"/><path d="m338.801 378.798-53.097 48.103-26.596 70.099h136.164c0-82.34-56.471-118.202-56.471-118.202z"/></g><path d="m459.793 199.665c16.997-58.74-25.863-130.761-143.127-130.761v130.761z" fill="#475c70"/><path d="m37.207 199.665c-16.998-58.741 25.862-130.762 143.127-130.762v89.21z" fill="#475c70"/><path d="m361.414 399.858c-12.014-14.324-22.613-21.06-22.613-21.06l-53.097 48.103-1.491 3.929c28.126-4.976 54.279-15.727 77.201-30.972z" fill="#78cbec"/><path d="m135.586 399.858c22.136 14.722 47.289 25.243 74.318 30.429l-1.283-3.723-50.421-47.766s-10.6 6.737-22.614 21.06z" fill="#78cbec"/><path d="m208.621 426.564 8.008 4.904c10.388 1.633 21.031 2.489 31.871 2.489 10.063 0 19.954-.744 29.632-2.155l7.571-4.901 11.468-48.103h-97.343z" fill="#ffbd86"/><g><path d="m248.5 450.985-20.814 30.879-69.486-103.066h41.629z" fill="#516a80"/></g><path d="m338.8 378.798-79.692 118.202h-41.629l10.207-15.136 20.814-30.879 48.671-72.187z" fill="#475c70"/><path d="m337.882 497v-41.058c0-4.142 3.358-7.5 7.5-7.5s7.5 3.358 7.5 7.5v41.058z" fill="#59c2e7"/><path d="m144.118 497v-41.058c0-4.142 3.358-7.5 7.5-7.5s7.5 3.358 7.5 7.5v41.058z" fill="#59c2e7"/><path d="m137.706 72.494c-84.91 15.232-115.249 76.196-100.499 127.171l69.633-20.215c2.949-40.161 12.107-76.827 30.866-106.956z" fill="#3d4f61"/><circle cx="422.939" cy="226.715" fill="#ffbd86" r="45.72"/><path d="m260.212 433.614c16.333-.927 32.157-3.783 47.252-8.338l31.336-46.478h-41.629z" fill="#3d4f61"/><path d="m199.829 378.798h-41.629l31.335 46.478c15.096 4.556 30.92 7.411 47.253 8.338z" fill="#475c70"/><path d="m248.5 403.957c96.34 0 174.439-78.099 174.439-174.439 0-16.788-2.378-33.019-6.804-48.383-8.799-30.484-30.263-43.892-51.013-49.453-28.505-7.64-48.456-33.268-48.456-62.778-20.941-8.899-43.978-13.825-68.166-13.825s-47.225 4.926-68.166 13.825c0 29.511-19.952 55.138-48.456 62.778-20.749 5.562-42.214 18.97-51.013 49.453-4.426 15.363-6.804 31.595-6.804 48.383 0 96.34 78.099 174.439 174.439 174.439z" fill="#fed2a4"/><ellipse cx="154.475" cy="254.549" fill="#ff9db0" rx="34.694" ry="27.628"/><ellipse cx="342.525" cy="254.549" fill="#ff9db0" rx="34.694" ry="27.628"/><g fill="#334151"><path d="m174.694 235.453c-4.142 0-7.5-3.358-7.5-7.5v-14.183c0-4.142 3.358-7.5 7.5-7.5s7.5 3.358 7.5 7.5v14.183c0 4.142-3.358 7.5-7.5 7.5z"/><path d="m322.306 235.453c-4.142 0-7.5-3.358-7.5-7.5v-14.183c0-4.142 3.358-7.5 7.5-7.5s7.5 3.358 7.5 7.5v14.183c0 4.142-3.358 7.5-7.5 7.5z"/><path d="m248.5 243.896c-9.625 0-18.778-4.169-25.113-11.437-2.721-3.123-2.396-7.86.727-10.582 3.123-2.721 7.86-2.396 10.582.727 3.485 3.999 8.516 6.292 13.804 6.292s10.32-2.293 13.805-6.292c2.722-3.123 7.459-3.448 10.582-.727s3.448 7.459.727 10.582c-6.335 7.268-15.489 11.437-25.114 11.437z"/></g><path d="m267.241 0h-37.483c-14.631 0-25.439 13.64-22.094 27.884l9.399 40.022c2.409 10.256 11.559 17.506 22.094 17.506h18.685c10.535 0 19.685-7.25 22.094-17.506l9.399-40.022c3.345-14.244-7.463-27.884-22.094-27.884z" fill="#475c70"/><path d="m213.721 400.486c-64.654-38.416-107.993-108.945-107.993-189.608 0-24.884 1.898-48.802 6.409-71.114-13.472 7.842-25.295 20.664-31.273 41.371-.035.122-.064.247-.099.369-2.19-.323-4.425-.509-6.705-.509-25.251 0-45.72 20.47-45.72 45.72s20.47 45.72 45.72 45.72c1.775 0 3.523-.115 5.246-.312 16.241 64.695 68.609 115.048 134.415 128.363z" fill="#ffbd86"/><path d="m232.363 13.205c0-4.513.434-8.921 1.226-13.205h-3.831c-14.631 0-25.439 13.64-22.094 27.884l9.399 40.022c2.409 10.256 11.559 17.507 22.094 17.507h18.685c6.252 0 12.003-2.567 16.16-6.787-24.594-11.513-41.639-36.471-41.639-65.421z" fill="#3d4f61"/></g></svg>