<svg id="Capa_1" enable-background="new 0 0 511.755 511.755" height="512" viewBox="0 0 511.755 511.755" width="512" xmlns="http://www.w3.org/2000/svg"><g><g><path d="m133.861 37.017c-13.199 0-23.9 10.7-23.9 23.9v238.161c0 13.2 10.7 23.9 23.9 23.9h243.809c13.199 0 23.9-10.7 23.9-23.9v-238.161c0-13.2-10.7-23.9-23.9-23.9z" fill="#ccd3dd"/></g><g><path d="m196.138 322.977v29.13c0 8.37-6.79 15.16-15.17 15.16h-105.99c-8.38 0-15.17-6.79-15.17-15.16v-36.46l-43.47-45.61c-8.504-8.504-8.49-22.681 0-31.19 8.61-8.61 22.58-8.61 31.19 0l12.28 12.28v-43.13c0-18.82 7.63-35.86 19.97-48.2 8.24-8.24 18.6-14.39 30.18-17.54v156.82c0 13.2 10.7 23.9 23.9 23.9z" fill="#ffd88e"/></g><g><path d="m501.878 254.437c0 5.65-2.16 11.3-6.46 15.6l-43.47 45.61v36.46c0 8.37-6.79 15.16-15.17 15.16h-105.99c-8.38 0-15.17-6.79-15.17-15.16v-29.13h62.05c13.2 0 23.9-10.7 23.9-23.9v-156.89c11.67 3.14 22.11 9.31 30.41 17.61 12.34 12.34 19.97 29.38 19.97 48.2v43.13l12.28-12.28c8.61-8.61 22.58-8.61 31.19 0 4.3 4.31 6.46 9.951 6.46 15.59z" fill="#ffd88e"/></g><g><path d="m88.008 367.272-8.61 107.465h98.471l-6-107.465z" fill="#ffdad5"/></g><g><path d="m425.107 367.272 8.609 107.465h-98.471l6-107.465z" fill="#ffdad5"/></g><g><path d="m195.316 84.082c-20.559 0-37.225 16.666-37.225 37.225v118.081c0 20.559 16.666 37.225 37.225 37.225s37.225-16.666 37.225-37.225v-118.081c-.001-20.559-16.667-37.225-37.225-37.225z" fill="#e0a083"/></g><g><path d="m318.283 84.082c-20.559 0-37.225 16.666-37.225 37.225v118.081c0 20.559 16.666 37.225 37.225 37.225s37.225-16.666 37.225-37.225v-118.081c-.001-20.559-16.667-37.225-37.225-37.225z" fill="#e0a083"/></g><g><path d="m502.488 231.776c-11.004-11.002-28.083-12.316-40.54-3.946v-19.832c0-20.875-8.133-40.504-22.899-55.271-7.827-7.826-17.217-13.89-27.479-17.794v-74.016c0-18.692-15.207-33.9-33.899-33.9h-78.559c-5.522 0-10 4.478-10 10s4.478 10 10 10h78.559c7.664 0 13.899 6.235 13.899 13.9v81.236c0 .011-.002.022-.002.034v156.891c0 7.664-6.235 13.899-13.899 13.899h-243.81c-7.575 0-13.897-6.333-13.897-13.899v-238.161c0-7.665 6.235-13.9 13.899-13.9h77.304c5.522 0 10-4.478 10-10s-4.478-10-10-10h-77.305c-18.692 0-33.899 15.208-33.899 33.9v74.104c-10.171 3.902-19.484 9.934-27.254 17.705-14.767 14.768-22.899 34.396-22.899 55.271v19.832c-12.458-8.371-29.538-7.055-40.55 3.955-12.3 12.331-12.359 32.857-.083 45.231l40.633 42.633v32.459c0 13.873 11.291 25.159 25.17 25.159h2.198l-7.745 96.672c-.224 2.782.727 5.531 2.62 7.582s4.557 3.217 7.348 3.217h98.472c2.749 0 5.377-1.132 7.266-3.129s2.872-4.684 2.719-7.429l-5.413-96.959c13.195-.766 23.697-11.734 23.697-25.113v-19.13h99.48v19.13c0 13.834 11.228 25.093 25.054 25.156l-5.411 96.916c-.153 2.745.83 5.432 2.719 7.429s4.517 3.129 7.266 3.129h98.472c2.791 0 5.455-1.166 7.348-3.217 1.894-2.051 2.844-4.8 2.62-7.582l-7.746-96.672h.839c13.879 0 25.17-11.286 25.17-25.159v-32.459l40.633-42.633c12.28-12.38 12.208-32.905-.096-45.239zm-412.257 232.962 7.007-87.466h65.175l4.883 87.466zm95.906-112.63c0 2.845-2.319 5.159-5.17 5.159h-105.99c-2.851 0-5.17-2.314-5.17-5.159v-36.461c0-2.569-.988-5.04-2.761-6.899l-43.47-45.609c-4.629-4.791-5.001-12.375-.169-17.22 4.639-4.637 12.409-4.639 17.049-.001l12.279 12.28c6.174 6.178 17.071 1.64 17.071-7.07v-43.13c0-15.533 6.052-30.14 17.042-41.13 3.902-3.902 8.323-7.216 13.108-9.849v142.059c0 18.428 15.461 33.9 33.902 33.9h52.277v19.13zm159.682 112.63 4.883-87.466h65.174l7.008 87.466zm142.527-201.772c-.057.057-.112.114-.168.172l-43.47 45.609c-1.772 1.859-2.761 4.33-2.761 6.899v36.461c0 2.845-2.319 5.159-5.17 5.159h-105.99c-2.851 0-5.17-2.314-5.17-5.159v-19.13h52.052c18.692 0 33.899-15.208 33.899-33.9v-142.184c4.873 2.655 9.374 6.011 13.337 9.976 10.99 10.989 17.042 25.596 17.042 41.129v43.13c0 8.712 10.896 13.246 17.071 7.07l12.278-12.279c4.7-4.7 12.35-4.699 17.04-.009 4.646 4.654 4.668 12.401.01 17.056z"/><path d="m195.315 74.082c-26.04 0-47.225 21.185-47.225 47.225v118.076.016c.006 26.035 21.188 47.214 47.224 47.214 26.04 0 47.225-21.185 47.225-47.225v-118.076c0-.005 0-.011 0-.016-.006-26.035-21.187-47.214-47.224-47.214zm0 192.531c-13.7 0-25.063-10.173-26.946-23.361l31.511-31.511c3.905-3.905 3.905-10.237 0-14.143-3.906-3.904-10.236-3.904-14.143 0l-17.647 17.647v-93.938c0-15.012 12.213-27.225 27.225-27.225 13.7 0 25.063 10.173 26.946 23.361l-28.862 28.862c-3.905 3.905-3.905 10.237 0 14.143 3.854 3.852 10.289 3.852 14.143 0l14.998-14.998v93.938c0 15.012-12.213 27.225-27.225 27.225z"/><path d="m271.058 239.399c.006 26.035 21.189 47.214 47.225 47.214 26.04 0 47.225-21.185 47.225-47.225v-118.076c0-.005 0-.011 0-.016-.006-26.035-21.188-47.214-47.224-47.214-26.04 0-47.226 21.185-47.226 47.225v118.076zm47.225-145.317c13.7 0 25.063 10.173 26.946 23.361l-28.862 28.862c-3.905 3.905-3.905 10.237 0 14.143 3.854 3.852 10.289 3.852 14.143 0l14.998-14.998v93.938c0 15.012-12.213 27.225-27.225 27.225-13.701 0-25.064-10.173-26.947-23.361l31.511-31.511c3.905-3.905 3.905-10.237 0-14.143-3.906-3.904-10.236-3.904-14.143 0l-17.647 17.647v-93.938c0-15.012 12.213-27.225 27.226-27.225z"/><path d="m246.647 40.837c2.067 5.039 8.028 7.494 13.05 5.41 5.03-2.087 7.506-8.022 5.41-13.061-2.091-5.026-8.026-7.49-13.06-5.399-5.022 2.086-7.493 8.022-5.4 13.05z"/></g></g></svg>