<?xml version="1.0" encoding="iso-8859-1"?>
<!-- Generator: Adobe Illustrator 19.0.0, SVG Export Plug-In . SVG Version: 6.00 Build 0)  -->
<svg version="1.1" id="Capa_1" xmlns="http://www.w3.org/2000/svg" xmlns:xlink="http://www.w3.org/1999/xlink" x="0px" y="0px"
	 viewBox="0 0 512.002 512.002" style="enable-background:new 0 0 512.002 512.002;" xml:space="preserve">
<path style="fill:#FFB464;" d="M488.469,111.711h-9.391c-4.252,0-8.33-1.689-11.337-4.696l-1.945-1.945
	c-6.013-6.013-14.169-9.391-22.673-9.391h-2.751h-32.065h-8.016c-13.282,0-24.048,10.767-24.048,24.048v136.274
	c0,13.282-10.767,24.048-24.048,24.048h-144.29c-44.272,0-80.161,35.889-80.161,80.161v17.856c0,28.53-21.985,53.41-50.502,54.265
	c-29.508,0.886-53.708-22.772-53.708-52.081v1.537c0,38.426,28.997,71.978,67.343,74.46c42.019,2.72,76.947-30.555,76.947-71.989
	v-8.016c0-22.136,17.944-40.081,40.081-40.081l64.178,9.982c9.515,2.412,18.42,6.994,25.979,13.473l20.089,17.219
	c11.623,9.963,26.427,15.439,41.736,15.439h38.459c6.378,0,12.496-2.534,17.006-7.044l31.554-31.553
	c10.735-10.735,14.484-26.613,9.683-41.016l-27.18-81.541c-3.356-10.069-5.067-20.613-5.067-31.227v-0.006
	c0-11.838,6.488-22.063,16.032-27.618v-4.447v-8.016c0-8.854,7.178-16.032,16.032-16.032h48.097v-16.032
	C504.502,118.889,497.324,111.711,488.469,111.711z"/>
<path style="fill:#6F6571;" d="M85.784,455.648c37.2-4.987,66.008-36.854,66.008-75.396v-20.04c0-30.99,25.123-56.113,56.113-56.113
	h144.29c26.563,0,48.097-21.534,48.097-48.097V130.143c0-15.503-23.794-16.314-24.045-0.813c-0.002,0.132-0.003,0.265-0.003,0.398
	v126.274c0,13.282-10.767,24.048-24.048,24.048h-144.29c-44.272,0-80.161,35.889-80.161,80.161v17.866
	c0,28.496-21.934,53.352-50.415,54.253c-29.458,0.932-53.634-22.6-53.781-51.814c-0.004,0-0.01,0-0.014,0.001v3.743
	C23.534,420.739,50.633,450.813,85.784,455.648z"/>
<path style="fill:#9C969E;" d="M322.87,230.36c-11.836-9.105-18.772-23.19-18.772-38.123v-64.495L7.502,23.534
	c0,0,93.689,60.622,98.198,126.254c71.477,19.706,69.139,84.169,69.139,84.169s93.11-14.832,140.35,42.18
	c10.54,12.72,26.313,19.945,42.833,19.945h50.287L322.87,230.36z"/>
<path style="fill:#FF8C69;" d="M402.507,336.241c-10.423,0.906-18.247,9.98-18.247,20.443v11.544h-24.373
	c-9.569,0-18.821-3.423-26.086-9.65l-20.088-17.219c-4.293-3.679-14.941-10.266-24.4-15.868
	c-8.615-5.102-16.412-11.465-23.146-18.874c-19.519-21.478-60.07-9.143-58.786,23.423c0.27,6.844,2.042,13.817,5.564,20.509
	l43.057,81.809l-1.382,1.935l5.298-3.028c7.492-4.283,12.116-12.251,12.116-20.881v-64.246l0.05,0.008
	c9.514,2.412,18.419,6.993,25.978,13.473l20.089,17.219c11.623,9.963,26.427,15.439,41.735,15.439h24.373v53.362
	c0-8.504,3.378-16.66,9.392-22.673l21.297-21.298c6.014-6.014,9.392-14.17,9.392-22.675v-22.789
	C424.34,344.543,414.383,335.209,402.507,336.241z"/>
<path d="M488.469,104.211h-12.926l-4.444-4.444c-7.474-7.473-17.409-11.588-27.977-11.588H417.77c-5.031,0-10.07-1.189-14.57-3.439
	l-55.667-27.833c-3.705-1.854-8.21-0.351-10.062,3.354c-1.853,3.705-0.351,8.21,3.354,10.062l55.667,27.833
	c6.572,3.287,13.93,5.023,21.278,5.023h25.354c6.561,0,12.73,2.555,17.37,7.195l6.641,6.641c1.406,1.407,3.314,2.197,5.303,2.197
	h16.032c4.705,0,8.532,3.828,8.532,8.532v8.533h-40.597c-12.976,0-23.532,10.557-23.532,23.532v0.516h-0.516
	c-9.125,0-16.548-7.423-16.548-16.548c0-4.142-3.358-7.5-7.5-7.5s-7.5,3.358-7.5,7.5c0,15.2,10.805,27.922,25.138,30.892
	c-5.684,6.853-9.106,15.646-9.106,25.226c0,11.443,1.834,22.749,5.453,33.602l27.179,81.538c3.928,11.783,0.912,24.559-7.871,33.341
	l-9.761,9.761v-13.958c0-4.142-3.358-7.5-7.5-7.5s-7.5,3.358-7.5,7.5v34.815c0,6.561-2.555,12.73-7.195,17.37L391.76,414.25v-46.022
	c0-4.142-3.358-7.5-7.5-7.5s-7.5,3.358-7.5,7.5v16.549h-16.874c-13.508,0-26.597-4.842-36.854-13.633l-20.089-17.219
	c-6.857-5.877-14.862-10.437-23.409-13.373v-4.388c0-4.142-3.358-7.5-7.5-7.5s-7.5,3.358-7.5,7.5v74.222
	c0,4.627-1.956,8.993-5.26,12.086l-39.692-75.416c-6.682-12.696-6.244-27.608,1.171-39.89c7.415-12.282,20.407-19.615,34.754-19.615
	h64.625c4.142,0,7.5-3.358,7.5-7.5c0-1.931-0.736-3.686-1.935-5.015l0.006-0.006c-32.988-36.613-72.703-47.825-100.211-50.784
	c-9.524-1.025-18.235-1.164-25.713-0.875l96.821-79.735v48.602c0,17.142,8.112,33.616,21.699,44.067l85.438,65.722
	c1.363,1.048,2.971,1.556,4.567,1.556c2.249,0,4.473-1.007,5.95-2.928c2.525-3.283,1.911-7.992-1.372-10.518l-29.138-22.414V111.711
	c0-4.142-3.358-7.5-7.5-7.5s-7.5,3.358-7.5,7.5v144.474l-41.3-31.77c-9.921-7.632-15.845-19.661-15.845-32.178v-64.495
	c0-3.184-2.01-6.021-5.014-7.076L9.988,16.458c-3.583-1.26-7.542,0.36-9.218,3.771c-1.674,3.41-0.533,7.534,2.655,9.6
	C4.3,30.396,87.97,85.246,97.483,144.034l-2.664,0.307c-4.115,0.475-7.065,4.195-6.591,8.311c0.441,3.823,3.684,6.641,7.441,6.641
	c0.287,0,0.577-0.016,0.869-0.05l10.588-1.222c53.778,16.558,59.594,60.648,60.166,72.67l-4.236,3.489
	c-3.197,2.633-3.655,7.36-1.021,10.558c1.483,1.801,3.63,2.732,5.794,2.732c1.678,0,3.367-0.561,4.763-1.71l6.006-4.946
	c11.52-2.308,72.825-11.926,123.2,31.737h-93.893c-48.337,0-87.662,39.325-87.662,87.661v20.041
	c0,24.595-20.009,44.605-44.604,44.605s-44.605-20.01-44.605-44.605v-77.047c0-11.062-2.615-22.139-7.562-32.033l-9.262-18.524
	c-1.852-3.705-6.358-5.208-10.062-3.354c-3.705,1.853-5.207,6.357-3.354,10.062l9.262,18.524c3.911,7.822,5.979,16.58,5.979,25.325
	v81.055c0,43.917,35.729,79.645,79.646,79.645s79.645-35.729,79.645-79.645v-8.017c0-16.034,11.646-29.39,26.921-32.078
	c1.025,3.367,2.377,6.673,4.063,9.875l40.146,76.278l-22.137,12.65c-9.805,5.603-15.896,16.099-15.896,27.392v10.609H195.88
	c-4.142,0-7.5,3.358-7.5,7.5s3.358,7.5,7.5,7.5h24.048c1.876,0,3.684-0.703,5.067-1.97c3.01-2.758,8.051-6.046,14.974-6.046
	s11.964,3.288,14.974,6.046c1.44,1.319,3.255,1.97,5.065,1.97c2.029,0,4.053-0.819,5.532-2.433
	c2.798-3.054,2.591-7.798-0.463-10.597c-7.028-6.44-15.945-9.986-25.107-9.986c-5.749,0-11.399,1.401-16.548,4.032v-6.625
	c0-5.924,3.195-11.429,8.338-14.368l31.878-18.216c9.805-5.603,15.896-16.099,15.896-27.392v-53.721
	c4.929,2.219,9.548,5.136,13.647,8.649l20.089,17.219c12.974,11.121,29.529,17.245,46.616,17.245h16.874v81.193h-12.541
	c-4.142,0-7.5,3.358-7.5,7.5s3.358,7.5,7.5,7.5h24.048c1.876,0,3.684-0.703,5.067-1.971c3.01-2.758,8.051-6.045,14.974-6.045
	s11.963,3.288,14.973,6.045c1.439,1.319,3.255,1.971,5.065,1.971c2.029,0,4.052-0.819,5.531-2.433
	c2.799-3.054,2.592-7.798-0.462-10.596c-7.027-6.44-15.944-9.987-25.107-9.987c-5.749,0-11.399,1.401-16.548,4.032v-31.348
	c0-6.562,2.555-12.73,7.194-17.37l21.298-21.298c7.387-7.386,11.486-17.18,11.58-27.612l20.377-20.376
	c12.826-12.826,17.23-31.483,11.495-48.691l-27.179-81.539c-3.107-9.321-4.683-19.03-4.683-28.864
	c0-13.545,11.02-24.564,24.564-24.564h32.064c4.142,0,7.5-3.358,7.5-7.5s-3.358-7.5-7.5-7.5h-40.597v-0.516
	c0-4.705,3.828-8.532,8.532-8.532h48.097c4.142,0,7.5-3.358,7.5-7.5v-16.033C512.002,114.767,501.445,104.211,488.469,104.211z
	 M173.914,196.187c-5.935-13.204-16.973-29.407-37.384-41.559l72.238-8.335c4.115-0.475,7.065-4.195,6.591-8.311
	c-0.476-4.114-4.194-7.069-8.311-6.591l-94.664,10.923c-5.868-38.002-37.391-73.069-63.678-96.354l222.185,78.065l-31.787,3.668
	c-4.115,0.475-7.065,4.195-6.591,8.311c0.441,3.823,3.684,6.641,7.441,6.641c0.287,0,0.577-0.016,0.869-0.05l38.893-4.488
	l-98.703,81.285C179.873,212.882,177.774,204.776,173.914,196.187z M160.324,376.243v8.017c0,35.646-29,64.645-64.646,64.645
	c-13.58,0-26.196-4.209-36.61-11.391c5.262,1.525,10.823,2.343,16.57,2.343c32.866,0,59.604-26.739,59.604-59.605v-20.041
	c0-40.065,32.596-72.661,72.662-72.661h9.568c-3.649,3.441-6.875,7.411-9.562,11.862c-5.59,9.259-8.278,19.609-8.044,29.944
	C177.447,333.188,160.324,352.748,160.324,376.243z"/>
<path d="M455.969,119.727c0-4.142-3.358-7.5-7.5-7.5h-0.08c-4.142,0-7.46,3.358-7.46,7.5s3.398,7.5,7.54,7.5
	S455.969,123.869,455.969,119.727z"/>
<g>
</g>
<g>
</g>
<g>
</g>
<g>
</g>
<g>
</g>
<g>
</g>
<g>
</g>
<g>
</g>
<g>
</g>
<g>
</g>
<g>
</g>
<g>
</g>
<g>
</g>
<g>
</g>
<g>
</g>
</svg>
