<svg id="Capa_1" enable-background="new 0 0 497 497" height="512" viewBox="0 0 497 497" width="512" xmlns="http://www.w3.org/2000/svg"><g><path d="m484.78 228.5-142.9-73.38-25.516 6.361-8.634 27.789 24.54 59.23 70.095 21.32 94.635-21.32c0-7.91-4.08-15.82-12.22-20z" fill="#a6b6c4"/><path d="m189.27 189.27-29.035-3.961-5.115-30.189 73.38-142.9c4.18-8.14 12.09-12.22 20-12.22l29.161 94.635-29.161 70.095z" fill="#a6b6c4"/><path d="m164.73 248.5-70.095 21.32-94.635-21.32c0-7.91 4.08-15.82 12.22-20l142.9-73.38 34.15 34.15z" fill="#95a9ba"/><path d="m307.73 307.73h34.15v34.15l-73.38 142.9c-4.18 8.14-12.09 12.22-20 12.22l-25.37-99.443 25.37-65.287z" fill="#a6b6c4"/><path d="m231.119 376.998-7.989 20.559 25.37 99.443c7.91 0 15.82-4.08 20-12.22l39.554-77.028c-27.738-5.679-53.689-16.251-76.935-30.754z" fill="#95a9ba"/><path d="m248.5 332.27v164.73c-7.91 0-15.82-4.08-20-12.22l-73.38-142.9 9.61-28.744 24.54-5.406z" fill="#95a9ba"/><path d="m120.16 177.192c0-1.386.029-2.766.052-4.147l-107.992 55.455c-8.14 4.18-12.22 12.09-12.22 20l94.635 21.32 39.678-12.069c-9.155-25.131-14.153-52.26-14.153-80.559z" fill="#879caf"/><path d="m189.27 307.73-34.15 34.15-142.9-73.38c-8.14-4.18-12.22-12.09-12.22-20h164.73z" fill="#a6b6c4"/><path d="m332.27 248.5h164.73c0 7.91-4.08 15.82-12.22 20l-142.9 73.38-34.15-34.15z" fill="#95a9ba"/><path d="m248.5 164.73v-164.73c7.91 0 15.82 4.08 20 12.22l73.38 142.9-34.15 34.15z" fill="#95a9ba"/><path d="m307.73 189.27c-15.16-15.16-36.1-24.54-59.23-24.54s-44.07 9.38-59.23 24.54-24.54 36.1-24.54 59.23 9.38 44.07 24.54 59.23 36.1 24.54 59.23 24.54 44.07-9.38 59.23-24.54 24.54-36.1 24.54-59.23-9.38-44.07-24.54-59.23zm-59.23 101.95c-23.59 0-42.72-19.13-42.72-42.72s19.13-42.72 42.72-42.72 42.72 19.13 42.72 42.72-19.13 42.72-42.72 42.72z" fill="#ff748f"/><path d="m164.301 314.42-9.181 27.46 73.38 142.9c4.18 8.14 12.09 12.22 20 12.22v-110.141c-33.519-17.141-62.379-42.09-84.199-72.439z" fill="#879caf"/><path d="m131.17 248.5h-131.17c0 7.91 4.08 15.82 12.22 20l142.9 73.38 17.088-17.088c-18.073-22.416-32.119-48.21-41.038-76.292z" fill="#95a9ba"/></g></svg>