<svg id="Capa_1" enable-background="new 0 0 497 497" height="512" viewBox="0 0 497 497" width="512" xmlns="http://www.w3.org/2000/svg"><g><path d="m442.739 56.462h-388.478c-29.968 0-54.261 24.293-54.261 54.261v275.555c0 29.967 24.293 54.261 54.261 54.261h388.479c29.967 0 54.261-24.293 54.261-54.261v-275.555c-.001-29.968-24.294-54.261-54.262-54.261z" fill="#ffefe0"/><circle cx="248.5" cy="248.5" fill="#ff748f" r="116.781"/><g><path d="m189.067 257.336c-4.142 0-7.5-3.358-7.5-7.5v-11.42c0-4.142 3.358-7.5 7.5-7.5s7.5 3.358 7.5 7.5v11.42c0 4.142-3.358 7.5-7.5 7.5z" fill="#334151"/></g><g><path d="m307.933 257.336c-4.142 0-7.5-3.358-7.5-7.5v-11.42c0-4.142 3.358-7.5 7.5-7.5s7.5 3.358 7.5 7.5v11.42c0 4.142-3.358 7.5-7.5 7.5z" fill="#334151"/></g><g><path d="m248.5 264.134c-8.172 0-15.944-3.539-21.323-9.711-2.722-3.123-2.396-7.86.726-10.582 3.122-2.721 7.86-2.397 10.582.726 2.529 2.902 6.18 4.566 10.015 4.566 3.836 0 7.486-1.664 10.016-4.566 2.722-3.123 7.458-3.448 10.582-.726 3.123 2.722 3.448 7.459.726 10.582-5.379 6.172-13.151 9.711-21.324 9.711z" fill="#334151"/></g><path d="m67.096 202.536c0-53.202 8.422-103.085 27.382-146.074h-40.217c-29.968 0-54.261 24.293-54.261 54.261v275.555c0 29.967 24.293 54.261 54.261 54.261h115.43c-65.38-53.104-102.595-139.913-102.595-238.003z" fill="#fbe5c8"/><path d="m286.974 348.571c-67.934 0-123.006-55.071-123.006-123.005 0-30.654 11.216-58.687 29.764-80.225-36.892 19.627-62.013 58.457-62.013 103.159 0 64.496 52.285 116.781 116.781 116.781 23.9 0 46.119-7.185 64.626-19.505-8.429 1.825-17.176 2.795-26.152 2.795z" fill="#fd5f7e"/></g></svg>