<svg height="512pt" viewBox="-6 0 512 512" width="512pt" xmlns="http://www.w3.org/2000/svg"><path d="m209.753906 404.117188h81.15625c6.949219-13.296876 20.875-22.375 36.921875-22.375 22.992188 0 41.632813 18.640624 41.632813 41.632812 0 10.617188-3.972656 20.304688-10.511719 27.65625 34.160156 35.695312 73.835937 57.351562 100.269531 49.1875 46.621094-14.398438 34.40625-94.363281 8.296875-178.898438-26.113281-84.535156-74.671875-127.738281-121.289062-113.34375-20.988281 6.484376-61.421875 12.539063-76.714844 12.539063h-38.371094c-15.292969 0-55.726562-6.054687-76.714843-12.539063-46.617188-14.394531-95.175782 28.808594-121.285157 113.34375-26.113281 84.535157-38.324219 164.5 8.292969 178.898438 26.433594 8.164062 66.109375-13.492188 100.269531-49.1875" fill="#52607e"/><path d="m369.464844 423.375c0 22.996094-18.640625 41.636719-41.632813 41.636719-22.996093 0-41.636719-18.640625-41.636719-41.636719 0-22.992188 18.640626-41.632812 41.636719-41.632812 22.992188 0 41.632813 18.640624 41.632813 41.632812zm0 0" fill="#ede6f5"/><path d="m333.117188 433.375h-10.574219c-5.519531 0-9.996094-4.476562-9.996094-9.996094 0-5.523437 4.476563-10 9.996094-10h10.574219c5.523437 0 10 4.476563 10 10 0 5.519532-4.476563 9.996094-10 9.996094zm0 0"/><path d="m214.464844 423.375c0 22.996094-18.640625 41.636719-41.632813 41.636719-22.996093 0-41.636719-18.640625-41.636719-41.636719 0-22.992188 18.640626-41.632812 41.636719-41.632812 22.992188 0 41.632813 18.640624 41.632813 41.632812zm0 0" fill="#ede6f5"/><path d="m178.117188 433.375h-10.570313c-5.523437 0-10-4.476562-10-9.996094 0-5.523437 4.476563-10 10-10h10.570313c5.523437 0 10 4.476563 10 10 0 5.519532-4.476563 9.996094-10 9.996094zm0 0"/><path d="m96.667969 88.28125h-36.867188c-24.34375 0-44.144531-19.804688-44.144531-44.144531 0-24.335938 19.796875-44.136719 44.136719-44.136719h305.101562c5.523438 0 10 4.476562 10 10 0 5.519531-4.476562 9.996094-10 9.996094h-305.101562c-13.3125 0-24.140625 10.832031-24.140625 24.140625 0 13.3125 10.832031 24.144531 24.148437 24.144531h36.867188c5.523437 0 10 4.476562 10 10s-4.476563 10-10 10zm0 0"/><path d="m138.464844 88.277344c-.648438 0-1.308594-.058594-1.949219-.1875s-1.269531-.320313-1.871094-.570313c-.609375-.25-1.1875-.558593-1.730469-.921875-.546874-.367187-1.058593-.789062-1.519531-1.25-.460937-.457031-.878906-.96875-1.238281-1.519531-.359375-.539063-.671875-1.117187-.921875-1.71875-.25-.609375-.449219-1.238281-.570313-1.878906-.128906-.640625-.199218-1.300781-.199218-1.949219 0-.652344.070312-1.3125.199218-1.949219.121094-.640625.320313-1.269531.570313-1.871093.25-.609376.558594-1.191407.921875-1.730469.359375-.550781.777344-1.058594 1.238281-1.519531.460938-.460938.972657-.878907 1.519531-1.238282.542969-.359375 1.121094-.671875 1.730469-.921875.601563-.25 1.230469-.449219 1.871094-.570312 1.289063-.257813 2.617187-.257813 3.898437 0 .640626.121093 1.269532.320312 1.878907.570312.601562.25 1.179687.5625 1.722656.921875.546875.359375 1.058594.777344 1.519531 1.238282.457032.460937.878906.96875 1.238282 1.519531.359374.539062.671874 1.121093.921874 1.730469.25.601562.449219 1.230468.566407 1.871093.132812.636719.203125 1.296875.203125 1.949219 0 .648438-.070313 1.308594-.203125 1.949219-.117188.640625-.316407 1.269531-.566407 1.878906-.25.601563-.5625 1.179687-.921874 1.71875-.359376.550781-.78125 1.0625-1.238282 1.519531-.460937.460938-.972656.882813-1.519531 1.25-.542969.363282-1.121094.671875-1.722656.921875-.609375.25-1.238281.441407-1.878907.570313-.640624.128906-1.300781.1875-1.949218.1875zm0 0"/><path d="m285.023438 217.464844v-22.917969c0-9.574219-7.757813-17.332031-17.328126-17.332031h-34.726562c-9.570312 0-17.332031 7.757812-17.332031 17.332031v22.917969" fill="#00d2d7"/><path d="m344.152344 303.214844c0 13.164062-10.671875 23.835937-23.835938 23.835937-13.164062 0-23.832031-10.671875-23.832031-23.835937 0-13.164063 10.667969-23.832032 23.832031-23.832032 13.164063 0 23.835938 10.667969 23.835938 23.832032zm0 0" fill="#ffea6e"/><path d="m412.554688 302.394531c0 13.164063-10.671876 23.835938-23.832032 23.835938-13.164062 0-23.835937-10.671875-23.835937-23.835938 0-13.164062 10.671875-23.832031 23.835937-23.832031 13.160156 0 23.832032 10.667969 23.832032 23.832031zm0 0" fill="#f05f90"/><path d="m378.765625 268.605469c0 13.164062-10.671875 23.832031-23.835937 23.832031-13.164063 0-23.832032-10.667969-23.832032-23.832031 0-13.164063 10.667969-23.835938 23.832032-23.835938 13.164062 0 23.835937 10.671875 23.835937 23.835938zm0 0" fill="#ede6f5"/><path d="m377.941406 337.007812c0 13.160157-10.667968 23.832032-23.832031 23.832032s-23.835937-10.671875-23.835937-23.832032c0-13.164062 10.671874-23.835937 23.835937-23.835937s23.832031 10.671875 23.832031 23.835937zm0 0" fill="#00d2d7"/><path d="m500.644531 436.917969c-.453125-29.886719-8.164062-68.664063-23.574219-118.550781-13.222656-42.804688-32.492187-76.753907-55.730468-98.171876-24.042969-22.160156-51.765625-29.890624-78.058594-21.769531-12.15625 3.753907-31.617188 7.457031-48.257812 9.753907v-13.636719c0-15.070313-12.257813-27.328125-27.328126-27.328125h-7.28125c2.898438-8.273438 10.789063-14.222656 20.042969-14.222656h80.449219c23.359375 0 42.367188-19 42.367188-42.355469s-19.007813-42.355469-42.367188-42.355469h-183.628906c-5.523438 0-10 4.476562-10 10 0 5.519531 4.476562 9.996094 10 9.996094h183.628906c12.332031 0 22.367188 10.03125 22.367188 22.359375s-10.035157 22.355469-22.367188 22.355469h-80.449219c-20.347656 0-37.300781 14.816406-40.632812 34.222656h-6.855469c-15.070312 0-27.328125 12.261718-27.328125 27.328125v13.636719c-16.640625-2.296876-36.101563-6-48.257813-9.753907-26.292968-8.121093-54.015624-.390625-78.0625 21.769531-23.234374 21.417969-42.507812 55.367188-55.730468 98.171876-15.40625 49.886718-23.117188 88.664062-23.5703128 118.550781-.6093752 40.269531 12.3359378 64.78125 38.4687498 72.855469 4.839844 1.492187 9.984375 2.226562 15.390625 2.226562 25.792969-.003906 57.359375-16.71875 88.234375-47.144531 8.589844 6.378906 19.222657 10.15625 30.71875 10.15625 28.472657 0 51.636719-23.164063 51.636719-51.632813 0-3.160156-.289062-6.257812-.832031-9.261718h53.394531c-.546875 3.003906-.832031 6.101562-.832031 9.261718 0 28.46875 23.160156 51.632813 51.632812 51.632813 11.496094 0 22.128907-3.777344 30.71875-10.15625 30.878907 30.429687 62.441407 47.144531 88.234375 47.144531 5.402344 0 10.554688-.734375 15.390625-2.226562 26.132813-8.074219 39.074219-32.585938 38.46875-72.855469zm-275.007812-242.371094c0-4.042969 3.289062-7.332031 7.332031-7.332031h34.722656c4.042969 0 7.335938 3.289062 7.335938 7.332031v15.773437c-2.078125.128907-47.3125.128907-49.390625 0zm-52.804688 260.464844c-17.445312 0-31.636719-14.191407-31.636719-31.636719 0-17.441406 14.191407-31.632812 31.636719-31.632812 17.445313 0 31.636719 14.191406 31.636719 31.632812 0 17.445312-14.191406 31.636719-31.636719 31.636719zm123.359375-31.632813c0-17.445312 14.195313-31.636718 31.640625-31.636718 17.441407 0 31.636719 14.191406 31.636719 31.636718 0 17.441406-14.195312 31.632813-31.636719 31.632813-17.445312 0-31.640625-14.191407-31.640625-31.632813zm160.082032 67.285156c-20.292969 6.265626-52.90625-9.589843-84.246094-40.613281 4.71875-7.789062 7.4375-16.917969 7.4375-26.671875 0-28.472656-23.164063-51.632812-51.632813-51.632812-17.617187 0-33.203125 8.867187-42.523437 22.371094h-69.953125c-9.324219-13.503907-24.90625-22.371094-42.523438-22.371094-28.472656 0-51.636719 23.160156-51.636719 51.632812 0 9.753906 2.71875 18.882813 7.4375 26.671875-31.339843 31.027344-63.957031 46.882813-84.246093 40.613281-6.199219-1.914062-25.066407-7.742187-24.371094-53.441406.421875-27.960937 7.84375-64.910156 22.683594-112.953125 12.179687-39.4375 29.53125-70.339843 50.175781-89.367187 13.148438-12.121094 33.992188-24.972656 58.605469-17.367188 21.648437 6.683594 63.234375 12.980469 79.664062 12.980469h38.371094c16.433594 0 58.015625-6.296875 79.664063-12.980469 24.613281-7.605468 45.457031 5.246094 58.609374 17.367188 20.644532 19.027344 37.992188 49.929687 50.175782 89.367187 14.839844 48.042969 22.257812 84.992188 22.679687 112.953125.695313 45.699219-18.171875 51.527344-24.371093 53.441406zm0 0"/><path d="m388.761719 268.5625c-.023438-18.636719-15.191407-33.789062-33.832031-33.789062-18.65625 0-33.832032 15.175781-33.832032 33.832031 0 .261719 0 .523437.007813.785156-.261719-.003906-.527344-.007813-.789063-.007813-18.65625 0-33.832031 15.175782-33.832031 33.832032 0 18.640625 15.15625 33.808594 33.789063 33.832031.023437 18.632813 15.191406 33.789063 33.835937 33.789063 18.65625 0 33.832031-15.175782 33.832031-33.832032 0-.261718-.003906-.527344-.007812-.789062.261718.007812.523437.011718.789062.011718 18.652344 0 33.832032-15.179687 33.832032-33.832031 0-18.640625-15.15625-33.808593-33.792969-33.832031zm-33.832031-13.792969c7.628906 0 13.835937 6.207031 13.835937 13.835938 0 7.628906-6.207031 13.832031-13.835937 13.832031-7.628907 0-13.835938-6.203125-13.835938-13.832031 0-7.628907 6.207031-13.835938 13.835938-13.835938zm-48.449219 48.445313c0-7.628906 6.207031-13.832032 13.835937-13.832032s13.835938 6.203126 13.835938 13.832032-6.207032 13.835937-13.835938 13.835937-13.835937-6.207031-13.835937-13.835937zm47.628906 47.625c-7.628906 0-13.835937-6.207032-13.835937-13.832032 0-7.628906 6.207031-13.835937 13.835937-13.835937s13.835937 6.207031 13.835937 13.835937c0 7.625-6.207031 13.832032-13.835937 13.832032zm34.613281-34.609375c-7.632812 0-13.835937-6.207031-13.835937-13.835938 0-7.625 6.203125-13.832031 13.835937-13.832031 7.628906 0 13.832032 6.207031 13.832032 13.832031 0 7.628907-6.203126 13.835938-13.832032 13.835938zm0 0"/><path d="m190.144531 282.347656h-30.179687v-30.167968h-41.679688v30.167968h-30.179687v41.667969h30.179687v30.167969h41.679688v-30.167969h30.179687zm0 0" fill="#7ccafd"/><path d="m159.964844 364.183594h-41.679688c-5.519531 0-9.996094-4.476563-9.996094-10v-20.171875h-20.183593c-5.519531 0-9.996094-4.476563-9.996094-9.996094v-41.667969c0-5.523437 4.476563-10 9.996094-10h20.183593v-20.167968c0-5.523438 4.476563-10 9.996094-10h41.679688c5.523437 0 10 4.476562 10 10v20.167968h20.179687c5.523438 0 10 4.476563 10 10v41.667969c0 5.519531-4.476562 9.996094-10 9.996094h-20.179687v20.171875c-.003906 5.523437-4.480469 10-10 10zm-31.679688-19.996094h21.679688v-20.171875c0-5.523437 4.476562-10 10-10h20.179687v-21.667969h-20.179687c-5.523438 0-10-4.476562-10-10v-20.171875h-21.679688v20.171875c0 5.523438-4.476562 10-10 10h-20.179687v21.667969h20.179687c5.523438 0 10 4.476563 10 10zm0 0"/></svg>