<svg height="512pt" viewBox="0 -36 512 512" width="512pt" xmlns="http://www.w3.org/2000/svg"><path d="m106.546875 88.230469h-36.84375c-24.324219 0-44.117187-19.792969-44.117187-44.121094 0-24.320313 19.785156-44.109375 44.109374-44.109375h304.867188c5.523438 0 10 4.476562 10 10s-4.476562 10-10 10h-304.867188c-13.292968 0-24.109374 10.816406-24.109374 24.109375 0 13.300781 10.820312 24.121094 24.121093 24.121094h36.839844c5.523437 0 10 4.480469 10 10 0 5.523437-4.480469 10-10 10zm0 0"/><path d="m148.308594 88.230469c-.648438 0-1.308594-.070313-1.949219-.199219-.640625-.121094-1.269531-.320312-1.871094-.570312-.609375-.25-1.1875-.558594-1.726562-.921876-.550781-.355468-1.0625-.777343-1.523438-1.238281-1.859375-1.859375-2.929687-4.4375-2.929687-7.070312 0-.648438.070312-1.308594.203125-1.949219.117187-.640625.316406-1.269531.566406-1.871094.25-.609375.550781-1.1875.910156-1.726562.371094-.550782.792969-1.0625 1.25-1.523438.460938-.457031.972657-.878906 1.523438-1.238281.539062-.359375 1.117187-.667969 1.726562-.917969.601563-.25 1.230469-.441406 1.871094-.570312 1.289063-.261719 2.621094-.261719 3.910156 0 .628907.128906 1.261719.320312 1.871094.570312.597656.25 1.179687.558594 1.71875.917969.550781.359375 1.0625.78125 1.519531 1.238281.460938.460938.882813.972656 1.242188 1.523438.367187.539062.667968 1.117187.917968 1.726562.25.601563.449219 1.230469.582032 1.871094.128906.640625.1875 1.300781.1875 1.949219 0 2.632812-1.070313 5.210937-2.929688 7.070312-.457031.460938-.96875.882813-1.519531 1.238281-.539063.363282-1.121094.671876-1.730469.921876-.597656.25-1.230468.449218-1.867187.570312-.640625.128906-1.300781.199219-1.953125.199219zm0 0"/><path d="m226.5 176.113281h59v38.695313h-59zm0 0" fill="#00d2d7"/><path d="m10 249.402344v146.964844c0 19.105468 15.488281 34.597656 34.597656 34.597656h422.804688c19.109375 0 34.597656-15.492188 34.597656-34.597656v-146.964844c0-19.105469-15.488281-34.59375-34.597656-34.59375h-422.804688c-19.109375-.003906-34.597656 15.488281-34.597656 34.59375zm0 0" fill="#52607e"/><path d="m467.402344 204.804688h-171.902344v-28.691407c0-5.523437-4.476562-10-10-10h-14.953125c3.160156-7.746093 10.773437-13.21875 19.644531-13.21875h80.386719c23.347656 0 42.34375-18.988281 42.34375-42.332031 0-23.339844-18.996094-42.332031-42.34375-42.332031h-183.488281c-5.523438 0-10 4.480469-10 10 0 5.523437 4.476562 10 10 10h183.488281c12.320313 0 22.34375 10.019531 22.34375 22.332031 0 12.316406-10.023437 22.332031-22.34375 22.332031h-80.386719c-19.992187 0-36.703125 14.308594-40.425781 33.21875h-23.265625c-5.523438 0-10 4.476563-10 10v28.691407h-171.902344c-24.589844 0-44.597656 20.007812-44.597656 44.597656v146.964844c0 24.589843 20.007812 44.597656 44.597656 44.597656h422.804688c24.589844 0 44.597656-20.007813 44.597656-44.597656v-146.964844c0-24.589844-20.007812-44.597656-44.597656-44.597656zm-230.902344-18.691407h39v18.691407h-39zm255.5 210.253907c0 13.5625-11.035156 24.597656-24.597656 24.597656h-422.804688c-13.5625-.003906-24.597656-11.035156-24.597656-24.597656v-146.964844c0-13.5625 11.035156-24.597656 24.597656-24.597656h422.804688c13.566406 0 24.597656 11.035156 24.597656 24.597656zm0 0"/><path d="m314.0625 254.804688h147.9375v136.160156h-147.9375zm0 0" fill="#ede6f5"/><path d="m462 400.964844h-147.9375c-5.523438 0-10-4.480469-10-10v-136.160156c0-5.519532 4.476562-10 10-10h147.9375c5.523438 0 10 4.480468 10 10v136.160156c0 5.519531-4.476562 10-10 10zm-137.9375-20h127.9375v-116.160156h-127.9375zm0 0"/><path d="m50 254.804688h147.9375v136.160156h-147.9375zm0 0" fill="#ede6f5"/><path d="m197.9375 400.964844h-147.9375c-5.523438 0-10-4.480469-10-10v-136.160156c0-5.519532 4.476562-10 10-10h147.9375c5.523438 0 10 4.480468 10 10v136.160156c0 5.519531-4.476562 10-10 10zm-137.9375-20h127.9375v-116.160156h-127.9375zm0 0"/><path d="m161.960938 307.363281h-22.472657v-22.472656h-31.039062v22.472656h-22.472657v31.039063h22.472657v22.476562h31.039062v-22.476562h22.472657zm0 0" fill="#f05f90"/><path d="m139.488281 370.878906h-31.039062c-5.523438 0-10-4.480468-10-10v-12.476562h-12.472657c-5.523437 0-10-4.476563-10-10v-31.035156c0-5.523438 4.476563-10 10-10h12.472657v-12.476563c0-5.523437 4.476562-10 10-10h31.039062c5.523438 0 10 4.476563 10 10v12.476563h12.472657c5.523437 0 10 4.476562 10 10v31.035156c0 5.523437-4.476563 10-10 10h-12.472657v12.476562c0 5.519532-4.476562 10-10 10zm-21.039062-20h11.039062v-12.476562c0-5.519532 4.476563-10 10-10h12.472657v-11.035156h-12.472657c-5.523437 0-10-4.480469-10-10v-12.476563h-11.039062v12.476563c0 5.519531-4.476563 10-10 10h-12.472657v11.035156h12.472657c5.523437 0 10 4.480468 10 10zm0 0"/><path d="m417.507812 343.523438c-2.558593 0-5.117187-.976563-7.070312-2.925782-3.90625-3.90625-3.90625-10.238281 0-14.144531l3.464844-3.464844-3.464844-3.464843c-3.902344-3.90625-3.90625-10.238282 0-14.144532 3.90625-3.902344 10.238281-3.902344 14.144531 0l10.535157 10.535156c1.875 1.875 2.929687 4.421876 2.929687 7.070313 0 2.652344-1.054687 5.195313-2.929687 7.074219l-10.535157 10.535156c-1.953125 1.953125-4.515625 2.929688-7.074219 2.929688zm0 0"/><path d="m358.550781 343.316406c-2.558593 0-5.117187-.976562-7.070312-2.929687l-10.535157-10.535157c-3.90625-3.90625-3.90625-10.238281 0-14.140624l10.535157-10.539063c3.90625-3.902344 10.238281-3.902344 14.140625 0 3.90625 3.90625 3.90625 10.238281 0 14.144531l-3.464844 3.464844 3.464844 3.464844c3.90625 3.90625 3.90625 10.238281 0 14.144531-1.949219 1.949219-4.511719 2.925781-7.070313 2.925781zm0 0"/><path d="m387.925781 372.898438c-2.652343 0-5.195312-1.050782-7.070312-2.929688l-10.535157-10.535156c-3.90625-3.90625-3.90625-10.238282 0-14.144532 3.90625-3.902343 10.238282-3.902343 14.140626.003907l3.464843 3.464843 3.464844-3.46875c3.90625-3.902343 10.238281-3.902343 14.144531 0 3.902344 3.90625 3.90625 10.238282 0 14.144532l-10.539062 10.539062c-1.875 1.875-4.417969 2.925782-7.070313 2.925782zm0 0"/><path d="m398.671875 303.40625c-2.558594 0-5.117187-.976562-7.070313-2.929688l-3.46875-3.464843-3.464843 3.464843c-3.902344 3.90625-10.234375 3.90625-14.140625 0s-3.90625-10.238281 0-14.140624l10.535156-10.539063c3.90625-3.902344 10.238281-3.902344 14.140625 0l10.539063 10.539063c3.90625 3.902343 3.90625 10.234374 0 14.140624-1.953126 1.953126-4.511719 2.929688-7.070313 2.929688zm0 0"/><path d="m276.65625 287.675781c0 11.964844-9.699219 21.667969-21.667969 21.667969-11.964843 0-21.667969-9.703125-21.667969-21.667969 0-11.964843 9.703126-21.667969 21.667969-21.667969 11.96875 0 21.667969 9.703126 21.667969 21.667969zm0 0" fill="#f05f90"/><path d="m254.988281 319.34375c-17.460937 0-31.667969-14.207031-31.667969-31.667969 0-17.460937 14.207032-31.667969 31.667969-31.667969 17.460938 0 31.667969 14.207032 31.667969 31.667969 0 17.460938-14.207031 31.667969-31.667969 31.667969zm0-43.335938c-6.433593 0-11.667969 5.234376-11.667969 11.667969 0 6.433594 5.234376 11.667969 11.667969 11.667969 6.433594 0 11.667969-5.234375 11.667969-11.667969 0-6.433593-5.234375-11.667969-11.667969-11.667969zm0 0"/><path d="m276.65625 359.886719c0 11.964843-9.699219 21.667969-21.667969 21.667969-11.964843 0-21.667969-9.703126-21.667969-21.667969 0-11.96875 9.703126-21.667969 21.667969-21.667969 11.96875 0 21.667969 9.699219 21.667969 21.667969zm0 0" fill="#00d2d7"/><path d="m254.988281 391.554688c-17.460937 0-31.667969-14.207032-31.667969-31.667969 0-17.460938 14.207032-31.667969 31.667969-31.667969 17.460938 0 31.667969 14.207031 31.667969 31.667969 0 17.460937-14.207031 31.667969-31.667969 31.667969zm0-43.335938c-6.433593 0-11.667969 5.234375-11.667969 11.667969 0 6.433593 5.234376 11.667969 11.667969 11.667969 6.433594 0 11.667969-5.234376 11.667969-11.667969 0-6.433594-5.234375-11.667969-11.667969-11.667969zm0 0"/></svg>