<?xml version="1.0" encoding="iso-8859-1"?>
<!-- Generator: Adobe Illustrator 19.0.0, SVG Export Plug-In . SVG Version: 6.00 Build 0)  -->
<svg version="1.1" id="Capa_1" xmlns="http://www.w3.org/2000/svg" xmlns:xlink="http://www.w3.org/1999/xlink" x="0px" y="0px"
	 viewBox="0 0 512 512" style="enable-background:new 0 0 512 512;" xml:space="preserve">
<g>
	<path style="fill:#FFE17D;" d="M312.112,167.823H198.217c-37.632,0-68.137,30.506-68.137,68.137s30.505,68.137,68.137,68.137
		h57.782c22.136,0,40.081,17.945,40.081,40.081s-17.944,40.081-40.081,40.081H127.741c-44.272,0-80.161,35.889-80.161,80.161v40.08
		c17.709,0,32.065-14.356,32.065-32.065v-8.016c0-26.563,21.534-48.097,48.097-48.097h132.266c42.058,0,76.153-34.095,76.153-76.153
		s-34.095-76.153-76.153-76.153h-57.782c-13.283,0-24.048-10.767-24.048-24.048s10.766-24.048,24.048-24.048h76.048
		c4.401,4.886,10.713,8.016,17.807,8.016h16.032v-16.032c0-4.427,3.589-8.016,8.016-8.016h32.065c4.427,0,8.016-3.589,8.016-8.016
		v-72.145C360.209,146.289,338.675,167.823,312.112,167.823z"/>
	<path style="fill:#FFE17D;" d="M416.322,264.016h-144.29v48.097h110.451c4.401,4.886,10.713,8.016,17.807,8.016h16.032v-16.032
		c0-4.427,3.589-8.016,8.016-8.016h32.065c4.427,0,8.016-3.589,8.016-8.016V215.92C464.419,242.483,442.885,264.016,416.322,264.016
		z"/>
	<path style="fill:#FFE17D;" d="M207.902,71.629h-89.851c-36.292,0-67.98,27.386-70.325,63.601
		c-2.57,39.684,28.858,72.673,67.99,72.673h92.185v-40.081h-86.817c-13.021,0-24.694-9.751-25.374-22.755
		c-0.727-13.869,10.304-25.342,24.014-25.342h54.338c4.401,4.886,10.713,8.016,17.807,8.016h16.032V111.71
		c0-4.427,3.589-8.016,8.016-8.016h32.065c4.427,0,8.016-3.589,8.016-8.016V23.532C255.999,50.096,234.466,71.629,207.902,71.629z"
		/>
</g>
<rect x="207.899" y="167.82" style="fill:#FF8087;" width="32.06" height="48.1"/>
<rect x="207.899" y="167.82" style="fill:#E6646E;" width="32.06" height="24.05"/>
<path d="M465.026,197.904l-3.32-3.32c-2.93-2.93-7.678-2.929-10.607,0s-2.929,7.677,0,10.607l3.321,3.32
	c1.611,1.611,2.499,3.754,2.499,6.033v1.375c0,21.419-16.677,39.005-37.728,40.484c2.935-4.79,4.631-10.418,4.631-16.436
	c0-4.142-3.358-7.5-7.5-7.5s-7.5,3.358-7.5,7.5c0,9.125-7.423,16.548-16.548,16.548h-190.05c-9.125,0-16.548-7.423-16.548-16.548
	s7.423-16.548,16.548-16.548h72.873c5.58,4.981,12.932,8.016,20.983,8.016h48.097c0.285,0,0.516,0.231,0.516,0.516
	c0,4.142,3.358,7.5,7.5,7.5s7.5-3.358,7.5-7.5c0-8.556-6.96-15.516-15.516-15.516h-24.564v-8.532c0-0.285,0.231-0.516,0.516-0.516
	h32.064c8.556,0,15.516-6.96,15.516-15.516V118.35c0-6.286-2.448-12.195-6.893-16.641l-3.321-3.32
	c-2.929-2.929-7.678-2.928-10.606,0.001s-2.928,7.678,0.001,10.606l3.32,3.32c1.612,1.612,2.499,3.754,2.499,6.034v1.375
	c0,21.42-16.677,39.006-37.728,40.484c2.935-4.79,4.631-10.418,4.631-16.436c0-4.143-3.358-7.5-7.5-7.5s-7.5,3.357-7.5,7.5
	c0,9.125-7.423,16.548-16.548,16.548H119.725c-9.125,0-16.548-7.423-16.548-16.548s7.423-16.549,16.548-16.549h51.163
	c5.58,4.981,12.932,8.017,20.983,8.017h48.097c0.285,0,0.516,0.231,0.516,0.516c0,4.143,3.358,7.5,7.5,7.5s7.5-3.357,7.5-7.5
	c0-8.556-6.96-15.516-15.516-15.516h-24.564v-8.532c0-0.285,0.231-0.517,0.516-0.517h32.064c8.556,0,15.516-6.96,15.516-15.516
	V22.157c0-6.286-2.448-12.196-6.893-16.64l-3.32-3.32c-2.929-2.929-7.678-2.929-10.606,0c-2.929,2.929-2.929,7.677,0,10.606
	l3.32,3.321c1.611,1.611,2.499,3.754,2.499,6.033v1.375c0,21.42-16.678,39.006-37.728,40.484c2.936-4.79,4.631-10.418,4.631-16.436
	c0-4.142-3.358-7.5-7.5-7.5s-7.5,3.358-7.5,7.5c0,9.125-7.423,16.548-16.548,16.548h-68.137c-41.707,0-75.637,33.931-75.637,75.637
	c0,36.717,26.198,68.033,62.293,74.462c0.445,0.08,0.887,0.118,1.324,0.118c3.565,0,6.728-2.553,7.375-6.186
	c0.727-4.078-1.991-7.973-6.068-8.699c-28.928-5.152-49.924-30.258-49.924-59.695c0-33.435,27.202-60.637,60.637-60.637h4.524
	v33.097h-0.516c-17.396,0-31.548,14.153-31.548,31.549s14.152,31.548,31.548,31.548h33.33
	c-18.485,13.803-30.476,35.846-30.476,60.638c0,41.706,33.931,75.637,75.637,75.637h57.782c17.965,0,32.581,14.616,32.581,32.581
	s-14.616,32.58-32.581,32.58h-8.017c-4.142,0-7.5,3.358-7.5,7.5c0,4.143,3.358,7.5,7.5,7.5h8.017
	c26.236,0,47.581-21.344,47.581-47.58c0-26.236-21.345-47.581-47.581-47.581h-57.783c-33.435,0-60.637-27.202-60.637-60.637
	c0-33.436,27.202-60.638,60.637-60.638h2.187v33.154c-16.551,0.947-29.727,14.708-29.727,31.492
	c0,17.396,14.152,31.548,31.548,31.548h57.783c37.855,0,68.653,30.798,68.653,68.653s-30.797,68.653-68.653,68.653H127.741
	c-30.656,0-55.597,24.941-55.597,55.597v8.016c0,10.931-7.176,20.217-17.064,23.394v-31.41c0-40.066,32.596-72.662,72.661-72.662
	h88.178c4.142,0,7.5-3.357,7.5-7.5c0-4.142-3.358-7.5-7.5-7.5h-88.178c-48.336,0-87.661,39.325-87.661,87.662V504.5
	c0,4.142,3.358,7.5,7.5,7.5c21.816,0,39.564-17.749,39.564-39.564v-8.016c0-22.385,18.211-40.597,40.597-40.597h132.267
	c46.126,0,83.653-37.526,83.653-83.653c0-7.091-0.894-13.976-2.563-20.556h38.209c5.58,4.98,12.932,8.016,20.983,8.016h48.097
	c0.285,0,0.516,0.231,0.516,0.516c0,4.142,3.358,7.5,7.5,7.5s7.5-3.358,7.5-7.5c0-8.556-6.96-15.516-15.516-15.516h-24.564v-8.532
	c0-0.285,0.231-0.516,0.516-0.516h32.064c8.556,0,15.516-6.96,15.516-15.516v-73.521
	C471.918,208.258,469.471,202.349,465.026,197.904z M135.241,79.129h57.146v0.517c0,4.142,3.358,7.5,7.5,7.5s7.5-3.358,7.5-7.5
	v-0.517h0.516c16.005,0,30.443-6.807,40.597-17.668v34.217c0,0.284-0.231,0.516-0.516,0.516H215.92
	c-8.556,0-15.516,6.961-15.516,15.517v8.532h-8.532c-9.125,0-16.548-7.424-16.548-16.549c0-4.142-3.358-7.5-7.5-7.5
	s-7.5,3.358-7.5,7.5c0,2.957,0.418,5.816,1.182,8.532h-26.263V79.129H135.241z M247.467,175.322h49.129v0.517
	c0,4.142,3.358,7.5,7.5,7.5s7.5-3.358,7.5-7.5v-0.517h0.516c16.005,0,30.443-6.807,40.597-17.668v34.217
	c0,0.285-0.231,0.516-0.516,0.516h-32.064c-8.556,0-15.516,6.96-15.516,15.516v8.532h-8.532c-9.125,0-16.548-7.424-16.548-16.548
	c0-4.142-3.358-7.5-7.5-7.5s-7.5,3.358-7.5,7.5c0,2.957,0.418,5.816,1.182,8.532h-18.246v-33.097H247.467z M215.402,175.322h17.064
	v33.097h-17.064V175.322z M336.676,304.613h-0.97c-6.288-13.333-15.995-24.739-27.985-33.097h28.955L336.676,304.613
	L336.676,304.613z M456.918,288.065c0,0.285-0.231,0.516-0.516,0.516h-32.064c-8.556,0-15.516,6.96-15.516,15.516v8.532h-8.532
	c-9.125,0-16.549-7.424-16.549-16.548c0-4.142-3.358-7.5-7.5-7.5s-7.5,3.358-7.5,7.5c0,2.957,0.418,5.816,1.182,8.533h-18.247
	v-33.097h49.129v0.516c0,4.142,3.358,7.5,7.5,7.5s7.5-3.358,7.5-7.5v-0.516h0.516c16.005,0,30.443-6.808,40.597-17.668V288.065z"/>
<g>
</g>
<g>
</g>
<g>
</g>
<g>
</g>
<g>
</g>
<g>
</g>
<g>
</g>
<g>
</g>
<g>
</g>
<g>
</g>
<g>
</g>
<g>
</g>
<g>
</g>
<g>
</g>
<g>
</g>
</svg>
