<svg id="Capa_1" enable-background="new 0 0 511.998 511.998" height="512" viewBox="0 0 511.998 511.998" width="512" xmlns="http://www.w3.org/2000/svg"><g><g><path d="m465.522 322.168c0-11.19-4.46-21.91-12.41-29.801l-83.622-85.852-53.221-54.641-31.441-32.291c-15.572-16.003-42.091-16.001-57.692-.03l-84.762 86.832-84.022 86.082c-7.62 7.84-11.88 18.33-11.88 29.261v151.351h35.869c10.175 0 20.349-3.08 29.055-9.239 17.411-12.319 40.698-12.319 58.109 0s40.698 12.319 58.109 0 40.698-12.319 58.109 0 40.698 12.319 58.109 0 40.698-12.319 58.109 0c8.706 6.159 18.88 9.239 29.054 9.239h34.526v-62.936-87.975z" fill="#a0e4a5"/></g><g><path d="m465.522 353.779v57.042s-24.351 0-34.531 0c-10.17 0-20.34-3.08-29.051-9.24-17.41-12.31-40.701-12.31-58.111 0-17.411 12.32-40.691 12.32-58.102 0-17.42-12.31-40.701-12.31-58.111 0-17.41 12.32-40.701 12.32-58.111 0-17.41-12.31-40.701-12.31-58.111 0-8.7 6.16-18.88 9.24-29.051 9.24-10.18 0-35.871 0-35.871 0v-57.042h35.871c10.17 0 20.351-3.08 29.051-9.24 17.41-12.31 40.701-12.31 58.111 0 17.41 12.32 40.701 12.32 58.111 0 17.41-12.31 40.691-12.31 58.111 0 17.41 12.32 40.691 12.32 58.102 0 17.41-12.31 40.701-12.31 58.111 0 8.71 6.16 18.881 9.24 29.051 9.24z" fill="#fff"/></g><g><ellipse cx="34.613" cy="230.668" fill="#fff" rx="24.608" ry="24.609" transform="matrix(.517 -.856 .856 .517 -180.685 140.931)"/></g><g><ellipse cx="477.386" cy="230.668" fill="#fff" rx="24.609" ry="24.608" transform="matrix(.856 -.517 .517 .856 -50.48 280.296)"/></g><g><path d="m511.259 223.571c-3.867-18.46-22.467-30.653-40.97-26.776-3.692.774-7.166 2.124-10.335 3.967l-35.283-35.283 10.009-10.009c3.905-3.905 3.905-10.237 0-14.142-3.906-3.905-10.236-3.905-14.143 0l-10.008 10.008-39.791-39.791 10.009-10.009c3.905-3.905 3.905-10.237 0-14.142-3.904-3.905-10.234-3.905-14.143 0l-10.009 10.009-65.555-65.555c-3.906-3.905-10.236-3.905-14.143 0-3.905 3.905-3.905 10.237 0 14.143l65.555 65.555-26.087 26.087-24.372-25.024c-19.416-19.951-52.569-19.95-72.015-.041l-24.407 25.005-26.027-26.027 65.556-65.556c3.905-3.905 3.905-10.237 0-14.143-3.906-3.905-10.236-3.905-14.143 0l-65.555 65.555-10.009-10.009c-3.906-3.905-10.236-3.905-14.143 0-3.905 3.905-3.905 10.237 0 14.142l10.009 10.009-39.79 39.79-10.008-10.008c-3.906-3.905-10.236-3.905-14.143 0-3.905 3.905-3.905 10.237 0 14.143l10.008 10.008-35.283 35.283c-3.169-1.843-6.643-3.193-10.335-3.967-18.504-3.877-37.102 8.317-40.971 26.777-3.911 18.677 8.101 37.056 26.777 40.969 18.439 3.864 37.107-8.339 40.97-26.776 1.604-7.653.595-15.444-2.812-22.348l35.796-35.796 26.85 26.85-77.138 79.028c-9.485 9.759-14.709 22.626-14.709 36.23v151.352c0 5.523 4.478 10 10 10h35.869c12.545 0 24.589-3.83 34.83-11.076 13.924-9.853 32.634-9.851 46.558 0 16.224 11.479 37.532 14.203 56.128 7.184 5.166-1.951 7.773-7.72 5.823-12.887-1.951-5.167-7.719-7.775-12.888-5.824-12.546 4.738-26.568 2.943-37.512-4.799-20.832-14.74-48.828-14.741-69.66 0-6.845 4.843-14.895 7.403-23.279 7.403h-25.869v-42.26h25.871c12.549 0 24.593-3.831 34.824-11.075 13.927-9.846 32.639-9.846 46.562-.002 20.834 14.745 48.831 14.744 69.661.002 13.923-9.843 32.637-9.843 46.562-.002 20.832 14.741 48.823 14.74 69.651.002 13.928-9.847 32.641-9.846 46.564 0 10.245 7.246 22.288 11.076 34.824 11.076h24.531v42.259h-24.526c-8.384 0-16.434-2.56-23.278-7.402-20.831-14.74-48.827-14.741-69.66 0-10.704 7.572-24.463 9.465-36.811 5.066-5.2-1.852-10.923.861-12.776 6.063-1.854 5.202.861 10.923 6.063 12.776 18.473 6.583 39.062 3.749 55.074-7.579 13.925-9.853 32.634-9.851 46.559 0 10.24 7.246 22.284 11.076 34.829 11.076h34.526c5.522 0 10-4.477 10-10v-150.912c0-13.932-5.436-27.011-15.306-36.839l-76.672-78.723 26.985-26.986 35.796 35.796c-3.407 6.904-4.416 14.694-2.812 22.348 3.863 18.44 22.53 30.638 40.97 26.776 18.678-3.912 30.689-22.291 26.777-40.969zm-462.347 10.092c-1.651 7.884-9.418 12.957-17.294 11.303-7.884-1.651-12.954-9.41-11.304-17.293 1.618-7.716 9.561-12.923 17.294-11.303 7.776 1.628 12.935 9.502 11.304 17.293zm66.7-68.185 39.79-39.79 26.198 26.198-39.31 40.271zm315.379 235.342c-8.378 0-16.427-2.561-23.277-7.405-10.416-7.365-22.621-11.047-34.828-11.047s-24.415 3.683-34.833 11.049c-13.922 9.852-32.628 9.851-46.554-.003-20.837-14.724-48.828-14.725-69.659.003-13.924 9.854-32.634 9.854-46.562-.002-20.832-14.729-48.825-14.73-69.663.004-6.839 4.842-14.887 7.401-23.272 7.401h-25.872v-37.042h25.871c12.549 0 24.593-3.831 34.824-11.075 13.927-9.846 32.639-9.847 46.562-.002 20.834 14.744 48.831 14.744 69.661.002 13.923-9.843 32.637-9.843 46.562-.002 20.832 14.741 48.823 14.74 69.651.002 13.928-9.847 32.641-9.846 46.564 0 10.245 7.246 22.288 11.076 34.824 11.076h24.531v37.042h-24.53zm14.958-101.476c.039.041.079.081.118.12 6.098 6.051 9.455 14.114 9.455 22.703v21.611h-24.531c-8.378 0-16.427-2.561-23.277-7.405-20.832-14.729-48.825-14.729-69.661.002-13.922 9.852-32.628 9.851-46.554-.003-20.837-14.725-48.828-14.725-69.659.003-13.924 9.854-32.634 9.854-46.562-.002-20.832-14.729-48.825-14.73-69.663.004-6.839 4.842-14.887 7.401-23.272 7.401h-25.872v-22.051c0-8.37 3.215-16.286 9.036-22.276l76.956-78.838 2.298 2.298c3.859 3.858 10.284 3.858 14.143 0 3.905-3.905 3.905-10.237 0-14.143l-2.469-2.469 39.31-40.271 1.986 1.986c3.859 3.858 10.284 3.857 14.143 0 3.905-3.905 3.905-10.237 0-14.142l-2.156-2.156 24.574-25.176c11.703-11.983 31.681-11.997 43.372.019l24.56 25.217-.738.738c-3.905 3.905-3.905 10.237 0 14.142 3.858 3.858 10.284 3.858 14.143 0l.552-.552 39.266 40.316-.738.738c-3.905 3.905-3.905 10.237 0 14.142 3.859 3.858 10.284 3.857 14.143 0l.55-.551zm-76.361-107.067-39.266-40.316 26.274-26.273 39.791 39.791zm110.793 52.689c-7.886 1.651-15.643-3.419-17.294-11.303-1.632-7.791 3.528-15.665 11.304-17.293 7.728-1.621 15.671 3.557 17.293 11.302 1.651 7.884-3.419 15.642-11.303 17.294z"/><path d="m266.479 450.789c-2.066-5.045-8.04-7.483-13.06-5.41-5.038 2.08-7.495 8.026-5.41 13.06 2.083 5.029 8.03 7.499 13.06 5.41 5.019-2.085 7.505-8.034 5.41-13.06z"/></g></g></svg>