<svg id="Capa_1" enable-background="new 0 0 512 512" height="512" viewBox="0 0 512 512" width="512" xmlns="http://www.w3.org/2000/svg"><g><g><path d="m10 502v-56.7h43.45c30.769 0 53.86-14.897 77.546-32.322 30.983-22.793 74.143-12.105 89.953 24.2 5.708 15.426 18.808 27.053 36.121 27.053 16.684 0 29.657-10.781 35.513-25.823 15.101-37.024 57.67-48.052 88.929-25.056 23.531 17.311 46.51 31.949 77.038 31.949h43.45v56.699z" fill="#e0a083"/></g><g><path d="m235.719 307.915c-8.764-8.764-8.764-22.972 0-31.736l-18.608 18.608c-8.764 8.763-22.972 8.763-31.736 0-8.764-8.764-8.764-22.972 0-31.736l-16.341 16.341c-8.764 8.763-22.972 8.763-31.736 0-8.764-8.764-8.764-22.972 0-31.736l16.341-16.341c-8.764 8.764-22.972 8.763-31.736 0-8.494-8.494-9.347-22.389 0-31.736l82.268-82.267c-17.527 17.527-45.944 17.527-63.471-.001l47.708-47.708c20.864-20.864 47.676-34.758 76.753-39.775l27.612-4.764c11.013-1.9 21.167-7.162 29.069-15.065h180.158l-86.002 94.404c-5.906 5.906-10.365 13.098-13.028 21.014l-13.127 39.022c-7.031 20.901-18.804 39.892-34.398 55.485l-87.991 87.99c-8.763 8.765-22.972 8.765-31.735.001z" fill="#ffdad5"/></g><g><path d="m278.981 387.245c-5.636 16.509-27.608 21.47-39.324 8.312-10.957-12.304-5.217-31.938 10.375-37.261l32.556-11.114c4.649-1.587 9.094 2.858 7.507 7.507z" fill="#a0e4a5"/></g><g><path d="m502 435.3h-43.45c-28.384 0-49.313-13.967-71.112-30.004-17.628-12.968-39.324-17.14-59.53-11.447-20.069 5.654-36.319 20.519-44.584 40.782-.02.049-.039.099-.059.148-4.742 12.18-14.534 19.451-26.194 19.451-11.99 0-21.987-7.672-26.743-20.523-.065-.176-.135-.35-.21-.522-8.648-19.858-25.227-34.374-45.486-39.827-20.397-5.488-42.107-1.275-59.562 11.564-21.949 16.148-43.008 30.378-71.62 30.378h-43.45c-5.523 0-10 4.477-10 10v56.7c0 5.523 4.477 10 10 10h203.293c5.523 0 10-4.477 10-10s-4.477-10-10-10h-193.293v-36.7h33.45c33.006 0 57.983-15.516 83.471-34.267 12.525-9.214 28.02-12.265 42.512-8.362 14.484 3.898 25.925 13.93 32.244 28.263 7.72 20.546 25.088 33.296 45.393 33.296 19.895 0 37.053-12.302 44.8-32.114 6.013-14.69 17.184-24.994 31.461-29.017 14.229-4.01 29.629-.98 42.255 8.307 25.329 18.634 50.204 33.894 82.964 33.894h33.45v36.7h-189.782c-5.522 0-10 4.477-10 10s4.478 10 10 10h199.782c5.522 0 10-4.477 10-10v-56.7c0-5.523-4.478-10-10-10z"/><path d="m126.041 245.712c-8.383 12.707-6.545 30.019 4.186 40.751 11.054 11.054 28.166 12.449 40.749 4.18 1.608 4.157 4.082 7.969 7.328 11.215 11.795 11.795 30.493 12.59 43.221 2.382 1.581 3.913 3.955 7.579 7.123 10.746 12.504 12.505 33.372 12.506 45.878.001l87.991-87.991c16.595-16.595 29.321-37.125 36.805-59.367l13.126-39.022c2.16-6.419 5.833-12.343 10.621-17.131.11-.11.218-.222.322-.337l86.002-94.404c2.667-2.927 3.354-7.153 1.755-10.775-1.601-3.623-5.188-5.96-9.148-5.96h-180.157c-2.652 0-5.195 1.054-7.071 2.929-6.477 6.478-14.672 10.724-23.698 12.281l-27.612 4.764c-31.28 5.396-59.678 20.113-82.124 42.559l-47.708 47.708c-3.905 3.905-3.905 10.237 0 14.142 9.36 9.361 21.283 14.626 33.532 15.797l-52.329 52.328c-12.581 12.582-12.601 33.277 0 45.878 3.244 3.244 7.054 5.717 11.208 7.326zm2.933-39.062 82.217-82.216c.017-.017.034-.034.051-.051l15.486-15.485c5.929 2.012 15.369 4.638 26.446 5.621 25.354 2.253 47.297-5.1 63.453-21.254 3.905-3.905 3.905-10.237 0-14.143-3.906-3.905-10.236-3.905-14.143 0-11.88 11.881-27.679 17.104-46.975 15.524-15.271-1.251-27.057-6.458-27.151-6.5-3.793-1.719-8.255-.908-11.2 2.037l-20.059 20.058c-11.144 11.145-28.013 13.157-41.226 6.038l39.604-39.604c19.509-19.51 44.193-32.301 71.382-36.992l27.612-4.764c11.705-2.02 22.446-7.15 31.312-14.919h153.576l-70.606 77.505c-6.876 6.929-12.151 15.473-15.265 24.725l-13.127 39.022c-6.503 19.333-17.565 37.177-31.99 51.602l-87.991 87.99c-4.882 4.882-12.677 4.592-17.593 0-4.851-4.851-4.851-12.744 0-17.594l52.698-52.697c3.905-3.905 3.905-10.237 0-14.142s-10.237-3.905-14.143 0l-52.697 52.697-18.607 18.607c-4.851 4.851-12.743 4.85-17.594 0-4.85-4.851-4.85-12.743 0-17.593l70.48-70.479c3.905-3.905 3.905-10.237 0-14.143-3.904-3.905-10.237-3.904-14.142 0l-86.821 86.82c-4.851 4.851-12.743 4.851-17.593 0-4.851-4.851-4.851-12.743 0-17.593l86.132-86.131c3.905-3.905 3.906-10.237 0-14.142-3.905-3.906-10.237-3.905-14.142 0l-69.787 69.786c-4.684 4.858-12.894 4.709-17.598.005-4.263-4.265-5.712-11.881.001-17.595z"/><path d="m279.357 337.719-32.557 11.113c-21.822 7.45-30.201 35.868-14.617 53.37 16.713 18.786 48.213 11.857 56.262-11.726l11.113-32.556c1.976-5.788.517-12.069-3.808-16.393-4.322-4.325-10.607-5.785-16.393-3.808zm-9.839 46.295c-3.189 9.343-15.704 12.419-22.393 4.892-6.196-6.958-2.35-18.249 6.137-21.146l24.68-8.425z"/><path d="m267.27 498.17c-3.447-8.273-15.615-7.945-18.637.461-3.075 8.553 6.458 16.519 14.333 12.06 4.356-2.467 6.197-7.902 4.304-12.521z"/></g></g></svg>