<svg id="Capa_1" enable-background="new 0 0 511.968 511.968" height="512" viewBox="0 0 511.968 511.968" width="512" xmlns="http://www.w3.org/2000/svg"><g><g><path d="m309.916 414.91-211.997 31.998c-13.534 2.043-26.161-7.273-28.204-20.806l-53.678-355.633c-2.043-13.534 7.273-26.161 20.806-28.204l211.998-31.998c13.534-2.043 26.161 7.273 28.204 20.806l53.678 355.632c1.281 13.278-6.91 25.339-20.807 28.205z" fill="#a0c8ff"/></g><g><path d="" style="fill:none;stroke:#000;stroke-width:20;stroke-linecap:round;stroke-linejoin:round;stroke-miterlimit:10"/></g><g><path d="m216.713 139.318-51.257-37.813c-6.997-5.161-16.852-3.674-22.014 3.323l-37.813 51.258c-5.161 6.997-3.674 16.852 3.323 22.014l51.257 37.813c6.997 5.161 16.852 3.674 22.014-3.323l37.813-51.258c5.162-6.997 3.674-16.853-3.323-22.014z" fill="#ffd88e"/></g><g><path d="m495.791 131.015-59.138 347.272c-2.64 15.508-17.356 25.93-32.852 23.29l-204.077-34.746c-15.14-2.583-25.437-16.667-23.451-31.75l129.983-19.617c17.106-1.655 27.27-15.514 23.91-32.415l-6.187-41.002-12.282-81.371-5.601-37.122-23.818-157.772 190.212 32.381c15.507 2.64 25.941 17.345 23.301 32.852z" fill="#ff9db0"/></g><g><path d="m384.931 273.148-73.233-12.471-5.601-37.122 41.781-50.392c3.832-4.621 11.229-3.362 13.316 2.268l32.36 87.32c2.085 5.629-2.705 11.405-8.623 10.397z" fill="#fff"/></g><g><path d="m240.318 269.575-118.797 17.931c-5.461.824-9.22 5.919-8.396 11.38.748 4.956 5.012 8.509 9.875 8.509.497 0 1-.037 1.505-.113l118.797-17.931c5.461-.824 9.22-5.919 8.396-11.38s-5.912-9.216-11.38-8.396z"/><path d="m131.113 351.056c-5.461.824-9.22 5.919-8.396 11.38.748 4.956 5.012 8.509 9.876 8.509.496 0 .999-.037 1.505-.113l118.797-17.931c5.461-.824 9.22-5.919 8.395-11.38-.824-5.462-5.92-9.213-11.381-8.396z"/><path d="m474.168 88.305-183.075-31.166-4.159-27.559c-2.829-18.739-20.823-32.03-39.584-29.2l-211.998 31.998c-18.738 2.827-32.034 20.823-29.203 39.583l21.718 143.889c.824 5.463 5.92 9.219 11.381 8.396 5.461-.824 9.22-5.919 8.396-11.38l-21.719-143.889c-1.203-7.973 4.447-15.62 12.411-16.823l211.998-31.998c7.972-1.197 15.62 4.444 16.824 12.41l53.121 351.981c1.508 9.953-5.535 19.494-15.471 21.021l-208.382 31.453c-8.06 1.215-15.607-4.352-16.823-12.411l-18.786-124.467c-.824-5.461-5.918-9.22-11.38-8.396-5.461.824-9.22 5.919-8.396 11.38l18.786 124.467c2.829 18.738 20.822 32.035 39.585 29.202l67.402-10.173c3.106 15.093 15.141 27.322 31.233 30.068l204.076 34.745c16.062 2.736 32.578-5.27 40.321-19.619 1.993-3.694 3.364-7.714 4.068-11.851l59.138-347.272v-.001c3.56-20.914-10.563-40.826-31.482-44.388zm-157.515 138.185 36.488-44.008 29.711 80.169-62.344-10.617zm169.28-97.154-59.138 347.272c-1.689 9.92-11.384 16.804-21.314 15.11l-204.075-34.744c-7.339-1.252-12.925-6.608-14.746-13.347l121.091-18.275c9.306-1.412 17.623-4.359 24.138-11.509l41.581 7.084c.568.097 1.134.144 1.691.144 4.785 0 9.016-3.446 9.847-8.322.927-5.444-2.734-10.61-8.179-11.538l-36.149-6.159c.432-3.193.433-6.496-.072-9.838l-4.677-30.986 47.527 8.091c.567.097 1.132.144 1.689.144 4.786 0 9.017-3.447 9.847-8.324.927-5.444-2.735-10.609-8.181-11.536l-54.026-9.197-9.139-60.548 59.601 10.15c13.236 2.169 24.381-11.039 19.678-23.731l-32.36-87.319c-2.236-6.034-7.358-10.281-13.702-11.361-6.347-1.08-12.583 1.232-16.688 6.186l-27.527 33.2-18.414-122.021 176.576 30.06c10.047 1.711 16.831 11.272 15.121 21.314z"/><path d="m222.65 131.271-51.258-37.813c-11.421-8.424-27.571-5.988-35.998 5.435l-37.811 51.257c-8.336 11.298-5.854 27.672 5.433 35.997l51.257 37.813c11.285 8.322 27.682 5.838 35.998-5.434l37.813-51.258c8.425-11.422 5.988-27.571-5.434-35.997zm-10.661 24.125-37.812 51.258c-1.879 2.548-5.482 3.091-8.031 1.212l-51.257-37.813c-2.515-1.855-3.07-5.511-1.212-8.029l37.813-51.258c1.854-2.513 5.515-3.068 8.03-1.213l51.256 37.812c2.549 1.879 3.093 5.483 1.213 8.031z"/><path d="m51.678 266.806c3.151-3.151 3.793-8.129 1.621-11.997-2.039-3.63-6.261-5.626-10.359-4.923-4.046.694-7.343 3.846-8.142 7.891-.821 4.154 1.136 8.504 4.81 10.616 3.876 2.227 8.903 1.58 12.07-1.587z"/></g></g></svg>