<?xml version="1.0" encoding="iso-8859-1"?>
<!-- Generator: Adobe Illustrator 19.0.0, SVG Export Plug-In . SVG Version: 6.00 Build 0)  -->
<svg version="1.1" id="Capa_1" xmlns="http://www.w3.org/2000/svg" xmlns:xlink="http://www.w3.org/1999/xlink" x="0px" y="0px"
	 viewBox="0 0 511.998 511.998" style="enable-background:new 0 0 511.998 511.998;" xml:space="preserve">
<path style="fill:#EBC9A0;" d="M272.032,288.064c-35.417,0-64.129-28.712-64.129-64.129v-24.048
	C135.757,111.709,7.499,95.677,7.499,95.677c84.837,79.493,97.53,163.662,97.53,163.662s68.137,26.721,102.873,76.822
	c0-13.282,10.767-24.048,24.048-24.048h72.145v-24.048L272.032,288.064L272.032,288.064z"/>
<path style="fill:#8CB4EB;" d="M480.488,191.87h-64.166l0,0c0,8.854-7.178,16.032-16.032,16.032h-32.065
	c-44.322,0-80.015,36.276-80.162,80.597c-0.235,70.634-57.568,127.822-128.257,127.822c-70.835,0-128.258-57.423-128.258-128.258
	v4.032c0,88.995,70.799,164.019,159.794,164.306c62.817,0.202,117.263-35.723,143.74-88.177h17.111v-104.21
	c0-13.282,10.767-24.048,24.048-24.048h46.322c4.401,4.886,10.713,8.016,17.807,8.016h8.016v-8.016
	c0-8.854,7.178-16.032,16.032-16.032h32.558c4.155,0,7.523-3.405,7.523-7.56v-0.493C504.499,202.621,493.749,191.87,480.488,191.87z
	"/>
<path style="fill:#FF8087;" d="M384.257,215.919c0-2.933-0.849-5.649-2.23-8.016h-13.802c-44.322,0-80.015,36.276-80.162,80.597
	c-0.235,70.634-57.568,127.822-128.257,127.822c-70.835,0-128.258-57.423-128.258-128.258v4.032
	c0,54.205,26.352,103.115,66.996,133.224c19.731,9.633,41.877,15.051,65.263,15.051c14.25,0,28.662-2.036,42.835-6.051
	c61.879-17.532,105.245-75.814,105.456-141.732l0.003-0.914l0.013-3.762c0.1-30.857,25.283-55.959,56.139-55.959
	C377.081,231.935,384.257,224.749,384.257,215.919z"/>
<g>
	<path style="fill:#8CB4EB;" d="M288.064,47.58h-64.129v32.065c0,13.282,10.767,24.048,24.048,24.048h8.016v-8.016
		c0-8.854,7.178-16.032,16.032-16.032h32.559c4.154,0,7.522-3.405,7.522-7.559c0-0.165,0-0.329,0-0.493
		C312.113,58.31,301.346,47.58,288.064,47.58z"/>
	<path style="fill:#8CB4EB;" d="M424.338,71.628h-64.129v32.065c0,13.282,10.767,24.048,24.048,24.048h8.016v-8.016
		c0-8.854,7.178-16.032,16.032-16.032h32.559c4.154,0,7.522-3.405,7.522-7.559c0-0.165,0-0.329,0-0.493
		C448.387,82.358,437.62,71.628,424.338,71.628z"/>
</g>
<polygon style="fill:#E6646E;" points="31.548,280.048 15.515,264.015 31.548,223.935 47.58,264.015 "/>
<path style="fill:#8CB4EB;" d="M296.08,135.757h-40.081c39.845,0,72.145,32.3,72.145,72.145v8.016l32.065-8.016v-8.016
	C360.209,164.469,331.497,135.757,296.08,135.757z"/>
<g>
	<path style="fill:#A5CDFF;" d="M233.25,393.883L233.25,393.883c-10.981,9.138-17.331,22.684-17.331,36.97v33.566l24.859-9.944
		c9.56-3.824,16.701-12.006,19.198-21.994l0,0c2.573-10.293,0.693-21.194-5.18-30.031l-3.989-6.002
		C246.882,390.542,238.7,389.347,233.25,393.883z"/>
	<path style="fill:#A5CDFF;" d="M320.128,411.056c0,8.504,3.378,16.66,9.391,22.673l13.282,13.282
		c6.013,6.013,9.391,14.169,9.391,22.673v10.767V368.225c0-8.854-7.178-16.032-16.032-16.032l0,0
		c-8.854,0-16.032,7.178-16.032,16.032L320.128,411.056L320.128,411.056z"/>
</g>
<path d="M360.209,79.128h32.581v0.516c0,4.142,3.358,7.5,7.5,7.5s7.5-3.358,7.5-7.5v-0.516h16.548
	c9.125,0,16.548,7.423,16.548,16.548c0,0.285-0.231,0.516-0.516,0.516h-32.064c-12.976,0-23.532,10.557-23.532,23.532v0.516h-0.517
	c-9.125,0-16.548-7.423-16.548-16.548c0-4.142-3.358-7.5-7.5-7.5s-7.5,3.358-7.5,7.5c0,17.396,14.152,31.548,31.548,31.548h48.097
	c4.142,0,7.5-3.358,7.5-7.5c0-4.142-3.358-7.5-7.5-7.5h-32.581v-0.516c0-4.705,3.828-8.532,8.532-8.532h32.064
	c8.556,0,15.516-6.96,15.516-15.516c0-17.396-14.152-31.548-31.548-31.548h-64.128c-4.705,0-8.532-3.828-8.532-8.532
	s3.828-8.532,8.532-8.532h16.032c4.142,0,7.5-3.358,7.5-7.5s-3.358-7.5-7.5-7.5h-16.032c-12.976,0-23.532,10.557-23.532,23.532
	S347.233,79.128,360.209,79.128z"/>
<path d="M480.451,184.37h-64.129c-4.705,0-8.532-3.828-8.532-8.532s3.828-8.532,8.532-8.532h16.032c4.142,0,7.5-3.358,7.5-7.5
	s-3.358-7.5-7.5-7.5h-16.032c-12.976,0-23.532,10.557-23.532,23.532s10.557,23.532,23.532,23.532h32.581v0.516
	c0,4.142,3.358,7.5,7.5,7.5s7.5-3.358,7.5-7.5v-0.516h16.548c9.125,0,16.548,7.423,16.548,16.548c0,0.285-0.231,0.516-0.516,0.516
	h-32.064c-12.976,0-23.532,10.557-23.532,23.532v0.516h-0.516c-9.125,0-16.548-7.423-16.548-16.548c0-4.142-3.358-7.5-7.5-7.5
	s-7.5,3.358-7.5,7.5c0,2.957,0.418,5.816,1.182,8.532h-25.747c-21.816,0-39.564,17.749-39.564,39.564v166.264l-9.87-9.87
	c-4.64-4.64-7.195-10.809-7.195-17.37v-42.832c0-4.142-3.358-7.5-7.5-7.5s-7.5,3.358-7.5,7.5v21.495
	c-12.051,15.516-26.973,28.568-43.836,38.417l2.499-9.997c1.005-4.019-1.438-8.09-5.457-9.095c-4.016-1.004-8.09,1.438-9.095,5.457
	l-4.04,16.158c-1.908,7.63-7.406,13.93-14.708,16.851l-14.573,5.829v-22.488c0-12.095,5.332-23.468,14.628-31.205
	c0,0,11.006-9.242,11.332-9.662c26.541-23.353,43.92-56.879,45.975-94.422h8.743c4.142,0,7.5-3.358,7.5-7.5s-3.358-7.5-7.5-7.5
	h-8.146c3.766-36.555,34.742-65.161,72.275-65.161h16.033c4.142,0,7.5-3.358,7.5-7.5s-3.358-7.5-7.5-7.5h-16.033
	c-0.173,0-0.344,0.006-0.516,0.007v-0.523c0-24.879-12.756-46.827-32.064-59.672v-36.522c0-4.142-3.358-7.5-7.5-7.5
	s-7.5,3.358-7.5,7.5v28.905c-7.665-2.807-15.939-4.34-24.564-4.34h-48.097c-26.805,0-48.613-21.808-48.613-48.613
	c0-4.142-3.358-7.5-7.5-7.5s-7.5,3.358-7.5,7.5c0,35.077,28.537,63.613,63.613,63.613h8.014c35.646,0,64.645,29,64.645,64.645v6.571
	c-22.126,14.355-37.399,38.408-39.756,66.09h-8.857c-31.225,0-56.629-25.404-56.629-56.629v-24.048c0-1.731-0.599-3.409-1.695-4.749
	c-38.342-46.863-92.121-73.431-130.484-87.466C41.816,92.522,9.773,88.402,8.43,88.235c-3.222-0.405-6.34,1.315-7.72,4.257
	s-0.709,6.437,1.662,8.658c42.693,40.004,66.308,81.164,78.6,108.647c9.284,20.757,13.687,37.052,15.52,45.116l-4.536,2.592
	c-3.596,2.055-4.846,6.636-2.791,10.233c1.384,2.422,3.915,3.78,6.519,3.78c1.262,0,2.541-0.319,3.714-0.99l5.472-3.127
	c12.342,5.309,65.962,30.073,95.532,71.148v5.628c0,4.142,3.358,7.5,7.5,7.5s7.5-3.358,7.5-7.5v-8.016
	c0-9.125,7.423-16.548,16.548-16.548h44.423c-13.908,51.335-60.894,89.21-116.569,89.21c-66.586,0-120.758-54.172-120.758-120.758
	v-4.91l13.835-13.835c2.122-2.122,2.774-5.303,1.66-8.089l-16.03-40.082c-1.139-2.847-3.896-4.714-6.963-4.714
	s-5.825,1.867-6.963,4.714L8.552,261.23c-1.114,2.786-0.461,5.967,1.66,8.089l13.835,13.835v12.926
	c0,89.587,70.033,163.213,159.436,167.616c0.126,0.006,0.251,0.009,0.375,0.009c3.972,0,7.287-3.12,7.484-7.131
	c0.204-4.137-2.985-7.656-7.122-7.86c-44.922-2.212-84.466-23.626-110.895-56.079c23.502,19.469,53.647,31.186,86.479,31.186
	c18.15,0,35.476-3.589,51.316-10.081c-1.763,5.461-2.703,11.221-2.703,17.112v58.13h-16.548c-4.142,0-7.5,3.358-7.5,7.5
	s3.358,7.5,7.5,7.5h24.048c1.876,0,3.684-0.703,5.067-1.971c3.01-2.758,8.05-6.045,14.973-6.045s11.964,3.288,14.974,6.045
	c1.439,1.319,3.255,1.971,5.065,1.971c2.029,0,4.052-0.819,5.531-2.433c2.799-3.054,2.592-7.798-0.462-10.596
	c-7.027-6.44-15.944-9.987-25.107-9.987c-4.291,0-8.526,0.785-12.54,2.273v-13.744l20.144-8.058
	c6.291-2.516,11.738-6.6,15.926-11.726c19.963-8.799,38.044-21.468,53.176-37.151c0.372,10.003,4.435,19.354,11.552,26.47
	l13.282,13.282c4.639,4.64,7.194,10.808,7.194,17.37v19.299h-12.54c-4.142,0-7.5,3.358-7.5,7.5s3.358,7.5,7.5,7.5H356.2
	c1.876,0,3.684-0.703,5.067-1.971c3.01-2.758,8.05-6.045,14.973-6.045s11.964,3.288,14.974,6.045
	c1.439,1.319,3.255,1.971,5.065,1.971c2.029,0,4.052-0.819,5.531-2.433c2.799-3.054,2.592-7.798-0.462-10.596
	c-7.027-6.44-15.944-9.987-25.107-9.987c-5.749,0-11.399,1.401-16.548,4.032V272.031c0-13.545,11.02-24.564,24.564-24.564h35.13
	c5.58,4.981,12.932,8.016,20.983,8.016h48.097c4.142,0,7.5-3.358,7.5-7.5s-3.358-7.5-7.5-7.5h-32.581v-0.516
	c0-4.705,3.828-8.532,8.532-8.532h32.064c8.556,0,15.516-6.96,15.516-15.516C511.999,198.523,497.847,184.37,480.451,184.37z
	 M303.064,143.704c27.94,3.454,49.645,27.324,49.645,56.183v1.891c-5.925,1.063-11.644,2.727-17.095,4.92
	C335.227,180.871,322.499,157.99,303.064,143.704z M94.931,204.27c-11.079-24.91-30.966-60.479-64.901-96.673
	c38.274,8.781,114.987,32.68,166.283,90.274l-86.245,49.282C107.672,237.684,103.123,222.691,94.931,204.27z M120.949,258.212
	l79.453-45.402v102.073C174.094,286.152,139.567,267.134,120.949,258.212z M231.951,304.612c-6.068,0-11.733,1.735-16.548,4.716
	V267.72c13.113,16.921,33.614,27.844,56.629,27.844h8.292c-0.188,3.048-0.488,6.065-0.899,9.048H231.951z M31.548,244.129
	l7.232,18.08l-7.232,7.232l-7.232-7.232L31.548,244.129z"/>
<path d="M223.935,55.08h32.581v0.516c0,4.142,3.358,7.5,7.5,7.5s7.5-3.358,7.5-7.5V55.08h16.548c9.125,0,16.548,7.423,16.548,16.548
	c0,0.285-0.231,0.516-0.516,0.516h-32.064c-12.976,0-23.532,10.557-23.532,23.532v0.516h-0.516c-9.125,0-16.548-7.423-16.548-16.548
	c0-4.142-3.358-7.5-7.5-7.5s-7.5,3.358-7.5,7.5c0,17.396,14.152,31.548,31.548,31.548h48.097c4.142,0,7.5-3.358,7.5-7.5
	s-3.358-7.5-7.5-7.5h-32.582v-0.516c0-4.705,3.828-8.532,8.532-8.532h32.064c8.556,0,15.516-6.96,15.516-15.516
	c0-17.396-14.152-31.548-31.548-31.548h-64.129c-4.705,0-8.532-3.828-8.532-8.532s3.828-8.532,8.532-8.532h16.032
	c4.142,0,7.5-3.358,7.5-7.5s-3.358-7.5-7.5-7.5h-16.032c-12.976,0-23.532,10.557-23.532,23.532S210.959,55.08,223.935,55.08z"/>
<g>
</g>
<g>
</g>
<g>
</g>
<g>
</g>
<g>
</g>
<g>
</g>
<g>
</g>
<g>
</g>
<g>
</g>
<g>
</g>
<g>
</g>
<g>
</g>
<g>
</g>
<g>
</g>
<g>
</g>
</svg>
