<svg height="512pt" viewBox="0 -29 512 512" width="512pt" xmlns="http://www.w3.org/2000/svg"><path d="m105.234375 88.859375h-37.164063c-24.496093 0-44.421874-19.933594-44.421874-44.433594 0-24.496093 19.921874-44.425781 44.414062-44.425781h307.542969c5.523437 0 10 4.476562 10 10s-4.476563 10-10 10h-307.542969c-13.460938 0-24.414062 10.957031-24.414062 24.425781 0 13.472657 10.957031 24.433594 24.421874 24.433594h37.164063c5.523437 0 10 4.476563 10 10s-4.476563 10-10 10zm0 0"/><path d="m147.359375 88.863281c-.648437 0-1.300781-.066406-1.949219-.199219-.640625-.128906-1.269531-.320312-1.871094-.570312-.597656-.25-1.1875-.558594-1.730468-.917969-.539063-.359375-1.058594-.78125-1.519532-1.242187-.460937-.46875-.878906-.980469-1.238281-1.519532-.359375-.550781-.671875-1.128906-.921875-1.730468-.25-.597656-.4375-1.230469-.570312-1.867188-.128906-.652344-.199219-1.300781-.199219-1.960937 0-2.628907 1.070313-5.210938 2.929687-7.070313.460938-.460937.980469-.878906 1.519532-1.238281.539062-.363281 1.132812-.671875 1.730468-.921875.601563-.25 1.230469-.441406 1.871094-.570312 1.289063-.257813 2.621094-.257813 3.910156 0 .640626.128906 1.269532.320312 1.871094.570312.597656.25 1.179688.558594 1.730469.921875.539063.359375 1.058594.777344 1.519531 1.238281 1.859375 1.859375 2.917969 4.441406 2.917969 7.070313 0 .660156-.058594 1.308593-.1875 1.960937-.132813.636719-.320313 1.269532-.570313 1.867188-.25.601562-.5625 1.179687-.921874 1.730468-.371094.539063-.78125 1.050782-1.238282 1.519532-.460937.460937-.980468.882812-1.519531 1.242187-.550781.359375-1.132813.667969-1.730469.917969-.601562.25-1.230468.441406-1.871094.570312-.648437.132813-1.300781.199219-1.960937.199219zm0 0"/><path d="m226.242188 177.640625h59.515624v39.046875h-59.515624zm0 0" fill="#00d2d7"/><path d="m388.054688 216.6875h-264.109376c-62.929687 0-113.945312 51.035156-113.945312 113.992188 0 62.957031 51.015625 113.992187 113.945312 113.992187 51.730469 0 95.402344-34.496094 109.3125-81.742187h45.484376c13.90625 47.246093 57.578124 81.742187 109.3125 81.742187 62.929687 0 113.945312-51.035156 113.945312-113.992187 0-62.953126-51.015625-113.992188-113.945312-113.992188zm0 0" fill="#52607e"/><path d="m191.804688 330.683594c0-39.230469-31.789063-71.035156-71.003907-71.035156-39.214843 0-71.003906 31.804687-71.003906 71.035156 0 39.230468 31.789063 71.035156 71.003906 71.035156 39.214844 0 71.003907-31.804688 71.003907-71.035156zm0 0" fill="#7ccafd"/><path d="m120.800781 411.71875c-44.664062 0-81.003906-36.351562-81.003906-81.035156 0-44.679688 36.339844-81.035156 81.003906-81.035156 44.667969 0 81.003907 36.355468 81.003907 81.035156 0 44.683594-36.335938 81.035156-81.003907 81.035156zm0-142.070312c-33.640625 0-61.003906 27.378906-61.003906 61.035156s27.367187 61.035156 61.003906 61.035156 61.003907-27.378906 61.003907-61.035156-27.367188-61.035156-61.003907-61.035156zm0 0"/><path d="m386.859375 372.25c-9.382813 9.386719-24.59375 9.386719-33.976563 0-9.382812-9.386719-9.382812-24.605469 0-33.988281 9.382813-9.386719 24.59375-9.386719 33.976563 0 9.382813 9.382812 9.382813 24.601562 0 33.988281zm0 0" fill="#ffea6e"/><path d="m435.03125 322.890625c-9.382812 9.382813-24.59375 9.382813-33.976562 0-9.382813-9.386719-9.382813-24.605469 0-33.992187 9.382812-9.386719 24.59375-9.386719 33.976562 0 9.378906 9.386718 9.378906 24.605468 0 33.992187zm0 0" fill="#f05f90"/><path d="m352.882812 322.890625c-9.382812-9.386719-9.382812-24.605469 0-33.992187 9.382813-9.386719 24.59375-9.386719 33.976563 0 9.382813 9.386718 9.382813 24.605468 0 33.992187-9.382813 9.382813-24.59375 9.382813-33.976563 0zm0 0" fill="#ede6f5"/><path d="m401.054688 372.25c-9.382813-9.386719-9.382813-24.605469 0-33.988281 9.382812-9.386719 24.59375-9.386719 33.976562 0 9.378906 9.382812 9.378906 24.601562 0 33.988281-9.382812 9.386719-24.59375 9.386719-33.976562 0zm0 0" fill="#00d2d7"/><path d="m388.054688 206.6875h-92.292969v-29.046875c0-5.523437-4.480469-10-10-10h-15.21875c3.167969-7.917969 10.917969-13.523437 19.949219-13.523437h81.09375c23.503906 0 42.625-19.125 42.625-42.628907 0-23.503906-19.121094-42.628906-42.625-42.628906h-185.101563c-5.519531 0-10 4.476563-10 10s4.480469 10 10 10h185.101563c12.476562 0 22.625 10.152344 22.625 22.628906 0 12.480469-10.148438 22.628907-22.625 22.628907h-81.09375c-20.148438 0-36.988282 14.445312-40.710938 33.523437h-23.539062c-5.523438 0-10 4.476563-10 10v29.046875h-92.296876c-68.34375 0-123.945312 55.625-123.945312 123.992188 0 68.371093 55.601562 123.992187 123.945312 123.992187 27.300782 0 53.199219-8.710937 74.890626-25.191406 18.960937-14.410157 33.558593-34.285157 41.65625-56.550781h31.019531c8.097656 22.265624 22.6875 42.140624 41.652343 56.550781 21.691407 16.480469 47.589844 25.191406 74.890626 25.191406 68.34375 0 123.945312-55.625 123.945312-123.992187 0-68.367188-55.601562-123.992188-123.945312-123.992188zm-151.8125-19.046875h39.519531v19.046875h-39.519531zm151.8125 247.03125c-45.789063 0-86.796876-30.664063-99.71875-74.566406-1.25-4.257813-5.15625-7.175781-9.59375-7.175781h-45.484376c-4.433593 0-8.339843 2.917968-9.59375 7.175781-12.921874 43.902343-53.929687 74.566406-99.71875 74.566406-57.316406 0-103.945312-46.652344-103.945312-103.992187 0-57.339844 46.628906-103.992188 103.945312-103.992188h264.109376c57.316406 0 103.945312 46.652344 103.945312 103.992188 0 57.339843-46.628906 103.992187-103.945312 103.992187zm0 0"/><path d="m442.101562 281.828125c-6.425781-6.425781-14.96875-9.96875-24.058593-9.96875-9.089844 0-17.636719 3.539063-24.0625 9.96875-.007813.011719-.015625.019531-.023438.027344-.007812-.007813-.015625-.015625-.023437-.027344-6.429688-6.425781-14.972656-9.96875-24.0625-9.96875s-17.632813 3.539063-24.058594 9.96875c-13.265625 13.269531-13.265625 34.863281 0 48.132813.207031.207031.417969.410156.628906.613281-.210937.203125-.421875.410156-.628906.617187-13.265625 13.269532-13.265625 34.859375 0 48.128906 6.425781 6.429688 14.96875 9.96875 24.058594 9.96875s17.636718-3.539062 24.0625-9.96875c.007812-.007812.015625-.015624.023437-.023437.007813.007813.019531.015625.027344.023437 6.425781 6.429688 14.96875 9.96875 24.058594 9.96875 9.089843 0 17.636719-3.539062 24.0625-9.96875 13.261719-13.269531 13.261719-34.859374 0-48.128906-.207031-.207031-.417969-.414062-.632813-.617187.214844-.203125.425782-.40625.632813-.613281 13.261719-13.273438 13.261719-34.863282-.003907-48.132813zm-33.976562 14.140625c2.648438-2.648438 6.171875-4.109375 9.914062-4.109375 3.746094 0 7.269532 1.460937 9.917969 4.109375 5.472657 5.472656 5.46875 14.378906 0 19.851562-2.648437 2.648438-6.171875 4.109376-9.914062 4.109376-3.746094 0-7.269531-1.460938-9.914063-4.109376-5.472656-5.472656-5.472656-14.378906-.003906-19.851562zm-14.167969 35.246094c-.007812-.007813-.015625-.015625-.027343-.023438-.207032-.210937-.417969-.414062-.628907-.617187.210938-.203125.421875-.40625.628907-.617188.007812-.007812.015624-.015625.027343-.023437.007813.007812.015625.015625.023438.023437.207031.207031.417969.414063.632812.617188-.214843.203125-.425781.40625-.632812.617187-.007813.007813-.015625.015625-.023438.023438zm-34-35.246094c2.648438-2.648438 6.167969-4.109375 9.914063-4.109375s7.265625 1.460937 9.914062 4.109375c5.472656 5.472656 5.472656 14.378906 0 19.851562-2.644531 2.648438-6.167968 4.109376-9.914062 4.109376-3.742188 0-7.265625-1.460938-9.914063-4.109376-5.472656-5.472656-5.472656-14.378906 0-19.851562zm19.828125 69.210938c-2.648437 2.648437-6.167968 4.109374-9.914062 4.109374s-7.265625-1.460937-9.917969-4.109374c-5.46875-5.472657-5.46875-14.375 0-19.851563 2.648437-2.648437 6.171875-4.105469 9.917969-4.105469s7.265625 1.457032 9.914062 4.105469c5.472656 5.476563 5.472656 14.378906 0 19.851563zm48.171875 0c-2.648437 2.648437-6.171875 4.109374-9.914062 4.109374-3.746094 0-7.269531-1.460937-9.914063-4.109374-5.472656-5.472657-5.472656-14.375 0-19.851563 2.644532-2.648437 6.167969-4.105469 9.914063-4.105469 3.746093 0 7.265625 1.457032 9.914062 4.105469 5.472657 5.476563 5.472657 14.378906 0 19.851563zm0 0"/><path d="m300.050781 267.148438h-88.101562c-5.523438 0-10-4.476563-10-10 0-5.523438 4.476562-10 10-10h88.101562c5.523438 0 10 4.476562 10 10 0 5.523437-4.476562 10-10 10zm0 0"/><path d="m150.539062 351.960938c-2.558593 0-5.117187-.976563-7.070312-2.929688-3.90625-3.902344-3.90625-10.234375-.003906-14.140625l3.5625-3.566406-3.5625-3.5625c-3.902344-3.90625-3.902344-10.238281.003906-14.144531 3.90625-3.902344 10.238281-3.902344 14.144531.003906l10.628907 10.632812c3.902343 3.90625 3.902343 10.234375 0 14.140625l-10.628907 10.632813c-1.957031 1.953125-4.515625 2.933594-7.074219 2.933594zm0 0"/><path d="m91.0625 351.75c-2.558594 0-5.121094-.976562-7.074219-2.929688l-10.628906-10.632812c-3.902344-3.90625-3.902344-10.234375 0-14.140625l10.628906-10.632813c3.90625-3.90625 10.238281-3.90625 14.144531-.003906 3.90625 3.90625 3.90625 10.238282.003907 14.144532l-3.5625 3.5625 3.5625 3.5625c3.902343 3.90625 3.902343 10.238281-.003907 14.144531-1.953124 1.949219-4.511718 2.925781-7.070312 2.925781zm0 0"/><path d="m120.695312 381.605469c-2.652343 0-5.195312-1.054688-7.070312-2.929688l-10.628906-10.636719c-3.90625-3.902343-3.902344-10.234374 0-14.140624 3.910156-3.90625 10.238281-3.902344 14.144531.003906l3.554687 3.558594 3.558594-3.558594c3.902344-3.90625 10.234375-3.910156 14.140625-.003906s3.910157 10.234374.003907 14.140624l-10.628907 10.636719c-1.875 1.875-4.417969 2.929688-7.074219 2.929688zm0 0"/><path d="m110.277344 311.472656c-2.558594 0-5.117188-.976562-7.070313-2.929687-3.90625-3.902344-3.90625-10.234375-.003906-14.140625l10.628906-10.632813c1.875-1.878906 4.421875-2.929687 7.074219-2.929687s5.195312 1.050781 7.070312 2.929687l10.628907 10.632813c3.90625 3.90625 3.902343 10.238281 0 14.140625-3.910157 3.902343-10.238281 3.902343-14.144531-.003907l-3.554688-3.554687-3.558594 3.554687c-1.953125 1.953126-4.511718 2.933594-7.070312 2.933594zm0 0"/></svg>