<svg id="Capa_1" enable-background="new 0 0 497 497" height="512" viewBox="0 0 497 497" width="512" xmlns="http://www.w3.org/2000/svg"><g><path d="m384.389 13.135c-15.791-17.082-42.647-17.557-59.096-1.108l-9.034 9.034 179.652 207.823c5.821-36.985-8.973-104.813-111.522-215.749z" fill="#879caf"/><path d="m112.611 13.135c15.791-17.082 42.647-17.557 59.096-1.108l9.034 9.034-179.652 207.824c-5.821-36.986 8.973-104.814 111.522-215.75z" fill="#879caf"/><path d="m373.948 361.785-232.943-261.235 44.388-44.388 261.235 232.943c13.558 12.089 14.158 33.092 1.314 45.937l-28.058 28.058c-12.844 12.844-33.846 12.243-45.936-1.315z" fill="#e8a882"/><path d="m281.483 141.844-54.795 54.795 41.909 47 56.273-63.107z" fill="#e3986d"/><path d="m123.052 361.785 232.943-261.235-44.388-44.388-261.236 232.943c-13.558 12.089-14.158 33.092-1.314 45.937l28.058 28.058c12.845 12.844 33.847 12.243 45.937-1.315z" fill="#edb798"/><path d="m393.502 23.137c-2.958-3.295-5.993-6.627-9.112-10.001-15.791-17.083-42.647-17.557-59.096-1.108l-9.034 9.034 44.204 51.135c7.685-18.53 18.99-35.177 33.038-49.06z" fill="#7a8fa4"/><path d="m489.445 249.352c2.793-5.509 5.171-12.277 6.466-20.467-63.618-96.813-136.755-169.316-179.652-207.823l-16.156 16.156c-6.323 6.323-5.884 16.694.95 22.461 31.354 26.458 112.579 100.07 160.509 189.848 5.981 11.188 22.156 11.139 27.883-.175z" fill="#a6b6c4"/><g><g><path d="m149.01 266.719-8.824-8.823c-2.93-2.929-2.93-7.678-.001-10.607 2.93-2.929 7.679-2.929 10.606-.001l8.824 8.823c2.93 2.929 2.93 7.678.001 10.607-2.928 2.928-7.677 2.931-10.606.001z" fill="#334151"/></g><g><path d="m240.843 174.885-8.823-8.823c-2.929-2.929-2.929-7.678 0-10.607 2.931-2.929 7.679-2.928 10.607 0l8.823 8.823c2.929 2.929 2.929 7.678 0 10.607-2.93 2.928-7.678 2.929-10.607 0z" fill="#334151"/></g><g><path d="m187.347 234.824c-4.133-.284-7.253-3.864-6.969-7.997s3.867-7.248 7.996-6.968c9.211.635 16.851-6.992 16.216-16.215-.284-4.132 2.836-7.713 6.968-7.997 4.127-.284 7.713 2.835 7.997 6.968.6 8.722-2.597 17.266-8.77 23.438-6.164 6.164-14.7 9.37-23.438 8.771z" fill="#334151"/></g></g><path d="m185.393 56.162-44.388 44.388 24.77 27.778c20.115-20.202 37.887-35.899 49.395-45.615z" fill="#e3986d"/><path d="m27.647 125.876c-26.084 47.295-30.062 80.744-26.558 103.009l42.046-48.639c-7.494-17.56-12.801-35.823-15.488-54.37z" fill="#7a8fa4"/><path d="m7.555 249.352c-2.793-5.509-5.171-12.277-6.466-20.467 63.618-96.813 136.755-169.316 179.652-207.823l16.157 16.156c6.323 6.323 5.884 16.694-.95 22.461-31.355 26.459-112.58 100.07-160.51 189.849-5.981 11.187-22.156 11.138-27.883-.176z" fill="#a6b6c4"/><path d="m90.471 253.348-40.099 35.756c-13.558 12.089-14.158 33.092-1.314 45.937l28.058 28.058c12.845 12.845 33.847 12.244 45.937-1.314l43.999-49.342c-28.512-14.626-54.695-34.981-76.581-59.095z" fill="#e8a882"/><g fill="#95a9ba"><path d="m40.363 173.445c-13.261 17.448-26.461 35.941-39.274 55.44 1.295 8.189 3.673 14.958 6.466 20.467 5.727 11.313 21.902 11.362 27.883.176 7.118-13.333 14.974-26.305 23.288-38.822-7.187-11.973-13.359-24.447-18.363-37.261z"/><path d="m350.99 105.709c2.23-14.004 6.407-27.357 12.244-39.777-17.743-17.976-33.791-33.035-46.975-44.87l-16.156 16.157c-6.323 6.323-5.884 16.694.95 22.461 11.391 9.612 29.368 25.454 49.937 46.029z"/></g></g></svg>