<?xml version="1.0" encoding="iso-8859-1"?>
<!-- Generator: Adobe Illustrator 19.0.0, SVG Export Plug-In . SVG Version: 6.00 Build 0)  -->
<svg version="1.1" id="Capa_1" xmlns="http://www.w3.org/2000/svg" xmlns:xlink="http://www.w3.org/1999/xlink" x="0px" y="0px"
	 viewBox="0 0 512 512" style="enable-background:new 0 0 512 512;" xml:space="preserve">
<path style="fill:#EBC9A0;" d="M272.033,284.057c-35.417,0-64.129-28.712-64.129-64.129V195.88L7.5,59.605
	c79.493,89.179,73.147,157.984,73.147,157.984s45.759,31.062,46.093,82.499c0,0,55.111,1.336,81.163,32.065
	c0-13.282,10.767-24.048,24.048-24.048h72.145v-24.048L272.033,284.057L272.033,284.057z"/>
<g>
	<path style="fill:#8CB4EB;" d="M368.226,203.895c-44.272,0-80.161,35.889-80.161,80.161c0,70.835-57.423,128.258-128.258,128.258
		S31.549,354.891,31.549,284.057v8.016c0,88.544,71.779,160.323,160.323,160.323c62.594,0,116.809-35.871,143.212-88.177h17.111
		v-104.21c0-13.282,10.767-24.048,24.048-24.048h8.016l-8.016-32.065L368.226,203.895L368.226,203.895z"/>
	<path style="fill:#8CB4EB;" d="M328.145,27.54h-40.081v32.065c0,13.282,10.767,24.048,24.048,24.048l0,0v-8.016
		c0-8.854,7.178-16.032,16.032-16.032h32.063C360.21,41.896,345.854,27.54,328.145,27.54z"/>
	<path style="fill:#8CB4EB;" d="M392.274,83.653h-40.081v32.065c0,13.282,10.767,24.048,24.048,24.048l0,0v-8.016
		c0-8.854,7.178-16.032,16.032-16.032h32.063C424.339,98.009,409.983,83.653,392.274,83.653z"/>
	<path style="fill:#8CB4EB;" d="M440.372,171.831h-40.081v32.065c0,13.282,10.767,24.048,24.048,24.048l0,0v-8.016
		c0-8.854,7.178-16.032,16.032-16.032h32.063C472.437,186.186,458.081,171.831,440.372,171.831z"/>
	<path style="fill:#8CB4EB;" d="M472.436,260.008h-40.081v32.065c0,13.282,10.767,24.048,24.048,24.048l0,0v-8.016
		c0-8.854,7.178-16.032,16.032-16.032h32.063C504.5,274.364,490.145,260.008,472.436,260.008z"/>
</g>
<polygon style="fill:#EBC9A0;" points="31.549,276.04 7.5,284.057 31.549,219.928 55.597,284.057 "/>
<g>
	<path style="fill:#739BD7;" d="M233.251,389.876L233.251,389.876c-10.981,9.138-17.331,22.684-17.331,36.97v33.566l24.859-9.944
		c9.56-3.824,16.701-12.006,19.198-21.994l0,0c2.573-10.293,0.693-21.194-5.18-30.031l-3.989-6.002
		C246.882,386.535,238.701,385.34,233.251,389.876z"/>
	<path style="fill:#739BD7;" d="M320.129,407.049c0,8.504,3.378,16.66,9.391,22.673l13.282,13.282
		c6.013,6.013,9.391,14.169,9.391,22.673v10.767V364.218c0-8.854-7.178-16.032-16.032-16.032l0,0
		c-8.854,0-16.032,7.178-16.032,16.032L320.129,407.049L320.129,407.049z"/>
</g>
<path d="M504.5,244.492c-4.142,0-7.5,3.358-7.5,7.5v9.1c-6.754-5.366-15.288-8.584-24.564-8.584h-64.129c-4.142,0-7.5,3.358-7.5,7.5
	s3.358,7.5,7.5,7.5h40.597v0.516c0,4.142,3.358,7.5,7.5,7.5s7.5-3.358,7.5-7.5v-0.516h8.532c10.931,0,20.217,7.176,23.394,17.064
	h-23.394c-12.545,0-22.827,9.868-23.496,22.25c-5.381-2.734-9.085-8.312-9.085-14.75c0-4.142-3.358-7.5-7.5-7.5s-7.5,3.358-7.5,7.5
	c0,17.396,14.152,31.548,31.548,31.548h40.081c4.142,0,7.5-3.358,7.5-7.5s-3.358-7.5-7.5-7.5h-32.581v-0.516
	c0-4.705,3.828-8.532,8.532-8.532H504.5c4.142,0,7.5-3.358,7.5-7.5v-40.081C512,247.85,508.642,244.492,504.5,244.492z"/>
<path d="M376.242,164.331c-4.142,0-7.5,3.358-7.5,7.5s3.358,7.5,7.5,7.5h40.597v0.516c0,4.142,3.358,7.5,7.5,7.5s7.5-3.358,7.5-7.5
	v-0.516h8.532c10.931,0,20.217,7.176,23.394,17.064h-23.394c-12.545,0-22.827,9.868-23.496,22.25
	c-5.381-2.734-9.085-8.312-9.085-14.75c0-4.142-3.358-7.5-7.5-7.5s-7.5,3.358-7.5,7.5c0,17.396,14.152,31.548,31.548,31.548h40.081
	c4.142,0,7.5-3.358,7.5-7.5s-3.358-7.5-7.5-7.5h-32.581v-0.516c0-4.705,3.828-8.532,8.532-8.532h32.064c4.142,0,7.5-3.358,7.5-7.5
	v-40.081c0-4.142-3.358-7.5-7.5-7.5s-7.5,3.358-7.5,7.5v9.1c-6.754-5.366-15.288-8.584-24.564-8.584L376.242,164.331
	L376.242,164.331z"/>
<path d="M264.016,35.041h40.597v0.516c0,4.142,3.358,7.5,7.5,7.5s7.5-3.358,7.5-7.5v-0.516h8.532
	c10.931,0,20.217,7.176,23.394,17.064h-23.394c-12.545,0-22.827,9.868-23.496,22.25c-5.381-2.734-9.085-8.312-9.085-14.75
	c0-4.142-3.358-7.5-7.5-7.5s-7.5,3.358-7.5,7.5c0,17.396,14.152,31.548,31.548,31.548h56.629v0.516c0,4.142,3.358,7.5,7.5,7.5
	s7.5-3.358,7.5-7.5v-0.516h8.533c10.931,0,20.217,7.176,23.394,17.064h-23.394c-12.546,0-22.828,9.868-23.496,22.25
	c-5.381-2.734-9.085-8.312-9.085-14.75c0-4.142-3.358-7.5-7.5-7.5s-7.5,3.358-7.5,7.5c0,17.396,14.152,31.548,31.548,31.548h40.081
	c4.142,0,7.5-3.358,7.5-7.5s-3.358-7.5-7.5-7.5h-32.581v-0.516c0-4.705,3.828-8.532,8.533-8.532h32.064c4.142,0,7.5-3.358,7.5-7.5
	v-40.08c0-4.142-3.358-7.5-7.5-7.5s-7.5,3.358-7.5,7.5v9.1c-6.754-5.366-15.288-8.584-24.564-8.584h-72.662v-0.516
	c0-4.705,3.828-8.532,8.532-8.532h32.064c4.142,0,7.5-3.358,7.5-7.5v-40.08c0-4.142-3.358-7.5-7.5-7.5s-7.5,3.358-7.5,7.5v9.1
	c-6.754-5.366-15.288-8.584-24.564-8.584h-64.129c-4.142,0-7.5,3.358-7.5,7.5S259.874,35.041,264.016,35.041z"/>
<path d="M400.291,299.573c4.142,0,7.5-3.358,7.5-7.5s-3.358-7.5-7.5-7.5c-16.005,0-30.443,6.807-40.597,17.668v-34.217
	c0-13.545,11.02-24.564,24.564-24.564c4.142,0,7.5-3.358,7.5-7.5s-3.358-7.5-7.5-7.5c-21.816,0-39.564,17.749-39.564,39.564v166.265
	l-9.87-9.87c-4.64-4.64-7.195-10.809-7.195-17.37v-42.832c0-4.142-3.358-7.5-7.5-7.5s-7.5,3.358-7.5,7.5v21.495
	c-12.051,15.516-26.973,28.568-43.836,38.417l2.499-9.997c1.005-4.019-1.438-8.09-5.457-9.095c-4.016-1.004-8.09,1.438-9.095,5.457
	l-4.04,16.159c-1.908,7.63-7.406,13.929-14.708,16.85l-14.573,5.829v-22.488c0-12.095,5.332-23.469,14.628-31.205
	c0,0,11.006-9.243,11.333-9.664c26.54-23.353,43.919-56.878,45.974-94.421h8.743c4.142,0,7.5-3.358,7.5-7.5s-3.358-7.5-7.5-7.5
	h-8.146c3.765-36.555,34.741-65.162,72.275-65.162h8.016c4.142,0,7.5-3.358,7.5-7.5s-3.358-7.5-7.5-7.5h-76.153
	c-13,0-24.429-6.82-30.921-17.064h75.01c4.142,0,7.5-3.358,7.5-7.5s-3.358-7.5-7.5-7.5H263.79c-0.184-1.484-0.29-2.991-0.29-4.524
	c0-20.175,16.414-36.589,36.589-36.589h20.04c4.142,0,7.5-3.358,7.5-7.5s-3.358-7.5-7.5-7.5h-20.04
	c-28.446,0-51.589,23.143-51.589,51.589c0,1.337,0.068,2.658,0.168,3.971c-23.339-3.546-41.281-23.746-41.281-48.06
	c0-26.805,21.808-48.613,48.613-48.613c4.142,0,7.5-3.358,7.5-7.5s-3.358-7.5-7.5-7.5c-35.076,0-63.613,28.537-63.613,63.613
	c0,33.834,26.554,61.575,59.915,63.497c7.685,18.853,26.204,32.18,47.786,32.18h19.146c-21.365,14.451-36.04,38.07-38.347,65.162
	h-8.856c-31.225,0-56.629-25.404-56.629-56.629v-24.048c0-2.483-1.229-4.806-3.283-6.202L11.718,53.403
	c-3.131-2.128-7.359-1.59-9.856,1.257s-2.48,7.109,0.04,9.936c39.767,44.612,57.027,83.685,64.504,108.608
	c5.526,18.421,6.666,32.024,6.831,38.824l-2.911,0.514c-4.079,0.72-6.803,4.61-6.083,8.689c0.72,4.08,4.615,6.806,8.689,6.083
	l6.618-1.168c9.522,7.575,37.71,33.069,39.586,70.571l-5.308,6.755c-2.559,3.257-1.993,7.972,1.264,10.531
	c1.374,1.08,3.007,1.603,4.629,1.603c2.222,0,4.423-0.984,5.902-2.867l3.92-4.989c11.048,0.775,50.029,5.052,70.861,27.269v5.151
	c0,4.142,3.358,7.5,7.5,7.5s7.5-3.358,7.5-7.5v-8.016c0-9.125,7.423-16.548,16.548-16.548h44.423
	c-13.908,51.334-60.895,89.209-116.569,89.209c-65.784,0-119.444-52.876-120.727-118.358l14.146,4.715
	c0.777,0.259,1.578,0.385,2.371,0.385c2.004,0,3.964-0.804,5.401-2.296c2.006-2.082,2.637-5.131,1.622-7.837l-24.048-64.129
	c-1.098-2.927-3.896-4.867-7.022-4.867s-5.925,1.939-7.022,4.867L0.478,281.423c-1.015,2.707-0.384,5.756,1.622,7.837
	c2.006,2.082,5.03,2.825,7.772,1.911l14.177-4.726v5.626c0,89.587,70.033,163.213,159.436,167.616
	c0.126,0.006,0.251,0.009,0.375,0.009c3.972,0,7.287-3.12,7.484-7.131c0.204-4.137-2.985-7.656-7.122-7.86
	c-44.922-2.213-84.467-23.626-110.895-56.08c23.502,19.47,53.648,31.187,86.48,31.187c18.15,0,35.476-3.589,51.316-10.081
	c-1.763,5.461-2.703,11.221-2.703,17.112v58.13h-16.548c-4.142,0-7.5,3.358-7.5,7.5s3.358,7.5,7.5,7.5h24.048
	c1.876,0,3.684-0.703,5.067-1.971c3.01-2.758,8.05-6.045,14.973-6.045s11.964,3.288,14.974,6.045
	c1.439,1.319,3.255,1.971,5.065,1.971c2.029,0,4.052-0.819,5.531-2.433c2.799-3.054,2.592-7.798-0.462-10.596
	c-7.027-6.44-15.944-9.987-25.107-9.987c-4.291,0-8.526,0.785-12.54,2.273v-13.744l20.144-8.058
	c6.292-2.516,11.739-6.601,15.927-11.726c19.963-8.799,38.044-21.469,53.176-37.15c0.372,10.003,4.435,19.354,11.552,26.471
	l13.282,13.282c4.639,4.64,7.194,10.808,7.194,17.37v19.299h-12.54c-4.142,0-7.5,3.358-7.5,7.5s3.358,7.5,7.5,7.5h24.048
	c1.876,0,3.684-0.703,5.067-1.971c3.01-2.758,8.05-6.045,14.973-6.045s11.964,3.288,14.974,6.045
	c1.439,1.319,3.255,1.971,5.065,1.971c2.029,0,4.052-0.819,5.531-2.433c2.799-3.054,2.592-7.798-0.462-10.596
	c-7.027-6.44-15.944-9.987-25.107-9.987c-5.749,0-11.399,1.401-16.548,4.032V340.17
	C359.694,317.784,377.906,299.573,400.291,299.573z M88.192,209.389c-0.748-17.913-6.918-61.15-44.777-116.292l145.008,98.605
	L88.192,209.389z M98.466,222.807l91.417-16.132l-57.857,73.636C126.238,253.862,110.251,234.225,98.466,222.807z M200.404,315.208
	c-19.57-14.122-44.637-19.443-59.88-21.434l59.88-76.21V315.208z M231.952,300.605c-6.065,0-11.734,1.725-16.548,4.703v-41.596
	c13.114,16.921,33.614,27.844,56.629,27.844h8.292c-0.188,3.048-0.489,6.065-0.899,9.048h-47.474V300.605z M26.927,269.675
	l-6.884,2.295l11.506-30.683l11.506,30.683l-6.884-2.295c-1.49-0.497-3.051-0.75-4.621-0.75l0,0
	C29.978,268.925,28.417,269.179,26.927,269.675z"/>
<g>
</g>
<g>
</g>
<g>
</g>
<g>
</g>
<g>
</g>
<g>
</g>
<g>
</g>
<g>
</g>
<g>
</g>
<g>
</g>
<g>
</g>
<g>
</g>
<g>
</g>
<g>
</g>
<g>
</g>
</svg>
