<svg height="512pt" viewBox="0 -8 512.001 512" width="512pt" xmlns="http://www.w3.org/2000/svg"><path d="m498.425781 279.019531v-248.078125c0-11.566406-9.386719-20.941406-20.964843-20.941406h-446.496094c-11.578125 0-20.964844 9.375-20.964844 20.941406v323.890625c0 11.566407 9.386719 20.941407 20.964844 20.941407h81.773437" fill="#43b0fc"/><path d="m398.125 51.527344h58.730469v282.722656h-405.289063v-282.722656h238.90625" fill="#ede6f5"/><path d="m340.429688 61.53125c-.648438 0-1.308594-.070312-1.949219-.203125-.640625-.128906-1.269531-.320313-1.878907-.570313-.601562-.25-1.179687-.558593-1.722656-.917968-.550781-.359375-1.058594-.78125-1.519531-1.242188-.460937-.457031-.878906-.976562-1.25-1.519531-.359375-.546875-.667969-1.128906-.917969-1.730469-.25-.597656-.441406-1.226562-.570312-1.867187-.132813-.640625-.191406-1.300781-.191406-1.949219 0-.660156.058593-1.3125.191406-1.960938.128906-.640624.320312-1.269531.570312-1.871093.25-.601563.558594-1.179688.917969-1.730469.371094-.539062.789063-1.050781 1.25-1.519531.460937-.460938.96875-.871094 1.519531-1.238281.542969-.363282 1.121094-.671876 1.722656-.921876.609376-.25 1.238282-.441406 1.878907-.570312 1.28125-.257812 2.609375-.257812 3.898437 0 .640625.128906 1.269532.320312 1.871094.570312.609375.25 1.191406.558594 1.730469.921876.550781.367187 1.058593.777343 1.519531 1.238281.460938.46875.878906.980469 1.238281 1.519531.363281.550781.671875 1.128906.921875 1.730469.25.601562.441406 1.230469.570313 1.871093.128906.648438.199219 1.300782.199219 1.960938 0 .648438-.070313 1.308594-.199219 1.949219-.128907.640625-.320313 1.269531-.570313 1.867187-.25.601563-.558594 1.183594-.921875 1.730469-.359375.542969-.777343 1.0625-1.238281 1.519531-.460938.460938-.96875.882813-1.519531 1.242188-.539063.359375-1.121094.667968-1.730469.917968-.601562.25-1.230469.441407-1.871094.570313-.640625.132813-1.300781.203125-1.949218.203125zm0 0"/><path d="m313.585938 168.148438-79.726563-46.042969c-9.816406-5.671875-22.089844 1.414062-22.089844 12.75v92.085937c0 11.335938 12.273438 18.421875 22.089844 12.75l79.726563-46.042968c9.8125-5.667969 9.8125-19.832032 0-25.5zm0 0" fill="#f05f90"/><path d="m226.492188 251.707031c-4.246094 0-8.488282-1.117187-12.359376-3.351562-7.742187-4.46875-12.363281-12.472657-12.363281-21.414063v-92.085937c0-8.9375 4.625-16.941407 12.363281-21.410157 7.742188-4.472656 16.984376-4.46875 24.726563 0l79.726563 46.042969c7.738281 4.46875 12.359374 12.472657 12.359374 21.410157s-4.621093 16.941406-12.359374 21.410156l-79.726563 46.042968c-3.871094 2.234376-8.117187 3.355469-12.367187 3.355469zm.015624-121.601562c-1.019531 0-1.855468.359375-2.375.660156-.882812.507813-2.363281 1.71875-2.363281 4.089844v92.085937c0 2.375 1.480469 3.582032 2.363281 4.09375.882813.507813 2.667969 1.183594 4.726563-.003906l79.726563-46.042969c2.050781-1.1875 2.359374-3.070312 2.359374-4.089843 0-1.019532-.308593-2.902344-2.359374-4.089844l-79.726563-46.042969c-.84375-.488281-1.640625-.660156-2.351563-.660156zm0 0"/><path d="m125.773438 278.113281c-6.09375 0-11.035157 4.945313-11.035157 11.042969v186.023438c0 6.097656 4.941407 11.039062 11.035157 11.039062h365.191406c6.09375 0 11.035156-4.941406 11.035156-11.039062v-186.027344c0-6.097656-4.941406-11.039063-11.035156-11.039063zm0 0" fill="#52607e"/><path d="m508.425781 277.429688v-246.488282c0-17.0625-13.890625-30.941406-30.964843-30.941406h-446.496094c-17.074219 0-30.964844 13.878906-30.964844 30.941406v323.890625c0 17.0625 13.890625 30.945313 30.964844 30.945313h73.773437v89.402344c0 11.601562 9.4375 21.039062 21.035157 21.039062h365.191406c11.601562 0 21.035156-9.4375 21.035156-21.039062v-186.027344c0-4.335938-1.320312-8.371094-3.574219-11.722656zm-477.460937 88.347656c-6.046875 0-10.964844-4.910156-10.964844-10.945313v-323.890625c0-6.03125 4.917969-10.941406 10.964844-10.941406h446.496094c6.042968 0 10.964843 4.910156 10.964843 10.941406v237.175782h-21.570312v-216.589844c0-5.523438-4.476563-10-10-10h-58.730469c-5.523438 0-10 4.476562-10 10 0 5.519531 4.476562 10 10 10h48.730469v206.589844h-321.082031c-11.601563 0-21.039063 9.4375-21.039063 21.039062v35.09375h-43.167969v-262.722656h228.90625c5.523438 0 10-4.480469 10-10 0-5.523438-4.476562-10-10-10h-238.90625c-5.519531 0-10 4.476562-10 10v282.722656c0 5.523438 4.480469 10 10 10h53.167969v21.527344zm461.035156 109.402344c0 .574218-.464844 1.039062-1.035156 1.039062h-365.191406c-.574219 0-1.039063-.464844-1.039063-1.039062v-186.023438c0-.574219.464844-1.042969 1.039063-1.042969h365.191406c.570312 0 1.035156.46875 1.035156 1.039063zm0 0"/><path d="m161.269531 315.789062h40.207031v40.214844h-40.207031zm0 0" fill="#e7ebed"/><path d="m201.476562 366.003906h-40.207031c-5.523437 0-10-4.476562-10-10v-40.214844c0-5.523437 4.476563-10 10-10h40.207031c5.523438 0 10 4.476563 10 10v40.214844c0 5.523438-4.476562 10-10 10zm-30.207031-20h20.207031v-20.214844h-20.207031zm0 0"/><path d="m161.269531 391.199219h40.207031v40.214843h-40.207031zm0 0" fill="#e7ebed"/><path d="m201.476562 441.414062h-40.207031c-5.523437 0-10-4.476562-10-10v-40.214843c0-5.523438 4.476563-10 10-10h40.207031c5.523438 0 10 4.476562 10 10v40.214843c0 5.523438-4.476562 10-10 10zm-30.207031-20h20.207031v-20.214843h-20.207031zm0 0"/><path d="m245.933594 315.789062h40.207031v40.214844h-40.207031zm0 0" fill="#e7ebed"/><path d="m286.140625 366.003906h-40.207031c-5.523438 0-10-4.476562-10-10v-40.214844c0-5.523437 4.476562-10 10-10h40.207031c5.523437 0 10 4.476563 10 10v40.214844c0 5.523438-4.476563 10-10 10zm-30.207031-20h20.207031v-20.214844h-20.207031zm0 0"/><path d="m245.933594 391.199219h40.207031v40.214843h-40.207031zm0 0" fill="#e7ebed"/><path d="m286.140625 441.414062h-40.207031c-5.523438 0-10-4.476562-10-10v-40.214843c0-5.523438 4.476562-10 10-10h40.207031c5.523437 0 10 4.476562 10 10v40.214843c0 5.523438-4.476563 10-10 10zm-30.207031-20h20.207031v-20.214843h-20.207031zm0 0"/><path d="m330.597656 315.789062h40.207032v40.214844h-40.207032zm0 0" fill="#e7ebed"/><path d="m370.804688 366.003906h-40.207032c-5.523437 0-10-4.476562-10-10v-40.214844c0-5.523437 4.476563-10 10-10h40.207032c5.519531 0 10 4.476563 10 10v40.214844c0 5.523438-4.480469 10-10 10zm-30.207032-20h20.207032v-20.214844h-20.207032zm0 0"/><path d="m330.597656 391.199219h40.207032v40.214843h-40.207032zm0 0" fill="#e7ebed"/><path d="m370.804688 441.414062h-40.207032c-5.523437 0-10-4.476562-10-10v-40.214843c0-5.523438 4.476563-10 10-10h40.207032c5.519531 0 10 4.476562 10 10v40.214843c0 5.523438-4.480469 10-10 10zm-30.207032-20h20.207032v-20.214843h-20.207032zm0 0"/><path d="m415.261719 315.789062h40.203125v40.214844h-40.203125zm0 0" fill="#e7ebed"/><path d="m455.464844 366.003906h-40.203125c-5.523438 0-10-4.476562-10-10v-40.214844c0-5.523437 4.476562-10 10-10h40.203125c5.523437 0 10 4.476563 10 10v40.214844c0 5.523438-4.476563 10-10 10zm-30.203125-20h20.203125v-20.214844h-20.203125zm0 0"/><path d="m415.261719 391.199219h40.203125v40.214843h-40.203125zm0 0" fill="#e7ebed"/><path d="m455.464844 441.414062h-40.203125c-5.523438 0-10-4.476562-10-10v-40.214843c0-5.523438 4.476562-10 10-10h40.203125c5.523437 0 10 4.476562 10 10v40.214843c0 5.523438-4.476563 10-10 10zm-30.203125-20h20.203125v-20.214843h-20.203125zm0 0"/></svg>