<svg id="Capa_1" enable-background="new 0 0 512 512" height="512" viewBox="0 0 512 512" width="512" xmlns="http://www.w3.org/2000/svg"><g><g><path d="m372.075 268.94c-39.244.643-77.661-2.69-103.959-29.609-11.667-11.942-20.024-28.784-20.941-45.671v-70.5h-150.84l5.98 58.58 4.271 41.885c1.588 15.578-1.102 31.255-7.524 45.536-5.719 12.719-11.687 31.607-11.687 55.049v21.69c0 15.41 12.5 27.91 27.92 27.91h285.06c15.238 0 27.59-12.352 27.59-27.59v-21.41c0-30.86-25.02-55.87-55.87-55.87z" fill="#ffd88e"/></g><g><path d="m84.05 10 12.29 113.158h137.11l6.556-113.158z" fill="#ffdad5"/></g><g><path d="m427.935 346.42c.01.13.01.26-.01.38-.09 9.53-1.84 19.09-5.24 28.01-6.32 16.57-29.62 40.54-30.17 58.31-6.75-5.61-15.42-8.98-24.88-8.98-8.88 0-17.07 2.98-23.62 7.98-.14-.16-.25-.27-.27-.27l-7.23-10.32c-4.41-6.08-11.46-9.68-18.97-9.68h-119.97c-7.76 0-15.02 3.85-19.39 10.27l-6.61 9.73c-6.49-4.84-14.53-7.71-23.26-7.71-9.73 0-18.61 3.56-25.44 9.45h-.21v-1.36c0-17.95-23.62-40.65-30.03-57.42-3.49-9.21-5.26-19.07-5.26-28.91 0 15.41 12.5 27.91 27.92 27.91h284.75c15.23 0 27.62-12.22 27.89-27.39z" fill="#fff"/></g><g><circle cx="148.311" cy="463.069" fill="#838eb1" r="38.931"/></g><g><circle cx="367.645" cy="463.069" fill="#838eb1" r="38.931"/></g><g><circle cx="148.311" cy="463.069" fill="#838eb1" r="38.931"/></g><g><circle cx="367.645" cy="463.069" fill="#838eb1" r="38.931"/></g><g><path d="m352.1 268.66v.01c-30.026 28.601-76.27 32.488-110.024 8.399-27.424-19.572-47.607-49.048-47.607-83.411v-70.5h52.71v70.5c.001 0 2.021 73.732 104.921 75.002z" fill="#a0c8ff"/></g><g><path d="m152.797 13.83c2.093 5.023 8.027 7.494 13.06 5.4 5.031-2.092 7.491-8.012 5.41-13.05-2.078-5.032-8.034-7.496-13.06-5.41-5.047 2.095-7.479 8.011-5.41 13.06z"/><path d="m153.857 454.76c-7.141-4.758-16.9 1.536-15.393 10.019.778 4.38 4.43 7.793 8.864 8.24 4.325.436 8.562-2.117 10.219-6.129 1.788-4.328.249-9.552-3.69-12.13z"/><path d="m365.687 453.27c-4.261.809-7.577 4.524-7.994 8.821-.42 4.336 2.103 8.537 6.124 10.209 3.929 1.634 8.62.528 11.397-2.7 2.697-3.135 3.174-7.711 1.194-11.333-2.061-3.77-6.501-5.854-10.721-4.997z"/><path d="m437.945 324.81c0-36.321-29.549-65.87-65.87-65.87-28.191 0-59.241-.31-83.795-16.06-16.758-10.75-29.859-29.134-31.101-49.448v-70.273c0-5.523-4.477-10-10-10h-3.134l5.944-102.58c.159-2.748-.821-5.44-2.711-7.442-1.888-2.002-4.519-3.137-7.272-3.137h-34.119c-5.523 0-10 4.477-10 10s4.477 10 10 10h23.523l-5.398 93.154h-118.701l-10.116-93.154h22.707c5.523 0 10-4.477 10-10s-4.477-10-10-10h-33.852c-2.84 0-5.546 1.208-7.443 3.322s-2.805 4.935-2.499 7.758l22.529 213.559c1.388 13.615-.927 27.592-6.696 40.421-5.733 12.749-12.567 33.359-12.567 59.15v21.69c0 11.188 1.988 22.107 5.919 32.48 2.94 7.694 8.372 15.576 14.123 23.922 6.456 9.37 13.67 19.858 15.008 27.55-8.089 8.732-13.045 20.404-13.045 33.217 0 26.98 21.95 48.931 48.931 48.931s48.931-21.95 48.931-48.931c0-12.561-4.762-24.029-12.57-32.702l1.78-2.62c2.514-3.692 6.672-5.897 11.124-5.897h119.97c4.264 0 8.308 2.052 10.833 5.493l2.471 3.527c-7.546 8.612-12.134 19.877-12.134 32.199 0 26.98 21.95 48.931 48.931 48.931s48.931-21.95 48.931-48.931c0-12.999-5.105-24.822-13.404-33.593 2.089-7.713 8.845-17.861 14.932-26.988 5.678-8.513 11.042-16.555 13.926-24.116 3.644-9.56 5.601-19.671 5.855-30.067.109-.225.042-22.558.059-23.495zm-20 0v21.308c-.297 9.673-8.186 17.646-17.943 17.692h-284.707c-9.881 0-17.92-8.035-17.92-17.91v-21.69c0-22.246 5.877-39.984 10.807-50.948 7.208-16.03 10.097-33.545 8.352-50.652l-2.237-21.92 22.978-9.351c15.008-6.1 24.705-20.515 24.705-36.724 0-.134-.003-.268-.008-.402l-.847-21.053h23.344v60.498c0 34.689 18.88 68.059 51.798 91.55 16.709 11.925 36.215 17.782 55.682 17.782 22.987 0 45.908-8.185 64.103-24.177 5.656.126 11.04.127 16.023.127 25.293 0 45.87 20.577 45.87 45.87zm-163.52-86.114c16.513 21.691 42.313 33.263 68.69 37.729-24.189 10.683-52.88 8.455-75.23-7.496-27.592-19.69-43.416-47.126-43.416-75.271v-60.498h32.705v60.5c.001 15.998 7.686 32.573 17.251 45.036zm-112.445-83.901c-.071 7.959-4.857 15.017-12.239 18.017l-17.559 7.145-4.775-46.798h33.702zm6.33 337.205c-15.953 0-28.931-12.978-28.931-28.931 0-11.963 7.298-22.253 17.676-26.651 9.087-3.834 19.756-2.7 27.829 2.96 7.464 5.237 12.357 13.901 12.357 23.692 0 15.952-12.978 28.93-28.931 28.93zm169.235-90.15h-119.97c-11.076 0-21.415 5.474-27.662 14.651l-1.359 2.001c-12.189-5.555-26.501-5.768-38.877-.676-3.543-9.1-9.734-18.084-15.79-26.872-1.823-2.646-3.611-5.24-5.248-7.729 2.189.389 4.434.584 6.656.584h284.75c2.271.017 4.538-.178 6.775-.568-1.666 2.617-3.491 5.354-5.355 8.148-5.791 8.683-11.708 17.554-15.356 26.372-12.549-5.105-27.047-4.78-39.312 1.015l-2.091-2.985c-6.128-8.672-16.575-13.941-27.161-13.941zm50.1 90.15c-15.953 0-28.931-12.978-28.931-28.931 0-9.883 4.984-18.62 12.567-23.841 10.394-7.146 24.618-6.613 34.459 1.292 6.6 5.307 10.835 13.441 10.835 22.549.001 15.953-12.977 28.931-28.93 28.931z"/></g></g></svg>