<svg height="512pt" viewBox="-15 0 511 512" width="512pt" xmlns="http://www.w3.org/2000/svg"><path d="m450.050781 502h-417.128906c-12.382813 0-22.421875-10.039062-22.421875-22.421875v-447.15625c0-12.382813 10.039062-22.421875 22.421875-22.421875h417.128906c12.382813 0 22.421875 10.039062 22.421875 22.421875v447.15625c0 12.382813-10.039062 22.421875-22.421875 22.421875zm0 0" fill="#ede6f5"/><path d="m450.050781 512h-417.128906c-17.878906 0-32.421875-14.542969-32.421875-32.421875v-447.15625c0-17.878906 14.542969-32.421875 32.421875-32.421875h417.128906c17.878907 0 32.421875 14.542969 32.421875 32.421875v447.15625c0 17.878906-14.542968 32.421875-32.421875 32.421875zm-417.128906-492c-6.851563 0-12.421875 5.570312-12.421875 12.421875v447.15625c0 6.851563 5.570312 12.421875 12.421875 12.421875h417.128906c6.851563 0 12.421875-5.570312 12.421875-12.421875v-447.15625c0-6.851563-5.570312-12.421875-12.421875-12.421875zm0 0"/><path d="m412.90625 471.90625h-103.085938c-5.519531 0-10-4.476562-10-10s4.480469-10 10-10h103.085938c5.222656 0 9.46875-4.246094 9.46875-9.46875v-143.167969c0-5.523437 4.476562-10 10-10s10 4.476563 10 10v143.167969c0 16.25-13.222656 29.46875-29.46875 29.46875zm0 0"/><path d="m173.148438 471.90625h-103.082032c-16.25 0-29.46875-13.21875-29.46875-29.46875v-153.195312c0-5.519532 4.476563-10 10-10 5.523438 0 10 4.480468 10 10v153.195312c0 5.222656 4.246094 9.46875 9.46875 9.46875h103.082032c5.523437 0 10 4.476562 10 10s-4.476563 10-10 10zm0 0"/><path d="m432.375 263.988281c-.648438 0-1.308594-.058593-1.960938-.1875-.628906-.128906-1.257812-.320312-1.867187-.570312-.601563-.25-1.179687-.558594-1.722656-.921875-.546875-.367188-1.058594-.777344-1.519531-1.238282-.457032-.460937-.878907-.980468-1.25-1.519531-.359376-.550781-.660157-1.128906-.910157-1.730469-.25-.601562-.449219-1.230468-.578125-1.871093-.128906-.648438-.191406-1.300781-.191406-1.957031 0-.652344.058594-1.300782.191406-1.953126.128906-.640624.320313-1.269531.570313-1.867187.25-.601563.558593-1.179687.917969-1.730469.371093-.539062.792968-1.058594 1.25-1.519531.460937-.460937.972656-.882813 1.519531-1.242187.542969-.359376 1.121093-.667969 1.722656-.917969.609375-.25 1.238281-.441407 1.867187-.570313 1.292969-.261718 2.621094-.261718 3.910157 0 .640625.128906 1.273437.320313 1.871093.570313.609376.25 1.191407.558593 1.730469.917969.550781.359374 1.058594.78125 1.519531 1.242187.460938.460937.878907.976563 1.242188 1.519531.359375.550782.667969 1.128906.917969 1.730469.25.597656.441406 1.226563.570312 1.867187.128907.652344.199219 1.300782.199219 1.953126 0 .65625-.070312 1.308593-.199219 1.957031-.128906.640625-.320312 1.273437-.570312 1.871093-.25.601563-.558594 1.179688-.917969 1.730469-.363281.539063-.78125 1.058594-1.242188 1.519531-.460937.460938-.96875.871094-1.519531 1.238282-.539062.363281-1.121093.671875-1.730469.921875-.597656.25-1.230468.441406-1.871093.570312-.636719.128907-1.296875.1875-1.949219.1875zm0 0"/><path d="m50.597656 263.988281c-2.632812 0-5.210937-1.058593-7.070312-2.917969-.460938-.460937-.882813-.980468-1.242188-1.519531-.359375-.550781-.667968-1.132812-.917968-1.730469-.25-.601562-.441407-1.230468-.570313-1.871093-.132813-.648438-.199219-1.300781-.199219-1.960938 0-.648437.066406-1.300781.199219-1.949219.128906-.640624.320313-1.269531.570313-1.867187.25-.601563.558593-1.183594.917968-1.730469.359375-.542968.78125-1.0625 1.242188-1.519531.457031-.460937.96875-.882813 1.519531-1.242187.539063-.359376 1.117187-.667969 1.730469-.917969.597656-.25 1.230468-.441407 1.867187-.570313 1.292969-.261718 2.621094-.261718 3.902344 0 .640625.128906 1.269531.320313 1.878906.570313.601563.25 1.179688.558593 1.71875.917969.550781.359374 1.0625.78125 1.519531 1.242187 1.863282 1.867187 2.933594 4.4375 2.933594 7.066406 0 .660157-.0625 1.3125-.191406 1.960938-.128906.640625-.320312 1.269531-.570312 1.871093-.25.601563-.558594 1.179688-.929688 1.730469-.359375.539063-.78125 1.058594-1.242188 1.519531-1.859374 1.859376-4.4375 2.917969-7.066406 2.917969zm0 0"/><path d="m183.175781 50.09375h-113.109375c-10.753906 0-19.46875 8.714844-19.46875 19.46875v143.167969zm0 0" fill="#52607e"/><path d="m50.59375 222.734375c-1.121094 0-2.253906-.191406-3.351562-.582031-3.984376-1.417969-6.644532-5.1875-6.644532-9.421875v-143.167969c0-16.25 13.21875-29.46875 29.46875-29.46875h113.109375c3.859375 0 7.375 2.222656 9.03125 5.710938 1.65625 3.484374 1.160157 7.617187-1.28125 10.605468l-132.578125 162.640625c-1.9375 2.375-4.804687 3.683594-7.753906 3.683594zm19.472656-162.640625c-5.222656 0-9.46875 4.246094-9.46875 9.46875v115.074219l101.523438-124.542969zm0 0"/><path d="m432.375 202.707031v-133.144531c0-10.753906-8.71875-19.46875-19.46875-19.46875h-113.109375zm0 0" fill="#52607e"/><path d="m432.378906 212.707031c-2.84375 0-5.617187-1.210937-7.554687-3.441406l-132.578125-152.613281c-2.566406-2.957032-3.175782-7.144532-1.550782-10.707032s5.183594-5.851562 9.101563-5.851562h113.105469c16.25 0 29.472656 13.21875 29.472656 29.46875v133.144531c0 4.171875-2.59375 7.90625-6.5 9.367188-1.140625.425781-2.324219.632812-3.496094.632812zm-110.648437-152.613281 100.644531 115.855469v-106.386719c0-5.222656-4.246094-9.46875-9.46875-9.46875zm0 0"/><path d="m241.484375 50.046875 150.003906 172.539063h-300.003906zm0 0" fill="#43b0fc"/><path d="m391.488281 232.585938h-300.003906c-3.917969 0-7.476563-2.285157-9.101563-5.851563s-1.015624-7.753906 1.554688-10.707031l150-172.539063c1.902344-2.1875 4.652344-3.441406 7.546875-3.441406 2.898437 0 5.648437 1.257813 7.546875 3.441406l150.003906 172.539063c2.570313 2.953125 3.179688 7.140625 1.554688 10.707031s-5.183594 5.851563-9.101563 5.851563zm-278.058593-20h256.113281l-128.058594-147.296876zm0 0"/><path d="m342.578125 317.597656c-.972656.972656-1.859375 1.996094-2.683594 3.054688l-.007812-.007813-.511719.679688s0 0-.003906.003906l-61.21875 85.921875c-4.371094 5.757812-3.816406 13.859375 1.292968 18.972656 5.113282 5.109375 13.214844 5.664063 18.972657 1.289063l86.585937-61.703125-.007812-.007813c1.070312-.828125 2.101562-1.722656 3.082031-2.703125 12.566406-12.566406 12.566406-32.9375 0-45.5-12.5625-12.5625-32.933594-12.5625-45.5 0zm0 0" fill="#f05f90"/><path d="m289.695312 440.429688c-6.3125 0-12.597656-2.414063-17.320312-7.136719-8.5625-8.5625-9.53125-22.269531-2.285156-31.953125l61.085937-85.738282c.074219-.105468.148438-.207031.226563-.3125l.511718-.675781c.125-.167969.257813-.328125.390626-.484375 1.019531-1.285156 2.09375-2.492187 3.199218-3.601562h.003906c16.441407-16.445313 43.199219-16.441406 59.644532 0 7.964844 7.964844 12.355468 18.554687 12.355468 29.820312s-4.390624 21.855469-12.355468 29.820313c-1.109375 1.109375-2.328125 2.191406-3.621094 3.21875-.230469.195312-.472656.386719-.722656.5625l-86.480469 61.628906c-4.34375 3.25-9.496094 4.847656-14.632813 4.851563zm57.753907-113.203126-61.152344 85.828126c-.058594.082031-.117187.164062-.179687.242187-1.339844 1.769531-1.167969 4.28125.398437 5.851563 1.570313 1.570312 4.085937 1.742187 5.855469.402343.078125-.0625.160156-.121093.242187-.183593l86.214844-61.4375c.015625-.011719.03125-.023438.050781-.039063.792969-.613281 1.488282-1.222656 2.128906-1.863281 4.191407-4.191406 6.496094-9.757813 6.496094-15.679688s-2.304687-11.492187-6.492187-15.679687c-8.648438-8.640625-22.714844-8.644531-31.363281 0-.640626.640625-1.246094 1.332031-1.851563 2.113281-.066406.082031-.132813.164062-.195313.246094zm0 0"/><path d="m140.394531 317.597656c.972657.972656 1.859375 1.996094 2.683594 3.054688l.007813-.007813.507812.679688c.003906 0 .003906 0 .003906.003906l61.21875 85.921875c4.375 5.757812 3.820313 13.859375-1.289062 18.972656-5.113282 5.109375-13.214844 5.664063-18.972656 1.289063l-86.589844-61.703125.007812-.007813c-1.066406-.828125-2.101562-1.722656-3.082031-2.703125-12.566406-12.566406-12.566406-32.9375 0-45.5s32.9375-12.5625 45.503906 0zm0 0" fill="#f05f90"/><path d="m193.273438 440.425781c-5.132813.003907-10.285157-1.597656-14.628907-4.847656l-86.484375-61.628906c-.25-.175781-.492187-.367188-.722656-.566407-1.292969-1.023437-2.507812-2.105468-3.617188-3.214843-7.964843-7.964844-12.351562-18.554688-12.351562-29.820313s4.386719-21.855468 12.351562-29.820312c16.445313-16.441406 43.203126-16.441406 59.644532 0h.003906c1.105469 1.105468 2.179688 2.316406 3.195312 3.597656.140626.160156.273438.324219.398438.492188l.503906.667968c.078125.101563.15625.207032.230469.316406l61.089844 85.738282c7.246093 9.683594 6.273437 23.390625-2.289063 31.953125-4.722656 4.722656-11.007812 7.132812-17.324218 7.132812zm-89.128907-82.492187 86.210938 61.4375c.082031.058594.164062.117187.246093.179687 1.765626 1.339844 4.285157 1.167969 5.855469-.398437 1.566407-1.570313 1.738281-4.085938.398438-5.851563-.0625-.082031-.121094-.164062-.179688-.246093l-61.300781-86.023438c-.066406-.082031-.132812-.164062-.199219-.246094-.605469-.78125-1.210937-1.476562-1.851562-2.113281-8.648438-8.644531-22.714844-8.644531-31.363281 0-4.1875 4.1875-6.492188 9.757813-6.492188 15.679687 0 5.921876 2.304688 11.488282 6.492188 15.675782.644531.644531 1.339843 1.253906 2.132812 1.867187.019531.011719.035156.023438.050781.039063zm0 0"/><path d="m282.25 312.632812c0-22.511718-18.25-40.761718-40.765625-40.761718-22.511719 0-40.761719 18.25-40.761719 40.761718 0 22.511719 18.25 40.761719 40.761719 40.761719 22.515625 0 40.765625-18.25 40.765625-40.761719zm0 0" fill="#ffdd52"/><path d="m241.484375 363.394531c-27.992187 0-50.761719-22.773437-50.761719-50.761719 0-27.988281 22.769532-50.761718 50.761719-50.761718s50.765625 22.773437 50.765625 50.761718c0 27.988282-22.773438 50.761719-50.765625 50.761719zm0-81.523437c-16.960937 0-30.761719 13.800781-30.761719 30.761718 0 16.964844 13.800782 30.761719 30.761719 30.761719 16.964844 0 30.765625-13.796875 30.765625-30.761719 0-16.960937-13.800781-30.761718-30.765625-30.761718zm0 0"/></svg>