<svg id="Capa_1" enable-background="new 0 0 511.707 511.707" height="512" viewBox="0 0 511.707 511.707" width="512" xmlns="http://www.w3.org/2000/svg"><g><g><path d="m159.594 356.841-45.855-45.855c-4.736-4.736-4.978-12.336-.554-17.364l138.026-156.866 82.613 82.613-156.867 138.026c-5.028 4.424-12.628 4.182-17.363-.554z" fill="#a0c8ff"/></g><g><path d="m101.628 368.952c-10.187-10.184-10.187-27.205 0-37.393l16.342-16.342 37.393 37.393-16.342 16.342c-10.326 10.326-27.068 10.325-37.393 0z" fill="#838eb1"/></g><g><path d="m263.994 79.806 126.783 126.783-56.954 12.785-82.613-82.614z" fill="#838eb1"/></g><g><path d="m427.908 179.793-137.133-137.133c4.572-4.527 8.014-7.925 8.506-8.357 38.124-33.76 96.418-32.397 132.904 4.088 36.396 36.396 37.841 94.52 4.334 132.643-.455.529-3.964 4.083-8.611 8.759z" fill="#838eb1"/></g><g><path d="m288.913 40.798 139.71 139.71c8.827 8.827 8.827 23.138 0 31.965-8.728 8.691-23.241 8.724-31.965 0l-139.71-139.71c-8.827-8.827-8.827-23.138 0-31.965 8.728-8.691 23.241-8.724 31.965 0z" fill="#fff"/></g><g><path d="m444.065 177.595c37.092-42.243 34.982-106.483-4.81-146.275-39.948-39.949-104.345-41.927-146.58-4.525-.286.252-.699.636-2.45 2.355-12.585-7.877-29.414-6.358-40.348 4.576-12.711 12.712-12.711 33.396 0 46.108l3.154 3.154-11.018 49.084-136.336 154.944c-6.982 7.935-7.429 19.524-1.586 27.938l-9.534 9.534c-11.363 11.364-13.929 29.422-6.086 43.479l-27.329 27.329c-26.646 26.647-26.646 70.005 0 96.652 26.344 26.345 70.308 26.345 96.652 0l158.266-158.266c18.689-18.69 49.101-18.688 67.786 0 18.476 18.475 18.476 49.311 0 67.786l-57.095 57.095c-3.905 3.906-3.905 10.237 0 14.143 3.906 3.905 10.236 3.905 14.143 0l57.095-57.095c26.486-26.487 26.486-69.584 0-96.071-26.484-26.485-69.583-26.487-96.071 0l-158.267 158.266c-18.633 18.634-49.734 18.634-68.368 0-18.849-18.849-18.849-49.52 0-68.368l27.329-27.329c14.056 7.842 32.115 5.277 43.479-6.086l9.539-9.539c3.869 2.686 8.4 4.058 12.949 4.058 5.343 0 10.698-1.869 14.984-5.64l44.214-38.904c4.146-3.648 4.55-9.967.901-14.113-3.647-4.146-9.966-4.55-14.113-.901l-44.214 38.904c-1.064.937-2.685.885-3.687-.118l-45.855-45.855c-1.003-1.002-1.055-2.622-.118-3.687l130.983-148.86 67.537 67.537-39.336 34.613c-4.146 3.648-4.551 9.967-.902 14.113s9.968 4.55 14.113.901l45.414-39.96 49.095-11.02 1.992 1.992c12.549 12.549 33.558 12.548 46.107 0 10.17-10.171 12.467-26.316 5.444-38.902 2.318-2.356 2.683-2.763 2.927-3.047zm-323.741 189.101c-4.392 0-8.52-1.71-11.625-4.815-6.338-6.337-6.337-16.913 0-23.25l9.27-9.271 23.251 23.251-9.271 9.27c-3.105 3.105-7.233 4.815-11.625 4.815zm185.632-324.946c34.358-30.386 86.688-28.758 119.157 3.713 32.363 32.362 34.078 84.608 3.91 118.953-.14.15-.457.482-1.152 1.193l-122.903-122.903c.467-.457.817-.797.988-.956zm31.051 166.66-74.834-74.834 7.598-33.848 101.084 101.084zm84.545-3.009c-4.914 4.914-12.908 4.914-17.822 0l-139.71-139.71c-4.914-4.914-4.914-12.909 0-17.823 4.849-4.851 12.973-4.851 17.822 0 0 0 139.191 139.425 139.996 140.026 4.587 4.901 4.46 12.762-.286 17.507z"/><path d="m262.637 283.769c-2.987-4.562-9.356-5.751-13.86-2.76-4.533 3.009-5.793 9.337-2.77 13.86 3.024 4.525 9.336 5.784 13.87 2.77 4.538-3.018 5.77-9.347 2.76-13.87z"/><path d="m273.337 229.161c3.905-3.905 3.905-10.237 0-14.142l-16.869-16.87c-3.905-3.906-10.237-3.905-14.142 0s-3.906 10.237 0 14.142l16.869 16.87c3.852 3.853 10.288 3.852 14.142 0z"/></g></g></svg>