<svg height="511pt" viewBox="-34 0 511 511.99991" width="511pt" xmlns="http://www.w3.org/2000/svg"><path d="m188.578125 81.363281c-45.304687-47.550781-86.144531-70.882812-106.78125-71.363281-22.148437 3.074219-34.195313 25.195312-40.914063 45.382812-7.417968 22.289063-5.863281 51.488282-.167968 65.144532 4.269531 10.246094 14.628906 22.457031 39.730468 22.457031h103.714844" fill="#f05f90"/><path d="m260.15625 142.984375h103.714844c25.097656 0 35.457031-12.210937 39.726562-22.457031 5.695313-13.65625 7.25-42.855469-.167968-65.144532-6.714844-20.1875-18.765626-42.308593-40.914063-45.382812-20.632813.480469-61.476563 23.8125-106.777344 71.363281" fill="#f05f90"/><path d="m37.480469 216.949219h369.355469v285.050781h-369.355469zm0 0" fill="#52607e"/><path d="m10.5 142.984375h423.3125v73.964844h-423.3125zm0 0" fill="#43b0fc"/><path d="m181.152344 142.984375h82.011718v73.964844h-82.011718zm0 0" fill="#ffdd52"/><path d="m181.152344 216.949219h82.011718v285.050781h-82.011718zm0 0" fill="#ffe681"/><path d="m222.15625 261.53125c-2.628906 0-5.210938-1.070312-7.070312-2.933594-.460938-.457031-.878907-.96875-1.238282-1.519531-.359375-.539063-.671875-1.117187-.921875-1.730469-.25-.597656-.4375-1.226562-.570312-1.867187-.128907-.640625-.199219-1.300781-.199219-1.949219 0-.652344.070312-1.3125.199219-1.949219.132812-.644531.320312-1.273437.570312-1.871093.25-.609376.5625-1.191407.921875-1.730469.359375-.550781.777344-1.058594 1.238282-1.519531.460937-.460938.96875-.878907 1.519531-1.242188.542969-.359375 1.121093-.667969 1.722656-.917969.609375-.25 1.238281-.449219 1.878906-.570312 1.289063-.261719 2.609375-.261719 3.898438 0 .640625.128906 1.269531.320312 1.871093.570312.609376.25 1.191407.558594 1.730469.917969.550781.363281 1.058594.78125 1.519531 1.242188.460938.460937.878907.96875 1.238282 1.519531.363281.539062.671875 1.121093.921875 1.730469.25.597656.449219 1.226562.570312 1.871093.128907.636719.199219 1.296875.199219 1.949219 0 .648438-.070312 1.308594-.199219 1.949219-.121093.640625-.320312 1.269531-.570312 1.867187-.25.613282-.558594 1.191406-.921875 1.730469-.359375.550781-.777344 1.0625-1.238282 1.519531-.460937.460938-.96875.882813-1.519531 1.242188-.539062.359375-1.121093.667968-1.730469.917968-.601562.25-1.230468.441407-1.871093.570313-.636719.132813-1.300781.203125-1.949219.203125zm0 0"/><path d="m260.15625 82.363281h-75.996094v60.621094h75.996094zm0 0" fill="#ede6f5"/><path d="m433.8125 132.984375h-25.71875c2.140625-3.054687 3.664062-6.039063 4.734375-8.609375 6.449219-15.457031 8.316406-47.4375.09375-72.148438-10.496094-31.53125-26.992187-49.070312-49.03125-52.1289058-.53125-.0742187-1.070313-.109375-1.605469-.09374995-26.195312.60937475-69.875 28.92968775-111.773437 72.35937475h-56.710938c-41.894531-43.429687-85.574219-71.75-111.769531-72.35937475-.539062-.01562505-1.074219.01953125-1.605469.09374995-22.039062 3.0585938-38.535156 20.5976558-49.03125 52.1289058-8.222656 24.710938-6.355469 56.691407.089844 72.148438 1.074219 2.566406 2.59375 5.554688 4.738281 8.609375h-25.722656c-5.523438 0-10 4.476563-10 10v73.964844c0 5.523437 4.476562 10 10 10h16.980469v275.050781c0 5.523438 4.476562 10 10 10h369.355469c5.523437 0 10-4.476562 10-10v-275.050781h16.976562c5.523438 0 10-4.476563 10-10v-73.964844c0-5.523437-4.476562-10-10-10zm-183.65625-40.621094v40.621094h-55.996094v-40.621094zm-59.003906 60.621094h62.011718v53.964844h-62.011718zm170.796875-132.953125c13.496093 2.3125 24.257812 15.261719 31.992187 38.507812 6.453125 19.394532 5.40625 46.207032.425782 58.144532-4.507813 10.816406-14.769532 16.300781-30.496094 16.300781h-93.714844v-50.621094c0-.464843-.035156-.925781-.097656-1.375 40.488281-40.652343 75.359375-59.984375 91.890625-60.957031zm-311.578125 38.507812c7.738281-23.246093 18.496094-36.195312 31.992187-38.507812 16.53125.972656 51.40625 20.304688 91.890625 60.957031-.0625.449219-.09375.910157-.09375 1.375v50.621094h-93.714844c-15.730468 0-25.992187-5.484375-30.5-16.304687-4.976562-11.933594-6.027343-38.746094.425782-58.140626zm-29.871094 94.445313h150.652344v53.964844h-150.652344zm26.980469 73.964844h123.671875v265.050781h-123.671875zm184.675781 265.050781v-201.578125c0-5.519531-4.476562-10-10-10s-10 4.480469-10 10v201.578125h-21.003906v-265.050781h62.011718v265.050781zm164.679688 0h-123.671876v-265.050781h123.671876zm26.976562-285.050781h-150.648438v-53.964844h150.648438zm0 0"/></svg>