<svg id="Capa_1" enable-background="new 0 0 512 512" height="512" viewBox="0 0 512 512" width="512" xmlns="http://www.w3.org/2000/svg"><g><g><path d="m10 113.262 42.246 99.899 104.025-85.629-37.051-117.44h-109.035z" fill="#ffdad5"/></g><g><path d="m93.335 356.956-21.584-83.218-23.899-56.835 118.759-97.894 50.076 71.068 114.053 21.675c9.195 1.747 18.701.744 27.329-2.884l48.74-20.495c7.06-2.592 13.698-2.722 19.914-.391 12.738 4.777 20.444 17.907 18.122 31.312-4.303 24.84-22.243 45.728-45.265 55.409l-289.62 121.785z" fill="#e0a083"/></g><g><path d="m445.831 289.917c-10.659 15.86-23.418 30.718-41.534 38.336l-94.185 39.605c-6.677 2.809-13.975 3.789-21.172 2.919-24.522-2.97-47.706 6.559-62.716 26.19-4.448 5.858-10.316 10.496-17.094 13.355l-60.607 25.481c-10.346 4.348-22.252-.51-26.6-10.846l-11.966-28.469 289.621-121.784c14.191-5.965 26.551-16.12 34.886-29.087 8.464-13.168 15.604-31.761 6.318-46.274l3.439 4.838c18.094 25.539 19.114 59.786 1.61 85.736z" fill="#ccd3dd"/></g><g><path d="m71.751 273.738 38.048-15.999c14.611-6.144 21.474-22.968 15.33-37.579l-20.909-49.723-56.37 46.466z" fill="#ccd3dd"/></g><g><path d="m502 501.908v-197.406h-30.439c-6.858 0-13.645 1.37-19.962 4.018l-47.262 19.832-.46.08-93.765 39.425c-6.688 2.809-13.965 3.779-21.172 2.919-24.502-2.964-47.733 6.551-62.706 26.2-4.458 5.858-10.326 10.486-17.104 13.345l-73.103 30.589c-6.318 2.649-13.105 4.018-19.963 4.018h-32.897c-6.518 0-12.985 1.23-19.043 3.639l-53.93 21.422v31.918h491.806z" fill="#838eb1"/></g><g><path d="m502 294.502h-30.438c-6.412 0-12.697.995-18.756 2.938.445-.65.893-1.302 1.323-1.94 19.555-29.001 18.854-68.021-1.755-97.112l-3.437-4.835c-9.758-14.83-29.435-21.481-46.005-14.396l-48.739 20.495c-6.835 2.873-14.299 3.663-21.586 2.277l-110.077-20.92-47.745-67.759c-2.988-4.241-8.987-5.465-13.403-2.752l-32.626-103.414c-1.313-4.161-5.173-6.991-9.537-6.991h-109.034c-5.516 0-9.99 4.466-10 9.982l-.185 103.169c-.002 1.344.266 2.675.79 3.912l39.444 93.273c-2.415 2.841-3.046 6.91-1.601 10.349l23.62 56.171 21.402 82.518c.121.466.275.922.461 1.365l28.589 68.002c.927 2.204 2.089 4.239 3.44 6.093-.027 0-.054.002-.081.002h-32.897c-7.836 0-15.486 1.462-22.734 4.345l-53.93 21.422c-3.809 1.513-6.309 5.196-6.309 9.294v31.918c0 5.522 4.477 10 10 10h324.844c5.522 0 10-4.478 10-10s-4.478-10-10-10h-174.097l40.11-17.548c6.595-2.886 13.59-4.349 20.791-4.349h24.259c5.523 0 10-4.478 10-10s-4.477-10-10-10h-24.259c-9.978 0-19.67 2.027-28.808 6.026l-81.99 35.87h-90.849v-15.13l47.625-18.918c4.89-1.944 10.053-2.931 15.347-2.931h32.897c8.223 0 16.241-1.614 23.822-4.794l73.129-30.599c8.301-3.502 15.624-9.209 21.171-16.498 13.134-17.233 32.754-24.608 54.068-22.288 8.28.915 16.63-.169 24.305-3.129.476-.183 142.906-59.879 142.906-59.879 5.128-2.15 10.543-3.24 16.096-3.24h20.439v41.496l-4.574-2.84c-10.674-6.626-23.762-7.26-35.025-1.702l-36.185 17.438c-4.976 2.397-7.065 8.375-4.668 13.35 2.365 4.907 8.435 7.036 13.35 4.668l36.231-17.46c.033-.017.066-.032.1-.049 5.03-2.493 10.879-2.213 15.648.748l15.123 9.389v54.247h-54.849c-3.385 0-6.773-.8-9.801-2.313l-26.915-13.457c-11.736-5.868-25.751-5.869-37.487 0l-26.979 13.489c-3.027 1.514-6.416 2.313-9.801 2.313h-17.38c-5.522 0-10 4.478-10 10s4.478 10 10 10h17.38c6.474 0 12.955-1.53 18.744-4.425l26.979-13.489c6.138-3.068 13.465-3.068 19.601 0l26.915 13.457c5.789 2.895 12.271 4.425 18.744 4.425h54.849v38.121h-68.429c-5.522 0-10 4.478-10 10s4.478 10 10 10h78.429c5.522 0 10-4.478 10-10v-197.405c0-5.523-4.478-10-10-10zm-211.784 66.354c-28.161-3.105-54.614 7.384-71.956 30.063-3.435 4.522-7.936 8.046-13.005 10.185l-.337.142-61.648 25.794c-4.886 1.285-10.116-1.175-12.129-5.958l-8.091-19.25 280.405-117.91c19.327-8.119 35.542-23.114 44.553-42.104 1.504 14.798-1.967 29.904-10.468 42.508-.004.005-.007.009-.01.014-8.327 12.391-20.07 27.531-37.11 34.696l-94.184 39.604c-4.988 2.094-10.534 2.86-16.02 2.216zm-174.305-136.82c3.947 9.385-.62 20.544-9.988 24.484l-28.831 12.122-17.139-40.757 40.258-33.185zm-95.744-203.943h91.722l32.814 104.01-88.466 72.821-36.233-85.681zm63.435 259.508 30.073-12.645c19.42-8.164 28.857-31.21 20.673-50.673l-18.024-42.863 48.325-39.834 40.712 57.778-12.714 31.166c-2.086 5.113.368 10.95 5.482 13.036 5.04 2.058 10.985-.451 13.037-5.481l11.69-28.656 33.396 6.347-10.127 24.823c-2.086 5.114.368 10.95 5.482 13.036 5.041 2.057 10.984-.451 13.037-5.481l11.654-28.568 33.396 6.347-10.164 24.916c-2.087 5.113.368 10.95 5.481 13.036 5.04 2.057 10.984-.451 13.036-5.481l11.698-28.676c10.884 1.898 21.999.651 32.199-3.64l48.51-20.398c8.353-2.997 17.32-.372 22.066 7.315 5.808 9.425.977 21.621-3.723 30.512-7.143 13.512-19.034 24.06-33.095 29.971l-280.402 117.905-12.467-29.647z"/><path d="m389.2 498.08c-3.463-8.319-15.796-7.948-18.694.617-2.963 8.756 7.005 16.56 14.807 11.652 4.079-2.564 5.71-7.825 3.887-12.269z"/></g></g></svg>