<svg id="Capa_1" enable-background="new 0 0 512 512" height="512" viewBox="0 0 512 512" width="512" xmlns="http://www.w3.org/2000/svg"><g><g><path d="m87.318 189.076h-54.035c-12.859 0-23.283 10.424-23.283 23.283 0 12.859 10.424 23.283 23.283 23.283h54.035z" fill="#ccd3dd"/></g><g><path d="m478.717 189.076h-54.035v46.566h54.035c12.859 0 23.283-10.424 23.283-23.283 0-12.859-10.424-23.283-23.283-23.283z" fill="#ccd3dd"/></g><g><path d="m424.68 189.08h-337.36v182.79c0 18.65 15.12 33.77 33.77 33.77h269.82c18.65 0 33.77-15.12 33.77-33.77z" fill="#ccd3dd"/></g><g><path d="m298.41 189.08v-21.86c0-8.88 3.6-16.91 9.41-22.73 5.82-5.81 13.86-9.41 22.73-9.41s16.91-3.6 22.73-9.42c5.82-5.81 9.42-13.85 9.42-22.73 0-19.72-15.99-35.71-35.72-35.71h-88.39c9.87 0 18.79 4 25.26 10.46 6.46 6.46 10.46 15.39 10.46 25.25 0 17.76-14.39 32.15-32.14 32.15h-60.72c-17.75 0-32.15 14.39-32.15 32.14v21.86z" fill="#fff"/></g><g><path d="m446.777 459.304v-41.38c0-6.785-5.5-12.285-12.285-12.285h-357.17c-6.785 0-12.285 5.5-12.285 12.285v41.38z" fill="#ddb7a2"/></g><g><path d="m110.315 459.304h291.185v41.196h-291.185z" fill="#e0a083"/></g><g><path d="m478.717 179.076-170.31.004v-11.857c0-12.211 9.934-22.145 22.145-22.145 23.238 0 42.145-18.906 42.145-42.145 0-25.208-20.509-45.716-45.717-45.716h-88.385c-14.181 0-25.717-11.536-25.717-25.716v-20c0-5.523-4.478-10-10-10s-10 4.477-10 10v20c0 25.208 20.509 45.716 45.717 45.716 14.181 0 25.717 11.536 25.717 25.716 0 12.211-9.935 22.145-22.146 22.145h-60.718c-23.238 0-42.145 18.906-42.145 42.145v11.857l-106.021-.004c-18.351 0-33.282 14.93-33.282 33.282 0 18.353 14.931 33.283 33.283 33.283h44.037v126.229c0 8.76 2.596 16.919 7.046 23.77h-7.045c-12.287 0-22.284 9.997-22.284 22.284v41.38c0 5.523 4.478 10 10 10h35.277v31.196c0 5.523 4.478 10 10 10h291.185c5.522 0 10-4.477 10-10v-31.196h35.278c5.522 0 10-4.477 10-10v-41.38c0-12.288-9.997-22.284-22.285-22.284h-6.858c4.449-6.851 7.046-15.01 7.046-23.77v-126.228h44.037c18.353 0 33.283-14.931 33.283-33.283 0-18.353-14.931-33.283-33.283-33.283zm-319.413-11.853c0-12.211 9.934-22.145 22.145-22.145h60.718c23.239 0 42.146-18.906 42.146-42.145 0-9.528-2.93-18.385-7.937-25.716h50.604c14.181 0 25.717 11.536 25.717 25.716 0 12.211-9.934 22.145-22.145 22.145-23.238 0-42.145 18.906-42.145 42.145v11.853h-129.103zm-81.986 58.419h-44.035c-7.324 0-13.283-5.959-13.283-13.283s5.959-13.283 13.283-13.283h44.035zm359.459 192.282v31.38h-137.507c-5.522 0-10 4.477-10 10s4.478 10 10 10h92.229v21.196h-271.185v-21.196h90.977c5.522 0 10-4.477 10-10s-4.478-10-10-10h-136.254v-31.38c0-1.259 1.024-2.284 2.284-2.284h357.171c1.26 0 2.285 1.025 2.285 2.284zm-315.687-22.284c-13.106 0-23.77-10.663-23.77-23.77v-172.79h317.36v172.79c0 13.107-10.663 23.77-23.77 23.77zm357.627-169.998h-44.035v-26.566h44.035c7.324 0 13.283 5.958 13.283 13.283s-5.959 13.283-13.283 13.283z"/><path d="m265.229 455.48c-2.096-5.032-8.004-7.493-13.05-5.41-5.035 2.079-7.501 8.029-5.41 13.06 2.09 5.031 8.022 7.496 13.061 5.41 5.029-2.082 7.49-8.041 5.399-13.06z"/></g></g></svg>