<svg height="512pt" viewBox="0 -33 512 511" width="512pt" xmlns="http://www.w3.org/2000/svg"><path d="m343.175781 149.507812c-7.035156 0-12.738281 5.703126-12.738281 12.742188v19.824219h107.101562v-32.566407zm0 0" fill="#43b0fc"/><path d="m55.578125 79.449219h-45.578125v76.402343h25.582031" fill="#43b0fc"/><path d="m459.40625 64.25h42.59375v54.113281h-42.59375zm0 0" fill="#ede6f5"/><path d="m343.175781 149.507812h116.230469v-85.257812h-397.847656l-28.105469 107.382812c-3.523437 13.457032 6.628906 26.613282 20.539063 26.613282h276.445312v-36c0-7.035156 5.703125-12.738282 12.738281-12.738282zm0 0" fill="#52607e"/><path d="m128.949219 64.25h187.578125v46.222656h-187.578125zm0 0" fill="#ede6f5"/><path d="m150.277344 336.371094 56.140625-138.125h-147.441407c-4.183593 0 40.234376 18.597656-.542968 87.824218l-32.574219 65.15625c-9.460937 20.503907-5.519531 44.949219 8.671875 62.296876 11.039062 13.40625 28.386719 21.289062 47.308594 21.289062h108.738281l9.144531-33.863281c8.792969-32.558594-15.726562-64.578125-49.445312-64.578125zm0 0" fill="#52607e"/><path d="m150.277344 388.929688h-73.875c-3.328125 0-6.4375-1.652344-8.296875-4.414063s-2.222657-6.265625-.96875-9.351563l56.140625-138.121093c2.078125-5.117188 7.910156-7.582031 13.027344-5.5 5.117187 2.078125 7.578124 7.914062 5.5 13.03125l-50.542969 124.355469h59.019531c5.523438 0 10 4.480468 10 10-.003906 5.523437-4.480469 10-10.003906 10zm0 0"/><path d="m118.96875 159.507812c-.648438 0-1.308594-.070312-1.949219-.199218-.640625-.132813-1.269531-.320313-1.871093-.570313-.609376-.25-1.1875-.5625-1.726563-.921875-.550781-.359375-1.0625-.777344-1.523437-1.238281-.457032-.460937-.878907-.96875-1.238282-1.519531-.359375-.542969-.667968-1.121094-.917968-1.730469-.25-.601563-.441407-1.230469-.570313-1.871094-.132813-.640625-.199219-1.300781-.199219-1.949219 0-.648437.066406-1.308593.199219-1.960937.128906-.628906.320313-1.257813.570313-1.867187.25-.601563.558593-1.183594.917968-1.722657.359375-.550781.78125-1.058593 1.238282-1.519531.460937-.460938.972656-.878906 1.523437-1.25.539063-.359375 1.117187-.660156 1.726563-.910156.601562-.25 1.230468-.449219 1.871093-.578125 1.289063-.261719 2.621094-.261719 3.910157 0 .628906.128906 1.261718.328125 1.871093.578125.597657.25 1.179688.5625 1.71875.910156.550781.371094 1.0625.789062 1.519531 1.25.460938.460938.882813.96875 1.25 1.519531.359376.539063.671876 1.121094.910157 1.722657.261719.609374.449219 1.238281.582031 1.867187.128906.652344.1875 1.3125.1875 1.960937 0 .648438-.058594 1.3125-.1875 1.949219-.132812.640625-.320312 1.269531-.582031 1.871094-.238281.609375-.550781 1.1875-.910157 1.730469-.367187.550781-.789062 1.058594-1.25 1.519531-.457031.460937-.96875.878906-1.519531 1.238281-.539062.359375-1.121093.671875-1.71875.921875-.609375.25-1.242187.4375-1.871093.570313-.648438.128906-1.308594.199218-1.960938.199218zm0 0"/><path d="m502 54.253906h-440.441406c-4.546875 0-8.523438 3.066406-9.675782 7.464844l-2.023437 7.730469h-39.859375c-5.523438 0-10 4.480469-10 10v76.402343c0 5.519532 4.476562 10 10 10h14.628906l-.851562 3.25c-2.46875 9.433594-.46875 19.277344 5.492187 26.996094 5.957031 7.722656 14.96875 12.148438 24.722657 12.148438h.609374c16.421876 15.003906 14.820313 39.46875-4.785156 72.75-.113281.195312-.222656.398437-.328125.605468l-32.574219 65.152344c-.046874.09375-.089843.1875-.132812.28125-10.859375 23.527344-6.929688 52.113282 10.03125 72.84375 13.050781 15.847656 33.105469 24.9375 55.027344 24.9375h108.734375c4.519531 0 8.476562-3.03125 9.65625-7.394531l9.144531-33.867187c5.011719-18.546876 1.183594-37.933594-10.496094-53.1875-8.730468-11.398438-20.832031-19.164063-34.40625-22.359376l12.574219-30.9375h57.457031c15.4375 0 29.214844-9.222656 35.09375-23.496093l26.914063-65.328125h33.925781c5.523438 0 10-4.476563 10-10v-6.167969h97.101562c5.519532 0 10-4.476563 10-10v-22.570313h11.867188c5.519531 0 10-4.476562 10-10v-21.140624h32.59375c5.523438 0 10-4.476563 10-10v-54.113282c0-5.523437-4.476562-10-10-10zm-195.472656 20v26.21875h-167.578125v-26.21875zm-286.527344 71.597656v-56.402343h24.625l-14.761719 56.402343zm163 216.675782c7.867188 10.269531 10.441406 23.324218 7.066406 35.8125l-7.148437 26.476562h-101.078125c-15.921875 0-30.351563-6.433594-39.566406-17.625-12.097657-14.785156-14.992188-35.039062-7.394532-51.640625l32.347656-64.703125c15.785157-26.902344 21.550782-50.445312 17.125-69.976562-1.101562-4.867188-2.734374-9.054688-4.59375-12.625h111.800782l-50.542969 124.359375c-1.253906 3.082031-.890625 6.585937.96875 9.347656s4.96875 4.417969 8.296875 4.417969c12.929688 0 24.859375 5.890625 32.71875 16.15625zm68.105469-96.574219c-2.78125 6.753906-9.296875 11.117187-16.601563 11.117187h-49.328125l27.972657-68.824218h61.734374zm176.433593-93.878906h-87.101562v-9.824219c0-1.511719 1.226562-2.742188 2.738281-2.742188h84.359375v12.566407zm21.867188-32.566407h-290.007812c-5.523438 0-10 4.476563-10 10 0 5.519532 4.476562 10 10 10h161.203124c-.109374.898438-.164062 1.8125-.164062 2.742188v25.996094h-266.445312c-3.507813 0-6.75-1.59375-8.890626-4.367188-2.144531-2.777344-2.863281-6.320312-1.976562-9.714844l26.152344-99.910156h49.671875v36.21875c0 5.523438 4.480469 10 10 10h187.578125c5.523437 0 10-4.476562 10-10v-36.21875h122.875v65.253906zm42.59375-31.144531h-22.59375v-34.109375h22.59375zm0 0"/><path d="m215.003906 36.886719c-5.523437 0-10-4.476563-10-10v-16.386719c0-5.523438 4.476563-10 10-10 5.523438 0 10 4.476562 10 10v16.386719c0 5.523437-4.476562 10-10 10zm0 0"/><path d="m173.699219 47.066406c-3.015625 0-5.992188-1.351562-7.960938-3.933594l-8.839843-11.589843c-3.351563-4.390625-2.503907-10.664063 1.886718-14.015625 4.390625-3.351563 10.664063-2.507813 14.015625 1.886718l8.839844 11.585938c3.351563 4.390625 2.507813 10.667969-1.882813 14.015625-1.8125 1.382813-3.945312 2.050781-6.058593 2.050781zm0 0"/><path d="m256.308594 47.066406c-2.113282 0-4.246094-.667968-6.054688-2.046875-4.394531-3.351562-5.238281-9.625-1.886718-14.019531l8.839843-11.585938c3.347657-4.390624 9.621094-5.238281 14.015625-1.886718 4.390625 3.351562 5.234375 9.625 1.886719 14.015625l-8.839844 11.589843c-1.96875 2.578126-4.945312 3.933594-7.960937 3.933594zm0 0"/></svg>