<?xml version="1.0" encoding="iso-8859-1"?>
<!-- Generator: Adobe Illustrator 19.0.0, SVG Export Plug-In . SVG Version: 6.00 Build 0)  -->
<svg version="1.1" id="Capa_1" xmlns="http://www.w3.org/2000/svg" xmlns:xlink="http://www.w3.org/1999/xlink" x="0px" y="0px"
	 viewBox="0 0 512 512" style="enable-background:new 0 0 512 512;" xml:space="preserve">
<g>
	<path style="fill:#FFB464;" d="M207.903,280.081c-44.272,0-80.161,35.889-80.161,80.161v12.024
		c0,28.777-23.328,52.105-52.105,52.105s-52.105-23.328-52.105-52.105v12.024c0,39.845,32.3,72.145,72.145,72.145
		s72.145-32.3,72.145-72.145c0-22.136,17.944-40.081,40.081-40.081h64.129V280.08h-64.129V280.081z"/>
	<path style="fill:#FFB464;" d="M235.986,320.161c-11.082,0-20.066,8.984-20.066,20.066v105.441c0-8.504,3.378-16.66,9.392-22.673
		l21.297-21.298c6.014-6.014,9.392-14.17,9.392-22.675l0.05-38.524C256.201,329.311,247.174,320.161,235.986,320.161
		L235.986,320.161z"/>
</g>
<g>
	<path style="fill:#FFD164;" d="M429.408,231.157c-3.357-10.072-5.069-20.619-5.069-31.236v-0.001
		c0-11.848,6.476-22.112,16.032-27.664v-4.401v-16.032c0-8.855,7.178-16.032,16.032-16.032H504.5l-3.29-13.162
		c-2.904-11.614-12.036-20.643-23.68-23.416L328.145,63.645l48.097,69.473v122.914c0,13.282-10.767,24.048-24.048,24.048h-88.177
		c-30.99,0-56.113,25.122-56.113,56.113v8.016h48.097c15.309-0.001,30.438,5.475,42.061,15.439l20.089,17.219
		c11.623,9.962,26.426,15.439,41.734,15.439h28.5c12.755,0,24.989-5.067,34.009-14.087l24.51-24.51
		c10.734-10.735,14.483-26.614,9.683-41.016L429.408,231.157z"/>
	<path style="fill:#FFD164;" d="M332.172,231.894l-166.687-57.025l30.496,45.744c11.431,17.146,28.066,30.169,47.455,37.149
		l203.292,72.954L332.172,231.894z"/>
</g>
<path style="fill:#FFB464;" d="M323.184,220.912c-11.781-9.123-13.896-25.839-9.636-39.909L87.661,103.726l30.496,45.744
	c11.431,17.146,28.066,30.169,47.455,37.149l206.631,74.153L323.184,220.912z"/>
<path style="fill:#FF8C69;" d="M268.742,112.937L7.5,23.565l30.496,45.744c11.431,17.146,28.066,30.169,47.455,37.149
	l226.662,81.341v-14.185C312.113,146.196,294.683,121.811,268.742,112.937z"/>
<polygon style="fill:#FF646F;" points="23.532,328.178 7.5,304.129 23.532,256.032 39.565,304.129 "/>
<g>
	<path style="fill:#FFB464;" d="M404.299,352.226c-11.068,0-20.04,8.972-20.04,20.04v73.403c0-8.504,3.378-16.66,9.392-22.673
		l21.297-21.298c6.014-6.014,9.392-14.17,9.392-22.675v-6.757C424.339,361.198,415.367,352.226,404.299,352.226L404.299,352.226z"/>
	<path style="fill:#FFB464;" d="M424.339,86.548l-96.194-22.903l35.379,51.103h36.766c13.282,0,24.048-10.767,24.048-24.048v-4.152
		H424.339z"/>
</g>
<path d="M440.037,107.049h-0.08c-4.142,0-7.46,3.358-7.46,7.5s3.398,7.5,7.54,7.5s7.5-3.358,7.5-7.5
	S444.179,107.049,440.037,107.049z"/>
<path d="M301.557,352.765c-12.741-10.376-28.796-16.088-45.231-16.088H256c-4.142,0-7.5,3.358-7.5,7.5v34.815
	c0,6.515-2.588,12.763-7.195,17.37l-17.886,17.886V328.46c0-4.107-3.164-7.688-7.269-7.811c-4.247-0.128-7.731,3.278-7.731,7.497
	v8.532h-0.516c-26.219,0-47.544,21.453-47.581,47.672c-0.05,35.603-29.03,64.554-64.645,64.554
	c-21.374,0-40.359-10.429-52.134-26.462c9.124,5.852,19.94,9.288,31.536,9.395c33.089,0.305,60.163-27.447,60.163-60.537v-11.09
	c0-40.13,32.532-72.661,72.661-72.661h15.718c4.107,0,7.688-3.164,7.811-7.269c0.128-4.247-3.278-7.731-7.497-7.731h-16.032
	c-48.414,0-87.662,39.247-87.662,87.662v11.234c0,24.959-20.425,45.816-45.38,45.389c-24.239-0.415-43.829-20.262-43.829-44.598
	V335.26c0-3.159,0.935-6.247,2.687-8.875l12.085-18.128c1.284-1.926,1.607-4.336,0.875-6.532l-15.942-47.826
	c-0.923-2.768-3.267-4.927-6.158-5.327c-3.641-0.504-7.033,1.665-8.163,5.056L0.385,301.725c-0.732,2.196-0.409,4.606,0.875,6.532
	l12.085,18.128c1.752,2.628,2.687,5.716,2.687,8.875v47.968c0,44.297,35.715,80.875,80.012,80.674
	c43.683-0.198,79.172-35.743,79.278-79.448c0.044-18.027,14.554-32.777,32.581-32.777h0.516v129.29h-12.226
	c-4.107,0-7.688,3.164-7.811,7.269c-0.128,4.247,3.278,7.731,7.497,7.731h24.048c1.896,0,3.705-0.727,5.105-2.005
	c3.014-2.751,8.042-6.011,14.935-6.011c6.922,0,11.964,3.288,14.974,6.046c1.44,1.319,3.255,1.97,5.065,1.97
	c2.112,0,4.217-0.887,5.709-2.634c2.667-3.122,2.154-7.883-0.898-10.63c-6.988-6.292-15.799-9.753-24.85-9.753
	c-5.749,0-11.399,1.401-16.548,4.032v-31.348c0-6.515,2.588-12.763,7.195-17.369l21.298-21.298
	c7.42-7.42,11.588-17.483,11.588-27.976v-26.856c10.484,1.346,20.478,5.618,28.709,12.36c3.434,2.813,8.616,2.071,11.087-1.783
	C305.358,359.498,304.52,355.178,301.557,352.765z M23.532,279.717l7.757,23.271l-7.757,11.636l-7.757-11.636L23.532,279.717z"/>
<path d="M511.776,133.939l-3.291-13.162c-3.596-14.387-14.792-25.458-29.219-28.893L329.883,56.317
	c-3.024-0.719-6.177,0.5-7.929,3.064c-1.753,2.565-1.743,5.946,0.025,8.501l46.763,67.547v117.918l-40.29-33.575
	c-5.617-4.681-8.839-11.559-8.839-18.871v-27.32c0-30.625-19.468-57.86-48.443-67.773L9.928,16.436
	c-3.041-1.04-6.408-0.027-8.37,2.52c-1.961,2.547-2.081,6.061-0.298,8.736l30.496,45.744c12.234,18.352,30.402,32.574,51.155,40.045
	l1.207,0.434l27.194,39.583c12.697,18.481,31.404,32.564,52.676,39.655l4.651,1.55l22.997,32.185
	c12.822,17.95,30.661,31.126,51.588,38.102l114.615,38.205c0.787,0.262,1.586,0.387,2.373,0.387c3.14,0,6.066-1.988,7.114-5.13
	c1.31-3.929-0.814-8.177-4.744-9.487L247.967,250.76c-17.9-5.967-33.159-17.236-44.125-32.59l-10.998-15.398l84.834,28.278
	c0.787,0.262,1.586,0.387,2.373,0.387c3.14,0,6.066-1.988,7.114-5.13c1.31-3.93-0.814-8.177-4.744-9.487l-113.689-37.896
	c-18.195-6.065-34.196-18.111-45.056-33.918l-15.379-22.385l145.164,52.259c3.899,1.403,8.194-0.619,9.597-4.516
	s-0.619-8.194-4.516-9.597L87.992,99.369C70.24,92.978,54.701,80.814,44.237,65.116l-18.214-27.32l240.291,82.205
	c22.908,7.837,38.299,29.369,38.299,53.581v27.32c0,11.777,5.189,22.855,14.236,30.394l84.656,70.547
	c1.402,1.168,3.104,1.739,4.797,1.739c2.149,0,4.282-0.919,5.766-2.699c2.652-3.182,2.222-7.911-0.96-10.563l-29.366-24.472v-109.42
	c10.471,11.911,25.625,18.875,41.684,18.894c-5.368,6.755-8.586,15.292-8.586,24.573c0,11.443,1.834,22.748,5.453,33.602
	l27.179,81.538c3.928,11.783,0.912,24.558-7.871,33.341l-9.761,9.761v-13.958c0-4.142-3.358-7.5-7.5-7.5s-7.5,3.358-7.5,7.5v32.062
	c0,0.002,0,0.003,0,0.005v2.748c0,6.561-2.555,12.73-7.195,17.37l-17.886,17.885v-46.022c0-4.142-3.358-7.5-7.5-7.5
	s-7.5,3.358-7.5,7.5v16.548h-16.874c-12.689,0-25.16-4.333-35.114-12.201c-3.25-2.569-7.966-2.016-10.535,1.233
	c-2.569,3.25-2.017,7.966,1.233,10.535c12.591,9.952,28.365,15.433,44.416,15.433h16.874v81.194h-12.541c-4.142,0-7.5,3.358-7.5,7.5
	s3.358,7.5,7.5,7.5h24.048c1.876,0,3.684-0.703,5.067-1.971c3.01-2.758,8.051-6.045,14.974-6.045s11.963,3.288,14.973,6.045
	c1.439,1.319,3.255,1.971,5.065,1.971c2.029,0,4.052-0.819,5.531-2.433c2.799-3.054,2.592-7.798-0.462-10.596
	c-7.027-6.44-15.944-9.987-25.107-9.987c-5.749,0-11.399,1.401-16.548,4.032v-31.348c0-6.562,2.555-12.73,7.194-17.37l21.298-21.298
	c7.387-7.387,11.486-17.181,11.58-27.612l20.377-20.377c12.826-12.826,17.23-31.483,11.495-48.691l-27.179-81.538
	c-3.107-9.322-4.683-19.031-4.683-28.864c0-13.545,11.02-24.565,24.564-24.565h32.064c4.142,0,7.5-3.358,7.5-7.5s-3.358-7.5-7.5-7.5
	h-40.597v-8.532c0-4.705,3.828-8.532,8.532-8.532h32.581v0.516c0,4.142,3.358,7.5,7.5,7.5s7.5-3.358,7.5-7.5v-0.516h0.516
	c2.31,0,4.49-1.064,5.912-2.885C511.833,138.553,512.337,136.18,511.776,133.939z M432.871,151.79v8.532h-7.38
	c-13.319,0-25.797-6.538-33.378-17.489l-14.39-20.785h34.926c4.142,0,7.5-3.358,7.5-7.5s-3.358-7.5-7.5-7.5h-45.311l-21.88-31.604
	l130.334,31.032c8.957,2.133,15.908,9.007,18.142,17.939l0.96,3.843h-38.491C443.428,128.258,432.871,138.815,432.871,151.79z"/>
<g>
</g>
<g>
</g>
<g>
</g>
<g>
</g>
<g>
</g>
<g>
</g>
<g>
</g>
<g>
</g>
<g>
</g>
<g>
</g>
<g>
</g>
<g>
</g>
<g>
</g>
<g>
</g>
<g>
</g>
</svg>
