<svg id="Capa_1" enable-background="new 0 0 497 497" height="512" viewBox="0 0 497 497" width="512" xmlns="http://www.w3.org/2000/svg"><g><path d="m353.21 214.459-18.358-52.311-52.311-18.358c-9.376-9.376-24.577-9.376-33.953 0s-9.376 24.577 0 33.953l18.358 52.311 52.311 18.358c9.376 9.376 24.577 9.376 33.953 0 9.375-9.376 9.375-24.577 0-33.953z" fill="#e8a882"/><path d="m471.105 25.895c-34.527-34.527-90.505-34.527-125.032 0s-34.527 90.505 0 125.032 90.505 34.527 125.032 0 34.527-90.506 0-125.032zm-93.626 93.626c-17.182-17.182-17.182-45.038 0-62.22s45.039-17.182 62.22 0c17.182 17.182 17.182 45.038 0 62.22-17.181 17.181-45.038 17.181-62.22 0z" fill="#516a80"/><path d="m277.831 363.338 26.642-83.975-86.836-86.836-83.975 26.642c-22.448 7.122-40.603 23.797-49.603 45.559l-82.147 198.623c-8.268 19.99 11.746 40.004 31.736 31.736l198.622-82.146c21.764-9 38.439-27.155 45.561-49.603z" fill="#a6b6c4"/><ellipse cx="109.94" cy="410.066" fill="#ffefe0" rx="28.832" ry="22.96" transform="matrix(.707 -.707 .707 .707 -257.761 197.847)"/><ellipse cx="220.446" cy="299.561" fill="#ffefe0" rx="28.832" ry="22.96" transform="matrix(.707 -.707 .707 .707 -147.254 243.616)"/><g fill="#334151"><path d="m100.89 387.859-8.334-8.334c-2.929-2.929-2.929-7.678 0-10.607s7.678-2.929 10.606 0l8.334 8.334c2.929 2.929 2.929 7.678 0 10.607-2.928 2.929-7.677 2.93-10.606 0z"/><path d="m187.632 301.117-8.334-8.334c-2.929-2.929-2.929-7.678 0-10.607s7.678-2.929 10.606 0l8.334 8.334c2.929 2.929 2.929 7.678 0 10.607-2.928 2.929-7.677 2.93-10.606 0z"/><path d="m137.368 357.854c-4.133-.284-7.252-3.864-6.969-7.996s3.863-7.253 7.996-6.969c4.038.277 7.979-1.198 10.827-4.046s4.323-6.794 4.046-10.826c-.284-4.132 2.836-7.712 6.968-7.996 4.125-.283 7.712 2.836 7.997 6.968.574 8.359-2.489 16.546-8.404 22.461-5.916 5.915-14.104 8.978-22.461 8.404z"/></g><path d="m248.839 178.458c11.594-13.707 26.486-24.533 43.458-31.244l-9.756-3.424c-9.376-9.376-24.577-9.376-33.953 0s-9.376 24.577 0 33.953z" fill="#e3986d"/><path d="m387.163 180.506-70.669-70.668c-9.376-9.376-24.577-9.376-33.953 0s-9.376 24.577 0 33.953l70.668 70.668c9.376 9.376 24.577 9.376 33.953 0s9.376-24.577.001-33.953z" fill="#edb798"/><path d="m57.144 417.468c0-106.091 84.303-192.48 189.572-195.862l-29.079-29.079-83.975 26.642c-22.448 7.122-40.603 23.797-49.603 45.56l-82.147 198.622c-8.268 19.99 11.746 40.004 31.736 31.737l31.622-13.079c-5.448-20.212-8.126-41.927-8.126-64.541z" fill="#95a9ba"/><path d="m319.257 248.412-70.668-70.668c-9.376-9.376-24.577-9.376-33.953 0s-9.376 24.577 0 33.953l70.668 70.668c9.376 9.376 24.577 9.376 33.953 0 9.375-9.376 9.375-24.577 0-33.953z" fill="#edb798"/><path d="m249.051 178.206-.463-.463c-9.376-9.376-24.577-9.376-33.953 0s-9.376 24.577 0 33.953l11.431 11.431c4.113-16.831 12.108-32.138 22.985-44.921z" fill="#e8a882"/><path d="m287.844 149.093c13.67-6.119 28.818-9.525 44.764-9.525 4.945 0 9.812.333 14.583.967l-30.697-30.697c-9.376-9.375-24.577-9.375-33.953 0-9.376 9.376-9.376 24.577 0 33.953z" fill="#e8a882"/></g></svg>