<svg height="512pt" viewBox="0 0 512.00013 512" width="512pt" xmlns="http://www.w3.org/2000/svg"><path d="m307.953125 122.855469 194.046875 85.519531-20.707031 46.988281-194.046875-85.519531zm0 0" fill="#7ccafd"/><path d="m152.261719 136.621094 40.105469-91.003906 125.300781 55.222656-40.105469 91.003906zm0 0" fill="#52607e"/><path d="m317.039062 100.566406-124.066406-54.675781c-9.472656-4.171875-13.765625-15.234375-9.59375-24.707031 4.175782-9.472656 15.238282-13.765625 24.710938-9.59375l124.0625 54.675781c9.472656 4.175781 13.769531 15.234375 9.59375 24.707031-4.175782 9.472656-15.234375 13.765625-24.707032 9.59375zm0 0" fill="#ede6f5"/><path d="m261.820312 225.867188-124.066406-54.675782c-9.472656-4.171875-13.765625-15.234375-9.59375-24.707031 4.175782-9.472656 15.238282-13.765625 24.710938-9.589844l124.066406 54.671875c9.46875 4.175782 13.765625 15.234375 9.589844 24.707032-4.171875 9.472656-15.234375 13.765624-24.707032 9.59375zm0 0" fill="#ede6f5"/><path d="m511.320312 204.734375c-.957031-2.472656-2.859374-4.460937-5.289062-5.53125l-184.890625-81.476563 2.453125-5.574218c.332031.011718.664062.019531.992188.019531 3.515624 0 7.035156-.652344 10.410156-1.964844 7.160156-2.777343 12.804687-8.179687 15.902344-15.203125 3.09375-7.023437 3.269531-14.835937.492187-21.992187-2.78125-7.15625-8.179687-12.804688-15.203125-15.898438l-124.066406-54.675781c-14.503906-6.386719-31.503906.210938-37.894532 14.714844-3.09375 7.023437-3.269531 14.832031-.492187 21.992187 1.4375 3.691407 3.566406 6.980469 6.257813 9.726563l-33.6875 76.449218c-11.390626-.382812-22.421876 6.078126-27.292969 17.132813-6.390625 14.5.207031 31.496094 14.710937 37.890625l124.066406 54.671875c3.710938 1.636719 7.644532 2.457031 11.582032 2.457031 3.515625 0 7.035156-.652344 10.410156-1.964844 7.15625-2.777343 12.804688-8.175781 15.898438-15.203124 3.097656-7.023438 3.269531-14.835938.492187-21.992188-1.433594-3.691406-3.566406-6.984375-6.257813-9.730469l2.453126-5.570312 184.894531 81.480469c1.3125.578124 2.679687.851562 4.027343.851562 3.839844 0 7.507813-2.226562 9.152344-5.96875l20.707032-46.988281c1.074218-2.425781 1.132812-5.179688.171874-7.652344zm-313.847656-145.929687 107 47.148437-32.039062 72.699219-106.996094-47.152344zm-4.941406-33.589844c1.941406-4.410156 7.113281-6.414063 11.523438-4.472656l124.066406 54.671874c2.136718.941407 3.777344 2.660157 4.625 4.835938.84375 2.175781.789062 4.554688-.152344 6.691406-.941406 2.136719-2.65625 3.777344-4.832031 4.621094-2.179688.847656-4.554688.792969-6.691407-.148438l-7.582031-3.339843-116.484375-51.335938c-2.136718-.941406-3.777344-2.65625-4.625-4.832031-.84375-2.175781-.789062-4.554688.152344-6.691406zm84.847656 187.027344c-.945312 2.136718-2.660156 3.777343-4.835937 4.621093s-4.554688.792969-6.691407-.148437l-124.066406-54.671875c-4.410156-1.945313-6.417968-7.113281-4.472656-11.523438 1.441406-3.269531 4.652344-5.21875 8.011719-5.21875 1.171875 0 2.367187.238281 3.507812.742188l7.484375 3.296875 116.585938 51.378906c2.136718.941406 3.777344 2.65625 4.625 4.835938.84375 2.175781.792968 4.550781-.148438 6.6875zm198.796875 29.917968-175.742187-77.449218 12.640625-28.683594 175.742187 77.445312zm0 0"/><path d="m116.050781 408.675781h-106.050781v93.320313h375.515625v-93.320313h-106.050781" fill="#ffe681"/><path d="m277.464844 360.421875c0-44.019531-35.6875-79.707031-79.707032-79.707031-44.023437 0-79.707031 35.6875-79.707031 79.707031v82.722656h159.414063zm0 0" fill="#f05f90"/><path d="m343.601562 453.144531c-.652343 0-1.3125-.070312-1.953124-.199219-.636719-.128906-1.269532-.320312-1.867188-.570312-.609375-.25-1.191406-.558594-1.730469-.917969-.550781-.363281-1.058593-.78125-1.519531-1.242187-.460938-.460938-.882812-.96875-1.242188-1.519532-.359374-.539062-.667968-1.121093-.917968-1.730468-.25-.597656-.441406-1.226563-.570313-1.871094-.128906-.636719-.199219-1.296875-.199219-1.949219 0-.648437.070313-1.308593.199219-1.957031.128907-.632812.320313-1.261719.570313-1.871094.25-.601562.558594-1.179687.917968-1.722656.359376-.546875.78125-1.058594 1.242188-1.519531.460938-.457031.96875-.878907 1.519531-1.25.539063-.347657 1.121094-.660157 1.730469-.910157.601562-.25 1.230469-.449218 1.867188-.570312 1.292968-.257812 2.621093-.257812 3.910156 0 .640625.121094 1.261718.320312 1.871094.570312.601562.25 1.179687.5625 1.71875.910157.550781.371093 1.0625.792969 1.53125 1.25.460937.460937.871093.972656 1.242187 1.519531.359375.542969.667969 1.121094.917969 1.722656.25.609375.441406 1.238282.570312 1.871094.128906.648438.1875 1.308594.1875 1.957031 0 .652344-.058594 1.3125-.1875 1.949219-.128906.644531-.320312 1.273438-.570312 1.871094-.25.609375-.558594 1.191406-.917969 1.730468-.371094.550782-.78125 1.058594-1.242187 1.519532-.46875.460937-.980469.878906-1.53125 1.242187-.539063.359375-1.117188.667969-1.71875.917969-.609376.25-1.230469.441406-1.871094.570312-.648438.128907-1.296875.199219-1.957032.199219zm0 0"/><path d="m385.515625 398.675781h-98.050781v-38.253906c0-49.464844-40.242188-89.707031-89.707032-89.707031-49.464843 0-89.707031 40.242187-89.707031 89.707031v38.253906h-98.050781c-5.523438 0-10 4.476563-10 10v93.320313c0 5.523437 4.476562 10 10 10h375.515625c5.523437 0 10-4.476563 10-10v-93.320313c0-5.523437-4.480469-10-10-10zm-257.464844-38.253906c0-38.4375 31.269531-69.707031 69.707031-69.707031s69.707032 31.273437 69.707032 69.707031v72.722656h-139.414063zm247.464844 131.574219h-355.515625v-73.320313h88.050781v14.46875h-56.140625c-5.519531 0-10 4.476563-10 10 0 5.523438 4.480469 10 10 10h255.386719c5.523437 0 10-4.476562 10-10 0-5.523437-4.476563-10-10-10h-19.832031v-14.46875h88.050781zm0 0"/><path d="m168.507812 365.566406h-3.210937c-5.523437 0-10-4.476562-10-10 0-5.523437 4.476563-10 10-10h3.210937c5.523438 0 10 4.476563 10 10 0 5.523438-4.476562 10-10 10zm0 0"/><path d="m230.21875 365.566406h-3.210938c-5.523437 0-10-4.476562-10-10 0-5.523437 4.476563-10 10-10h3.210938c5.523438 0 10 4.476563 10 10 0 5.523438-4.476562 10-10 10zm0 0"/><path d="m197.757812 418.0625c-11.582031 0-21.875-7.363281-25.617187-18.320312-1.785156-5.226563 1.007813-10.910157 6.234375-12.691407s10.910156 1.007813 12.691406 6.234375c.976563 2.855469 3.664063 4.777344 6.691406 4.777344 3.023438 0 5.710938-1.921875 6.6875-4.777344 1.78125-5.226562 7.464844-8.019531 12.691407-6.234375 5.226562 1.78125 8.019531 7.464844 6.234375 12.691407-3.738282 10.957031-14.03125 18.320312-25.613282 18.320312zm0 0"/></svg>