<svg id="Capa_1" enable-background="new 0 0 511.982 511.982" height="512" viewBox="0 0 511.982 511.982" width="512" xmlns="http://www.w3.org/2000/svg"><g><g><path d="m458.731 59.11c-66.012-70.665-172.319-56.955-247.617-10.079-83.265 51.823-127.75 136.796-127.75 233.967 0 51.178 3.646 96.945-34.765 135.356l43.817 43.817c44.92-44.91 109.983-36.44 133.12-34.975 104.703 11.423 206.388-61.939 251.077-153.043 33.627-68.559 37.277-156.434-17.882-215.043zm-2.347 116.617c-.311 108.845-109.166 213.809-218.442 207.23-61.127-3.44-108.274-51.95-110.57-113.017-3.109-73.503 43.315-143.977 104.192-181.917 59.984-37.398 147.136-53.876 198.063 7.702 19.596 23.469 27.348 51.349 26.757 80.002z" fill="#a0e4a5"/></g><g><path d="m48.716 418.468-37.939 37.939v45.575h41.831l39.811-39.811z" fill="#838eb1"/></g><g><path d="m351.347 45.22c-45.895-2.881-89.171 11.93-125.079 34.313-65.194 40.638-117.507 119.671-108.31 199.032 5.878 58.385 52.164 106.242 110.469 113.559 63.1 7.158 128.42-21.898 171.619-67.302 42.084-42.419 66.158-96.24 66.336-148.979 1.359-67.356-46.043-126.712-115.035-130.623zm-28.971 310.66-26.177-26.177 46.92-46.92 35.379 35.057c-17.271 15.975-36.294 28.781-56.122 38.04zm-147.463-8.123 55.527-55.527 37.474 37.473-41.854 41.854c-18.991-3.258-36.619-11.453-51.147-23.8zm-36.51-66.724 40.42-40.42 37.474 37.474-55.329 55.329c-12.043-14.993-19.818-33.051-22.565-52.383zm8.163-72.677 18.115 18.114-27.173 27.173c.893-15.094 3.946-30.304 9.058-45.287zm46.399 18.115 46.449-46.449 37.645 37.303-46.62 46.62zm89.091 117.375 20.138 20.138c-16.334 5.512-32.981 8.637-49.446 9.17zm0-28.286-37.474-37.473 46.685-46.685 37.645 37.302zm23.354-98.301 45.82-45.82 37.474 37.474-45.649 45.649zm-14.207-14.077-37.645-37.303 46.056-46.056 37.474 37.474zm22.553-97.502 40.147-40.147c20.451 2.357 38.234 9.641 53.168 21.779l-55.842 55.842zm-14.142-14.142-16.926-16.926c14.526-4.964 29.111-8.142 43.212-9.36zm-62.766 4.968c8.35-5.205 16.937-9.817 25.638-13.811l22.985 22.985-46.121 46.121-32.755-32.457c9.49-8.527 19.644-16.225 30.253-22.838zm-44.533 36.845 32.892 32.593-46.385 46.384-24.087-24.086c9.513-20.113 22.408-38.644 37.58-54.891zm200.261 170.281-35.314-34.993 45.584-45.584 26.238 26.238c-9.294 19.821-21.796 38.147-36.508 54.339zm44.646-74.486-20.233-20.233 29.324-29.324c-.455 16.502-3.503 33.086-9.091 49.557zm7.619-76.37-41.995 41.995-37.474-37.474 55.928-55.928c.207.246.418.485.623.734.01.012.021.024.03.037 12.167 14.567 19.808 31.54 22.888 50.636z"/><path d="m492.764 90.525c-2.475-4.938-8.485-6.935-13.421-4.459-4.938 2.475-6.935 8.483-4.46 13.42 24.135 48.155 21.425 111.803-7.249 170.259-44.694 91.119-139.059 154.077-241.467 147.47-47.152-2.989-95.514-1.206-133.466 31.095l-30.222-30.222c32.821-38.222 30.882-87.774 30.882-135.094 0-93.835 42.519-175.36 123.034-225.476 31.331-19.501 67.448-32.374 101.698-36.247 37.608-4.253 72.487 2.214 100.869 18.7 4.776 2.775 10.896 1.151 13.67-3.625 2.773-4.775 1.15-10.896-3.625-13.669-32.122-18.658-71.253-26.018-113.16-21.278-37.683 4.26-75.728 17.794-110.021 39.14-86.236 53.675-132.465 141.82-132.465 242.455 0 52.75 3.908 92.78-32.952 129.64l-36.703 36.702c-3.905 3.905-3.905 10.237 0 14.142 3.906 3.905 10.236 3.905 14.143 0l30.865-30.866 29.561 29.562-32.738 32.738c-3.905 3.905-3.905 10.237 0 14.142 1.953 1.953 4.512 2.929 7.071 2.929s5.118-.977 7.071-2.929l39.811-39.811c33.781-33.781 80.649-34.94 125.187-32.081 109.192 11.794 214.157-63.282 260.913-158.608 31.408-64.031 34.09-134.322 7.174-188.029z"/><path d="m449.499 62.932c2.066 5.045 8.027 7.484 13.05 5.41 5.043-2.082 7.5-8.025 5.41-13.06-2.088-5.033-8.014-7.49-13.05-5.41-5.028 2.076-7.503 8.036-5.41 13.06z"/></g></g></svg>