<svg height="512pt" viewBox="-44 0 512 512" width="512pt" xmlns="http://www.w3.org/2000/svg"><path d="m412.328125 163.304688c-18.84375-4.878907-33.679687-19.71875-38.5625-38.5625-.488281-1.890626-2.9375-1.890626-3.429687 0-4.878907 18.847656-19.71875 33.683593-38.5625 38.5625-1.894532.492187-1.894532 2.941406 0 3.433593 18.84375 4.878907 33.679687 19.714844 38.5625 38.5625.492187 1.890625 2.941406 1.890625 3.429687 0 4.882813-18.847656 19.71875-33.683593 38.5625-38.5625 1.894531-.492187 1.894531-2.941406 0-3.433593zm0 0" fill="#00d2d7"/><path d="m372.050781 216.71875c-5.351562 0-10.035156-3.664062-11.394531-8.910156-3.984375-15.378906-16.011719-27.410156-31.390625-31.390625-5.246094-1.359375-8.910156-6.046875-8.910156-11.394531-.003907-5.347657 3.660156-10.035157 8.902343-11.398438 15.386719-3.980469 27.414063-16.011719 31.398438-31.386719 1.359375-5.25 6.042969-8.914062 11.394531-8.914062 5.351563 0 10.035157 3.664062 11.394531 8.910156 3.984376 15.378906 16.011719 27.40625 31.390626 31.390625h.003906c5.246094 1.363281 8.910156 6.050781 8.90625 11.398438 0 5.351562-3.664063 10.035156-8.914063 11.394531-15.375 3.980469-27.402343 16.011719-31.386719 31.386719-1.359374 5.25-6.042968 8.914062-11.394531 8.914062zm-19.476562-51.699219c7.828125 4.996094 14.480469 11.648438 19.476562 19.476563 4.996094-7.828125 11.648438-14.476563 19.476563-19.476563-7.828125-4.992187-14.480469-11.648437-19.476563-19.476562-4.996093 7.832031-11.644531 14.480469-19.476562 19.476562zm57.230469 7.960938c.003906.003906.007812.003906.011718.003906-.003906 0-.007812 0-.011718-.003906zm0 0"/><path d="m346.097656 49.980469c-18.847656-4.878907-33.683594-19.71875-38.5625-38.5625-.492187-1.890625-2.941406-1.890625-3.429687 0-4.882813 18.847656-19.71875 33.683593-38.5625 38.5625-1.894531.492187-1.894531 2.941406 0 3.429687 18.84375 4.882813 33.679687 19.71875 38.5625 38.5625.488281 1.894532 2.9375 1.894532 3.429687 0 4.878906-18.84375 19.71875-33.679687 38.5625-38.5625 1.890625-.488281 1.890625-2.9375 0-3.429687zm0 0" fill="#7ccafd"/><path d="m305.820312 103.394531c-5.351562 0-10.039062-3.664062-11.398437-8.910156-3.980469-15.378906-16.007813-27.410156-31.386719-31.390625-5.25-1.359375-8.914062-6.046875-8.914062-11.398438 0-5.347656 3.664062-10.035156 8.914062-11.394531 15.378906-3.984375 27.40625-16.011719 31.386719-31.386719 1.359375-5.25 6.046875-8.914062 11.398437-8.914062 5.347657 0 10.035157 3.664062 11.394532 8.910156 3.984375 15.378906 16.011718 27.40625 31.390625 31.390625 5.246093 1.359375 8.910156 6.046875 8.910156 11.394531 0 5.351563-3.664063 10.039063-8.910156 11.398438-15.378907 3.980469-27.40625 16.011719-31.390625 31.386719-1.359375 5.25-6.046875 8.914062-11.394532 8.914062zm-19.476562-51.699219c7.828125 4.996094 14.480469 11.648438 19.476562 19.476563 4.996094-7.828125 11.648438-14.480469 19.476563-19.476563-7.828125-4.996093-14.480469-11.644531-19.476563-19.476562-4.996093 7.832031-11.648437 14.480469-19.476562 19.476562zm0 0"/><path d="m130.320312 123.90625c8.871094 0 16.0625 7.191406 16.0625 16.0625 0 7.828125-5.144531 14.664062-12.617187 17.003906-70.769531 22.132813-122.382813 87.617188-123.738281 165.355469-1.707032 97.742187 78.402344 179.484375 176.15625 179.671875 97.648437.183594 176.867187-78.917969 176.867187-176.527344 0-79.117187-52.050781-146.078125-123.78125-168.503906-7.464843-2.335938-12.601562-9.175781-12.601562-16.996094v-.003906c0-8.871094 7.191406-16.0625 16.0625-16.0625" fill="#c7cde4"/><path d="m260.992188 312.496094c32.601562 0 46.617187 12.914062 63.238281 24.015625-2.667969 31.34375-15.992188 61.953125-39.980469 85.9375-53.972656 53.972656-141.476562 53.972656-195.449219 0-29.777343-29.777344-43.128906-69.765625-40.046875-108.695313 41.355469 6.757813 46.796875 38.464844 97.878906 38.464844 57.179688 0 57.179688-39.722656 114.359376-39.722656zm0 0" fill="#52607e"/><path d="m260.992188 312.496094c32.601562 0 46.617187 12.914062 63.238281 24.015625 3.335937-39.1875-9.992188-79.527344-39.980469-109.515625-53.972656-53.972656-141.476562-53.972656-195.449219 0-24.195312 24.195312-37.542969 55.128906-40.046875 86.757812 41.355469 6.757813 46.796875 38.464844 97.878906 38.464844 57.179688 0 57.179688-39.722656 114.359376-39.722656zm0 0" fill="#ede6f5"/><path d="m180.992188 309.511719c-.648438 0-1.308594-.070313-1.957032-.203125-.640625-.128906-1.261718-.316406-1.871094-.566406-.601562-.25-1.179687-.5625-1.730468-.921876-.539063-.359374-1.050782-.78125-1.511719-1.238281-.46875-.460937-.878906-.972656-1.25-1.523437-.359375-.539063-.667969-1.117188-.917969-1.726563-.25-.601562-.441406-1.230469-.570312-1.871093-.128906-.640626-.1875-1.300782-.1875-1.949219 0-.652344.058594-1.3125.1875-1.960938.128906-.628906.320312-1.261719.570312-1.871093.25-.597657.558594-1.179688.917969-1.71875.371094-.550782.78125-1.0625 1.25-1.519532.460937-.46875.972656-.878906 1.511719-1.25.550781-.359375 1.128906-.671875 1.730468-.921875.609376-.25 1.230469-.4375 1.871094-.566406 1.289063-.261719 2.617188-.261719 3.90625 0 .640625.128906 1.273438.316406 1.871094.566406.609375.25 1.191406.5625 1.730469.921875.550781.371094 1.058593.78125 1.519531 1.25.460938.460938.878906.96875 1.238281 1.519532.363281.539062.671875 1.121093.921875 1.71875.25.609374.441406 1.242187.570313 1.871093.128906.648438.199219 1.308594.199219 1.960938 0 .648437-.070313 1.308593-.199219 1.949219-.128907.640624-.320313 1.269531-.570313 1.871093-.25.609375-.558594 1.1875-.921875 1.726563-.359375.550781-.777343 1.0625-1.238281 1.523437-.460938.457031-.96875.878907-1.519531 1.238281-.539063.359376-1.121094.671876-1.730469.921876-.601562.25-1.230469.4375-1.871094.566406-.636718.132812-1.296875.203125-1.949218.203125zm0 0"/><path d="m240.535156 123.90625h-108.019531c-6.835937 0-12.378906-5.542969-12.378906-12.378906v-20.125c0-6.835938 5.542969-12.378906 12.378906-12.378906h108.019531c6.835938 0 12.378906 5.542968 12.378906 12.378906v20.125c0 6.835937-5.542968 12.378906-12.378906 12.378906zm0 0" fill="#43b0fc"/><path d="m134.0625 19.070312 13.480469 59.953126h77.261719l14.109374-59.953126zm0 0" fill="#ffdd52"/><path d="m336.070312 213.980469c-23.382812-31.316407-56.699218-54.953125-93.8125-66.558594-3.34375-1.042969-5.589843-4.039063-5.589843-7.453125 0-3.34375 2.722656-6.0625 6.0625-6.0625 1.519531 0 2.960937-.339844 4.253906-.949219 9.207031-2.773437 15.925781-11.332031 15.925781-21.429687v-20.125c0-12.339844-10.039062-22.378906-22.378906-22.378906h-3.101562l11.21875-47.664063c.699218-2.972656 0-6.105469-1.898438-8.5-1.894531-2.394531-4.78125-3.792969-7.835938-3.792969h-104.851562c-3.039062 0-5.910156 1.382813-7.808594 3.753906-1.898437 2.371094-2.613281 5.476563-1.949218 8.441407l10.738281 47.761719h-2.527344c-12.339844 0-22.378906 10.039062-22.378906 22.378906v20.125c0 10.101562 6.726562 18.660156 15.9375 21.433594 1.289062.605468 2.726562.945312 4.246093.945312 3.34375 0 6.058594 2.71875 6.058594 6.0625 0 3.414062-2.25 6.410156-5.597656 7.457031-76.800781 24.023438-129.347656 94.238281-130.7539062 174.726563-.8710938 49.996094 18.1875002 97.453125 53.6757812 133.632812 35.460937 36.15625 82.503906 56.117188 132.460937 56.214844h.363282c49.757812 0 96.542968-19.351562 131.765625-54.507812 35.3125-35.242188 54.757812-82.128907 54.757812-132.019532 0-40.542968-12.785156-79.097656-36.980469-111.492187zm-189.511718-184.914063h79.730468l-9.402343 39.957032h-61.34375zm-16.421875 62.335938c0-1.3125 1.066406-2.378906 2.378906-2.378906h108.019531c1.308594 0 2.378906 1.066406 2.378906 2.378906v20.125c0 1.3125-1.066406 2.378906-2.382812 2.378906h-108.015625c-1.3125 0-2.378906-1.066406-2.378906-2.378906zm174.027343 351.933594c-31.523437 31.464843-73.453124 48.757812-117.960937 48.664062-44.558594-.085938-86.542969-17.921875-118.222656-50.222656-31.703125-32.320313-48.734375-74.679688-47.957031-119.273438 1.257812-71.855468 48.164062-134.542968 116.726562-155.988281 11.742188-3.671875 19.628906-14.339844 19.628906-26.546875 0-2.085938-.246094-4.117188-.710937-6.0625h61.714843c-.464843 1.945312-.714843 3.976562-.714843 6.0625 0 12.207031 7.886719 22.871094 19.617187 26.542969 69.84375 21.839843 116.765625 85.71875 116.765625 158.960937 0 44.542969-17.359375 86.398438-48.886719 117.863282zm0 0"/><path d="m291.324219 219.925781c-57.785157-57.785156-151.808594-57.785156-209.597657 0-24.914062 24.917969-40.164062 57.960938-42.941406 93.039063-3.429687 43.351562 12.222656 85.835937 42.941406 116.554687 27.992188 27.992188 65.210938 43.410157 104.796876 43.410157 39.589843 0 76.808593-15.417969 104.800781-43.410157 24.6875-24.6875 39.914062-57.417969 42.871093-92.160156 3.714844-43.667969-11.910156-86.46875-42.871093-117.433594zm-195.453125 14.140625c49.984375-49.984375 131.320312-49.988281 181.308594 0 10.050781 10.050782 18.234374 21.546875 24.363281 33.980469-12.597657-3.722656-26.007813-5.550781-40.550781-5.550781-22.941407 0-40.976563 3.246094-55.136719 9.921875-4.996094 2.355469-7.132813 8.316406-4.777344 13.3125 2.355469 4.992187 8.3125 7.132812 13.308594 4.777343 11.277343-5.316406 26.953125-8.011718 46.605469-8.011718 18.550781 0 34.832031 3.394531 49.734374 10.367187 2.085938 8.140625 3.375 16.507813 3.824219 24.992188-12.691406-8.085938-28.328125-15.359375-53.558593-15.359375-31.722657 0-48.277344 11.5-62.886719 21.648437-13.960938 9.699219-26.015625 18.074219-51.472657 18.074219-25.457031 0-37.511718-8.375-51.472656-18.074219-9.570312-6.652343-20.21875-14.046875-35.460937-18.230469 4.015625-27.097656 16.671875-52.347656 36.171875-71.847656zm181.308594 181.3125c-24.214844 24.214844-56.410157 37.550782-90.652344 37.550782-34.246094 0-66.441406-13.335938-90.65625-37.550782-23.769532-23.769531-37.113282-55.679687-37.539063-88.992187 9.804688 3.335937 17.195313 8.46875 25.421875 14.183593 14.605469 10.148438 31.160156 21.648438 62.882813 21.648438 31.722656 0 48.277343-11.5 62.882812-21.648438 13.960938-9.699218 26.015625-18.074218 51.472657-18.074218 25.457031 0 37.511718 8.375 51.472656 18.074218.394531.273438.789062.546876 1.183594.820313-3.652344 27.90625-16.472657 53.992187-36.46875 73.988281zm0 0"/></svg>