<?xml version="1.0" encoding="iso-8859-1"?>
<!-- Generator: Adobe Illustrator 19.0.0, SVG Export Plug-In . SVG Version: 6.00 Build 0)  -->
<svg version="1.1" id="Capa_1" xmlns="http://www.w3.org/2000/svg" xmlns:xlink="http://www.w3.org/1999/xlink" x="0px" y="0px"
	 viewBox="0 0 512 512" style="enable-background:new 0 0 512 512;" xml:space="preserve">
<path style="fill:#DC4655;" d="M215.92,272.031c-44.272,0-80.161,35.889-80.161,80.161v12.024c0,28.777-23.328,52.105-52.105,52.105
	s-52.105-23.328-52.105-52.105v12.024c0,39.845,32.3,72.145,72.145,72.145s72.145-32.3,72.145-72.145
	c0-22.136,17.944-40.081,40.081-40.081H256V272.03h-40.08V272.031z"/>
<path style="fill:#E6646E;" d="M488.468,159.806h-16.032l-6.64-6.641c-6.013-6.013-14.168-9.391-22.672-9.391h-92.098l25.217,32.065
	v80.16c0,8.854-7.178,16.032-16.032,16.032h-89.677c-22.543,0-42.061,15.657-46.951,37.662l-23.695,106.628l26.07-15.643
	c9.151-5.491,16.546-13.477,21.319-23.022l13.006-26.012l60.334,25.704c10.249,4.555,21.34,6.909,32.556,6.909h55.134l15.149-10.821
	c24.047-17.177,33.243-48.563,22.268-76.001l-20.606-51.514c-4.212-10.531,3.543-21.986,14.885-21.986h0.368v-16.032
	c0-8.854,7.178-16.032,16.032-16.032H504.5v-16.032C504.5,166.984,497.322,159.806,488.468,159.806z"/>
<path style="fill:#BE4150;" d="M362.749,320.975l-116.673-38.891c-19.584-6.528-36.548-19.182-48.386-36.094l-37.884-54.12
	l160.323,56.113l80.161,64.129l0,0C390.465,321.938,375.931,325.369,362.749,320.975z"/>
<g>
	<path style="fill:#DC4655;" d="M196.302,409.151l0.021-0.102C195.896,409.222,195.388,409.464,196.302,409.151z"/>
	<path style="fill:#DC4655;" d="M352.194,272.031L167.07,210.323c-20.293-6.764-37.753-20.1-49.619-37.899L71.63,103.692
		l240.484,80.161v56.113L352.194,272.031z"/>
</g>
<g>
	<path style="fill:#E6646E;" d="M268.742,136.952L7.5,47.58l30.469,45.704c11.447,17.171,28.114,30.206,47.537,37.178
		l226.606,81.346v-14.179C312.113,170.211,294.683,145.827,268.742,136.952z"/>
	<polygon style="fill:#E6646E;" points="31.549,296.08 7.5,304.096 31.549,239.967 55.597,304.096 	"/>
</g>
<g>
	<path style="fill:#DC4655;" d="M220.584,333.533l-20.697,82.788l26.071-15.643c9.15-5.49,16.545-13.476,21.318-23.021
		l14.341-28.683c4.132-8.263,2.607-18.239-3.831-24.865c-0.132-0.136-0.264-0.272-0.396-0.408
		C245.476,311.416,224.735,316.93,220.584,333.533z"/>
	<path style="fill:#DC4655;" d="M376.242,360.209v18.781c0,8.505,3.378,16.661,9.392,22.675l13.281,13.282
		c6.014,6.013,9.392,14.169,9.392,22.673v-77.411c0-8.854-7.178-16.032-16.032-16.032l0,0
		C383.42,344.177,376.242,351.354,376.242,360.209z"/>
</g>
<path d="M488.468,152.306h-12.926l-4.444-4.444c-7.473-7.473-17.409-11.588-27.977-11.588h-91.085l-3.515-4.077
	c-2.705-3.137-7.44-3.488-10.578-0.784c-3.137,2.705-3.488,7.44-0.784,10.578l23.807,27.617c2.299,2.667,4.919,4.982,7.774,6.917
	v79.474c0,4.142,3.358,7.5,7.5,7.5s7.5-3.358,7.5-7.5v-73.333c2.354,0.435,4.759,0.671,7.193,0.671h9.356c4.142,0,7.5-3.358,7.5-7.5
	s-3.358-7.5-7.5-7.5h-9.356c-7.153,0-13.935-3.107-18.605-8.525l-7.361-8.539h78.154c6.562,0,12.73,2.555,17.37,7.195l6.641,6.641
	c1.406,1.406,3.314,2.197,5.303,2.197h16.032c4.705,0,8.532,3.828,8.532,8.532v8.532h-40.597c-12.976,0-23.532,10.557-23.532,23.532
	v8.532h-0.516c-9.125,0-16.548-7.424-16.548-16.548c0-4.142-3.358-7.5-7.5-7.5s-7.5,3.358-7.5,7.5
	c0,12.776,7.638,23.794,18.583,28.75c-3.379,6.14-3.869,13.49-1.236,20.07l20.606,51.515c9.72,24.302,1.634,51.899-19.664,67.113
	l-3.289,2.349v-17.49c0-4.142-3.358-7.5-7.5-7.5s-7.5,3.358-7.5,7.5v54.039l-9.87-9.87c-4.64-4.64-7.195-10.809-7.195-17.37v-26.799
	c0-4.142-3.358-7.5-7.5-7.5s-7.5,3.358-7.5,7.5v24.564h-15.569c-10.232,0-20.161-2.107-29.511-6.262l-8.548-3.799
	c-3.784-1.682-8.217,0.022-9.899,3.807c-1.682,3.785,0.022,8.218,3.808,9.9l8.548,3.799c11.28,5.013,23.258,7.555,35.603,7.555
	h17.674c1.925,5.664,5.129,10.857,9.483,15.211l13.282,13.281c4.64,4.64,7.195,10.809,7.195,17.37v19.299h-12.541
	c-4.142,0-7.5,3.358-7.5,7.5s3.358,7.5,7.5,7.5h24.048c1.876,0,3.684-0.703,5.067-1.971c3.01-2.758,8.051-6.045,14.974-6.045
	s11.963,3.288,14.973,6.045c1.439,1.319,3.255,1.971,5.065,1.971c2.029,0,4.052-0.819,5.531-2.433
	c2.799-3.054,2.592-7.798-0.462-10.596c-7.027-6.44-15.944-9.987-25.107-9.987c-5.749,0-11.399,1.401-16.548,4.032v-64.818
	l12.008-8.577c26.94-19.243,37.167-54.151,24.872-84.889l-20.606-51.515c-1.068-2.671-0.756-5.57,0.857-7.952
	c1.613-2.383,4.188-3.749,7.065-3.749h48.465c4.142,0,7.5-3.358,7.5-7.5s-3.358-7.5-7.5-7.5h-40.597v-8.532
	c0-4.705,3.828-8.532,8.532-8.532h32.581v0.516c0,4.142,3.358,7.5,7.5,7.5s7.5-3.358,7.5-7.5v-0.516h0.516
	c4.142,0,7.5-3.358,7.5-7.5v-16.032C512,162.862,501.444,152.306,488.468,152.306z"/>
<path d="M455.968,167.822c0-4.142-3.358-7.5-7.5-7.5h-0.08c-4.142,0-7.46,3.358-7.46,7.5s3.398,7.5,7.54,7.5
	S455.968,171.964,455.968,167.822z"/>
<path d="M285.088,353.351l-14.156-6.292c1.507-3.608-0.011-7.815-3.561-9.59c-3.705-1.852-8.21-0.351-10.062,3.354l-16.741,33.482
	c-4.142,8.283-10.528,15.18-18.47,19.945l-10.543,6.326l19.657-78.627c1.005-4.019-1.438-8.091-5.457-9.095
	c-4.014-1.002-8.09,1.438-9.095,5.457l-2.6,10.398c-25.376,0.981-45.721,21.921-45.721,47.533c0,35.646-29,64.645-64.646,64.645
	c-21.374,0-40.359-10.429-52.134-26.462c9.27,5.946,20.287,9.397,32.094,9.397c32.866,0,59.605-26.739,59.605-59.605v-12.024
	c0-40.066,32.596-72.661,72.661-72.661h6.644c6.461,3.876,13.368,7.076,20.66,9.507l114.615,38.205
	c0.787,0.262,1.586,0.387,2.373,0.387c3.14,0,6.066-1.988,7.114-5.13c1.31-3.93-0.814-8.177-4.744-9.487l-114.615-38.205
	c-17.9-5.967-33.159-17.236-44.125-32.59l-10.998-15.398l84.834,28.278c0.787,0.262,1.586,0.387,2.373,0.387
	c3.14,0,6.066-1.988,7.114-5.13c1.31-3.929-0.814-8.177-4.744-9.487l-113.689-37.896c-18.195-6.065-34.196-18.111-45.056-33.918
	l-15.379-22.385l145.164,52.259c3.898,1.404,8.194-0.619,9.597-4.516c1.403-3.897-0.619-8.194-4.516-9.597l-170.549-61.4
	c-17.751-6.39-33.291-18.555-43.755-34.252L26.023,61.843l240.291,82.205c22.908,7.837,38.299,29.369,38.299,53.58v27.32
	c0,11.776,5.189,22.855,14.236,30.395l84.656,70.547c1.402,1.168,3.104,1.739,4.797,1.739c2.149,0,4.282-0.919,5.766-2.699
	c2.652-3.182,2.222-7.911-0.96-10.563l-84.656-70.547c-5.617-4.681-8.839-11.559-8.839-18.871v-27.32
	c0-30.625-19.468-57.86-48.443-67.773L9.928,40.484c-3.04-1.04-6.408-0.027-8.37,2.52c-1.961,2.547-2.081,6.061-0.298,8.736
	l30.496,45.744c12.234,18.353,30.402,32.574,51.155,40.045l1.171,0.422l27.229,39.596c12.697,18.481,31.404,32.564,52.676,39.655
	l4.953,1.651c0.21,0.493,0.472,0.971,0.796,1.425l21.899,30.658c3.729,5.22,7.893,10.023,12.423,14.4
	c-42.746,5.808-75.8,42.542-75.8,86.856v12.024c0,24.595-20.01,44.605-44.605,44.605s-44.605-20.01-44.605-44.605v-57.731
	l14.177,4.726c0.777,0.259,1.578,0.385,2.371,0.385c2.004,0,3.964-0.804,5.401-2.296c2.006-2.082,2.637-5.131,1.622-7.838
	l-24.048-64.129c-1.098-2.927-3.896-4.867-7.022-4.867s-5.925,1.939-7.022,4.867L0.478,301.462
	c-1.015,2.707-0.384,5.756,1.622,7.838c2.005,2.082,5.03,2.825,7.772,1.911l14.177-4.726v69.756
	c0,43.917,35.729,79.645,79.646,79.645s79.645-35.729,79.645-79.645c0-16.011,11.612-29.351,26.854-32.066l-17.582,70.328
	c-0.435,1.737-0.233,3.572,0.568,5.173l18.621,37.243h-7.906c-4.142,0-7.5,3.358-7.5,7.5s3.358,7.5,7.5,7.5h24.048
	c1.876,0,3.684-0.703,5.067-1.97c3.01-2.758,8.051-6.046,14.974-6.046s11.964,3.288,14.974,6.046c1.44,1.319,3.255,1.97,5.065,1.97
	c2.029,0,4.053-0.819,5.532-2.433c2.798-3.054,2.591-7.798-0.463-10.597c-7.028-6.44-15.945-9.986-25.107-9.986
	c-7.185,0-14.217,2.182-20.307,6.228l-17.975-35.951l20.114-12.068c10.392-6.235,18.75-15.26,24.168-26.099l10.255-20.514
	l14.756,6.558c0.99,0.44,2.024,0.648,3.042,0.648c2.873,0,5.615-1.661,6.857-4.456C290.577,359.465,288.873,355.033,285.088,353.351
	z M31.549,288.58c-0.801,0-1.602,0.128-2.372,0.385l-9.134,3.045l11.506-30.682l11.506,30.682l-9.134-3.045
	C33.151,288.708,32.349,288.58,31.549,288.58z"/>
<g>
</g>
<g>
</g>
<g>
</g>
<g>
</g>
<g>
</g>
<g>
</g>
<g>
</g>
<g>
</g>
<g>
</g>
<g>
</g>
<g>
</g>
<g>
</g>
<g>
</g>
<g>
</g>
<g>
</g>
</svg>
