<svg height="512pt" viewBox="0 -115 512 512" width="512pt" xmlns="http://www.w3.org/2000/svg"><path d="m438.003906 271.601562h-334.003906v-261.601562h334.003906" fill="#ede6f5"/><path d="m438.003906 185.136719v-175.136719h49.589844c7.957031 0 14.40625 6.449219 14.40625 14.40625v232.789062c0 7.957032-6.449219 14.40625-14.40625 14.40625h-49.589844" fill="#52607e"/><path d="m438 237.472656c-.648438 0-1.308594-.070312-1.949219-.203125-.640625-.128906-1.269531-.320312-1.871093-.570312-.609376-.25-1.1875-.558594-1.730469-.917969-.550781-.359375-1.058594-.78125-1.519531-1.242188-.460938-.457031-.878907-.96875-1.238282-1.519531-.359375-.539062-.671875-1.117187-.921875-1.730469-.25-.597656-.4375-1.226562-.570312-1.867187-.128907-.640625-.199219-1.300781-.199219-1.949219 0-.652344.070312-1.3125.199219-1.960937.132812-.628907.320312-1.261719.570312-1.871094.25-.601563.5625-1.179687.921875-1.71875.359375-.550781.777344-1.0625 1.238282-1.519531.460937-.460938.96875-.882813 1.519531-1.25.542969-.363282 1.121093-.660156 1.730469-.910156.601562-.25 1.230468-.453126 1.871093-.582032 1.289063-.257812 2.621094-.25 3.898438 0 .640625.128906 1.269531.332032 1.878906.582032.601563.238281 1.183594.546874 1.722656.910156.550781.367187 1.058594.789062 1.519531 1.25.460938.457031.878907.96875 1.25 1.519531.359376.539063.671876 1.117187.921876 1.71875.25.609375.4375 1.242187.566406 1.871094.132812.648437.191406 1.308593.191406 1.960937 0 .648438-.058594 1.308594-.191406 1.949219-.128906.640625-.316406 1.269531-.566406 1.867187-.25.613282-.5625 1.191407-.921876 1.730469-.371093.550781-.789062 1.0625-1.25 1.519531-.460937.460938-.96875.882813-1.519531 1.242188-.539062.359375-1.121093.667969-1.722656.917969-.609375.25-1.238281.441406-1.878906.570312-.640625.132813-1.300781.203125-1.949219.203125zm0 0"/><path d="m104 10v261.601562h-79.59375c-7.957031 0-14.40625-6.449218-14.40625-14.40625v-232.789062c0-7.957031 6.449219-14.40625 14.40625-14.40625z" fill="#52607e"/><path d="m487.59375 0h-463.1875c-13.457031 0-24.40625 10.949219-24.40625 24.40625v232.789062c0 13.457032 10.949219 24.40625 24.40625 24.40625h463.1875c13.457031 0 24.40625-10.949218 24.40625-24.40625v-232.789062c0-13.457031-10.949219-24.40625-24.40625-24.40625zm-467.59375 257.195312v-232.789062c0-2.429688 1.976562-4.40625 4.40625-4.40625h69.59375v241.601562h-69.59375c-2.429688 0-4.40625-1.976562-4.40625-4.40625zm472 0c0 2.429688-1.976562 4.40625-4.40625 4.40625h-373.59375v-241.601562h314.003906v165.136719c0 5.523437 4.476563 10 10 10 5.519532 0 10-4.476563 10-10v-165.136719h39.589844c2.429688 0 4.40625 1.976562 4.40625 4.40625zm0 0"/><path d="m37.667969 121.46875h38.667969v38.667969h-38.667969zm0 0" fill="#f05f90"/><path d="m76.335938 170.132812h-38.667969c-5.523438 0-10-4.476562-10-10v-38.664062c0-5.523438 4.476562-10 10-10h38.667969c5.519531 0 10 4.476562 10 10v38.664062c0 5.523438-4.480469 10-10 10zm-28.667969-20h18.667969v-18.664062h-18.667969zm0 0"/><path d="m211.144531 99.769531c0-10.714843-8.6875-19.40625-19.40625-19.40625-7.503906 0-14.007812 4.265625-17.238281 10.496094-3.167969-6.40625-9.769531-10.816406-17.402344-10.816406-10.714844 0-19.40625 8.6875-19.40625 19.40625 0 19.019531 36.589844 43.953125 36.589844 43.953125s36.863281-24.933594 36.863281-43.632813zm0 0" fill="#f05f90"/><path d="m174.28125 153.402344c-1.96875 0-3.933594-.578125-5.632812-1.738282-6.839844-4.660156-40.957032-29.082031-40.957032-52.214843 0-16.214844 13.191406-29.40625 29.40625-29.40625 6.488282 0 12.589844 2.082031 17.554688 5.777343 4.886718-3.492187 10.820312-5.457031 17.085937-5.457031 16.214844 0 29.40625 13.191407 29.40625 29.40625 0 22.847657-34.371093 47.253907-41.261719 51.917969-1.691406 1.144531-3.648437 1.714844-5.601562 1.714844zm-17.183594-63.359375c-5.1875 0-9.40625 4.21875-9.40625 9.40625 0 7.738281 14.078125 21.957031 26.628906 31.621093 13.8125-10.460937 26.824219-24.277343 26.824219-31.296874 0-5.1875-4.21875-9.40625-9.40625-9.40625-3.527343 0-6.730469 1.949218-8.355469 5.09375-1.734374 3.347656-5.210937 5.433593-8.972656 5.398437-3.769531-.035156-7.199218-2.1875-8.871094-5.5625-1.601562-3.242187-4.839843-5.253906-8.441406-5.253906zm0 0"/><path d="m307.726562 99.769531c0-10.714843-8.6875-19.40625-19.40625-19.40625-7.503906 0-14.007812 4.265625-17.234374 10.496094-3.171876-6.40625-9.773438-10.816406-17.402344-10.816406-10.71875 0-19.40625 8.6875-19.40625 19.40625 0 19.019531 36.585937 43.953125 36.585937 43.953125s36.863281-24.933594 36.863281-43.632813zm0 0" fill="#f05f90"/><path d="m270.863281 153.402344c-1.964843 0-3.933593-.578125-5.632812-1.738282-6.835938-4.660156-40.957031-29.082031-40.957031-52.214843 0-16.214844 13.191406-29.40625 29.40625-29.40625 6.488281 0 12.589843 2.082031 17.554687 5.777343 4.890625-3.492187 10.824219-5.457031 17.085937-5.457031 16.214844 0 29.40625 13.191407 29.40625 29.40625 0 22.847657-34.371093 47.253907-41.261718 51.917969-1.691406 1.144531-3.644532 1.714844-5.601563 1.714844zm-17.179687-63.359375c-5.1875 0-9.40625 4.21875-9.40625 9.40625 0 7.738281 14.078125 21.957031 26.625 31.621093 13.8125-10.460937 26.824218-24.277343 26.824218-31.296874 0-5.1875-4.21875-9.40625-9.40625-9.40625-3.523437 0-6.726562 1.949218-8.355468 5.09375-1.734375 3.347656-5.207032 5.433593-8.972656 5.398437-3.769532-.035156-7.199219-2.1875-8.871094-5.566406-1.601563-3.238281-4.835938-5.25-8.4375-5.25zm0 0"/><path d="m367.445312 153.402344c-1.964843 0-3.933593-.578125-5.628906-1.738282-6.839844-4.660156-40.957031-29.082031-40.957031-52.214843 0-16.214844 13.191406-29.40625 29.40625-29.40625 6.488281 0 12.589844 2.082031 17.554687 5.777343 4.886719-3.492187 10.820313-5.457031 17.085938-5.457031 16.210938 0 29.402344 13.191407 29.402344 29.40625 0 22.847657-34.367188 47.253907-41.257813 51.917969-1.695312 1.144531-3.648437 1.714844-5.605469 1.714844zm-17.179687-63.359375c-5.1875 0-9.40625 4.21875-9.40625 9.40625 0 7.738281 14.078125 21.957031 26.628906 31.621093 13.808594-10.460937 26.824219-24.277343 26.824219-31.296874 0-5.1875-4.21875-9.40625-9.40625-9.40625-3.527344 0-6.730469 1.949218-8.359375 5.09375-1.730469 3.347656-5.203125 5.433593-8.972656 5.398437s-7.195313-2.1875-8.867188-5.5625c-1.605469-3.242187-4.839843-5.253906-8.441406-5.253906zm0 0"/><path d="m137.691406 184.480469h266.621094v38.667969h-266.621094zm0 0" fill="#00d2d7"/><path d="m404.308594 233.148438h-266.617188c-5.519531 0-10-4.476563-10-10v-38.667969c0-5.523438 4.480469-10 10-10h266.617188c5.523437 0 10 4.476562 10 10v38.667969c0 5.523437-4.476563 10-10 10zm-256.617188-20h246.617188v-18.667969h-246.617188zm0 0"/></svg>