<svg id="Capa_1" enable-background="new 0 0 512 512" height="512" viewBox="0 0 512 512" width="512" xmlns="http://www.w3.org/2000/svg"><g><g><path d="m391.732 137.664-7.061 8.136c-9.154 10.548-9.153 26.224.003 36.77l7.058 8.129v69.42l-7.061 8.136c-9.154 10.548-9.153 26.224.003 36.77l7.058 8.129v69.42l-7.061 8.136c-9.154 10.548-9.153 26.224.004 36.77l7.058 8.129v66.391h-67.286l-7.917-6.868c-10.546-9.149-26.217-9.148-36.761.004l-7.91 6.864h-88.791l-7.92-6.871c-10.545-9.148-26.212-9.148-36.757 0l-7.92 6.871h-66.029v-66.86l6.807-7.844c9.062-10.443 9.062-25.961 0-36.403l-6.807-7.844v-70.375l6.8-7.833c9.065-10.442 9.067-25.963.003-36.407l-6.803-7.84v-70.375l6.8-7.833c9.065-10.442 9.067-25.963.004-36.407l-6.803-7.84v-72.313h66.017l8.11 7.036c10.442 9.059 25.956 9.059 36.398 0l8.11-7.036h88.771l8.1 7.03c10.441 9.062 25.959 9.064 36.402.003l8.107-7.033h67.276v71.838z" fill="#fff"/></g><g><path d="m122.058 120.949h212.977v325.919h-212.977z" fill="#a0c8ff"/></g><g><path d="m440.5 89.968c-9.15 10.548-9.15 26.224 0 36.771l7.059 8.135v69.42l-7.059 8.135c-9.15 10.548-9.15 26.224 0 36.771l7.059 8.124v69.42l-7.059 8.134c-9.15 10.548-9.15 26.224 0 36.771l7.059 8.135v66.393h-55.826v-10.568l-7.059-8.134c-9.16-10.538-9.16-26.213 0-36.761l7.059-8.145v-69.42l-7.059-8.124c-9.16-10.548-9.16-26.223 0-36.771l7.059-8.135v-69.42l-7.059-8.124c-9.16-10.548-9.16-26.224 0-36.771l7.059-8.135v-71.843h-67.278l-8.104 7.039c-10.447 9.06-25.962 9.05-36.399-.01l-8.104-7.028h-88.766l-8.114 7.039c-10.437 9.06-25.952 9.06-36.399 0l-8.104-7.039h-10.196v-55.827h66.021l8.104 7.039c10.447 9.06 25.962 9.06 36.399 0l8.113-7.039h88.766l8.104 7.028c10.437 9.06 25.962 9.06 36.399 0l8.105-7.028h67.278v71.833z" fill="#838eb1"/></g><g><path d="m207.207 446.868 11.629-17.421c6.609-9.9 10.136-21.537 10.136-33.44v-121.322c0-11.777 9.547-21.324 21.324-21.324 11.621.025 21.324 9.684 21.324 21.324v121.958c0 11.505 3.295 22.77 9.496 32.461l11.366 17.763h-85.275z" fill="#e0a083"/></g><g><path d="m335.032 280.927c0 27.203-22.048 49.261-49.261 49.261-4.919 0-9.674-.719-14.151-2.074v-53.431c0-11.619-9.699-21.319-21.319-21.319-11.779 0-21.329 9.54-21.329 21.319v53.154c-4.745 1.53-9.807 2.352-15.055 2.352-27.213 0-49.261-22.058-49.261-49.261 0-23.578 16.564-43.275 38.695-48.111-1.787-5.104-2.762-10.577-2.762-16.287 0-27.203 22.048-49.261 49.261-49.261 27.203 0 49.251 22.058 49.251 49.261 0 5.71-.976 11.183-2.762 16.287 22.129 4.836 38.693 24.532 38.693 48.11z" fill="#a0e4a5"/></g><g><path d="m335.035 110.949h-212.977c-5.522 0-10 4.478-10 10v61.822c0 5.522 4.478 10 10 10s10-4.478 10-10v-51.822h192.978v105.696c-4.897-4.367-10.528-7.949-16.713-10.511.518-3.163.778-6.372.778-9.605 0-32.677-26.58-59.262-59.252-59.262-32.677 0-59.261 26.585-59.261 59.262 0 3.233.261 6.442.778 9.605-21.767 9.013-36.711 30.643-36.711 54.793 0 32.677 26.585 59.261 59.262 59.261 1.694 0 3.379-.078 5.055-.22v56.038c0 9.96-2.923 19.604-8.453 27.888l-8.66 12.974h-69.801v-165.623c0-5.522-4.478-10-10-10s-10 4.478-10 10v175.623c0 5.522 4.478 10 10 10h212.978c5.522 0 10-4.478 10-10v-325.919c-.001-5.522-4.478-10-10.001-10zm-121.118 209.239c-21.649 0-39.262-17.612-39.262-39.261 0-18.312 12.966-34.438 30.83-38.343 2.797-.611 5.198-2.393 6.595-4.893 1.396-2.499 1.654-5.478.708-8.181-1.46-4.172-2.2-8.539-2.2-12.982 0-21.649 17.612-39.262 39.261-39.262 21.644 0 39.252 17.612 39.252 39.262 0 4.443-.74 8.811-2.201 12.981-.946 2.702-.688 5.681.708 8.181 1.396 2.501 3.798 4.282 6.595 4.894 17.864 3.904 30.83 20.03 30.83 38.343 0 21.648-17.612 39.261-39.262 39.261-1.395 0-2.78-.072-4.15-.216v-45.287c-.003-17.072-14.249-31.324-31.324-31.324-17.037 0-31.325 14.27-31.324 31.324v5.507l-8.651-6.827c-4.334-3.42-10.624-2.68-14.045 1.656-3.421 4.335-2.68 10.623 1.656 14.045l21.04 16.603v14.197c-1.668.215-3.356.322-5.056.322zm11.988 116.68 1.248-1.87c7.731-11.582 11.818-25.065 11.818-38.991v-121.321c0-6.158 5.182-11.321 11.329-11.321 6.154 0 11.319 5.164 11.319 11.321v121.958c0 13.441 3.829 26.529 11.072 37.851l1.52 2.374h-48.306zm72.05 0-8.416-13.153c-5.181-8.097-7.919-17.458-7.919-27.071v-1.651l21.157-15.164c4.489-3.217 5.521-9.464 2.303-13.953-3.218-4.488-9.465-5.521-13.953-2.303l-9.507 6.814v-30.345c1.377.095 2.761.147 4.15.147 15.051 0 28.801-5.65 39.265-14.927v111.607h-27.08z"/><path d="m455.111 88.387c1.578-1.818 2.447-4.146 2.447-6.554v-71.833c0-5.522-4.478-10-10-10h-67.278c-2.407 0-4.733.868-6.552 2.445l-8.107 7.031c-6.641 5.764-16.652 5.761-23.293-.003l-8.104-7.028c-1.819-1.577-4.145-2.445-6.552-2.445h-88.766c-2.407 0-4.733.868-6.553 2.445l-8.116 7.041c-6.636 5.759-16.648 5.758-23.288.001l-8.104-7.038c-1.82-1.579-4.148-2.449-6.557-2.449h-66.021c-5.522 0-10 4.478-10 10v45.826h-45.826c-5.522 0-10 4.478-10 10v72.314c0 2.408.869 4.735 2.447 6.554l6.804 7.842c5.764 6.641 5.763 16.656-.001 23.296l-6.801 7.832c-1.579 1.819-2.449 4.147-2.449 6.557v70.375c0 2.408.869 4.735 2.447 6.555l6.804 7.839c5.764 6.642 5.763 16.657-.001 23.298l-6.801 7.833c-1.58 1.818-2.449 4.146-2.449 6.556v70.374c0 2.408.869 4.735 2.447 6.554l6.807 7.845c5.763 6.64 5.763 16.654 0 23.295l-6.807 7.844c-1.578 1.818-2.447 4.146-2.447 6.554v66.857c0 5.522 4.478 10 10 10h66.027c2.407 0 4.734-.869 6.554-2.446l7.919-6.871c6.742-5.85 16.91-5.848 23.652 0l7.92 6.871c1.818 1.577 4.145 2.446 6.553 2.446h88.791c2.408 0 4.735-.869 6.554-2.447l7.911-6.864c6.743-5.852 16.91-5.852 23.653-.003l7.917 6.868c1.818 1.578 4.146 2.446 6.553 2.446h67.287c5.522 0 10-4.478 10-10v-45.823h45.826c5.522 0 10-4.478 10-10v-66.394c0-2.408-.869-4.735-2.447-6.555l-7.058-8.132c-5.852-6.746-5.852-16.92-.001-23.665l7.059-8.135c1.578-1.818 2.447-4.146 2.447-6.554v-69.42c0-2.41-.87-4.739-2.451-6.559l-7.054-8.118c-5.852-6.746-5.852-16.92-.001-23.665l7.059-8.135c1.578-1.818 2.447-4.146 2.447-6.554v-69.42c0-2.408-.869-4.735-2.447-6.555l-7.058-8.132c-5.852-6.746-5.852-16.919-.001-23.665zm-73.379 403.613h-53.554l-5.098-4.422c-14.215-12.332-35.653-12.331-49.867.005l-5.09 4.417h-81.323l-5.101-4.425c-14.212-12.329-35.649-12.331-49.863 0l-5.101 4.425h-52.294v-53.125l4.359-5.023c12.248-14.113 12.248-35.399 0-49.512l-4.359-5.024v-62.904l4.353-5.013c12.251-14.114 12.253-35.401.004-49.518l-4.356-5.02v-62.905l4.353-5.012c12.252-14.115 12.254-35.402.004-49.517l-4.356-5.021v-58.58h52.284l2.03 1.762c14.961 14.942 36.484 16.962 52.764 2.83l5.294-4.592h81.3l5.279 4.583c13.956 12.112 35.554 12.112 49.516.005l5.185-4.504.096-.083h53.543v58.104l-4.614 5.315c-12.226 14.089-12.217 35.812.007 49.888l4.607 5.304v61.947l-4.614 5.315c-13.348 15.381-11.253 37.181 1.763 51.905l2.851 3.284v61.949l-4.614 5.316c-12.199 14.057-12.193 35.831.006 49.88l4.608 5.309v6.834 45.823zm55.827-413.9-4.611 5.314s-.001 0-.001.001c-12.334 14.217-12.334 35.66.001 49.879l4.611 5.313v61.952l-4.612 5.315c-12.334 14.217-12.334 35.66.005 49.883l4.607 5.303v61.949l-4.612 5.315c-12.334 14.217-12.334 35.66.001 49.879l4.611 5.313v52.659h-35.826v-.567-.002c0-2.409-.869-4.737-2.449-6.556l-2.425-2.793c-10.61-12.228-10.639-22.057.03-34.37l2.397-2.762c1.578-1.819 2.447-4.146 2.447-6.555v-.004-69.415-.005c0-2.41-.87-4.739-2.451-6.559l-4.931-5.675c-6.538-7.531-9.401-17.726-2.123-26.107l7.059-8.134c1.578-1.819 2.447-4.146 2.447-6.555v-.001-69.419-.001c0-2.409-.869-4.737-2.449-6.556l-7.058-8.129c-5.799-6.68-5.794-16.984.001-23.656l7.059-8.134c1.578-1.819 2.447-4.146 2.447-6.555v-.005-71.834-.001c0-5.522-4.478-10-10-10h-67.278c-3.592 0-6.441 2.13-8.917 4.5l-5.742 4.98c-6.573 5.704-16.723 5.696-23.292-.007l-8.104-7.028c-1.818-1.577-4.145-2.445-6.552-2.445h-88.766c-2.39 0-4.751.882-6.557 2.447l-8.111 7.036c-8.393 7.284-18.431 4.218-25.935-2.293l-5.457-4.74c-1.819-1.58-4.148-2.45-6.558-2.45h-.195v-35.825h52.284l5.289 4.593c14.117 12.242 35.4 12.24 49.504 0l5.292-4.593h81.301l5.282 4.58c14.11 12.249 35.396 12.25 49.506.003l5.285-4.583h53.546z"/><path d="m116.51 235.74c3.567 2.374 8.313 2.191 11.699-.432 3.3-2.556 4.642-7.06 3.334-11.011-1.34-4.049-5.216-6.862-9.488-6.862-4.171 0-8.007 2.705-9.412 6.63-1.517 4.24.085 9.197 3.867 11.675z"/></g></g></svg>