<?xml version="1.0" encoding="iso-8859-1"?>
<!-- Generator: Adobe Illustrator 19.0.0, SVG Export Plug-In . SVG Version: 6.00 Build 0)  -->
<svg version="1.1" id="Capa_1" xmlns="http://www.w3.org/2000/svg" xmlns:xlink="http://www.w3.org/1999/xlink" x="0px" y="0px"
	 viewBox="0 0 511.998 511.998" style="enable-background:new 0 0 511.998 511.998;" xml:space="preserve">
<path style="fill:#82C378;" d="M215.92,304.095c-35.417,0-64.129,28.712-64.129,64.129s-28.712,64.129-64.129,64.129
	s-64.129-28.712-64.129-64.129v12.024c0,46.485,37.683,84.169,84.169,84.169s84.169-37.684,84.169-84.169
	c0-15.495,12.561-28.056,28.056-28.056h100.202l8.016-48.097H215.92z"/>
<path style="fill:#C8FAA0;" d="M83.82,311.276c0,0,73.648-147.463,76.988-83.334l-7.181,26.553c0,0,60.288-96.361,68.972-46.26
	c0,0,25.384-40.415,121.578,26.219l-15.708-36.895l-40.047-25.294c-18.133-11.453-24.037-35.151-13.396-53.773l45.103-78.931
	C320.129,39.563,110.708,55.261,83.82,311.276z"/>
<g>
	<path style="fill:#82C378;" d="M392.274,223.934h-8.016c-13.282,0-24.048-10.767-24.048-24.048
		c0-13.282,10.767-24.048,24.048-24.048h40.081v-32.065h-36.073c-33.204,0-60.121,26.917-60.121,60.121s26.917,60.121,60.121,60.121
		c11.068,0,20.04,8.972,20.04,20.04c0,11.068-8.972,20.04-20.04,20.04h-60.121c-26.563,0-48.097,21.534-48.097,48.097v63.329
		c0,9.296,7.536,16.832,16.832,16.832h0.022c8.778,0,16.269-6.346,17.712-15.004l10.86-65.157h66.801
		c35.417,0,64.129-28.712,64.129-64.129S427.692,223.934,392.274,223.934z"/>
	<path style="fill:#82C378;" d="M488.468,119.724h-16.032l-6.641-6.641c-6.013-6.013-14.169-9.392-22.673-9.392h-18.783
		c-13.282,0-24.048,10.767-24.048,24.048v16.032c0,22.136,17.945,40.081,40.081,40.081l0,0V167.82
		c0-8.854,7.178-16.032,16.032-16.032H504.5v-16.032C504.5,126.902,497.322,119.724,488.468,119.724z"/>
</g>
<g>
	<path style="fill:#5AB478;" d="M393.881,247.982c-30.121,0-60.96-30.363-45.568-62.089c7.96-16.408,25.403-26.088,43.639-26.088
		h24.576c-3.546-4.683-6.196-10.073-7.411-16.032h-18.873c-31.125,0-58.608,22.824-61.773,53.788
		c-3.648,35.684,23.942,65.842,58.734,66.444c9.639,0.167,18.592,6.171,20.622,15.595c2.802,13.01-7.039,24.496-19.56,24.496
		h-60.121c-26.563,0-48.097,21.534-48.097,48.097v63.329c0,9.296,7.536,16.832,16.832,16.832h0.021
		c8.778,0,16.269-6.346,17.712-15.005l9.397-61.952c2.377-15.673,15.837-27.256,31.689-27.256c10.712,0,23.218,0,34.984,0.001
		c23.023,0.001,41.67-18.662,41.67-41.685l0,0C432.355,265.208,415.13,247.982,393.881,247.982L393.881,247.982z"/>
	<polygon style="fill:#5AB478;" points="23.532,231.95 7.5,207.902 23.532,159.805 39.565,207.902 	"/>
</g>
<path d="M488.468,112.224h-12.925l-4.444-4.444c-7.42-7.42-17.483-11.588-27.976-11.588h-66.566c-4.107,0-7.688,3.164-7.811,7.269
	c-0.128,4.247,3.278,7.731,7.497,7.731h66.88c6.515,0,12.764,2.588,17.371,7.196l6.64,6.64c1.407,1.407,3.314,2.197,5.303,2.197
	h16.032c4.712,0,8.532,3.82,8.532,8.532v8.532h-40.597c-12.996,0-23.532,10.536-23.532,23.532v5.444
	c-14.661-6.087-25.014-20.524-25.08-37.346c-0.016-4.013-3.164-7.485-7.174-7.655c-4.291-0.182-7.826,3.243-7.826,7.493
	c0,0.173,0.011,0.344,0.013,0.516h-4.538c-31.542,0-58.104,21.709-65.541,50.969l-27.133-16.033
	c-9.615-5.681-16.81-14.871-19.455-25.721c-2.671-10.958-0.764-22.222,5.355-31.679l53.858-83.236
	c3.05-4.713,8.28-7.559,13.894-7.559h18.667c4.107,0,7.688-3.164,7.811-7.269c0.128-4.247-3.278-7.731-7.497-7.731h-18.982
	c-10.701,0-20.673,5.425-26.487,14.41l-6.632,10.249c-14.222,1.663-65.215,10.039-117.476,48.026
	c-35.347,25.693-63.84,59.652-84.689,100.934c-25.887,51.258-39.955,113.971-41.812,186.399c-0.106,4.141,3.165,7.583,7.305,7.69
	c0.066,0.002,0.131,0.002,0.196,0.002c4.052,0,7.389-3.233,7.494-7.308c0.517-20.144,2.005-39.491,4.444-58.01
	c2.047-9.167,11.921-31.046,25.843-53.648c18.896-30.676,30.351-38.89,33.625-39.684c0.54,0.857,1.782,3.554,2.219,10.528
	c-6.573,20.82-8.774,34.493-8.892,35.248c-0.643,4.09,2.15,7.925,6.24,8.571c0.396,0.062,0.79,0.093,1.178,0.093
	c3.625,0,6.814-2.636,7.399-6.329c0.025-0.16,0.501-3.03,1.626-8.028c2.638-4.105,11.216-17.188,21.296-29.766
	c21.849-27.266,29.708-26.086,29.785-26.071c0.399,0.078,2.072,1.625,3.198,7.628c-5.486,22.87-6.604,37.651-6.665,38.5
	c-0.295,4.13,2.812,7.714,6.941,8.012c0.184,0.013,0.366,0.02,0.547,0.02c3.895,0,7.186-3.012,7.473-6.958
	c0.015-0.2,1.151-14.899,6.643-37.454c1.927-1.856,6.368-5.227,14.26-6.597c14.639-2.54,41.607,1.616,86.931,35.791
	c6.198,9.719,14.894,17.869,25.515,23.473c1.117,0.589,2.313,0.868,3.494,0.868c2.917,0,5.729-1.707,6.949-4.66
	c1.504-3.642-0.272-7.774-3.745-9.635c-14.925-7.997-24.917-22.471-27.266-38.914c2.812-0.01,5.541-1.601,6.823-4.426
	c1.598-3.519,0.093-7.687-3.234-9.653l-3.412-2.016c4.116-24.94,25.82-44.026,51.908-44.026h6.744
	c1.806,6.202,4.662,11.959,8.368,17.064h-18.449c-17.167,0-31.696,13.434-32.206,30.593c-0.53,17.83,13.821,32.504,31.534,32.504
	h7.157c31.076,0,57.008,24.677,57.482,55.75c0.482,31.626-25.104,57.508-56.622,57.508h-57.948l1.165-6.993
	c0.675-4.049-1.857-8.1-5.885-8.896c-4.169-0.824-8.167,1.961-8.86,6.123l-13.531,81.189c-0.842,5.051-5.161,8.72-10.298,8.738
	c-5.154,0.018-9.369-4.419-9.369-9.573v-63.089c0-22.421,18.176-40.597,40.597-40.597h59.503c14.998,0,27.711-11.732,28.147-26.723
	c0.448-15.386-11.797-28.075-27.019-28.353c-3.982-0.073-7.571,2.755-7.971,6.717c-0.453,4.492,3.062,8.279,7.461,8.279
	c7.314,0,13.185,6.293,12.484,13.749c-0.612,6.497-6.324,11.331-12.851,11.331H214.973c-39.454,0-70.602,32.292-70.682,71.745
	c-0.063,31.185-25.463,56.533-56.667,56.513c-31.412-0.021-56.591-26.144-56.591-57.557V238.46c0-2.764,0.818-5.466,2.351-7.766
	l12.421-18.632c1.284-1.926,1.607-4.336,0.875-6.532l-15.942-47.826c-0.923-2.768-3.267-4.927-6.158-5.327
	c-3.641-0.503-7.033,1.665-8.163,5.056L0.385,205.53c-0.732,2.196-0.409,4.606,0.875,6.532l12.421,18.632
	c1.533,2.3,2.351,5.002,2.351,7.766v129.765v10.921c0,50.756,40.78,92.7,91.535,92.773c50.577,0.073,91.752-41.027,91.803-91.575
	c0.011-11.39,9.166-20.65,20.556-20.65h27.742c4.107,0,7.688-3.164,7.811-7.269c0.128-4.247-3.278-7.731-7.497-7.731h-28.057
	c-19.579,0-35.594,15.827-35.556,35.406c0.082,42.345-34.343,76.82-76.669,76.82c-24.536,0-46.401-11.599-60.444-29.587
	c11.51,7.893,25.424,12.522,40.403,12.522c39.614,0,71.82-32.324,71.629-71.982c-0.151-31.172,25.668-56.277,56.841-56.277h74.085
	c-10.861,10.154-17.668,24.592-17.668,40.597v56.738l-9.551,7.901c-9.694,8.02-11.375,22.186-3.826,32.251l29.925,39.9h-8.734
	c-4.107,0-7.688,3.164-7.811,7.269c-0.128,4.247,3.278,7.731,7.497,7.731h24.046c0.003,0,0.006,0,0.009,0c0.002,0,0.004,0,0.006,0
	h5.332c1.401,0,2.774-0.389,3.963-1.132c7.099-4.439,16.131-6.884,25.43-6.884c9.294,0,18.321,2.442,25.418,6.876
	c1.236,0.772,2.609,1.141,3.967,1.141c2.554,0,5.051-1.304,6.458-3.675c2.13-3.587,0.725-8.22-2.829-10.404
	c-9.516-5.848-20.922-8.938-33.014-8.938c-11.303,0-22.004,2.704-31.125,7.832l-36.537-48.716
	c-2.737-3.649-2.128-8.786,1.387-11.694l2.518-2.083c3.984,8.02,12.264,13.548,21.824,13.548c12.495,0,23.055-8.946,25.11-21.271
	l9.815-58.89h59.534c39.435,0,72.157-31.489,72.539-70.922c0.386-39.819-31.894-72.336-71.625-72.336h-7.578
	c-9.256,0-17.139-7.574-16.984-16.829c0.15-8.996,7.515-16.268,16.546-16.268h35.399c8.39,5.085,18.224,8.016,28.73,8.016h39.766
	c4.107,0,7.688-3.164,7.811-7.269c0.128-4.247-3.278-7.731-7.497-7.731h-40.583c-0.005-0.005-0.008-0.008-0.013-0.013v-8.519
	c0-4.712,3.82-8.532,8.532-8.532h32.581v0.202c0,4.107,3.164,7.688,7.269,7.811c4.247,0.128,7.731-3.278,7.731-7.497v-0.516h0.516
	c4.142,0,7.5-3.358,7.5-7.5v-16.032C512,122.76,501.464,112.224,488.468,112.224z M174.162,213.451
	c12.436-32.78,34.236-75.754,71.098-112.46c2.935-2.923,2.945-7.671,0.022-10.607c-2.923-2.936-7.672-2.945-10.606-0.023
	c-38.717,38.553-61.186,83.312-73.217,114.071c-0.164,0.419-0.32,0.831-0.481,1.248c-2.798-2.643-6.009-3.56-8.939-3.663
	c-7.148-0.259-14.942,4.574-24.49,15.194c-6.934,7.712-14.761,18.524-22.635,31.269c-0.449,0.726-0.899,1.469-1.35,2.211
	c6.159-22.209,14.009-42.85,23.544-61.814c19.662-39.104,46.49-71.265,79.739-95.589c34.77-25.437,69.519-36.96,91.379-42.084
	c-41.021,44.33-63.018,93.159-74.39,127.272c-1.195,3.586-2.297,7.076-3.318,10.465c-1.705-1.145-3.613-1.927-5.724-2.341
	C208.028,185.273,196.564,186.788,174.162,213.451z M241.738,189.692c-2.24,0.389-4.309,0.897-6.218,1.488
	c0.844-2.748,1.739-5.555,2.701-8.428c4.958-14.805,12.021-32.515,21.914-51.393c-0.454,5.701-0.028,11.506,1.326,17.254
	c3.504,14.871,12.678,27.342,25.832,35.115l33.364,19.715c-0.001,0.151-0.011,0.299-0.011,0.45c0,3.807,0.322,7.562,0.937,11.236
	C289.969,194.527,263.171,185.973,241.738,189.692z M23.532,183.522l7.757,23.271l-7.757,11.636l-7.757-11.636L23.532,183.522z"/>
<path d="M455.967,127.741c0-4.142-3.358-7.5-7.5-7.5h-0.08c-4.142,0-7.46,3.358-7.46,7.5c0,4.142,3.398,7.5,7.54,7.5
	S455.967,131.883,455.967,127.741z"/>
<g>
</g>
<g>
</g>
<g>
</g>
<g>
</g>
<g>
</g>
<g>
</g>
<g>
</g>
<g>
</g>
<g>
</g>
<g>
</g>
<g>
</g>
<g>
</g>
<g>
</g>
<g>
</g>
<g>
</g>
</svg>
