<svg id="Capa_1" enable-background="new 0 0 511.92 511.92" height="512" viewBox="0 0 511.92 511.92" width="512" xmlns="http://www.w3.org/2000/svg"><g><g><path d="m179.17 353.343v-223.695h-88.759l-80.426 223.695z" fill="#a0c8ff"/></g><g><path d="m179.17 129.648h-169.185l85.219-75.882z" fill="#61a2ff"/></g><g><path d="m9.985 353.343 69.04 104.811h54.857l45.288-104.811z" fill="#61a2ff"/></g><g><path d="m370.356 458.154 103.456-274.564h-221.472l-118.458 274.564z" fill="#a0c8ff"/></g><g><path d="m501.985 458.154-92.226-104.811-39.403 104.811z" fill="#a0c8ff"/></g><g><path d="m252.34 183.59 157.419 169.753 64.053-169.753z" fill="#61a2ff"/></g><g><path d="m509.492 451.547-88.194-100.228 61.872-164.202c2.42-6.423-2.476-13.526-9.358-13.526h-221.472c-3.937 0-7.613 2.434-9.182 6.038l-53.988 125.134v-175.114c0-2.797-1.22-5.543-3.295-7.419l-83.966-75.882c-3.787-3.424-9.543-3.442-13.355-.05l-85.219 75.882c-6.722 5.987-2.332 17.469 6.65 17.469h66.204l-75.614 210.31c-1.047 2.911-.645 6.298 1.059 8.885l69.041 104.811c1.85 2.809 4.988 4.499 8.351 4.499h136.466c5.523 0 10-4.478 10-10s-4.477-10-10-10h-66.394l106.346-246.511 142.779 153.967-34.791 92.543h-59.96c-5.523 0-10 4.478-10 10s4.477 10 10 10h198.512c8.421 0 13.082-10.269 7.508-16.606zm-414.337-384.347 58.035 52.448h-62.779-54.158zm2.287 72.449h71.728v203.694h-144.963zm-68.896 223.694h135.35l-36.591 84.811h-42.893zm430.805-169.753-53.245 141.107-130.854-141.107zm-74.54 254.563 28.5-75.636 66.554 75.636z"/><path d="m269.724 454.33c-3.358-8.066-15.116-8.05-18.46 0-3.612 8.696 6.289 17.235 14.368 12.4 4.194-2.51 5.972-7.892 4.092-12.4z"/></g></g></svg>