<svg height="512pt" viewBox="0 -48 512 511" width="512pt" xmlns="http://www.w3.org/2000/svg"><path d="m438.003906 405.410156h-334.003906v-261.601562h334.003906" fill="#ede6f5"/><path d="m438.003906 318.945312v-175.136718h49.589844c7.957031 0 14.40625 6.449218 14.40625 14.40625v232.789062c0 7.957032-6.449219 14.40625-14.40625 14.40625h-49.589844" fill="#52607e"/><path d="m438 371.277344c-.648438 0-1.308594-.0625-1.949219-.191406-.640625-.128907-1.269531-.320313-1.871093-.570313-.609376-.25-1.1875-.558594-1.730469-.921875-.550781-.367188-1.058594-.777344-1.519531-1.25-1.859376-1.859375-2.929688-4.429688-2.929688-7.070312 0-.648438.070312-1.308594.199219-1.949219.128906-.640625.320312-1.269531.570312-1.871094.25-.609375.558594-1.1875.917969-1.726563.363281-.550781.78125-1.0625 1.242188-1.523437.460937-.457031.96875-.878906 1.519531-1.238281.539062-.359375 1.121093-.671875 1.730469-.921875.601562-.25 1.230468-.4375 1.871093-.566407 1.289063-.261718 2.617188-.261718 3.910157 0 .628906.128907 1.257812.316407 1.867187.566407.601563.25 1.179687.5625 1.722656.921875.546875.359375 1.058594.78125 1.519531 1.238281.460938.460937.878907.972656 1.25 1.523437.359376.539063.667969 1.117188.917969 1.726563.25.601563.441407 1.230469.570313 1.871094s.191406 1.300781.191406 1.949219c0 2.640624-1.070312 5.210937-2.933594 7.070312-.457031.472656-.96875.882812-1.519531 1.25-.539063.359375-1.117187.671875-1.71875.921875-.609375.25-1.238281.441406-1.871094.570313-.648437.128906-1.308593.191406-1.957031.191406zm0 0"/><path d="m104 143.808594v261.601562h-79.59375c-7.957031 0-14.40625-6.449218-14.40625-14.40625v-232.789062c0-7.957032 6.449219-14.40625 14.40625-14.40625z" fill="#52607e"/><path d="m37.667969 255.277344h38.667969v38.667968h-38.667969zm0 0" fill="#f05f90"/><path d="m76.335938 303.945312h-38.667969c-5.523438 0-10-4.476562-10-10v-38.667968c0-5.523438 4.476562-10 10-10h38.667969c5.519531 0 10 4.476562 10 10v38.667968c0 5.523438-4.480469 10-10 10zm-28.667969-20h18.667969v-18.667968h-18.667969zm0 0"/><path d="m203.4375 120.011719-32.792969 69.558593 13.417969 54.117188 33.894531-16.980469" fill="#43b0fc"/><path d="m320.414062 226.707031 33.894532 16.980469 13.417968-54.117188-32.792968-69.558593" fill="#43b0fc"/><path d="m319.382812 235.53125s14.417969-99.316406 14.417969-117.664062c0-54.140626-64.601562-107.367188-64.601562-107.367188s-64.625 53.226562-64.625 107.363281c0 18.347657 14.414062 117.667969 14.414062 117.667969zm0 0" fill="#ffe681"/><path d="m230.019531 235.53125c13.503907 27.417969 39.167969 67.753906 39.167969 67.753906s25.660156-40.335937 39.164062-67.753906zm0 0" fill="#f05f90"/><path d="m300.960938 122.511719c0 17.550781-14.226563 31.773437-31.773438 31.773437-17.550781 0-31.773438-14.222656-31.773438-31.773437 0-17.546875 14.222657-31.773438 31.773438-31.773438 17.546875 0 31.773438 14.226563 31.773438 31.773438zm0 0" fill="#43b0fc"/><path d="m269.183594 164.285156c-23.03125 0-41.773438-18.738281-41.773438-41.773437 0-23.03125 18.742188-41.773438 41.773438-41.773438 23.035156 0 41.777344 18.742188 41.777344 41.773438 0 23.035156-18.742188 41.773437-41.777344 41.773437zm0-63.546875c-12.003906 0-21.773438 9.769531-21.773438 21.773438 0 12.007812 9.769532 21.773437 21.773438 21.773437 12.007812 0 21.777344-9.765625 21.777344-21.773437 0-12.003907-9.769532-21.773438-21.777344-21.773438zm0 0"/><path d="m400.3125 388.21875c0-20.492188-16.613281-37.101562-37.101562-37.101562-15.496094 0-28.773438 9.5-34.324219 22.996093-14.703125-16.324219-36.003907-26.585937-59.703125-26.585937-23.695313 0-44.996094 10.261718-59.699219 26.585937-5.550781-13.496093-18.828125-22.996093-34.324219-22.996093-20.492187 0-37.101562 16.609374-37.101562 37.101562 0 6.203125 1.523437 12.054688 4.21875 17.191406h253.816406c2.695312-5.136718 4.21875-10.988281 4.21875-17.191406zm0 0" fill="#00d2d7"/><path d="m487.59375 133.808594h-134.59375c-.167969 0-.335938.003906-.503906.011718l-8.519532-18.070312c-.070312-.152344-.144531-.300781-.21875-.445312-1.867187-57.21875-65.453124-110.261719-68.199218-112.523438-3.691406-3.042969-9.019532-3.042969-12.714844 0-2.746094 2.261719-66.363281 55.304688-68.226562 112.527344-.078126.144531-.152344.289062-.222657.441406l-8.515625 18.058594h-161.472656c-13.457031 0-24.40625 10.949218-24.40625 24.40625v232.789062c0 13.457032 10.949219 24.40625 24.40625 24.40625h463.1875c13.457031 0 24.40625-10.949218 24.40625-24.40625v-232.789062c0-13.457032-10.949219-24.40625-24.40625-24.40625zm-147.269531 21.089844 16.839843 35.71875-9.554687 38.53125-16.066406-8.050782c2.355469-16.726562 6.0625-43.628906 8.78125-66.199218zm-71.121094-131.007813c15.625 14.53125 54.59375 54.714844 54.59375 93.976563 0 12.832031-8.136719 72.839843-12.75 105.347656-.285156.761718-.472656 1.535156-.566406 2.316406h-82.59375c-.089844-.78125-.277344-1.558594-.5625-2.320312-4.613281-32.511719-12.75-92.511719-12.75-105.347657 0-39.164062 39.007812-79.421875 54.628906-93.972656zm22.644531 221.640625c-7.535156 13.785156-16.347656 28.5-22.660156 38.8125-6.316406-10.3125-15.125-25.027344-22.660156-38.8125zm-93.800781-90.632812c2.71875 22.570312 6.425781 49.472656 8.78125 66.199218l-16.066406 8.050782-9.554688-38.53125zm-178.046875 236.105468v-232.789062c0-2.429688 1.976562-4.40625 4.40625-4.40625h69.59375v241.601562h-69.59375c-2.429688 0-4.40625-1.976562-4.40625-4.40625zm129.019531 4.40625c-.636719-2.316406-.960937-4.722656-.960937-7.191406 0-14.945312 12.160156-27.101562 27.101562-27.101562 11.035156 0 20.878906 6.59375 25.078125 16.800781 1.304688 3.175781 4.152344 5.460937 7.539063 6.046875 3.390625.585937 6.839844-.605469 9.136718-3.160156 13.328126-14.792969 32.378907-23.277344 52.273438-23.277344 19.890625 0 38.945312 8.484375 52.269531 23.277344 2.300781 2.554687 5.753907 3.746093 9.136719 3.160156 3.386719-.585938 6.234375-2.871094 7.542969-6.046875 4.199219-10.207031 14.039062-16.800781 25.074219-16.800781 14.945312 0 27.101562 12.15625 27.101562 27.101562 0 2.46875-.320312 4.875-.957031 7.191406zm342.980469-4.40625c0 2.429688-1.976562 4.40625-4.40625 4.40625h-77.835938c.367188-2.375.554688-4.78125.554688-7.191406 0-25.972656-21.128906-47.101562-47.101562-47.101562-14.398438 0-27.625 6.457031-36.410157 17.179687-16.101562-13.320313-36.488281-20.769531-57.617187-20.769531-21.125 0-41.515625 7.449218-57.613282 20.769531-8.789062-10.722656-22.015624-17.179687-36.410156-17.179687-25.972656 0-47.101562 21.128906-47.101562 47.101562 0 2.410156.1875 4.816406.554687 7.191406h-14.613281v-241.601562h62.449219l-14.847657 31.5c-.984374 2.078125-1.214843 4.4375-.664062 6.667968l13.417969 54.121094c.730469 2.945313 2.761719 5.402344 5.523437 6.675782 1.328125.609374 2.753906.917968 4.183594.917968 1.535156 0 3.070312-.355468 4.476562-1.058594l22.371094-11.207031c1.828125 2.507813 4.789063 4.105469 8.078125 4.105469h4.878907c13.960937 27.03125 35.890624 61.566406 36.878906 63.121094 1.839844 2.886718 5.019531 4.632812 8.441406 4.632812 3.417969 0 6.601562-1.746094 8.4375-4.632812.988281-1.554688 22.921875-36.089844 36.878906-63.121094h4.878906c3.289063 0 6.25-1.597656 8.082032-4.105469l22.367187 11.203125c1.40625.707032 2.941407 1.058594 4.476563 1.058594 1.429687 0 2.855468-.304688 4.183594-.917969 2.761718-1.269531 4.792968-3.726562 5.523437-6.675781l13.417969-54.117188c.550781-2.234374.320312-4.589843-.664063-6.667968l-14.847656-31.5h66.082031v165.136718c0 5.523438 4.476563 10 10 10 5.519532 0 10-4.476562 10-10v-165.136718h39.589844c2.429688 0 4.40625 1.976562 4.40625 4.40625zm0 0"/></svg>