<svg id="Capa_1" enable-background="new 0 0 512.018 512.018" height="512" viewBox="0 0 512.018 512.018" width="512" xmlns="http://www.w3.org/2000/svg"><g><g><path d="m452.042 322.01c0 68.25-21.09 130.87-33.13 161.06-4.57 11.44-15.64 18.93-27.96 18.93h-68.1c-12.32 0-23.39-7.49-27.96-18.93-.51-1.28-1.04-2.62-1.58-4.01 9.76-6.07 18.98-13.34 27.45-21.81 59.66-59.66 59.66-156.39 0-216.05-8.625-8.625-18.276-16.232-28.7-22.57 4.988-8.173 10.293-16.566 16.28-24.05 7.37-10.47 10.81-23.19 9.78-35.95l-17.13-88.05c-2.535-32.146 23.513-60.58 55.87-60.58 32.343-.043 58.559 28.404 55.95 60.58l-17.13 88.05c-1.03 12.76 2.41 25.48 9.78 35.95 11.666 16.787 23.09 33.727 31.175 52.594 10.126 23.628 15.405 49.123 15.405 74.836z" fill="#fff"/></g><g><path d="m406.713 101.92-8.58 44.14h-82.461l-8.58-44.14z" fill="#ff7e96"/></g><g><path d="m431.893 236.9h-115.6c-7.59-7-15.71-13.09-24.23-18.27 5.017-8.22 9.873-15.89 16.17-23.89h97.34c9.495 13.667 18.905 27.205 26.32 42.16z" fill="#ff7e96"/></g><g><ellipse cx="212.735" cy="349.226" fill="#838eb1" rx="152.774" ry="152.774" transform="matrix(.707 -.707 .707 .707 -184.632 252.712)"/></g><g><ellipse cx="201.379" cy="340.074" fill="#838eb1" rx="20.706" ry="20.706" transform="matrix(.912 -.41 .41 .912 -121.664 112.375)"/></g><g><ellipse cx="125.549" cy="321.028" fill="#838eb1" rx="20.706" ry="20.706" transform="matrix(.912 -.41 .41 .912 -120.519 79.631)"/></g><g><ellipse cx="182.333" cy="264.244" fill="#838eb1" rx="20.706" ry="20.706" transform="matrix(.912 -.41 .41 .912 -92.265 97.913)"/></g><g><path d="m445.829 243.235c-8.36-19.509-20.12-37.044-32.189-54.411-5.894-8.373-8.735-18.603-8.029-28.861l17.019-87.473c7.281-37.726-30.24-72.49-65.768-72.49-35.452 0-72.997 34.847-65.686 72.49l17.019 87.474c.698 10.165-2.084 20.299-7.866 28.627-4.291 5.39-8.166 11.095-11.665 16.576-23.126-12.225-49.028-18.714-75.93-18.714-82.435 0-153.641 64.216-161.938 146.303-3.701 36.621 5.18 73.738 25.006 104.513 2.991 4.643 9.181 5.981 13.822 2.99 4.643-2.991 5.981-9.179 2.99-13.822-17.383-26.981-25.167-59.537-21.919-91.67 7.276-72 69.759-128.313 142.038-128.313 40.349 0 79.007 17.403 106.07 47.203 50.496 55.976 48.793 142.617-5.113 196.523-41.422 41.422-105.895 53.339-159.42 29.336-5.041-2.264-10.957-.007-13.216 5.032-2.261 5.039-.007 10.956 5.032 13.216 21.075 9.452 43.656 14.255 66.497 14.255 26.453 0 52.869-6.473 76.255-18.851 7.232 11.625 19.934 18.832 34.014 18.832h68.1c16.506 0 31.126-9.899 37.25-25.226 12.639-31.694 33.841-95.244 33.841-164.765 0-27.166-5.455-53.67-16.214-78.774zm-126.606-131.315h75.358l-4.696 24.141h-65.965zm8.868 45.906c-.06-.594-.153-1.183-.28-1.766h58.183c-1.796 9.257.146 19.913 3.249 28.68h-64.687c3.033-8.559 4.275-17.737 3.535-26.914zm-7.961 69.074c-4.583-4.028-9.393-7.811-14.393-11.307 2.285-3.556 4.734-7.187 7.445-10.853h87.15c5.068 7.358 9.974 14.7 14.479 22.16zm3.14-191.968c8.771-9.49 21.014-14.932 33.606-14.932 25.975 0 47.796 23.312 46.009 49.245l-4.411 22.675h-83.142l-4.41-22.663c-.827-12.439 3.656-24.921 12.348-34.325zm86.357 444.428c-3.067 7.679-10.398 12.64-18.675 12.64h-68.1c-6.993 0-13.31-3.543-16.949-9.266 43.215-30.254 69.604-80.666 69.604-133.51 0-37.704-12.74-73.445-36.172-102.324h86.222c10.864 23.444 16.484 49.279 16.484 75.109.002 66.179-20.31 126.996-32.414 157.351z"/><path d="m179.668 318.361c-11.819 11.817-11.822 31.604-.001 43.425 11.801 11.801 31.62 11.801 43.425 0 11.972-11.973 11.972-31.452 0-43.425-11.826-11.822-31.593-11.831-43.424 0zm29.281 14.143c4.175 4.174 4.175 10.966.001 15.14-4.176 4.173-10.968 4.175-15.142 0-4.092-4.094-4.102-11.037.001-15.14 4.088-4.088 11.043-4.097 15.14 0z"/><path d="m156.255 321.028c0-8.201-3.193-15.912-8.993-21.712-11.974-11.973-31.453-11.972-43.425-.001-11.817 11.817-11.822 31.604 0 43.424 11.817 11.819 31.603 11.823 43.423.001 5.8-5.799 8.995-13.51 8.995-21.712zm-23.137 7.571c-4.094 4.092-11.036 4.101-15.14-.001-4.092-4.094-4.102-11.037.001-15.14 4.087-4.087 11.044-4.096 15.14.001 4.094 4.093 4.099 11.037-.001 15.14z"/><path d="m160.621 242.531c-11.972 11.973-11.972 31.452 0 43.425 11.8 11.8 31.622 11.803 43.425 0 11.972-11.973 11.972-31.452 0-43.425-11.973-11.973-31.452-11.971-43.425 0zm29.282 29.282c-4.173 4.173-10.965 4.175-15.14 0-4.175-4.174-4.175-10.966 0-15.14 4.088-4.088 11.043-4.097 15.14 0 4.175 4.175 4.175 10.967 0 15.14z"/><path d="m122.151 461.06c-3.481-8.348-15.865-7.941-18.723.688-2.825 8.529 6.695 16.283 14.485 11.798 4.288-2.469 6.14-7.918 4.238-12.486z"/></g></g></svg>