<?xml version="1.0" encoding="iso-8859-1"?>
<!-- Generator: Adobe Illustrator 19.0.0, SVG Export Plug-In . SVG Version: 6.00 Build 0)  -->
<svg version="1.1" id="Capa_1" xmlns="http://www.w3.org/2000/svg" xmlns:xlink="http://www.w3.org/1999/xlink" x="0px" y="0px"
	 viewBox="0 0 512 512" style="enable-background:new 0 0 512 512;" xml:space="preserve">
<path style="fill:#9C969E;" d="M284.055,167.823H231.95c-17.709,0-32.065-14.356-32.065-32.065s14.356-32.065,32.065-32.065h104.21
	V47.581H227.943c-46.486,0-84.169,37.684-84.169,84.169s37.684,84.169,84.169,84.169h52.105c26.563,0,48.097,21.534,48.097,48.097
	s-21.534,48.097-48.097,48.097c-61.981,0-112.226,50.245-112.226,112.226V504.5h8.016c13.282,0,24.048-10.767,24.048-24.048v-48.097
	c0-44.272,35.89-80.161,80.161-80.161h4.008c50.913,0,92.185-41.273,92.185-92.185C376.241,209.095,334.968,167.823,284.055,167.823
	z"/>
<path style="fill:#867E88;" d="M424.338,47.581H406.93c-4.252,0-8.33-1.689-11.337-4.696l-9.96-9.961
	c-6.013-6.013-14.168-9.391-22.672-9.391H296.08l8.016,24.048H229c-46.41,0-84.879,37.121-85.224,83.53
	c-0.347,46.778,37.468,84.809,84.167,84.809h51.313c26.375,0,48.442,20.904,48.881,47.275c0.449,26.939-21.254,48.918-48.09,48.918
	c-61.98,0-112.226,50.245-112.226,112.226V504.5h8.016c6.187,0,12.465-3.096,16.726-6.935v-74.227
	c0-48.362,39.566-86.885,87.927-87.178c39.934-0.242,72.276-33.093,71.694-73.209c-0.574-39.591-33.535-71.08-73.13-71.08h-50.2
	c-32.994,0-60.526-26.202-61.026-59.192c-0.509-33.576,26.652-61.05,60.114-61.05h60.378c4.733,0,9.276,1.864,12.645,5.189
	l23.456,23.152c7.516,7.516,17.711,11.739,28.341,11.739h15.463V95.677c0-8.854,7.178-16.032,16.032-16.032h48.097
	c4.427,0,8.016-3.589,8.016-8.016v-8.016C440.37,54.758,433.192,47.581,424.338,47.581z"/>
<path d="M375.805,55.597c0-4.142-3.358-7.5-7.5-7.5h-0.081c-4.142,0-7.46,3.358-7.46,7.5s3.398,7.5,7.541,7.5
	S375.805,59.739,375.805,55.597z"/>
<path d="M461.469,274.519c-7.028-6.44-15.945-9.987-25.107-9.987c-6.808,0-13.477,1.964-19.338,5.611l-12.403-12.403
	c-5.779-5.778-13.405-9.029-21.545-9.222c-5.716-49.574-47.939-88.196-99.019-88.196h-52.105c-9.905,0-18.453-5.896-22.336-14.36
	c3.215-1.766,6.732-2.705,10.311-2.705c6.923,0,11.964,3.288,14.973,6.045c1.44,1.32,3.255,1.971,5.065,1.971
	c2.029,0,4.052-0.819,5.531-2.433c2.798-3.054,2.592-7.798-0.462-10.596c-7.027-6.44-15.944-9.987-25.108-9.987
	c-4.081,0-8.094,0.715-11.925,2.058c2.484-10.934,12.275-19.123,23.949-19.123h94.359c7.763,5.214,16.892,8.016,26.453,8.016h71.576
	c4.142,0,7.5-3.358,7.5-7.5s-3.358-7.5-7.5-7.5h-48.613v-8.532c0-4.705,3.828-8.532,8.533-8.532h40.597v0.516
	c0,4.142,3.358,7.5,7.5,7.5s7.5-3.358,7.5-7.5v-0.516h0.516c4.142,0,7.5-3.358,7.5-7.5V63.613c0-12.976-10.557-23.532-23.532-23.532
	h-20.942l-12.46-12.46c-7.472-7.473-17.408-11.588-27.976-11.588h-34.815c-4.142,0-7.5,3.358-7.5,7.5s3.358,7.5,7.5,7.5h34.815
	c6.562,0,12.73,2.555,17.37,7.195l14.657,14.657c1.407,1.406,3.314,2.197,5.303,2.197h24.048c4.705,0,8.532,3.828,8.532,8.532v8.532
	h-48.613c-12.976,0-23.533,10.556-23.533,23.532v8.532h-7.962c-8.703,0-16.884-3.389-23.038-9.543l-20.326-20.325
	c-2.929-2.929-7.678-2.929-10.606,0c-2.929,2.929-2.929,7.678,0,10.606l11.245,11.245h-30.506V55.081h30.233
	c7.558,5.059,16.637,8.016,26.396,8.016c4.142,0,7.5-3.358,7.5-7.5s-3.358-7.5-7.5-7.5c-17.965,0-32.581-14.615-32.581-32.581V7.5
	c0-4.142-3.358-7.5-7.5-7.5s-7.5,3.358-7.5,7.5v8.016c0,8.982,2.504,17.389,6.847,24.564h-7.363
	c-9.125,0-16.548-7.424-16.548-16.548c0-4.142-3.358-7.5-7.5-7.5s-7.5,3.358-7.5,7.5c0,6.065,1.725,11.734,4.703,16.548h-33.276
	c-43.847,0-80.597,30.948-89.569,72.145h-8.687c-8.427,0-16.349,3.281-22.308,9.24l-12.403,12.403
	c-5.862-3.647-12.531-5.611-19.339-5.611c-9.163,0-18.08,3.547-25.107,9.987c-3.054,2.798-3.261,7.543-0.462,10.596
	c1.479,1.615,3.501,2.433,5.531,2.433c1.81,0,3.625-0.651,5.065-1.97c3.01-2.758,8.051-6.046,14.974-6.046
	s11.963,3.288,14.973,6.045c1.383,1.268,3.191,1.971,5.067,1.971h16.032c4.142,0,7.5-3.358,7.5-7.5c0-3.507-2.41-6.443-5.662-7.264
	l4.438-4.438c3.126-3.126,7.282-4.847,11.702-4.847h6.7c-0.073,1.499-0.112,3.007-0.112,4.524c0,50.547,41.123,91.669,91.669,91.669
	h4.005c4.142,0,7.5-3.358,7.5-7.5s-3.358-7.5-7.5-7.5h-4.005c-3.622,0-7.18-0.271-10.669-0.759l11.933-32.444
	c0.908,0.062,1.821,0.106,2.744,0.106h24.564v40.057c0,5.898,4.485,8.04,7.5,8.04h16.032c16.892,0,31.401,10.373,37.508,25.081
	h-17.193c-8.427,0-16.35,3.282-22.308,9.24l-12.403,12.403c-5.862-3.648-12.531-5.611-19.338-5.611
	c-9.163,0-18.079,3.547-25.107,9.987c-3.054,2.798-3.261,7.542-0.463,10.596c1.479,1.614,3.502,2.433,5.532,2.433
	c1.81,0,3.625-0.651,5.065-1.97c3.01-2.758,8.051-6.046,14.974-6.046s11.963,3.288,14.973,6.045
	c1.383,1.268,3.191,1.971,5.067,1.971h16.032c4.142,0,7.5-3.358,7.5-7.5c0-3.507-2.41-6.443-5.662-7.264l4.438-4.438
	c3.125-3.126,7.281-4.847,11.702-4.847h20.268c0.002,0.173,0.013,0.343,0.013,0.516c0,22.385-18.211,40.597-40.597,40.597
	c-66.017,0-119.726,53.709-119.726,119.726V504.5c0,4.142,3.358,7.5,7.5,7.5h8.016c17.396,0,31.548-14.152,31.548-31.548v-48.097
	c0-40.066,32.596-72.661,72.661-72.661h4.008c53.775,0,97.734-42.803,99.615-96.127c3.907,0.316,7.54,1.978,10.343,4.781
	l4.438,4.438c-3.252,0.821-5.662,3.757-5.662,7.264c0,4.142,3.358,7.5,7.5,7.5h16.032c1.876,0,3.684-0.703,5.067-1.971
	c3.01-2.758,8.05-6.045,14.973-6.045c6.922,0,11.964,3.288,14.974,6.046c1.44,1.319,3.255,1.97,5.065,1.97
	c2.029,0,4.053-0.819,5.532-2.433C464.731,282.061,464.523,277.317,461.469,274.519z M151.273,131.75
	c0-6.731,0.879-13.259,2.516-19.484l39.931,13.31c-0.866,3.251-1.335,6.662-1.335,10.182s0.468,6.931,1.335,10.182l-37.63,12.543
	C152.982,150.155,151.273,141.149,151.273,131.75z M264.531,55.081v41.113H231.95c-1.16,0-2.306,0.061-3.442,0.159l-14.632-39.956
	c4.563-0.85,9.26-1.316,14.066-1.316C227.942,55.081,264.531,55.081,264.531,55.081z M199.441,60.596l14.61,39.896
	c-5.392,2.748-10.078,6.689-13.696,11.484l-41.334-13.778C167.337,81.184,181.773,67.699,199.441,60.596z M202.601,204.096
	c-16.64-5.846-30.669-17.27-39.832-32.028l37.586-12.528c3.753,4.973,8.65,9.035,14.297,11.792L202.601,204.096z M365.17,235.705
	l-33.403,7.953c-3.544-8.973-9.35-16.811-16.723-22.801l17.716-30.064C348.075,201.603,359.659,217.347,365.17,235.705z
	 M271.515,208.419c0-9.019,0-24.075,0-33.097h12.541c12.765,0,24.87,2.855,35.735,7.935l-17.557,29.794
	c-6.801-2.972-14.302-4.632-22.186-4.632H271.515z M192.386,432.355v0.516h-17.064v-8.533c0-13.375,2.524-26.171,7.115-37.941
	l17.644,10.053C195.139,407.414,192.386,419.569,192.386,432.355z M175.838,497h-0.516v-49.129h17.064v32.581
	C192.386,489.576,184.963,497,175.838,497z M207.395,383.353l-18.494-10.537c7.88-13.885,18.839-25.8,31.944-34.814l11.594,20.781
	C222.537,365.212,214.006,373.582,207.395,383.353z M280.047,344.694c-12.194,0-23.813,2.506-34.374,7.024l-11.891-21.314
	c13.96-6.903,29.665-10.792,46.264-10.792c0.54,0,1.073-0.025,1.61-0.041l3.995,25.081c-0.533,0.01-1.061,0.041-1.597,0.041h-4.007
	V344.694z M300.588,343.062l-4.129-25.924c9.939-3.077,18.685-8.88,25.385-16.521l23.666,17.566
	C333.678,330.675,318.104,339.581,300.588,343.062z M354.835,306.425l-24.684-18.322c3.519-7.291,5.493-15.462,5.493-24.086
	c0-1.955-0.104-3.886-0.302-5.79l32.839-7.819c0.358,3.153,0.56,6.353,0.56,9.6C368.741,277.137,363.613,293.084,354.835,306.425z"
	/>
<g>
</g>
<g>
</g>
<g>
</g>
<g>
</g>
<g>
</g>
<g>
</g>
<g>
</g>
<g>
</g>
<g>
</g>
<g>
</g>
<g>
</g>
<g>
</g>
<g>
</g>
<g>
</g>
<g>
</g>
</svg>
