<svg id="Capa_1" enable-background="new 0 0 512 512" height="512" viewBox="0 0 512 512" width="512" xmlns="http://www.w3.org/2000/svg"><g><g><path d="m10 353.183h82.596v55.448h-82.596z" fill="#e0a083"/></g><g><path d="m10 297.735h247.788v55.448h-247.788z" fill="#e0a083"/></g><g><path d="m92.596 186.839h247.788v55.448h-247.788z" fill="#e0a083"/></g><g><path d="m175.192 353.183h82.596v55.448h-82.596z" fill="#e0a083"/></g><g><path d="m92.596 242.287h82.596v55.448h-82.596z" fill="#f8e7df"/></g><g><path d="m10 242.287h82.596v55.448h-82.596z" fill="#e0a083"/></g><g><path d="m92.596 353.183h82.596v55.448h-82.596z" fill="#f8e7df"/></g><g><path d="m10 186.839h82.596v55.448h-82.596z" fill="#e0a083"/></g><g><path d="m175.192 131.39h82.596v55.448h-82.596z" fill="#e0a083"/></g><g><path d="m92.596 131.39h82.596v55.448h-82.596z" fill="#f8e7df"/></g><g><path d="m331.156 184.881 60.361-25.056c24.751-10.138 51.51 9.845 51.679 35.836 0 21.59-17.873 39.093-39.92 39.093h-44.827c-14.077 0-25.489 11.175-25.489 24.961 0 13.785 11.412 24.961 25.489 24.961h99.992c7.316 0 14.508-1.898 20.871-5.509l22.688-12.876v-118.143l-42.055-29.985c-22.21-15.694-51.098-19.109-76.484-9.041l-71.75 29.146c-13.301 5.276-19.681 20.772-13.727 33.809 5.748 12.303 20.398 17.957 33.172 12.804z" fill="#ffdad5"/></g><g><path d="m507.806 140.005-42.091-30.009c-25.119-17.749-57.246-21.551-86.018-10.139l-71.672 29.115c-18.701 7.417-27.715 29.66-18.838 47.866h-21.4v-45.448c0-5.522-4.478-10-10-10h-165.191c-5.522 0-10 4.478-10 10v45.448h-72.596c-5.522 0-10 4.478-10 10v221.793c0 5.522 4.478 10 10 10h402.528c5.522 0 10-4.478 10-10s-4.478-10-10-10h-144.74v-100.896c0-5.522-4.478-10-10-10h-72.597v-35.448h138.582c-.528 2.395-.814 4.878-.814 7.427 0 19.277 15.921 34.961 35.489 34.961h99.992c9.028 0 17.952-2.355 25.807-6.812l22.688-12.874c3.13-1.776 5.064-5.098 5.064-8.697v-118.145c.001-3.232-1.561-6.265-4.193-8.142zm-405.21 92.282v-35.448h227.788v35.448zm-82.596 55.448v-35.448h62.596v35.448zm330.384-100.008 44.924-18.648c18.142-7.439 37.888 7.533 37.888 26.582 0 16.042-13.422 29.093-29.92 29.093h-44.827c-2.774 0-5.472.325-8.064.921v-37.948zm-102.596-10.888h-62.597v-35.449h62.597zm-145.192-35.449h62.596v35.448h-62.596zm-82.596 55.449h62.596v35.448h-62.596zm0 166.344h62.596v35.448h-62.596zm82.596 0h62.596v35.448h-62.596zm82.595 0h62.597v35.448h-62.597zm62.597-20h-227.788v-35.448h227.788zm-82.597-55.448h-62.596v-35.448h62.596zm326.809-27.267-17.623 10c-4.851 2.752-10.361 4.206-15.937 4.206h-99.992c-8.541 0-15.489-6.712-15.489-14.961 0-8.325 7.313-14.96 15.489-14.96h44.827c27.526 0 49.92-22.022 49.92-49.093 0-33.072-34.403-57.809-65.513-45.072l-60.311 25.035c-7.889 3.158-16.812-.254-20.328-7.779-3.703-7.929.493-17.161 8.432-20.312l71.672-29.115c22.395-8.884 47.448-5.924 66.991 7.888l37.862 26.994z"/><path d="m466.45 404.804c-3.366-8.072-15.104-8.039-18.46 0-1.638 3.923-.525 8.624 2.7 11.398 3.233 2.781 8.006 3.186 11.667 1.003 4.196-2.502 5.97-7.893 4.093-12.401z"/></g></g></svg>