<svg id="Capa_1" enable-background="new 0 0 512.002 512.002" height="512" viewBox="0 0 512.002 512.002" width="512"
     xmlns="http://www.w3.org/2000/svg">
  <g>
    <g>
      <path
        d="m257.47 336.023h-72.5c-47.28 0-93.12 17.71-127.13 50.55-9.18 8.87-16.8 18.21-21.1 27.45 0 0-6.67-7.66-13.35-21.24s-13.37-33.08-13.39-56.76v-47.79c0-70.6 57.22-127.81 127.8-127.81h98.97c-20.62 15.43-33.59 39.99-33.59 67.05 0 0-.91 79.71 54.29 108.55z"
        fill="#ccd3dd"/>
    </g>
    <g>
      <path
        d="m374.719 317.703-47.834-27.794c-10.361-6.02-9.883-21.141.836-26.496l78.522-39.223v-.633s-33.021-63.139-115.582-63.139h-53.893c-20.618 15.432-33.586 39.991-33.586 67.057s-.91 79.709 54.287 108.545h112.314c10.036 0 13.613-13.275 4.936-18.317z"
        fill="#838eb1"/>
    </g>
    <g>
      <path
        d="m172.989 462.128s-76.812 1.287-123.082-35.959c-4.192-3.375-9.86-7.871-13.172-12.146 4.3-9.242 11.936-18.584 21.104-27.443 21.908-21.166 48.721-36.043 77.671-43.926 0 23.177 9.287 58.04 37.477 71.265v48.209z"
        fill="#838eb1"/>
    </g>
    <g>
      <path d="m257.481 336.027c-55.209-28.843-54.3-108.552-54.3-108.552h-88.018s22.33 54.276 97.97 54.276"
            fill="#838eb1"/>
    </g>
    <g>
      <path d="m268.569 160.419-12.965-18.84c-13.556-19.582-35.857-31.267-59.674-31.267h-66.957l34.993 50.107z"
            fill="#838eb1"/>
    </g>
    <g>
      <path d="m233.893 383.936v107.683l-60.904-29.491v-48.21z" fill="#838eb1"/>
    </g>
    <g>
      <circle cx="270.716" cy="221.401" fill="#838eb1" r="20.707"/>
    </g>
    <g>
      <circle cx="459.412" cy="146.468" fill="#fff" r="21.423"/>
    </g>
    <g>
      <path
        d="m379.743 309.057-47.835-27.794c-3.456-2.009-3.295-7.116.281-8.903l89.104-44.51c4.941-2.468 6.945-8.474 4.477-13.414-2.468-4.941-8.476-6.945-13.414-4.477l-2.167 1.082c-4.608-6.667-12.557-16.693-24.301-26.673-18.226-15.487-49.541-33.949-95.227-33.949h-16.834l-10.001-14.532c-15.421-22.275-40.803-35.574-67.896-35.574h-66.957c-3.727 0-7.145 2.072-8.867 5.377s-1.465 7.293.669 10.349l24.011 34.381h-6.984c-75.985-.001-137.802 61.823-137.802 137.815l.002 47.796c.057 55.869 30.907 99.608 82.296 119.741 5.149 2.016 10.945-.521 12.959-5.662 2.015-5.143-.521-10.944-5.662-12.959-14.919-5.845-28.654-14.008-40.574-24.74 16.922-26.798 47.998-46.155 77.336-56.445 1.062 8.558 3.363 19.174 8.17 30.083 6.574 14.919 16.338 26.499 28.461 33.841v42.237c0 3.783 2.238 7.351 5.642 9l60.904 29.491c1.381.669 2.871 1 4.357 1 1.851 0 3.694-.513 5.312-1.527 2.917-1.828 4.688-5.029 4.688-8.473v-107.683c0-3.455-1.783-6.665-4.717-8.49-2.933-1.826-6.602-2.007-9.7-.481l-56.292 27.712c-18.688-11.382-25.704-35.335-27.296-52.369 12.645-2.825 25.735-4.287 39.079-4.287h184.816c9.085 0 16.777-5.895 19.142-14.667s-1.325-17.732-9.18-22.296zm-155.85 166.609-40.904-19.807v-35.718l40.904-20.137zm-75.739-355.354h47.776c20.531 0 39.766 10.078 51.436 26.936l2.183 3.171h-80.368zm36.813 205.708c-55.595 0-114.671 24.342-148.653 69.651-7.074-12.204-16.286-33.178-16.314-59.651v-47.785c0-64.964 52.846-117.816 117.802-117.816h152.859c31.487 0 58.953 9.639 81.636 28.649 9.164 7.68 15.684 15.444 19.776 21.022l-68.821 34.376c-17.502 8.743-18.307 34.26-1.392 44.089l47.268 27.465h-109.022c-45.973-27.117-46.92-97.867-46.924-98.577-.017-5.43-4.569-9.968-10-9.968h-88.019c-3.31 0-6.404 1.638-8.267 4.373-1.862 2.736-2.25 6.217-1.036 9.295.252.641 6.368 15.854 22.45 30.796 14.128 13.127 38.993 28.68 78.009 29.749 5.321 12.536 12.516 24.365 21.842 34.333h-43.194zm8.641-88.544c.616 8.087 2.114 20.268 5.741 33.803-36.353-3.095-56.532-20.891-66.548-33.803z"/>
      <path
        d="m489.25 229.503c-12.422-8.571-19.838-22.297-19.838-36.716v-16.538c12.437-4.188 21.423-15.951 21.423-29.782s-8.986-25.594-21.423-29.782v-96.302c0-5.522-4.478-10-10-10s-10 4.478-10 10v96.303c-12.437 4.188-21.423 15.951-21.423 29.782s8.986 25.594 21.423 29.782v16.538c0 20.992 10.646 40.872 28.479 53.177 9.589 6.616 14.833 17.525 14.028 29.18-1.109 16.093-14.082 29.064-30.174 30.175-18.617 1.299-34.921-13.804-34.921-32.507 0-5.522-4.478-10-10-10s-10 4.478-10 10c0 30.105 26.326 54.528 56.297 52.46 25.999-1.794 46.958-22.753 48.751-48.751 1.295-18.774-7.162-36.351-22.622-47.019zm-29.838-94.458c6.299 0 11.423 5.124 11.423 11.423s-5.124 11.423-11.423 11.423-11.423-5.124-11.423-11.423 5.124-11.423 11.423-11.423z"/>
      <path
        d="m270.716 252.108c16.932 0 30.707-13.775 30.707-30.707s-13.775-30.707-30.707-30.707-30.707 13.775-30.707 30.707 13.775 30.707 30.707 30.707zm0-41.414c5.904 0 10.707 4.803 10.707 10.707s-4.803 10.707-10.707 10.707-10.707-4.803-10.707-10.707 4.803-10.707 10.707-10.707z"/>
      <path
        d="m138.53 454.371c-2.096-5.034-8.022-7.482-13.061-5.4-5.036 2.08-7.488 8.017-5.41 13.05 2.078 5.034 8.033 7.497 13.061 5.41 5.047-2.095 7.481-8.013 5.41-13.06z"/>
    </g>
  </g>
</svg>
