<svg height="512pt" viewBox="0 0 512 512" width="512pt" xmlns="http://www.w3.org/2000/svg"><path d="m470.578125 501.949219h-429.15625c-17.355469 0-31.421875-14.066407-31.421875-31.417969v-429.109375c0-17.355469 14.066406-31.421875 31.421875-31.421875h429.15625c17.355469 0 31.421875 14.070312 31.421875 31.421875v429.109375c0 17.351562-14.066406 31.417969-31.421875 31.417969zm0 0" fill="#ede6f5"/><path d="m470.578125 511.953125h-429.15625c-22.839844 0-41.421875-18.582031-41.421875-41.421875v-429.109375c0-22.839844 18.582031-41.421875 41.421875-41.421875h429.15625c22.839844 0 41.421875 18.582031 41.421875 41.421875v429.105469c0 22.84375-18.582031 41.425781-41.421875 41.425781zm-429.15625-491.953125c-11.8125 0-21.421875 9.609375-21.421875 21.421875v429.105469c0 11.816406 9.609375 21.421875 21.421875 21.421875h429.15625c11.8125 0 21.421875-9.605469 21.421875-21.421875v-429.105469c0-11.8125-9.609375-21.421875-21.421875-21.421875zm0 0"/><path d="m217.402344 420.941406h-103.882813c-12.425781 0-22.5-10.074218-22.5-22.5v-103.871094c0-12.425781 10.074219-22.5 22.5-22.5h103.882813c12.425781 0 22.5 10.074219 22.5 22.5v103.871094c0 12.425782-10.070313 22.5-22.5 22.5zm0 0" fill="#52607e"/><path d="m217.402344 430.941406h-103.882813c-17.921875 0-32.5-14.578125-32.5-32.5v-103.871094c0-17.921874 14.578125-32.5 32.5-32.5h103.886719c17.917969 0 32.5 14.578126 32.5 32.5v103.871094c-.003906 17.921875-14.582031 32.5-32.503906 32.5zm-103.882813-148.871094c-6.890625 0-12.5 5.605469-12.5 12.5v103.871094c0 6.894532 5.609375 12.5 12.5 12.5h103.886719c6.890625 0 12.5-5.605468 12.5-12.5v-103.871094c0-6.894531-5.609375-12.5-12.5-12.5zm0 0"/><path d="m398.480469 420.941406h-103.882813c-12.429687 0-22.5-10.074218-22.5-22.5v-103.871094c0-12.425781 10.070313-22.5 22.5-22.5h103.882813c12.425781 0 22.5 10.074219 22.5 22.5v103.871094c0 12.425782-10.074219 22.5-22.5 22.5zm0 0" fill="#7ccafd"/><path d="m398.480469 430.941406h-103.882813c-17.921875 0-32.5-14.578125-32.5-32.5v-103.871094c0-17.921874 14.578125-32.5 32.5-32.5h103.882813c17.921875 0 32.5 14.578126 32.5 32.5v103.871094c0 17.921875-14.578125 32.5-32.5 32.5zm-103.882813-148.871094c-6.894531 0-12.5 5.605469-12.5 12.5v103.871094c0 6.894532 5.605469 12.5 12.5 12.5h103.882813c6.890625 0 12.5-5.605468 12.5-12.5v-103.871094c0-6.894531-5.609375-12.5-12.5-12.5zm0 0"/><path d="m217.402344 239.882812h-103.882813c-12.425781 0-22.5-10.074218-22.5-22.5v-103.871093c0-12.425781 10.074219-22.5 22.5-22.5h103.882813c12.425781 0 22.5 10.074219 22.5 22.5v103.871093c0 12.425782-10.070313 22.5-22.5 22.5zm0 0" fill="#7ccafd"/><path d="m217.402344 249.882812h-103.882813c-17.921875 0-32.5-14.578124-32.5-32.5v-103.871093c0-17.921875 14.578125-32.5 32.5-32.5h103.886719c17.917969 0 32.5 14.578125 32.5 32.5v103.871093c-.003906 17.921876-14.582031 32.5-32.503906 32.5zm-103.882813-148.871093c-6.890625 0-12.5 5.605469-12.5 12.5v103.871093c0 6.890626 5.609375 12.5 12.5 12.5h103.886719c6.890625 0 12.5-5.609374 12.5-12.5v-103.871093c0-6.894531-5.609375-12.5-12.5-12.5zm0 0"/><path d="m398.480469 239.882812h-103.882813c-12.429687 0-22.5-10.074218-22.5-22.5v-103.871093c0-12.425781 10.070313-22.5 22.5-22.5h103.882813c12.425781 0 22.5 10.074219 22.5 22.5v103.871093c0 12.425782-10.074219 22.5-22.5 22.5zm0 0" fill="#52607e"/><path d="m398.480469 249.882812h-103.882813c-17.921875 0-32.5-14.578124-32.5-32.5v-103.871093c0-17.921875 14.578125-32.5 32.5-32.5h103.882813c17.921875 0 32.5 14.578125 32.5 32.5v103.871093c0 17.921876-14.578125 32.5-32.5 32.5zm-103.882813-148.871093c-6.894531 0-12.5 5.605469-12.5 12.5v103.871093c0 6.890626 5.605469 12.5 12.5 12.5h103.882813c6.890625 0 12.5-5.609374 12.5-12.5v-103.871093c0-6.894531-5.609375-12.5-12.5-12.5zm0 0"/><path d="m165.460938 309.035156 13.769531 22.476563 25.632812 6.148437-17.125 20.039063 2.074219 26.277343-24.351562-10.09375-24.351563 10.09375 2.074219-26.277343-17.125-20.039063 25.632812-6.148437zm0 0" fill="#ffe681"/><path d="m189.8125 393.976562c-1.292969 0-2.59375-.253906-3.828125-.761718l-20.519531-8.507813-20.523438 8.507813c-3.214844 1.332031-6.890625.898437-9.707031-1.148438s-4.367187-5.410156-4.089844-8.878906l1.746094-22.144531-14.433594-16.886719c-2.261719-2.644531-2.980469-6.277344-1.90625-9.585938 1.074219-3.3125 3.792969-5.824218 7.179688-6.636718l21.601562-5.179688 11.605469-18.941406c1.816406-2.96875 5.046875-4.777344 8.527344-4.777344 3.480468 0 6.710937 1.808594 8.527344 4.777344l11.601562 18.941406 21.601562 5.179688c3.386719.8125 6.105469 3.324218 7.179688 6.636718 1.074219 3.308594.355469 6.9375-1.90625 9.585938l-14.433594 16.886719 1.75 22.144531c.273438 3.46875-1.277344 6.832031-4.09375 8.878906-1.734375 1.261719-3.796875 1.910156-5.878906 1.910156zm-24.351562-30.09375c1.304687 0 2.605468.253907 3.828124.761719l9.273438 3.84375-.789062-10.003906c-.210938-2.644531.640624-5.265625 2.363281-7.28125l6.519531-7.625-9.757812-2.339844c-2.578126-.621093-4.808594-2.238281-6.195313-4.503906l-5.238281-8.554687-5.242188 8.554687c-1.386718 2.265625-3.617187 3.882813-6.195312 4.503906l-9.757813 2.339844 6.519531 7.625c1.722657 2.019531 2.574219 4.636719 2.363282 7.28125l-.789063 10.003906 9.273438-3.84375c1.222656-.507812 2.523437-.761719 3.824219-.761719zm0 0"/><path d="m346.539062 123.28125 13.769532 22.476562 25.632812 6.148438-17.125 20.039062 2.074219 26.277344-24.351563-10.089844-24.351562 10.089844 2.074219-26.277344-17.125-20.039062 25.632812-6.148438zm0 0" fill="#ffe681"/><path d="m370.890625 208.222656c-1.296875 0-2.597656-.25-3.828125-.761718l-20.523438-8.507813-20.523437 8.507813c-3.210937 1.332031-6.890625.898437-9.707031-1.148438-2.8125-2.046875-4.363282-5.40625-4.089844-8.875l1.746094-22.144531-14.429688-16.890625c-2.261718-2.644532-2.984375-6.273438-1.90625-9.585938 1.074219-3.308594 3.792969-5.820312 7.175782-6.632812l21.605468-5.183594 11.601563-18.941406c1.820312-2.96875 5.050781-4.777344 8.527343-4.777344 3.480469 0 6.710938 1.8125 8.527344 4.777344l11.605469 18.941406 21.601563 5.183594c3.386718.8125 6.105468 3.324218 7.179687 6.632812 1.074219 3.3125.355469 6.941406-1.90625 9.585938l-14.433594 16.890625 1.746094 22.144531c.277344 3.46875-1.273437 6.828125-4.089844 8.875-1.738281 1.261719-3.800781 1.910156-5.878906 1.910156zm-45.542969-50.398437 6.515625 7.625c1.722657 2.019531 2.574219 4.640625 2.367188 7.285156l-.789063 10 9.269532-3.839844c2.449218-1.015625 5.203124-1.015625 7.65625 0l9.269531 3.839844-.789063-10c-.210937-2.648437.640625-5.265625 2.367188-7.285156l6.515625-7.625-9.757813-2.339844c-2.578125-.621094-4.808594-2.238281-6.195312-4.5l-5.238282-8.558594-5.242187 8.558594c-1.386719 2.261719-3.613281 3.878906-6.195313 4.5zm0 0"/><path d="m384.949219 337.148438c0-11.207032-9.085938-20.292969-20.296875-20.292969-7.847656 0-14.652344 4.457031-18.027344 10.972656-3.316406-6.699219-10.21875-11.3125-18.203125-11.3125-11.210937 0-20.296875 9.089844-20.296875 20.296875 0 19.890625 38.269531 45.96875 38.269531 45.96875s38.554688-26.078125 38.554688-45.632812zm0 0" fill="#f05f90"/><path d="m346.394531 392.78125c-1.964843 0-3.933593-.578125-5.628906-1.734375-7.121094-4.851563-42.640625-30.269531-42.640625-54.234375 0-16.703125 13.59375-30.292969 30.296875-30.292969 6.804687 0 13.191406 2.21875 18.355469 6.15625 5.085937-3.722656 11.308594-5.820312 17.875-5.820312 16.707031 0 30.296875 13.589843 30.296875 30.296875 0 23.660156-35.777344 49.0625-42.953125 53.914062-1.691406 1.144532-3.644532 1.714844-5.601563 1.714844zm-17.972656-66.265625c-5.679687 0-10.296875 4.621094-10.296875 10.296875 0 8.324219 15.019531 23.480469 28.289062 33.640625 13.382813-10.148437 28.535157-25.210937 28.535157-33.304687 0-5.675782-4.617188-10.292969-10.296875-10.292969-3.859375 0-7.367188 2.136719-9.148438 5.574219-1.722656 3.320312-5.148437 5.398437-8.878906 5.398437-.03125 0-.0625 0-.09375 0-3.769531-.035156-7.199219-2.1875-8.871094-5.566406-1.753906-3.542969-5.292968-5.746094-9.238281-5.746094zm0 0"/><path d="m204.863281 154.765625c0-11.207031-9.085937-20.292969-20.296875-20.292969-7.851562 0-14.652344 4.457032-18.03125 10.972656-3.3125-6.699218-10.21875-11.3125-18.199218-11.3125-11.210938 0-20.300782 9.089844-20.300782 20.296876 0 19.890624 38.269532 45.96875 38.269532 45.96875s38.558593-26.078126 38.558593-45.632813zm0 0" fill="#f05f90"/><path d="m166.308594 210.398438c-1.96875 0-3.933594-.578126-5.632813-1.734376-7.121093-4.851562-42.640625-30.269531-42.640625-54.234374 0-16.703126 13.59375-30.292969 30.300782-30.292969 6.800781 0 13.191406 2.21875 18.351562 6.152343 5.089844-3.71875 11.308594-5.816406 17.878906-5.816406 16.703125 0 30.296875 13.589844 30.296875 30.296875 0 23.660157-35.78125 49.0625-42.953125 53.914063-1.691406 1.144531-3.648437 1.714844-5.601562 1.714844zm-17.972656-66.265626c-5.679688 0-10.300782 4.621094-10.300782 10.296876 0 8.324218 15.019532 23.480468 28.292969 33.640624 13.378906-10.148437 28.535156-25.210937 28.535156-33.304687 0-5.675781-4.621093-10.292969-10.296875-10.292969-3.863281 0-7.371094 2.136719-9.152344 5.574219-1.71875 3.320313-5.144531 5.398437-8.878906 5.398437-.03125 0-.0625 0-.09375 0-3.769531-.035156-7.199218-2.1875-8.871094-5.566406-1.75-3.542968-5.289062-5.746094-9.234374-5.746094zm0 0"/><path d="m50.09375 232.734375c-5.523438 0-10-4.476563-10-10v-153.179687c0-16.246094 13.21875-29.464844 29.46875-29.464844h153.195312c5.519532 0 10 4.476562 10 10 0 5.523437-4.480468 10-10 10h-153.195312c-5.222656 0-9.46875 4.246094-9.46875 9.464844v153.179687c0 5.523437-4.476562 10-10 10zm0 0"/><path d="m461.90625 222.710938c-5.523438 0-10-4.476563-10-10v-143.15625c0-5.21875-4.246094-9.464844-9.46875-9.464844h-153.195312c-5.519532 0-10-4.476563-10-10 0-5.523438 4.480468-10 10-10h153.195312c16.25 0 29.46875 13.21875 29.46875 29.464844v143.15625c0 5.523437-4.476562 10-10 10zm0 0"/><path d="m442.4375 471.863281h-153.195312c-5.519532 0-10-4.480469-10-10 0-5.523437 4.480468-10 10-10h153.195312c5.222656 0 9.46875-4.246093 9.46875-9.46875v-143.15625c0-5.519531 4.476562-10 10-10s10 4.480469 10 10v143.15625c0 16.25-13.21875 29.46875-29.46875 29.46875zm0 0"/><path d="m222.757812 471.863281h-153.195312c-16.25 0-29.46875-13.21875-29.46875-29.46875v-153.179687c0-5.519532 4.476562-10 10-10s10 4.480468 10 10v153.179687c0 5.222657 4.246094 9.46875 9.46875 9.46875h153.195312c5.519532 0 10 4.476563 10 10 0 5.519531-4.480468 10-10 10zm0 0"/><path d="m461.910156 263.964844c-.660156 0-1.3125-.058594-1.960937-.1875-.640625-.132813-1.269531-.320313-1.871094-.570313-.597656-.25-1.179687-.5625-1.71875-.921875-.550781-.359375-1.058594-.777344-1.519531-1.238281-1.871094-1.871094-2.929688-4.441406-2.929688-7.070313 0-.648437.058594-1.3125.1875-1.960937.128906-.640625.320313-1.269531.570313-1.867187.25-.601563.558593-1.179688.921875-1.730469.367187-.539063.777344-1.050781 1.25-1.511719 2.316406-2.328125 5.769531-3.398438 9.019531-2.738281.640625.128906 1.269531.320312 1.867187.570312.601563.25 1.183594.558594 1.730469.917969.550781.371094 1.0625.78125 1.519531 1.25 1.863282 1.859375 2.933594 4.429688 2.933594 7.070312 0 2.628907-1.070312 5.199219-2.933594 7.070313-.457031.460937-.96875.878906-1.519531 1.238281-.539062.359375-1.128906.671875-1.730469.921875-.597656.25-1.226562.4375-1.867187.570313-.640625.128906-1.300781.1875-1.949219.1875zm0 0"/><path d="m50.101562 263.964844c-.660156 0-1.320312-.058594-1.960937-.1875-.640625-.132813-1.269531-.320313-1.871094-.570313-.609375-.25-1.1875-.5625-1.730469-.921875-.546874-.359375-1.058593-.777344-1.519531-1.238281-1.859375-1.871094-2.929687-4.441406-2.929687-7.070313 0-.660156.070312-1.3125.199218-1.960937.132813-.640625.320313-1.269531.570313-1.867187.25-.601563.558594-1.179688.921875-1.730469.359375-.539063.777344-1.050781 1.238281-1.511719.460938-.46875.96875-.878906 1.519531-1.25.539063-.359375 1.121094-.667969 1.730469-.917969.601563-.25 1.230469-.441406 1.871094-.570312 1.289063-.261719 2.617187-.261719 3.910156 0 .636719.128906 1.257813.320312 1.867188.570312.601562.25 1.179687.558594 1.722656.917969.546875.371094 1.058594.78125 1.519531 1.25 1.871094 1.859375 2.9375 4.429688 2.9375 7.070312 0 2.628907-1.066406 5.199219-2.9375 7.070313-.460937.460937-.972656.878906-1.519531 1.238281-.542969.359375-1.121094.671875-1.722656.921875-.609375.25-1.230469.4375-1.867188.570313-.652343.128906-1.300781.1875-1.949219.1875zm0 0"/></svg>