<svg id="Capa_1" enable-background="new 0 0 512 512" height="512" viewBox="0 0 512 512" width="512" xmlns="http://www.w3.org/2000/svg"><g><g><path d="m256 413.56v42.66h-246v-340.63h43.88v297.97s36.17-20.39 101.06-20.39 101.06 20.39 101.06 20.39z" fill="#e0a083"/></g><g><path d="m502 456.22v-340.63h-43.88v297.97s-36.17-24.39-101.06-24.39-101.06 24.39-101.06 24.39v42.66z" fill="#e0a083"/></g><g><path d="m256 79.17v334.39s-36.17-20.39-101.06-20.39-101.06 20.39-101.06 20.39v-334.39s36.17-19.39 101.06-19.39 101.06 19.39 101.06 19.39z" fill="#fff"/></g><g><path d="m458.12 79.17v334.39s-36.17-24.39-101.06-24.39-101.06 24.39-101.06 24.39v-334.39s36.17-23.39 101.06-23.39 101.06 23.39 101.06 23.39z" fill="#fff"/></g><g><path d="m413.42 122.87v60.846c-38.081-9.136-57.873-5.49-68.95-4.616-1.74-11.43-11.61-20.19-23.53-20.19-5.91 0-11.3 2.15-15.45 5.71v-41.75c27.936-11.063 79.994-11.063 107.93 0z" fill="#a0c8ff"/></g><g><circle cx="320.94" cy="182.716" fill="#ff7e96" r="23.802"/></g><g><path d="m204.084 270.036c-1.078-11.771-10.763-21.169-22.559-21.925-14.122-.904-25.858 10.282-25.858 24.21 0-13.928-11.736-25.114-25.858-24.21-11.796.756-21.48 10.154-22.559 21.925-.672 7.336 1.931 14.068 6.505 18.92l33.164 36.895c4.673 5.199 12.823 5.199 17.496 0l33.164-36.895c4.574-4.852 7.177-11.585 6.505-18.92z" fill="#ff7e96"/></g><g><path d="m502 105.59h-33.88v-26.42c0-3.394-1.721-6.555-4.57-8.397-1.577-1.021-39.419-24.992-106.489-24.992-54.04 0-89.088 15.555-101.498 22.136-12.5-5.468-47.22-18.137-100.623-18.137-66.635 0-104.217 19.736-105.785 20.576-3.248 1.741-5.275 5.128-5.275 8.813v26.42h-33.88c-5.523 0-10 4.478-10 10v340.63c0 5.522 4.477 10 10 10h246 78.554c5.522 0 10-4.478 10-10s-4.478-10-10-10h-68.554v-26.918c29.138-15.627 64.116-20.837 96.806-20.063 29.641.702 64.435 5.832 89.723 22.611 6.419 4.327 15.591-.333 15.591-8.291v-287.968h23.88v320.63h-69.466c-5.522 0-10 4.478-10 10s4.478 10 10 10h79.466c5.522 0 10-4.478 10-10v-340.63c0-5.523-4.478-10-10-10zm-144.939-39.81c48.087 0 79.774 13.529 91.06 19.274v30.535 281.454c-17.181-7.657-48.146-17.874-91.06-17.874-30.985 0-62.628 5.203-91.061 17.874v-312.003c4.112-2.107 10.927-5.25 20.214-8.367 14.803-4.97 39.11-10.893 70.847-10.893zm-293.181 19.823c11.916-4.944 43.536-15.822 91.06-15.822s79.144 10.877 91.06 15.822v312.632c-28.897-10.881-60.308-15.064-91.06-15.064-43.131 0-74.111 8.682-91.06 15.064v-282.645zm-43.88 39.987h23.88v287.97c0 7.477 8.33 12.371 14.885 8.726.344-.19 35.099-19.115 96.175-19.115 30.644 0 62.786 4.29 91.06 16.68v26.37h-226z"/><path d="m320.939 216.519c16.762 0 30.707-12.265 33.346-28.291 11.327-.963 28.884-1.483 56.801 5.213 6.167 1.483 12.333-3.415 12.333-9.724v-60.847c0-4.102-2.505-7.787-6.318-9.298-30.17-11.947-85.125-11.947-115.293 0-3.813 1.511-6.318 5.196-6.318 9.298v37.637c-5.195 5.945-8.353 13.713-8.353 22.21.001 18.638 15.164 33.802 33.802 33.802zm0-20c-7.61 0-13.802-6.191-13.802-13.802 0-7.528 6.295-13.803 13.802-13.803 7.468 0 13.803 6.332 13.803 13.803 0 7.61-6.191 13.802-13.803 13.802zm-5.449-66.507c24.394-7.176 63.532-7.174 87.93 0v41.317c-14.946-2.854-26.794-3.691-36.225-3.691-6.195 0-11.347.361-15.65.751-6.352-13.512-21.341-21.436-36.055-19.036z"/><path d="m214.042 269.124c-1.521-16.603-15.226-29.927-31.878-30.992-9.828-.631-19.542 3.018-26.497 9.998-6.954-6.979-16.667-10.629-26.497-9.998-16.652 1.065-30.357 14.389-31.879 30.992-.895 9.773 2.42 19.46 9.1 26.598l33.091 36.813c4.121 4.585 10.02 7.215 16.185 7.215 6.165 0 12.064-2.63 16.185-7.214l33.091-36.814c6.68-7.139 9.994-16.826 9.099-26.598zm-23.74 12.973c-.054.058-.108.115-.161.174l-33.164 36.896c-.434.482-.953.584-1.311.584s-.876-.102-1.311-.585l-33.164-36.895c-.053-.059-.106-.116-.161-.174-2.847-3.021-4.205-6.979-3.823-11.148.631-6.887 6.323-12.415 13.24-12.857 8.121-.521 15.219 6.088 15.219 14.23 0 5.522 4.477 10 10 10s10-4.478 10-10c0-8.149 7.102-14.75 15.219-14.23 6.917.442 12.608 5.97 13.239 12.857v.001c.383 4.167-.975 8.126-3.822 11.147z"/><path d="m110.826 204.044c22.211-8.794 67.471-8.794 89.681 0 5.064 2.006 10.973-.548 12.979-5.616 2.033-5.136-.481-10.946-5.617-12.979-26.833-10.623-77.573-10.624-104.406 0-5.135 2.033-7.65 7.844-5.617 12.979 2.034 5.134 7.843 7.65 12.98 5.616z"/><path d="m110.826 139.828c22.211-8.794 67.471-8.794 89.681 0 5.064 2.006 10.973-.548 12.979-5.616 2.033-5.136-.481-10.946-5.617-12.979-26.833-10.624-77.573-10.624-104.406 0-5.135 2.033-7.65 7.844-5.617 12.979 2.034 5.134 7.843 7.65 12.98 5.616z"/><path d="m413.263 317.137c-30.249-11.978-74.158-11.976-104.405 0-5.136 2.033-7.65 7.844-5.617 12.979 2.033 5.137 7.848 7.653 12.979 5.617 25.565-10.121 64.119-10.12 89.683 0 1.208.479 2.453.705 3.678.705 3.981-.001 7.746-2.395 9.301-6.322 2.031-5.136-.484-10.946-5.619-12.979z"/><path d="m413.264 253.068c-30.249-11.977-74.156-11.977-104.407 0-5.135 2.033-7.649 7.845-5.616 12.979s7.846 7.651 12.979 5.616c25.561-10.121 64.116-10.122 89.681 0 1.208.479 2.454.705 3.679.705 3.981 0 7.746-2.395 9.301-6.321 2.032-5.134-.483-10.945-5.617-12.979z"/><path d="m388.229 452.399c-4.897-11.937-23.391-4.27-18.46 7.641 4.933 11.913 23.415 4.262 18.46-7.641z"/></g></g></svg>