<svg id="Capa_1" enable-background="new 0 0 512 512" height="512" viewBox="0 0 512 512" width="512" xmlns="http://www.w3.org/2000/svg"><g><g><path d="m325.665 10h-66.87s-22.69 167.46-22.69 225.11 16.12 61.36 16.12 121.38c0 9.89-.5 21.21-1.34 32.99v.03c0-.01.01-.01.01-.02-.28 4.01-.66 8.07-1.11 12.15-3.45 31.22-11.2 63.37-14.8 79.32-2.42 10.7-11 18.69-21.49 20.6-.09.02-.19.04-.31.06v.38h42.84c16.03 0 30.24-10.28 35.28-25.5 17.158-50.47 43.73-95.979 83.39-132.21 10.903-10.059 15.52-25.4 15.52-40.29 0-16.44-6.96-32.42-18.87-43.73-8.65-8.22-18.87-19.31-27.45-32.49 0-.01 0-.02 0-.02-10.31-15.82-18.23-34.66-18.23-55.15z" fill="#ffd0c6"/></g><g><path d="m236.105 235.11c0 57.65 16.12 61.36 16.12 121.38 0 9.89-.5 21.21-1.34 32.99-2.46 34.7-11.83 73.44-15.9 91.47-2.77 12.31-13.71 21.05-26.33 21.05h-37.73c-12.62 0-23.55-8.74-26.33-21.05-4.07-18.03-12.44-56.77-14.89-91.47-.84-11.78-1.34-23.1-1.34-32.99 0-60.02 17.11-63.73 17.11-121.38s-23.69-225.11-23.69-225.11h137.01s-22.69 167.46-22.69 225.11z" fill="#ffdad5"/></g><g><path d="m250.892 389.487c-2.464 34.7-11.839 73.439-15.911 91.468-2.771 12.31-13.712 21.048-26.333 21.047l-37.73-.005c-12.62-.002-23.549-8.743-26.327-21.053-4.068-18.031-12.433-56.772-14.879-91.472 10.688 19.621 29.185 39.054 60.585 39.057 31.39.005 49.902-19.423 60.595-39.042z" fill="#ccd3dd"/></g><g><path d="m390.215 304c0 14.89-4.53 30.25-15.52 40.29-39.66 36.231-66.232 81.74-83.39 132.21-5.04 15.22-19.25 25.5-35.28 25.5h-42.84v-.38c.12-.02.22-.04.31-.06 10.49-1.91 19.07-9.9 21.49-20.6 3.6-15.95 11.35-48.1 14.8-79.32.13-.51.22-1.02.26-1.53 24.93-51.68 55.26-85.78 75.62-108.25 25.12-27.71 18.43-63.1 18.23-64.08 8.58 13.18 18.8 24.27 27.45 32.49 11.91 11.31 18.87 27.29 18.87 43.73z" fill="#ccd3dd"/></g><g><path d="m378.234 253.021c-21.905-20.815-42.569-48.908-42.569-80.411v-35.762c0-5.523-4.477-10-10-10s-10 4.477-10 10v35.762c0 .146.008.292.009.438-21.746-2.868-43.979-2.885-65.743-.026 3.949-43.19 9.089-86.277 14.557-129.299 1.259-9.915 2.322-18.074 3.066-23.722h48.112v28.871c0 5.523 4.477 10 10 10s10-4.477 10-10v-38.872c0-5.523-4.477-10-10-10h-203.88c-2.896 0-5.651 1.256-7.55 3.443s-2.757 5.09-2.352 7.958c.236 1.667 23.591 167.421 23.591 223.709 0 19.444-2.948 37.967-8.071 56.689-4.443 16.241-9.039 33.035-9.039 64.69 0 9.656.459 20.995 1.365 33.694 1.35 19.128 4.623 41.825 9.745 67.688 1.607 8.119 3.391 16.541 5.361 25.274 3.782 16.759 18.905 28.855 36.089 28.855h85.1c20.372 0 38.364-13.003 44.749-32.282 16.333-48.885 42.368-93.057 80.666-128.045 12.107-11.061 18.775-27.991 18.775-47.673 0-19.132-8.013-37.714-21.981-50.979zm-59.98 32.125c-14.14 15.605-35.339 39.012-56.034 72.192.001-.279.005-.571.005-.847 0-31.581-4.32-48.34-8.499-64.547-1.595-6.187-3.154-12.235-4.442-19.069l76.991-56.075c2.309 4.85 4.995 9.697 8.051 14.536.85 6.667 2.77 33.025-16.072 53.81zm-147.335 206.852c-7.88-.001-14.835-5.57-16.57-13.25-4.222-18.703-7.986-37.53-10.834-56.494 13.182 10.729 28.963 16.274 46.78 16.276h.011c17.675 0 33.349-5.457 46.469-16.019-3.101 18.906-7.33 37.569-11.55 56.248-1.713 7.608-8.752 13.241-16.57 13.241zm19.376-253.255c13.268 0 27.541 2.544 35.915 4.327.076 2.794.196 5.587.365 8.376l-35.855 28.477-35.744-28.448c.172-2.691.305-5.504.389-8.466 8.091-1.772 21.803-4.266 34.93-4.266zm-50.767 147.792c-.895-13.179-1.457-26.407-1.002-39.615l52.181-41.445 51.349 40.868c.463 13.416-.087 26.848-.997 40.234-12.173 21.205-29.236 31.953-50.753 31.953-.001 0-.007 0-.008 0-21.529-.003-38.6-10.767-50.77-31.995zm67.254-93.827 22.525-17.89c1.467 8.206 3.273 15.213 5.053 22.117 1.791 6.948 3.537 13.727 4.928 21.644zm-60.087 4.37c1.906-6.964 3.839-14.035 5.405-22.33l22.545 17.944-33.248 26.407c1.486-8.082 3.367-14.965 5.298-22.021zm171.397-103.496c.288 1.252.611 2.504.93 3.756l-72.492 52.798c-1.13-18.888.191-37.844 1.659-56.678 23.1-3.493 46.839-3.448 69.903.124zm-184.821-173.582h114.103c-8.844 67.196-18.466 134.898-21.006 202.679-9.422-1.847-22.966-3.936-36.073-3.936-12.912 0-25.95 2.026-35.098 3.857-2.207-55.713-16.971-166.545-21.926-202.6zm234.309 317.246c-40.585 37.195-68.421 84.172-85.768 136.111-3.693 11.151-14.056 18.643-25.787 18.643h-14.483c1.02-1.994 1.865-4.104 2.525-6.311 8.109-26.945 11.933-53.904 15.635-82.577 24.831-50.967 55.178-84.457 73.371-104.536 12.55-13.844 18.126-29.218 20.401-42.261 3.521 3.867 7.193 7.603 10.984 11.206 10.013 9.508 15.756 22.804 15.756 36.479.001 12.287-4.483 24.075-12.634 33.246z"/><path d="m334.9 87.531c-2.096-5.03-8.018-7.497-13.06-5.41-5.041 2.087-7.477 8.034-5.4 13.06 2.079 5.032 8.017 7.5 13.05 5.41 5.049-2.096 7.48-8.011 5.41-13.06z"/></g></g></svg>