<svg height="512pt" viewBox="-79 0 512 512" width="512pt" xmlns="http://www.w3.org/2000/svg"><path d="m54.59375 193.980469-37.117188 62.753906c-2.21875 3.332031-3.402343 7.238281-3.402343 11.242187v91.066407c0 4.609375 1.570312 9.0625 4.4375 12.660156l58.78125 73.457031" fill="#00d2d7"/><path d="m303.585938 193.980469 37.113281 62.753906c2.21875 3.332031 3.402343 7.238281 3.402343 11.242187v91.066407c0 4.609375-1.570312 9.0625-4.4375 12.660156l-58.78125 73.457031" fill="#00d2d7"/><path d="m299.996094 174.941406c-2.195313-13.464844-7.828125-25.871094-16.070313-36.1875-8.238281-10.3125-19.101562-18.546875-31.746093-23.675781-4.515626-1.828125-9.34375-2.765625-14.207032-2.765625h-117.757812c-4.875 0-9.703125.949219-14.226563 2.773438l-.039062.019531c-25.289063 10.25-43.398438 32.953125-47.789063 59.875l-2.121094 15.878906v182.011719c0 22.835937 5.925782 44.867187 16.714844 64.164062 1.421875 2.535156 2.917969 5.023438 4.496094 7.457032 21.960938 33.824218 59.117188 57.507812 101.839844 57.507812 42.585937 0 79.792968-23.558594 101.835937-57.507812 13.628907-20.992188 21.210938-45.785157 21.210938-71.621094v-182.011719zm0 0" fill="#52607e"/><path d="m179.089844 474.160156c-30.921875 0-60.257813-16.757812-78.480469-44.824218-1.207031-1.855469-2.402344-3.84375-3.554687-5.898438-2.695313-4.820312-.976563-10.914062 3.84375-13.609375 4.820312-2.699219 10.910156-.976563 13.609374 3.839844.933594 1.675781 1.902344 3.277343 2.875 4.769531 14.519532 22.375 37.585938 35.726562 61.707032 35.726562 24.117187 0 47.183594-13.355468 61.707031-35.722656 3.003906-4.632812 9.199219-5.949218 13.832031-2.941406 4.632813 3.007812 5.949219 9.199219 2.941406 13.832031-18.226562 28.070313-47.5625 44.828125-78.480468 44.828125zm0 0"/><path d="m179.089844 351.75c-31.320313 0-56.792969-25.464844-56.792969-37.851562v-201.585938h113.582031v201.585938c0 12.386718-25.472656 37.851562-56.789062 37.851562zm0 0" fill="#ede6f5"/><path d="m204.351562 203.105469v54.308593c0 13.957032-11.304687 25.261719-25.265624 25.261719-13.957032 0-25.265626-11.304687-25.265626-25.261719v-54.308593c0-13.957031 11.308594-25.261719 25.265626-25.261719 6.972656 0 13.289062 2.832031 17.863281 7.402344 4.574219 4.570312 7.402343 10.886718 7.402343 17.859375zm0 0" fill="#ffe681"/><path d="m47.382812 20h-37.382812c-5.523438 0-10-4.476562-10-10s4.476562-10 10-10h37.382812c5.523438 0 10 4.476562 10 10s-4.476562 10-10 10zm0 0"/><path d="m89.761719 20c-.652344 0-1.3125-.070312-1.949219-.199219-.640625-.121093-1.273438-.320312-1.871094-.570312-.609375-.25-1.191406-.558594-1.730468-.921875-.550782-.359375-1.058594-.777344-1.519532-1.238282-.460937-.460937-.878906-.96875-1.242187-1.519531-.367188-.539062-.667969-1.121093-.917969-1.730469-.25-.601562-.449219-1.230468-.582031-1.871093-.128907-.640625-.1875-1.300781-.1875-1.949219s.058593-1.308594.1875-1.949219c.132812-.640625.332031-1.269531.582031-1.878906.25-.601563.550781-1.179687.917969-1.722656.363281-.550781.78125-1.058594 1.242187-1.519531.460938-.460938.96875-.878907 1.519532-1.238282.539062-.371094 1.121093-.671875 1.730468-.921875.597656-.25 1.230469-.449219 1.871094-.578125 1.289062-.2499998 2.609375-.2499998 3.898438 0 .640624.128906 1.269531.328125 1.871093.578125.609375.25 1.1875.550781 1.730469.921875.546875.359375 1.058594.777344 1.519531 1.238282.457031.460937.878907.96875 1.238281 1.519531.371094.542969.671876 1.121093.921876 1.722656.25.609375.449218 1.238281.578124 1.878906.128907.640625.191407 1.300781.191407 1.949219s-.0625 1.3125-.191407 1.949219c-.128906.640625-.328124 1.269531-.578124 1.871093-.25.609376-.550782 1.191407-.921876 1.730469-.359374.550781-.78125 1.058594-1.238281 1.519531-.460937.460938-.972656.878907-1.519531 1.238282-.542969.363281-1.121094.671875-1.730469.921875-.601562.25-1.230469.449219-1.871093.570312-.640626.128907-1.300782.199219-1.949219.199219zm0 0"/><path d="m349.183594 251.4375-36.992188-62.546875c-.09375-.15625-.191406-.3125-.292968-.464844l-1.992188-14.816406c-.011719-.089844-.023438-.183594-.039062-.273437-2.433594-14.910157-8.703126-29.027344-18.128907-40.820313-9.410156-11.785156-21.789062-21.019531-35.808593-26.707031-5.734376-2.320313-11.773438-3.496094-17.957032-3.496094h-46.742187c2.242187-9.5625 10.847656-16.710938 21.09375-16.710938h81.574219c23.605468 0 42.8125-19.199218 42.8125-42.800781 0-23.601562-19.207032-42.800781-42.8125-42.800781h-164.785157c-5.523437 0-10 4.476562-10 10s4.476563 10 10 10h164.785157c12.578124 0 22.8125 10.230469 22.8125 22.800781 0 12.574219-10.234376 22.800781-22.8125 22.800781h-81.574219c-21.300781 0-38.917969 16.066407-41.371094 36.710938h-50.738281c-6.171875 0-12.21875 1.179688-17.972656 3.503906-.070313.027344-.144532.058594-.21875.089844-28.242188 11.515625-48.820313 37.351562-53.734376 67.464844-.015624.097656-.027343.191406-.042968.285156l-1.96875 14.773438c-.101563.148437-.199219.304687-.292969.460937l-36.992187 62.546875c-3.21875 4.933594-4.917969 10.648438-4.917969 16.539062v91.066407c0 6.832031 2.347656 13.542969 6.628906 18.90625l58.78125 73.457031c.367187.457031.765625.875 1.191406 1.25 25.363281 37.222656 65.65625 59.34375 108.414063 59.34375 42.753906 0 83.046875-22.121094 108.410156-59.339844.425781-.375.824219-.792968 1.191406-1.253906l58.792969-73.46875c4.269531-5.351562 6.617187-12.066406 6.617187-18.894531v-91.066407c0-5.890624-1.699218-11.605468-4.917968-16.539062zm-170.09375-63.59375c4.070312 0 7.902344 1.589844 10.789062 4.472656 2.886719 2.886719 4.472656 6.71875 4.472656 10.789063v54.308593c0 8.414063-6.847656 15.261719-15.261718 15.261719-8.417969 0-15.265625-6.847656-15.265625-15.261719v-54.308593c0-8.414063 6.847656-15.261719 15.265625-15.261719zm-8.425782-65.53125v45.574219c0 .324219.015626.644531.046876.960937-15.414063 3.769532-26.890626 17.699219-26.890626 34.257813v54.308593c0 19.441407 15.820313 35.257813 35.265626 35.257813 19.445312 0 35.265624-15.816406 35.265624-35.257813v-54.308593c0-9.417969-3.667968-18.269531-10.332031-24.933594-3.875-3.871094-8.492187-6.734375-13.527343-8.449219.113281-.597656.171874-1.210937.171874-1.839844v-45.570312h35.214844v191.554688c-.09375 1.679687-3.378906 8.582031-13.125 15.960937-5.875 4.453125-18.066406 11.921875-33.664062 11.921875-15.601563 0-27.789063-7.46875-33.667969-11.921875-9.746094-7.378906-13.03125-14.28125-13.125-15.933594v-191.582031zm-146.589843 236.730469v-91.066407c0-2.03125.597656-4.003906 1.726562-5.699218.097657-.148438.191407-.300782.285157-.453125l19.953124-33.738281v144.785156c0 6.300781.425782 12.585937 1.261719 18.808594l-20.972656-26.207032c-1.453125-1.828125-2.253906-4.109375-2.253906-6.429687zm155.015625 132.957031c-36.992188 0-71.925782-19.796875-93.453125-52.960938-1.417969-2.179687-2.816407-4.5-4.152344-6.886718-10.101563-18.066406-15.445313-38.566406-15.445313-59.28125v-181.347656l2.015626-15.070313c3.84375-23.273437 19.792968-43.222656 41.652343-52.082031.054688-.019532.117188-.046875.175781-.070313.796876-.316406 1.601563-.597656 2.414063-.835937v190.433594c0 11.558593 10.617187 23.847656 20.550781 31.496093 7.9375 6.109375 24.496094 16.355469 46.242188 16.355469 21.742187 0 38.300781-10.246094 46.238281-16.355469 9.933594-7.648437 20.550781-19.9375 20.550781-31.496093v-190.441407c.859375.253907 1.707032.550781 2.539063.886719 10.84375 4.398438 20.417969 11.539062 27.695312 20.65625 7.257813 9.082031 12.097657 19.941406 13.992188 31.417969l2.03125 15.109375v181.34375c0 23.546875-6.777344 46.429687-19.601563 66.175781-21.527344 33.15625-56.460937 52.953125-93.445312 52.953125zm155.011718-132.957031c0 2.320312-.800781 4.601562-2.246093 6.410156l-20.964844 26.203125c.828125-6.195312 1.246094-12.472656 1.246094-18.785156v-144.785156l19.953125 33.738281c.089844.152343.1875.304687.285156.453125 1.128906 1.695312 1.726562 3.664062 1.726562 5.699218zm0 0"/></svg>