<svg id="Capa_1" enable-background="new 0 0 497 497" height="512" viewBox="0 0 497 497" width="512"
     xmlns="http://www.w3.org/2000/svg">
  <g>
    <path
      d="m164.671 332.329-57.865-23.042c-7.733 5.8-15.312 12.346-22.581 19.614-5.033 5.033-9.298 9.8-12.995 14.441l23.802 58.625 58.625 23.802c4.642-3.697 9.409-7.962 14.441-12.995 7.269-7.269 13.814-14.847 19.614-22.581z"
      fill="#e8a882"/>
    <path
      d="m491.901 34.394c7.16-8.23 6.731-20.598-.983-28.312s-20.082-8.143-28.312-.983l-229.679 199.819c-12.457 10.807-31.276 9.637-42.299-2.63-8.436-9.389-10.151-23.022-4.304-34.208 12.888-24.65 30.352-69.144 6.311-95.9l-12.614-14.039c-8.537-9.501-23.159-10.283-32.66-1.746-9.501 8.537-10.283 23.159-1.746 32.66 9.718 10.815 11.686 26.532 4.936 39.41l-20.674 39.438c-5.579 10.642-5.275 23.404.81 33.765 12.026 20.475 35.827 50.298 21.033 82.885l12.952 47.775 47.774 12.952c32.587-14.794 62.41 9.006 82.885 21.033 10.361 6.086 23.123 6.389 33.765.81l39.438-20.674c12.878-6.75 28.595-4.782 39.41 4.936 9.501 8.537 24.124 7.755 32.661-1.746 8.537-9.501 7.755-24.124-1.746-32.66l-14.039-12.614c-26.756-24.041-71.25-6.577-95.9 6.311-11.185 5.848-24.819 4.132-34.208-4.304-12.267-11.022-13.437-29.842-2.63-42.299z"
      fill="#a6b6c4"/>
    <path
      d="m142.588 323.535-35.781-14.248c-7.733 5.8-15.312 12.346-22.581 19.614-5.033 5.033-9.298 9.8-12.995 14.441l14.512 35.744c15.632-21.294 35.265-40.498 56.845-55.551z"
      fill="#e3986d"/>
    <path
      d="m71.231 343.342c-11.77 14.796-25.097 35.767-31.354 53.05l60.731 60.731c17.282-6.258 38.254-19.585 53.05-31.354z"
      fill="#edb798"/>
    <g>
      <path
        d="m220.577 211.376c-10.553 2.679-22.185-.447-29.949-9.088-8.436-9.389-10.151-23.022-4.304-34.208 12.888-24.65 30.352-69.144 6.311-95.9l-12.614-14.039c-8.537-9.501-23.159-10.283-32.66-1.746s-10.283 23.159-1.746 32.66c9.718 10.815 11.686 26.533 4.936 39.41l-20.674 39.438c-5.579 10.642-5.275 23.404.81 33.765 12.026 20.476 35.827 50.298 21.033 82.885l12.952 47.775 3.051.827c6.453-45.71 25.224-87.455 52.854-121.779z"
        fill="#95a9ba"/>
    </g>
    <path
      d="m151.717 284.552c-14.876 5.387-30.188 13.703-44.91 24.735l80.907 80.906c11.032-14.722 19.348-30.034 24.735-44.91z"
      fill="#edb798"/>
    <path
      d="m95.078 367.19-23.847-23.848c-11.77 14.796-25.097 35.768-31.354 53.05l22.599 22.6c7.959-18.136 19.166-35.734 32.602-51.802z"
      fill="#e8a882"/>
    <path
      d="m107.224 448.981-59.204-59.204c-10.985-10.985-28.795-10.985-39.781 0-10.985 10.985-10.985 28.795 0 39.781l59.204 59.204c10.985 10.985 28.795 10.985 39.781 0 10.984-10.986 10.984-28.796 0-39.781z"
      fill="#516a80"/>
    <path
      d="m67.231 408.988-19.212-19.211c-10.985-10.985-28.795-10.985-39.781 0-10.985 10.985-10.985 28.795 0 39.78l41.226 41.226c1.091-20.553 7.489-41.626 17.767-61.795z"
      fill="#475c70"/>
    <path
      d="m172.974 305.809-21.258-21.257c-14.876 5.387-30.188 13.703-44.91 24.735l23.464 23.463c13.439-10.742 27.86-19.907 42.704-26.941z"
      fill="#e8a882"/>
  </g>
</svg>
