<svg height="512pt" viewBox="0 0 512 512" width="512pt" xmlns="http://www.w3.org/2000/svg"><path d="m256 124.785156 43.25 18.324219-4.0625-46.796875 30.792969-35.46875-45.761719-10.597656-24.21875-40.246094-24.21875 40.246094-45.761719 10.597656 30.792969 35.46875-4.0625 46.796875zm0 0" fill="#ffdd52"/><path d="m299.25 153.109375c-1.320312 0-2.648438-.261719-3.902344-.792969l-39.347656-16.667968-39.347656 16.667968c-3.230469 1.367188-6.941406.945313-9.78125-1.117187-2.835938-2.0625-4.386719-5.460938-4.082032-8.953125l3.695313-42.574219-28.015625-32.273437c-2.296875-2.648438-3.042969-6.308594-1.957031-9.644532 1.082031-3.335937 3.835937-5.859375 7.253906-6.652344l41.628906-9.640624 22.039063-36.617188c1.808594-3.003906 5.058594-4.84375 8.566406-4.84375s6.757812 1.839844 8.566406 4.84375l22.039063 36.617188 41.628906 9.640624c3.417969.792969 6.171875 3.316407 7.253906 6.652344 1.085938 3.335938.339844 6.996094-1.957031 9.644532l-28.011719 32.273437 3.695313 42.574219c.300781 3.492187-1.25 6.890625-4.085938 8.953125-1.738281 1.261719-3.800781 1.910156-5.878906 1.910156zm-43.25-38.324219c1.328125 0 2.652344.265625 3.902344.792969l27.949218 11.839844-2.625-30.238281c-.234374-2.699219.636719-5.375 2.410157-7.421876l19.898437-22.921874-29.570312-6.851563c-2.640625-.609375-4.917969-2.265625-6.3125-4.585937l-15.652344-26.003907-15.652344 26.007813c-1.394531 2.320312-3.671875 3.976562-6.3125 4.585937l-29.570312 6.847657 19.898437 22.925781c1.773438 2.042969 2.644531 4.71875 2.410157 7.417969l-2.625 30.242187 27.949218-11.84375c1.25-.527344 2.574219-.792969 3.902344-.792969zm0 0"/><path d="m185.78125 426.460938h-140.433594v-164.433594c0-13.152344 10.660156-23.808594 23.808594-23.808594h116.625zm0 0" fill="#7ccafd"/><path d="m326.21875 426.460938h-140.4375v-219.296876c0-13.152343 10.660156-23.808593 23.8125-23.808593h92.8125c13.152344 0 23.8125 10.660156 23.8125 23.808593zm0 0" fill="#52607e"/><path d="m466.652344 426.460938h-140.433594v-133.382813h116.625c13.148438 0 23.808594 10.660156 23.808594 23.8125zm0 0" fill="#00d2d7"/><path d="m256 246.519531c-2.628906 0-5.210938-1.070312-7.070312-2.929687-.460938-.460938-.878907-.96875-1.238282-1.519532-.363281-.539062-.671875-1.121093-.921875-1.730468-.25-.601563-.449219-1.230469-.570312-1.871094-.128907-.640625-.199219-1.296875-.199219-1.949219 0-.648437.070312-1.308593.199219-1.949219.121093-.640624.320312-1.269531.570312-1.871093.25-.609375.558594-1.1875.921875-1.730469.359375-.546875.777344-1.058594 1.238282-1.519531 2.320312-2.320313 5.769531-3.390625 9.019531-2.730469.640625.121094 1.269531.320312 1.871093.570312.609376.25 1.191407.5625 1.730469.921876.550781.359374 1.058594.777343 1.519531 1.238281.460938.460937.878907.972656 1.238282 1.519531.363281.542969.671875 1.121094.921875 1.730469.25.601562.449219 1.230469.570312 1.871093.128907.640626.199219 1.300782.199219 1.949219 0 .652344-.070312 1.308594-.199219 1.949219-.121093.640625-.320312 1.269531-.570312 1.871094-.25.609375-.558594 1.191406-.921875 1.730468-.359375.550782-.777344 1.058594-1.238282 1.519532-.460937.460937-.96875.878906-1.519531 1.238281-.539062.363281-1.121093.671875-1.730469.921875-.601562.25-1.230468.449219-1.871093.578125-.640625.132813-1.300781.191406-1.949219.191406zm0 0"/><path d="m256 376.558594c-5.523438 0-10-4.476563-10-10v-92.714844c0-5.523438 4.476562-10 10-10s10 4.476562 10 10v92.714844c0 5.523437-4.476562 10-10 10zm0 0"/><path d="m97.195312 376.558594c-5.523437 0-10-4.476563-10-10v-40.730469c0-5.523437 4.476563-10 10-10 5.523438 0 10 4.476563 10 10v40.730469c0 5.523437-4.476562 10-10 10zm0 0"/><path d="m131.539062 376.558594c-5.523437 0-10-4.476563-10-10v-40.730469c0-5.523437 4.476563-10 10-10 5.523438 0 10 4.476563 10 10v40.730469c0 5.523437-4.476562 10-10 10zm0 0"/><path d="m362.492188 396.558594c-5.523438 0-10-4.476563-10-10v-40.730469c0-5.523437 4.476562-10 10-10 5.523437 0 10 4.476563 10 10v40.730469c0 5.523437-4.476563 10-10 10zm0 0"/><path d="m396.433594 396.558594c-5.523438 0-10-4.476563-10-10v-40.730469c0-5.523437 4.476562-10 10-10 5.523437 0 10 4.476563 10 10v40.730469c0 5.523437-4.476563 10-10 10zm0 0"/><path d="m430.378906 396.558594c-5.523437 0-10-4.476563-10-10v-40.730469c0-5.523437 4.476563-10 10-10 5.519532 0 10 4.476563 10 10v40.730469c0 5.523437-4.480468 10-10 10zm0 0"/><path d="m10 426.460938h492v75.539062h-492zm0 0" fill="#f05f90"/><path d="m502 416.460938h-25.347656v-99.570313c0-18.644531-15.167969-33.8125-33.808594-33.8125h-106.625v-75.914063c0-18.644531-15.167969-33.8125-33.8125-33.8125h-92.8125c-18.644531 0-33.8125 15.167969-33.8125 33.8125v21.050782h-106.625c-18.640625 0-33.808594 15.167968-33.808594 33.8125v154.433594h-25.347656c-5.523438 0-10 4.476562-10 10v75.539062c0 5.523438 4.476562 10 10 10h492c5.523438 0 10-4.476562 10-10v-75.539062c0-5.523438-4.476562-10-10-10zm-59.15625-113.382813c7.613281 0 13.808594 6.195313 13.808594 13.8125v99.574219h-120.433594v-113.386719zm-247.0625-95.914063c0-7.613281 6.195312-13.808593 13.8125-13.808593h92.8125c7.617188 0 13.8125 6.195312 13.8125 13.808593v209.296876h-120.4375zm-140.433594 54.863282c0-7.617188 6.195313-13.8125 13.808594-13.8125h106.625v168.246094h-120.433594zm436.652344 229.972656h-472v-55.539062h472zm0 0"/></svg>