<svg id="Capa_1" enable-background="new 0 0 512 512" height="512" viewBox="0 0 512 512" width="512" xmlns="http://www.w3.org/2000/svg"><g><g><path d="m146.26 332.476c-11.375 0-20.596 9.221-20.596 20.596v123.334c0 11.375 9.221 20.596 20.596 20.596h108.5c8.675 0 16.908-3.823 22.507-10.449l36.566-43.278 36.565 43.278c5.598 6.626 13.832 10.449 22.507 10.449h108.499c11.375 0 20.596-9.221 20.596-20.596v-123.334c0-11.375-9.221-20.596-20.596-20.596z" fill="#fff"/></g><g><path d="m246.586 451.581h-76.004v-72.316h111.162v30.843z" fill="#a0c8ff"/></g><g><path d="m379.996 451.581h76.004v-72.316h-111.163v30.843z" fill="#ff7e96"/></g><g><path d="m281.744 175.681h-271.744v-23.355c0-11.687 9.474-21.161 21.161-21.161h229.423c11.687 0 21.161 9.474 21.161 21.161v23.355z" fill="#fff"/></g><g><path d="m259.78 175.681-15.74 156.79h-97.784c-11.375 0-20.596 9.221-20.596 20.596v98.514h-70.05l-27.68-275.9z" fill="#a0c8ff"/></g><g><path d="m125.66 379.265h-77.305l-12.171-121.314h215.293l-7.437 74.52h-97.784c-11.375 0-20.596 9.221-20.596 20.596z" fill="#ffd88e"/></g><g><path d="m481.404 322.476h-57.399c-5.522 0-10 4.477-10 10s4.478 10 10 10h57.399c5.843 0 10.596 4.753 10.596 10.596v123.334c0 5.842-4.753 10.596-10.596 10.596h-108.499c-5.743 0-11.162-2.516-14.868-6.903l-36.566-43.278c-1.9-2.249-4.694-3.546-7.639-3.546s-5.738 1.297-7.639 3.546l-36.565 43.278c-3.706 4.387-9.125 6.902-14.868 6.902h-108.499c-5.843 0-10.597-4.753-10.597-10.596v-123.333c0-5.842 4.754-10.596 10.597-10.596h189.771c5.522 0 10-4.477 10-10s-4.478-10-10-10h-80.938l13.733-136.794h12.917c5.522 0 10-4.477 10-10v-23.355c0-17.182-13.979-31.161-31.161-31.161h-107.591v-34.295c0-12.481 7.427-23.688 18.92-28.552l80.599-34.109c5.086-2.153 7.464-8.021 5.312-13.107-2.151-5.085-8.018-7.464-13.106-5.312l-80.599 34.109c-18.907 8.002-31.125 26.439-31.125 46.971v34.294h-101.832c-17.182 0-31.161 13.979-31.161 31.161v23.355c0 5.523 4.478 10 10 10h8.883l26.777 266.898c.513 5.111 4.813 9.002 9.95 9.002h60.054v14.824c0 16.871 13.726 30.596 30.597 30.596h108.499c11.644 0 22.631-5.101 30.146-13.995l28.927-34.237 28.928 34.237c7.514 8.894 18.501 13.995 30.146 13.995h108.499c16.87 0 30.596-13.725 30.596-30.596v-123.333c-.002-16.871-13.728-30.596-30.598-30.596zm-365.744 46.789h-58.258l-10.165-101.314h193.191l-5.44 54.52h-88.732c-16.87 0-30.596 13.726-30.596 30.596zm-95.66-216.939c0-6.154 5.007-11.161 11.161-11.161h229.422c6.154 0 11.161 5.007 11.161 11.161v13.355h-251.744zm228.727 33.355-6.251 62.27h-197.245l-6.247-62.27zm-184.07 255.9-5.249-52.316h56.252v52.316z"/><path d="m170.582 369.265c-5.522 0-10 4.477-10 10v72.316c0 5.523 4.478 10 10 10h76.004c2.938 0 5.728-1.292 7.628-3.534l35.158-41.473c1.531-1.807 2.372-4.098 2.372-6.466v-30.843c0-5.523-4.478-10-10-10zm101.162 37.174-29.791 35.142h-61.371v-52.316h91.162z"/><path d="m334.838 379.265v30.843c0 2.368.841 4.66 2.372 6.466l35.158 41.473c1.9 2.241 4.689 3.534 7.628 3.534h76.004c5.522 0 10-4.477 10-10v-72.316c0-5.523-4.478-10-10-10h-111.162c-5.523 0-10 4.477-10 10zm20 10h91.162v52.316h-61.371l-29.791-35.142z"/><path d="m371.77 336.301c2.095 5.029 8.008 7.492 13.05 5.41 5.028-2.076 7.506-8.035 5.41-13.06-2.098-5.03-8.012-7.499-13.06-5.41-5.031 2.082-7.493 8.037-5.4 13.06z"/></g></g></svg>