<svg height="512pt" viewBox="0 -115 512.001 512" width="512pt" xmlns="http://www.w3.org/2000/svg"><path d="m438.003906 271.601562h-334.003906v-261.601562h334.003906" fill="#ede6f5"/><path d="m438.003906 185.136719v-175.136719h49.589844c7.957031 0 14.40625 6.449219 14.40625 14.40625v232.789062c0 7.957032-6.449219 14.40625-14.40625 14.40625h-49.589844" fill="#52607e"/><path d="m438 237.472656c-.648438 0-1.308594-.070312-1.949219-.199218-.640625-.121094-1.269531-.320313-1.871093-.570313-.609376-.25-1.191407-.5625-1.730469-.921875-.550781-.359375-1.058594-.78125-1.519531-1.238281-1.859376-1.863281-2.929688-4.441407-2.929688-7.070313 0-.652344.070312-1.3125.199219-1.960937.128906-.628907.320312-1.261719.570312-1.871094.25-.597656.558594-1.179687.921875-1.71875.359375-.550781.777344-1.058594 1.238282-1.519531.460937-.460938.96875-.878906 1.519531-1.25.539062-.359375 1.121093-.671875 1.730469-.921875.601562-.25 1.230468-.4375 1.871093-.570313 3.25-.648437 6.699219.410156 9.019531 2.742188.460938.460937.878907.96875 1.25 1.519531.359376.539063.667969 1.121094.917969 1.71875.25.609375.441407 1.242187.570313 1.871094.132812.648437.191406 1.308593.191406 1.960937 0 2.628906-1.070312 5.207032-2.929688 7.070313-1.859374 1.859375-4.429687 2.929687-7.070312 2.929687zm0 0"/><path d="m104 10v261.601562h-79.59375c-7.957031 0-14.40625-6.449218-14.40625-14.40625v-232.789062c0-7.957031 6.449219-14.40625 14.40625-14.40625z" fill="#52607e"/><path d="m487.59375 0h-463.1875c-13.457031 0-24.40625 10.949219-24.40625 24.40625v232.789062c0 13.457032 10.949219 24.40625 24.40625 24.40625h463.1875c13.457031 0 24.40625-10.949218 24.40625-24.40625v-232.789062c0-13.457031-10.949219-24.40625-24.40625-24.40625zm-467.59375 257.195312v-232.789062c0-2.429688 1.976562-4.40625 4.40625-4.40625h69.59375v241.601562h-69.59375c-2.429688 0-4.40625-1.976562-4.40625-4.40625zm472 0c0 2.429688-1.976562 4.40625-4.40625 4.40625h-373.59375v-241.601562h314.003906v165.136719c0 5.523437 4.476563 10 10 10 5.519532 0 10-4.476563 10-10v-165.136719h39.589844c2.429688 0 4.40625 1.976562 4.40625 4.40625zm0 0"/><path d="m37.667969 121.46875h38.667969v38.667969h-38.667969zm0 0" fill="#f05f90"/><path d="m76.335938 170.132812h-38.667969c-5.523438 0-10-4.476562-10-10v-38.664062c0-5.523438 4.476562-10 10-10h38.667969c5.519531 0 10 4.476562 10 10v38.664062c0 5.523438-4.480469 10-10 10zm-28.667969-20h18.667969v-18.664062h-18.667969zm0 0"/><path d="m334.601562 89.367188h-127.203124c-32.8125 0-59.417969 26.601562-59.417969 59.417968s26.605469 59.417969 59.417969 59.417969c26.980468 0 49.753906-17.980469 57.003906-42.609375h13.199218c7.25 24.628906 30.023438 42.609375 57 42.609375 32.816407 0 59.417969-26.601563 59.417969-59.417969.003907-32.816406-26.601562-59.417968-59.417969-59.417968zm0 0" fill="#43b0fc"/><path d="m334.601562 218.203125c-27.640624 0-52.671874-16.726563-63.601562-41.585937-10.929688 24.859374-35.960938 41.585937-63.601562 41.585937-38.277344 0-69.417969-31.140625-69.417969-69.417969s31.140625-69.417968 69.417969-69.417968h127.203124c38.277344 0 69.417969 31.140624 69.417969 69.417968.003907 38.277344-31.140625 69.417969-69.417969 69.417969zm-70.199218-62.609375h13.199218c4.433594 0 8.339844 2.921875 9.589844 7.179688 6.144532 20.859374 25.640625 35.429687 47.410156 35.429687 27.25 0 49.421876-22.167969 49.421876-49.417969 0-27.246094-22.171876-49.417968-49.421876-49.417968h-127.203124c-27.246094 0-49.417969 22.171874-49.417969 49.417968 0 27.25 22.167969 49.417969 49.417969 49.417969 21.773437 0 41.269531-14.570313 47.410156-35.433594 1.253906-4.253906 5.160156-7.175781 9.59375-7.175781zm0 0"/><path d="m225.402344 136.199219h-5.402344v-5.398438c0-5.523437-4.476562-10-10-10s-10 4.476563-10 10v5.398438h-5.398438c-5.523437 0-10 4.476562-10 10 0 5.523437 4.476563 10 10 10h5.398438v5.402343c0 5.523438 4.476562 10 10 10s10-4.476562 10-10v-5.402343h5.402344c5.523437 0 10-4.476563 10-10 0-5.523438-4.476563-10-10-10zm0 0"/><path d="m344 141.699219h-11.398438c-5.523437 0-10-4.476563-10-10 0-5.523438 4.476563-10 10-10h11.398438c5.523438 0 10 4.476562 10 10 0 5.523437-4.476562 10-10 10zm0 0"/><path d="m344 170.699219h-11.398438c-5.523437 0-10-4.476563-10-10 0-5.523438 4.476563-10 10-10h11.398438c5.523438 0 10 4.476562 10 10 0 5.523437-4.476562 10-10 10zm0 0"/><path d="m281.667969 142.636719h-21.332031c-5.523438 0-10-4.476563-10-10 0-5.523438 4.476562-10 10-10h21.332031c5.523437 0 10 4.476562 10 10 0 5.523437-4.476563 10-10 10zm0 0"/></svg>