<svg id="Capa_1" enable-background="new 0 0 511.943 511.943" height="512" viewBox="0 0 511.943 511.943" width="512" xmlns="http://www.w3.org/2000/svg"><g><g><path d="m163.777 9.943-131.289 127.222h131.289z" fill="#ffd88e"/></g><g><path d="m163.777 9.943 131.29 127.222h-131.29z" fill="#ffd88e"/></g><g><path d="m163.777 369.289 131.29-232.124h-131.29z" fill="#a0c8ff"/></g><g><path d="m163.777 369.289-131.289-232.124h131.289z" fill="#a0c8ff"/></g><g><circle cx="441.809" cy="345.308" fill="#fff" r="29.394"/></g><g><path d="m404.194 439.854 37.615-65.151 37.615 65.151z" fill="#ff7e96"/></g><g><path d="m124.082 438.042 39.695-68.753 39.694 68.753z" fill="#ff7e96"/></g><g><path d="m488.084 434.854-30.789-53.328c14.045-6.028 23.908-19.991 23.908-36.218 0-18.268-12.5-33.668-29.395-38.105v-28.583c0-43.673-35.531-79.204-79.204-79.204s-79.204 35.532-79.204 79.205v33.452c0 5.522 4.477 10 10 10s10-4.478 10-10v-33.452c0-32.646 26.559-59.204 59.205-59.204 32.645 0 59.204 26.559 59.204 59.204v28.583c-16.895 4.437-29.394 19.837-29.394 38.105 0 16.227 9.863 30.19 23.908 36.218l-30.788 53.328c-3.899 6.752 1.207 14.706 8.66 15 1.014.04 73.706.055 75.181 0 7.466-.279 12.626-8.217 8.708-15.001zm-46.275-108.94c10.694 0 19.395 8.7 19.395 19.395s-8.7 19.395-19.395 19.395c-10.694 0-19.394-8.7-19.394-19.395s8.7-19.395 19.394-19.395zm-20.295 103.94 20.294-35.151 20.295 35.151z"/><path d="m303.4 390.128c-5.523 0-10 4.478-10 10v32.003c0 32.98-26.832 59.812-59.812 59.812-26.58 0-50.613-18.256-57.668-43.901h27.551c7.543 0 12.444-8.447 8.66-15l-36.837-63.804 128.477-227.15c2.21-3.909 1.478-8.979-1.745-12.104l-131.29-127.223c-3.797-3.681-10.121-3.682-13.918 0l-131.29 127.222c-3.234 3.112-3.949 8.206-1.745 12.104l128.476 227.15-36.838 63.804c-3.784 6.553 1.118 15 8.66 15h31.305c7.439 36.746 40.727 63.901 78.203 63.901 44.008 0 79.812-35.804 79.812-79.812v-32.003c-.001-5.521-4.478-9.999-10.001-9.999zm-129.623-58.832v-184.131h104.145zm0-204.131v-93.607l96.6 93.606h-96.6zm-20-93.607v93.606h-96.6zm0 113.607v184.131l-104.145-184.131zm10 242.124 22.374 38.753h-44.749z"/><path d="m295.085 362.073c3.028 4.544 9.333 5.765 13.87 2.76 4.543-3.009 5.765-9.35 2.76-13.87-3.017-4.539-9.346-5.77-13.87-2.76-4.561 3.035-5.735 9.323-2.76 13.87z"/></g></g></svg>