<svg height="512pt" viewBox="0 -15 512 512" width="512pt" xmlns="http://www.w3.org/2000/svg"><path d="m347.722656 10c-34.355468 0-66.082031 11.230469-91.722656 30.214844 37.949219 28.105468 62.554688 73.210937 62.554688 124.0625 0 4.367187-.183594 8.695312-.539063 12.96875 50.566406 22.226562 86.933594 70.796875 91.722656 128.335937 10.65625-4.683593 20.679688-10.535156 29.910157-17.398437v-247.816406c-25.671876-19.078126-57.480469-30.367188-91.925782-30.367188zm0 0" fill="#f05f90"/><path d="m318.015625 177.246094c.355469-4.273438.539063-8.601563.539063-12.96875 0-85.207032-69.074219-154.277344-154.277344-154.277344-85.207032 0-154.277344 69.070312-154.277344 154.277344 0 63.144531 37.9375 117.429687 92.261719 141.304687" fill="#ffe681"/><path d="m245.761719 164.613281c0-.113281 0-.222656 0-.335937 0-44.933594-36.554688-81.488282-81.484375-81.488282-44.933594 0-81.488282 36.554688-81.488282 81.488282 0 30.960937 17.359376 57.945312 42.851563 71.730468" fill="#ede6f5"/><path d="m502 164.277344c0-50.761719-24.515625-95.792969-62.351562-123.910156v247.820312c37.835937-28.117188 62.351562-73.152344 62.351562-123.910156zm0 0" fill="#ede6f5"/><path d="m410.277344 318.554688c0 85.203124-69.074219 154.273437-154.277344 154.273437s-154.277344-69.070313-154.277344-154.273437c0-85.207032 69.074219-154.277344 154.277344-154.277344s154.277344 69.070312 154.277344 154.277344zm0 0" fill="#52607e"/><path d="m256 400.039062c-44.933594 0-81.484375-36.554687-81.484375-81.484374 0-44.933594 36.554687-81.488282 81.484375-81.488282s81.484375 36.554688 81.484375 81.488282c0 44.929687-36.550781 81.484374-81.484375 81.484374zm0 0" fill="#ede6f5"/><path d="m256 410.039062c-50.445312 0-91.484375-41.039062-91.484375-91.484374 0-50.449219 41.039063-91.488282 91.484375-91.488282 6.226562 0 12.453125.632813 18.507812 1.882813 5.40625 1.117187 8.886719 6.40625 7.773438 11.8125-1.117188 5.410156-6.410156 8.890625-11.816406 7.773437-4.726563-.972656-9.59375-1.46875-14.464844-1.46875-39.417969 0-71.484375 32.070313-71.484375 71.488282 0 39.417968 32.066406 71.484374 71.484375 71.484374s71.484375-32.066406 71.484375-71.484374c0-7.121094-1.046875-14.148438-3.113281-20.894532-1.613282-5.28125 1.355468-10.875 6.636718-12.492187 5.285157-1.617188 10.871094 1.355469 12.488282 6.632812 2.648437 8.644531 3.988281 17.644531 3.988281 26.75 0 50.449219-41.039063 91.488281-91.484375 91.488281zm0 0"/><path d="m310.28125 267.84375c-.652344 0-1.300781-.058594-1.953125-.1875-.640625-.132812-1.269531-.320312-1.867187-.570312-.609376-.25-1.191407-.5625-1.730469-.921876-.550781-.367187-1.058594-.777343-1.519531-1.25-.460938-.460937-.882813-.96875-1.242188-1.507812-.359375-.550781-.667969-1.132812-.917969-1.730469-.25-.601562-.441406-1.230469-.570312-1.871093-.128907-.648438-.199219-1.300782-.199219-1.949219 0-.660157.070312-1.308594.199219-1.960938.128906-.640625.320312-1.269531.570312-1.871093.25-.597657.558594-1.179688.917969-1.726563.359375-.542969.78125-1.050781 1.242188-1.523437.460937-.457032.96875-.878907 1.519531-1.238282.539062-.359375 1.121093-.671875 1.730469-.921875.597656-.25 1.230468-.4375 1.867187-.566406 1.292969-.261719 2.621094-.261719 3.910156 0 .640625.128906 1.273438.316406 1.871094.566406.601563.25 1.179687.5625 1.71875.921875.550781.359375 1.0625.78125 1.523437 1.238282.46875.472656.878907.980468 1.25 1.523437.359376.546875.667969 1.128906.917969 1.726563.25.601562.441407 1.230468.570313 1.871093.128906.652344.191406 1.300781.191406 1.960938 0 .648437-.0625 1.300781-.191406 1.949219-.128906.640624-.320313 1.269531-.570313 1.871093-.25.597657-.558593 1.179688-.917969 1.730469-.371093.539062-.78125 1.046875-1.25 1.507812-.460937.472657-.972656.882813-1.523437 1.25-.539063.359376-1.117187.671876-1.71875.921876s-1.230469.4375-1.871094.570312c-.648437.128906-1.296875.1875-1.957031.1875zm0 0"/><path d="m399 66.335938c-.648438 0-1.308594-.070313-1.949219-.199219-.640625-.132813-1.269531-.320313-1.871093-.570313-.609376-.25-1.1875-.5625-1.730469-.921875-.550781-.359375-1.058594-.78125-1.519531-1.238281-.460938-.460938-.878907-.972656-1.238282-1.519531-.371094-.542969-.671875-1.121094-.921875-1.730469-.25-.601562-.449219-1.230469-.578125-1.871094-.132812-.640625-.191406-1.300781-.191406-1.949218 0-.652344.058594-1.3125.191406-1.960938.128906-.628906.328125-1.261719.578125-1.871094.25-.597656.550781-1.179687.921875-1.71875.359375-.550781.777344-1.058594 1.238282-1.519531.460937-.460937.96875-.878906 1.519531-1.25.542969-.359375 1.121093-.671875 1.730469-.921875.601562-.25 1.230468-.4375 1.871093-.570312 1.289063-.257813 2.609375-.257813 3.898438 0 .640625.132812 1.269531.320312 1.871093.570312.609376.25 1.1875.5625 1.730469.921875.546875.371094 1.058594.789063 1.519531 1.25 1.859376 1.859375 2.929688 4.4375 2.929688 7.070313 0 .648437-.058594 1.308593-.191406 1.949218-.128906.640625-.328125 1.269532-.578125 1.871094-.25.609375-.558594 1.1875-.921875 1.730469-.359375.546875-.777344 1.058593-1.238282 1.519531-.460937.457031-.96875.878906-1.519531 1.238281-.539062.359375-1.121093.671875-1.730469.921875-.601562.25-1.230468.4375-1.871093.570313-.640625.128906-1.300781.199219-1.949219.199219zm0 0"/><path d="m493.90625 89.257812c-11.449219-22.265624-28.148438-41.945312-48.292969-56.917968-28.472656-21.15625-62.320312-32.339844-97.890625-32.339844-34.214844 0-65.144531 9.367188-92.019531 27.855469-26.152344-17.585938-57.613281-27.855469-91.425781-27.855469-90.582032 0-164.277344 73.695312-164.277344 164.277344 0 62.820312 35.828125 119.960937 91.863281 147.492187-.09375 2.25-.140625 4.511719-.140625 6.785157 0 90.582031 73.695313 164.273437 164.277344 164.273437s164.277344-73.691406 164.277344-164.273437c0-1.96875-.039063-3.929688-.105469-5.878907 9.914063-4.925781 17.792969-10.777343 25.441406-16.464843 20.144531-14.96875 36.84375-34.648438 48.292969-56.914063 11.835938-23.023437 18.09375-48.964844 18.09375-75.019531 0-26.058594-6.257812-52-18.09375-75.019532zm-473.90625 75.019532c0-79.554688 64.722656-144.277344 144.277344-144.277344 79.09375 0 143.523437 63.972656 144.269531 142.894531-16.503906-5.585937-34.179687-8.617187-52.546875-8.617187-.257812 0-.519531 0-.777344.003906-4.996094-45.761719-43.878906-81.492188-90.945312-81.492188-50.445313 0-91.488282 41.042969-91.488282 91.488282 0 30.167968 14.832032 58.101562 39.296876 75.113281-8.632813 15.632813-14.789063 32.808594-17.945313 51.003906-45.445313-25.289062-74.140625-73.429687-74.140625-126.117187zm102.816406 58.207031c-18.714844-13.34375-30.027344-34.929687-30.027344-58.207031 0-39.417969 32.070313-71.488282 71.488282-71.488282 36.476562 0 66.65625 27.460938 70.960937 62.792969-46.148437 5.847657-86.390625 30.914063-112.421875 66.902344zm133.183594 240.34375c-79.554688 0-144.277344-64.71875-144.277344-144.273437 0-79.554688 64.722656-144.277344 144.277344-144.277344s144.277344 64.722656 144.277344 144.277344c0 79.554687-64.722656 144.273437-144.277344 144.273437zm152.78125-204.65625c.144531-.675781.21875-1.375.21875-2.089844v-161.753906c0-5.519531-4.476562-10-10-10s-10 4.480469-10 10v127.902344c-15.675781-21.585938-36.472656-39.222657-60.585938-51.117188.09375-2.277343.140626-4.5625.140626-6.835937 0-49.175782-21.71875-93.371094-56.066407-123.503906 22.207031-13.792969 47.460938-20.773438 75.234375-20.773438 29.574219 0 57.792969 8.800781 81.929688 25.5v237.636719c-4.140625 3.027343-7.875 5.628906-11.675782 7.933593-1.929687-11.40625-5.039062-22.414062-9.195312-32.898437zm40.867188 8.269531v-204.332031c27.132812 26.914063 42.351562 63.15625 42.351562 102.167969 0 39.011718-15.21875 75.253906-42.351562 102.164062zm0 0"/><path d="m283.898438 297.917969c0 9.960937-4.800782 15.960937-11.878907 18.359375 8.878907 3 14.757813 10.199218 14.757813 22.558594v1.441406c0 17.878906-12.839844 24.71875-29.398438 24.71875s-29.519531-6.839844-29.519531-24.71875v-1.441406c0-12.359376 6-19.558594 14.878906-22.558594-7.078125-2.398438-11.878906-8.398438-11.878906-18.359375 0-14.996094 11.039063-21.359375 26.519531-21.359375 15.480469 0 26.519532 6.359375 26.519532 21.359375zm-15.839844 37.4375c0-7.796875-3.957032-11.398438-10.679688-11.398438-6.71875 0-10.800781 3.601563-10.800781 11.398438v2.640625c0 8.28125 4.203125 12 10.800781 12 6.839844 0 10.679688-3.960938 10.679688-12zm-19.199219-35.035157c0 6.238282 3.121094 8.640626 8.519531 8.640626 5.398438 0 8.519532-2.402344 8.519532-8.640626 0-6.121093-3.117188-8.761718-8.519532-8.761718-5.398437 0-8.519531 2.640625-8.519531 8.761718zm0 0"/></svg>