<svg id="Capa_1" enable-background="new 0 0 512.01 512.01" height="512" viewBox="0 0 512.01 512.01" width="512" xmlns="http://www.w3.org/2000/svg"><g><g><path d="m246.173 459.993h-69.648c-25.746 0-46.617-20.871-46.617-46.617v-314.743c0-25.746 20.871-46.617 46.617-46.617h69.648c25.746 0 46.617 20.871 46.617 46.617v314.743c0 25.746-20.871 46.617-46.617 46.617z" fill="#cef1d0"/></g><g><ellipse cx="473.518" cy="412.978" fill="#eaf0f0" rx="28.479" ry="28.479" transform="matrix(.06 -.998 .998 .06 32.993 860.983)"/></g><g><path d="m129.909 177.195h-78.67c-22.776 0-41.239 18.463-41.239 41.238v80.409c0 22.776 18.463 41.239 41.239 41.239h78.67z" fill="#a0e4a5"/></g><g><path d="m292.79 340.081h78.67c22.776 0 41.239-18.463 41.239-41.239v-80.409c0-22.776-18.463-41.239-41.239-41.239h-78.67z" fill="#a0e4a5"/></g><g><path d="m105.701 111.762 24.213 24.213v41.225h-35.033l-27.309-27.309c-10.523-10.535-10.523-27.594 0-38.129 10.385-10.361 27.741-10.364 38.129 0z" fill="#cef1d0"/></g><g><path d="m356.053 400.243c-10.523 10.535-27.594 10.535-38.117 0l-25.15-25.15v-35.009h41.225l22.042 22.042c10.534 10.523 10.534 27.594 0 38.117z" fill="#cef1d0"/></g><g><path d="m89.614 340.084h40.3v35.946l-24.213 24.213c-10.378 10.377-27.748 10.38-38.129 0-10.523-10.523-10.523-27.594 0-38.117z" fill="#cef1d0"/></g><g><path d="m356.053 149.891-27.31 27.309h-35.958v-40.288l25.15-25.15c10.523-10.523 27.594-10.523 38.117 0 10.535 10.535 10.535 27.594.001 38.129z" fill="#cef1d0"/></g><g><path d="m511.18 405.089c-2.107-10.061-8.007-18.697-16.61-24.32-3.907-2.553-8.111-4.301-12.416-5.288v-277.69c0-5.522-4.478-10-10-10s-10 4.478-10 10v278.446c-8.277 2.552-15.746 7.89-20.845 15.69-11.608 17.76-6.604 41.652 11.157 53.262 17.573 11.484 41.797 6.383 53.261-11.158 5.624-8.604 7.56-18.883 5.453-28.942zm-22.195 17.999c-5.505 8.424-17.141 10.871-25.578 5.359-8.423-5.507-10.872-17.142-5.358-25.579 5.485-8.388 17.181-10.848 25.579-5.357 8.426 5.506 10.874 17.139 5.357 25.577z"/><path d="m371.46 167.194h-18.568l10.232-10.232c14.41-14.411 14.41-37.859 0-52.271-14.409-14.407-37.851-14.406-52.26 0l-8.074 8.074v-14.132c0-31.219-25.398-56.616-56.617-56.616h-69.647c-31.219 0-56.617 25.397-56.617 56.616v13.195l-7.137-7.137c-.003-.002-.005-.005-.008-.008-14.407-14.375-37.848-14.373-52.267.012-14.393 14.41-14.393 37.855.004 52.268l10.232 10.232h-19.494c-28.253-.001-51.239 22.985-51.239 51.239v80.408c0 28.254 22.986 51.239 51.239 51.239h14.235l-4.974 4.974c-14.237 14.238-14.239 38.022 0 52.26 14.05 14.049 38.221 14.049 52.271 0l7.137-7.137v13.198c0 31.219 25.398 56.617 56.617 56.617h69.647c31.218 0 56.617-25.398 56.617-56.617v-14.136l8.071 8.071c14.236 14.252 38.025 14.254 52.263.004 14.248-14.236 14.25-38.024 0-52.26l-4.974-4.974h13.31c28.253 0 51.239-22.985 51.239-51.239v-80.408c.001-28.254-22.985-51.24-51.238-51.24zm-68.67 75.105h99.909v33.918h-99.909zm99.909-23.865v3.865h-99.909v-35.099l68.67-.006c17.226 0 31.239 14.014 31.239 31.24zm-77.693-99.601c6.609-6.611 17.364-6.609 23.976-.001 6.613 6.614 6.613 17.375 0 23.987l-24.375 24.375h-21.817v-26.144zm-305.006 122.227h99.909v33.917h-99.909zm54.646-98.237c-6.608-6.615-6.607-17.379-.012-23.982 6.506-6.49 17.497-6.49 24.003 0l21.271 21.271v27.082h-20.89zm-23.407 44.371 68.67.006v33.859h-99.909v-2.626c0-17.225 14.014-31.239 31.239-31.239zm-31.239 111.648v-3.865h99.909v35.104h-68.67c-17.225 0-31.239-14.014-31.239-31.239zm78.63 94.33c-6.501 6.502-17.486 6.502-23.987 0-6.532-6.532-6.533-17.442 0-23.975l19.113-19.113h26.153v21.809zm41.279 20.204v-314.743c0-19.631 15.53-35.698 34.949-36.574v387.892c-19.42-.876-34.949-16.944-34.949-36.575zm108.865 36.515v-143.708c0-5.522-4.477-10-10-10s-10 4.478-10 10v143.811h-33.917v-387.977h33.917v152.729c0 5.522 4.477 10 10 10s10-4.478 10-10v-152.627c18.98 1.34 34.015 17.199 34.015 36.514v314.743c.001 19.315-15.034 35.175-34.015 36.515zm100.211-56.723c-5.142 7.712-18.388 5.601-23.979.004l-22.217-22.217v-20.871h27.078l19.117 19.116c6.538 6.531 6.541 17.438.001 23.968zm22.475-63.087h-68.67v-33.864h99.909v2.625c0 17.225-14.013 31.239-31.239 31.239z"/><path d="m247.84 256.255c-2.092-5.026-8.025-7.5-13.06-5.41-5.03 2.088-7.5 8.025-5.41 13.06 2.088 5.03 8.023 7.503 13.06 5.41 5.042-2.095 7.479-8.016 5.41-13.06z"/></g></g></svg>