<svg height="512pt" viewBox="0 0 512 512" width="512pt" xmlns="http://www.w3.org/2000/svg"><path d="m256 255.980469v-69.742188l.617188.113281c19.410156 3.550782 37.289062-11.351562 37.289062-31.078124 0-19.726563-17.882812-34.632813-37.289062-31.078126l-.617188.113282v-76.40625h-208.09375v76.40625l-.621094-.113282c-19.40625-3.554687-37.285156 11.351563-37.285156 31.078126 0 19.726562 17.878906 34.628906 37.285156 31.078124l.621094-.113281v69.742188" fill="#00d2d7"/><path d="m256 255.980469h-63.4375c-.714844-16.449219-14.292969-30.164063-31.574219-30.164063s-30.859375 13.714844-31.578125 30.164063h-81.503906v208.074219h69.101562l-.113281.621093c-3.550781 19.402344 11.355469 37.28125 31.082031 37.28125 19.730469 0 34.632813-17.878906 31.082032-37.28125l-.113282-.621093h77.054688" fill="#f05f90"/><path d="m256 255.980469v69.097656l-.617188-.113281c-19.410156-3.550782-37.289062 11.351562-37.289062 31.078125 0 19.726562 17.878906 34.632812 37.289062 31.078125l.617188-.109375v77.042969h69.105469l-.113281.621093c-3.550782 19.402344 11.351562 37.28125 31.082031 37.28125 19.726562 0 34.632812-17.878906 31.082031-37.28125l-.117188-.621093h77.054688v-77.042969l.621094.109375c19.40625 3.554687 37.285156-11.351563 37.285156-31.078125 0-19.726563-17.878906-34.628907-37.285156-31.078125l-.621094.113281v-69.097656" fill="#52607e"/><path d="m464.714844 124.835938-.621094.113281v-77.046875h-77.050781l.113281-.621094c3.550781-19.402344-11.355469-37.28125-31.082031-37.28125-19.730469 0-34.636719 17.878906-31.085938 37.28125l.117188.621094h-69.105469v76.402344l.617188-.113282c19.410156-3.550781 37.289062 11.355469 37.289062 31.082032 0 19.726562-17.882812 34.628906-37.289062 31.078124l-.617188-.113281v69.742188h78.023438l-1.53125 8.355469c-3.550782 19.40625 11.355468 37.28125 31.082031 37.28125 19.730469 0 34.632812-17.875 31.082031-37.28125l-1.527344-8.355469h70.964844v-69.101563l.621094.113282c19.40625 3.554687 37.285156-11.351563 37.285156-31.078126 0-19.726562-17.878906-34.628906-37.285156-31.078124zm0 0" fill="#ffe681"/><path d="m497.039062 324.09375c-6.59375-5.496094-14.597656-8.753906-22.945312-9.488281v-117.25c8.347656-.738281 16.351562-3.996094 22.945312-9.492188 9.507813-7.925781 14.960938-19.570312 14.960938-31.949219 0-12.378906-5.453125-24.023437-14.960938-31.949218-6.59375-5.496094-14.597656-8.753906-22.945312-9.488282v-66.574218c0-5.523438-4.476562-10-10-10h-66.578125c-.738281-8.347656-3.992187-16.347656-9.488281-22.941406-7.929688-9.507813-19.574219-14.960938-31.953125-14.960938-12.378907 0-24.027344 5.453125-31.953125 14.960938-5.496094 6.59375-8.753906 14.59375-9.488282 22.941406h-266.726562c-5.523438 0-10 4.476562-10 10v65.929687c-8.347656.738281-16.351562 3.996094-22.945312 9.492188-9.507813 7.925781-14.960938 19.570312-14.960938 31.949219 0 12.378906 5.453125 24.023437 14.960938 31.949218 6.59375 5.496094 14.597656 8.753906 22.945312 9.488282v267.34375c0 5.523437 4.476562 10 10 10h58.628906c.738282 8.34375 3.992188 16.347656 9.488282 22.9375 7.925781 9.511718 19.574218 14.964843 31.953124 14.964843 12.382813 0 24.027344-5.453125 31.953126-14.960937 5.496093-6.59375 8.753906-14.59375 9.492187-22.941406h125.207031c.738282 8.347656 3.992188 16.347656 9.488282 22.9375 7.929687 9.511718 19.574218 14.964843 31.953124 14.964843 12.382813 0 24.027344-5.453125 31.953126-14.960937 5.496093-6.59375 8.753906-14.589844 9.488281-22.941406h66.582031c5.519531 0 10-4.476563 10-10v-66.570313c8.347656-.738281 16.347656-3.996094 22.941406-9.492187 9.511719-7.925782 14.960938-19.570313 14.960938-31.949219.003906-12.378907-5.449219-24.023438-14.957032-31.949219zm-171.933593-266.191406c2.96875 0 5.785156-1.320313 7.683593-3.601563 1.902344-2.285156 2.6875-5.292969 2.148438-8.214843l-.109375-.601563c-1.15625-6.324219.539063-12.78125 4.652344-17.714844 4.117187-4.9375 10.164062-7.769531 16.59375-7.769531 6.425781 0 12.472656 2.832031 16.589843 7.769531 4.113282 4.9375 5.8125 11.394531 4.652344 17.714844l-.113281.617187c-.53125 2.921876.257813 5.925782 2.15625 8.203126 1.902344 2.28125 4.714844 3.597656 7.683594 3.597656h67.050781v67.046875c0 2.96875 1.320312 5.785156 3.601562 7.683593 2.28125 1.898438 5.289063 2.6875 8.207032 2.152344l.613281-.113281c6.320313-1.15625 12.78125.542969 17.71875 4.65625 4.9375 4.117187 7.765625 10.160156 7.765625 16.585937 0 6.429688-2.828125 12.472657-7.765625 16.589844-4.9375 4.113282-11.398437 5.8125-17.710937 4.65625l-.621094-.113281c-2.917969-.535156-5.925782.25-8.207032 2.152344-2.28125 1.898437-3.601562 4.714843-3.601562 7.683593v59.097657h-60.964844c-2.96875 0-5.78125 1.316406-7.683594 3.59375-1.898437 2.28125-2.6875 5.285156-2.15625 8.207031l1.53125 8.355469c1.15625 6.320312-.539062 12.777343-4.65625 17.714843-4.113281 4.9375-10.160156 7.765626-16.589843 7.765626-6.429688 0-12.476563-2.828126-16.589844-7.765626-4.117187-4.9375-5.8125-11.394531-4.65625-17.714843l1.53125-8.359375c.535156-2.917969-.257813-5.921875-2.15625-8.203125-1.898437-2.277344-4.714844-3.59375-7.679687-3.59375h-68.023438v-49.269531c8.347656-.734376 16.351562-3.992188 22.941406-9.488282 9.511719-7.925781 14.964844-19.570312 14.964844-31.949218 0-12.378907-5.453125-24.023438-14.964844-31.949219-6.59375-5.5-14.59375-8.753907-22.941406-9.492188v-55.929687zm-297.335938 113.957031c-4.9375-4.113281-7.769531-10.160156-7.769531-16.585937 0-6.425782 2.832031-12.472657 7.769531-16.585938 4.9375-4.117188 11.394531-5.8125 17.71875-4.65625l.617188.113281c2.921875.535157 5.925781-.253906 8.203125-2.15625 2.28125-1.898437 3.597656-4.714843 3.597656-7.679687v-66.40625h188.09375v66.402344c0 2.96875 1.316406 5.78125 3.597656 7.683593 2.277344 1.898438 5.28125 2.6875 8.203125 2.15625l.617188-.113281c.398437-.074219.792969-.136719 1.1875-.183594 5.445312-.691406 10.910156.707032 15.347656 3.917969.402344.292969.800781.597656 1.183594.917969 4.9375 4.117187 7.769531 10.164062 7.769531 16.589844 0 6.425781-2.832031 12.46875-7.769531 16.585937-4.933594 4.117187-11.394531 5.8125-17.71875 4.65625l-.617188-.113281c-2.917969-.535156-5.925781.253906-8.203125 2.15625-2.28125 1.898437-3.597656 4.710937-3.597656 7.679687v59.742188h-44.976562c-4.949219-17.511719-21.011719-30.164063-40.035157-30.164063-19.019531 0-35.085937 12.652344-40.035156 30.164063h-63.046875v-59.742188c0-2.964843-1.316406-5.78125-3.597656-7.679687-2.277344-1.898438-5.285156-2.691406-8.203125-2.15625l-.621094.113281c-6.324219 1.160156-12.777344-.539063-17.714844-4.65625zm151.175781 282.195313c-2.964843 0-5.78125 1.320312-7.679687 3.597656-1.898437 2.28125-2.691406 5.285156-2.15625 8.203125l.113281.621093c1.15625 6.320313-.539062 12.777344-4.65625 17.714844-4.113281 4.9375-10.160156 7.769532-16.589844 7.769532-6.425781 0-12.472656-2.832032-16.589843-7.769532-4.113281-4.9375-5.8125-11.394531-4.652344-17.714844l.113281-.621093c.53125-2.917969-.257812-5.921875-2.15625-8.203125-1.902344-2.277344-4.714844-3.59375-7.683594-3.59375h-59.101562v-188.078125h71.503906c5.355469 0 9.761719-4.21875 9.992188-9.566407.503906-11.550781 9.984375-20.597656 21.585937-20.597656 11.601563 0 21.082031 9.046875 21.585938 20.597656.230469 5.347657 4.636719 9.566407 9.988281 9.566407h53.4375v48.625c-8.347656.734375-16.351562 3.992187-22.945312 9.488281-9.507813 7.925781-14.960938 19.570312-14.960938 31.949219 0 12.378906 5.453125 24.023437 14.960938 31.949219 6.597656 5.496093 14.597656 8.753906 22.945312 9.492187v56.570313zm305.285157-81.421876c-4.9375 4.113282-11.394531 5.8125-17.71875 4.652344l-.617188-.113281c-2.917969-.53125-5.925781.257813-8.203125 2.15625-2.28125 1.902344-3.597656 4.714844-3.597656 7.683594v67.042969h-67.054688c-2.96875 0-5.785156 1.320312-7.683593 3.605468-1.902344 2.28125-2.6875 5.289063-2.148438 8.210938l.109375.605468c1.160156 6.320313-.539062 12.777344-4.652344 17.714844-4.117187 4.9375-10.164062 7.769532-16.589843 7.769532-6.429688 0-12.476563-2.832032-16.59375-7.769532-4.113281-4.9375-5.808594-11.394531-4.652344-17.714844l.113281-.621093c.535156-2.917969-.257812-5.921875-2.15625-8.203125-1.898437-2.277344-4.714844-3.59375-7.679687-3.59375h-59.105469v-67.046875c0-2.96875-1.316406-5.78125-3.597656-7.683594-2.277344-1.898437-5.28125-2.6875-8.203125-2.152344l-.617188.113281c-6.328125 1.15625-12.785156-.542968-17.71875-4.65625-4.9375-4.117187-7.769531-10.160156-7.769531-16.585937 0-6.429687 2.832031-12.472656 7.769531-16.589844 4.933594-4.113281 11.394531-5.8125 17.71875-4.652343l.617188.109374c2.921875.535157 5.925781-.253906 8.203125-2.152343 2.28125-1.902344 3.597656-4.714844 3.597656-7.683594v-59.097656h56.171875c-1.085937 11.046875 2.269531 22.0625 9.449219 30.675781 7.925781 9.507812 19.574218 14.964844 31.953125 14.964844 12.378906 0 24.027343-5.457032 31.953125-14.964844 7.179687-8.609375 10.539062-19.628906 9.449218-30.675781h49.117188v59.097656c0 2.96875 1.316406 5.78125 3.597656 7.683594 2.277344 1.898437 5.285156 2.6875 8.203125 2.152343l.617188-.109374c6.332031-1.160157 12.78125.539062 17.71875 4.652343 4.9375 4.117188 7.769531 10.160157 7.769531 16.589844 0 6.421875-2.832031 12.46875-7.769531 16.585937zm0 0"/><path d="m83.980469 308.4375c-2.632813 0-5.210938-1.070312-7.070313-2.929688-1.859375-1.859374-2.929687-4.4375-2.929687-7.070312 0-.648438.070312-1.308594.199219-1.957031.121093-.632813.320312-1.261719.570312-1.871094.25-.601563.558594-1.179687.917969-1.71875.359375-.550781.78125-1.0625 1.242187-1.53125.457032-.460937.96875-.871094 1.519532-1.242187.539062-.359376 1.121093-.667969 1.730468-.917969.597656-.25 1.226563-.441407 1.867188-.570313 1.289062-.261718 2.621094-.261718 3.910156 0 .628906.128906 1.261719.320313 1.871094.570313.601562.25 1.179687.558593 1.71875.917969.550781.371093 1.0625.78125 1.523437 1.242187.457031.46875.878907.980469 1.25 1.53125.359375.539063.667969 1.117187.917969 1.71875.25.609375.441406 1.238281.570312 1.871094.128907.648437.1875 1.308593.1875 1.957031 0 2.632812-1.066406 5.210938-2.929687 7.070312-.457031.460938-.96875.882813-1.519531 1.242188-.539063.359375-1.121094.667969-1.71875.917969-.609375.25-1.242188.441406-1.871094.570312-.648438.128907-1.308594.199219-1.957031.199219zm0 0"/><path d="m83.980469 429.660156c-5.519531 0-10-4.476562-10-10v-83.15625c0-5.523437 4.480469-10 10-10 5.523437 0 10 4.476563 10 10v83.15625c0 5.523438-4.476563 10-10 10zm0 0"/><path d="m429.351562 99.128906c-.652343 0-1.3125-.058594-1.960937-.191406-.628906-.128906-1.261719-.320312-1.871094-.570312-.597656-.25-1.179687-.558594-1.71875-.917969-.550781-.371094-1.0625-.78125-1.519531-1.25-.460938-.460938-.882812-.96875-1.25-1.519531-.359375-.539063-.671875-1.121094-.921875-1.71875-.25-.613282-.441406-1.242188-.570313-1.871094-.128906-.652344-.1875-1.3125-.1875-1.960938 0-2.628906 1.070313-5.210937 2.929688-7.070312.460938-.460938.96875-.878906 1.519531-1.238282.539063-.359374 1.121094-.671874 1.71875-.921874.613281-.25 1.242188-.4375 1.871094-.570313 1.289063-.257813 2.621094-.257813 3.910156 0 .640625.132813 1.269531.320313 1.871094.570313.609375.25 1.1875.5625 1.730469.921874.550781.359376 1.058594.777344 1.519531 1.238282 1.859375 1.859375 2.929687 4.441406 2.929687 7.070312 0 .648438-.070312 1.308594-.199218 1.960938-.132813.628906-.320313 1.257812-.570313 1.871094-.25.597656-.5625 1.179687-.921875 1.71875-.359375.550781-.777344 1.058593-1.238281 1.519531-.460937.46875-.96875.878906-1.519531 1.25-.539063.359375-1.121094.667969-1.730469.917969-.601563.25-1.230469.441406-1.871094.570312-.640625.132812-1.300781.191406-1.949219.191406zm0 0"/><path d="m429.347656 220.359375c-5.519531 0-10-4.476563-10-10v-83.15625c0-5.523437 4.480469-10 10-10 5.523438 0 10 4.476563 10 10v83.15625c0 5.523437-4.476562 10-10 10zm0 0"/></svg>