<svg height="512pt" viewBox="-154 0 512 512" width="512pt" xmlns="http://www.w3.org/2000/svg"><path d="m194.5 150.199219c0-11.453125-9.289062-20.738281-20.753906-20.738281h-142.996094c-11.460938 0-20.75 9.285156-20.75 20.738281v270.097656h184.496094v-270.097656zm0 0" fill="#52607e"/><path d="m127.019531 129.460938c1.734375-3.597657 2.703125-7.628907 2.703125-11.890626 0-15.164062-12.300781-27.457031-27.472656-27.457031-15.175781 0-27.472656 12.292969-27.472656 27.457031 0 4.261719.96875 8.292969 2.699218 11.890626zm0 0" fill="#ffe681"/><path d="m10 420.296875v60.964844c0 11.453125 9.289062 20.738281 20.753906 20.738281h142.996094c11.460938 0 20.75-9.285156 20.75-20.738281v-60.964844zm0 0" fill="#7ccafd"/><path d="m145.269531 359.734375h-25.449219v-25.433594h-35.140624v25.433594h-25.449219v35.125h25.449219v25.4375h35.140624v-25.4375h25.449219zm0 0" fill="#f05f90"/><path d="m47.019531 255.867188h40.046875v40.027343h-40.046875zm0 0" fill="#ede6f5"/><path d="m87.066406 305.898438h-40.046875c-5.523437 0-10-4.476563-10-10v-40.03125c0-5.523438 4.476563-10 10-10h40.046875c5.523438 0 10 4.476562 10 10v40.03125c0 5.519531-4.476562 10-10 10zm-30.046875-20h20.046875v-20.03125h-20.046875zm0 0"/><path d="m117.433594 255.867188h40.046875v40.027343h-40.046875zm0 0" fill="#ede6f5"/><path d="m157.480469 305.898438h-40.046875c-5.523438 0-10-4.476563-10-10v-40.03125c0-5.523438 4.476562-10 10-10h40.046875c5.523437 0 10 4.476562 10 10v40.03125c0 5.519531-4.476563 10-10 10zm-30.046875-20h20.046875v-20.03125h-20.046875zm0 0"/><path d="m47.019531 176.179688h40.046875v40.03125h-40.046875zm0 0" fill="#ede6f5"/><path d="m87.066406 226.210938h-40.046875c-5.523437 0-10-4.476563-10-10v-40.03125c0-5.523438 4.476563-10 10-10h40.046875c5.523438 0 10 4.476562 10 10v40.03125c0 5.519531-4.476562 10-10 10zm-30.046875-20h20.046875v-20.03125h-20.046875zm0 0"/><path d="m117.433594 176.179688h40.046875v40.03125h-40.046875zm0 0" fill="#ede6f5"/><path d="m157.480469 226.210938h-40.046875c-5.523438 0-10-4.476563-10-10v-40.03125c0-5.523438 4.476562-10 10-10h40.046875c5.523437 0 10 4.476562 10 10v40.03125c0 5.519531-4.476563 10-10 10zm-30.046875-20h20.046875v-20.03125h-20.046875zm0 0"/><path d="m170.792969 54.730469c-3.070313 0-6.101563-1.410157-8.058594-4.070313-14.144531-19.199218-36.753906-30.660156-60.484375-30.660156s-46.339844 11.460938-60.480469 30.660156c-3.277343 4.449219-9.539062 5.394532-13.984375 2.121094-4.445312-3.273438-5.394531-9.535156-2.121094-13.980469 17.894532-24.296875 46.527344-38.800781 76.585938-38.800781s58.6875 14.503906 76.585938 38.800781c3.273437 4.445313 2.324218 10.707031-2.121094 13.980469-1.785156 1.316406-3.863282 1.949219-5.921875 1.949219zm0 0"/><path d="m144.679688 83.523438c-3.070313 0-6.097657-1.410157-8.058594-4.070313-8.039063-10.914063-20.886719-17.429687-34.371094-17.429687s-26.332031 6.515624-34.371094 17.425781c-3.273437 4.449219-9.535156 5.398437-13.980468 2.121093-4.449219-3.273437-5.398438-9.535156-2.121094-13.980468 11.792968-16.007813 30.660156-25.566406 50.472656-25.566406s38.679688 9.558593 50.472656 25.566406c3.277344 4.445312 2.328125 10.707031-2.121094 13.980468-1.785156 1.316407-3.863281 1.953126-5.921874 1.953126zm0 0"/><path d="m157.359375 462.769531c-.648437 0-1.308594-.058593-1.949219-.191406-.640625-.128906-1.269531-.316406-1.871094-.566406-.609374-.25-1.1875-.5625-1.730468-.921875-.546875-.359375-1.058594-.78125-1.519532-1.238282-.460937-.460937-.878906-.980468-1.238281-1.523437-.359375-.546875-.671875-1.128906-.921875-1.726563-.25-.601562-.4375-1.230468-.570312-1.871093-.128906-.652344-.199219-1.300781-.199219-1.949219 0-.660156.070313-1.3125.199219-1.960938.132812-.640624.320312-1.269531.570312-1.871093.25-.597657.5625-1.179688.921875-1.730469.359375-.539062.777344-1.046875 1.238281-1.519531.460938-.460938.972657-.871094 1.519532-1.238281.539062-.359376 1.121094-.671876 1.730468-.921876.601563-.25 1.230469-.4375 1.871094-.570312 1.289063-.257812 2.621094-.257812 3.910156 0 .628907.132812 1.257813.320312 1.871094.570312.597656.25 1.179688.5625 1.71875.921876.550782.367187 1.058594.777343 1.519532 1.238281.460937.472656.878906.980469 1.25 1.519531.359374.550781.671874 1.132812.921874 1.730469.25.601562.4375 1.230469.570313 1.871093.128906.648438.1875 1.300782.1875 1.960938 0 .648438-.058594 1.296875-.1875 1.949219-.132813.640625-.320313 1.269531-.570313 1.871093-.25.597657-.5625 1.179688-.921874 1.726563-.371094.542969-.789063 1.0625-1.25 1.523437-.460938.457032-.96875.878907-1.519532 1.238282-.539062.359375-1.121094.671875-1.71875.921875-.613281.25-1.242187.4375-1.871094.566406-.648437.132813-1.308593.191406-1.960937.191406zm0 0"/><path d="m173.75 119.460938h-34.074219c.03125-.628907.046875-1.257813.046875-1.890626 0-20.652343-16.808594-37.457031-37.472656-37.457031s-37.472656 16.804688-37.472656 37.457031c0 .632813.015625 1.261719.046875 1.890626h-34.074219c-16.953125 0-30.75 13.789062-30.75 30.738281v331.0625c0 16.949219 13.792969 30.738281 30.75 30.738281h142.996094c16.957031 0 30.753906-13.789062 30.753906-30.738281v-331.0625c0-16.949219-13.796875-30.738281-30.75-30.738281zm-88.972656-1.890626c0-9.625 7.835937-17.457031 17.472656-17.457031s17.472656 7.832031 17.472656 17.457031c0 .636719-.03125 1.269532-.097656 1.890626h-34.746094c-.070312-.625-.101562-1.253907-.101562-1.890626zm-64.777344 32.628907c0-5.921875 4.824219-10.738281 10.753906-10.738281h142.996094c5.925781 0 10.75 4.816406 10.75 10.738281v260.097656h-54.679688v-5.433594h15.449219c5.519531 0 10-4.476562 10-10v-35.125c0-5.523437-4.480469-10-10-10h-15.449219v-15.433593c0-5.523438-4.476562-10-10-10h-35.140624c-5.523438 0-10 4.476562-10 10v15.433593h-15.449219c-5.519531 0-10 4.476563-10 10v35.125c0 5.523438 4.480469 10 10 10h15.449219v5.433594h-54.679688zm64.679688 234.660156h-15.449219v-15.125h15.449219c5.519531 0 10-4.476563 10-10v-15.433594h15.140624v15.433594c0 5.523437 4.480469 10 10 10h15.449219v15.125h-15.449219c-5.519531 0-10 4.480469-10 10v15.4375h-15.140624v-15.4375c0-5.519531-4.480469-10-10-10zm99.820312 96.402344c0 5.921875-4.824219 10.738281-10.75 10.738281h-143c-5.925781 0-10.75-4.816406-10.75-10.738281v-18.484375h99.171875c5.523437 0 10-4.476563 10-10 0-5.523438-4.476563-10-10-10h-99.171875v-12.480469h164.496094v50.964844zm0 0"/></svg>