<svg id="Capa_1" enable-background="new 0 0 512.001 512.001" height="512" viewBox="0 0 512.001 512.001" width="512" xmlns="http://www.w3.org/2000/svg"><g><g><path d="m116.298 257.97c-1.644-9.529 1.721-19.234 8.912-25.699l161.89-145.549c9.713-9.182 15.023-22.088 14.585-35.447l-.58-17.703c-.278-8.491-7.097-15.31-15.588-15.588l-17.703-.58c-13.359-.438-26.265 4.872-35.447 14.585l-145.55 161.889c-6.465 7.191-16.17 10.556-25.699 8.912l-24.469-4.223-26.649 26.649 60.553 23.32 23.32 60.553 26.649-26.649z" fill="#ccd3dd"/></g><g><path d="m502 290.366c-.142 113.712-91.977 204.891-205.687 204.256-106.071-.593-193.017-81.937-202.493-185.667l.05.13 26.653-26.643-4.222-24.478c-1.643-9.528 1.722-19.232 8.912-25.697l161.887-145.542c.32-.3.63-.61.94-.92 3.13-.15 6.28-.22 9.44-.22 113.037 0 204.661 91.701 204.52 204.781z" fill="#a0c8ff"/></g><g><path d="m150.081 123.524-106.929-74.363 24.311-24.312 129.304 46.753z" fill="#ccd3dd"/></g><g><path d="m290.461 247.847-24.311 24.312-70.291-103.416 51.626-46.389z" fill="#ccd3dd"/></g><g><path d="m502 290.105c0 81.1-47.2 151.17-115.63 184.24l-43.37-43.38c-5.21-5.21-8.14-12.27-8.14-19.64v-30.09c0-7.37 2.93-14.43 8.14-19.64l56.4-56.4c9.66-9.66 15.09-22.77 15.09-36.44v-38.25c0-15.549-13.185-28.77-28.77-28.77-12.57 0-22.76-10.19-22.76-22.76v-12.06c0-12.58 10.19-22.77 22.76-22.77h55.02c37.81 37.1 61.26 88.79 61.26 145.96z" fill="#a0e4a5"/></g><g><path d="m271.93 374.465-34.05 34.04c-2.91 2.91-4.54 6.85-4.54 10.96v64.89c-52.78-17.4-96.05-55.73-120-105.15l29.39-29.38c2.9-2.91 6.84-4.54 10.95-4.54h54.21c4.11 0 8.05-1.63 10.96-4.54l9.68-9.68c6.05-6.05 15.86-6.05 21.91 0l21.49 21.49c6.05 6.05 6.05 15.86 0 21.91z" fill="#a0e4a5"/></g><g><path d="m499.577 323.197c-.338-.072-.676-.126-1.012-.163-5.046-.558-9.78 2.79-10.861 7.856-11.876 55.676-49.049 104.667-99.424 131.221l-38.209-38.218c-3.36-3.36-5.211-7.824-5.211-12.569v-30.09c0-4.745 1.851-9.209 5.211-12.569l56.4-56.4c11.619-11.62 18.019-27.072 18.019-43.511v-38.25c0-21.135-17.635-38.77-38.771-38.77-7.036 0-12.76-5.724-12.76-12.76v-12.06c0-7.042 5.724-12.77 12.76-12.77h50.834c25.09 25.71 42.974 58.41 50.784 93.493 1.2 5.392 6.546 8.787 11.934 7.588 4.911-1.093 8.682-7.023 7.589-11.935-20.832-93.517-104.321-163.297-200.046-167.499 3.431-7.73 5.149-16.209 4.866-24.844l-.58-17.703c-.45-13.712-11.543-24.806-25.256-25.255l-17.702-.58c-16.229-.547-31.898 5.922-43.042 17.709-.058.061-.114.122-.17.184l-31.109 34.601-122.957-44.458c-3.648-1.318-7.729-.409-10.472 2.333l-24.312 24.311c-2.094 2.094-3.152 5.009-2.89 7.958.264 2.95 1.82 5.632 4.252 7.323l97.619 67.888-55.681 61.934c-4.191 4.662-10.378 6.809-16.562 5.743l-24.47-4.223c-3.199-.55-6.473.485-8.771 2.784l-26.648 26.649c-2.393 2.393-3.413 5.834-2.711 9.145.701 3.311 3.03 6.042 6.188 7.258l56.41 21.724 21.193 55.033c10.612 108.121 105.007 193.32 213.471 193.32 100.032 0 188.962-71.932 209.791-169.562 1.152-5.401-2.293-10.714-7.694-11.866zm-256.655-183.299 36.058 105.289-11.354 11.355-58.583-86.192zm-184.245-92.121 11.364-11.363 109.35 39.538-30.853 34.317zm15.469 191.426-46.2-17.792 12.108-12.108 19.362 3.341c12.994 2.24 26.019-2.273 34.836-12.081l145.46-161.79c7.205-7.573 17.313-11.714 27.773-11.375l17.703.58c3.214.105 5.815 2.707 5.92 5.921l.581 17.704c.343 10.45-3.802 20.565-11.375 27.771l-161.788 145.458c-9.692 8.714-14.299 21.994-12.082 34.838l3.342 19.362-12.11 12.108-17.792-46.199c-1.015-2.637-3.1-4.722-5.738-5.738zm149.194 180.262v50.513c-41.429-17.084-76.984-49.066-97.8-88.83l24.275-24.265c1.026-1.031 2.399-1.598 3.865-1.598h54.21c6.812 0 13.215-2.652 18.03-7.469l9.682-9.68c2.11-2.11 5.657-2.11 7.767 0l21.49 21.49c2.146 2.589 2.146 5.178.001 7.767l-34.05 34.041c-4.818 4.815-7.47 11.219-7.47 18.031zm20 57.504v-57.504c0-1.469.572-2.85 1.61-3.888l34.05-34.04c9.641-9.641 9.505-26.549.001-36.054l-21.49-21.489c-9.825-9.826-26.226-9.827-36.051 0l-9.682 9.68c-1.039 1.039-2.42 1.611-3.889 1.611h-54.21c-6.822 0-13.227 2.657-18.019 7.468l-19.054 19.047c-6.186-15.605-10.363-32.048-12.331-48.973l23.317-23.314c2.299-2.298 3.338-5.569 2.785-8.772l-4.222-24.478c-1.052-6.1 1.137-12.418 5.74-16.557l62.136-55.864 63.847 93.937c3.467 5.099 10.974 5.819 15.342 1.45l24.312-24.312c2.699-2.699 3.626-6.699 2.39-10.311l-40.838-119.249 33.036-29.701c1.76-.048 3.552-.073 5.36-.073 41.864 0 82.837 13.644 116.252 38.56h-28.012c-18.063 0-32.76 14.701-32.76 32.77v12.06c0 18.064 14.696 32.76 32.76 32.76 10.237 0 18.771 8.533 18.771 18.77v38.25c0 11.097-4.319 21.527-12.161 29.369l-56.4 56.4c-7.138 7.138-11.068 16.624-11.068 26.711v30.09c0 10.087 3.931 19.574 11.067 26.71l32.967 32.974c-22.597 8.912-46.842 13.615-71.414 13.615-18.513.003-36.714-2.614-54.142-7.653z"/><path d="m511.81 288.151c-1.081-5.329-6.415-8.925-11.76-7.85-5.339 1.073-8.926 6.411-7.85 11.76 1.073 5.333 6.404 8.918 11.75 7.85 5.32-1.063 8.942-6.423 7.86-11.76z"/></g></g></svg>