<svg height="512pt" viewBox="-50 0 511 512" width="512pt" xmlns="http://www.w3.org/2000/svg"><path d="m52.902344 82.414062c40.035156 0 75.136718-41.296874 94.867187-72.414062h117.394531c19.730469 31.121094 54.832032 72.414062 94.867188 72.414062 15.011719 0 29.324219-2.980468 42.402344-8.351562v252.113281c0 34.332031-16.511719 66.566407-44.371094 86.621094l-151.597656 89.203125-151.59375-89.203125c-27.859375-20.054687-44.371094-52.289063-44.371094-86.621094v-252.113281c13.074219 5.371094 27.386719 8.351562 42.402344 8.351562zm0 0" fill="#52607e"/><path d="m206.464844 512c-1.75 0-3.503906-.460938-5.070313-1.382812l-151.59375-89.203126c-.265625-.152343-.523437-.320312-.773437-.5-30.386719-21.878906-48.527344-57.292968-48.527344-94.738281v-252.113281c0-3.335938 1.660156-6.449219 4.433594-8.304688 2.769531-1.859374 6.28125-2.210937 9.367187-.945312 12.28125 5.042969 25.269531 7.601562 38.601563 7.601562 39.226562 0 73.503906-47.390624 86.421875-67.769531 1.832031-2.890625 5.019531-4.644531 8.441406-4.644531h117.398437c3.425782 0 6.613282 1.753906 8.445313 4.644531 12.917969 20.378907 47.195313 67.769531 86.421875 67.769531 13.328125 0 26.316406-2.558593 38.601562-7.601562 3.082032-1.265625 6.597657-.914062 9.367188.945312 2.769531 1.855469 4.433594 4.96875 4.433594 8.304688v252.113281c0 37.445313-18.144532 72.863281-48.53125 94.738281-.25.179688-.507813.347657-.769532.5l-151.597656 89.203126c-1.5625.921874-3.316406 1.382812-5.070312 1.382812zm-146.117188-107.582031 146.117188 85.980469 146.117187-85.980469c24.960938-18.148438 39.851563-47.359375 39.851563-78.242188v-238.136719c-10.511719 2.90625-21.359375 4.375-32.402344 4.375-44.917969 0-81.117188-43.382812-100.304688-72.414062h-106.519531c-19.1875 29.03125-55.386719 72.414062-100.304687 72.414062-11.042969 0-21.894532-1.46875-32.402344-4.375v238.136719c0 30.878907 14.886719 60.09375 39.847656 78.242188zm0 0"/><path d="m336.089844 379.488281c16.625-12.59375 26.5-32.398437 26.5-53.3125v-203.933593c-.851563.015624-1.703125.023437-2.558594.023437-51.398438 0-91.441406-39.574219-115.816406-72.414063h-75.5c-24.375 32.839844-64.417969 72.410157-115.8125 72.414063-.855469 0-1.707032-.007813-2.558594-.023437v203.933593c0 20.914063 9.875 40.71875 26.5 53.316407l129.621094 76.273437zm0 0" fill="#ede6f5"/><path d="m206.464844 465.765625c-1.75 0-3.503906-.460937-5.070313-1.382813l-129.625-76.273437c-.332031-.195313-.65625-.414063-.964843-.648437-19.074219-14.449219-30.460938-37.359376-30.460938-61.285157v-203.933593c0-2.679688 1.074219-5.25 2.984375-7.128907 1.914063-1.878906 4.511719-2.90625 7.179687-2.867187.796876.011718 1.597657.019531 2.394532.019531 47.140625 0 84.632812-37.183594 107.78125-68.375 1.886718-2.542969 4.867187-4.039063 8.03125-4.039063h75.5c3.167968 0 6.144531 1.496094 8.03125 4.039063 23.152344 31.191406 60.644531 68.375 107.785156 68.375.796875 0 1.597656-.003906 2.394531-.019531 2.675781-.046875 5.265625.988281 7.175781 2.867187 1.910157 1.882813 2.988282 4.449219 2.988282 7.128907v203.933593c0 23.925781-11.386719 46.835938-30.460938 61.285157-.3125.234374-.632812.453124-.96875.648437l-129.625 76.273437c-1.5625.921876-3.316406 1.382813-5.070312 1.382813zm-124.027344-94.585937 124.027344 72.980468 124.03125-72.980468c13.84375-10.710938 22.09375-27.488282 22.09375-45.003907v-194.160156c-49.742188-3.355469-88.464844-39.792969-113.351563-72.164063h-65.546875c-24.886718 32.371094-63.601562 68.808594-113.347656 72.164063v194.160156c0 17.511719 8.25 34.292969 22.09375 45.003907zm253.652344 8.308593h.011718zm0 0"/><path d="m227.285156 407.285156c-3.429687 0-6.765625-1.761718-8.628906-4.929687-2.800781-4.757813-1.214844-10.886719 3.546875-13.691407l85.265625-50.171874c3.316406-3.1875 5.277344-7.734376 5.277344-12.316407v-123.972656c0-5.523437 4.476562-10 10-10 5.523437 0 10 4.476563 10 10v123.972656c0 10.714844-4.648438 20.90625-12.753906 27.957031-.460938.402344-.960938.761719-1.492188 1.074219l-86.15625 50.695313c-1.589844.9375-3.335938 1.382812-5.058594 1.382812zm0 0"/><path d="m322.746094 176.671875c-.648438 0-1.308594-.070313-1.949219-.203125-.640625-.128906-1.269531-.320312-1.871094-.570312-.609375-.25-1.191406-.558594-1.730469-.917969-.550781-.359375-1.058593-.78125-1.519531-1.242188-.460937-.457031-.878906-.96875-1.238281-1.519531-.363281-.539062-.671875-1.117188-.921875-1.730469-.25-.597656-.441406-1.226562-.570313-1.867187-.128906-.640625-.199218-1.300782-.199218-1.949219 0-.652344.070312-1.3125.199218-1.960937.128907-.632813.320313-1.261719.570313-1.871094.25-.601563.558594-1.179688.921875-1.71875.359375-.550782.777344-1.0625 1.238281-1.519532.460938-.460937.96875-.882812 1.519531-1.25.539063-.363281 1.121094-.671874 1.730469-.921874.601563-.238282 1.230469-.441407 1.871094-.570313 1.289063-.25 2.617187-.25 3.910156 0 .628907.128906 1.257813.332031 1.867188.570313.601562.25 1.183593.558593 1.722656.921874.550781.367188 1.058594.789063 1.519531 1.25.460938.457032.878906.96875 1.25 1.519532.359375.539062.660156 1.117187.910156 1.71875.25.609375.449219 1.238281.570313 1.871094.128906.648437.199219 1.308593.199219 1.960937 0 .648437-.070313 1.308594-.199219 1.949219-.121094.640625-.320313 1.269531-.570313 1.867187-.25.613281-.550781 1.191407-.910156 1.730469-.371094.550781-.789062 1.0625-1.25 1.519531-.460937.460938-.96875.882813-1.519531 1.242188-.539063.359375-1.121094.667969-1.722656.917969-.609375.25-1.238281.441406-1.867188.570312-.652343.132812-1.3125.203125-1.960937.203125zm0 0"/><path d="m90.183594 336.175781c-5.523438 0-10-4.476562-10-10v-169.066406c0-4.511719 3.027344-8.46875 7.382812-9.648437 33.078125-8.984376 64.289063-30.589844 92.757813-64.222657 3.570312-4.210937 9.878906-4.738281 14.097656-1.167969 4.214844 3.566407 4.738281 9.878907 1.167969 14.09375-29.0625 34.328126-61.121094 57.308594-95.402344 68.402344v161.609375c-.003906 5.523438-4.480469 10-10.003906 10zm0 0"/><path d="m206.464844 293.09375 43.082031 18.253906-4.046875-46.621094 30.671875-35.339843-45.582031-10.558594-24.125-40.09375-24.125 40.09375-45.578125 10.558594 30.667969 35.339843-4.042969 46.621094zm0 0" fill="#ffdd52"/><path d="m249.546875 321.347656c-1.320313 0-2.648437-.261718-3.902344-.792968l-39.179687-16.601563-39.179688 16.601563c-3.226562 1.367187-6.9375.941406-9.777344-1.117188-2.835937-2.0625-4.386718-5.460938-4.085937-8.957031l3.679687-42.398438-27.894531-32.140625c-2.296875-2.648437-3.042969-6.308594-1.957031-9.644531s3.835938-5.859375 7.253906-6.652344l41.449219-9.601562 21.941406-36.464844c1.808594-3.003906 5.0625-4.84375 8.570313-4.84375 3.507812 0 6.757812 1.839844 8.566406 4.84375l21.941406 36.464844 41.453125 9.601562c3.417969.792969 6.167969 3.316407 7.253907 6.652344 1.082031 3.335937.339843 6.996094-1.960938 9.644531l-27.890625 32.140625 3.679687 42.398438c.300782 3.496093-1.25 6.894531-4.085937 8.957031-1.734375 1.257812-3.796875 1.910156-5.875 1.910156zm-43.082031-38.257812c1.328125 0 2.65625.265625 3.902344.792968l27.78125 11.773438-2.609376-30.066406c-.234374-2.695313.632813-5.375 2.410157-7.417969l19.777343-22.792969-29.394531-6.808594c-2.636719-.609374-4.914062-2.265624-6.3125-4.585937l-15.554687-25.855469-15.554688 25.855469c-1.398437 2.320313-3.675781 3.976563-6.3125 4.585937l-29.394531 6.808594 19.777344 22.792969c1.777343 2.042969 2.644531 4.722656 2.410156 7.417969l-2.609375 30.066406 27.78125-11.773438c1.25-.527343 2.578125-.792968 3.902344-.792968zm0 0"/></svg>