<svg height="512pt" viewBox="-171 0 512 512" width="512pt" xmlns="http://www.w3.org/2000/svg"><path d="m154.71875 379.960938v122.039062h-139.414062v-272.304688c0-38.492187 31.210937-69.695312 69.707031-69.695312 38.5 0 69.707031 31.203125 69.707031 69.695312v66.96875" fill="#52607e"/><path d="m154.722656 347.601562c-.648437 0-1.3125-.0625-1.960937-.191406-.640625-.128906-1.269531-.320312-1.867188-.570312-.601562-.25-1.179687-.558594-1.730469-.917969-.542968-.371094-1.050781-.789063-1.511718-1.25-1.871094-1.859375-2.929688-4.441406-2.929688-7.070313 0-.648437.058594-1.3125.1875-1.949218.132813-.640625.320313-1.269532.570313-1.871094.25-.609375.5625-1.1875.921875-1.730469.371094-.546875.78125-1.058593 1.25-1.519531.460937-.460938.96875-.878906 1.507812-1.238281.554688-.359375 1.132813-.671875 1.730469-.921875.601563-.25 1.230469-.449219 1.871094-.570313 1.289062-.257812 2.621093-.257812 3.910156 0 .640625.121094 1.269531.320313 1.871094.570313.609375.25 1.1875.5625 1.726562.921875.550781.359375 1.0625.777343 1.523438 1.238281.460937.460938.878906.972656 1.238281 1.519531.359375.542969.667969 1.121094.917969 1.730469.25.601562.441406 1.230469.570312 1.871094.132813.640625.203125 1.300781.203125 1.949218 0 .648438-.070312 1.308594-.203125 1.949219-.128906.640625-.320312 1.269531-.570312 1.878907-.25.601562-.558594 1.179687-.917969 1.722656-.359375.550781-.777344 1.058594-1.238281 1.519531-.460938.460937-.972657.878906-1.523438 1.25-.539062.359375-1.117187.667969-1.726562.917969-.601563.25-1.230469.441406-1.871094.570312s-1.300781.191406-1.949219.191406zm0 0"/><path d="m160.023438 85c0-41.421875-33.582032-75-75.011719-75-41.425781 0-75.007813 33.578125-75.007813 75s33.582032 75 75.007813 75c41.429687 0 75.011719-33.578125 75.011719-75zm0 0" fill="#f05f90"/><path d="m124.296875 160.367188c27.152344-14.207032 45.726563-42.660157 45.726563-75.367188 0-46.867188-38.136719-85-85.011719-85s-85.011719 38.132812-85.011719 85c0 32.710938 18.574219 61.160156 45.730469 75.367188-24.121094 13.71875-40.425781 39.65625-40.425781 69.328124v272.304688c0 5.523438 4.476562 10 10 10h139.414062c5.523438 0 10-4.476562 10-10v-122.039062c0-5.523438-4.476562-10-10-10s-10 4.476562-10 10v112.039062h-119.414062v-262.304688c0-32.917968 26.785156-59.695312 59.707031-59.695312 32.925781 0 59.707031 26.777344 59.707031 59.695312v66.96875c0 5.523438 4.480469 10 10 10 5.523438 0 10-4.476562 10-10v-66.96875c0-29.671874-16.300781-55.609374-40.421875-69.328124zm-104.296875-75.367188c0-35.839844 29.164062-65 65.011719-65 35.847656 0 65.011719 29.160156 65.011719 65s-29.164063 65-65.011719 65c-35.847657 0-65.011719-29.160156-65.011719-65zm0 0"/><path d="m50.054688 95c-5.523438 0-10-4.476562-10-10 0-24.785156 20.167968-44.953125 44.957031-44.953125 5.523437 0 10 4.476563 10 10s-4.476563 10-10 10c-13.761719 0-24.957031 11.195313-24.957031 24.953125 0 5.523438-4.476563 10-10 10zm0 0"/><path d="m126.066406 433.652344c0-22.667969-18.378906-41.046875-41.054687-41.046875-22.671875 0-41.050781 18.378906-41.050781 41.046875 0 22.671875 18.378906 41.050781 41.050781 41.050781 22.675781 0 41.054687-18.378906 41.054687-41.050781zm0 0" fill="#ede6f5"/><path d="m85.011719 484.699219c-28.148438 0-51.054688-22.898438-51.054688-51.046875 0-28.144532 22.902344-51.046875 51.054688-51.046875 28.152343 0 51.054687 22.898437 51.054687 51.046875 0 28.148437-22.902344 51.046875-51.054687 51.046875zm0-82.09375c-17.121094 0-31.054688 13.925781-31.054688 31.046875s13.933594 31.046875 31.054688 31.046875c17.125 0 31.054687-13.925781 31.054687-31.046875s-13.929687-31.046875-31.054687-31.046875zm0 0"/><path d="m111.046875 337.492188c0-14.375-11.65625-26.03125-26.035156-26.03125-14.375 0-26.03125 11.65625-26.03125 26.03125s11.65625 26.03125 26.03125 26.03125c14.378906 0 26.035156-11.65625 26.035156-26.03125zm0 0" fill="#00d2d7"/><path d="m85.011719 373.523438c-19.867188 0-36.03125-16.164063-36.03125-36.03125 0-19.867188 16.164062-36.03125 36.03125-36.03125 19.871093 0 36.035156 16.164062 36.035156 36.03125 0 19.867187-16.164063 36.03125-36.035156 36.03125zm0-52.0625c-8.839844 0-16.03125 7.191406-16.03125 16.03125 0 8.839843 7.191406 16.03125 16.03125 16.03125 8.84375 0 16.035156-7.191407 16.035156-16.03125 0-8.839844-7.191406-16.03125-16.035156-16.03125zm0 0"/><path d="m111.046875 251.960938c0-14.375-11.65625-26.03125-26.035156-26.03125-14.375 0-26.03125 11.65625-26.03125 26.03125s11.65625 26.03125 26.03125 26.03125c14.378906 0 26.035156-11.65625 26.035156-26.03125zm0 0" fill="#ffe681"/><path d="m85.011719 287.992188c-19.867188 0-36.03125-16.164063-36.03125-36.03125 0-19.867188 16.164062-36.03125 36.03125-36.03125 19.871093 0 36.035156 16.164062 36.035156 36.03125 0 19.867187-16.164063 36.03125-36.035156 36.03125zm0-52.0625c-8.839844 0-16.03125 7.191406-16.03125 16.03125 0 8.839843 7.191406 16.03125 16.03125 16.03125 8.84375 0 16.035156-7.191407 16.035156-16.03125 0-8.839844-7.191406-16.03125-16.035156-16.03125zm0 0"/><path d="m85.011719 457.300781c-5.523438 0-10-4.476562-10-10v-27.296875c0-5.523437 4.476562-10 10-10 5.523437 0 10 4.476563 10 10v27.296875c0 5.523438-4.476563 10-10 10zm0 0"/><path d="m98.664062 443.652344h-27.300781c-5.523437 0-10-4.476563-10-10 0-5.519532 4.476563-10 10-10h27.300781c5.523438 0 10 4.480468 10 10 0 5.523437-4.476562 10-10 10zm0 0"/></svg>