<?xml version="1.0" encoding="iso-8859-1"?>
<!-- Generator: Adobe Illustrator 19.0.0, SVG Export Plug-In . SVG Version: 6.00 Build 0)  -->
<svg version="1.1" id="Capa_1" xmlns="http://www.w3.org/2000/svg" x="0px" y="0px"
     viewBox="0 0 512 512" style="enable-background:new 0 0 512 512;" xml:space="preserve">
<g>
	<path style="fill:#5AB478;" d="M100.103,103.694h55.696v32.065l-75.151-16.032l6.244-9.083
		C89.883,106.293,94.824,103.694,100.103,103.694z"/>
  <path style="fill:#5AB478;" d="M284.911,211.43h71.29v41.043l-96.194-20.521L268,220.326
		C271.829,214.757,278.154,211.43,284.911,211.43z"/>
  <path style="fill:#5AB478;" d="M411.679,215.919h-63.493v36.554l85.672-18.277l-7.119-10.354
		C423.33,218.882,417.697,215.919,411.679,215.919z"/>
  <path style="fill:#5AB478;" d="M227.526,103.694H171.83v32.065l75.151-16.032l-6.244-9.083
		C237.747,106.293,232.806,103.694,227.526,103.694z"/>
</g>
  <path style="fill:#82C378;" d="M444.379,47.592h-24.048l-14.657-14.657c-6.013-6.013-14.169-9.391-22.673-9.391h-34.815l0,0
	c6.852,10.273-0.512,24.037-12.861,24.037h-111.39c-46.485,0-84.169,37.684-84.169,84.169l0,0c0,46.485,37.684,84.169,84.169,84.169
	h74.137c26.336,0,49.301,20.294,50.091,46.618c0.817,27.238-21.02,49.576-48.074,49.576c-61.981,0-112.226,50.245-112.226,112.226
	V504.5h8.016c13.282,0,24.048-10.767,24.048-24.048v-48.097c0-44.272,35.889-80.161,80.161-80.161h0.951
	c50.758,0,94.299-39.71,95.227-90.46c0.945-51.703-40.683-93.911-92.17-93.911H229.32c-16.747,0-31.702-12.244-33.292-28.915
	c-1.823-19.124,13.166-35.214,31.914-35.214h112.214l8.028,8.028h40.081V95.689c0-8.854,7.178-16.032,16.032-16.032h48.097
	c4.427,0,8.016-3.589,8.016-8.016v-8.016C460.412,54.77,453.234,47.592,444.379,47.592z"/>
  <path style="fill:#FF646F;" d="M371.904,257.045c-3.395-35.982-37.994-65.174-74.135-65.174h-71.737
	c-30.553,0-57.817-21.904-61.708-52.208c-4.36-33.961,19.836-63.363,51.843-67.514c0.784-8.096,1.423-16.203,1.772-24.333
	c-43.683,3.079-78.172,39.466-78.172,83.933l0,0c0,46.485,37.684,84.169,84.169,84.169h74.136c26.336,0,49.301,20.293,50.091,46.618
	c0.817,27.238-21.02,49.576-48.074,49.576c-61.98,0-112.226,50.245-112.226,112.226V504.5c13.282,0,25.387-10.767,25.387-24.048
	v-52.779c0-48.493,38.274-91.559,86.767-91.512C342.132,336.203,375.955,299.97,371.904,257.045z"/>
  <path style="fill:#FF8087;" d="M220.642,22.154c-10.823-9.47-25.38-13.707-39.557-11.285C68.034,30.185,11.508,79.645,11.508,79.645
	l72.813-15.03c47.596,24.549,183.703-1.002,183.703-1.002l0,0L220.642,22.154z"/>
  <path d="M395.846,55.597c0-4.142-3.358-7.5-7.5-7.5h-0.08c-4.142,0-7.46,3.358-7.46,7.5s3.398,7.5,7.54,7.5
	S395.846,59.739,395.846,55.597z"/>
  <path d="M505.559,258.487c-7.027-6.44-15.944-9.987-25.107-9.987c-6.602,0-13.075,1.843-18.807,5.281L430.9,216.887
	c-4.484-5.381-11.073-8.467-18.078-8.467h-23.455c-17.495-28.81-49.172-48.097-85.271-48.097h-76.153
	c-13.545,0-24.564-11.02-24.564-24.564c0-0.035,0.003-0.07,0.003-0.106l38.543-8.479l7.585,9.102h-1.355c-4.142,0-7.5,3.357-7.5,7.5
	c0,4.142,3.358,7.5,7.5,7.5h24.048c1.876,0,3.684-0.703,5.067-1.971c3.009-2.758,8.05-6.046,14.973-6.046s11.964,3.288,14.974,6.046
	c1.439,1.319,3.255,1.971,5.065,1.971c2.029,0,4.052-0.819,5.531-2.434c2.799-3.054,2.592-7.798-0.462-10.596
	c-7.028-6.44-15.944-9.987-25.107-9.987c-8.181,0-16.165,2.827-22.784,8.017h-0.423l-20.901-25.081h90.201
	c7.763,5.214,16.892,8.017,26.453,8.017h63.559c4.705,0,8.532,3.827,8.532,8.532c0,4.142,3.358,7.5,7.5,7.5s7.5-3.358,7.5-7.5
	c0-12.976-10.557-23.532-23.532-23.532h-32.581V95.68c0-4.705,3.828-8.532,8.532-8.532h40.597v0.516c0,4.143,3.358,7.5,7.5,7.5
	s7.5-3.357,7.5-7.5v-0.516h0.516c4.142,0,7.5-3.358,7.5-7.5V63.613c0-12.976-10.557-23.532-23.532-23.532h-20.942l-12.46-12.46
	c-7.472-7.473-17.408-11.588-27.977-11.588h-35.547l-6.792-6.792C334.703,3.282,326.781,0,318.354,0h-30.119
	c-4.142,0-7.5,3.358-7.5,7.5s3.358,7.5,7.5,7.5h30.119c4.42,0,8.576,1.721,11.702,4.847l25.021,25.021
	c1.464,1.464,3.384,2.197,5.303,2.197s3.839-0.732,5.303-2.197c2.929-2.929,2.929-7.678,0-10.606l-3.229-3.229h20.547
	c6.562,0,12.73,2.555,17.37,7.195l14.657,14.657c1.406,1.406,3.314,2.197,5.303,2.197h24.048c4.705,0,8.532,3.828,8.532,8.532v8.533
	h-48.613c-12.976,0-23.532,10.556-23.532,23.532v8.532h-15.979c-8.703,0-16.884-3.39-23.038-9.543l-20.325-20.325
	c-2.929-2.929-7.678-2.929-10.606,0c-2.929,2.929-2.929,7.678,0,10.606l11.245,11.245h-94.12c-21.816,0-39.564,17.749-39.564,39.564
	c0,21.816,17.749,39.564,39.564,39.564h76.153c46.696,0,84.686,37.99,84.686,84.686s-37.99,84.686-84.686,84.686h-4.008
	c-48.337,0-87.662,39.325-87.662,87.661v48.097c0,9.125-7.423,16.548-16.548,16.548h-0.516v-72.661
	c0-57.746,46.98-104.726,104.726-104.726c30.656,0,55.597-24.941,55.597-55.597s-24.94-55.597-55.597-55.597
	c-4.142,0-7.5,3.358-7.5,7.5s3.358,7.5,7.5,7.5c12.984,0,24.554,6.134,31.991,15.648l-62.916-12.797l4.625-5.549
	c1.863-2.236,2.265-5.347,1.031-7.983c-1.234-2.635-3.882-4.319-6.792-4.319h-44.092c-42.276,0-76.669-34.394-76.669-76.669
	c0-17.386,5.965-34.331,16.795-47.866c33.216-1.447,61.35-7.469,63.479-7.934c4.047-0.884,6.611-4.881,5.727-8.928
	s-4.882-6.61-8.928-5.727c-0.23,0.05-23.304,5.042-51.885,7.048c-23.972,1.682-44.659,0.78-61.224-2.594l80.223-17.352
	c4.049-0.876,6.621-4.868,5.745-8.916c-0.876-4.049-4.868-6.619-8.916-5.745L48.601,63.949
	C75.906,48.6,120.55,28.821,182.349,18.261c11.941-2.04,24.098,1.437,33.354,9.536l47.382,41.459
	c3.117,2.728,7.855,2.412,10.583-0.705c2.728-3.117,2.412-7.855-0.706-10.583l-3.301-2.888h58.652c4.142,0,7.5-3.358,7.5-7.5
	s-3.358-7.5-7.5-7.5H252.52l-26.939-23.571C212.91,5.423,196.231,0.673,179.823,3.476C65.996,22.925,8.943,71.925,6.57,74.001
	c-2.573,2.252-3.298,5.959-1.762,9.014c1.292,2.57,3.91,4.131,6.699,4.131c0.525,0,1.058-0.056,1.587-0.17l69.265-14.981
	c17.741,8.688,40.76,11.809,63.248,12.167c-2.343,3.86-4.395,7.882-6.14,12.032H99.686c-7.005,0-13.594,3.086-18.078,8.468
	l-26.345,31.613H54.84c-6.619-5.189-14.603-8.017-22.785-8.017c-9.163,0-18.08,3.547-25.107,9.987
	c-3.054,2.798-3.26,7.542-0.462,10.596c1.479,1.614,3.502,2.433,5.531,2.433c1.81,0,3.625-0.651,5.065-1.971
	c3.009-2.758,8.05-6.046,14.973-6.046s11.964,3.288,14.973,6.046c1.383,1.268,3.191,1.971,5.067,1.971h24.048
	c4.142,0,7.5-3.358,7.5-7.5c0-4.143-3.358-7.5-7.5-7.5h-1.356l7.58-9.096l50.137,11.159c3.388,47.483,43.099,85.082,91.431,85.082
	h28.078l-25.303,30.362c-5.732-3.438-12.205-5.281-18.807-5.281c-9.163,0-18.08,3.547-25.107,9.986
	c-3.054,2.799-3.261,7.543-0.462,10.597c1.479,1.614,3.501,2.433,5.531,2.433c1.81,0,3.625-0.651,5.065-1.97
	c3.01-2.758,8.051-6.046,14.974-6.046s11.963,3.288,14.973,6.045c1.383,1.268,3.191,1.971,5.067,1.971h24.048
	c4.142,0,7.5-3.358,7.5-7.5s-3.358-7.5-7.5-7.5h-8.035l14.299-17.157l81.625,16.602c0.526,2.604,0.805,5.298,0.805,8.055
	c0,22.385-18.212,40.597-40.597,40.597c-66.017,0-119.726,53.708-119.726,119.726V504.5c0,4.142,3.358,7.5,7.5,7.5h8.016
	c17.396,0,31.548-14.153,31.548-31.548v-48.097c0-40.065,32.596-72.661,72.662-72.661h4.008c54.967,0,99.686-44.719,99.686-99.686
	c0-3.904-0.233-7.754-0.672-11.542l27.239-8.808l14.049,16.858h-8.036c-4.142,0-7.5,3.358-7.5,7.5s3.358,7.5,7.5,7.5h24.048
	c1.876,0,3.684-0.703,5.067-1.97c3.01-2.758,8.051-6.046,14.974-6.046s11.963,3.288,14.973,6.045c1.44,1.32,3.255,1.971,5.065,1.971
	c2.029,0,4.052-0.819,5.531-2.433C508.82,266.029,508.613,261.285,505.559,258.487z M227.944,111.193h0.665l2.5,3l-20.903,4.599
	C214.68,114.115,220.975,111.193,227.944,111.193z M99.686,111.193h34.938c-0.896,3.885-1.541,7.833-1.924,11.821l-39.525-8.797
	C94.799,112.296,97.167,111.193,99.686,111.193z M400.234,233.631c-0.957-3.482-2.092-6.892-3.406-10.211h15.995
	c2.54,0,4.929,1.119,6.554,3.07l0.625,0.75L400.234,233.631z"/>
  <g>
</g>
  <g>
</g>
  <g>
</g>
  <g>
</g>
  <g>
</g>
  <g>
</g>
  <g>
</g>
  <g>
</g>
  <g>
</g>
  <g>
</g>
  <g>
</g>
  <g>
</g>
  <g>
</g>
  <g>
</g>
  <g>
</g>
</svg>
