<svg id="Capa_1" enable-background="new 0 0 512 512" height="512" viewBox="0 0 512 512" width="512" xmlns="http://www.w3.org/2000/svg"><g><g><path d="m343.259 287.877v42.888c0 6.22 7.442 9.42 11.957 5.143l29.32-27.78c5.354-5.354 8.362-12.615 8.362-20.187v-101.333l47.88 88.117c8.494 15.632 10.857 33.869 6.626 51.15l-26.581 108.586v67.539h-100.342v-73.475c0-6.737-1.57-13.319-4.515-19.254-11.357-22.887-23.07-47.381-23.07-73.454v-47.941c0-13.907 11.274-25.182 25.182-25.182 13.662.044 25.181 11.452 25.181 25.183z" fill="#ffdad5"/></g><g><path d="m168.741 287.877v42.888c0 6.22-7.442 9.42-11.957 5.143l-29.32-27.78c-5.354-5.354-8.362-12.615-8.362-20.187v-101.333l-47.88 88.117c-8.494 15.632-10.857 33.869-6.626 51.15l26.581 108.586v67.539h100.342v-73.475c0-6.737 1.57-13.319 4.515-19.254 11.357-22.887 23.07-47.381 23.07-73.454v-47.941c0-13.907-11.274-25.182-25.182-25.182-13.662.044-25.181 11.452-25.181 25.183z" fill="#ffdad5"/></g><g><path d="m153.398 10c-18.94 0-34.29 15.35-34.29 34.29v244.12c.12 7.4 3.11 14.47 8.36 19.72l29.32 27.78c4.51 4.28 11.95 1.08 11.95-5.14v-42.89c0-13.612 11.536-25.18 25.18-25.18 13.91 0 25.19 11.27 25.19 25.18v47.94c0 26.066-11.714 50.57-23.07 73.45-2.95 5.94-4.52 12.52-4.52 19.26v16.816h128.96v-16.816c0-6.74-1.57-13.32-4.51-19.26-11.358-22.885-23.07-47.378-23.07-73.45v-47.94c0-13.91 11.27-25.18 25.18-25.18 13.618 0 25.18 11.531 25.18 25.18v42.89c0 6.22 7.44 9.42 11.96 5.14l29.32-27.78c5.35-5.36 8.36-12.62 8.36-20.19v-243.65c0-18.94-15.35-34.29-34.29-34.29z" fill="#ff7e96"/></g><g><path d="m164.251 54.467h183.5v159.242h-183.5z" fill="#a0c8ff"/></g><g><path d="m449.564 269.951-46.667-85.883v-139.778c0-24.421-19.868-44.29-44.29-44.29h-57.864c-5.523 0-10 4.477-10 10s4.477 10 10 10h57.864c13.394 0 24.29 10.896 24.29 24.29v142.306.011 101.333c0 4.799-1.976 9.616-5.349 13.031l-24.29 23.014v-36.109c0-19.339-15.769-35.122-35.182-35.181-19.399 0-35.182 15.782-35.182 35.181v47.941c0 29.335 13.784 53.489 24.912 79.636 1.751 4.125 2.67 8.607 2.67 13.076v6.816h-108.957v-6.821c0-5.107 1.205-10.236 3.477-14.809 12.069-24.316 24.112-50.209 24.112-77.896v-47.94c0-19.165-16.072-35.184-35.216-35.184-18.781.058-34.168 14.877-35.105 33.391-.032.595-.048 1.193-.048 1.794v36.102l-24.284-23.008c-3.375-3.418-5.319-8.118-5.347-12.922v-243.762c0-13.394 10.896-24.29 24.29-24.29h59.406c5.523 0 10-4.477 10-10s-4.477-10-10-10h-59.406c-24.422 0-44.29 19.869-44.29 44.29v139.767l-46.672 85.894c-9.703 17.857-12.385 38.562-7.553 58.302l26.295 107.414v66.333c0 5.523 4.477 10 10 10h100.342c5.523 0 10-4.477 10-10v-46.654h108.962v46.654c0 5.523 4.477 10 10 10h100.342c5.523 0 10-4.477 10-10v-66.333l26.295-107.414c4.831-19.74 2.149-40.445-7.555-58.302zm-348.387 222.049v-57.539c0-.801-.096-1.6-.287-2.378l-26.581-108.586c-3.647-14.896-1.623-30.521 5.7-43.998l29.094-53.543v61.984c0 10.131 4.088 20.437 11.484 27.446l29.319 27.779c10.639 10.08 28.835 2.309 28.835-12.401v-42.888c0-.48.029-.954.075-1.425.772-7.475 7.496-13.753 15.102-13.753 8.26 0 15.186 6.9 15.186 15.177v47.941c0 24.408-11.414 47.618-22.028 69.008-3.626 7.305-5.558 15.546-5.558 23.704v16.816c0 .007.001.013.001.019v46.637zm336.514-168.503-26.582 108.586c-.19.778-.287 1.577-.287 2.378v57.539h-80.342v-63.475c0-7.342-1.561-14.691-4.507-21.419-10.091-23.088-23.076-45.33-23.076-71.286v-47.94c0-8.37 6.81-15.18 15.18-15.18 8.086 0 15.18 7.094 15.18 15.18v42.89c0 14.664 18.162 22.508 28.838 12.399l29.32-27.78c7.383-7.009 11.482-17.342 11.482-27.449v-61.982l29.093 53.542c7.323 13.476 9.348 29.101 5.701 43.997z"/><path d="m357.751 213.709v-159.242c0-5.523-4.477-10-10-10h-183.5c-5.523 0-10 4.477-10 10v159.242c0 5.523 4.477 10 10 10h183.5c5.523 0 10-4.477 10-10zm-20-10h-163.5v-139.242h163.5z"/><path d="m242.787 394.611c-5.523 0-10 4.477-10 10s4.477 10 10 10h26.426c5.523 0 10-4.477 10-10s-4.477-10-10-10z"/><path d="m249.19 13.82c2.067 5.042 8.043 7.496 13.06 5.41 5.034-2.093 7.492-8.008 5.41-13.05-2.078-5.031-8.03-7.504-13.06-5.41-5.018 2.089-7.507 8.017-5.41 13.05z"/></g></g></svg>