<svg height="512pt" viewBox="-20 0 512 512" width="512pt" xmlns="http://www.w3.org/2000/svg"><path d="m187.421875 392.402344 48.476563 41.371094 48.472656-41.371094c.117187-.101563.234375-.203125.355468-.300782l-12.074218-250.738281h-73.511719l-12.074219 250.738281c.121094.097657.238282.199219.355469.300782zm0 0" fill="#ede6f5"/><path d="m315.828125 502h145.964844l-128.40625-109.597656c-14.117188-12.050782-34.898438-12.050782-49.015625 0l-48.472656 41.371094" fill="#52607e"/><path d="m235.898438 194.800781c-.652344 0-1.3125-.0625-1.953126-.191406-.636718-.128906-1.269531-.320313-1.878906-.570313-.601562-.25-1.179687-.558593-1.71875-.917968-.550781-.371094-1.0625-.789063-1.519531-1.25-.460937-.460938-.882813-.972656-1.25-1.519532-.359375-.542968-.660156-1.121093-.910156-1.722656-.25-.609375-.449219-1.238281-.582031-1.867187-.128907-.652344-.1875-1.3125-.1875-1.960938 0-.652343.058593-1.3125.1875-1.949219.132812-.640624.332031-1.273437.582031-1.871093.25-.609375.550781-1.191407.910156-1.730469.367187-.550781.789063-1.0625 1.25-1.519531.457031-.460938.96875-.878907 1.519531-1.238281.539063-.359376 1.117188-.671876 1.71875-.921876.609375-.25 1.242188-.4375 1.878906-.570312 1.28125-.257812 2.613282-.257812 3.902344 0 .640625.132812 1.269532.320312 1.867188.570312.609375.25 1.191406.5625 1.730468.921876.550782.359374 1.0625.777343 1.519532 1.238281.460937.460937.882812.96875 1.242187 1.519531.359375.539062.667969 1.121094.917969 1.730469.25.601562.441406 1.230469.570312 1.871093.128907.640626.199219 1.296876.199219 1.949219 0 .648438-.070312 1.308594-.199219 1.960938-.128906.628906-.320312 1.257812-.570312 1.867187-.25.601563-.558594 1.179688-.917969 1.722656-.359375.546876-.78125 1.058594-1.242187 1.519532-.457032.460937-.96875.878906-1.519532 1.25-.539062.359375-1.121093.667968-1.730468.917968-.597656.25-1.226563.441407-1.867188.570313s-1.300781.191406-1.949218.191406zm0 0"/><path d="m285.230469 103.933594h-98.667969c-9.984375 0-18.078125 8.09375-18.078125 18.078125v1.273437c0 9.984375 8.09375 18.078125 18.078125 18.078125h98.667969c9.984375 0 18.078125-8.09375 18.078125-18.078125v-1.273437c0-9.984375-8.09375-18.078125-18.078125-18.078125zm0 0" fill="#52607e"/><path d="m266.128906 10h-60.464844c-9.984374 0-18.078124 8.09375-18.078124 18.078125v1.277344c0 9.984375 8.09375 18.078125 18.078124 18.078125h60.464844c9.984375 0 18.078125-8.09375 18.078125-18.078125v-1.277344c0-9.984375-8.09375-18.078125-18.078125-18.078125zm0 0" fill="#f05f90"/><path d="m202.867188 47.433594h66.0625v56.5h-66.0625zm0 0" fill="#ffe681"/><path d="m388.59375 132.648438h-17.796875c-5.523437 0-10-4.476563-10-10 0-5.523438 4.476563-10 10-10h17.796875c5.523438 0 10 4.476562 10 10 0 5.523437-4.476562 10-10 10zm0 0"/><path d="m341.933594 62.96875c-2.5625 0-5.117188-.980469-7.070313-2.929688-3.90625-3.90625-3.90625-10.238281 0-14.144531l12.582031-12.585937c3.90625-3.902344 10.238282-3.902344 14.144532 0 3.90625 3.90625 3.90625 10.238281 0 14.144531l-12.585938 12.585937c-1.953125 1.949219-4.511718 2.929688-7.070312 2.929688zm0 0"/><path d="m354.519531 214.914062c-2.5625 0-5.121093-.976562-7.074219-2.929687l-12.582031-12.582031c-3.90625-3.90625-3.90625-10.238282 0-14.144532 3.90625-3.902343 10.234375-3.902343 14.140625 0l12.585938 12.585938c3.90625 3.902344 3.90625 10.234375 0 14.140625-1.953125 1.953125-4.511719 2.929687-7.070313 2.929687zm0 0"/><path d="m100.996094 132.648438h-17.796875c-5.519531 0-10-4.476563-10-10 0-5.523438 4.480469-10 10-10h17.796875c5.523437 0 10 4.476562 10 10 0 5.523437-4.476563 10-10 10zm0 0"/><path d="m117.277344 214.914062c-2.5625 0-5.121094-.976562-7.074219-2.929687-3.902344-3.902344-3.902344-10.234375 0-14.140625l12.585937-12.585938c3.90625-3.902343 10.238282-3.902343 14.144532 0 3.902344 3.90625 3.902344 10.238282 0 14.144532l-12.585938 12.582031c-1.953125 1.953125-4.511718 2.929687-7.070312 2.929687zm0 0"/><path d="m129.859375 62.96875c-2.558594 0-5.117187-.980469-7.070313-2.929688l-12.585937-12.585937c-3.902344-3.90625-3.902344-10.238281 0-14.144531 3.90625-3.902344 10.238281-3.902344 14.144531 0l12.585938 12.585937c3.902344 3.90625 3.902344 10.238281 0 14.144531-1.953125 1.949219-4.515625 2.929688-7.074219 2.929688zm0 0"/><path d="m259.273438 453.730469-71.851563-61.328125c-14.117187-12.050782-34.894531-12.050782-49.011719 0l-128.410156 109.597656h305.828125" fill="#7ccafd"/><path d="m468.285156 494.394531-128.410156-109.597656c-13.042969-11.132813-30.359375-14.183594-45.742188-9.148437l-10.929687-224.285157h2.027344c15.480469 0 28.078125-12.59375 28.078125-28.078125v-1.273437c0-15.480469-12.597656-28.078125-28.078125-28.078125h-6.300781v-39.589844c9.0625-4.664062 15.277343-14.113281 15.277343-24.988281v-1.273438c0-15.484375-12.59375-28.082031-28.078125-28.082031h-60.464844c-15.480468 0-28.078124 12.597656-28.078124 28.078125v1.273437c0 10.875 6.214843 20.328126 15.277343 24.988282v39.59375h-6.300781c-15.480469 0-28.078125 12.59375-28.078125 28.078125v1.273437c0 15.480469 12.597656 28.078125 28.078125 28.078125h2.035156l-10.800781 224.328125c-15.417969-5.09375-32.800781-2.0625-45.882813 9.105469l-128.40625 109.597656c-3.183593 2.71875-4.339843 7.136719-2.890624 11.066407 1.449218 3.929687 5.195312 6.539062 9.382812 6.539062h451.792969c4.1875 0 7.933593-2.609375 9.382812-6.539062 1.449219-3.933594.292969-8.347657-2.890625-11.066407zm-255.417968-436.960937h46.0625v36.5h-46.0625zm-15.28125-29.355469c0-4.453125 3.625-8.078125 8.078124-8.078125h60.464844c4.453125 0 8.078125 3.625 8.078125 8.078125v1.273437c0 4.457032-3.625 8.082032-8.078125 8.082032h-60.464844c-4.453124 0-8.078124-3.625-8.078124-8.082032zm-19.101563 95.207031v-1.273437c0-4.453125 3.625-8.078125 8.082031-8.078125h98.664063c4.453125 0 8.078125 3.621094 8.078125 8.078125v1.273437c0 4.453125-3.625 8.078125-8.078125 8.078125h-98.664063c-4.457031 0-8.082031-3.625-8.082031-8.078125zm84.695313 28.078125 11.507812 236.15625-28.789062 24.574219v-196.738281c0-5.519531-4.480469-10-10-10-5.523438 0-10 4.480469-10 10v196.738281l-28.652344-24.457031 11.375-236.273438zm-226.058594 340.636719 107.78125-91.992188c10.4375-8.910156 25.589844-8.910156 36.027344 0l71.851562 61.328126c4.203125 3.585937 10.515625 3.085937 14.101562-1.113282 3.585938-4.203125 3.085938-10.515625-1.113281-14.101562l-14.46875-12.347656 39.5625-33.765626c10.441407-8.910156 25.59375-8.910156 36.03125 0l107.777344 91.992188zm0 0"/></svg>