<svg id="Capa_1" enable-background="new 0 0 512 512" height="512" viewBox="0 0 512 512" width="512" xmlns="http://www.w3.org/2000/svg"><g><g><path d="m60.784 210.081 75.889 179.984c5.784 14.307 19.671 23.673 35.103 23.673h86.5c13.831 0 26.562-7.542 33.207-19.672l33.066-60.362c13.617-24.857-4.99-56.054-33.207-56.054h-124.514c-13.121 0-24.951-7.899-29.98-20.018l-17.666-47.55h-58.398z" fill="#fff"/></g><g><path d="m60.784 210.081 75.889 179.984c5.784 14.307 19.671 23.673 35.103 23.673h86.5c13.831 0 26.562-7.542 33.207-19.672l33.066-60.362c13.617-24.857-4.99-56.054-33.207-56.054h-124.514c-13.121 0-24.951-7.899-29.98-20.018l-17.666-47.55h-58.398z" fill="#838eb1"/></g><g><path d="m10 98.264 50.784 111.817h58.397l-40.329-111.817z" fill="#e0a083"/></g><g><circle cx="431.672" cy="292.15" fill="#fff" r="60.527"/></g><g><path d="m492.199 352.672s-26.133 22.573-41.203 61.069h-39.221c-14.431-38.496-40.627-61.069-40.627-61.069z" fill="#838eb1"/></g><g><path d="m264.312 324.748c0-5.522-4.477-10-10-10h-77.806c-5.523 0-10 4.478-10 10s4.477 10 10 10h77.806c5.523 0 10-4.478 10-10z"/><path d="m202.304 357.494c-5.523 0-10 4.478-10 10s4.477 10 10 10h26.209c5.523 0 10-4.478 10-10s-4.477-10-10-10z"/><path d="m502 403.737h-35.542c13.909-27.29 32.082-43.326 32.292-43.509v-.001c3.15-2.731 4.276-7.133 2.821-11.042-1.457-3.916-5.194-6.513-9.372-6.513h-11.389c13.179-12.822 21.389-30.727 21.389-50.522 0-38.89-31.639-70.528-70.528-70.528s-70.527 31.639-70.527 70.528c0 19.796 8.209 37.701 21.389 50.522h-11.385c-4.18 0-7.919 2.6-9.375 6.519-1.455 3.918-.32 8.328 2.847 11.057.21.181 18.372 16.052 31.923 43.489h-99.371c1.111-1.552 2.151-3.167 3.082-4.867l33.066-60.362c17.199-31.398-6.311-70.858-41.978-70.858h-124.514c-9.081 0-17.2-5.402-20.71-13.77l-57.832-158.935c-1.408-4.003-5.19-6.682-9.434-6.682h-68.852c-3.413 0-6.589 1.74-8.427 4.616-1.837 2.875-2.082 6.489-.647 9.586l76.186 170.482c2.122 5.1 7.974 7.512 13.075 5.391 5.099-2.121 7.513-7.975 5.391-13.074l-18.8-45.184h34.587l16.175 41.205c.023.06.048.119.072.179 6.601 15.906 21.995 26.185 39.217 26.185h124.515c20.757 0 34.454 22.962 24.437 41.25l-33.066 60.361c-4.892 8.93-14.255 14.477-24.437 14.477h-86.5c-11.415 0-21.554-6.838-25.832-17.42-.013-.032-.026-.063-.039-.095l-15.754-37.862c-2.122-5.099-7.975-7.513-13.074-5.391-5.099 2.121-7.513 7.975-5.391 13.074l15.735 37.816c1.44 3.553 3.271 6.856 5.422 9.877h-48.599c-5.523 0-10 4.478-10 10s4.477 10 10 10h417.754c5.523 0 10-4.478 10-10s-4.477-9.999-10-9.999zm-433.827-203.656-42.522-91.817h46.117l32.295 91.817zm312.971 92.069c0-27.861 22.667-50.528 50.527-50.528 27.861 0 50.528 22.667 50.528 50.528 0 27.797-22.563 50.418-50.335 50.522h-.385c-27.772-.104-50.335-22.725-50.335-50.522zm12.85 70.522h75.311c-7.953 9.902-17.399 23.771-24.982 41.064h-25.777c-7.332-17.292-16.657-31.16-24.552-41.064z"/><path d="m419.89 290.453c-3.471-8.338-15.793-7.921-18.694.617-2.935 8.639 6.788 16.428 14.6 11.783 4.218-2.508 5.946-7.884 4.094-12.4z"/><path d="m432.74 279.102c9.066 0 13.384-11.674 6.53-17.568-6.777-5.827-17.578-.074-16.447 8.796.63 4.943 4.917 8.772 9.917 8.772z"/><path d="m95.2 315.932c4.989 7.279 16.612 4.91 18.163-3.844 1.625-9.172-9.681-15.347-16.559-9.123-3.651 3.304-4.283 8.875-1.604 12.967z"/></g></g></svg>