<svg id="Capa_1" enable-background="new 0 0 512.002 512.002" height="512" viewBox="0 0 512.002 512.002" width="512" xmlns="http://www.w3.org/2000/svg"><g><g><path d="m78.911 498.538h-68.911v-299.142c0 16.444 13.327 29.78 29.78 29.78 6.964 0 13.366-2.397 18.436-6.412z" fill="#e0a083"/></g><g><circle cx="39.777" cy="199.397" fill="#cef1d0" r="29.777"/></g><g><path d="m65.634 105.597c-27.117 17.282-48.325 44.152-54.746 83.678-.01.02-.01.049-.02.069-.493 2.19-.789 4.271-.868 6.234v-182.114s47.326 34.036 55.634 92.133z" fill="#a0e4a5"/></g><g><path d="m180.641 79.743-112.067 112.067c-3.38-13.211-16.438-23.067-30.155-22.155-15.743.7-28.3 13.632-28.409 29.514h-.01v-3.591c11.344-95.554 106.119-120.954 170.641-115.835z" fill="#a0e4a5"/></g><g><path d="m69.156 204.21c.266-1.568.395-3.176.395-4.814 0-2.624-.335-5.159-.977-7.586l46.855-46.855c3.906-.109 8.029-.069 12.37.148 60.625 2.979 101.118 59.106 101.118 59.106h-159.761z" fill="#a0e4a5"/></g><g><path d="m433.091 498.538h68.911v-299.142c0 16.444-13.327 29.78-29.78 29.78-6.964 0-13.366-2.397-18.436-6.412z" fill="#e0a083"/></g><g><circle cx="472.225" cy="199.397" fill="#cef1d0" r="29.777"/></g><g><path d="m446.368 105.597c27.117 17.282 48.325 44.152 54.746 83.678.01.02.01.049.02.069.493 2.19.789 4.271.868 6.234v-182.114s-47.326 34.036-55.634 92.133z" fill="#a0e4a5"/></g><g><path d="m331.361 79.743 112.067 112.067c3.38-13.211 16.438-23.067 30.155-22.155 15.743.7 28.3 13.632 28.409 29.514h.01v-3.591c-11.344-95.554-106.119-120.954-170.641-115.835z" fill="#a0e4a5"/></g><g><path d="m442.846 204.21c-.266-1.568-.395-3.176-.395-4.814 0-2.624.335-5.159.977-7.586l-46.855-46.855c-3.906-.109-8.029-.069-12.37.148-60.626 2.979-101.118 59.106-101.118 59.106h159.761z" fill="#a0e4a5"/></g><g><path d="m256.001 360.427c-49.571 0-99.142-3.142-148.413-9.427.016-1.014 39.603 107.477 148.413 108.731 108.81-1.254 148.395-109.744 148.413-108.731-49.271 6.285-98.842 9.427-148.413 9.427z" fill="#a0c8ff"/></g><g><path d="m512.002 13.464c0-3.752-2.1-7.187-5.438-8.899-3.34-1.711-7.355-1.409-10.4.781-1.909 1.373-43.436 31.78-56.886 84.674-30.981-15.907-70.445-23.283-108.707-20.246-3.889.309-7.243 2.851-8.592 6.511-1.35 3.66-.446 7.771 2.312 10.529l49.267 49.267c-58.923 8.213-96.907 59.958-98.581 62.278-2.196 3.045-2.502 7.063-.792 10.405 1.71 3.343 5.148 5.445 8.902 5.445h152.235c1.9 4.717 4.678 8.987 8.133 12.61l-8.232 109.694c-59.264 9.243-119.239 13.913-179.221 13.913s-119.957-4.67-179.221-13.913l-8.233-109.693c3.455-3.623 6.233-7.892 8.133-12.61h152.235c3.754 0 7.192-2.103 8.902-5.445s1.404-7.36-.792-10.405c-1.674-2.321-39.661-54.069-98.581-62.279l49.266-49.266c2.758-2.759 3.661-6.869 2.312-10.529s-4.703-6.202-8.592-6.511c-38.263-3.039-77.726 4.338-108.707 20.246-13.449-52.896-54.976-83.302-56.885-84.675-3.047-2.19-7.061-2.492-10.4-.781s-5.439 5.147-5.439 8.899v485.074c0 5.522 4.478 10 10 10h68.911c2.782 0 5.438-1.159 7.331-3.198 1.892-2.04 2.849-4.775 2.641-7.55l-10.567-140.809c7.469 1.135 14.945 2.219 22.435 3.211 10.795 23.374 43.646 81.885 108.949 102.338 5.271 1.651 10.882-1.283 12.532-6.554s-1.284-10.882-6.554-12.532c-49.105-15.379-77.699-55.729-91.092-80.341 43.617 4.868 87.525 7.348 131.414 7.348s87.798-2.478 131.415-7.348c-13.474 24.765-42.312 65.427-91.929 80.607-5.281 1.616-8.253 7.207-6.637 12.488 1.594 5.212 7.274 8.23 12.488 6.637 65.931-20.172 99.049-79.121 109.912-102.643 7.49-.992 14.967-2.077 22.436-3.211l-10.566 140.809c-.208 2.774.749 5.51 2.641 7.55 1.893 2.039 4.549 3.198 7.331 3.198h68.911c5.522 0 10-4.478 10-10zm-492.002 273.701h6.193c5.522 0 10-4.478 10-10s-4.478-10-10-10h-6.193v-33.265c8.81 5.063 19.469 6.549 29.331 4.105l7.142 95.172c-12.198-2.124-24.356-4.462-36.474-6.974v-39.038zm10.489-105.218c15.223-8.139 33.203 6.906 28.175 23.254-2.32 7.544-9.132 13.089-16.968 13.875-9.029.906-17.705-4.748-20.643-13.31-3.103-9.044 1-19.339 9.436-23.819zm89.146-27.05c2.518 0 5.084.064 7.673.194 35.126 1.726 63.399 23.5 79.324 39.118h-126.316l39.312-39.312zm37.375-65.665-85.796 85.795c-9.733-12.498-26.247-18.143-41.579-14.102 16.564-36.646 52.565-58.141 90.608-66.884 12.063-2.771 24.399-4.358 36.767-4.809zm-102.322 11.668c-13.711 9.67-25.649 21.839-34.688 35.995v-100.779c12.536 13.391 28.867 35.599 34.688 64.784zm13.445 387.638h-48.133v-60.837h12.871c5.522 0 10-4.478 10-10s-4.478-10-10-10h-12.871v-61.071c12.628 2.572 25.303 4.934 38.015 7.092zm404.093-269.364c-16.438 0-25.785-20.062-15.038-32.522 12.094-14.021 35.59-4.828 34.791 13.699-.448 10.394-9.397 18.823-19.753 18.823zm19.776-182.986v100.707c-8.866-13.886-20.515-25.847-33.899-35.424-.264-.189-.522-.382-.787-.569 5.807-29.039 22.145-51.275 34.686-64.714zm-60.076 72.548c21.915 11.662 40.152 29.423 50.442 52.19-15.316-4.037-31.856 1.623-41.579 14.102l-85.796-85.795c27.792 1.013 54.944 7.802 76.933 19.503zm-126.614 85.474c15.876-15.615 44.108-37.386 79.392-39.119 2.582-.129 5.146-.193 7.663-.193h.007l39.312 39.312zm157.359 43.796c9.863 2.443 20.52.958 29.331-4.105v33.265h-6.193c-5.522 0-10 4.478-10 10s4.478 10 10 10h6.193v39.038c-12.118 2.512-24.275 4.85-36.474 6.974zm-18.802 250.532 10.117-134.817c12.713-2.158 25.387-4.52 38.015-7.092v61.071h-12.871c-5.522 0-10 4.478-10 10s4.478 10 10 10h12.871v60.837h-48.132z"/><path d="m265.23 455.911c-3.393-8.284-15.631-7.959-18.646.455-3.056 8.53 6.45 16.509 14.341 12.055 4.332-2.444 6.222-7.914 4.305-12.51z"/></g></g></svg>