<?xml version="1.0" encoding="iso-8859-1"?>
<!-- Generator: Adobe Illustrator 19.0.0, SVG Export Plug-In . SVG Version: 6.00 Build 0)  -->
<svg version="1.1" id="Capa_1" xmlns="http://www.w3.org/2000/svg" xmlns:xlink="http://www.w3.org/1999/xlink" x="0px" y="0px"
	 viewBox="0 0 512 512" style="enable-background:new 0 0 512 512;" xml:space="preserve">
<g>
	<path style="fill:#FFD164;" d="M364.221,111.71h-16.032v24.048h64.129V63.613C412.319,90.176,390.785,111.71,364.221,111.71z"/>
	<path style="fill:#FFD164;" d="M276.044,55.597h-32.065c-88.543,0-160.323,71.779-160.323,160.323h192.388V95.677
		c0-4.427,3.589-8.016,8.016-8.016h32.065c4.427,0,8.016-3.589,8.016-8.016V7.5C324.141,34.063,302.608,55.597,276.044,55.597z"/>
</g>
<path style="fill:#FFE17D;" d="M272.036,272.032h-70.25c-23.027,0-43.591-16.835-45.777-39.758
	c-2.508-26.296,18.103-48.419,43.881-48.419h100.202v16.032h56.113v-16.032c0-8.854,7.178-16.032,16.032-16.032h56.113V151.79
	c0-8.854-7.178-16.032-16.032-16.032H394.91c-4.252,0-8.33-1.689-11.337-4.696l-12.309-12.309c-4.51-4.51-10.627-7.044-17.005-7.044
	H190.81c-56.112,0-104.395,43.122-107.035,99.172c-2.818,59.844,44.867,109.248,104.09,109.248h81.984
	c28.53,0,53.41,21.985,54.266,50.502c0.886,29.508-22.771,53.708-52.081,53.708h-92.185c-30.99,0-56.113,25.123-56.113,56.113V504.5
	h8.016c13.12,0,24.278-10.506,24.052-23.624c-0.232-13.476,10.622-24.472,24.045-24.472h89.128c50.758,0,94.299-39.71,95.227-90.46
	C365.151,314.241,323.523,272.032,272.036,272.032z"/>
<g>
	<path style="fill:#FFD164;" d="M269.85,296.081h-79.091c-22.599,0-44.047-8.294-58.844-22.755
		c-16.65-16.27-25.215-38.044-24.118-61.313c2.014-42.76,38.477-76.255,83.013-76.255h93.249c8.84,0,16.032-7.192,16.032-16.032
		c0-2.933-0.849-5.649-2.23-8.016H190.81c-56.112,0-104.395,43.121-107.034,99.172c-2.818,59.844,44.867,109.248,104.09,109.248
		h81.984c28.53,0,53.409,21.985,54.265,50.502c0.886,29.508-22.771,53.708-52.08,53.708H179.85
		c-30.99,0-56.113,25.122-56.113,56.113V504.5h8.016c6.104,0,12.778-2.34,17.083-6.094V481.19c0-8.565,2.284-16.617,8.34-22.673
		s15.16-9.391,23.725-9.391h88.767c20.658,0,39.751-7.195,53.762-20.062c16.617-15.26,25.398-36.674,24.723-59.153
		C346.932,329.2,311.806,296.081,269.85,296.081z"/>
	<path style="fill:#FFD164;" d="M276.044,183.855h-76.153c-24.35,0-44.089,19.739-44.089,44.089
		c0,24.349,19.739,44.089,44.089,44.089h8.016c-11.068,0-20.04-8.973-20.04-20.04c0-11.068,8.972-20.04,20.04-20.04h34.298
		c4.401,4.886,10.713,8.016,17.807,8.016h16.032v-16.032c0-4.427,3.589-8.016,8.016-8.016h32.065c4.427,0,8.016-3.589,8.016-8.016
		V135.76C324.141,162.321,302.608,183.855,276.044,183.855z"/>
</g>
<path d="M356.286,136.274h-0.08c-4.142,0-7.46,3.357-7.46,7.5c0,4.142,3.398,7.5,7.54,7.5s7.5-3.358,7.5-7.5
	C363.786,139.632,360.428,136.274,356.286,136.274z"/>
<path d="M419.818,129.491V63.613c0-4.142-3.358-7.5-7.5-7.5s-7.5,3.358-7.5,7.5c0,22.385-18.211,40.597-40.597,40.597h-88.693
	v-0.517c0-4.705,3.828-8.532,8.532-8.532h32.064c8.556,0,15.516-6.96,15.516-15.516V7.5c0-4.142-3.358-7.5-7.5-7.5
	s-7.5,3.358-7.5,7.5c0,21.419-16.677,39.006-37.728,40.484c2.935-4.79,4.631-10.418,4.631-16.436c0-4.142-3.358-7.5-7.5-7.5
	s-7.5,3.358-7.5,7.5c0,9.125-7.423,16.548-16.548,16.548h-8.017c-91.575,0-166.242,73.73-167.786,164.944
	c-0.008,0.326-0.037,2.244-0.037,2.878l0,0c0,61.597,50.113,111.709,111.709,111.709h84.169c24.595,0,44.605,20.01,44.605,44.605
	s-20.01,44.605-44.605,44.605h-92.186c-35.076,0-63.613,28.536-63.613,63.613v24.05c0,4.142,3.358,7.5,7.5,7.5h8.016
	c17.396,0,31.548-14.153,31.548-31.548c0-9.125,7.423-16.548,16.548-16.548h92.186c54.967,0,99.686-44.719,99.686-99.686
	s-44.719-99.686-99.686-99.686h-64.129c-6.915,0-12.541-5.625-12.541-12.54s5.625-12.541,12.541-12.541h31.122
	c5.58,4.981,12.932,8.016,20.983,8.016h48.097c0.285,0,0.516,0.231,0.516,0.516c0,4.142,3.358,7.5,7.5,7.5s7.5-3.358,7.5-7.5
	c0-8.556-6.96-15.516-15.516-15.516H283.54v-8.532c0-0.285,0.231-0.516,0.516-0.516h32.064c8.556,0,15.516-6.96,15.516-15.516
	v-0.517h70.044c1.674,0,2.545,1.034,2.916,1.65c0.103,0.171,0.154,0.643,0.127,1.286c-0.155,3.796,2.609,7.095,6.342,7.803
	c4.603,0.874,9.016-2.574,9.038-7.26c0.016-3.386-0.918-6.766-2.792-9.786c-3.426-5.521-9.638-8.692-16.136-8.692H363.7v-8.532
	c0-4.704,3.828-8.532,8.532-8.532h40.597v0.517c0,4.142,3.358,7.5,7.5,7.5s7.5-3.358,7.5-7.5v-0.517h0.516
	c4.142,0,7.5-3.357,7.5-7.5V151.79C435.85,141.437,429.126,132.63,419.818,129.491z M404.818,101.561v26.697h-6.587
	c-4.42,0-8.576-1.721-11.702-4.847l-6.508-6.507C389.62,114.053,398.148,108.691,404.818,101.561z M91.528,224.34l56.846,6.316
	c0.752,14.44,7.477,27.317,17.736,36.228l-21.308,35.609C115.412,287.814,94.498,258.607,91.528,224.34z M91.393,209.232
	c2.391-34.83,23.302-64.646,52.936-79.651l27.541,55.082c-10.876,7.066-18.932,18.108-22.092,31.058L91.393,209.232z
	 M196.399,448.903h-16.548c-17.396,0-31.548,14.153-31.548,31.548c0,9.125-7.423,16.548-16.548,16.548h-0.516v-16.548
	c0-26.805,21.808-48.613,48.613-48.613H196.4L196.399,448.903L196.399,448.903z M252.512,448.903h-41.113v-17.064h41.113V448.903z
	 M272.036,448.903h-4.524v-17.064h4.524c12.837,0,24.729-4.093,34.468-11.023l13.29,13.29
	C306.189,443.433,289.742,448.903,272.036,448.903z M331.421,424.519l-13.865-13.865c8.074-9.551,13.204-21.662,13.975-34.928
	h24.388C353.328,394.702,344.441,411.694,331.421,424.519z M356.633,360.726h-26.117c-2.201-11.203-7.552-21.284-15.088-29.293
	l21.523-21.523C348.581,323.788,355.846,341.433,356.633,360.726z M259.496,279.532h12.541c20.653,0,39.595,7.441,54.308,19.771
	l-22.537,22.537c-9.204-5.824-20.096-9.211-31.771-9.211h-12.541V279.532z M199.891,279.532h44.604v33.097h-56.629
	c-10.096,0-19.835-1.558-28.991-4.441l19.87-33.207C185.204,277.896,192.358,279.532,199.891,279.532z M316.641,207.903
	c0,0.284-0.231,0.516-0.516,0.516h-32.064c-8.556,0-15.516,6.96-15.516,15.516v8.532h-8.533c-9.125,0-16.548-7.424-16.548-16.548
	c0-4.142-3.358-7.5-7.5-7.5s-7.5,3.358-7.5,7.5c0,2.957,0.418,5.816,1.182,8.532h-21.738c-15.186,0-27.541,12.354-27.541,27.541
	c0,2.605,0.372,5.124,1.051,7.515c-10.827-6.362-18.115-18.124-18.115-31.563c0-20.175,16.414-36.589,36.589-36.589h60.637v0.517
	c0,4.142,3.358,7.5,7.5,7.5s7.5-3.358,7.5-7.5v-0.517h0.516c16,0,30.444-6.794,40.597-17.648v34.196H316.641z M420.85,160.322
	h-48.613c-12.976,0-23.532,10.557-23.532,23.532v8.532h-17.064v-56.629c0-4.142-3.358-7.5-7.5-7.5s-7.5,3.358-7.5,7.5
	c0,21.42-16.677,39.006-37.728,40.484c2.935-4.79,4.631-10.418,4.631-16.436c0-4.143-3.358-7.5-7.5-7.5s-7.5,3.357-7.5,7.5
	c0,9.125-7.423,16.548-16.548,16.548h-52.105c-4.99,0-9.811,0.727-14.378,2.054l-27.275-54.55
	c9.342-3.014,19.298-4.648,29.629-4.648h32.064c4.142,0,7.5-3.358,7.5-7.5c0-4.143-3.358-7.5-7.5-7.5h-32.064
	c-15.116,0-29.538,3.024-42.7,8.489l-0.125,0.051c-9.364,3.901-18.088,9.038-25.964,15.211
	c27.693-39.209,73.356-64.865,124.902-64.865h16.549v0.516c0,4.142,3.358,7.5,7.5,7.5s7.5-3.358,7.5-7.5v-0.516h0.516
	c16,0,30.444-6.795,40.597-17.649v34.197c0,0.285-0.231,0.516-0.516,0.516h-32.064c-12.976,0-23.532,10.557-23.532,23.532v0.517H252
	c-4.142,0-7.5,3.357-7.5,7.5c0,4.142,3.358,7.5,7.5,7.5h102.262c4.42,0,8.576,1.721,11.702,4.847l9.961,9.961
	c5.958,5.959,13.881,9.24,22.308,9.24h14.087c4.705,0,8.532,3.828,8.532,8.532v8.534H420.85z"/>
<g>
</g>
<g>
</g>
<g>
</g>
<g>
</g>
<g>
</g>
<g>
</g>
<g>
</g>
<g>
</g>
<g>
</g>
<g>
</g>
<g>
</g>
<g>
</g>
<g>
</g>
<g>
</g>
<g>
</g>
</svg>
