<svg id="Capa_1" enable-background="new 0 0 511.974 511.974" height="512" viewBox="0 0 511.974 511.974" width="512" xmlns="http://www.w3.org/2000/svg"><g><g><path d="m501.974 183.643c-.031 39.01-1.852 75.634-12.857 106.034-15.273 42.159-43.717 94.778-89.862 132.25-.188-.262-.387-.523-.596-.774-6.758-8.327-18.778-10.273-27.701-4.321-63.096 42.147-145.363 41.696-209.297 1.799-9.269-5.785-21.424-3.504-27.921 5.283l-.01.01c-.157.22-.314.429-.46.649-63.709-47.096-104.486-119.09-119.801-156.29-2.354-5.701-3.494-11.685-3.494-17.627 0-12.072 4.728-23.946 13.61-32.827 18.129-18.129 47.515-18.129 65.644 0l20.253 21.09c21.173 22.063 58.06 15.001 69.588-13.327 21.016-51.668 26.394-105.689 28.59-161.134 0-24.176 22.858-43.184 45.674-43.184 22.094 0 40.527 15.692 44.753 36.551 7.616-5.712 17.083-9.08 27.335-9.08 25.222 0 45.663 20.441 45.663 45.663 0 1.454-.073 2.877-.199 4.289 7.553-5.544 16.884-8.829 26.979-8.829 25.222 0 45.663 20.452 45.663 45.674 0 1.14-.052 2.27-.136 3.389 5.419-1.59 11.246-2.228 17.303-1.653 23.6 2.25 41.289 22.65 41.279 46.365z" fill="#e0a083"/></g><g><path d="m262.592 490.756c-42.927 0-84.3-12.342-123.269-36.731-10.286-6.437-12.806-20.343-5.591-30.099l.005-.007c6.497-8.786 18.652-11.071 27.923-5.287 63.934 39.892 146.19 40.356 209.295-1.796 8.922-5.96 20.943-4.014 27.707 4.315 7.762 9.558 5.646 23.739-4.59 30.582-38.758 25.911-82.882 39.023-131.48 39.023z" fill="#838eb1"/></g><g><path d="" style="fill:none;stroke:#000;stroke-width:20;stroke-linecap:round;stroke-linejoin:round;stroke-miterlimit:10"/></g><g><path d="m207.654 64.466v.14c-.63 16.04-1.54 31.95-3.02 47.73-17.26 4.37-82.95 25.25-125.57 97.79-17.68-9.89-40.45-7.33-55.48 7.7-4.39 4.4-7.77 9.53-10.06 15.05 1.41-3.92 48.25-130.1 194.13-168.41z" fill="#838eb1"/></g><g><path d="m333.303 342.715c-23.446 23.446-56.136 32.002-86.328 25.651-17.335-3.644-33.85-12.191-47.31-25.651-12.918-12.918-21.319-28.652-25.179-45.245-7.202-30.748 1.199-64.413 25.179-88.393 22.402-22.402 53.251-31.205 82.297-26.401 18.805 3.102 36.844 11.905 51.34 26.401 14.999 14.999 23.902 33.789 26.703 53.282 4.108 28.474-4.803 58.457-26.702 80.356z" fill="#fff"/></g><g><path d="m497.683 145.791c-9.349-10.585-22.148-17.143-36.042-18.467-2.924-.278-5.841-.329-8.741-.15-4.048-26.741-27.187-47.305-55.036-47.305-6.203 0-12.258 1.008-17.99 2.966-5.341-25.156-27.728-44.089-54.453-44.089-7.597 0-14.953 1.499-21.762 4.397-9.039-19.047-28.507-31.868-50.326-31.868-26.901 0-50.8 20.45-55.011 45.394-59.055 16.959-110.682 50.928-149.649 98.566-29.17 35.659-42.077 67.706-44.236 73.39-5.839 13.754-5.918 29.656-.216 43.466 18.298 44.447 59.514 110.822 116.661 155.606-1.366 4.666-1.643 9.639-.722 14.494 1.592 8.393 6.643 15.796 13.857 20.311 26.274 16.445 53.921 27.73 82.171 33.543 5.406 1.11 10.697-2.37 11.81-7.779 1.113-5.41-2.37-10.697-7.78-11.811-25.91-5.33-51.423-15.6-75.591-30.906-5.798-3.672-6.328-11.146-2.85-15.683 2.423-3.277 8.052-5.748 12.976-3.089 37.354 20.177 66.767 31.645 108.165 32.057 43.236.43 79.21-14.479 116.308-34.969 4.108-1.255 8.814.073 11.668 3.59 4.007 4.917 2.893 12.441-2.379 15.964-25.147 16.812-53.758 28.364-83.539 33.676-5.438.969-9.06 6.162-8.09 11.6.863 4.844 5.139 9.002 9.833 8.247 38.48-6.185 68.3-20.442 92.911-36.896 7.204-4.815 12.078-12.496 13.372-21.072.739-4.901.272-9.867-1.278-14.482 49.55-43.04 75.537-100.334 86.796-131.409 11.773-32.521 13.424-71.814 13.454-109.432v-.004c.006-13.971-5.069-27.416-14.291-37.856zm-136.599-51.382c0 1.415-.194 2.817-.203 4.229-.001.146-.072 9.531-.797 23.277-4.774-.736-8.006-1.13-8.368-1.174-5.484-.666-10.461 3.25-11.121 8.733-.66 5.482 3.25 10.463 8.732 11.124.094.011 3.897.476 9.388 1.352-.18 2.12-.372 4.273-.583 6.457-2.479 25.729-6.292 46.381-11.18 60.831-2.073-2.492-4.256-4.912-6.577-7.233-12.717-12.716-28.183-21.781-45.227-26.61 5.343-21.22 8.479-44.71 10.321-65.091 2.461.642 4.848 1.332 7.058 2.071 5.139 1.718 10.936-1.175 12.654-6.314 1.75-5.238-1.076-10.903-6.314-12.654-3.713-1.241-7.783-2.354-11.889-3.337.696-11.729.956-21.207 1.052-26.807 5.275-2.962 11.205-4.516 17.393-4.516 19.662-.001 35.661 15.997 35.661 35.662zm-10.184 185.662c-1.018 22.01-10.907 42.922-27.067 57.869-16.866 15.61-39.799 23.779-62.737 22.282 7.457-15.729 19.267-32.005 34.11-46.847 17.561-17.562 37.68-31.134 55.783-37.899.012 1.532-.018 3.064-.089 4.595zm-144.164 55.573c-9.094-9.094-15.942-20.053-20.095-32.069 19.605-8.226 39.946-22.374 58.169-40.596 18.925-18.925 33.365-40.025 41.387-60.053 1.134-2.684 2.207-5.479 3.227-8.359 13.873 3.885 26.464 11.237 36.809 21.581 10.924 10.924 18.48 24.292 22.172 39.041-22.133 7.23-46.176 22.881-67.339 44.044-17.876 17.876-31.887 37.882-40.181 57.194-12.835-4.07-24.518-11.153-34.149-20.783zm-18.096-92.768c4.243-9.962 10.441-19.074 18.096-26.728 16.375-16.375 39.279-25.381 62.409-24.682-7.84 22.217-22.672 40.363-38.477 57.371-15.106 15.107-32.207 27.355-48.33 34.783-1.304-13.846.85-27.945 6.302-40.744zm-18.834-21.053c-8.654 21.265-37.167 26.788-53.113 10.17l-20.253-21.09c-.047-.049-.094-.097-.142-.145-1.212-1.212-2.473-2.346-3.764-3.424 32.448-50.264 75.972-72.134 100.565-80.979-3.826 31.979-10.598 64.258-23.293 95.468zm83.526-190.548c16.587 0 31.045 11.561 34.745 27.619-.029 3.208-.181 13.397-.956 27.266-6.168-.999-10.527-1.531-10.951-1.582-5.469-.653-10.463 3.251-11.122 8.734-.66 5.483 3.251 10.463 8.734 11.123.107.013 5.096.622 11.921 1.765-1.773 20.584-4.866 44.628-10.26 65.601-27.227-2.32-54.387 6.15-75.43 23.477 11.894-41.832 17.644-87.308 17.644-130.819.002-18.992 18.836-33.184 35.675-33.184zm-189.179 136.623c35.402-43.28 80.056-73.505 132.891-89.987-.451 8.895-1.019 17.784-1.76 26.659-24.569 7.476-80.337 30.529-120.161 92.852-9.922-3.472-20.832-4.07-31.084-1.783 5.47-8.561 12.127-17.977 20.114-27.741zm415.562 118.374c-10.513 29.018-34.607 82.313-80.144 122.302-10.246-6.864-23.902-6.913-34.168-.056-59.825 39.962-137.835 39.45-198.449 1.63-10.532-6.571-24.461-6.038-34.538 1.192-53.665-42.34-92.422-104.891-109.705-146.872-14.899-36.085 32.061-66.81 59.377-39.635l20.178 21.011c15.838 16.504 41.167 20.71 61.53 10.293-12.144 63.517 38.103 124.277 102.807 124.277 62.754 0 112.246-57.471 103.301-119.478-1.592-11.082-4.891-21.653-9.751-31.456 10.599-20.719 15.78-55.259 18.311-83.655 3.362.817 6.643 1.721 9.605 2.712 5.138 1.718 10.936-1.175 12.654-6.313 1.751-5.238-1.075-10.904-6.313-12.655-4.494-1.502-9.509-2.815-14.479-3.938.519-9.137.755-16.632.862-21.388 5.211-2.858 11.024-4.374 17.071-4.374 22.294 0 35.418 18.507 35.528 39.116.038 7.261-.18 18.364-.868 31.083-5.559-.881-9.416-1.352-9.813-1.399-5.483-.656-10.461 3.25-11.121 8.733-.66 5.482 3.25 10.463 8.732 11.124.102.012 4.552.556 10.789 1.579-2.356 26.771-6.896 55.471-15.203 69.878-2.759 4.784-1.117 10.899 3.668 13.658 4.697 2.708 10.951 1.027 13.658-3.668 10.029-17.392 15.072-48.38 17.607-75.877 2.876.726 5.67 1.515 8.225 2.37 5.138 1.718 10.936-1.175 12.654-6.313 1.751-5.238-1.075-10.904-6.313-12.655-4.068-1.36-8.563-2.564-13.066-3.614.629-10.977.885-20.374.987-26.681 2.126-.178 4.269-.173 6.417.032 18.079 1.723 32.235 17.712 32.229 36.4-.029 35.799-1.534 73.011-12.259 102.637z"/><path d="m271.824 486.936c-1.617-3.947-5.725-6.461-9.971-6.145-4.346.324-8.052 3.528-9.014 7.776-1.987 8.773 8.198 15.468 15.508 10.358 3.78-2.643 5.252-7.73 3.477-11.989z"/></g></g></svg>