<svg height="512pt" viewBox="0 0 512 512" width="512pt" xmlns="http://www.w3.org/2000/svg"><path d="m502 255.984375c0-135.851563-110.136719-245.984375-246-245.984375s-246 110.132812-246 245.984375c0 135.855469 110.136719 245.988281 246 245.988281s246-110.132812 246-245.988281zm0 0" fill="#52607e"/><path d="m256 511.972656c-68.378906 0-132.667969-26.628906-181.019531-74.976562-48.351563-48.351563-74.980469-112.632813-74.980469-181.011719 0-68.375 26.628906-132.660156 74.980469-181.007813 48.351562-48.347656 112.640625-74.976562 181.019531-74.976562s132.667969 26.628906 181.019531 74.976562c48.351563 48.347657 74.980469 112.632813 74.980469 181.007813 0 68.378906-26.628906 132.660156-74.980469 181.011719-48.351562 48.347656-112.640625 74.976562-181.019531 74.976562zm0-491.972656c-130.132812 0-236 105.863281-236 235.984375 0 130.125 105.867188 235.988281 236 235.988281s236-105.863281 236-235.988281c0-130.121094-105.867188-235.984375-236-235.984375zm0 0"/><path d="m256 461.921875c-113.558594 0-205.945312-92.382813-205.945312-205.9375 0-113.550781 92.386718-205.933594 205.945312-205.933594s205.945312 92.382813 205.945312 205.933594c0 113.554687-92.386718 205.9375-205.945312 205.9375zm0 0" fill="#ede6f5"/><path d="m256 471.921875c-119.070312 0-215.945312-96.871094-215.945312-215.9375 0-119.0625 96.875-215.933594 215.945312-215.933594 51.21875 0 100.914062 18.324219 139.933594 51.59375 4.203125 3.582031 4.707031 9.894531 1.121094 14.09375-3.582032 4.203125-9.894532 4.707031-14.097657 1.125-35.402343-30.1875-80.488281-46.8125-126.957031-46.8125-108.046875 0-195.945312 87.898438-195.945312 195.933594 0 108.039063 87.898437 195.9375 195.945312 195.9375s195.945312-87.898437 195.945312-195.9375c0-26.316406-5.15625-51.871094-15.320312-75.949219-2.148438-5.085937.234375-10.953125 5.324219-13.101562 5.085937-2.148438 10.953125.234375 13.101562 5.324218 11.210938 26.550782 16.894531 54.722657 16.894531 83.730469 0 119.0625-96.875 215.933594-215.945312 215.933594zm0 0"/><path d="m256 386.328125c-71.875 0-130.351562-58.46875-130.351562-130.34375 0-71.871094 58.476562-130.34375 130.351562-130.34375s130.351562 58.472656 130.351562 130.34375c0 71.875-58.476562 130.34375-130.351562 130.34375zm0 0" fill="#f05f90"/><path d="m431.957031 245.984375h-35.960937c-4.910156-69.433594-60.558594-125.078125-129.996094-129.988281v-35.957032c0-5.523437-4.476562-10-10-10s-10 4.476563-10 10v35.957032c-69.4375 4.910156-125.085938 60.554687-129.996094 129.988281h-35.960937c-5.523438 0-10 4.480469-10 10 0 5.523437 4.476562 10 10 10h35.960937c4.910156 69.4375 60.558594 125.082031 129.996094 129.992187v35.957032c0 5.523437 4.476562 10 10 10s10-4.476563 10-10v-35.957032c69.4375-4.910156 125.085938-60.554687 129.996094-129.992187h35.960937c5.523438 0 10-4.476563 10-10 0-5.519531-4.476562-10-10-10zm-165.957031 129.933594v-21.914063c0-5.523437-4.476562-10-10-10s-10 4.476563-10 10v21.914063c-58.402344-4.824219-105.113281-51.53125-109.9375-109.933594h21.914062c5.523438 0 10-4.476563 10-10 0-5.519531-4.476562-10-10-10h-21.914062c4.824219-58.398437 51.535156-105.105469 109.9375-109.929687v21.914062c0 5.523438 4.476562 10 10 10s10-4.476562 10-10v-21.914062c58.402344 4.824218 105.113281 51.53125 109.9375 109.929687h-21.914062c-5.523438 0-10 4.480469-10 10 0 5.523437 4.476562 10 10 10h21.914062c-4.824219 58.402344-51.535156 105.109375-109.9375 109.933594zm0 0"/><path d="m303.0625 255.984375c0-25.988281-21.070312-47.058594-47.0625-47.058594s-47.0625 21.070313-47.0625 47.058594c0 25.992187 21.070312 47.0625 47.0625 47.0625s47.0625-21.070313 47.0625-47.0625zm0 0" fill="#ede6f5"/><path d="m256 313.046875c-31.464844 0-57.0625-25.597656-57.0625-57.0625 0-31.460937 25.597656-57.058594 57.0625-57.058594s57.0625 25.597657 57.0625 57.058594c0 31.464844-25.597656 57.0625-57.0625 57.0625zm0-94.121094c-20.4375 0-37.0625 16.625-37.0625 37.058594 0 20.4375 16.625 37.0625 37.0625 37.0625s37.0625-16.625 37.0625-37.0625c0-20.433594-16.625-37.058594-37.0625-37.058594zm0 0"/><path d="m423.238281 145.894531c-.648437 0-1.308593-.070312-1.949219-.199219-.640624-.121093-1.269531-.320312-1.867187-.570312-.613281-.25-1.191406-.558594-1.730469-.917969-.550781-.359375-1.0625-.78125-1.519531-1.242187-.460937-.457032-.882813-.96875-1.242187-1.519532-.359376-.539062-.667969-1.121093-.917969-1.71875-.25-.609374-.453125-1.242187-.570313-1.878906-.132812-.640625-.199218-1.300781-.199218-1.953125 0-.648437.066406-1.308593.199218-1.949219.117188-.640624.320313-1.269531.570313-1.871093.25-.609375.558593-1.1875.917969-1.726563.359374-.550781.78125-1.0625 1.242187-1.523437.457031-.457031.96875-.878907 1.519531-1.238281.539063-.359376 1.117188-.671876 1.730469-.921876.597656-.25 1.226563-.449218 1.867187-.578124 1.289063-.261719 2.621094-.261719 3.910157 0 .628906.128906 1.261719.328124 1.871093.578124.601563.25 1.179688.5625 1.71875.921876.550782.359374 1.0625.78125 1.519532 1.238281.460937.460937.882812.972656 1.25 1.523437.363281.539063.671875 1.117188.921875 1.726563.25.601562.441406 1.230469.570312 1.871093.128907.640626.1875 1.300782.1875 1.949219 0 .652344-.058593 1.3125-.1875 1.953125-.128906.636719-.320312 1.269532-.570312 1.878906-.25.597657-.558594 1.179688-.921875 1.71875-.367188.550782-.789063 1.0625-1.25 1.519532-.457032.460937-.96875.882812-1.519532 1.242187-.539062.359375-1.117187.667969-1.71875.917969-.609374.25-1.242187.449219-1.871093.570312-.648438.128907-1.308594.199219-1.960938.199219zm0 0"/></svg>