<svg id="Capa_1" enable-background="new 0 0 512 512" height="512" viewBox="0 0 512 512" width="512" xmlns="http://www.w3.org/2000/svg"><g><g><path d="m405.88 453.94c0-26.54 21.52-48.06 48.06-48.06-26.54 0-48.06-21.52-48.06-48.06 0-26.55 21.52-48.06 48.06-48.06v-299.76h-443.94v443.94z" fill="#838eb1"/></g><g><path d="m405.879 357.821c0 7.34 1.65 14.29 4.59 20.51v32.14h-353v-357h348.41z" fill="#fff"/></g><g><circle cx="453.939" cy="453.939" fill="#a0e4a5" r="48.061"/></g><g><circle cx="453.939" cy="453.939" fill="#a0e4a5" r="48.061"/></g><g><circle cx="453.939" cy="357.817" fill="#a0e4a5" r="48.061"/></g><g><circle cx="453.939" cy="453.939" fill="#ffd88e" r="48.061"/></g><g><circle cx="453.939" cy="357.817" fill="#a0e4a5" r="48.061"/></g><g><path d="m486.478 405.878c15.39-10.453 25.522-28.095 25.522-48.061 0-28.604-20.797-52.426-48.061-57.181v-290.636c0-5.522-4.478-10-10-10h-443.939c-5.523 0-10 4.478-10 10v443.939c0 5.522 4.477 10 10 10h179.101c5.523 0 10-4.478 10-10s-4.477-10-10-10h-169.101v-423.939h423.939v280.621c-10.348 1.803-20.151 6.501-28.061 13.406v-260.558c0-5.522-4.478-10-10-10l-348.41-.001c-5.523 0-10 4.478-10 10s4.477 10 10 10h128.801v61.4c0 5.522 4.477 10 10 10h142.801c5.522 0 10-4.478 10-10s-4.478-10-10-10h-132.801v-51.4h189.61v194.202l-46.809-.001v-61.4c0-5.522-4.478-10-10-10s-10 4.478-10 10v71.4c0 5.522 4.478 10 10 10l56.808.001.001 80.108c0 16.122 6.868 31.757 18.707 42.693h-347.118v-51.401h57.4c5.523 0 10-4.478 10-10s-4.477-10-10-10h-57.4v-194.202h47.4v61.401c0 5.522 4.477 10 10 10s10-4.478 10-10v-71.401c0-5.522-4.477-10-10-10h-67.4c-5.523 0-10 4.478-10 10v285.604c0 5.522 4.477 10 10 10h349.07c-4.917 7.003-8.326 15.026-9.797 23.468h-119.671c-5.522 0-10 4.478-10 10s4.478 10 10 10h119.687c4.756 27.263 28.578 48.06 57.182 48.06 32.015 0 58.061-26.046 58.061-58.061 0-19.966-10.132-37.608-25.522-48.061zm5.522-48.061c0 20.986-17.074 38.061-38.061 38.061-13.772 0-25.859-7.353-32.542-18.338-3.5-5.754-5.517-12.506-5.517-19.719 0-20.986 17.073-38.061 38.06-38.061.013 0 .026-.002.039-.002 20.968.021 38.021 17.086 38.021 38.059zm-38.061 134.183c-20.979 0-38.047-17.06-38.061-38.035 0-.009.001-.017.001-.026 0-20.986 17.073-38.06 38.06-38.06.009 0 .017-.001.026-.001 20.975.015 38.035 17.083 38.035 38.061 0 20.987-17.074 38.061-38.061 38.061z"/><path d="m196.269 257.67h-71.401c-5.523 0-10 4.478-10 10s4.477 10 10 10h61.401v61.4c0 5.522 4.477 10 10 10h142.801c5.522 0 10-4.478 10-10s-4.478-10-10-10h-61.4v-132.8c0-5.522-4.478-10-10-10h-71.401c-5.523 0-10 4.478-10 10s4.477 10 10 10h61.401v122.8h-51.401v-61.4c0-5.523-4.477-10-10-10z"/><path d="m242.2 450.109c-1.639-3.932-5.706-6.462-9.963-6.144-4.169.312-7.777 3.28-8.896 7.307-2.497 8.983 8.115 16.196 15.584 10.697 3.663-2.697 4.99-7.673 3.275-11.86z"/></g></g></svg>