<svg height="512pt" viewBox="0 -74 512 512" width="512pt" xmlns="http://www.w3.org/2000/svg"><path d="m78.800781 216.402344h216.800781v68.796875h-216.800781zm0 0" fill="#ffe681"/><path d="m216.398438 147.601562v-68.800781h-68.800782v-68.800781h-68.796875v68.800781h-68.800781v68.800781zm0 0" fill="#52607e"/><path d="m502 10.003906h-68.800781v68.796875h-68.800781v68.800781h68.800781v68.800782h68.800781zm0 0" fill="#f05f90"/><path d="m10 354.003906h216.800781v-68.800781h-148v-68.800781h-68.800781zm0 0" fill="#f05f90"/><path d="m433.199219 354.003906v-68.800781h-68.800781v-68.800781h-68.796876v68.800781h-68.800781v68.800781zm0 0" fill="#52607e"/><path d="m433.199219 285.203125v68.800781h68.800781v-137.601562h-68.800781v-68.800782h-68.800781v137.601563zm0 0" fill="#ffdd52"/><path d="m10 147.601562h354.398438v68.800782h-354.398438zm0 0" fill="#00d2d7"/><path d="m312.839844 192c-.648438 0-1.308594-.070312-1.949219-.199219-.640625-.121093-1.269531-.320312-1.871094-.570312-.609375-.25-1.1875-.558594-1.730469-.917969-.546874-.363281-1.058593-.78125-1.519531-1.242188-.460937-.460937-.878906-.96875-1.238281-1.519531-.359375-.539062-.671875-1.121093-.921875-1.730469-.25-.597656-.4375-1.230468-.570313-1.871093-.128906-.636719-.199218-1.296875-.199218-1.949219 0-.648438.070312-1.308594.199218-1.949219.132813-.640625.320313-1.269531.570313-1.871093.25-.609376.5625-1.1875.921875-1.730469.359375-.546875.777344-1.058594 1.238281-1.519531.460938-.457032.972657-.878907 1.519531-1.238282.542969-.371094 1.121094-.671875 1.730469-.921875.601563-.25 1.230469-.449219 1.871094-.570312 1.289063-.269531 2.621094-.257813 3.910156 0 .628907.121093 1.257813.320312 1.871094.570312.597656.25 1.179687.550781 1.71875.921875.550781.359375 1.058594.78125 1.519531 1.238282.460938.460937.878906.972656 1.25 1.519531.359375.542969.671875 1.121093.921875 1.730469.25.601562.4375 1.230468.566407 1.871093.132812.640625.191406 1.300781.191406 1.949219 0 .652344-.058594 1.3125-.191406 1.949219-.128907.640625-.316407 1.273437-.566407 1.871093-.25.609376-.5625 1.191407-.921875 1.730469-.371094.550781-.789062 1.058594-1.25 1.519531-.460937.460938-.96875.878907-1.519531 1.242188-.539063.359375-1.121094.667969-1.71875.917969-.613281.25-1.242187.449219-1.871094.570312-.652343.128907-1.3125.199219-1.960937.199219zm0 0"/><path d="m502 .00390625h-68.800781c-5.523438 0-10 4.47656275-10 9.99999975v58.796875h-58.800781c-5.519532 0-10 4.476563-10 10v58.800781h-128v-58.800781c0-5.523437-4.476563-10-10-10h-58.800782v-58.800781c0-5.523438-4.476562-10-10-10h-68.796875c-5.523437 0-10 4.476562-10 10v58.800781h-58.800781c-5.523438 0-10 4.476563-10 10v275.203125c0 5.519532 4.476562 10 10 10h492c5.523438 0 10-4.480468 10-10v-344c0-5.523437-4.476562-9.99999975-10-9.99999975zm-127.601562 88.79687475h58.800781c5.523437 0 10-4.476562 10-10v-58.796875h48.800781v186.398438h-48.800781v-58.800782c0-5.523437-4.476563-10-10-10h-58.800781zm-20 117.601563h-334.398438v-14.402344h254.847656c5.519532 0 10-4.476562 10-10s-4.480468-10-10-10h-254.847656v-14.398438h334.398438zm-265.597657 68.800781v-48.800781h196.800781v48.800781zm-68.800781-186.402344h58.800781c5.523438 0 10-4.476562 10-10v-58.800781h48.796875v58.800781c0 5.523438 4.480469 10 10 10h58.800782v48.800781h-186.398438zm0 137.601563h48.800781v58.800781c0 5.523437 4.476563 10 10 10h138v48.800781h-196.800781zm216.800781 68.800781h58.800781c5.519532 0 10-4.476563 10-10v-58.800781h48.796876v58.800781c0 5.523437 4.480468 10 10 10h58.800781v48.800781h-186.398438zm255.199219 48.800781h-48.800781v-58.800781c0-5.523437-4.476563-10-10-10h-58.800781v-117.601563h48.800781v58.800782c0 5.523437 4.476562 10 10 10h58.800781zm0 0"/></svg>