<?xml version="1.0" encoding="iso-8859-1"?>
<!-- Generator: Adobe Illustrator 19.0.0, SVG Export Plug-In . SVG Version: 6.00 Build 0)  -->
<svg version="1.1" id="Capa_1" xmlns="http://www.w3.org/2000/svg" x="0px" y="0px"
     viewBox="0 0 512 512" style="enable-background:new 0 0 512 512;" xml:space="preserve">
<path style="fill:#F7D291;" d="M47.581,219.927c0-24.35,19.739-44.089,44.089-44.089h12.024c30.99,0,56.113-25.123,56.113-56.113
	c0-30.991-25.123-56.113-56.113-56.113h-8.016c22.136,0,40.081,17.945,40.081,40.081s-17.944,40.081-40.081,40.081h-8.016
	c-44.272,0-80.161,35.889-80.161,80.161s35.89,80.161,80.161,80.161h70.77l-1.36-40.081H91.669
	C67.32,264.016,47.581,244.277,47.581,219.927z"/>
  <path style="fill:#BEE86E;" d="M488.468,223.935H464.42l-14.656-14.656c-6.014-6.014-14.17-9.392-22.674-9.392h-14.319
	c-14.443,0-28.553,4.334-40.504,12.443l-72.988,51.752l-146.74-0.065c-29.501,0-56.029,17.96-66.985,45.351l-29.956,74.891H97.16
	c9.246,0,18.043-3.991,24.131-10.95l26.727-30.545l140.046,25.463l112.226-80.161h32.065v-16.032
	c0-8.854,7.178-16.032,16.032-16.032H504.5V239.97C504.5,231.113,497.322,223.935,488.468,223.935z"/>
  <path style="fill:#CD916E;" d="M121.29,373.309l26.728-30.546l140.046,25.463l4.018-2.87c26.737-19.098,13.226-61.259-19.631-61.259
	H256v-40.035l-103.462-0.046c-29.501,0-56.029,17.96-66.985,45.351l-29.956,74.891H97.16
	C106.406,384.258,115.202,380.267,121.29,373.309z"/>
  <circle style="fill:#AFD755;" cx="384.26" cy="223.94" r="16.03"/>
  <path style="fill:#96C855;" d="M280.048,239.968H124.991c-8.504,0-16.66-3.378-22.673-9.391l-22.673-22.673h145.096
	c14.882,0,29.155,5.912,39.678,16.435L280.048,239.968z"/>
  <path style="fill:#AFD755;" d="M135.758,239.968l22.673,22.673c6.013,6.013,14.169,9.391,22.673,9.391h122.993l-32.065-32.065
	H135.758V239.968z"/>
  <path style="fill:#BEE86E;" d="M199.887,272.032l22.673,22.673c6.013,6.013,14.169,9.392,22.673,9.392h52.223
	c14.283,0,21.436-17.269,11.337-27.369l-4.696-4.696H199.887z"/>
  <g>
	<path style="fill:#B67F5F;" d="M47.581,448.387h40.081l-19.239-25.652c-3.028-4.037-7.779-6.413-12.826-6.413H31.548v16.032
		C31.548,441.209,38.727,448.387,47.581,448.387z"/>
    <path style="fill:#B67F5F;" d="M377.618,425.714c-6.014-6.014-14.169-9.391-22.674-9.391h-42.831h-1.145l32.542,25.31
		c5.628,4.377,12.555,6.754,19.685,6.754h37.095L377.618,425.714z"/>
    <path style="fill:#B67F5F;" d="M312.113,416.323l-22.445-16.834c-6.056-4.542-9.619-11.669-9.619-19.239v-76.153h8.016
		c13.282,0,24.048,10.767,24.048,24.048V416.323z"/>
    <path style="fill:#B67F5F;"
          d="M132.752,360.21H65.216l-9.619,24.048H97.16c9.246,0,18.041-3.991,24.131-10.95L132.752,360.21z"/>
</g>
  <path d="M382.92,420.411c-7.472-7.473-17.408-11.589-27.976-11.589h-35.332v-52.81l61.04-44.393
	c3.35-2.436,4.091-7.127,1.654-10.477c-2.436-3.349-7.125-4.09-10.477-1.654l-52.218,37.977v-9.32c0-4.143-3.358-7.5-7.5-7.5
	s-7.5,3.357-7.5,7.5v73.733l-7.581-5.896c-6.027-4.688-9.483-11.754-9.483-19.39v-8.488c0-0.005,0-0.009,0-0.014v-31.929
	c0-4.142-3.358-7.5-7.5-7.5s-7.5,3.358-7.5,7.5v23.028l-63.264-11.862c-4.071-0.764-7.991,1.918-8.754,5.989s1.918,7.99,5.989,8.754
	l66.028,12.38v2.142c0,12.298,5.567,23.681,15.274,31.23l51.082,39.73c6.91,5.375,15.537,8.334,24.291,8.334h37.095
	c3.034,0,5.768-1.827,6.929-4.63c1.161-2.802,0.519-6.029-1.626-8.173L382.92,420.411z M363.195,440.887
	c-5.435,0-10.792-1.837-15.082-5.174l-15.287-11.891h22.118c6.562,0,12.73,2.556,17.37,7.195l9.87,9.87H363.195z"/>
  <path d="M488.468,216.436h-20.942l-12.46-12.46c-7.473-7.473-17.408-11.588-27.976-11.588h-14.32
	c-16.006,0-31.468,4.75-44.714,13.736c-0.043,0.029-0.085,0.059-0.127,0.089l-68.341,48.456l-29.257-32.914
	c-12.061-13.568-29.39-21.351-47.544-21.351H79.645c-3.034,0-5.768,1.827-6.929,4.63c-1.161,2.803-0.519,6.028,1.626,8.174
	l22.673,22.672c7.473,7.473,17.408,11.588,27.976,11.588h0.12l11.311,9.048H91.669c-20.175,0-36.589-16.414-36.589-36.588
	c0-20.175,16.414-36.589,36.589-36.589h12.024c35.076,0,63.613-28.537,63.613-63.613s-28.537-63.613-63.613-63.613H55.597
	c-4.142,0-7.5,3.358-7.5,7.5s3.358,7.5,7.5,7.5h40.081c17.965,0,32.581,14.616,32.581,32.581s-14.616,32.581-32.581,32.581h-8.016
	C39.325,136.274,0,175.599,0,223.936c0,44.677,33.596,81.651,76.851,86.994L50.52,376.758h-2.939
	c-12.976,0-23.532,10.557-23.532,23.532v32.064c0,12.976,10.557,23.533,23.532,23.533h40.081c2.841,0,5.438-1.605,6.708-4.146
	c1.271-2.541,0.997-5.581-0.708-7.854l-19.238-25.651c-4.42-5.895-11.458-9.414-18.826-9.414h-16.55v-8.532
	c0-4.704,3.828-8.532,8.532-8.532h49.58c11.409,0,22.262-4.924,29.776-13.511l23.374-26.713l24.147,4.524
	c0.467,0.087,0.932,0.129,1.391,0.129c3.538,0,6.688-2.515,7.363-6.119c0.763-4.071-1.918-7.99-5.989-8.753l-15.438-2.895
	l11.684-13.353c2.728-3.117,2.412-7.855-0.706-10.583c-3.117-2.727-7.855-2.412-10.583,0.706l-46.531,53.179
	c-4.665,5.331-11.403,8.389-18.487,8.389H66.674l25.842-64.605c9.875-24.686,33.434-40.636,60.021-40.636h3.415
	c8.631,5.202,18.607,8.016,28.741,8.016h4.547l24.851,19.882c9.82,7.856,22.155,12.183,34.731,12.183h39.241
	c4.142,0,7.5-3.358,7.5-7.5s-3.358-7.5-7.5-7.5h-39.241c-9.184,0-18.19-3.159-25.361-8.896l-10.211-8.169H256
	c4.142,0,7.5-3.358,7.5-7.5s-3.358-7.5-7.5-7.5h-71.306c-9.183,0-18.189-3.159-25.36-8.896l-10.211-8.168h82.829
	c4.142,0,7.5-3.358,7.5-7.5s-3.358-7.5-7.5-7.5h-106.96c-6.562,0-12.73-2.555-17.37-7.195l-9.87-9.87h125.034
	c13.874,0,27.116,5.947,36.333,16.316l47.388,53.312c1.482,1.667,3.54,2.517,5.608,2.517c1.772,0,3.551-0.625,4.98-1.895
	c3.096-2.751,3.375-7.493,0.623-10.588l-8.105-9.118l51.73-36.678c2.424,10.414,11.774,18.199,22.916,18.199
	c4.142,0,7.5-3.358,7.5-7.5s-3.358-7.5-7.5-7.5c-4.705,0-8.533-3.828-8.533-8.532c0-4.704,3.828-8.532,8.533-8.532
	c3.025,0,5.853,1.627,7.38,4.246c2.087,3.579,6.68,4.787,10.257,2.701c3.578-2.086,4.788-6.679,2.701-10.257
	c-0.793-1.359-1.714-2.621-2.741-3.775c3.583-0.611,7.23-0.932,10.914-0.932h14.319c6.562,0,12.73,2.555,17.37,7.195l14.657,14.657
	c1.407,1.407,3.314,2.197,5.303,2.197h24.048c4.705,0,8.532,3.828,8.532,8.532v8.532h-48.613c-12.976,0-23.532,10.557-23.532,23.532
	v8.532h-7.963c-8.703,0-16.884-3.389-23.038-9.542l-12.309-12.309c-2.929-2.929-7.678-2.929-10.606,0
	c-2.929,2.929-2.929,7.678,0,10.606l12.309,12.309c8.987,8.987,20.935,13.936,33.645,13.936h71.576c4.142,0,7.5-3.358,7.5-7.5
	s-3.358-7.5-7.5-7.5h-48.613v-8.532c0-4.705,3.828-8.532,8.532-8.532h40.597v0.516c0,4.142,3.358,7.5,7.5,7.5s7.5-3.358,7.5-7.5
	V263.5h0.516c4.142,0,7.5-3.358,7.5-7.5v-16.032C512,226.992,501.443,216.436,488.468,216.436z M55.597,423.822
	c2.671,0,5.223,1.276,6.826,3.413l10.239,13.652H47.581c-4.705,0-8.532-3.828-8.532-8.533v-8.532H55.597z M83.484,296.468
	C45.356,294.295,15,262.598,15,223.936c0-40.065,32.596-72.661,72.661-72.661h8.016c26.236,0,47.581-21.345,47.581-47.581
	c0-5.424-0.912-10.637-2.591-15.497c7.255,8.494,11.64,19.509,11.64,31.529c0,26.806-21.808,48.613-48.613,48.613H91.669
	c-28.446,0-51.589,23.143-51.589,51.589c0,28.446,23.143,51.588,51.589,51.588h14.224C96.853,278.043,89.185,286.498,83.484,296.468
	z"/>
  <path d="M439.935,231.952c0-4.142-3.358-7.5-7.5-7.5h-0.08c-4.142,0-7.46,3.358-7.46,7.5s3.398,7.5,7.54,7.5
	S439.935,236.094,439.935,231.952z"/>
  <g>
</g>
  <g>
</g>
  <g>
</g>
  <g>
</g>
  <g>
</g>
  <g>
</g>
  <g>
</g>
  <g>
</g>
  <g>
</g>
  <g>
</g>
  <g>
</g>
  <g>
</g>
  <g>
</g>
  <g>
</g>
  <g>
</g>
</svg>
