<?xml version="1.0" encoding="iso-8859-1"?>
<!-- Generator: Adobe Illustrator 19.0.0, SVG Export Plug-In . SVG Version: 6.00 Build 0)  -->
<svg version="1.1" id="Capa_1" xmlns="http://www.w3.org/2000/svg" xmlns:xlink="http://www.w3.org/1999/xlink" x="0px" y="0px"
	 viewBox="0 0 511.998 511.998" style="enable-background:new 0 0 511.998 511.998;" xml:space="preserve">
<path style="fill:#AFD755;" d="M207.903,296.079c-35.417,0-64.129,28.712-64.129,64.129v12.024c0,19.922-16.15,36.073-36.073,36.073
	s-36.073-16.15-36.073-36.073v-87.726c0-23.386-9.29-45.814-25.826-62.351L7.5,183.853l21.298,21.298
	c12.027,12.026,18.783,28.338,18.783,45.346V376.24c0,35.417,28.712,64.129,64.129,64.129s64.129-28.712,64.129-64.129v-8.016
	c0-17.709,14.355-32.065,32.065-32.065h8.016l40.08-40.08H207.903z"/>
<path style="fill:#BEE86E;" d="M488.468,167.821h-16.032l-6.641-6.641c-6.013-6.013-14.169-9.392-22.673-9.392h-18.783
	c-26.563,0-48.097,21.534-48.097,48.097v72.145c0,13.282-10.767,24.048-24.048,24.048H250.681
	c-19.946,0-36.857,14.667-39.678,34.413l-11.116,77.813l26.021-15.613c9.224-5.535,16.908-13.301,22.344-22.584l7.998-13.658
	l64.365,28.913c10.25,4.555,21.341,6.909,32.557,6.909h34.081c11.603,0,29.051-5.219,38.223-12.325
	c22.534-17.46,30.908-47.841,20.246-74.496l-20.606-51.515c-4.212-10.531,3.543-21.986,14.885-21.986h0.368v-16.032
	c0-8.854,7.178-16.032,16.032-16.032H504.5v-16.032C504.5,174.999,497.322,167.821,488.468,167.821z"/>
<path style="fill:#A5CDFF;" d="M320.129,255.999l-8.016-32.065L87.661,119.724l54.431,71.912
	c11.639,16.941,27.179,30.837,45.311,40.517l139.404,74.422c15.632,8.345,34.586,7.419,49.33-2.41l0.104-0.069L320.129,255.999z"/>
<path style="fill:#8CB4EB;" d="M242.893,136.124L7.5,55.595l34.286,51.429c8.995,13.492,21.871,23.94,36.927,29.963l233.272,92.739
	C310.645,187.302,283.266,149.937,242.893,136.124z"/>
<g>
	<path style="fill:#AFD755;" d="M239.223,327.466c-13.784-4.833-28.543,4.152-30.578,18.616l-8.758,62.223l26.069-15.642
		c9.151-5.491,16.546-13.477,21.319-23.022l4.991-9.982C258.501,347.19,252.38,332.079,239.223,327.466z"/>
	<path style="fill:#AFD755;" d="M392.274,347.182c-8.854,0-16.032,7.178-16.032,16.032v1.12c0,1.983,0.164,3.945,0.405,5.894
		h-18.966c-11.216,0-22.307-2.354-32.556-6.909l-62.401-28.031c0.605,6.87-0.851,14.27-5.008,21.82l62.9,28.255
		c10.249,4.555,21.34,6.909,32.556,6.909h32.149c1.51,2.134,3.133,4.195,5.006,6.069l8.588,8.588
		c6.014,6.013,9.392,14.169,9.392,22.673v-66.388C408.307,354.36,401.128,347.182,392.274,347.182z"/>
</g>
<path d="M455.967,175.837c0-4.142-3.358-7.5-7.5-7.5h-0.08c-4.142,0-7.46,3.358-7.46,7.5s3.398,7.5,7.54,7.5
	S455.967,179.979,455.967,175.837z"/>
<path d="M275.069,356.682l-10.558-4.743l6.213-12.426c1.853-3.705,0.351-8.21-3.354-10.062s-8.209-0.351-10.062,3.354
	l-16.741,33.482c-4.142,8.283-10.528,15.18-18.47,19.945l-12.557,7.534l8.888-62.214c2.278-15.947,16.144-27.973,32.253-27.973
	h54.588l43.392,23.165c1.125,0.601,2.334,0.885,3.526,0.885c2.68,0,5.272-1.44,6.623-3.969c1.951-3.654,0.57-8.198-3.084-10.148
	l-164.791-87.974c-16.999-9.075-31.75-22.266-42.661-38.148l-13.737-19.995l116.799,46.719c3.848,1.538,8.211-0.333,9.749-4.178
	c1.539-3.846-0.332-8.211-4.178-9.749L81.499,130.023c-13.708-5.483-25.283-14.875-33.473-27.159L26.023,69.859l214.442,73.362
	c38.369,13.126,64.148,49.191,64.148,89.744c0,11.777,5.189,22.855,14.236,30.395l65.42,54.517c1.402,1.168,3.104,1.739,4.797,1.739
	c2.148,0,4.282-0.919,5.766-2.699c2.652-3.182,2.222-7.911-0.96-10.563l-65.42-54.517c-5.617-4.681-8.839-11.559-8.839-18.871
	c0-46.965-29.856-88.734-74.292-103.936L9.928,48.499c-3.04-1.041-6.408-0.027-8.37,2.52c-1.961,2.547-2.082,6.061-0.298,8.736
	l34.286,51.429c9.88,14.82,23.844,26.151,40.382,32.766l33.513,13.405l26.469,38.528c12.266,17.854,28.85,32.684,47.96,42.886
	l93.301,49.809h-69.269c-39.496,0-71.629,32.133-71.629,71.629v12.024c0,15.755-12.818,28.573-28.573,28.573
	s-28.573-12.818-28.573-28.573v-87.726c0-25.556-9.952-49.583-28.023-67.654L34.19,199.936c-0.03-0.03-0.059-0.059-0.088-0.088
	L12.804,178.55c-2.929-2.929-7.678-2.929-10.606,0c-2.929,2.929-2.929,7.677,0,10.606l21.368,21.368
	c10.651,10.688,16.516,24.879,16.516,39.972v125.743c0,39.496,32.133,71.629,71.629,71.629s71.629-32.133,71.629-71.629v-8.016
	c0-11.301,7.673-20.838,18.082-23.69l-8.958,62.71c-0.215,1.51,0.034,3.05,0.717,4.415l18.621,37.243h-7.906
	c-4.142,0-7.5,3.358-7.5,7.5s3.358,7.5,7.5,7.5h20.025c0.007,0,0.014,0.001,0.021,0.001c0.009,0,0.017-0.001,0.026-0.001h3.976
	c1.876,0,3.684-0.703,5.067-1.971c3.01-2.758,8.05-6.045,14.974-6.045s11.964,3.288,14.974,6.045
	c1.439,1.319,3.255,1.971,5.065,1.971c2.029,0,4.052-0.819,5.531-2.433c2.799-3.054,2.592-7.798-0.462-10.596
	c-7.027-6.44-15.944-9.987-25.107-9.987c-7.185,0-14.218,2.182-20.308,6.228l-17.975-35.95l20.114-12.068
	c10.392-6.235,18.75-15.26,24.168-26.099l3.814-7.628l11.125,4.998c0.998,0.448,2.042,0.66,3.069,0.66
	c2.863,0,5.597-1.648,6.846-4.429C280.535,362.818,278.848,358.379,275.069,356.682z M168.339,368.224v8.016
	c0,31.225-25.404,56.629-56.629,56.629s-56.629-25.404-56.629-56.629V250.497c0-1.119-0.025-2.235-0.076-3.345
	c5.964,11.391,9.125,24.13,9.125,37.355v87.726c0,24.026,19.547,43.573,43.573,43.573s43.573-19.547,43.573-43.573v-12.024
	c0-31.225,25.404-56.629,56.629-56.629h8.212c-6.449,6.819-10.936,15.548-12.446,25.31
	C183.837,331.01,168.339,347.839,168.339,368.224z"/>
<path d="M488.468,160.321h-12.926l-4.444-4.444c-7.473-7.473-17.409-11.588-27.977-11.588h-26.799c-4.705,0-8.532-3.828-8.532-8.532
	s3.828-8.532,8.532-8.532h8.016c4.142,0,7.5-3.358,7.5-7.5s-3.358-7.5-7.5-7.5h-8.016c-12.976,0-23.532,10.557-23.532,23.532
	c0,5.72,2.054,10.969,5.46,15.052c-17.54,9.362-29.509,27.845-29.509,49.077v64.129c0,4.142,3.358,7.5,7.5,7.5s7.5-3.358,7.5-7.5
	v-64.129c0-22.385,18.212-40.597,40.597-40.597h18.783c6.562,0,12.73,2.555,17.37,7.195l6.641,6.641
	c1.406,1.406,3.314,2.197,5.303,2.197h16.032c4.705,0,8.532,3.828,8.532,8.532v8.532h-40.597c-12.976,0-23.532,10.556-23.532,23.532
	v8.532h-0.516c-9.125,0-16.548-7.424-16.548-16.548c0-4.142-3.358-7.5-7.5-7.5s-7.5,3.358-7.5,7.5
	c0,12.776,7.638,23.794,18.583,28.75c-3.378,6.14-3.869,13.49-1.236,20.07l20.606,51.515c9.72,24.302,1.634,51.899-19.664,67.113
	l-3.289,2.349v-17.49c0-4.142-3.358-7.5-7.5-7.5s-7.5,3.358-7.5,7.5v38.007l-9.87-9.87c-4.64-4.64-7.195-10.809-7.195-17.37v-10.767
	c0-4.142-3.358-7.5-7.5-7.5s-7.5,3.358-7.5,7.5v10.767c0,4.787,0.853,9.44,2.471,13.798h-18.04c-10.232,0-20.161-2.107-29.483-6.25
	l-20.364-9.147c-3.779-1.698-8.218-0.01-9.915,3.768c-1.697,3.779-0.01,8.218,3.768,9.915l20.391,9.159
	c11.28,5.013,23.258,7.555,35.603,7.555h27.979l12.46,12.46c4.64,4.64,7.195,10.809,7.195,17.37v19.299h-12.541
	c-4.142,0-7.5,3.358-7.5,7.5s3.358,7.5,7.5,7.5h24.048c1.876,0,3.684-0.703,5.067-1.971c3.009-2.758,8.049-6.045,14.973-6.045
	c6.923,0,11.963,3.288,14.973,6.045c1.44,1.319,3.255,1.971,5.065,1.971c2.029,0,4.052-0.819,5.531-2.433
	c2.798-3.054,2.592-7.798-0.462-10.597c-7.027-6.44-15.944-9.987-25.107-9.987c-5.749,0-11.399,1.402-16.548,4.032v-48.786
	l12.008-8.577c26.94-19.243,37.167-54.151,24.872-84.889l-20.606-51.515c-1.068-2.671-0.756-5.57,0.857-7.952
	c1.613-2.383,4.188-3.749,7.065-3.749h48.465c4.142,0,7.5-3.358,7.5-7.5s-3.358-7.5-7.5-7.5h-40.597v-8.532
	c0-4.705,3.828-8.532,8.532-8.532h32.581v0.516c0,4.142,3.358,7.5,7.5,7.5s7.5-3.358,7.5-7.5v-0.516h0.516
	c4.142,0,7.5-3.358,7.5-7.5v-16.032C512,170.878,501.443,160.321,488.468,160.321z"/>
<g>
</g>
<g>
</g>
<g>
</g>
<g>
</g>
<g>
</g>
<g>
</g>
<g>
</g>
<g>
</g>
<g>
</g>
<g>
</g>
<g>
</g>
<g>
</g>
<g>
</g>
<g>
</g>
<g>
</g>
</svg>
