<svg id="Capa_1" enable-background="new 0 0 512 512" height="512" viewBox="0 0 512 512" width="512" xmlns="http://www.w3.org/2000/svg"><g><g><path d="m393.472 285.496-155.575-223.904-56.031 37.033 132.577 186.871z" fill="#ff7e96"/></g><g><path d="m393.472 285.496-155.575-223.904-56.031 37.033 132.577 186.871z" fill="#ff7e96"/></g><g><path d="m278.763 235.205-12.699 4.606-.002.001z" fill="none"/></g><g><path d="m314.447 285.501h-41.139c-25.672-.642-31.413-36.927-7.249-45.684l12.699-4.608z" fill="none"/></g><g><path d="m402.469 317.044v1.084c0 17.508-14.193 31.701-31.701 31.701h-145.995c-17.36-.221-34.405-6.523-49.629-14.867l-21.495-11.773c-8.943-4.903-19.128-7.112-29.302-6.365h-114.347v-143.28l170.428 23.288c7.479 1.022 15.161.408 22.282-2.152l37.677-13.573 38.372 54.101-12.699 4.598c-24.443 8.394-18.307 45.055 7.249 45.694h97.46c18.569.001 31.527 13.218 31.7 31.544z" fill="#ffdad5"/></g><g><path d="m402.469 249.076v67c-.328-18.037-13.676-30.575-31.701-30.575h22.705l-84.887-122.164c8.649.705 17.181 2.977 25.146 6.828l29.26 14.183c24.758 11.994 39.835 37.224 39.477 64.728z" fill="#ffdad5"/></g><g><path d="m41.658 402.551h426.076v47.858h-426.076z" fill="#fff"/></g><g><path d="m439.178 402.551-62.69-38.81c-5.863-3.63-10.973-8.353-15.053-13.912h9.332c17.508 0 31.701-14.193 31.701-31.701v-.936c0-.442 0-18.644 0-18.644l10.125 14.896c3.437 5.057 5.987 10.663 7.54 16.577z" fill="#ffdad5"/></g><g><path d="m502 440.409h-24.266v-37.858c0-5.329-4.68-10-10.003-10l-20.838.007-17.086-65.076c-1.846-7.032-4.855-13.646-8.942-19.659l-8.396-12.352v-46.333c.389-31.845-16.894-60.115-45.115-73.789l-29.269-14.187c-7.548-3.649-15.555-6.064-23.856-7.237l-68.12-98.038c-3.1-4.462-9.194-5.633-13.726-2.637l-56.031 37.032c-4.629 3.06-5.878 9.568-2.642 14.129l50.903 71.75-25.286 9.109c-5.342 1.919-11.411 2.493-17.545 1.654l-170.428-23.288c-2.862-.39-5.753.474-7.929 2.374-2.176 1.898-3.425 4.645-3.425 7.534v143.279c0 5.522 4.477 10 10 10h114.347c.244 0 .489-.009.732-.027 8.282-.601 16.496 1.178 23.766 5.163l21.493 11.772c19.094 10.465 37.366 15.881 54.308 16.097.043.001.085.001.128.001h131.879c4.201 4.843 9.078 9.013 14.572 12.415l32.835 20.327-106.283.034c-5.864-.227-10.64 4.747-10.315 10.555.293 5.275 5.069 9.59 10.314 9.445l159.959-.052v27.855h-406.077v-27.855l157.465.052c5.707.152 10.613-4.792 10.312-10.525-.287-5.438-4.853-9.636-10.314-9.475l-167.46-.055c-5.422 0-10.003 4.564-10.003 10v37.858h-21.658c-5.523 0-10 4.478-10 10s4.477 10 10 10h31.658 426.076 34.266c5.523 0 10-4.478 10-10s-4.477-9.999-10-9.999zm-233.093-190.992c.322-.11.64-.227.956-.353l5.149-1.864 20.078 28.301h-21.64c-14.28-.476-18.253-21.116-4.543-26.084zm89.725-56.07c21.185 10.265 34.15 31.568 33.838 55.6 0 .043-.001.087-.001.13v17.452l-59.488-85.615zm-123.372-118.025 139.084 200.174h-54.735l-123.607-174.228zm-55.312 250.869-21.491-11.771c-10.546-5.782-22.458-8.405-34.46-7.597h-103.997v-121.82l159.075 21.737c9.315 1.271 18.656.356 27.024-2.652l30.526-10.996 26.377 37.187c-34.025 12.013-26.988 65.223 10.307 65.223h97.459c12.844 0 21.561 8.677 21.701 21.596v1.031c0 11.966-9.735 21.701-21.701 21.701h-145.931c-13.617-.189-28.719-4.776-44.889-13.639zm205.138 31.105c6.208-2.276 11.836-6.072 16.316-10.926 2.63-2.85 9.316-12.829 9.06-13.811l12.683 48.305-38.065-23.565z"/><path d="m246.38 408.161c3.088 4.505 9.291 5.791 13.87 2.76 4.554-3.014 5.757-9.343 2.76-13.87-3.013-4.552-9.343-5.757-13.87-2.76-4.571 3.026-5.729 9.326-2.76 13.87z"/></g></g></svg>