<svg height="512pt" viewBox="0 0 512 512" width="512pt" xmlns="http://www.w3.org/2000/svg"><path d="m473.53125 502h-435.109375c-15.695313 0-28.421875-12.726562-28.421875-28.421875v-435.15625c0-15.695313 12.726562-28.421875 28.421875-28.421875h435.109375c15.695312 0 28.421875 12.726562 28.421875 28.421875v435.15625c-.003906 15.695313-12.726563 28.421875-28.421875 28.421875zm0 0" fill="#ede6f5"/><path d="m473.53125 512h-435.109375c-21.1875 0-38.421875-17.234375-38.421875-38.421875v-435.15625c0-21.1875 17.238281-38.421875 38.421875-38.421875h435.105469c21.1875 0 38.421875 17.234375 38.421875 38.421875v435.15625c.003906 21.1875-17.234375 38.421875-38.417969 38.421875zm-435.109375-492c-10.15625 0-18.421875 8.265625-18.421875 18.421875v435.15625c0 10.15625 8.265625 18.421875 18.421875 18.421875h435.105469c10.160156 0 18.421875-8.265625 18.421875-18.421875v-435.15625c0-10.15625-8.261719-18.421875-18.421875-18.421875zm0 0"/><path d="m50.089844 232.757812c-5.523438 0-10-4.480468-10-10v-153.195312c0-16.25 13.21875-29.46875 29.464844-29.46875h153.179687c5.523437 0 10 4.476562 10 10s-4.476563 10-10 10h-153.179687c-5.21875 0-9.464844 4.246094-9.464844 9.46875v153.195312c0 5.519532-4.476563 10-10 10zm0 0"/><path d="m461.863281 222.730469c-5.523437 0-10-4.476563-10-10v-143.167969c0-5.222656-4.246093-9.46875-9.46875-9.46875h-153.179687c-5.519532 0-10-4.476562-10-10s4.480468-10 10-10h153.179687c16.25 0 29.46875 13.21875 29.46875 29.46875v143.171875c0 5.519531-4.480469 9.996094-10 9.996094zm0 0"/><path d="m442.394531 471.90625h-153.179687c-5.519532 0-10-4.476562-10-10s4.480468-10 10-10h153.179687c5.222657 0 9.46875-4.246094 9.46875-9.46875v-143.167969c0-5.523437 4.476563-10 10-10 5.519531 0 10 4.476563 10 10v143.167969c0 16.25-13.21875 29.46875-29.46875 29.46875zm0 0"/><path d="m222.734375 471.90625h-153.179687c-16.246094 0-29.464844-13.21875-29.464844-29.46875v-153.195312c0-5.519532 4.476562-10 10-10 5.523437 0 10 4.480468 10 10v153.195312c0 5.222656 4.246094 9.46875 9.464844 9.46875h153.179687c5.523437 0 10 4.476562 10 10s-4.476563 10-10 10zm0 0"/><path d="m461.867188 263.988281c-.660157 0-1.308594-.058593-1.960938-.1875-.640625-.128906-1.269531-.320312-1.871094-.570312-.597656-.25-1.179687-.558594-1.726562-.921875-.542969-.367188-1.0625-.777344-1.523438-1.25-1.859375-1.859375-2.929687-4.429688-2.929687-7.058594 0-.660156.070312-1.3125.199219-1.960938.132812-.640624.320312-1.269531.570312-1.867187.25-.601563.5625-1.183594.921875-1.730469.367187-.542968.777344-1.050781 1.238281-1.511718.460938-.46875.980469-.878907 1.519532-1.25.550781-.359376 1.132812-.667969 1.730468-.917969.601563-.25 1.230469-.441407 1.871094-.570313 1.289062-.261718 2.617188-.261718 3.910156 0 .636719.128906 1.269532.320313 1.867188.570313.601562.25 1.179687.558593 1.730468.917969.539063.371093 1.0625.78125 1.519532 1.25.460937.460937.882812.96875 1.242187 1.511718.359375.550782.667969 1.128906.917969 1.730469.25.597656.441406 1.226563.570312 1.867187.128907.652344.191407 1.300782.191407 1.960938 0 2.628906-1.0625 5.199219-2.921875 7.058594-.460938.472656-.980469.882812-1.519532 1.25-.550781.363281-1.128906.671875-1.730468.921875-.601563.25-1.230469.441406-1.871094.570312-.648438.128907-1.296875.1875-1.945312.1875zm0 0"/><path d="m50.085938 264c-.648438 0-1.3125-.070312-1.949219-.199219-.640625-.128906-1.273438-.320312-1.871094-.570312-.601563-.25-1.191406-.558594-1.730469-.921875-.550781-.359375-1.058594-.777344-1.519531-1.238282-.460937-.460937-.878906-.980468-1.238281-1.519531-.363282-.550781-.671875-1.128906-.921875-1.730469-.25-.601562-.441407-1.230468-.570313-1.871093-.128906-.648438-.199218-1.300781-.199218-1.949219 0-.660156.070312-1.308594.199218-1.960938.128906-.640624.320313-1.269531.570313-1.867187.25-.601563.558593-1.179687.921875-1.730469.359375-.539062.777344-1.050781 1.238281-1.511718 2.332031-2.328126 5.769531-3.390626 9.03125-2.738282.628906.128906 1.257813.320313 1.867187.570313.601563.25 1.183594.558593 1.722657.917969.550781.371093 1.058593.78125 1.519531 1.25.46875.460937.878906.972656 1.25 1.511718.359375.550782.667969 1.128906.917969 1.730469.25.597656.441406 1.226563.570312 1.867187.132813.652344.191407 1.300782.191407 1.960938 0 .648438-.058594 1.300781-.191407 1.949219-.128906.640625-.320312 1.273437-.570312 1.871093-.25.601563-.558594 1.179688-.917969 1.730469-.371094.539063-.78125 1.058594-1.25 1.519531-.460938.460938-.96875.878907-1.519531 1.238282-.539063.363281-1.121094.671875-1.722657.921875-.609374.25-1.238281.441406-1.867187.570312-.652344.128907-1.3125.199219-1.960937.199219zm0 0"/><path d="m224.914062 200.921875-38.117187-38.125 38.117187-38.121094-27.878906-27.882812-38.121094 38.125-38.117187-38.125-27.878906 27.882812 38.121093 38.121094-38.121093 38.125 27.878906 27.878906 38.117187-38.121093 38.121094 38.121093zm0 0" fill="#52607e"/><path d="m197.035156 238.804688c-2.652344 0-5.195312-1.054688-7.070312-2.933594l-31.046875-31.050782-31.050781 31.050782c-1.875 1.878906-4.417969 2.933594-7.070313 2.933594s-5.195313-1.054688-7.070313-2.933594l-27.878906-27.878906c-3.90625-3.90625-3.90625-10.238282 0-14.140626l31.050782-31.054687-31.050782-31.050781c-3.90625-3.90625-3.90625-10.234375 0-14.140625l27.878906-27.882813c1.875-1.875 4.417969-2.929687 7.070313-2.929687s5.195313 1.054687 7.070313 2.929687l31.050781 31.050782 31.046875-31.050782c1.875-1.875 4.417968-2.929687 7.070312-2.929687s5.195313 1.054687 7.070313 2.929687l27.878906 27.882813c3.90625 3.902343 3.90625 10.234375 0 14.140625l-31.046875 31.050781 31.046875 31.054687c3.90625 3.902344 3.90625 10.234376 0 14.140626l-27.878906 27.878906c-1.875 1.878906-4.417969 2.933594-7.070313 2.933594zm-38.121094-58.125c2.652344 0 5.199219 1.054687 7.074219 2.929687l31.046875 31.050781 13.738282-13.738281-31.050782-31.054687c-3.90625-3.902344-3.90625-10.234376 0-14.140626l31.050782-31.050781-13.738282-13.738281-31.046875 31.050781c-1.875 1.875-4.421875 2.929688-7.074219 2.929688-2.648437 0-5.195312-1.054688-7.070312-2.929688l-31.046875-31.050781-13.738281 13.738281 31.050781 31.050781c3.90625 3.90625 3.90625 10.238282 0 14.140626l-31.050781 31.054687 13.738281 13.738281 31.046875-31.050781c1.875-1.875 4.421875-2.929687 7.070312-2.929687zm0 0"/><path d="m343.984375 87.742188c-41.449219 0-75.046875 33.605468-75.046875 75.054687 0 41.453125 33.597656 75.058594 75.046875 75.058594s75.050781-33.605469 75.050781-75.058594c-.003906-41.449219-33.601562-75.054687-75.050781-75.054687zm0 110.019531c-19.273437 0-34.957031-15.6875-34.957031-34.964844s15.683594-34.960937 34.957031-34.960937c19.277344 0 34.960937 15.683593 34.960937 34.960937-.003906 19.277344-15.683593 34.964844-34.960937 34.964844zm0 0" fill="#f05f90"/><path d="m343.984375 247.855469c-46.894531 0-85.046875-38.15625-85.046875-85.058594 0-46.898437 38.152344-85.054687 85.046875-85.054687 46.898437 0 85.046875 38.15625 85.046875 85.054687 0 46.902344-38.152344 85.058594-85.046875 85.058594zm0-150.113281c-35.867187 0-65.046875 29.183593-65.046875 65.054687 0 35.875 29.179688 65.058594 65.046875 65.058594s65.046875-29.183594 65.046875-65.058594c0-35.871094-29.179688-65.054687-65.046875-65.054687zm0 110.019531c-24.789063 0-44.957031-20.171875-44.957031-44.960938 0-24.792969 20.167968-44.964843 44.957031-44.964843s44.960937 20.171874 44.960937 44.964843c0 24.789063-20.171874 44.960938-44.960937 44.960938zm0-69.925781c-13.761719 0-24.957031 11.199218-24.957031 24.964843 0 13.761719 11.195312 24.960938 24.957031 24.960938s24.960937-11.199219 24.960937-24.960938c0-13.765625-11.199218-24.964843-24.960937-24.964843zm0 0"/><path d="m287.039062 311.078125 38.117188 38.125-38.117188 38.121094 27.875 27.882812 38.121094-38.125 38.117188 38.125 27.878906-27.882812-38.117188-38.121094 38.117188-38.125-27.878906-27.878906-38.117188 38.121093-38.117187-38.121093zm0 0" fill="#52607e"/><path d="m391.15625 425.207031c-2.652344 0-5.195312-1.054687-7.070312-2.929687l-31.050782-31.050782-31.046875 31.050782c-1.875 1.875-4.417969 2.929687-7.070312 2.929687-2.652344 0-5.195313-1.054687-7.070313-2.929687l-27.878906-27.882813c-3.90625-3.90625-3.90625-10.238281 0-14.140625l31.046875-31.054687-31.046875-31.050781c-3.90625-3.90625-3.90625-10.238282 0-14.140626l27.878906-27.882812c1.875-1.875 4.417969-2.929688 7.070313-2.929688 2.652343 0 5.195312 1.054688 7.070312 2.929688l31.046875 31.050781 31.050782-31.050781c1.875-1.875 4.417968-2.929688 7.070312-2.929688s5.195312 1.054688 7.070312 2.929688l27.878907 27.882812c3.90625 3.902344 3.90625 10.234376 0 14.140626l-31.050781 31.050781 31.050781 31.054687c3.90625 3.902344 3.90625 10.234375 0 14.140625l-27.878907 27.882813c-1.875 1.875-4.417968 2.929687-7.070312 2.929687zm-38.121094-58.125c2.652344 0 5.195313 1.054688 7.070313 2.929688l31.050781 31.050781 13.734375-13.738281-31.046875-31.050781c-3.90625-3.90625-3.90625-10.234376 0-14.140626l31.046875-31.054687-13.734375-13.738281-31.050781 31.050781c-1.875 1.875-4.417969 2.929687-7.070313 2.929687s-5.195312-1.054687-7.070312-2.929687l-31.050782-31.050781-13.734374 13.738281 31.046874 31.054687c3.90625 3.902344 3.90625 10.234376 0 14.140626l-31.046874 31.050781 13.734374 13.738281 31.050782-31.050781c1.875-1.875 4.417968-2.929688 7.070312-2.929688zm0 0"/><path d="m167.96875 274.144531c-41.449219 0-75.050781 33.605469-75.050781 75.058594 0 41.449219 33.601562 75.054687 75.050781 75.054687 41.445312 0 75.046875-33.605468 75.046875-75.054687 0-41.453125-33.601563-75.058594-75.046875-75.058594zm0 110.019531c-19.277344 0-34.960938-15.683593-34.960938-34.960937s15.683594-34.964844 34.960938-34.964844c19.273438 0 34.957031 15.6875 34.957031 34.964844s-15.683593 34.960937-34.957031 34.960937zm0 0" fill="#f05f90"/><path d="m167.96875 434.257812c-46.898438 0-85.050781-38.15625-85.050781-85.054687 0-46.902344 38.152343-85.058594 85.050781-85.058594 46.894531 0 85.046875 38.15625 85.046875 85.058594 0 46.898437-38.152344 85.054687-85.046875 85.054687zm0-150.113281c-35.871094 0-65.050781 29.1875-65.050781 65.058594s29.179687 65.054687 65.050781 65.054687c35.867188 0 65.046875-29.183593 65.046875-65.054687 0-35.875-29.179687-65.058594-65.046875-65.058594zm0 110.019531c-24.792969 0-44.960938-20.171874-44.960938-44.964843 0-24.789063 20.167969-44.960938 44.960938-44.960938 24.789062 0 44.957031 20.171875 44.957031 44.960938 0 24.792969-20.167969 44.964843-44.957031 44.964843zm0-69.925781c-13.765625 0-24.960938 11.199219-24.960938 24.960938 0 13.765625 11.195313 24.964843 24.960938 24.964843 13.761719 0 24.957031-11.199218 24.957031-24.964843 0-13.761719-11.195312-24.960938-24.957031-24.960938zm0 0"/></svg>