<svg height="512pt" viewBox="0 0 512 512" width="512pt" xmlns="http://www.w3.org/2000/svg"><path d="m301.96875 55.628906c-21.507812-5.570312-38.441406-22.503906-44.011719-44.007812-.558593-2.160156-3.355469-2.160156-3.914062 0-5.570313 21.507812-22.503907 38.4375-44.011719 44.007812-2.160156.5625-2.160156 3.355469 0 3.917969 21.507812 5.566406 38.441406 22.5 44.011719 44.007813.558593 2.160156 3.355469 2.160156 3.914062 0 5.570313-21.507813 22.503907-38.4375 44.011719-44.007813 2.160156-.5625 2.160156-3.359375 0-3.917969zm0 0" fill="#ffdd52"/><path d="m256 115.175781c-5.464844 0-10.25-3.746093-11.640625-9.113281-4.671875-18.046875-18.789063-32.164062-36.835937-36.835938-5.363282-1.390624-9.109376-6.175781-9.109376-11.640624 0-5.460938 3.746094-10.246094 9.109376-11.636719 18.046874-4.675781 32.164062-18.789063 36.835937-36.835938 1.390625-5.367187 6.175781-9.113281 11.640625-9.113281s10.25 3.746094 11.640625 9.113281c4.671875 18.046875 18.789063 32.160157 36.835937 36.835938 5.363282 1.390625 9.109376 6.175781 9.109376 11.636719 0 5.464843-3.746094 10.25-9.109376 11.640624-18.046874 4.675782-32.164062 18.789063-36.835937 36.835938-1.390625 5.367188-6.175781 9.113281-11.640625 9.113281zm-24.921875-57.589843c10.25 6.09375 18.828125 14.671874 24.921875 24.921874 6.09375-10.25 14.671875-18.828124 24.921875-24.917968-10.253906-6.09375-18.828125-14.671875-24.921875-24.925782-6.09375 10.253907-14.671875 18.832032-24.921875 24.921876zm68.375 7.722656s.003906 0 .007813.003906c-.003907-.003906-.007813-.003906-.007813-.003906zm0 0"/><path d="m500.582031 112.015625c-18.847656-4.878906-33.683593-19.71875-38.5625-38.5625-.492187-1.890625-2.941406-1.890625-3.429687 0-4.882813 18.847656-19.71875 33.683594-38.5625 38.5625-1.894532.492187-1.894532 2.941406 0 3.429687 18.84375 4.882813 33.679687 19.71875 38.5625 38.5625.488281 1.894532 2.9375 1.894532 3.429687 0 4.878907-18.84375 19.71875-33.679687 38.5625-38.5625 1.890625-.488281 1.890625-2.9375 0-3.429687zm0 0" fill="#ffe681"/><path d="m460.304688 165.429688c-5.351563 0-10.039063-3.664063-11.398438-8.914063-3.980469-15.378906-16.011719-27.40625-31.386719-31.386719-5.25-1.359375-8.914062-6.046875-8.914062-11.398437 0-5.347657 3.664062-10.035157 8.910156-11.394531 15.378906-3.984376 27.410156-16.011719 31.390625-31.390626 1.359375-5.246093 6.046875-8.910156 11.398438-8.910156 5.347656 0 10.035156 3.664063 11.394531 8.910156 3.984375 15.378907 16.011719 27.40625 31.386719 31.390626 5.25 1.359374 8.914062 6.046874 8.914062 11.394531 0 5.351562-3.664062 10.039062-8.914062 11.398437-15.375 3.980469-27.402344 16.007813-31.386719 31.386719-1.359375 5.25-6.046875 8.914063-11.394531 8.914063zm-19.476563-51.699219c7.828125 4.996093 14.480469 11.648437 19.476563 19.476562 4.996093-7.828125 11.644531-14.480469 19.476562-19.476562-7.832031-4.996094-14.480469-11.644531-19.476562-19.476563-4.996094 7.832032-11.648438 14.480469-19.476563 19.476563zm57.246094 7.964843h.011719zm0 0"/><path d="m91.972656 112.015625c-18.84375-4.878906-33.679687-19.71875-38.5625-38.5625-.488281-1.890625-2.9375-1.890625-3.429687 0-4.878907 18.847656-19.71875 33.683594-38.558594 38.5625-1.894531.492187-1.894531 2.941406 0 3.429687 18.84375 4.882813 33.679687 19.71875 38.558594 38.5625.492187 1.894532 2.941406 1.894532 3.433593 0 4.878907-18.84375 19.71875-33.679687 38.5625-38.5625 1.890626-.488281 1.890626-2.9375-.003906-3.429687zm0 0" fill="#ffe681"/><path d="m51.695312 165.429688c-5.347656 0-10.035156-3.664063-11.394531-8.914063-3.984375-15.378906-16.011719-27.40625-31.390625-31.386719-5.246094-1.359375-8.910156-6.046875-8.910156-11.398437 0-5.351563 3.664062-10.035157 8.914062-11.394531 15.375-3.984376 27.402344-16.011719 31.386719-31.390626 1.359375-5.246093 6.046875-8.910156 11.394531-8.910156 5.351563 0 10.039063 3.664063 11.398438 8.910156 3.980469 15.378907 16.011719 27.40625 31.386719 31.390626h.003906c5.246094 1.359374 8.910156 6.046874 8.910156 11.394531 0 5.351562-3.664062 10.039062-8.910156 11.398437-15.378906 3.980469-27.40625 16.007813-31.390625 31.386719-1.359375 5.25-6.046875 8.914063-11.398438 8.914063zm-19.472656-51.699219c7.824219 4.996093 14.480469 11.648437 19.476563 19.476562 4.992187-7.828125 11.644531-14.480469 19.476562-19.476562-7.832031-4.996094-14.484375-11.644531-19.476562-19.476563-5 7.832032-11.648438 14.480469-19.476563 19.476563zm57.226563 7.960937c.003906 0 .011719.003906.019531.003906-.007812 0-.015625 0-.019531-.003906zm0 0"/><path d="m83.636719 305.839844v-126.675782c0-19.035156 15.429687-34.464843 34.464843-34.464843h275.796876c19.035156 0 34.464843 15.429687 34.464843 34.464843v126.675782" fill="#43b0fc"/><path d="m398.683594 502h-285.367188c-16.390625 0-29.679687-13.289062-29.679687-29.679688v-123.824218h344.726562v123.824218c0 16.390626-13.289062 29.679688-29.679687 29.679688zm0 0" fill="#52607e"/><path d="m391.410156 385.449219v79.597656h-270.820312v-79.597656zm0 0" fill="#ede6f5"/><path d="m412.882812 305.839844c3.171876-20.125-8.0625-37.890625-38.738281-46.167969-4.453125-1.046875-8.125-5.589844-9.171875-10.042969-7.867187-28.570312-21.847656-45.609375-61.695312-35.125-4.71875 1.3125-9.4375 0-12.585938-3.40625-11.796875-11.792968-22.808594-19.132812-35.128906-19.132812-10.488281 0-21.757812 5.765625-35.128906 19.132812-3.144532 3.40625-8.128906 4.71875-12.582032 3.40625-28.578124-7.597656-50.074218-4.980468-60.824218 35.125-1.046875 4.453125-4.71875 8.996094-9.171875 10.042969-30.675781 8.277344-41.910157 26.042969-38.738281 46.167969zm0 0" fill="#ffdd52"/><path d="m333.144531 262.164062c-2.558593 0-5.117187-.976562-7.070312-2.929687-4.277344-4.277344-11.238281-4.277344-15.519531 0-3.902344 3.90625-10.234376 3.90625-14.144532 0-3.902344-3.90625-3.902344-10.238281.003906-14.144531 12.074219-12.070313 31.726563-12.070313 43.800782 0 3.90625 3.90625 3.90625 10.238281.003906 14.144531-1.953125 1.953125-4.515625 2.929687-7.074219 2.929687zm0 0"/><path d="m244.066406 273.921875c-5.519531 0-10-4.480469-10-10 0-6.050781-4.921875-10.96875-10.972656-10.96875s-10.972656 4.917969-10.972656 10.96875c0 5.519531-4.476563 10-10 10-5.523438 0-10-4.480469-10-10 0-17.078125 13.894531-30.96875 30.972656-30.96875s30.972656 13.890625 30.972656 30.96875c0 5.519531-4.476562 10-10 10zm0 0"/><path d="m71.019531 305.839844h369.964844v42.65625h-369.964844zm0 0" fill="#00d2d7"/><path d="m342.769531 435.25c-.648437 0-1.308593-.070312-1.949219-.199219-.640624-.128906-1.269531-.320312-1.871093-.570312-.609375-.25-1.1875-.558594-1.726563-.921875-.550781-.359375-1.0625-.777344-1.523437-1.238282-.457031-.460937-.878907-.96875-1.238281-1.519531-.359376-.539062-.671876-1.121093-.921876-1.730469-.25-.601562-.449218-1.230468-.566406-1.871093-.132812-.640625-.203125-1.300781-.203125-1.949219s.070313-1.308594.203125-1.960938c.117188-.628906.316406-1.257812.566406-1.867187.25-.601563.5625-1.179687.921876-1.722656.359374-.550781.78125-1.058594 1.238281-1.519531.460937-.460938.972656-.878907 1.523437-1.25.539063-.359376 1.117188-.667969 1.726563-.917969.601562-.25 1.230469-.441407 1.871093-.570313 1.289063-.261718 2.621094-.261718 3.910157 0 .628906.128906 1.261719.320313 1.871093.570313.597657.25 1.179688.558593 1.71875.917969.550782.371093 1.0625.789062 1.519532 1.25.460937.460937.882812.96875 1.25 1.519531.359375.542969.671875 1.121093.910156 1.722656.25.609375.449219 1.238281.570312 1.867187.128907.652344.199219 1.3125.199219 1.960938s-.070312 1.3125-.199219 1.949219c-.121093.640625-.320312 1.273437-.570312 1.871093-.25.609376-.558594 1.191407-.917969 1.730469-.359375.550781-.78125 1.058594-1.242187 1.519531-.457032.460938-.96875.878907-1.519532 1.238282-.539062.363281-1.121093.671875-1.71875.921875-.609374.25-1.242187.441406-1.871093.570312-.652344.128907-1.308594.199219-1.960938.199219zm0 0"/><path d="m120.589844 475.046875h270.820312c5.523438 0 10-4.476563 10-10v-79.597656c0-5.523438-4.476562-10-10-10h-270.820312c-5.523438 0-10 4.476562-10 10v79.597656c0 5.523437 4.476562 10 10 10zm260.820312-79.597656v59.597656h-250.820312v-19.800781h174.078125c5.523437 0 10-4.476563 10-10 0-5.519532-4.476563-10-10-10h-174.078125v-19.796875zm0 0"/><path d="m440.980469 295.839844h-2.617188v-116.675782c0-24.519531-19.949219-44.464843-44.46875-44.464843h-275.789062c-24.519531 0-44.46875 19.945312-44.46875 44.464843v116.675782h-2.617188c-5.523437 0-10 4.476562-10 10v42.65625c0 5.523437 4.476563 10 10 10h2.617188v113.820312c0 21.882813 17.800781 39.683594 39.679687 39.683594h285.367188c21.878906 0 39.679687-17.800781 39.679687-39.683594v-113.820312h2.621094c5.523437 0 10-4.476563 10-10v-42.65625c-.003906-5.523438-4.480469-10-10.003906-10zm-359.960938 42.65625v-22.65625h349.964844v22.65625zm27.847657-42.65625c2.164062-15.175782 17.671874-22.734375 31.46875-26.480469 7.78125-1.914063 14.332031-8.816406 16.386718-17.269531 8.707032-32.355469 22.574219-34.816406 48.453125-27.949219 8.011719 2.296875 16.777344-.082031 22.441407-6.089844 10.855468-10.824219 20-16.085937 27.945312-16.085937 8.167969 0 16.789062 4.964844 27.941406 16.089844 5.667969 6.007812 14.210938 8.34375 22.371094 6.105468 32.8125-8.621094 42.414062 2.648438 49.410156 27.964844 2.0625 8.4375 8.609375 15.324219 16.378906 17.234375 13.796876 3.742187 29.300782 11.304687 31.46875 26.480469zm9.238281-141.140625h275.792969c13.488281 0 24.464843 10.976562 24.464843 24.464843v99.578126c-1.210937-2.289063-2.636719-4.488282-4.277343-6.589844-7.929688-10.144532-20.488282-17.589844-37.335938-22.136719-.074219-.019531-.152344-.039063-.230469-.058594-.546875-.269531-1.542969-1.480469-1.8125-2.621093-.027343-.121094-.058593-.242188-.09375-.363282-3.214843-11.6875-9.082031-28.316406-22.816406-37.785156-12.570313-8.664062-29.273437-10.085938-51.0625-4.351562-.046875.011718-.089844.019531-.132813.035156-.742187.203125-1.789062.277344-2.5625-.558594-.089843-.097656-.183593-.195312-.273437-.289062-10.277344-10.269532-24.355469-22.058594-42.203125-22.058594-13.734375 0-27.144531 7.011718-42.199219 22.058594-.09375.097656-.1875.191406-.277343.292968-.539063.582032-1.578126.839844-2.414063.59375-.082031-.023437-.167969-.046875-.25-.070312-26.832031-7.136719-59.382813-8.789063-73.050781 42.199218-.027344.097657-.050782.199219-.074219.300782-.269531 1.136718-1.269531 2.351562-1.8125 2.617187-.078125.019531-.15625.039063-.234375.0625-16.84375 4.542969-29.402344 11.992188-37.332031 22.136719-1.640625 2.097656-3.066407 4.296875-4.277344 6.589844v-99.578125c-.003906-13.492188 10.972656-24.46875 24.464844-24.46875zm300.257812 317.617187c0 10.855469-8.828125 19.683594-19.679687 19.683594h-285.367188c-10.851562 0-19.679687-8.828125-19.679687-19.683594v-113.820312h324.726562zm0 0"/></svg>