<svg id="Capa_1" enable-background="new 0 0 512 512" height="512" viewBox="0 0 512 512" width="512" xmlns="http://www.w3.org/2000/svg"><g><g><circle cx="375.657" cy="323.815" fill="#a0c8ff" r="118.634"/></g><g><path d="m17.708 442.448c14.79-39.971 22.361-82.252 22.361-124.864v-220.356h333.559v107.983c-64.592 1.07-116.603 53.762-116.603 118.603 0 65.522 53.112 118.633 118.633 118.633h-357.95z" fill="#ddb7a2"/></g><g><path d="m17.709 442.451h378.28v59.549h-378.28z" fill="#e0a083"/></g><g><circle cx="125.19" cy="152.974" fill="#e0a083" r="19.978"/></g><g><circle cx="288.509" cy="152.974" fill="#e0a083" r="19.978"/></g><g><path d="m216.08 438.62c-2.095-5.025-8.018-7.493-13.06-5.41-5.031 2.079-7.486 8.043-5.4 13.06 2.093 5.034 8.007 7.493 13.05 5.41 5.053-2.088 7.475-8.018 5.41-13.06z"/><path d="m416.332 253.697c-4.795-2.741-10.904-1.076-13.645 3.718l-69.769 122.038c-2.741 4.795-1.076 10.904 3.718 13.645 1.566.895 3.271 1.32 4.954 1.32 3.471 0 6.845-1.81 8.691-5.039l69.769-122.038c2.741-4.794 1.077-10.903-3.718-13.644z"/><path d="m367.193 279.206c0-17.929-13.178-32.516-29.375-32.516s-29.376 14.586-29.376 32.516 13.178 32.516 29.376 32.516 29.375-14.587 29.375-32.516zm-38.752 0c0-6.784 4.293-12.516 9.376-12.516 5.082 0 9.375 5.731 9.375 12.516s-4.293 12.516-9.375 12.516-9.376-5.732-9.376-12.516z"/><path d="m413.267 337.161c-16.324 0-29.605 14.706-29.605 32.782s13.281 32.782 29.605 32.782c16.325 0 29.605-14.706 29.605-32.782s-13.28-32.782-29.605-32.782zm0 45.564c-5.207 0-9.605-5.854-9.605-12.782s4.398-12.782 9.605-12.782 9.605 5.854 9.605 12.782-4.398 12.782-9.605 12.782z"/><path d="m504.291 323.814c0-68.251-53.433-124.248-120.663-128.38v-98.205c0-5.523-4.477-10-10-10h-75.228c-2.32-48.492-42.495-87.229-91.551-87.229-49.055 0-89.231 38.737-91.55 87.229h-75.23c-5.523 0-10 4.477-10 10v220.356c0 41.566-7.314 82.409-21.739 121.393-.417 1.126-.631 2.366-.62 3.565v59.457c0 5.523 4.477 10 10 10h378.28c5.523 0 10-4.477 10-10v-53.174c56.338-13.671 98.301-64.529 98.301-125.012zm-215.782-180.817c5.502 0 9.978 4.476 9.978 9.978 0 5.501-4.476 9.978-9.978 9.978-5.501 0-9.978-4.476-9.978-9.978s4.476-9.978 9.978-9.978zm-81.659-122.997c38.024 0 69.211 29.773 71.509 67.229h-143.019c2.299-37.456 33.486-67.229 71.51-67.229zm-81.66 122.997c5.501 0 9.978 4.476 9.978 9.978 0 5.501-4.476 9.978-9.978 9.978s-9.978-4.476-9.978-9.978 4.476-9.978 9.978-9.978zm260.799 349.003h-358.28v-39.549h134.991c5.451 0 10.002-4.552 10.002-10.002 0-5.523-4.477-10-10-10h-130.921c12.141-37.113 18.288-75.684 18.288-114.863v-210.357h65.121v17.489c-11.627 4.127-19.978 15.233-19.978 28.257 0 16.53 13.448 29.978 29.978 29.978s29.978-13.448 29.978-29.978c0-13.024-8.351-24.129-19.978-28.257v-17.49h143.319v17.49c-11.627 4.127-19.978 15.233-19.978 28.257 0 16.53 13.448 29.978 29.978 29.978s29.978-13.448 29.978-29.978c0-13.024-8.351-24.13-19.978-28.257v-17.489h65.12v88.518c-65.276 6.044-116.605 62.579-116.605 128.068 0 43.671 22.962 85.218 59.812 108.634h-56.951c-5.523 0-10 4.477-10 10 0 5.425 4.58 10.002 10 10.002h136.104zm7.22-60.977c-5.797.945-11.677 1.425-17.551 1.425-59.9 0-108.633-48.733-108.633-108.633 0-59.117 49.518-108.634 108.632-108.634 59.901 0 108.634 48.733 108.634 108.634 0 53.925-39.498 98.792-91.082 107.208z"/></g></g></svg>