<svg height="512pt" viewBox="0 -24 512 512" width="512pt" xmlns="http://www.w3.org/2000/svg"><path d="m31.117188 409.046875h449.765624c11.664063 0 21.117188-9.449219 21.117188-21.101563v-356.84375c0-11.652343-9.453125-21.101562-21.117188-21.101562h-449.765624c-11.664063 0-21.117188 9.449219-21.117188 21.101562v356.84375c0 11.652344 9.453125 21.101563 21.117188 21.101563zm0 0" fill="#43b0fc"/><path d="m400.964844 51.84375h59.164062v315.359375h-408.257812v-315.359375h240.65625" fill="#ede6f5"/><path d="m342.851562 61.847656c-2.632812 0-5.210937-1.070312-7.070312-2.929687-.460938-.457031-.882812-.980469-1.25-1.519531-.359375-.550782-.671875-1.128907-.921875-1.730469-.25-.597657-.4375-1.230469-.570313-1.867188-.128906-.652343-.1875-1.300781-.1875-1.960937 0-.652344.058594-1.300782.1875-1.949219.132813-.640625.320313-1.273437.570313-1.871094.25-.601562.5625-1.179687.921875-1.730469.367188-.539062.789062-1.050781 1.25-1.519531 2.320312-2.320312 5.769531-3.378906 9.019531-2.730469.640625.128907 1.269531.320313 1.871094.570313.609375.25 1.1875.558594 1.730469.917969.550781.371094 1.058594.78125 1.519531 1.242187 1.859375 1.859375 2.929687 4.441407 2.929687 7.070313 0 .660156-.070312 1.308594-.199218 1.960937-.132813.636719-.320313 1.269531-.570313 1.867188-.25.601562-.5625 1.179687-.921875 1.730469-.359375.539062-.777344 1.0625-1.238281 1.519531-.460937.460937-.96875.882812-1.519531 1.242187-.539063.359375-1.121094.667969-1.730469.917969-.601563.25-1.230469.441406-1.871094.570313-.640625.128906-1.300781.199218-1.949219.199218zm0 0"/><path d="m187.007812 409.046875h137.984376v45.132813h-137.984376zm0 0" fill="#f05f90"/><path d="m480.882812 0h-449.765624c-17.15625 0-31.117188 13.953125-31.117188 31.101562v356.84375c0 17.148438 13.960938 31.101563 31.117188 31.101563h145.890624v25.132813h-70.835937c-5.523437 0-10 4.476562-10 10 0 5.519531 4.476563 10 10 10h299.65625c5.523437 0 10-4.480469 10-10 0-5.523438-4.476563-10-10-10h-70.835937v-25.132813h145.890624c17.15625 0 31.117188-13.953125 31.117188-31.101563v-356.84375c0-17.148437-13.960938-31.101562-31.117188-31.101562zm-165.890624 444.179688h-117.984376v-25.132813h117.984376zm177.007812-56.234376c0 6.121094-4.988281 11.101563-11.117188 11.101563h-449.765624c-6.128907 0-11.117188-4.980469-11.117188-11.101563v-356.84375c0-6.121093 4.988281-11.101562 11.117188-11.101562h449.765624c6.128907 0 11.117188 4.980469 11.117188 11.101562zm0 0"/><path d="m460.128906 41.84375h-59.164062c-5.519532 0-10 4.476562-10 10s4.480468 10 10 10h49.164062v295.359375h-388.257812v-295.359375h230.65625c5.523437 0 10-4.476562 10-10s-4.476563-10-10-10h-240.65625c-5.519532 0-10 4.476562-10 10v315.359375c0 5.523437 4.480468 10 10 10h408.257812c5.519532 0 10-4.476563 10-10v-315.359375c0-5.523438-4.480468-10-10-10zm0 0"/><path d="m340.460938 146.171875h-168.921876c-43.578124 0-78.902343 35.347656-78.902343 78.957031 0 43.605469 35.324219 78.957032 78.902343 78.957032 35.824219 0 66.066407-23.894532 75.699219-56.621094h17.523438c9.628906 32.726562 39.875 56.621094 75.699219 56.621094 43.578124 0 78.902343-35.351563 78.902343-78.957032 0-43.609375-35.324219-78.957031-78.902343-78.957031zm0 0" fill="#52607e"/><path d="m340.460938 314.085938c-19.585938 0-38.164063-6.25-53.722657-18.078126-13.023437-9.894531-23.171875-23.390624-29.109375-38.542968h-3.257812c-5.9375 15.152344-16.085938 28.648437-29.109375 38.542968-15.558594 11.828126-34.136719 18.078126-53.722657 18.078126-49.019531 0-88.902343-39.90625-88.902343-88.957032 0-49.050781 39.882812-88.957031 88.902343-88.957031h168.921876c49.019531 0 88.902343 39.90625 88.902343 88.957031 0 49.050782-39.882812 88.957032-88.902343 88.957032zm-93.222657-76.621094h17.523438c4.4375 0 8.339843 2.921875 9.59375 7.175781 8.566406 29.113281 35.75 49.441406 66.105469 49.441406 37.992187 0 68.902343-30.933593 68.902343-68.953125 0-38.023437-30.910156-68.957031-68.902343-68.957031h-168.921876c-37.992187 0-68.902343 30.933594-68.902343 68.957031 0 38.019532 30.910156 68.953125 68.902343 68.953125 30.355469 0 57.539063-20.332031 66.105469-49.441406 1.25-4.253906 5.15625-7.175781 9.59375-7.175781zm0 0"/><path d="m202.449219 225.128906c0-18.285156-14.8125-33.109375-33.085938-33.109375-18.273437 0-33.085937 14.824219-33.085937 33.109375s14.8125 33.109375 33.085937 33.109375c18.273438 0 33.085938-14.824219 33.085938-33.109375zm0 0" fill="#7ccafd"/><path d="m169.363281 268.238281c-23.757812 0-43.085937-19.335937-43.085937-43.105469 0-23.773437 19.328125-43.109374 43.085937-43.109374 23.757813 0 43.085938 19.335937 43.085938 43.109374 0 23.765626-19.328125 43.105469-43.085938 43.105469zm0-66.214843c-12.730469 0-23.085937 10.367187-23.085937 23.109374 0 12.738282 10.355468 23.105469 23.085937 23.105469s23.085938-10.367187 23.085938-23.105469c0-12.746093-10.355469-23.109374-23.085938-23.109374zm0 0"/><path d="m378.199219 210.132812h-20.910157v-20.917968h-28.878906v20.917968h-20.910156v28.890626h20.910156v20.917968h28.878906v-20.917968h20.910157zm0 0" fill="#ffe681"/><path d="m357.289062 269.941406h-28.878906c-5.523437 0-10-4.476562-10-10v-10.917968h-10.910156c-5.523438 0-10-4.476563-10-10v-28.890626c0-5.523437 4.476562-10 10-10h10.910156v-10.917968c0-5.523438 4.476563-10 10-10h28.878906c5.519532 0 10 4.476562 10 10v10.917968h10.910157c5.519531 0 10 4.476563 10 10v28.890626c0 5.523437-4.480469 10-10 10h-10.910157v10.917968c0 5.523438-4.480468 10-10 10zm-18.878906-20h8.878906v-10.917968c0-5.523438 4.476563-10 10-10h10.910157v-8.890626h-10.910157c-5.523437 0-10-4.476562-10-10v-10.917968h-8.878906v10.917968c0 5.523438-4.480468 10-10 10h-10.910156v8.890626h10.910156c5.519532 0 10 4.476562 10 10zm0 0"/></svg>