<svg id="Capa_1" enable-background="new 0 0 512 512" height="512" viewBox="0 0 512 512" width="512" xmlns="http://www.w3.org/2000/svg"><g><g><ellipse cx="168.775" cy="266.914" fill="#fff" rx="125.153" ry="125.364"/></g><g><path d="m219.902 312.274-27.75-56.725c-2.612-5.254-6.786-9.436-12.033-12.053l-56.628-27.796c-3.64-1.787-7.626 2.21-5.843 5.853l27.75 56.725c2.612 5.254 6.786 9.435 12.033 12.053l56.629 27.797c3.603 1.769 7.645-2.169 5.842-5.854z" fill="#ff7e96"/></g><g><path d="m326.101 441.629h-157.324v60.371h173.91v-43.785c0-9.163-7.423-16.586-16.586-16.586z" fill="#a0e4a5"/></g><g><path d="m342.687 375.696v-256.778c-8.733 7.072-18.646 12.734-29.42 16.616-10.764 3.891-22.368 6.012-34.482 6.012h-110.008c69.114 0 125.153 56.129 125.153 125.373 0 69.234-56.039 125.363-125.153 125.363h157.324c9.163 0 16.586-7.423 16.586-16.586z" fill="#a0c8ff"/></g><g><path d="m342.687 27.716v-17.716h-173.91v81.618h110.008c35.292 0 63.902-28.61 63.902-63.902z" fill="#a0e4a5"/></g><g><path d="m389.333 10v155.884c0 9.163 7.423 16.586 16.586 16.586h62.462v-172.47z" fill="#a0c8ff"/></g><g><path d="m468.38 227.695h-62.462c-9.163 0-16.586 7.433-16.586 16.586v257.719h79.047v-274.305z" fill="#a0e4a5"/></g><g><path d="m389.333 165.884v-155.884h-46.646v17.716c0 35.292-28.61 63.902-63.902 63.902h-110.008v49.927h110.008c12.114 0 23.718-2.121 34.482-6.012 10.774-3.881 20.687-9.543 29.42-16.616v256.779c0 9.163-7.423 16.586-16.586 16.586h-157.324v49.347h157.324c9.163 0 16.586 7.423 16.586 16.586v43.785h46.646v-257.719c0-9.153 7.423-16.586 16.586-16.586h62.462v-45.225h-62.462c-9.164 0-16.586-7.423-16.586-16.586z" fill="#fff"/></g><g><path d="m209.654 327.105c1.981.972 4.111 1.444 6.229 1.444 3.73 0 7.424-1.464 10.206-4.243 4.352-4.347 5.476-10.948 2.795-16.427l-27.778-56.781c-3.593-7.228-9.306-12.95-16.581-16.578l-56.628-27.797c-5.468-2.685-12.068-1.564-16.423 2.786-4.361 4.355-5.489 10.962-2.81 16.438l27.778 56.783c3.593 7.227 9.307 12.949 16.581 16.577zm-75.799-95.177 41.801 20.518c3.293 1.643 5.901 4.256 7.513 7.499l20.526 41.957-41.801-20.519c-3.293-1.643-5.901-4.256-7.514-7.499z"/><path d="m468.38 0h-299.604c-5.523 0-10 4.478-10 10v81.618 40.303c-69.86 5.141-125.134 63.7-125.154 134.955 0 .013-.002.026-.002.039s.002.026.002.039c.02 71.254 55.294 129.814 125.154 134.955v100.091c0 5.522 4.477 10 10 10h299.604c5.523 0 10-4.478 10-10v-89.514c0-5.522-4.477-10-10-10s-10 4.478-10 10v79.514h-59.047v-247.719c0-3.632 2.955-6.586 6.586-6.586h52.461v86.772c0 5.522 4.477 10 10 10s10-4.478 10-10v-314.467c0-5.522-4.477-10-10-10zm-10 172.47h-52.461c-3.631 0-6.586-2.954-6.586-6.586v-145.884h59.047zm-279.604-152.47h153.91v7.716c0 29.722-24.18 53.902-53.902 53.902h-100.008zm61.723 361.592c40.275-25.361 64.752-71.08 63.364-118.683-1.32-45.211-25.959-87.633-64.448-111.363h39.37c13.008 0 25.753-2.224 37.871-6.604 5.538-1.995 10.893-4.422 16.031-7.264v238.019c0 3.632-2.954 6.586-6.585 6.586h-86.684c.364-.225.719-.463 1.081-.691zm-186.44-104.678h11.855c5.523 0 10-4.478 10-10s-4.477-10-10-10h-11.855c4.792-55.645 49.177-100.116 104.717-104.924v11.888c0 5.522 4.477 10 10 10s10-4.478 10-10v-11.888c55.539 4.811 99.921 49.281 104.713 104.924h-11.851c-5.523 0-10 4.478-10 10s4.477 10 10 10h11.851c-4.792 55.643-49.175 100.114-104.713 104.924v-11.888c0-5.522-4.477-10-10-10s-10 4.478-10 10v11.888c-55.54-4.808-99.925-49.279-104.717-104.924zm124.717 174.715h147.325c3.631 0 6.585 2.954 6.585 6.586v33.785h-153.91zm227.142-233.934c-14.66 0-26.586 11.927-26.586 26.586v247.719h-26.646v-33.785c0-14.659-11.926-26.586-26.585-26.586h-147.325v-29.347h147.325c14.659 0 26.585-11.927 26.585-26.586v-256.778c0-3.854-2.216-7.366-5.695-9.026-3.481-1.659-7.603-1.171-10.599 1.255-8.009 6.486-16.93 11.525-26.526 14.982-9.942 3.595-20.399 5.417-31.082 5.417h-100.008v-29.928h100.008c40.75 0 73.902-33.152 73.902-73.902v-7.716h26.646v145.884c0 14.659 11.926 26.586 26.586 26.586h52.461v25.226h-52.461z"/><path d="m476.69 362.3c-2.982-4.556-9.357-5.779-13.86-2.77-4.54 3.034-5.769 9.331-2.76 13.869 3.015 4.547 9.333 5.763 13.86 2.761 4.544-3.014 5.775-9.336 2.76-13.86z"/></g></g></svg>