<svg id="Capa_1" enable-background="new 0 0 512 512" height="512" viewBox="0 0 512 512" width="512" xmlns="http://www.w3.org/2000/svg"><g><g><path d="m192.373 205.241h95.531c4.099 0 7.687 2.75 8.734 6.713 1.961 7.426 5.681 19.838 11.142 31.14 2.907 6.017-1.434 13.004-8.117 13.004h-107.289c-14.044 0-25.428-11.385-25.428-25.428-.002-13.859 11.569-25.429 25.427-25.429z" fill="#ccd3dd"/></g><g><path d="m161.159 397.78v47.7h-60.35l-11.78-52.37h25.51c15.69 0 31.31 1.57 46.62 4.67z" fill="#a0c8ff"/></g><g><path d="m444.709 393.81v31.04c0 11.394-9.236 20.63-20.63 20.63h-114.92c-14.09 0-28.05-2.77-41.07-8.16l-63.845-26.397c-28.445-11.761-58.926-17.813-89.707-17.813h-25.508l-3.96-17.58c-2.79-12.41-2.33-25.32 1.34-37.49l14.59-48.44c2.08-6.9 3.14-14.07 3.14-21.28v-108.5h75.22c12.18 0 24.27-2.09 35.74-6.2l25.52-9.12 23.32-8.38v21.24 47.88h-71.57c-14.043 0-25.679 11.888-25.415 25.917.262 13.95 12.052 24.943 26.005 24.943h86.831c15.75 32.88 41.8 57.74 83.58 72.63l47.34 16.87c20.379 7.26 33.999 26.57 33.999 48.21z" fill="#ccd3dd"/></g><g><path d="m250.619 10-10 134.5-25.51 9.12c-11.48 4.1-23.57 6.2-35.75 6.2h-75.22l-20.87-149.82z" fill="#ffdad5"/></g><g><path d="m263.939 205.24h-48.83v-51.62l48.83-17.5z" fill="#a0c8ff"/></g><g><path d="m294.66 342.455c26.087 16.414 60.07 12.45 82.385-8.811.016-.016.025-.023.025-.023v-.01l-13.7-4.88c-41.78-14.89-67.84-39.75-83.58-72.63h-51.32c3.903 10.13 8.618 19.898 14.083 29.211 13.834 23.577 31.044 43.889 52.107 57.143z" fill="#a0c8ff"/></g><g><path d="m454.709 424.85v-31.04c0-25.811-16.334-48.971-40.644-57.63l-33.583-11.968c-33.478-12.164-63.863-27.018-83.731-58.115h2.91c6.589 0 12.611-3.33 16.11-8.907 3.511-5.595 3.889-12.491 1.011-18.447-5.235-10.835-8.812-23.036-10.478-29.344-2.202-8.336-9.77-14.159-18.402-14.159h-13.964v-59.12c0-6.787-6.97-11.705-13.374-9.414l-8.831 3.165 8.857-119.13c.206-2.773-.752-5.507-2.645-7.545-1.89-2.038-4.545-3.196-7.326-3.196h-167.35c-2.893 0-5.644 1.253-7.543 3.435s-2.761 5.08-2.361 7.945l4.43 31.803c.762 5.47 5.811 9.292 11.284 8.525 5.47-.762 9.286-5.814 8.524-11.284l-2.844-20.424h145.089l-8.718 117.256s-21.491 7.663-22.54 7.999c-9.471 3.021-19.286 4.565-29.231 4.565h-66.517l-3.112-22.341c-.763-5.47-5.812-9.291-11.284-8.524-5.47.762-9.286 5.814-8.524 11.284l4.218 30.274v107.807c0 6.229-.913 12.418-2.716 18.396l-14.589 48.437c-4.157 13.787-4.684 28.508-1.521 42.575l15.74 69.946c1.026 4.563 5.078 7.806 9.756 7.806h20.825v36.52h-2.452c-16.734 0-32.481-5.03-46.742-13.594-4.735-2.844-10.879-1.31-13.721 3.425-2.843 4.735-1.31 10.878 3.426 13.721 13.183 7.919 27.42 13.416 42.714 15.484 4.745.641 9.534.964 14.323.964h297.262c21.098 0 38.262-17.164 38.262-38.261 0-10.05-3.901-19.203-10.26-26.037 6.291-5.614 10.262-13.777 10.262-22.852zm-99.028-88.298c-17.589 8.735-38.668 8.152-55.696-2.562-18.173-11.435-34.595-29.516-48.809-53.741-2.697-4.597-5.209-9.326-7.516-14.149h29.965c13.458 25.509 34.048 46.202 59.346 60.021 7.318 3.997 14.921 7.459 22.71 10.431zm-57.547-90.454h-105.225c-8.062-.025-14.82-5.917-15.825-13.463-1.171-9.077 6.128-17.394 15.289-17.394h94.791c2.194 8.198 5.807 19.85 10.97 30.857zm-73.025-85.433 28.83-10.326v44.901h-28.83zm-129.125 180.259 14.589-48.438c2.366-7.85 3.566-15.98 3.566-24.167v-98.5h65.22c8.715 0 17.33-.985 25.75-2.902v28.323h-12.74c-15.852 0-30.191 10.976-34.239 26.33-1.007 3.821-1.374 7.811-1.076 11.751 1.389 18.665 17.41 32.78 35.905 32.78h28.781c3.533 8.335 7.613 16.477 12.186 24.271 15.853 27.018 34.494 47.389 55.408 60.547 12.491 7.86 26.578 11.702 40.633 11.702 17.533 0 35.005-6 49.272-17.619l28.114 10.019c16.362 5.828 27.355 21.417 27.355 38.79v31.04c0 5.861-4.769 10.63-10.63 10.63l-114.915-.003c-.016 0-.032.002-.048.002-12.839-.005-25.354-2.495-37.206-7.401l-63.846-26.396c-29.789-12.316-61.237-18.564-93.47-18.572-.018 0-.037-.001-.055-.001h-.002-17.51l-2.201-9.773c-2.407-10.709-2.007-21.916 1.159-32.413zm5.544 62.186c10.885 0 21.755-.091 32.612.863 5.697.501 11.376 1.207 17.019 2.137v29.37h-42.35zm40.107 88.89v-36.52h19.524c5.522 0 10-4.477 10-10v-35.124c9.917 2.587 19.686 5.848 29.265 9.808l63.841 26.395c11.205 4.639 22.906 7.477 34.899 8.492v36.949zm274.809 0h-97.28v-36.52h97.343c10.04.032 18.199 8.209 18.199 18.259 0 10.069-8.193 18.261-18.262 18.261z"/><path d="m85.39 90.46c4.844 7.391 16.653 4.818 18.162-3.835 1.6-9.168-9.68-15.357-16.568-9.122-3.628 3.285-4.297 8.894-1.594 12.957z"/></g></g></svg>