<svg height="512pt" viewBox="-4 0 512 512" width="512pt" xmlns="http://www.w3.org/2000/svg"><path d="m362.746094 133.730469c-.648438 0-1.300782-.058594-1.949219-.191407-.640625-.128906-1.269531-.320312-1.867187-.570312-.601563-.25-1.183594-.558594-1.730469-.917969-.542969-.371093-1.0625-.78125-1.519531-1.25-.460938-.460937-.882813-.972656-1.242188-1.519531-.359375-.542969-.667969-1.121094-.917969-1.722656-.25-.609375-.441406-1.230469-.570312-1.867188-.132813-.652344-.203125-1.3125-.203125-1.960937 0-.652344.070312-1.308594.203125-1.949219.128906-.640625.320312-1.269531.570312-1.871094.25-.609375.558594-1.191406.917969-1.730468.359375-.550782.78125-1.058594 1.242188-1.519532 1.855468-1.859375 4.4375-2.929687 7.066406-2.929687 2.640625 0 5.210937 1.070312 7.070312 2.929687.46875.460938.878906.96875 1.25 1.519532.359375.539062.671875 1.121093.921875 1.730468.25.601563.4375 1.230469.570313 1.871094.128906.640625.1875 1.296875.1875 1.949219 0 .648437-.058594 1.308593-.1875 1.960937-.132813.636719-.320313 1.257813-.570313 1.867188-.25.601562-.5625 1.179687-.921875 1.722656-.371094.546875-.78125 1.058594-1.25 1.519531-1.847656 1.871094-4.429687 2.929688-7.070312 2.929688zm0 0"/><path d="m330.117188 286.980469c-23.507813 0-42.632813-19.121094-42.632813-42.625v-40.753907c0-5.523437 4.480469-10 10-10 5.523437 0 10 4.476563 10 10v40.753907c0 12.476562 10.152344 22.625 22.632813 22.625 12.480468 0 22.636718-10.148438 22.636718-22.625v-81.496094c0-5.519531 4.476563-10 10-10 5.519532 0 10 4.480469 10 10v81.496094c-.003906 23.503906-19.128906 42.625-42.636718 42.625zm0 0"/><path d="m10 388.6875h484.453125v113.3125h-484.453125zm0 0" fill="#52607e"/><path d="m50.375 429.046875h403.703125v32.59375h-403.703125zm0 0" fill="#ede6f5"/><path d="m454.078125 471.640625h-403.707031c-5.519532 0-10-4.476563-10-10v-32.59375c0-5.523437 4.480468-10 10-10h403.707031c5.523437 0 10 4.476563 10 10v32.59375c0 5.523437-4.476563 10-10 10zm-393.707031-20h383.707031v-12.59375h-383.707031zm0 0"/><path d="m167.503906 198.132812v129.011719h54.191406v-129.011719" fill="#ede6f5"/><path d="m277.257812 117.308594c0-45.636719-37.007812-82.628906-82.660156-82.628906s-82.65625 36.992187-82.65625 82.628906c0 45.632812 37.003906 82.628906 82.65625 82.628906s82.660156-36.996094 82.660156-82.628906zm0 0" fill="#f05f90"/><path d="m148.472656 127.308594c-5.523437 0-10-4.476563-10-10 0-30.9375 25.179688-56.109375 56.125-56.109375 5.523438 0 10 4.476562 10 10 0 5.523437-4.476562 10-10 10-19.917968 0-36.125 16.199219-36.125 36.109375 0 5.523437-4.476562 10-10 10zm0 0"/><path d="m315.210938 388.6875h-241.226563v-45.695312c0-8.753907 7.09375-15.847657 15.847656-15.847657h209.53125c8.753907 0 15.847657 7.09375 15.847657 15.847657zm0 0" fill="#00d2d7"/><path d="m371.328125 327.144531h60.292969v61.542969h-60.292969zm0 0" fill="#ffdd52"/><path d="m494.453125 378.691406h-52.832031v-334.269531c0-24.496094-19.933594-44.421875-44.433594-44.421875-24.503906 0-44.4375 19.925781-44.4375 44.421875v37.171875c0 5.523438 4.480469 10 10 10 5.523438 0 10-4.476562 10-10v-37.171875c0-13.46875 10.960938-24.421875 24.4375-24.421875 13.472656 0 24.433594 10.957031 24.433594 24.421875v272.722656h-50.292969c-5.519531 0-10 4.476563-10 10v51.542969h-36.117187v-35.699219c0-14.25-11.59375-25.84375-25.847657-25.84375h-67.667969v-114.957031c32.675782-14.328125 55.5625-46.984375 55.5625-84.878906 0-51.078125-41.566406-92.628906-92.660156-92.628906-51.089844 0-92.65625 41.550781-92.65625 92.628906 0 37.894531 22.882813 70.550781 55.5625 84.878906v114.957031h-67.671875c-14.253906 0-25.847656 11.59375-25.847656 25.84375v35.699219h-53.984375c-5.523438 0-10 4.476562-10 10v113.3125c0 5.523438 4.476562 10 10 10h484.453125c5.523437 0 10-4.476562 10-10v-113.308594c0-5.523437-4.476563-10-10-10zm-113.125-41.546875h40.292969v41.546875h-40.292969zm-259.386719-219.835937c0-40.046875 32.59375-72.628906 72.65625-72.628906s72.660156 32.582031 72.660156 72.628906-32.597656 72.628906-72.660156 72.628906-72.65625-32.582031-72.65625-72.628906zm55.5625 91.046875c5.539063 1.039062 11.253906 1.582031 17.09375 1.582031s11.554688-.542969 17.097656-1.582031v108.789062h-34.191406zm-93.519531 134.636719c0-3.226563 2.621094-5.847657 5.847656-5.847657h209.53125c3.226563 0 5.847657 2.621094 5.847657 5.847657v35.699218h-221.226563zm400.46875 149.007812h-464.453125v-93.308594h464.453125zm0 0"/></svg>