<svg id="Capa_1" enable-background="new 0 0 512 512" height="512" viewBox="0 0 512 512" width="512"
     xmlns="http://www.w3.org/2000/svg">
  <g>
    <g>
      <path
        d="m222.517 175.499c-44.748 0-81.023 36.275-81.023 81.023v91.392c0 17.912 14.52 32.432 32.432 32.432h71.152c25.104 0 48.618-12.288 62.953-32.897l4.402-6.329c4.371-6.284 13.668-6.284 18.039 0l4.402 6.329c14.334 20.609 37.849 32.897 62.953 32.897h70.155c17.912 0 32.432-14.521 32.432-32.432v-91.392c0-44.748-36.275-81.023-81.023-81.023z"
        fill="#ff7e96"/>
    </g>
    <g>
      <path
        d="m182.582 339.259v-82.737c0-22.02 17.915-39.934 45.921-39.934h196.873c16.034 0 33.949 17.914 33.949 39.934v82.736h-61.796c-11.46 0-22.21-5.617-28.754-15.026l-4.572-6.573c-20.368-29.282-65.134-29.285-85.502.001l-4.573 6.574c-6.544 9.408-17.292 15.025-28.753 15.025z"
        fill="#a0c8ff"/>
    </g>
    <g>
      <path
        d="m326.456 502h-12.827c-15.341 0-27.778-12.436-27.778-27.778v-46.672c0-15.341 12.436-27.778 27.778-27.778h12.827c15.341 0 27.778 12.436 27.778 27.778v46.672c-.001 15.342-12.437 27.778-27.778 27.778z"
        fill="#838eb1"/>
    </g>
    <g>
      <path d="m53.666 168.152h41.091v96.797h-41.091z" fill="#eaf0f0"/>
    </g>
    <g>
      <path
        d="m285.848 429.236v45.082h-125.818c-59.198 0-107.362-48.164-107.362-107.372v-55.588h41.091v55.588c0 34.347 27.933 62.291 62.28 62.291h129.809z"
        fill="#eaf0f0"/>
    </g>
    <g>
      <path
        d="m47.469 168.154v-64.528c0-19.036 7.065-37.395 19.827-51.521l25.541-28.269c7.959-8.809 19.275-13.836 31.147-13.836h25.657c20.841 0 32.264 24.271 18.981 40.331l-63.265 76.491c-3.558 4.302-5.505 9.71-5.505 15.292v26.039h-52.383z"
        fill="#a0c8ff"/>
    </g>
    <g>
      <path
        d="m141.494 311.353h-106.703c-12.815 0-23.204-10.389-23.204-23.204 0-12.815 10.389-23.204 23.204-23.204h106.703z"
        fill="#838eb1"/>
    </g>
    <g>
      <path
        d="m419.39 165.499h-53.431c-5.523 0-10 4.478-10 10s4.477 10 10 10h53.431c39.163 0 71.023 31.861 71.023 71.023v91.392c0 12.369-10.063 22.433-22.432 22.433h-70.155c-21.819 0-42.284-10.694-54.743-28.607l-4.401-6.328c-8.204-11.795-26.253-11.798-34.458 0l-4.402 6.328c-12.459 17.913-32.924 28.607-54.743 28.607h-71.152c-12.369 0-22.432-10.063-22.432-22.433v-91.392c0-39.162 31.861-71.023 71.023-71.023h55.494c5.523 0 10-4.478 10-10s-4.477-10-10-10h-55.494c-49.663 0-90.158 39.981-91.003 89.446h-26.756v-78.084c3.039-1.716 5.094-4.97 5.094-8.708v-26.039c0-3.248 1.14-6.415 3.211-8.919l63.265-76.491c8.64-10.445 10.421-24.554 4.649-36.819s-17.782-19.885-31.338-19.885h-25.657c-14.673 0-28.729 6.244-38.566 17.132l-25.542 28.268c-14.449 15.994-22.407 36.673-22.407 58.226v64.527c0 4.175 2.561 7.75 6.197 9.247v77.545h-8.875c-18.309 0-33.204 14.896-33.204 33.204s14.895 33.204 33.204 33.204h7.877v45.592c0 64.72 52.648 117.373 117.362 117.373h117.202c4.43 15.943 19.065 27.682 36.398 27.682h12.826c20.831 0 37.778-16.947 37.778-37.777v-46.673c0-20.83-16.947-37.777-37.778-37.777h-12.826c-17.974 0-33.046 12.622-36.845 29.464h-120.744c-28.828 0-52.281-23.458-52.281-52.291v-45.592h27.734v26.561c0 23.397 19.035 42.433 42.432 42.433h71.152c28.364 0 54.966-13.901 71.162-37.188l4.403-6.328c.387-.558 1.232-.556 1.62 0l4.402 6.328c16.196 23.286 42.798 37.188 71.162 37.188h70.155c23.397 0 42.432-19.035 42.432-42.433v-91.392c0-50.191-40.833-91.024-91.023-91.024zm-123.538 262.051c0-9.803 7.975-17.777 17.778-17.777h12.826c9.803 0 17.778 7.975 17.778 17.777v46.673c0 9.803-7.975 17.777-17.778 17.777h-12.826c-9.803 0-17.778-7.975-17.778-17.777zm-139.812 11.686h119.808v25.082h-115.818c-53.686 0-97.362-43.682-97.362-97.373v-45.588h21.091v45.588c0 39.862 32.425 72.291 72.281 72.291zm-32.057-419.236h25.657c5.814 0 10.764 3.141 13.239 8.401s1.742 11.076-1.964 15.557l-63.265 76.49c-5.029 6.081-7.799 13.775-7.799 21.666v16.037h-32.382v-54.525c0-1.33.054-2.654.132-3.974h27.419c5.523 0 10-4.478 10-10s-4.477-10-10-10h-23.113c2.922-7.606 7.238-14.677 12.808-20.843h30.896c5.523 0 10-4.478 10-10s-4.477-10-10-10h-12.826l7.472-8.27c6.052-6.697 14.7-10.539 23.726-10.539zm-60.317 158.153h21.092v76.792h-21.092zm-28.875 123.201c-7.28 0-13.204-5.924-13.204-13.204s5.923-13.204 13.204-13.204h96.703v26.408z"/>
      <path
        d="m188.325 220.888c-10.152 9.199-15.743 21.854-15.743 35.634v82.737c0 5.522 4.477 10 10 10h62.793c14.732 0 28.55-7.221 36.962-19.315l4.572-6.574c16.455-23.656 52.628-23.658 69.083-.001l4.571 6.572c8.412 12.096 22.23 19.317 36.963 19.317h61.796c5.523 0 10-4.478 10-10v-82.736c0-28.579-23.203-49.934-43.949-49.934h-196.871c-15.961 0-29.854 4.944-40.177 14.3zm260.999 35.633v72.736h-51.796c-8.189 0-15.869-4.014-20.544-10.736l-4.572-6.573c-24.279-34.903-77.644-34.904-101.921.001l-4.572 6.574c-4.676 6.722-12.355 10.735-20.543 10.735h-52.793v-72.737c0-17.624 14.771-29.934 35.92-29.934h196.873c9.643.001 23.948 12.57 23.948 29.934z"/>
      <path
        d="m312.72 179.319c3.366 8.217 15.37 7.967 18.549-.228 1.537-3.962.323-8.626-2.975-11.32-3.24-2.646-7.891-2.983-11.481-.843-4.196 2.502-5.972 7.886-4.093 12.391z"/>
    </g>
  </g>
</svg>
