<svg height="512pt" viewBox="0 0 512.001 512" width="512pt" xmlns="http://www.w3.org/2000/svg"><path d="m494.898438 193.648438v-162.863282c0-11.480468-9.316407-20.785156-20.8125-20.785156h-443.273438c-11.496094 0-20.8125 9.304688-20.8125 20.785156v321.457032c0 11.476562 9.316406 20.785156 20.8125 20.785156h325.742188" fill="#43b0fc"/><path d="m395.324219 51.214844h58.308593v280.597656h-402.363281v-280.597656h237.179688" fill="#ede6f5"/><path d="m338.039062 61.210938c-2.628906 0-5.210937-1.0625-7.070312-2.929688-.457031-.460938-.878906-.972656-1.238281-1.523438-.359375-.539062-.671875-1.117187-.921875-1.71875-.25-.609374-.4375-1.238281-.570313-1.871093-.128906-.648438-.199219-1.308594-.199219-1.957031 0-.652344.070313-1.3125.199219-1.953126.132813-.636718.320313-1.269531.570313-1.867187.25-.609375.5625-1.191406.921875-1.730469.359375-.550781.78125-1.0625 1.238281-1.519531.460938-.460937.980469-.882813 1.519531-1.242187.550781-.359376 1.132813-.667969 1.730469-.917969.601562-.25 1.230469-.441407 1.871094-.570313 1.289062-.261718 2.621094-.261718 3.910156 0 .640625.128906 1.269531.320313 1.871094.570313.597656.25 1.179687.558593 1.730468.917969.539063.359374 1.058594.78125 1.519532 1.242187.460937.457031.878906.96875 1.238281 1.519531.359375.539063.671875 1.121094.921875 1.730469.25.601563.4375 1.230469.570312 1.867187.128907.640626.199219 1.300782.199219 1.953126 0 .648437-.070312 1.308593-.199219 1.957031-.132812.632812-.320312 1.261719-.570312 1.871093-.25.601563-.5625 1.179688-.921875 1.71875-.371094.550782-.78125 1.0625-1.238281 1.523438-.472656.460938-.980469.878906-1.519532 1.25-.550781.359375-1.132812.667969-1.730468.917969-.601563.25-1.230469.441406-1.871094.570312-.648438.128907-1.300781.191407-1.960938.191407zm0 0"/><path d="m311.226562 166.863281-78.828124-45.511719c-9.8125-5.664062-22.082032 1.417969-22.082032 12.753907v91.019531c0 11.332031 12.269532 18.417969 22.082032 12.75l78.828124-45.511719c9.8125-5.664062 9.8125-19.832031 0-25.5zm0 0" fill="#f05f90"/><path d="m225.039062 249.886719c-4.246093 0-8.492187-1.117188-12.363281-3.351563-7.738281-4.46875-12.359375-12.472656-12.359375-21.410156v-91.019531c0-8.9375 4.621094-16.941407 12.359375-21.410157 7.742188-4.46875 16.984375-4.46875 24.722657 0l78.828124 45.507813c7.738282 4.46875 12.359376 12.472656 12.359376 21.414063 0 8.9375-4.621094 16.941406-12.359376 21.410156l-78.828124 45.507812c-3.867188 2.234375-8.113282 3.351563-12.359376 3.351563zm.011719-120.53125c-1.019531 0-1.855469.359375-2.375.660156-.878906.507813-2.359375 1.71875-2.359375 4.089844v91.019531c0 2.371094 1.480469 3.582031 2.359375 4.089844.882813.511718 2.671875 1.1875 4.722657 0l78.828124-45.507813c2.054688-1.1875 2.359376-3.074219 2.359376-4.09375s-.304688-2.902343-2.359376-4.089843l-78.828124-45.511719c-.839844-.484375-1.636719-.65625-2.347657-.65625zm0 0"/><path d="m484.761719 192.355469h-108.964844c-9.523437 0-17.238281 7.71875-17.238281 17.238281v275.167969c0 9.523437 7.714844 17.238281 17.238281 17.238281h108.964844c9.519531 0 17.238281-7.714844 17.238281-17.238281v-275.167969c0-9.519531-7.71875-17.238281-17.238281-17.238281zm0 0" fill="#52607e"/><path d="m504.898438 191.273438v-160.488282c0-16.972656-13.820313-30.785156-30.8125-30.785156h-443.273438c-16.992188 0-30.8125 13.8125-30.8125 30.785156v321.457032c0 16.972656 13.820312 30.785156 30.8125 30.785156h317.746094v101.734375c0 15.019531 12.21875 27.238281 27.238281 27.238281h108.964844c15.019531 0 27.238281-12.21875 27.238281-27.238281v-275.167969c0-7.046875-2.691406-13.480469-7.101562-18.320312zm-474.085938 171.753906c-5.960938 0-10.8125-4.839844-10.8125-10.785156v-321.457032c0-5.945312 4.851562-10.785156 10.8125-10.785156h443.273438c5.964843 0 10.8125 4.839844 10.8125 10.785156v151.570313c-.042969 0-.089844 0-.136719 0h-21.128907v-131.140625c0-5.523438-4.476562-10-10-10h-58.308593c-5.523438 0-10 4.476562-10 10 0 5.519531 4.476562 10 10 10h48.308593v121.140625h-67.835937c-15.019531 0-27.238281 12.21875-27.238281 27.238281v112.21875h-287.289063v-260.597656h227.179688c5.523437 0 10-4.476563 10-10 0-5.523438-4.476563-10-10-10h-237.179688c-5.523437 0-10 4.476562-10 10v280.597656c0 5.523438 4.476563 10 10 10h297.289063v21.214844zm461.1875 121.734375c0 3.992187-3.246094 7.238281-7.238281 7.238281h-108.964844c-3.992187 0-7.238281-3.246094-7.238281-7.238281v-275.167969c0-3.992188 3.246094-7.238281 7.238281-7.238281h108.964844c3.992187 0 7.238281 3.246093 7.238281 7.238281zm0 0"/><path d="m466.015625 416.671875h-21.140625v-21.140625h-29.195312v21.140625h-21.140626v29.195313h21.140626v21.140624h29.195312v-21.140624h21.140625zm0 0" fill="#f05f90"/><path d="m444.875 477.007812h-29.195312c-5.523438 0-10-4.480468-10-10v-11.140624h-11.140626c-5.523437 0-10-4.480469-10-10v-29.195313c0-5.523437 4.476563-10 10-10h11.140626v-11.140625c0-5.523438 4.476562-10 10-10h29.195312c5.523438 0 10 4.476562 10 10v11.140625h11.140625c5.523437 0 10 4.476563 10 10v29.195313c0 5.519531-4.476563 10-10 10h-11.140625v11.140624c0 5.519532-4.476562 10-10 10zm-19.195312-20h9.199218v-11.140624c0-5.523438 4.476563-10 10-10h11.136719v-9.195313h-11.136719c-5.523437 0-10-4.476563-10-10v-11.140625h-9.199218v11.140625c0 5.523437-4.476563 10-10 10h-11.140626v9.195313h11.140626c5.523437 0 10 4.476562 10 10zm0 0"/><path d="m406.503906 311.941406h47.546875v43.101563h-47.546875zm0 0" fill="#7ccafd"/><path d="m454.054688 365.042969h-47.550782c-5.523437 0-10-4.476563-10-10v-43.101563c0-5.523437 4.476563-10 10-10h47.550782c5.519531 0 10 4.476563 10 10v43.101563c0 5.523437-4.480469 10-10 10zm-37.550782-20h27.546875v-23.101563h-27.546875zm0 0"/><path d="m406.503906 233.957031h47.546875v43.101563h-47.546875zm0 0" fill="#ffe681"/><path d="m454.054688 287.058594h-47.550782c-5.523437 0-10-4.476563-10-10v-43.101563c0-5.523437 4.476563-10 10-10h47.550782c5.519531 0 10 4.476563 10 10v43.101563c0 5.523437-4.480469 10-10 10zm-37.550782-20h27.546875v-23.101563h-27.546875zm0 0"/></svg>