<svg id="Capa_1" enable-background="new 0 0 512 512" height="512" viewBox="0 0 512 512" width="512" xmlns="http://www.w3.org/2000/svg"><g><g><path d="m382.192 106.907c-.121-9.295-5.985-17.544-14.724-20.714l-14.451-5.242c-24.358-8.834-50.742 10.033-50.405 35.829l.174 12.762h-.139 57.437c12.362-.13 22.269-10.273 22.108-22.635z" fill="none"/></g><g><path d="m427.344 43.018-72.494-26.11c-17.104-6.161-35.97-5.166-52.332 2.76l-27.884 13.507c-23.587 11.425-37.948 35.463-37.606 61.669v64.897s-.325-7.498 3.221-14.889c3.695-7.702 11.564-15.309 26.977-15.309h35.421.139l-.174-12.762c-.344-26.341 26.441-44.484 50.405-35.829l14.451 5.242c10.415 3.778 16.485 14.458 14.281 25.426-2.053 10.219-11.244 17.814-21.666 17.923h-57.437-35.421c-19.947 0-30.199 13.519-30.201 30.197v.895c-.002 16.68 13.52 30.203 30.201 30.203h139.097c16.541-.216 32.776-6.219 47.284-14.167l20.476-11.218c8.526-4.671 18.222-6.778 27.918-6.065v-113.711h-57.865c-5.714.181-11.411-.721-16.791-2.659z" fill="#ffdad5"/></g><g><path d="m273.855 190.834c-.301.351-.611.682-.942 1.012-1.353 4.28-4.952 11.046-5.283 11.688-11.467 22.043-38.663 30.623-60.705 19.106-21.321-11.127-30.142-37.57-19.747-59.252 9.212-19.226 30.122-28.789 49.849-24.619.03.01-.03.01 0 .02v21.842c0 16.68 13.522 30.202 30.202 30.202h6.626z" fill="#838eb1"/></g><g><path d="m205.616 341.407-95.077-49.467 36.077-27.895c8.866-6.853 16.137-15.551 21.313-25.499l19.09-36.691c4.041 8.643 10.85 16.074 19.966 20.817 8.746 4.55 18.289 5.946 27.35 4.591l-18.512 35.581c-5.338 10.26-8.31 21.579-8.691 33.135z" fill="#838eb1"/></g><g><path d="m205.975 389.011-133.67-69.546 11.296-21.71c4.484-8.618 15.105-11.969 23.723-7.486l102.461 53.309c8.618 4.484 11.969 15.105 7.486 23.723z" fill="#838eb1"/></g><g><path d="m107.614 284.767h43.14v177.212h-43.14z" fill="#838eb1" transform="matrix(.462 -.887 .887 .462 -261.666 315.644)"/></g><g><path d="m10 437.547h230.081v61.505h-230.081z" fill="#eaf0f0"/></g><g><path d="m480.689 437.547v61.505h-240.608v-61.505z" fill="#838eb1"/></g><g><path d="m502 35.677h-57.865c-.105 0-.211.002-.316.005-4.476.142-8.877-.556-13.085-2.071l-72.495-26.111c-19.514-7.029-41.412-5.874-60.08 3.167l-27.884 13.507c-27.053 13.104-43.619 40.202-43.247 70.729v32.895c-20.57.238-39.649 12.028-48.867 31.266-6.495 13.548-6.79 28.698-2.041 42.073l-17.061 32.792c-4.538 8.722-10.782 16.191-18.559 22.204l-31.148 24.083c-12.993-5.167-28.191.56-34.622 12.923l-6.68 12.839-2.898-1.508c-4.833-2.516-10.976-.571-13.487 4.256l-19.912 38.271c-2.515 4.833-.572 10.976 4.256 13.486l128.898 67.063h-154.907c-5.523 0-10 4.478-10 10v61.505c0 5.522 4.477 10 10 10h470.689c5.523 0 10-4.478 10-10v-61.505c0-5.522-4.477-10-10-10h-75.683c-5.523 0-10 4.478-10 10s4.477 10 10 10h65.683v41.505h-220.608v-41.505h66.72c5.523 0 10-4.478 10-10s-4.477-10-10-10h-104.649l14.462-27.797c2.549-4.899.644-10.938-4.255-13.486l-2.898-1.508 6.68-12.839c6.657-12.796 2.057-29.035-10.323-36.414l1.308-39.196c.329-9.99 2.946-19.966 7.567-28.849l16.307-31.342c1.081-.27 2.159-.564 3.23-.901 14.026-4.413 25.486-14.025 32.286-27.096l.081-.155c1.374-2.628 2.538-5.006 3.494-7.127h126.232c.044 0 .087 0 .131-.001 16.218-.213 33.699-5.393 51.957-15.396l20.476-11.219c6.849-3.752 14.587-5.438 22.38-4.861 2.774.194 5.503-.757 7.54-2.648s3.193-4.546 3.193-7.325v-113.709c0-5.523-4.477-10-10-10zm-271.919 453.375h-210.081v-41.505h210.081zm-165.289-162.224 139.465 72.562-10.68 20.527-139.466-72.561zm21-11.619 6.68-12.839c1.909-3.666 6.561-5.141 10.236-3.229l102.461 53.309c3.667 1.908 5.141 6.562 3.23 10.236l-6.68 12.839zm121.16-56.98c-5.994 11.52-9.387 24.459-9.814 37.416l-.986 29.564-67.125-34.923 23.706-18.329c10.086-7.797 18.184-17.485 24.068-28.797l11.483-22.07c4.047 4.167 8.787 7.671 13.93 10.368 4.96 2.596 10.317 4.459 15.829 5.453zm31.277-42.091c-8.802 2.769-18.476 1.904-26.657-2.354-16.34-8.523-23.35-29.441-15.375-46.075 5.831-12.169 17.846-19.667 30.831-19.912v10.761c-.22 11.401 3.618 22.35 11.771 30.504 5.434 5.435 12.154 9.111 19.47 10.768-4.367 7.832-11.447 13.604-20.04 16.308zm253.771-66.56c-7.933.829-15.646 3.228-22.723 7.104l-20.475 11.218c-15.335 8.402-29.649 12.755-42.545 12.938l-139.027-.004c-11.14 0-20.202-9.062-20.202-20.202-.141-12.633 7.402-21.09 20.199-21.09h92.858c16.302 0 30.264-12.958 31.928-29.067 1.529-14.803-7.723-28.819-21.618-33.858l-13.395-4.858c-30.966-11.233-64.82 11.969-64.387 45.157l.036 2.626h-25.423c-8.398 0-15.011 1.822-20.198 4.515v-29.214c0-.044 0-.087-.001-.131-.296-22.712 11.952-42.844 31.967-52.538l27.884-13.507c13.852-6.71 30.103-7.567 44.583-2.351l72.495 26.11c6.541 2.356 13.38 3.453 20.329 3.25h47.715zm-179.389-32.929c-.254-19.46 19.554-32.624 37.569-26.09l13.395 4.859c12.575 4.559 10.396 23.93-3.553 24.123h-47.372z"/><path d="m365.18 428.312c-8.399-3.502-16.81 5.65-12.751 13.725 1.91 3.8 6.181 6.044 10.398 5.401 4.229-.645 7.63-3.973 8.376-8.18.808-4.561-1.757-9.169-6.023-10.946z"/></g></g></svg>