<svg height="512pt" viewBox="0 -49 512 511" width="512pt" xmlns="http://www.w3.org/2000/svg"><path d="m488.449219 31.285156c0-11.480468-9.316407-20.785156-20.8125-20.785156h-423.273438c-11.492187 0-20.8125 9.304688-20.8125 20.785156v292.988282h464.898438zm0 0" fill="#43b0fc"/><path d="m398.875 51.714844h48.304688v272.558594h-382.359376v-272.558594h227.179688" fill="#ede6f5"/><path d="m341.601562 61.710938c-.660156 0-1.3125-.0625-1.960937-.191407-.640625-.128906-1.269531-.316406-1.871094-.566406-.597656-.25-1.179687-.5625-1.730469-.921875-.539062-.371094-1.058593-.789062-1.519531-1.25-.460937-.460938-.878906-.96875-1.238281-1.519531-.359375-.539063-.671875-1.121094-.921875-1.71875-.25-.609375-.4375-1.242188-.570313-1.871094-.128906-.648437-.199218-1.3125-.199218-1.960937 0-.648438.070312-1.308594.199218-1.949219.132813-.640625.320313-1.269531.570313-1.871094.25-.609375.5625-1.1875.921875-1.726563.359375-.550781.777344-1.0625 1.238281-1.523437.460938-.457031.980469-.878906 1.519531-1.238281.550782-.359375 1.132813-.671875 1.730469-.921875.601563-.25 1.230469-.4375 1.871094-.566407 1.289063-.261718 2.621094-.261718 3.910156 0 .640625.128907 1.269531.316407 1.871094.566407.597656.25 1.179687.5625 1.726563.921875.542968.359375 1.050781.78125 1.511718 1.238281.472656.460937.878906.972656 1.25 1.523437.359375.539063.671875 1.117188.921875 1.726563.25.601563.4375 1.230469.566407 1.871094.132812.640625.191406 1.300781.191406 1.949219 0 .648437-.058594 1.3125-.191406 1.960937-.128907.628906-.316407 1.261719-.566407 1.871094-.25.597656-.5625 1.179687-.921875 1.71875-.371094.550781-.777344 1.058593-1.25 1.519531-.460937.460938-.96875.878906-1.511718 1.25-.546876.359375-1.128907.671875-1.726563.921875-.601563.25-1.230469.4375-1.871094.566406-.652343.128907-1.300781.191407-1.949219.191407zm0 0"/><path d="m319.601562 172.535156h-127.203124c-32.816407 0-59.417969 26.605469-59.417969 59.417969 0 32.816406 26.601562 59.417969 59.417969 59.417969 26.976562 0 49.75-17.976563 57.003906-42.605469h13.195312c7.253906 24.628906 30.027344 42.605469 57.003906 42.605469 32.816407 0 59.417969-26.601563 59.417969-59.417969 0-32.8125-26.601562-59.417969-59.417969-59.417969zm0 0" fill="#f05f90"/><path d="m319.601562 301.371094c-27.640624 0-52.671874-16.726563-63.601562-41.585938-10.929688 24.863282-35.960938 41.585938-63.601562 41.585938-38.277344 0-69.417969-31.140625-69.417969-69.417969 0-38.273437 31.140625-69.417969 69.417969-69.417969h127.203124c38.277344 0 69.417969 31.144532 69.417969 69.417969 0 38.277344-31.140625 69.417969-69.417969 69.417969zm-70.199218-62.605469h13.195312c4.433594 0 8.339844 2.921875 9.59375 7.175781 6.144532 20.863282 25.636719 35.433594 47.410156 35.433594 27.25 0 49.417969-22.171875 49.417969-49.417969 0-27.25-22.167969-49.421875-49.417969-49.421875h-127.203124c-27.25 0-49.417969 22.171875-49.417969 49.421875 0 27.246094 22.167969 49.417969 49.417969 49.417969 21.769531 0 41.265624-14.570312 47.410156-35.433594 1.253906-4.253906 5.15625-7.175781 9.59375-7.175781zm0 0"/><path d="m210.398438 219.367188h-5.398438v-5.398438c0-5.523438-4.476562-10-10-10s-10 4.476562-10 10v5.398438h-5.402344c-5.523437 0-10 4.480468-10 10 0 5.523437 4.476563 10 10 10h5.402344v5.402343c0 5.519531 4.476562 10 10 10s10-4.480469 10-10v-5.402343h5.398438c5.523437 0 10-4.476563 10-10 0-5.519532-4.476563-10-10-10zm0 0"/><path d="m328.996094 224.867188h-11.398438c-5.523437 0-10-4.476563-10-10 0-5.519532 4.476563-10 10-10h11.398438c5.523437 0 10 4.480468 10 10 0 5.523437-4.476563 10-10 10zm0 0"/><path d="m328.996094 253.867188h-11.398438c-5.523437 0-10-4.476563-10-10 0-5.519532 4.476563-10 10-10h11.398438c5.523437 0 10 4.480468 10 10 0 5.523437-4.476563 10-10 10zm0 0"/><path d="m266.664062 225.808594h-21.328124c-5.523438 0-10-4.480469-10-10 0-5.523438 4.476562-10 10-10h21.328124c5.523438 0 10 4.476562 10 10 0 5.519531-4.476562 10-10 10zm0 0"/><path d="m10 324.273438v60.730468c0 10.214844 8.28125 18.496094 18.5 18.496094h455c10.21875 0 18.5-8.28125 18.5-18.496094v-60.730468zm0 0" fill="#52607e"/><path d="m165.667969 324.273438h180.667969v33.332031h-180.667969zm0 0" fill="#c7cde4"/><path d="m502 314.273438h-3.550781v-282.988282c0-16.976562-13.824219-30.785156-30.8125-30.785156h-423.273438c-16.988281 0-30.8125 13.8125-30.8125 30.785156v282.988282h-3.550781c-5.523438 0-10 4.476562-10 10v60.726562c0 15.714844 12.785156 28.5 28.5 28.5h455c15.714844 0 28.5-12.785156 28.5-28.5v-60.726562c0-5.523438-4.476562-10-10-10zm-468.449219-282.988282c0-5.945312 4.851563-10.785156 10.8125-10.785156h423.273438c5.960937 0 10.8125 4.839844 10.8125 10.785156v282.988282h-21.269531v-262.558594c0-5.523438-4.476563-10-10-10h-48.308594c-5.519532 0-10 4.476562-10 10 0 5.519531 4.480468 10 10 10h38.308594v252.558594h-362.359376v-252.558594h217.179688c5.523438 0 10-4.480469 10-10 0-5.523438-4.476562-10-10-10h-227.179688c-5.523437 0-10 4.476562-10 10v262.558594h-21.269531zm142.113281 302.988282h160.667969v13.332031h-160.667969zm316.335938 50.730468c0 4.683594-3.8125 8.5-8.5 8.5h-455c-4.6875 0-8.5-3.816406-8.5-8.5v-50.730468h135.664062v23.332031c0 5.523437 4.480469 10 10 10h180.667969c5.523438 0 10-4.476563 10-10v-23.332031h135.667969zm0 0"/><path d="m196.527344 128.9375c-2.058594 0-4.136719-.632812-5.921875-1.945312-4.449219-3.277344-5.398438-9.535157-2.125-13.984376 15.777343-21.425781 41.015625-34.21875 67.519531-34.21875 26.5 0 51.742188 12.792969 67.515625 34.21875 3.273437 4.449219 2.324219 10.707032-2.121094 13.984376-4.449219 3.273437-10.707031 2.324218-13.984375-2.125-12.019531-16.328126-31.238281-26.078126-51.410156-26.078126s-39.390625 9.75-51.410156 26.078126c-1.960938 2.660156-4.992188 4.070312-8.0625 4.070312zm0 0"/><path d="m292.816406 153.933594c-3.070312 0-6.101562-1.410156-8.058594-4.070313-6.730468-9.136719-17.480468-14.59375-28.757812-14.59375s-22.027344 5.457031-28.757812 14.59375c-3.273438 4.445313-9.535157 5.398438-13.980469 2.121094-4.449219-3.273437-5.398438-9.53125-2.125-13.980469 10.480469-14.234375 27.253906-22.734375 44.863281-22.734375s34.382812 8.5 44.859375 22.734375c3.277344 4.445313 2.324219 10.707032-2.121094 13.980469-1.785156 1.316406-3.863281 1.949219-5.921875 1.949219zm0 0"/></svg>