<svg id="Capa_1" enable-background="new 0 0 512 512" height="512" viewBox="0 0 512 512" width="512" xmlns="http://www.w3.org/2000/svg"><g><g><path d="m470.988 439.914c17.128 0 31.012-13.885 31.012-31.012v-263.968c0-17.128-13.885-31.012-31.012-31.012h-429.976c-17.127 0-31.012 13.885-31.012 31.012v263.968c0 17.128 13.885 31.012 31.012 31.012z" fill="#838eb1"/></g><g><circle cx="197.575" cy="276.742" fill="#ff7e96" r="116.889"/></g><g><circle cx="197.575" cy="276.742" fill="#a0c8ff" r="69.445"/></g><g><circle cx="428.358" cy="380.825" fill="#fff" r="21.947"/></g><g><circle cx="428.358" cy="380.825" fill="#ff7e96" r="21.947"/></g><g><path d="m453.776 199.569h-50.837c-4.182 0-7.572-3.39-7.572-7.572v-27.535c0-4.182 3.39-7.572 7.572-7.572h50.837c4.182 0 7.572 3.39 7.572 7.572v27.535c0 4.182-3.39 7.572-7.572 7.572z" fill="#fff"/></g><g><path d="m124.633 113.922h-49.409c-6.994 0-12.664-5.67-12.664-12.664v-16.508c0-6.994 5.67-12.664 12.664-12.664h49.409c6.994 0 12.664 5.67 12.664 12.664v16.508c0 6.994-5.67 12.664-12.664 12.664z" fill="#ff7e96"/></g><g><path d="m88.91 319.867h-78.91v-77.1h75.71c-3.27 10.75-5.02 22.16-5.02 33.97 0 15.23 2.91 29.79 8.22 43.13z" fill="#fff"/></g><g><path d="m502 242.767v77.1h-195.76c5.31-13.34 8.22-27.9 8.22-43.13 0-11.81-1.75-23.22-5.02-33.97z" fill="#fff"/></g><g><path d="m470.988 103.922h-323.853c.103-.875.162-1.762.162-2.664v-16.508c0-12.497-10.167-22.664-22.664-22.664h-49.409c-12.497 0-22.664 10.167-22.664 22.664v16.508c0 .902.059 1.79.162 2.664h-11.71c-22.614 0-41.012 18.398-41.012 41.012v263.968c0 22.614 18.398 41.012 41.012 41.012h173.981c5.523 0 10-4.477 10-10s-4.477-10-10-10h-173.981c-11.586 0-21.012-9.426-21.012-21.012v-79.035h62.358c20.141 43.506 64.208 73.764 115.217 73.764s95.076-30.258 115.216-73.764h179.209v79.035c0 11.586-9.426 21.012-21.012 21.012h-168.026c-5.523 0-10 4.477-10 10s4.477 10 10 10h168.026c22.614 0 41.012-18.398 41.012-41.012v-263.968c0-22.614-18.398-41.012-41.012-41.012zm-398.427-2.664v-16.508c0-1.469 1.195-2.664 2.664-2.664h49.409c1.469 0 2.664 1.195 2.664 2.664v16.508c0 1.469-1.195 2.664-2.664 2.664h-49.41c-1.469 0-2.663-1.195-2.663-2.664zm-31.549 22.664h429.976c11.586 0 21.012 9.426 21.012 21.012v87.833h-175.397c-17.923-48.357-64.514-82.914-119.028-82.914s-101.105 34.557-119.028 82.914h-58.547v-87.833c0-11.586 9.426-21.012 21.012-21.012zm34.044 185.945h-55.056v-57.1h52.954c-3.61 18.853-2.907 38.564 2.102 57.1zm122.519 73.764c-53.408 0-97.792-39.373-105.653-90.616-2.321-15.354-1.339-31.162 2.998-46.08 12.936-44.48 54.057-77.082 102.655-77.082 48.597 0 89.719 32.602 102.654 77.082 4.334 14.91 5.328 30.728 2.999 46.074-7.858 51.246-52.244 90.622-105.653 90.622zm122.519-73.764c5.009-18.536 5.711-38.246 2.103-57.1h169.803v57.1z"/><path d="m197.575 197.297c-43.806 0-79.445 35.639-79.445 79.445s35.639 79.445 79.445 79.445 79.444-35.639 79.444-79.445-35.638-79.445-79.444-79.445zm0 138.89c-32.778 0-59.445-26.667-59.445-59.445s26.667-59.445 59.445-59.445 59.444 26.667 59.444 59.445-26.666 59.445-59.444 59.445z"/><path d="m460.305 380.825c0-17.616-14.332-31.948-31.948-31.948s-31.947 14.332-31.947 31.948 14.332 31.947 31.947 31.947c17.617 0 31.948-14.332 31.948-31.947zm-43.895 0c0-6.588 5.359-11.948 11.947-11.948s11.948 5.36 11.948 11.948-5.36 11.947-11.948 11.947-11.947-5.359-11.947-11.947z"/><path d="m402.939 209.569h50.836c9.689 0 17.572-7.883 17.572-17.572v-27.535c0-9.689-7.883-17.573-17.572-17.573h-50.836c-9.689 0-17.573 7.883-17.573 17.573v27.535c.001 9.689 7.884 17.572 17.573 17.572zm2.428-42.68h45.981v22.68h-45.981z"/><path d="m268.96 436.09c-3.435-8.246-15.616-7.987-18.646.455-1.438 4.006-.103 8.636 3.261 11.249 3.249 2.524 7.807 2.792 11.329.667 4.168-2.514 5.929-7.875 4.056-12.371z"/></g></g></svg>