<svg id="Capa_1" enable-background="new 0 0 512.041 512.041" height="512" viewBox="0 0 512.041 512.041" width="512" xmlns="http://www.w3.org/2000/svg"><g><g><path d="m328.194 376.886c-10.96 8.14-22.65 15.35-34.97 21.53l-193.55 97.04c-23.248 11.651-53.106 6.854-71.52-11.56-18.86-18.86-23.52-47.68-11.56-71.52l97.04-193.55c6.18-12.32 13.39-24.01 21.53-34.97z" fill="#a0c8ff"/></g><g><path d="m495.454 99.676-97.04 193.55c-9.65 19.25-21.83 36.96-36.1 52.72h-.01l-196.2-196.2v-.01c15.76-14.27 33.47-26.45 52.72-36.1l193.55-97.04c23.248-11.651 53.107-6.854 71.52 11.56 18.85 18.86 23.51 47.68 11.56 71.52z" fill="#a0c8ff"/></g><g><path d="m170.894 219.586 121.57 121.57c-.83.46-1.67.92-2.51 1.37l-79.99 43c-11.77 6.33-25.88 6.54-37.81.52-20.037-10.093-36.398-26.798-46.25-46.93-5.79-11.82-5.47-25.71.76-37.3l42.86-79.72c.45-.84.91-1.68 1.37-2.51z" fill="#838eb1"/></g><g><path d="m360.551 263.727c4.087-13.439 2.476-28.116-4.795-40.399-16.318-27.553-39.497-50.687-67.053-66.993-12.298-7.286-26.997-8.905-40.436-4.803l44.068-21.352c12.328-5.974 26.84-5.422 38.631 1.551 20.862 12.352 37.01 28.479 49.378 49.333 6.973 11.791 7.51 26.289 1.544 38.609z" fill="#838eb1"/></g><g><path d="m95.142 55.817c-6.367.403-12.395 3.049-16.918 7.572l-30.293 30.294c-12.029 12.029-9.14 32.802 5.676 41.107 42.048 23.571 66.006 33.515 66.006 33.515l32.527-32.527s-9.352-24.521-32.794-66.642c-4.848-8.71-14.255-13.949-24.204-13.319z" fill="#838eb1"/></g><g><path d="m456.233 416.908c-.403 6.367-3.049 12.395-7.572 16.918l-30.294 30.294c-12.029 12.029-32.802 9.14-41.107-5.676-23.571-42.048-33.515-66.006-33.515-66.006l32.527-32.527s24.521 9.352 66.642 32.794c8.71 4.847 13.949 14.254 13.319 24.203z" fill="#838eb1"/></g><g><path d="m224.942 105.623h46v316.97h-46z" fill="#fff" transform="matrix(.707 -.707 .707 .707 -114.132 252.677)"/></g><g><path d="m292.414 341.106-45.36 24.48-100.59-100.59 24.42-45.42z" fill="#a0c8ff"/></g><g><path d="m490.965 21.084c-21.596-21.596-55.757-27.116-83.073-13.428l-193.549 97.04c-17.078 8.561-33.105 19.097-47.765 31.377l-5.905-5.905c-2.746-6.781-12.594-29.969-32.589-65.894-11.451-20.577-40.282-24.605-56.93-7.957l-30.296 30.296c-16.617 16.623-12.642 45.41 7.859 56.9 35.998 20.18 58.739 30.427 65.188 33.228l8.203 8.203c-6.465 9.38-12.312 19.231-17.413 29.4l-97.039 193.547c-13.917 27.742-8.521 61.128 13.428 83.076 16.231 16.231 40.127 23.611 62.726 19.97 7.062-1.138 13.95-3.337 20.346-6.543l193.552-97.041c10.166-5.099 20.018-10.946 29.4-17.412l8.203 8.203c2.803 6.452 13.049 29.193 33.228 65.189 11.488 20.495 40.284 24.474 56.9 7.857l30.294-30.294c16.65-16.653 12.614-45.481-7.955-56.931-35.927-19.994-59.114-29.842-65.895-32.588l-5.906-5.906c12.278-14.659 22.815-30.686 31.377-47.765l29.688-59.214c2.476-4.937.479-10.945-4.458-13.421-4.938-2.478-10.946-.48-13.421 4.458l-29.688 59.214c-7.603 15.165-16.896 29.431-27.696 42.531l-19.093-19.093c8.604-10.277 15.938-21.556 21.818-33.678l5.038-10.403c.003-.005.006-.01.009-.015l21.336-44.054c7.358-15.193 6.662-33.519-1.942-48.068-13.239-22.321-30.539-39.605-52.889-52.84-14.552-8.605-32.867-9.317-48.071-1.948l-54.445 26.373c-12.114 5.878-23.393 13.211-33.671 21.815l-19.093-19.093c13.1-10.801 27.367-20.095 42.531-27.696l193.549-97.039c16.39-8.215 36.926-6.584 52.154 3.362l-69 69c-3.905 3.905-3.905 10.237 0 14.143 3.824 3.822 10.31 3.831 14.143 0l69.055-69.055c10.31 15.322 11.82 35.229 3.309 52.208l-27.954 55.755c-2.476 4.938-.479 10.946 4.457 13.422 4.939 2.473 10.946.479 13.422-4.457l27.954-55.756c13.903-27.74 8.507-61.123-13.431-83.073zm-126.605 197.149c-17.167-28.989-41.569-53.344-70.56-70.501-2.337-1.384-4.752-2.6-7.23-3.646l10.134-4.91c9.215-4.461 20.347-4.05 29.166 1.164 19.447 11.514 34.36 26.369 45.868 45.828 2.838 4.796 4.331 10.377 4.262 15.949-.056 4.518-1.04 8.068-3.116 13.201l-4.897 10.112c-1.041-2.467-2.25-4.872-3.627-7.197zm-122.096-52.687c13.651-6.612 27.378-8.881 41.346-.604 26.11 15.449 48.08 37.373 63.54 63.48 8.271 13.973 5.969 27.708-.643 41.358-4.902 10.104-10.938 19.56-18.003 28.213l-114.447-114.448c8.654-7.064 18.107-13.099 28.207-17.999zm119.865 194.364-18.385 18.385-209.989-209.989 18.385-18.385zm-188.807-123.752 102.526 102.526-26.99 14.566-90.065-90.067zm-24.421 45.416 81.573 81.573-25.245 13.571c-8.899 4.785-19.58 4.936-28.575.396-18.108-9.122-32.865-24.208-41.768-42.399-4.345-8.869-4.126-19.398.587-28.165zm-98.565-170.31c.19-3.952 1.867-7.712 4.665-10.51l30.295-30.294c7.415-7.418 20.212-5.624 25.311 3.54 16.236 29.172 25.653 49.884 29.743 59.426l-22.963 22.963c-9.516-4.335-29.91-14.075-58.891-30.321-5.335-2.992-8.539-8.805-8.16-14.804zm238.407 278.212-193.549 97.039c-16.391 8.215-36.926 6.584-52.155-3.362l68.999-68.999c3.905-3.905 3.905-10.237 0-14.143-3.906-3.904-10.236-3.904-14.143 0l-69.055 69.056c-10.315-15.321-11.825-35.229-3.306-52.21l97.039-193.548c4.137-8.247 8.802-16.276 13.927-23.975l22.053 22.053-40.695 75.693c-7.758 14.432-8.106 31.79-.935 46.431 10.807 22.085 28.747 40.392 50.728 51.463 14.711 7.422 32.543 7.161 47.05-.641l75.963-40.835 22.053 22.053c-7.701 5.124-15.729 9.788-23.974 13.925zm157.51 26.799c-.446 4.011-1.754 7.57-4.664 10.479l-30.294 30.294c-7.402 7.405-20.192 5.638-25.312-3.494-16.246-28.981-25.987-49.377-30.321-58.891l22.966-22.965c9.517 4.074 30.161 13.46 59.423 29.745 5.364 2.985 8.584 8.807 8.202 14.832z"/><path d="m456.031 189.345c-3.046-4.525-9.324-5.776-13.87-2.76-4.545 3.015-5.765 9.335-2.76 13.86 3.01 4.533 9.337 5.795 13.86 2.77 4.519-3.023 5.791-9.342 2.77-13.87z"/></g></g></svg>