<svg id="Capa_1" enable-background="new 0 0 497 497" height="512" viewBox="0 0 497 497" width="512" xmlns="http://www.w3.org/2000/svg"><g><g fill="#f9d888"><path d="m223.947 427.211v41.12c0 15.841-12.828 28.669-28.669 28.669h-60.301c-15.831 0-28.669-12.828-28.669-28.669v-41.12l58.82-25.079z"/><path d="m273.053 427.211v41.12c0 15.841 12.828 28.669 28.669 28.669h60.301c15.831 0 28.669-12.828 28.669-28.669v-41.12l-58.82-25.079z"/><path d="m223.947 217.558v159.494l-58.82 25.08-58.819-25.08v-159.494l58.819-18.67z"/><path d="m273.053 217.558v159.494l58.82 25.08 58.82-25.08v-159.494l-58.82-18.67z"/></g><g><path d="m354.852 162.703h-45.961v-56.351c0-33.3-27.092-60.391-60.391-60.391-33.3 0-60.391 27.091-60.391 60.391v56.351h-45.961v-56.351c0-58.643 47.709-106.352 106.352-106.352s106.352 47.709 106.352 106.352z" fill="#ffdeb6"/></g><path d="m188.109 106.352c0-.247.016-.49.019-.737h-45.97c-.002.246-.009.491-.009.737v56.351h45.961v-56.351z" fill="#fccb88"/><path d="m132.651 298.767c0-32.377 1.824-63.353 7.277-91.88l-33.62 10.671v159.495l33.777 14.401c-5.574-28.75-7.434-60.004-7.434-92.687z" fill="#fbc072"/><path d="m223.947 164.285v53.274h-117.639v-53.274c0-15.831 12.838-28.669 28.669-28.669h60.301c15.841-.001 28.669 12.838 28.669 28.669z" fill="#516a80"/><path d="m144.549 410.906-38.242 16.305v41.12c0 15.841 12.838 28.669 28.669 28.669h58.028c-24.457-23.368-39.502-52.707-48.455-86.094z" fill="#fbc072"/><path d="m106.308 377.052h117.639v50.159h-117.639z" fill="#516a80"/><path d="m308.891 106.352v56.351h45.961v-56.351c0-.246-.008-.491-.009-.737h-45.97c.003.247.018.49.018.737z" fill="#fccb88"/><path d="m299.397 298.767c0-32.377 1.824-63.353 7.277-91.88l-33.62 10.671v159.495l33.777 14.401c-5.575-28.75-7.434-60.004-7.434-92.687z" fill="#fbc072"/><path d="m311.295 410.906-38.242 16.305v41.12c0 15.841 12.838 28.669 28.669 28.669h58.028c-24.457-23.368-39.502-52.707-48.455-86.094z" fill="#fbc072"/><path d="m273.053 164.285v53.274h117.639v-53.274c0-15.831-12.838-28.669-28.669-28.669h-60.301c-15.841-.001-28.669 12.838-28.669 28.669z" fill="#516a80"/><path d="m273.053 377.052h117.639v50.159h-117.639z" fill="#516a80"/><path d="m137.624 377.053h-31.317v50.158h43.227c-5.447-15.738-9.285-32.534-11.91-50.158z" fill="#475c70"/><path d="m165.353 135.615h-30.376c-15.831 0-28.669 12.838-28.669 28.669v53.273h31.765c4.754-30.199 13.173-57.904 27.28-81.942z" fill="#475c70"/><path d="m304.37 377.053h-31.317v50.158h43.227c-5.447-15.738-9.285-32.534-11.91-50.158z" fill="#475c70"/><path d="m332.098 135.615h-30.376c-15.831 0-28.669 12.838-28.669 28.669v53.273h31.765c4.755-30.199 13.174-57.904 27.28-81.942z" fill="#475c70"/></g></svg>