<svg height="512pt" viewBox="0 0 512 511" width="512pt" xmlns="http://www.w3.org/2000/svg"><path d="m318.480469 266.273438 37.601562-37.597657-67.210937-67.203125-36.050782 36.050782" fill="#52607e"/><path d="m287.148438 454.921875c-63.402344 63.394531-166.195313 63.394531-229.597657 0-63.402343-63.398437-63.402343-166.1875 0-229.582031 63.402344-63.398438 166.195313-63.398438 229.597657 0 63.402343 63.394531 63.402343 166.183594 0 229.582031zm0 0" fill="#52607e"/><path d="m366.082031 228.675781c0-2.652343-1.054687-5.195312-2.929687-7.070312l-67.207032-67.203125c-3.90625-3.90625-10.234374-3.90625-14.144531 0l-31.839843 31.835937c-64.621094-32.523437-145.597657-21.847656-199.480469 32.03125-32.550781 32.550781-50.480469 75.828125-50.480469 121.859375 0 46.035156 17.929688 89.3125 50.480469 121.863282 33.597656 33.597656 77.734375 50.394531 121.867187 50.394531 44.136719 0 88.269532-16.796875 121.871094-50.394531 32.550781-32.550782 50.480469-75.828126 50.480469-121.863282 0-24.820312-5.214844-48.839844-15.121094-70.808594l33.574219-33.574218c1.875-1.875 2.929687-4.417969 2.929687-7.070313zm-86.007812 219.175781c-29.703125 29.699219-68.707031 44.550782-107.726563 44.546876-39.007812-.003907-78.03125-14.851563-107.726562-44.546876-28.773438-28.773437-44.621094-67.03125-44.621094-107.722656s15.847656-78.945312 44.621094-107.71875c29.703125-29.699218 68.714844-44.546875 107.726562-44.546875 39.015625 0 78.027344 14.847657 107.726563 44.546875 28.777343 28.773438 44.625 67.027344 44.625 107.71875s-15.847657 78.949219-44.625 107.722656zm39.742187-197.054687c-7.113281-11.6875-15.675781-22.605469-25.597656-32.527344-8.210938-8.214843-17.058594-15.421875-26.375-21.628906l21.027344-21.027344 53.066406 53.0625zm0 0"/><path d="m172.351562 227.84375c-.652343 0-1.3125-.058594-1.953124-.191406-.636719-.128906-1.269532-.316406-1.878907-.566406-.597656-.25-1.179687-.5625-1.71875-.921876-.550781-.371093-1.0625-.789062-1.519531-1.25-.460938-.460937-.882812-.96875-1.242188-1.519531-.367187-.539062-.667968-1.121093-.917968-1.71875-.25-.613281-.449219-1.230469-.582032-1.871093-.117187-.652344-.1875-1.300782-.1875-1.960938 0-.648438.070313-1.308594.1875-1.949219.132813-.640625.332032-1.269531.582032-1.871093.25-.597657.550781-1.1875.917968-1.730469.359376-.539063.78125-1.058594 1.242188-1.519531.457031-.460938.96875-.878907 1.519531-1.238282.539063-.359375 1.121094-.671875 1.71875-.921875.609375-.25 1.242188-.4375 1.878907-.570312 1.292968-.257813 2.613281-.257813 3.902343 0 .640625.132812 1.269531.320312 1.871094.570312.609375.25 1.1875.5625 1.726563.921875.550781.359375 1.0625.777344 1.523437 1.238282.457031.460937.878906.980468 1.238281 1.519531.359375.542969.667969 1.132812.917969 1.730469.25.601562.441406 1.230468.570313 1.871093.132812.640625.203124 1.300781.203124 1.949219 0 .660156-.070312 1.308594-.203124 1.960938-.128907.640624-.320313 1.257812-.570313 1.871093-.25.597657-.558594 1.179688-.917969 1.71875-.359375.550781-.78125 1.058594-1.238281 1.519531-.460937.460938-.972656.878907-1.523437 1.25-.539063.359376-1.117188.671876-1.726563.921876-.601563.25-1.230469.4375-1.871094.566406-.640625.132812-1.300781.191406-1.949219.191406zm0 0"/><path d="m85.878906 436.597656c-2.5625 0-5.121094-.976562-7.074218-2.929687-24.949219-24.949219-38.6875-58.167969-38.6875-93.539063s13.738281-68.589844 38.6875-93.535156c14.789062-14.789062 32.230468-25.578125 51.847656-32.070312 5.242187-1.738282 10.898437 1.109374 12.632812 6.355468 1.738282 5.242188-1.105468 10.898438-6.351562 12.632813-16.625 5.503906-31.425782 14.664062-43.988282 27.222656-21.171874 21.171875-32.832031 49.367187-32.832031 79.394531 0 30.03125 11.660157 58.226563 32.832031 79.398438 3.90625 3.902344 3.90625 10.234375 0 14.140625-1.949218 1.953125-4.507812 2.929687-7.066406 2.929687zm0 0"/><path d="m331.507812 153.351562c21.316407 48.601563 97.210938 41.78125 110-9.378906.425782-.425781 0-.855468.425782-1.28125-21.144532-12.921875-13.214844-40.5-9.378906-55.421875 4.261718-15.347656 11.085937-30.699219 24.726562-39.222656-17.90625-2.558594-36.664062 1.703125-52.015625 11.082031-15.347656 9.378906-27.285156 24.726563-33.253906 41.78125-1.707031-11.085937 1.277343-23.449218 8.953125-31.972656-14.921875 1.277344-29.84375 7.671875-40.078125 18.757812-16.628907 16.625-18.332031 44.765626-9.378907 65.65625zm0 0" fill="#f05f90"/><path d="m383.941406 196.324219c-27.257812 0-51-14.8125-61.59375-38.957031-.007812-.027344-.019531-.050782-.03125-.078126-9.394531-21.921874-9.832031-55.1875 11.359375-76.523437 11.433594-12.300781 28.34375-20.242187 46.433594-21.792969 2.386719-.203125 4.714844.457032 6.597656 1.773438 4.140625-3.84375 8.613281-7.257813 13.347657-10.148438 17.558593-10.730468 38.9375-15.269531 58.644531-12.453125 4.15625.59375 7.5 3.722657 8.371093 7.832031.867188 4.109376-.925781 8.324219-4.484374 10.546876-9.15625 5.722656-15.632813 16.316406-20.371094 33.335937l-.347656 1.34375c-4.492188 17.355469-7.785157 34.96875 5.285156 42.953125 2.613281 1.601562 4.351562 4.308594 4.714844 7.351562.164062 1.394532.035156 2.789063-.363282 4.097657-.148437.722656-.355468 1.378906-.601562 1.980469-7.289063 26.996093-30.914063 45.964843-60.535156 48.464843-2.15625.183594-4.308594.273438-6.425782.273438zm-43.257812-46.949219c9.628906 21.894531 31.097656 28.175781 48.003906 26.746094 15.066406-1.269532 34.257812-9.855469 41.617188-29.703125-18.894532-17.363281-11.519532-45.855469-7.800782-60.222657l.367188-1.417968c.015625-.0625.03125-.125.050781-.1875 2.128906-7.664063 5.269531-17.113282 10.648437-25.929688-8.082031 1.613282-15.976562 4.65625-23.089843 9.003906-13.125 8.019532-23.707031 21.34375-29.03125 36.550782-1.515625 4.332031-5.785157 7.078125-10.355469 6.652344-4.570312-.421876-8.269531-3.898438-8.964844-8.4375-.953125-6.195313-.75-12.449219.507813-18.390626-5.542969 2.636719-10.464844 6.171876-14.402344 10.4375-.089844.097657-.183594.195313-.273437.289063-14.09375 14.085937-14.324219 38.128906-7.277344 54.609375zm0 0"/><path d="m465.046875 235.859375c-2.558594 0-5.117187-.972656-7.070313-2.925781l-14.164062-14.164063c-3.90625-3.902343-3.90625-10.234375 0-14.140625s10.238281-3.90625 14.140625 0l14.164063 14.160156c3.90625 3.90625 3.90625 10.238282.003906 14.144532-1.953125 1.949218-4.515625 2.925781-7.074219 2.925781zm0 0"/><path d="m300.789062 71.613281c-2.558593 0-5.117187-.976562-7.070312-2.929687l-14.164062-14.164063c-3.90625-3.90625-3.90625-10.234375 0-14.140625 3.902343-3.90625 10.234374-3.90625 14.140624 0l14.164063 14.160156c3.90625 3.90625 3.90625 10.238282 0 14.144532-1.953125 1.953125-4.511719 2.929687-7.070313 2.929687zm0 0"/><path d="m502 146.65625h-20.03125c-5.519531 0-10-4.476562-10-10s4.480469-10 10-10h20.03125c5.523438 0 10 4.476562 10 10s-4.476562 10-10 10zm0 0"/><path d="m375.835938 40.527344c-5.523438 0-10-4.476563-10-10v-20.027344c0-5.523438 4.476562-10 10-10 5.523437 0 10 4.476562 10 10v20.027344c0 5.523437-4.476563 10-10 10zm0 0"/></svg>