<?xml version="1.0" encoding="iso-8859-1"?>
<!-- Generator: Adobe Illustrator 19.0.0, SVG Export Plug-In . SVG Version: 6.00 Build 0)  -->
<svg version="1.1" id="Capa_1" xmlns="http://www.w3.org/2000/svg" xmlns:xlink="http://www.w3.org/1999/xlink" x="0px" y="0px"
	 viewBox="0 0 512 512" style="enable-background:new 0 0 512 512;" xml:space="preserve">
<g>
	<path style="fill:#5D5360;" d="M139.807,103.694H97.365c-7.138,0-13.908,3.17-18.478,8.654l-6.942,8.33l67.861,15.08v-32.064
		H139.807z"/>
	<path style="fill:#5D5360;" d="M352.511,280.048h-58.474c-7.138,0-13.908,3.17-18.478,8.654l-6.942,8.33l83.893,15.08
		L352.511,280.048L352.511,280.048z"/>
	<path style="fill:#5D5360;" d="M352.511,280.048h58.474c7.138,0,13.908,3.17,18.478,8.654l6.942,8.33l-83.893,15.08
		L352.511,280.048L352.511,280.048z"/>
	<path style="fill:#5D5360;" d="M168.14,103.694h42.442c7.138,0,13.908,3.17,18.478,8.654l6.942,8.33l-67.861,15.08L168.14,103.694
		L168.14,103.694z"/>
</g>
<path style="fill:#6F6571;" d="M446.76,50.071l-22.104,5.526l-22.673-22.673c-6.013-6.013-14.169-9.391-22.672-9.391H316.32v24.048
	h-96.076c-51.487,0-93.115,42.209-92.17,93.911c0.928,50.749,44.469,90.46,95.227,90.459h62.74c33.912,0,63.725,25.329,66.28,59.144
	c2.824,37.38-26.423,68.633-63.092,69.108c-57.889,0.751-105.058,46.344-105.058,104.237v40.059
	c17.709,0,32.065-14.356,32.065-32.065v-8.016c0-35.417,28.712-64.129,64.129-64.129h0.951c58.271,0,108.41-44.781,111.151-102.987
	c2.926-62.145-46.593-113.448-108.094-113.448h-58.398c-20.934,0-39.628-15.304-41.615-36.143
	c-2.28-23.905,16.457-44.018,39.892-44.018h120.242l16.032,8.016h24.048V95.677c0-2.214,0.448-4.322,1.26-6.241
	c2.028-4.795,6.322-8.398,11.541-9.466c1.043-0.213,2.124-0.326,3.231-0.326h56.113V57.848
	C456.72,52.632,451.819,48.806,446.76,50.071z"/>
<path style="fill:#FF646F;" d="M292.508,7.5h-36.191l25.993,25.993c9.02,9.02,21.254,14.087,34.01,14.087h36.191l-25.993-25.993
	C317.497,12.567,305.264,7.5,292.508,7.5z"/>
<path style="fill:#A16570;" d="M392.468,297.303c2.926-62.146-46.594-113.448-108.094-113.448h-58.399
	c-20.934,0-39.627-15.304-41.615-36.143c-2.28-23.906,16.457-44.018,39.893-44.018h120.242l-25.591-25.021l-94.651,0.973
	c-35.361,0-64.129,28.768-64.129,64.129s28.768,64.129,64.129,64.129h60.121c46.411,0,84.169,37.758,84.169,84.169
	s-37.759,84.169-84.169,84.169h-4.008c-48.621,0-88.928,39.556-88.928,88.177v8.016c0,4.42-2.845,8.016-7.265,8.016V504.5
	c17.709,0,32.065-14.356,32.065-32.065v-8.016c0-35.417,28.712-64.129,64.129-64.129h0.952
	C339.588,400.29,389.728,355.509,392.468,297.303z"/>
<path d="M392.092,55.597c0-4.142-3.358-7.5-7.5-7.5h-0.08c-4.142,0-7.46,3.358-7.46,7.5s3.398,7.5,7.54,7.5
	S392.092,59.739,392.092,55.597z"/>
<path d="M256.257,239.452c4.142,0,7.5-3.358,7.5-7.5s-3.358-7.5-7.5-7.5H220.18c-46.695,0-84.685-37.99-84.685-84.686
	s37.99-84.686,84.685-84.686h36.073c4.142,0,7.5-3.358,7.5-7.5s-3.358-7.5-7.5-7.5H220.18c-39.351,0-73.446,22.922-89.644,56.113
	H95.424c-7.004,0-13.593,3.086-18.078,8.468L46.6,141.556c-5.732-3.438-12.204-5.281-18.807-5.281
	c-9.163,0-18.079,3.546-25.107,9.986c-3.054,2.798-3.261,7.542-0.463,10.597c1.479,1.614,3.502,2.433,5.532,2.433
	c1.81,0,3.625-0.651,5.065-1.97c3.01-2.758,8.051-6.045,14.974-6.045s11.963,3.287,14.973,6.045
	c1.383,1.268,3.191,1.971,5.067,1.971h24.048c4.142,0,7.5-3.357,7.5-7.5c0-4.142-3.358-7.5-7.5-7.5h-8.035l14.265-17.118
	l42.443,9.337c-0.035,1.082-0.059,2.166-0.059,3.256c0,54.967,44.719,99.686,99.685,99.686L256.257,239.452L256.257,239.452z
	 M88.933,114.194c1.625-1.906,3.983-3.001,6.491-3.001h29.252c-1.009,3.368-1.846,6.809-2.498,10.314L88.933,114.194z"/>
<path d="M509.313,322.616c-7.028-6.44-15.944-9.987-25.107-9.987c-6.602,0-13.075,1.843-18.807,5.281l-30.746-36.895
	c-4.484-5.381-11.074-8.467-18.078-8.467h-18.204c-9.307-54.542-56.908-96.194-114.062-96.194h-60.121
	c-17.965,0-32.581-14.615-32.581-32.58c0-2.613,0.318-5.151,0.901-7.587l40.975-9.015l14.265,17.118h-8.035
	c-4.142,0-7.5,3.358-7.5,7.5c0,4.143,3.358,7.5,7.5,7.5h24.048c1.876,0,3.684-0.703,5.067-1.971c3.01-2.758,8.05-6.045,14.973-6.045
	s11.964,3.287,14.974,6.045c1.439,1.319,3.255,1.971,5.065,1.971c2.029,0,4.052-0.818,5.531-2.433
	c2.799-3.054,2.592-7.798-0.462-10.597c-7.027-6.44-15.944-9.986-25.107-9.986c-6.602,0-13.075,1.843-18.807,5.281l-25.301-30.362
	h102.332c7.763,5.214,16.892,8.017,26.453,8.017h72.145c4.142,0,7.5-3.358,7.5-7.5c0-4.143-3.358-7.5-7.5-7.5h-48.613v-8.532
	c0-4.705,3.828-8.532,8.532-8.532h40.597v0.516c0,4.143,3.358,7.5,7.5,7.5s7.5-3.357,7.5-7.5v-0.516h0.516
	c4.142,0,7.5-3.358,7.5-7.5V57.848c0-4.812-2.175-9.269-5.967-12.23s-8.646-3.99-13.312-2.823l-17.701,4.425
	c-0.175,0.044-0.363-0.008-0.491-0.136L407.223,27.62c-7.473-7.473-17.409-11.588-27.977-11.588h-47.753
	C321.022,5.695,307.172,0,292.444,0h-76.271c-4.142,0-7.5,3.358-7.5,7.5s3.358,7.5,7.5,7.5h36.974l23.797,23.797
	c10.5,10.5,24.461,16.284,39.312,16.284h36.191c3.034,0,5.768-1.828,6.929-4.63c1.161-2.802,0.519-6.029-1.626-8.173l-11.245-11.245
	h32.741c6.562,0,12.73,2.555,17.37,7.195l19.464,19.464c3.831,3.831,9.476,5.395,14.734,4.081l17.701-4.426
	c0.073-0.018,0.244-0.061,0.443,0.094c0.198,0.155,0.198,0.332,0.198,0.407v14.298h-48.613c-12.976,0-23.532,10.556-23.532,23.532
	v8.532h-8.532c-8.703,0-16.884-3.389-23.038-9.543l-21.298-21.298c-5.958-5.958-13.881-9.24-22.308-9.24h-5.501
	c-4.142,0-7.5,3.358-7.5,7.5c0,4.143,3.358,7.5,7.5,7.5h5.501c4.42,0,8.576,1.722,11.702,4.847l12.218,12.218h-50.979V82.15
	c0-4.143-3.358-7.5-7.5-7.5s-7.5,3.357-7.5,7.5v14.043h-35.587c-4.963,0-9.75,0.767-14.251,2.183l-5.86-10.921
	c-1.958-3.649-6.504-5.021-10.155-3.062c-3.65,1.959-5.021,6.505-3.062,10.155l5.663,10.553
	c-12.045,8.642-19.914,22.751-19.914,38.674c0,0.638,0.023,1.271,0.048,1.903l-11.774,2.444c-4.056,0.842-6.661,4.812-5.82,8.867
	c0.735,3.542,3.856,5.978,7.336,5.978c0.505,0,1.018-0.051,1.532-0.158l11.676-2.423c5.243,14.025,16.924,24.926,31.429,29.106
	l-1.511,9.178c-0.673,4.087,2.095,7.946,6.182,8.619c0.413,0.068,0.822,0.101,1.228,0.101c3.606,0,6.786-2.608,7.391-6.283
	l1.605-9.751h56.558v8.533c0,4.142,3.358,7.5,7.5,7.5s7.5-3.358,7.5-7.5v-7.67c21.874,2.871,41.557,12.788,56.696,27.391
	l-3.033,3.033c-2.929,2.929-2.928,7.678,0,10.606c1.465,1.464,3.384,2.196,5.303,2.196s3.839-0.732,5.304-2.197l2.436-2.437
	c12.394,16.124,20.023,36.086,20.766,57.771h-3.455c-4.142,0-7.5,3.358-7.5,7.5s3.358,7.5,7.5,7.5h2.861
	c-2.123,18.581-9.321,35.639-20.171,49.754l-0.266-0.266c-2.93-2.929-7.677-2.929-10.607,0c-2.929,2.929-2.928,7.678,0,10.606
	l0.861,0.862c-15.524,14.974-35.83,25.018-58.374,27.592c-0.078-4.075-3.399-7.355-7.493-7.355c-4.142,0-7.5,3.357-7.5,7.5v0.516
	h-0.516c-39.496,0-71.629,32.133-71.629,71.629v8.016c0,10.931-7.176,20.217-17.064,23.394v-31.41
	c0-53.325,43.384-96.709,96.709-96.709c39.497,0,71.629-32.133,71.629-71.629s-32.133-71.629-71.629-71.629
	c-4.142,0-7.5,3.358-7.5,7.5s3.358,7.5,7.5,7.5c22.831,0,42.536,13.589,51.488,33.097h-51.995c-7.005,0-13.594,3.086-18.078,8.467
	l-30.745,36.895c-5.732-3.438-12.204-5.281-18.806-5.281c-9.164,0-18.081,3.547-25.108,9.987c-3.054,2.798-3.26,7.542-0.462,10.596
	c1.479,1.614,3.502,2.433,5.531,2.433c1.81,0,3.625-0.651,5.065-1.971c3.009-2.758,8.05-6.046,14.973-6.046
	c6.923,0,11.963,3.288,14.973,6.046c1.383,1.268,3.191,1.971,5.067,1.971h24.048c4.142,0,7.5-3.358,7.5-7.5
	c0-4.143-3.358-7.5-7.5-7.5h-8.036l14.265-17.119l69.652,15.324c-8.784,19.916-28.705,33.859-51.833,33.859
	c-61.597,0-111.709,50.112-111.709,111.709v40.08c0,4.142,3.358,7.5,7.5,7.5c21.816,0,39.564-17.749,39.564-39.564v-8.016
	c0-31.225,25.404-56.629,56.629-56.629h4.008c57.246,0,104.909-41.787,114.106-96.459l35.472-7.804l14.265,17.119h-8.036
	c-4.142,0-7.5,3.357-7.5,7.5c0,4.142,3.358,7.5,7.5,7.5h24.048c1.876,0,3.684-0.703,5.067-1.971
	c3.009-2.758,8.05-6.046,14.973-6.046s11.964,3.288,14.974,6.046c1.439,1.319,3.255,1.971,5.065,1.971
	c2.029,0,4.052-0.819,5.531-2.434C512.575,330.158,512.368,325.414,509.313,322.616z M316.256,40.081
	c-10.844,0-21.039-4.223-28.706-11.89L274.36,15h18.083c10.844,0,21.039,4.223,28.707,11.891l13.19,13.19
	C334.34,40.081,316.256,40.081,316.256,40.081z M203.878,118.327c4.634-3.706,10.296-6.173,16.485-6.901l2.306,2.768
	L203.878,118.327z M281.32,290.549c1.624-1.907,3.983-3.001,6.49-3.001h56.493c0.422,2.784,0.643,5.633,0.643,8.533
	c0,2.83-0.215,5.61-0.618,8.331L281.32,290.549z M416.576,287.548c2.508,0,4.866,1.095,6.491,3.001l-23.062,5.074
	c-0.007-0.119-0.01-0.239-0.023-0.356c0.029-1.062,0.046-2.126,0.046-3.194c0-1.516-0.039-3.022-0.097-4.524h16.645V287.548z"/>
<g>
</g>
<g>
</g>
<g>
</g>
<g>
</g>
<g>
</g>
<g>
</g>
<g>
</g>
<g>
</g>
<g>
</g>
<g>
</g>
<g>
</g>
<g>
</g>
<g>
</g>
<g>
</g>
<g>
</g>
</svg>
