<svg id="Capa_1" enable-background="new 0 0 512 512" height="512" viewBox="0 0 512 512" width="512"
     xmlns="http://www.w3.org/2000/svg">
  <g>
    <g>
      <path
        d="m278.53 78.378v255.75 90.94h-54.8c2.82-6.39 4.4-13.5 4.4-21.07v-2.15c0-22.6-15.64-41.78-37.51-47.48-6.49-1.69-12.62-5.07-17.69-10.14-15.21-15.21-15.21-39.97.01-55.19l-73.54-73.54c-55.77 55.77-55.77 146.51-.01 202.27 2.55 2.55 5.18 4.99 7.87 7.3h-71.77c-14.08 0-25.49-11.41-25.49-25.49v-295.72c0-14.07 11.41-25.48 25.49-25.48z"
        fill="#fff"/>
    </g>
    <g>
      <path
        d="m476.51 78.38h-152.1c18.56 23.38 29.19 52.73 29.19 83.71v135.59h-30.97v36.45h10.95v90.94h142.93c14.08 0 25.49-11.41 25.49-25.49v-295.72c0-14.07-11.41-25.48-25.49-25.48zm-27.1 246.24c0 6.22-5.06 11.29-11.29 11.29s-11.3-5.07-11.3-11.29v-150.02c0-6.23 5.07-11.3 11.3-11.3s11.29 5.07 11.29 11.3z"
        fill="#fff"/>
    </g>
    <g>
      <path
        d="m306.056 470.664c-15.2 0-27.521-12.322-27.521-27.521v-109.011h55.042v109.011c0 15.199-12.322 27.521-27.521 27.521z"
        fill="#e0a083"/>
    </g>
    <g>
      <path d="m235.551 203.148c-19.862 19.862-53.29 19.843-73.132 0-20.195-20.195-20.195-52.937 0-73.132z"
            fill="#cef1d0"/>
    </g>
    <g>
      <path
        d="m172.929 344.227c5.072 5.072 11.205 8.454 17.692 10.145 21.87 5.701 37.505 24.874 37.505 47.475v2.152c0 34.651-33.105 59.614-66.467 50.252-22.82-6.404-44.349-18.565-62.269-36.485-55.763-55.763-55.763-146.499.007-202.268l73.539 73.539c-15.217 15.217-15.217 39.98-.007 55.19z"
        fill="#a0e4a5"/>
    </g>
    <g>
      <path d="m278.535 41.336v292.795h44.098v-36.453h30.967v-135.593c0-51.256-29.101-98.067-75.065-120.749z"
            fill="#ccd3dd"/>
    </g>
    <g>
      <path
        d="m476.51 68.378h-147.384c-12.726-14.968-28.395-27.241-46.166-36.01-3.1-1.53-6.77-1.349-9.704.475-2.936 1.825-4.721 5.037-4.721 8.493v27.042h-68.015c-5.522 0-10 4.478-10 10s4.478 10 10 10h68.011v326.689h-31.369c.778-4.367.998-8.791.969-13.22 0-26.75-18.5-50.254-44.989-57.156-4.959-1.292-9.502-3.897-13.14-7.535-11.166-11.166-11.155-29.883.011-41.047 3.839-3.839 3.838-10.302 0-14.143l-73.54-73.54c-3.868-3.864-10.297-3.847-14.146 0-28.574 28.574-44.753 67.809-44.754 108.209-.001 35.626 12.052 69.36 34.214 96.538.052.064.105.127.158.191.465.569.928 1.139 1.402 1.702h-47.857c-8.541 0-15.49-6.948-15.49-15.489v-295.72c0-8.535 6.949-15.479 15.49-15.479h77.05c5.522 0 10-4.478 10-10s-4.478-10-10-10h-77.05c-19.569 0-35.49 15.916-35.49 35.479v295.721c0 19.569 15.921 35.489 35.49 35.489h68.15c16.244 13.28 35.113 23.143 55.317 28.812 27.142 7.618 56.79-4.37 70.907-28.812h38.671v8.075c0 20.689 16.832 37.521 37.521 37.521s37.521-16.832 37.521-37.521v-8.075h132.933c19.569 0 35.49-15.92 35.49-35.489v-295.721c0-19.563-15.921-35.479-35.49-35.479zm-351.335 249.755-8.509-12.197c-5.212-7.472-3.907-17.553 3.035-23.449l9.561-8.118c2.723-2.312 5.065-4.963 6.995-7.868l23.257 23.256c-12.599 19.166-9.84 45.357 6.344 61.542 6.151 6.15 13.842 10.56 22.241 12.75 17.68 4.608 30.027 20.151 30.027 37.798.025 4.201-.237 8.644-1.247 12.742-.379-.003-23.591 0-23.685 0-7.612 0-14.482-5.027-16.769-12.311l-1.156-3.68c-4.321-13.771-15.868-23.688-30.134-25.884-9.49-1.46-16.094-10.379-14.72-19.881l1.132-7.83c1.37-9.476-.894-19.019-6.372-26.87zm76.258 119.474c-10.656 8.078-24.167 10.638-37.072 7.016-54.525-15.301-93.999-65.227-96.642-121.717-1.545-33.679 9.841-67.454 31.941-93.003l21.793 21.792c-1.028 2.857-2.77 5.418-5.137 7.428l-9.561 8.118c-14.845 12.608-17.636 34.162-6.491 50.137l8.509 12.197c2.562 3.673 3.621 8.136 2.98 12.567l-1.132 7.829c-2.937 20.318 11.183 39.388 31.474 42.51 6.57 1.011 12.103 5.763 14.093 12.106 5.377 17.116 18.668 30.274 37.609 29.995l11.4-.184c-1.182 1.133-2.438 2.204-3.764 3.209zm87.102-378.945c34.084 22.926 55.064 62.346 55.064 103.426v125.59h-20.97c-5.522 0-10 4.478-10 10v26.454h-24.095v-265.47zm35.042 384.481c0 9.661-7.86 17.521-17.521 17.521s-17.521-7.86-17.521-17.521v-99.011h34.098.944zm168.423-43.565c0 8.541-6.949 15.489-15.49 15.489h-132.93v-80.939c0-5.522-4.478-10-10-10h-.947v-16.449h20.967c5.522 0 10-4.478 10-10v-.001-135.59c-.082-25.824-6.979-51.496-20.21-73.71h133.12c8.541 0 15.49 6.944 15.49 15.479z"/>
      <path
        d="m438.118 143.304c-17.256 0-31.294 14.038-31.294 31.294v150.019c0 17.256 14.038 31.294 31.294 31.294s31.294-14.038 31.294-31.294v-150.019c0-17.256-14.038-31.294-31.294-31.294zm11.294 181.312c0 6.228-5.066 11.294-11.294 11.294s-11.294-5.066-11.294-11.294v-150.018c0-6.228 5.066-11.294 11.294-11.294s11.294 5.066 11.294 11.294z"/>
      <path
        d="m198.984 228.265c15.804 0 31.607-6.016 43.639-18.046 1.875-1.876 2.929-4.419 2.929-7.071s-1.054-5.195-2.929-7.071l-73.133-73.132c-1.876-1.875-4.419-2.929-7.071-2.929s-5.196 1.054-7.071 2.929c-24.061 24.062-24.061 63.213 0 87.275 12.031 12.03 27.834 18.045 43.636 18.045zm-35.709-83.25 57.286 57.284c-16.227 9.844-37.683 7.166-51.071-6.222-13.826-13.826-15.897-35.026-6.215-51.062z"/>
      <path
        d="m147.77 82.2c2.098 5.033 8.003 7.493 13.05 5.409 5.035-2.079 7.508-8.028 5.41-13.06-2.097-5.03-8.017-7.498-13.06-5.41-5.03 2.083-7.49 8.041-5.4 13.061z"/>
    </g>
  </g>
</svg>
