<svg id="Capa_1" enable-background="new 0 0 512 512" height="512" viewBox="0 0 512 512" width="512" xmlns="http://www.w3.org/2000/svg"><g><g><path d="m411.644 59.625h45.266v336.249h-45.266z" fill="#fff"/></g><g><path d="m255.501 92.99v326.262c4.244-13.542 18.415-23.379 33.365-23.379h70.349v-336.248h-70.349c-18.425 0-33.365 14.94-33.365 33.365z" fill="#fff"/></g><g><path d="m54.101 395.874h168.045c14.95 0 29.111 9.837 33.355 23.379v-326.263c0-18.425-14.93-33.365-33.355-33.365h-168.045z" fill="#fff"/></g><g><path d="m456.91 395.874h-45.266v41.504h90.356v-339.694h-45.09z" fill="#e0a083"/></g><g><path d="m54.101 97.684h-44.101v339.694h349.214v-41.504h-70.349c-14.412 0-28.971 9.357-33.365 23.379-4.404-14.018-18.938-23.379-33.355-23.379h-168.044z" fill="#e0a083"/></g><g><path d="m411.647 466.643-26.715-19.525-25.715 19.525v-421.239h52.43z" fill="#ffd88e"/></g><g><path d="m502 87.684h-35.09v-28.059c0-5.523-4.478-10-10-10h-35.264v-4.221c0-5.523-4.478-10-10-10h-52.43c-5.522 0-10 4.477-10 10v4.221h-60.351c-13.403 0-25.403 6.114-33.364 15.697-7.959-9.583-19.957-15.697-33.356-15.697h-168.044c-5.522 0-10 4.477-10 10v28.059h-34.101c-5.522 0-10 4.477-10 10v339.694c0 5.523 4.478 10 10 10h339.217v19.265c0 8.079 9.576 12.879 16.047 7.964l19.782-15.02 20.699 15.129c6.49 4.744 15.901-.062 15.901-8.073v-19.265h80.354c5.522 0 10-4.477 10-10v-339.694c0-5.523-4.478-10-10-10zm-55.09-18.059v316.249h-25.264v-316.249zm-158.044 0h60.349v51.593h-40.393c-5.522 0-10 4.477-10 10s4.478 10 10 10h40.393v44.146h-40.393c-5.522 0-10 4.477-10 10s4.478 10 10 10h40.393v44.147h-40.393c-5.522 0-10 4.477-10 10s4.478 10 10 10h40.393v44.147h-40.393c-5.522 0-10 4.477-10 10s4.478 10 10 10h40.393v52.215h-60.349c-8.172 0-16.337 2.321-23.365 6.472v-299.354c0-12.884 10.481-23.366 23.365-23.366zm-268.866 38.059h24.101v107.315c0 5.523 4.478 10 10 10s10-4.477 10-10v-145.374h158.045c12.878 0 23.355 10.482 23.355 23.366v299.332c-7.03-4.133-15.189-6.449-23.355-6.449h-158.045v-82.66c0-5.523-4.478-10-10-10s-10 4.477-10 10v92.66c0 5.523 4.478 10 10 10h168.045c9.686 0 19.752 5.93 23.355 15.123v6.381h-225.501zm329.215 319.694h-83.714v-6.382c3.411-8.702 13.191-15.123 23.365-15.123h60.349zm41.618 11.667c-3.527-2.579-8.467-2.535-11.947.109l-9.669 7.341v-391.091h32.43v391.544zm101.167-11.667h-70.354v-21.504h35.264c5.522 0 10-4.477 10-10v-288.19h25.09z"/><path d="m108.009 141.218h95.31c5.522 0 10-4.477 10-10s-4.478-10-10-10h-95.31c-5.522 0-10 4.477-10 10s4.477 10 10 10z"/><path d="m108.009 205.365h95.31c5.522 0 10-4.477 10-10s-4.478-10-10-10h-95.31c-5.522 0-10 4.477-10 10s4.477 10 10 10z"/><path d="m108.009 269.512h95.31c5.522 0 10-4.477 10-10s-4.478-10-10-10h-95.31c-5.522 0-10 4.477-10 10s4.477 10 10 10z"/><path d="m108.009 333.659h95.31c5.522 0 10-4.477 10-10s-4.478-10-10-10h-95.31c-5.522 0-10 4.477-10 10s4.477 10 10 10z"/><path d="m44.87 262.104c3.526 8.457 16.122 7.87 18.8-.928 2.632-8.647-7.154-16.07-14.799-11.414-4.157 2.532-5.837 7.858-4.001 12.342z"/></g></g></svg>