<svg height="512pt" viewBox="0 0 512 512.003" width="512pt" xmlns="http://www.w3.org/2000/svg"><path d="m308.925781 188.917969c3.910157-8.777344 6.464844-17.191407 6.464844-25.757813 0-9.75-.472656-17.941406-1.230469-24.984375h67.089844c-.757812 7.042969-1.234375 15.242188-1.234375 24.984375 0 8.566406 2.566406 16.992188 6.46875 25.757813zm0 0" fill="#f05f90"/><path d="m314.160156 138.175781h67.089844c1.597656-14.746093 4.457031-24.441406 6.910156-32.761719 2.5625-8.726562 4.78125-16.261718 4.78125-26.261718 0-25.792969-19.445312-45.238282-45.230468-45.238282-25.796876 0-45.242188 19.445313-45.242188 45.230469 0 10.082031 2.226562 17.636719 4.800781 26.371094 2.453125 8.296875 5.300781 17.960937 6.890625 32.660156zm0 0" fill="#ede6f5"/><path d="m48.765625 188.917969c3.910156-8.777344 6.46875-17.191407 6.46875-25.757813 0-9.75-.476563-17.941406-1.234375-24.984375h67.089844c-.757813 7.042969-1.230469 15.242188-1.230469 24.984375 0 8.566406 2.5625 16.992188 6.464844 25.757813zm0 0" fill="#f05f90"/><path d="m148.933594 232.355469c-3.714844-7.75-7.707032-15.011719-11.542969-21.996094-4.117187-7.515625-8.007813-14.578125-11.066406-21.441406h-77.558594c-3.058594 6.851562-6.9375 13.914062-11.066406 21.429687-12.988281 23.648438-27.699219 50.449219-27.699219 88.519532 0 54.195312 17.464844 98.941406 24.070312 113.917968h105.941407" fill="#ede6f5"/><path d="m54 138.175781h67.089844c1.601562-14.746093 4.457031-24.441406 6.910156-32.761719 2.566406-8.726562 4.78125-16.261718 4.78125-26.261718 0-25.792969-19.445312-45.238282-45.230469-45.238282-25.796875 0-45.242187 19.445313-45.242187 45.230469 0 10.082031 2.226562 17.636719 4.800781 26.371094 2.453125 8.296875 5.300781 17.960937 6.890625 32.660156zm0 0" fill="#ede6f5"/><path d="m174.0625 184.121094c4.390625-9.855469 7.261719-19.308594 7.261719-28.933594 0-10.953125-.53125-20.152344-1.378907-28.0625h75.359376c-.847657 7.910156-1.378907 17.121094-1.378907 28.0625 0 9.625 2.878907 19.089844 7.261719 28.933594zm0 0" fill="#f05f90"/><path d="m179.945312 127.125h75.359376c1.796874-16.566406 5.011718-27.457031 7.765624-36.804688 2.882813-9.804687 5.371094-18.269531 5.371094-29.496093 0-28.980469-21.84375-50.820313-50.8125-50.820313-28.976562 0-50.820312 21.839844-50.820312 50.808594 0 11.324219 2.5 19.808594 5.394531 29.625 2.753906 9.316406 5.953125 20.171875 7.742187 36.6875zm0 0" fill="#c7cde4"/><path d="m383.78125 265.566406c13.644531 0 26.746094 2.3125 38.941406 6.5625-4.765625-24.625-15.453125-44.082031-25.171875-61.769531-4.117187-7.515625-8.007812-14.578125-11.066406-21.441406h-77.558594c-3.058593 6.851562-6.9375 13.914062-11.066406 21.429687-3.835937 6.992188-7.828125 14.257813-11.542969 22.007813 8.777344 18.195312 16.253906 38.765625 18.027344 63.878906 20.988281-19.054687 48.859375-30.667969 79.4375-30.667969zm0 0" fill="#ede6f5"/><path d="m304.34375 296.234375c-2.601562-36.835937-17.46875-63.898437-30.726562-88.023437-4.625-8.445313-8.996094-16.378907-12.429688-24.089844h-87.125c-3.433594 7.699218-7.796875 15.632812-12.429688 24.078125-14.589843 26.5625-31.117187 56.667969-31.117187 99.4375 0 58.820312 18.316406 107.734375 26.246094 126.148437h117.867187" fill="#c7cde4"/><path d="m502 383.785156c0 65.289063-52.925781 118.21875-118.21875 118.21875-65.289062 0-118.21875-52.929687-118.21875-118.21875 0-65.292968 52.929688-118.21875 118.21875-118.21875 65.292969 0 118.21875 52.925782 118.21875 118.21875zm0 0" fill="#52607e"/><g fill="#7ccafd"><path d="m343.269531 347.066406c-9.300781-9.300781-24.378906-9.300781-33.679687 0-9.300782 9.300782-9.300782 24.378906 0 33.679688 9.300781 9.300781 24.378906 9.300781 33.679687 0 9.300781-9.300782 9.300781-24.378906 0-33.679688zm0 0"/><path d="m383.949219 305.226562c-9.300781-9.300781-24.378907-9.300781-33.679688 0-9.300781 9.300782-9.300781 24.382813 0 33.683594 9.300781 9.300782 24.378907 9.300782 33.679688 0 9.300781-9.300781 9.300781-24.382812 0-33.683594zm0 0"/><path d="m335.910156 298.445312c-9.300781-9.300781-24.378906-9.300781-33.679687 0-9.300781 9.300782-9.300781 24.382813 0 33.683594 9.300781 9.300782 24.378906 9.300782 33.679687 0 9.300782-9.300781 9.300782-24.382812 0-33.683594zm0 0"/></g><path d="m431.367188 264.71875c-5.488282-23.570312-15.839844-42.410156-25.046876-59.164062l-.359374-.660157c-3.875-7.066406-7.53125-13.742187-10.332032-20.023437-.003906-.007813-.003906-.011719-.007812-.019532-3.820313-8.589843-5.601563-15.484374-5.601563-21.691406 0-8.746094.382813-16.566406 1.171875-23.902344 1.503906-13.851562 4.1875-22.960937 6.5625-31.023437 2.667969-9.074219 5.1875-17.644531 5.1875-29.082031 0-31.492188-23.746094-55.238282-55.230468-55.238282-31.492188 0-55.242188 23.742188-55.242188 55.230469 0 11.53125 2.53125 20.113281 5.210938 29.207031 2.363281 7.988282 5.039062 17.039063 6.535156 30.875.003906.007813.003906.011719.003906.019532.789062 7.339844 1.171875 15.160156 1.171875 23.910156 0 6.222656-1.777344 13.113281-5.597656 21.683594-2.871094 6.441406-12.542969 24.050781-13.46875 25.753906-1.320313-2.433594-12.828125-23.417969-15.992188-30.519531-.003906-.007813-.007812-.011719-.007812-.019531-4.367188-9.8125-6.402344-17.714844-6.402344-24.871094 0-9.867188.433594-18.691406 1.324219-26.984375 1.699218-15.660157 4.730468-25.949219 7.417968-35.066407 2.96875-10.101562 5.773438-19.644531 5.773438-32.3125 0-34.671874-26.140625-60.820312-60.808594-60.820312-34.671875 0-60.820312 26.140625-60.820312 60.808594 0 12.777344 2.816406 22.332031 5.804687 32.460937 2.667969 9.023438 5.6875 19.253907 7.382813 34.902344.003906.007813.003906.011719.003906.019531.890625 8.292969 1.324219 17.121094 1.324219 26.996094 0 7.160156-2.027344 15.054688-6.386719 24.84375-.003906.003906-.007812.011719-.007812.015625-3.25 7.28125-14.6875 28.109375-16.007813 30.546875-.925781-1.699219-10.65625-19.445312-13.457031-25.730469 0-.003906-.003906-.007812-.003906-.015625-3.824219-8.585937-5.601563-15.480468-5.601563-21.691406 0-8.746094.382813-16.566406 1.171875-23.910156v-.003906c1.5-13.835938 4.183594-22.941407 6.5625-31.015626 2.667969-9.070312 5.1875-17.640624 5.1875-29.074218 0-31.492188-23.746094-55.242188-55.230469-55.242188-31.492187 0-55.242187 23.746094-55.242187 55.230469 0 11.53125 2.53125 20.113281 5.210937 29.210937 2.359375 7.984376 5.035157 17.035157 6.535157 30.875 0 .003907 0 .011719.003906.015626.789062 7.34375 1.171875 15.167968 1.171875 23.914062 0 6.21875-1.777344 13.109375-5.597657 21.683594-2.871093 6.433594-6.636718 13.296875-10.625 20.558594l-.074218.132812c-13.558594 24.695312-28.933594 52.683594-28.933594 93.335938 0 55.472656 17.429688 100.96875 24.921875 117.953124 1.597656 3.625 5.1875 5.964844 9.148437 5.964844h105.941407c.539062 0 1.066406-.042968 1.582031-.125 2.269531 6.191406 4.347656 11.277344 5.984375 15.082032 1.582031 3.667968 5.191406 6.042968 9.183594 6.042968h113.726562c21.5625 40.546875 64.257813 68.21875 113.292969 68.21875 70.703125 0 128.21875-57.519531 128.21875-128.21875 0-53.898437-33.425781-100.132812-80.632812-119.066406zm-106.367188-116.542969h45.414062c-.265624 4.757813-.394531 9.722657-.394531 14.984375 0 5.058594.71875 10.230469 2.214844 15.757813h-49.054687c1.496093-5.523438 2.210937-10.695313 2.210937-15.757813 0-5.261718-.128906-10.226562-.390625-14.984375zm22.710938-104.261719c20.414062 0 35.230468 14.820313 35.230468 35.242188 0 8.554688-1.929687 15.125-4.378906 23.449219-1.972656 6.695312-4.332031 14.695312-6.066406 25.574219h-49.582032c-1.730468-10.871094-4.082031-18.832032-6.050781-25.488282-2.453125-8.324218-4.394531-14.902344-4.394531-23.546875 0-20.414062 14.824219-35.230469 35.242188-35.230469zm-41.085938 171.246094.066406-.117187c3.046875-5.546875 5.96875-10.871094 8.570313-16.125h64.886719c2.515624 5.085937 5.335937 10.230469 8.269531 15.589843l.367187.664063c7.3125 13.3125 14.8125 26.964844 19.96875 42.835937-8.082031-1.601562-16.429687-2.441406-24.972656-2.441406-26.546875 0-51.234375 8.109375-71.714844 21.980469-3.066406-16.933594-8.464844-31.707031-14.648437-45.117187 3-5.960938 6.144531-11.691407 9.207031-17.269532zm50.71875 97.140625c2.695312-2.695312 6.234375-4.042969 9.773438-4.042969 3.535156 0 7.074218 1.347657 9.765624 4.042969 5.390626 5.386719 5.390626 14.148438 0 19.535157-5.382812 5.386718-14.148437 5.386718-19.535156 0-5.390625-5.386719-5.390625-14.148438-.003906-19.535157zm-28.5 12.753907c-5.386719 5.386718-14.152344 5.386718-19.539062 0-5.386719-5.386719-5.386719-14.148438 0-19.539063 2.609374-2.609375 6.078124-4.042969 9.769531-4.042969 3.6875 0 7.160156 1.433594 9.769531 4.046875 5.386719 5.382813 5.386719 14.148438 0 19.535157zm-12.175781 29.085937c2.691406-2.695313 6.230469-4.042969 9.765625-4.042969 3.539062 0 7.078125 1.347656 9.769531 4.042969 2.613281 2.605469 4.046875 6.078125 4.046875 9.765625 0 3.691406-1.433594 7.160156-4.042969 9.769531h-.003906c-5.386719 5.386719-14.148437 5.386719-19.535156 0s-5.386719-14.148437 0-19.535156zm-69.863281-180.019531h-58.355469c1.945312-6.683594 2.878906-12.882813 2.878906-18.933594 0-6.363281-.171875-12.347656-.519531-18.0625h53.632812c-.347656 5.71875-.515625 11.699219-.515625 18.0625-.003906 6.042969.933594 12.246094 2.878907 18.933594zm-29.175782-154.117188c23.265625 0 40.8125 17.546875 40.8125 40.820313 0 9.789062-2.191406 17.238281-4.972656 26.695312-2.265625 7.695313-4.988281 16.929688-6.9375 29.605469h-57.808594c-1.949218-12.667969-4.667968-21.859375-6.929687-29.515625-2.785157-9.445313-4.984375-16.910156-4.984375-26.796875 0-23.265625 17.550781-40.808594 40.820312-40.808594zm-152.792968 128.171875h45.417968c-.265625 4.757813-.394531 9.726563-.394531 14.984375 0 5.058594.71875 10.230469 2.214844 15.757813h-49.054688c1.496094-5.523438 2.214844-10.695313 2.214844-15.757813-.003906-5.257812-.132813-10.226562-.398437-14.984375zm22.714843-104.261719c20.414063 0 35.230469 14.820313 35.230469 35.242188 0 8.554688-1.933594 15.121094-4.382812 23.457031-1.972657 6.695313-4.328126 14.691407-6.0625 25.566407h-49.582032c-1.730468-10.871094-4.085937-18.832032-6.050781-25.488282-2.457031-8.324218-4.394531-14.902344-4.394531-23.546875 0-20.414062 14.820312-35.230469 35.242187-35.230469zm-46.855469 358.871094c-7.742187-19.027344-20.695312-57.769531-20.695312-103.917968 0-35.519532 14.0625-61.121094 26.464844-83.707032l.074218-.132812c3.042969-5.542969 5.964844-10.859375 8.5625-16.109375h64.886719c2.519531 5.085937 5.335938 10.230469 8.273438 15.589843l.363281.667969c3.0625 5.566407 6.207031 11.292969 9.199219 17.246094-9.621094 20.851563-17.308594 44.890625-17.308594 75.214844 0 37.191406 7.101563 70.546875 14.472656 95.148437zm122.742188 21c-8.445312-21.082031-22.921875-64.722656-22.921875-116.148437 0-40.222657 15.875-69.125 29.882813-94.625l.074218-.136719c3.546875-6.460938 6.945313-12.648438 9.941406-18.753906h74.421876c2.902343 5.914062 6.179687 11.902344 9.601562 18.148437l.414062.753907c4.15625 7.5625 8.355469 15.203124 12.238282 23.195312.144531.335938.300781.667969.480468.988281 7.789063 16.1875 14.238282 33.835938 16.402344 55.148438-23.695312 23.28125-38.410156 55.667969-38.410156 91.429687 0 13.960938 2.242188 27.40625 6.386719 40zm220.34375 68.21875c-59.671875 0-108.21875-48.546875-108.21875-108.21875 0-19.070312 4.960938-37.007812 13.65625-52.582031 1.554688 2.90625 3.546875 5.597656 5.941406 7.996094 1.453125 1.449219 3.007813 2.742187 4.636719 3.875-10.382813 13.257812-9.476563 32.542969 2.726563 44.746093 6.386718 6.386719 14.878906 9.902344 23.910156 9.902344 9.035156 0 17.523437-3.519531 23.910156-9.902344 6.390625-6.386718 9.90625-14.878906 9.90625-23.914062 0-3.085938-.410156-6.109375-1.207031-9.007812 2.648437.644531 5.359375.96875 8.070312.96875 8.660157 0 17.320313-3.296876 23.914063-9.886719 13.183594-13.183594 13.183594-34.636719 0-47.824219-12.171875-12.167969-31.386719-13.105469-44.640625-2.808594-1.011719-1.390625-2.148438-2.71875-3.402344-3.972656-1.933594-1.933594-4.0625-3.605469-6.335937-4.992188 14.253906-6.929687 30.25-10.816406 47.136718-10.816406 59.671875 0 108.21875 48.546875 108.21875 108.21875-.003906 59.671875-48.550781 108.21875-108.222656 108.21875zm0 0"/><path d="m184.507812 403.789062c-4.226562 0-8.15625-2.703124-9.519531-6.949218-6.601562-20.582032-14.472656-52.769532-14.472656-89.203125 0-17.328125 3.253906-33.40625 10.238281-50.59375 2.078125-5.117188 7.910156-7.578125 13.027344-5.5s7.578125 7.910156 5.5 13.027343c-5.980469 14.71875-8.765625 28.402344-8.765625 43.066407 0 33.847656 7.351563 63.871093 13.519531 83.09375 1.683594 5.261719-1.210937 10.890625-6.46875 12.578125-1.015625.324218-2.042968.480468-3.058594.480468zm10.460938-163.171874c-5.519531 0-10.003906-4.476563-10.003906-10 0-5.523438 4.472656-10 9.996094-10h.007812c5.523438 0 10 4.476562 10 10 0 5.523437-4.476562 10-10 10zm0 0"/></svg>