<svg id="Capa_1" enable-background="new 0 0 497 497" height="512" viewBox="0 0 497 497" width="512" xmlns="http://www.w3.org/2000/svg"><g><path d="m248.5 0 18.785 133.142-18.785 153.836h-37.568c-.194-126.307 12.671-229.205 23.394-275.712 1.726-7.504 7.95-11.266 14.174-11.266z" fill="#95a9ba"/><path d="m137.946 0 18.785 133.142-18.785 153.836h-37.568c-.194-126.307 12.671-229.205 23.394-275.712 1.726-7.504 7.95-11.266 14.174-11.266z" fill="#95a9ba"/><g fill="#a6b6c4"><path d="m359.054 0-18.785 133.142 18.785 153.836h37.568c.194-126.307-12.671-229.205-23.394-275.712-1.726-7.504-7.95-11.266-14.174-11.266z"/><path d="m286.068 286.978h-37.568v-286.978c6.224 0 12.448 3.762 14.174 11.266 10.723 46.507 23.588 149.405 23.394 275.712z"/><path d="m175.514 286.978h-37.568v-286.978c6.224 0 12.448 3.762 14.174 11.266 10.723 46.507 23.588 149.405 23.394 275.712z"/></g><path d="m321.486 286.978h37.568v-286.978c-6.224 0-12.448 3.762-14.174 11.266-10.723 46.507-23.588 149.405-23.394 275.712z" fill="#95a9ba"/><path d="m101.864 351.645h-56.513c-12.792 0-22.293 11.847-19.516 24.334l6.157 27.685c2.034 9.146 10.147 15.653 19.516 15.653h58.892z" fill="#516a80"/><path d="m395.136 351.645h56.513c12.792 0 22.293 11.847 19.516 24.334l-6.157 27.685c-2.034 9.146-10.147 15.653-19.516 15.653h-58.892z" fill="#516a80"/><path d="m407.575 294.225h-318.15c-19.736 0-34.394 18.277-30.11 37.542l22.52 101.259c8.313 37.381 41.471 63.974 79.765 63.974h173.8c38.294 0 71.451-26.593 79.765-63.974l22.52-101.259c4.285-19.265-10.374-37.542-30.11-37.542z" fill="#edb798"/><g><g><g><ellipse cx="160.038" cy="416.855" fill="#ffefe0" rx="32.641" ry="25.994"/></g><g><ellipse cx="336.962" cy="416.855" fill="#ffefe0" rx="32.641" ry="25.994"/></g></g></g><path d="m179.061 399.333c-4.142 0-7.5-3.358-7.5-7.5v-13.343c0-4.142 3.358-7.5 7.5-7.5s7.5 3.358 7.5 7.5v13.343c0 4.142-3.358 7.5-7.5 7.5z" fill="#334151"/><path d="m317.939 399.333c-4.142 0-7.5-3.358-7.5-7.5v-13.343c0-4.142 3.358-7.5 7.5-7.5s7.5 3.358 7.5 7.5v13.343c0 4.142-3.357 7.5-7.5 7.5z" fill="#334151"/><path d="m248.5 407.276c-9.184 0-17.917-3.978-23.961-10.913-2.721-3.123-2.396-7.86.727-10.582 3.123-2.721 7.86-2.396 10.582.727 3.194 3.665 7.806 5.768 12.653 5.768s9.458-2.102 12.653-5.768c2.721-3.123 7.459-3.448 10.582-.727s3.448 7.459.727 10.582c-6.046 6.935-14.779 10.913-23.963 10.913z" fill="#334151"/><path d="m277.272 273.987h-57.545c-11.515 0-20.85 9.335-20.85 20.85 0 27.405 22.217 49.622 49.622 49.622 27.405 0 49.622-22.217 49.622-49.622.001-11.515-9.334-20.85-20.849-20.85z" fill="#879caf"/><path d="m104.984 376.74c0-29.747 7.231-57.802 20.02-82.515h-35.579c-19.736 0-34.395 18.277-30.11 37.542l22.52 101.259c7.494 33.697 35.181 58.619 68.617 63.205-28.278-31.765-45.468-73.617-45.468-119.491z" fill="#e8a882"/><path d="m166.718 273.987h-57.545c-11.515 0-20.85 9.335-20.85 20.85 0 27.405 22.217 49.622 49.622 49.622 27.406 0 49.622-22.217 49.622-49.622.001-11.515-9.334-20.85-20.849-20.85z" fill="#879caf"/><path d="m330.282 273.987h57.545c11.515 0 20.85 9.335 20.85 20.85 0 27.405-22.217 49.622-49.622 49.622-27.405 0-49.622-22.217-49.622-49.622-.001-11.515 9.334-20.85 20.849-20.85z" fill="#879caf"/><path d="m123.16 307.605c0-13.528 6.16-25.617 15.827-33.617h-29.813c-11.515 0-20.85 9.334-20.85 20.85 0 26.859 21.343 48.719 47.992 49.581-9.21-7.741-13.156-21.33-13.156-36.814z" fill="#7a8fa4"/></g></svg>