<?xml version="1.0" encoding="iso-8859-1"?>
<!-- Generator: Adobe Illustrator 19.0.0, SVG Export Plug-In . SVG Version: 6.00 Build 0)  -->
<svg version="1.1" id="Capa_1" xmlns="http://www.w3.org/2000/svg" xmlns:xlink="http://www.w3.org/1999/xlink" x="0px" y="0px"
	 viewBox="0 0 512 512" style="enable-background:new 0 0 512 512;" xml:space="preserve">
<path style="fill:#FFE17D;" d="M256,215.919h-68.137c-17.709,0-32.065-14.356-32.065-32.065s14.356-32.065,32.065-32.065h96.194
	V95.677H183.855c-46.486,0-84.169,37.684-84.169,84.169s37.684,84.169,84.169,84.169h76.153c26.563,0,48.097,21.534,48.097,48.097
	s-21.534,48.097-48.097,48.097h-16.032c-57.553,0-104.21,46.656-104.21,104.209V504.5c17.709,0,32.065-14.356,32.065-32.065v-8.016
	c0-35.417,28.712-64.129,64.129-64.129H256c50.912,0,92.185-41.273,92.185-92.185C348.185,257.192,306.912,215.919,256,215.919z"/>
<g>
	<path style="fill:#FFD164;" d="M311.792,261.879c-13.707-14.13-32.098-21.911-51.784-21.911H186.65
		c-34.092,0-62.309-26.459-62.902-58.981c-0.297-16.291,5.815-31.655,17.211-43.261c11.397-11.608,26.632-18,42.896-18h100.202
		V95.677H183.855c-46.486,0-84.169,37.684-84.169,84.169s37.684,84.169,84.169,84.169h76.153c26.563,0,48.097,21.534,48.097,48.097
		s-21.534,48.097-48.097,48.097h-16.032c-57.553,0-104.21,46.656-104.21,104.209V504.5c9.632,0,18.687-4.335,24.564-11.058V464.42
		c0-44.201,35.96-80.161,80.161-80.161h13.497c39.71,0,72.966-31.374,74.134-69.938
		C332.716,294.629,325.496,276.006,311.792,261.879z"/>
	<path style="fill:#FFD164;" d="M389.642,30.173c-6.053,6.053-9.361,14.276-9.393,22.836c-0.087,23.58-19.23,42.668-42.83,42.668
		h-55.782c-15.192,0-28.81,11.376-29.605,26.548c-0.848,16.18,12.021,29.565,28.017,29.565h12.024v8.016
		c0,13.282,10.767,24.048,24.048,24.048h24.048v-16.032c0-8.854,7.178-16.032,16.032-16.032h48.097c4.427,0,8.016-3.589,8.016-8.016
		V7.5L389.642,30.173z"/>
</g>
<path style="fill:#FFE17D;" d="M380.249,53.009c-0.087,23.58-19.23,42.668-42.83,42.668h-2.515c8.504,0,16.66,3.378,22.673,9.391
	l7.613,7.613c4.51,4.51,10.627,7.043,17.004,7.043h30.12V7.5l-22.673,22.673C383.589,36.226,380.281,44.45,380.249,53.009z"/>
<path style="fill:#FF8087;" d="M183.855,264.016h44.089L185.39,215.67c-16.532-1.284-29.591-14.954-29.591-31.815l-34.66,51.989
	C136.553,253.094,158.901,264.016,183.855,264.016z"/>
<path style="fill:#E6646E;" d="M183.855,264.016h44.089l-21.168-24.048H186.65c-21.046,0-39.829-10.101-51.281-25.469l-14.23,21.345
	C136.553,253.093,158.9,264.016,183.855,264.016z"/>
<path d="M340.25,120.242h-0.08c-4.142,0-7.46,3.357-7.46,7.5c0,4.142,3.398,7.5,7.54,7.5s7.5-3.358,7.5-7.5
	C347.75,123.6,344.392,120.242,340.25,120.242z"/>
<path d="M415.185,0.571c-2.803-1.16-6.028-0.519-8.173,1.626L384.338,24.87c-7.473,7.473-11.588,17.408-11.588,27.976
	c0,19.482-15.85,35.332-35.331,35.332h-6.349c5.366-6.754,8.584-15.288,8.584-24.565c0-4.142-3.358-7.5-7.5-7.5s-7.5,3.358-7.5,7.5
	c0,13.545-11.02,24.564-24.564,24.564h-10.14c1.034-2.647,1.608-5.523,1.608-8.532c0-4.143-3.358-7.5-7.5-7.5s-7.5,3.357-7.5,7.5
	c0,4.704-3.828,8.532-8.532,8.532h-84.17c-50.546,0-91.669,41.123-91.669,91.669c0,50.547,41.123,91.669,91.669,91.669h44.092
	c4.142,0,7.5-3.358,7.5-7.5c0-1.919-0.721-3.671-1.908-4.998c-0.749-0.849-19.054-21.645-31.338-35.599H256
	c46.696,0,84.686,37.99,84.686,84.686S302.696,392.79,256,392.79h-20.041c-39.496,0-71.629,32.133-71.629,71.629v8.016
	c0,10.931-7.176,20.217-17.064,23.394v-31.41c0-53.325,43.384-96.709,96.709-96.709h16.033c30.656,0,55.597-24.941,55.597-55.597
	s-24.94-55.597-55.597-55.597c-4.142,0-7.5,3.358-7.5,7.5s3.358,7.5,7.5,7.5c22.385,0,40.597,18.211,40.597,40.597
	c0,22.385-18.211,40.597-40.597,40.597h-16.033c-61.597,0-111.709,50.112-111.709,111.709V504.5c0,4.142,3.358,7.5,7.5,7.5
	c21.816,0,39.564-17.749,39.564-39.564v-8.016c0-31.225,25.404-56.629,56.629-56.629H256c54.967,0,99.686-44.719,99.686-99.686
	c0-54.966-44.719-99.685-99.686-99.685h-68.137c-13.545,0-24.564-11.02-24.564-24.565s11.02-24.564,24.564-24.564h40.081
	c4.142,0,7.5-3.357,7.5-7.5c0-4.142-3.358-7.5-7.5-7.5h-40.081c-21.013,0-38.245,16.469-39.486,37.176l-27.769,41.654
	c-8.459-12.325-13.422-27.229-13.422-43.273c0-42.275,34.394-76.669,76.669-76.669h67.209c-4.132,5.809-6.572,12.9-6.572,20.556
	c0,19.606,15.951,35.556,35.557,35.556h4.524v0.517c0,17.396,14.152,31.548,31.548,31.548h41.164
	c-5.366,6.754-8.584,15.288-8.584,24.564c0,4.143,3.358,7.5,7.5,7.5s7.5-3.357,7.5-7.5c0-13.545,11.02-24.564,24.564-24.564h8.016
	c4.142,0,7.5-3.357,7.5-7.5c0-4.142-3.358-7.5-7.5-7.5h-48.613v-8.532c0-4.704,3.828-8.532,8.532-8.532h40.597v0.517
	c0,4.142,3.358,7.5,7.5,7.5s7.5-3.358,7.5-7.5v-2.459c4.774-2.648,8.016-7.737,8.016-13.573V7.5
	C419.814,4.467,417.987,1.731,415.185,0.571z M155.316,206.313l9.68,47.85c-13.099-3.326-24.852-10.042-34.295-19.142l22.018-33.027
	C153.496,203.492,154.361,204.935,155.316,206.313z M183.854,256.516c-1.038,0-2.066-0.038-3.094-0.079l-7.225-35.714
	c2.636,1.028,5.403,1.791,8.276,2.233l29.541,33.56H183.854z M332.669,167.822v8.532h-16.548c-9.125,0-16.548-7.423-16.548-16.548
	v-0.517h8.532c4.142,0,7.5-3.357,7.5-7.5c0-4.142-3.358-7.5-7.5-7.5h-28.057c-11.335,0-20.557-9.222-20.557-20.556
	c0-11.335,9.222-20.556,20.557-20.556h54.855c6.562,0,12.73,2.555,17.37,7.194l7.613,7.613c5.958,5.959,13.881,9.24,22.308,9.24
	c4.142,0,7.5-3.357,7.5-7.5c0-4.142-3.358-7.5-7.5-7.5c-4.42,0-8.576-1.721-11.701-4.847l-7.613-7.613
	c-0.774-0.774-1.58-1.502-2.404-2.203c16.182-8.378,27.274-25.271,27.274-44.716c0-6.561,2.555-12.73,7.195-17.37l9.87-9.87v118.168
	c0,0.284-0.231,0.516-0.516,0.516h-48.097C343.226,144.29,332.669,154.847,332.669,167.822z"/>
<g>
</g>
<g>
</g>
<g>
</g>
<g>
</g>
<g>
</g>
<g>
</g>
<g>
</g>
<g>
</g>
<g>
</g>
<g>
</g>
<g>
</g>
<g>
</g>
<g>
</g>
<g>
</g>
<g>
</g>
</svg>
