<svg id="Capa_1" enable-background="new 0 0 512.003 512.003" height="512" viewBox="0 0 512.003 512.003" width="512" xmlns="http://www.w3.org/2000/svg"><g><g><path d="m486.101 63.688c-6.848-6.848-17.797-7.32-25.208-1.085l-34.392 28.93c-22.885 19.251-44.946 39.492-66.11 60.656l-14.07 14.07 37.208 37.208 14.07-14.07c21.164-21.164 41.406-43.226 60.657-66.111l28.93-34.391c6.235-7.41 5.763-18.359-1.085-25.207z" fill="#e0a083"/></g><g><path d="m455.101 371.79c7.724 0 13.986-6.262 13.986-13.986v-247.384l-10.83 12.87c-19.25 22.88-39.49 44.94-60.66 66.11l-14.065 14.065-37.21-37.21 14.065-14.065c21.17-21.16 43.23-41.41 66.11-60.66l32.09-26.99h-424.224c-7.724 0-13.986 6.262-13.986 13.986v279.278c0 7.724 6.262 13.986 13.986 13.986z" fill="#fff"/></g><g><path d="m269.967 64.542h-50.465v-41.267c0-7.332 5.943-13.275 13.275-13.275h23.915c7.332 0 13.275 5.943 13.275 13.275z" fill="#e0a083"/></g><g><path d="m220.507 417.6h48.46v84.4h-48.46z" fill="#d98964"/></g><g><path d="m120.687 502 29.02-84.4h50.47l-29.03 84.4z" fill="#d98964"/></g><g><path d="m318.317 502-29.02-84.4h50.46l29.03 84.4z" fill="#d98964"/></g><g><path d="m131.102 371.795c-7.942 0-14.38 6.438-14.38 14.38v17.043c0 7.942 6.438 14.38 14.38 14.38h227.266c7.942 0 14.38-6.438 14.38-14.38v-17.043c0-7.942-6.438-14.38-14.38-14.38z" fill="#e0a083"/></g><g><path d="m320.011 177.158h52.621v52.62h-52.621z" fill="#fff" transform="matrix(.707 -.707 .707 .707 -42.439 304.48)"/></g><g><path d="m309.113 203.468s-24.658 20.397-58.842 25.735c-3.646.569-5.127 5.008-2.518 7.617l28.361 28.361c.339.339.691.675 1.053 1.006 18.362 16.794 49.786 9.147 63.138-14.748l6.015-10.764z" fill="#838eb1"/></g><g><path d="m247.749 236.82 25.863 25.863-54.299 54.289c-9.977 9.977-26.141 9.977-36.107 0-9.977-9.967-9.977-26.13 0-36.107l15.18-15.18c8.594-8.594 8.594-22.535 0-31.129-10.377-8.59-20.754-8.59-31.129 0l-3.001 2.991c-8.174 8.174-21.419 8.174-29.603 0-8.167-9.868-8.167-19.735 0-29.603l89.925-89.915c8.174-8.174 21.429-8.174 29.603 0 8.181 9.868 8.181 19.735 0 29.603-8.042 9.732-7.92 19.411.369 29.039l30.637 29.132c2.786 2.653 4.978 5.695 6.556 8.953-10.387 5.655-24.808 11.849-41.494 14.453-3.637.567-5.102 5.008-2.5 7.611z" fill="#ff7e96"/></g><g><path d="m75.301 299.275c8.73 8.693 23.246 8.726 31.972 0 6.882-9.44 9.472-22.5 0-31.972-10.657-8.829-21.315-8.829-31.972 0-8.829 8.829-8.829 23.143 0 31.972z" fill="#ff7e96"/></g><g><path d="m493.173 56.617c-10.445-10.444-26.754-11.286-38.205-2.077h-175.001v-31.265c0-12.834-10.441-23.275-23.275-23.275h-23.915c-12.834 0-23.275 10.441-23.275 23.275v31.265h-175.139c-13.226 0-23.986 10.76-23.986 23.986v279.278c0 13.226 10.76 23.986 23.986 23.986h72.761c-.26 1.424-.403 2.888-.403 4.385v17.043c0 13.443 10.937 24.38 24.38 24.38h4.593l-24.464 71.149c-1.796 5.223.982 10.912 6.205 12.708 5.222 1.797 10.912-.982 12.708-6.205l26.7-77.651h29.319l-24.472 71.147c-1.796 5.222.981 10.912 6.204 12.708 1.077.371 2.174.547 3.253.547 4.151 0 8.03-2.605 9.456-6.75l26.71-77.653h3.195v74.402c0 5.523 4.477 10 10 10s10-4.477 10-10v-74.4h28.46v74.4c0 5.523 4.477 10 10 10s10-4.477 10-10v-74.401h3.194l26.7 77.652c1.795 5.223 7.485 8 12.708 6.205 5.223-1.796 8.001-7.485 6.205-12.708l-24.464-71.148h29.312l26.709 77.652c1.426 4.146 5.304 6.75 9.456 6.75 1.079 0 2.176-.176 3.253-.547 5.223-1.796 8-7.486 6.204-12.708l-24.472-71.148h4.596c13.444 0 24.381-10.937 24.381-24.38v-17.043c0-1.498-.143-2.962-.403-4.385h72.755c13.226 0 23.986-10.76 23.986-23.986v-243.746l15.752-18.725c9.649-11.473 8.933-28.117-1.667-38.717zm-263.67-33.342c0-1.806 1.469-3.275 3.275-3.275h23.915c1.806 0 3.275 1.469 3.275 3.275v31.265h-30.464v-31.265zm229.585 334.529c0 2.198-1.788 3.986-3.986 3.986h-166.079c-5.523 0-10 4.477-10 10v.002.003c0 5.523 4.477 10 10 10h69.345c2.416 0 4.381 1.965 4.381 4.38v17.043c0 2.416-1.965 4.38-4.381 4.38h-227.266c-2.416 0-4.38-1.965-4.38-4.38v-17.043c0-2.416 1.965-4.38 4.38-4.38h69.764c5.523 0 10-4.477 10-10 0-.001 0-.002 0-.002v-.002c0-5.523-4.477-10-10-10h-166.503c-2.198 0-3.986-1.788-3.986-3.986v-279.279c0-2.198 1.788-3.986 3.986-3.986h396.798c-32.126 26.705-62.497 55.095-91.947 84.684l-36.78 36.78c-.881.69-3.561 2.728-7.679 5.35-.845-.968-1.736-1.902-2.677-2.798l-30.636-29.13c-4.205-4.881-4.269-9.788-.19-14.722 11.937-11.938 11.939-31.808 0-43.745-11.933-11.934-31.812-11.934-43.745 0l-89.925 89.915c-11.932 11.933-11.925 31.819.005 43.75 12.065 12.05 31.688 12.05 43.728.007l3.014-3.003c5.661-4.686 11.323-4.686 16.986 0 4.689 5.662 4.689 11.324 0 16.987l-15.18 15.18c-13.706 13.705-13.722 36.542-.004 50.246 13.706 13.721 36.542 13.715 50.252.004l47.581-47.572c24.838 18.305 60.89 5.221 75.07-20.154l5.337-9.551 36.223-36.223c23.975-23.087 46.81-47.546 68.492-72.791v220.05zm-253.639-130.328c-12.348-12.319-32.906-12.348-45.25-.003l-3.014 3.003c-4.26 4.259-11.197 4.258-15.46 0-4.262-5.154-4.262-10.307 0-15.461l89.925-89.915c5.154-4.269 10.307-4.269 15.46 0 4.275 5.153 4.275 10.307 0 15.46-11.871 11.871-11.639 31.764.549 43.357l28.64 27.233c-9.626 4.179-19.645 5.632-29.563 8.625-4.514 1.357-8.097 4.814-9.588 9.386-1.699 5.209-.346 10.853 3.53 14.729l18.792 18.792-47.228 47.219c-7.324 6.073-14.647 6.072-21.968-.004-6.068-7.32-6.067-14.641.004-21.961l15.18-15.18c12.355-12.355 12.343-32.928-.009-45.28zm77.737 30.634-21.081-21.082c16.299-3.97 32.066-11.151 45.97-20.456l25.828 25.828-2.326 4.162c-8.824 15.79-33.981 26.016-48.391 11.548zm63.135-31.576-23.066-23.066 23.066-23.066 23.066 23.066zm133.213-144.075-28.93 34.391c-21.203 25.205-43.692 49.283-67.072 72.473l-23.066-23.066c23.171-23.401 47.268-45.869 72.473-67.071l34.392-28.93c3.467-2.916 8.498-2.699 11.7.504 3.203 3.202 3.419 8.232.503 11.699z"/><path d="m68.231 260.231c-12.988 12.987-11.404 32.994 0 46.115 12.551 12.55 33.563 12.551 46.114 0 12.581-12.58 12.58-33.535 0-46.115-12.715-12.713-33.401-12.713-46.114 0zm31.971 31.973c-4.914 4.916-12.914 4.916-17.83 0-4.924-5.943-4.924-11.886 0-17.829 5.943-4.924 11.886-4.924 17.83 0 4.924 5.943 4.924 11.886 0 17.829z"/><path d="m254.802 367.97c-2.063-5.033-8.043-7.503-13.06-5.41-5.029 2.098-7.494 8.004-5.41 13.05 2.077 5.029 8.032 7.508 13.06 5.41 5.02-2.094 7.51-8.01 5.41-13.05z"/></g></g></svg>