<?xml version="1.0" encoding="iso-8859-1"?>
<!-- Generator: Adobe Illustrator 19.0.0, SVG Export Plug-In . SVG Version: 6.00 Build 0)  -->
<svg version="1.1" id="Capa_1" xmlns="http://www.w3.org/2000/svg" xmlns:xlink="http://www.w3.org/1999/xlink" x="0px" y="0px"
	 viewBox="0 0 512.003 512.003" style="enable-background:new 0 0 512.003 512.003;" xml:space="preserve">
<path style="fill:#6F6571;" d="M143.78,130.333c-0.211,13.432,2.808,26.109,8.2,37.44h97.381c-16.749,0-31.707-12.246-33.297-28.919
	c-1.824-19.127,13.167-35.219,31.919-35.219H376.26v-8.017c0-8.856,7.179-16.034,16.034-16.034h72.156V63.547
	c0-8.856-7.179-16.034-16.034-16.034h-17.411c-4.253,0-8.33-1.689-11.338-4.697l-9.961-9.962
	c-6.014-6.015-14.171-9.392-22.676-9.392h-35.31c-10.172,0-20.153,2.764-28.875,7.998l-13.427,8.056
	c-8.722,5.233-18.703,7.998-28.875,7.998h-49.81c-46.35,0-86.11,36.261-86.958,82.603
	C143.773,130.115,143.887,149.116,143.78,130.333z"/>
<g>
	<path style="fill:#5D5360;" d="M304.104,239.928l-16.837,22.448c-4.543,6.057-11.671,9.62-19.242,9.62h-28.06l16.836-22.448
		c4.543-6.057,11.671-9.62,19.242-9.62L304.104,239.928L304.104,239.928z"/>
	<path style="fill:#5D5360;" d="M231.949,103.634l16.836,22.448c4.543,6.057,11.671,9.62,19.242,9.62h28.06l-16.837-22.448
		c-4.543-6.057-11.671-9.62-19.242-9.62C260.009,103.634,231.949,103.634,231.949,103.634z"/>
	<path style="fill:#5D5360;" d="M392.294,239.928l16.836,22.448c4.543,6.057,11.671,9.62,19.242,9.62h28.06l-16.836-22.448
		c-4.543-6.057-11.671-9.62-19.242-9.62L392.294,239.928L392.294,239.928z"/>
	<path style="fill:#5D5360;" d="M119.706,103.634l-16.836,22.448c-4.543,6.057-11.671,9.62-19.242,9.62h-28.06l16.836-22.448
		c4.543-6.057,11.671-9.62,19.242-9.62C91.646,103.634,119.706,103.634,119.706,103.634z"/>
</g>
<g>
	<path style="fill:#6F6571;" d="M143.773,130.115l-0.015,0.001c0,0.074,0.021,0.142,0.022,0.216
		C143.781,130.26,143.772,130.189,143.773,130.115C143.773,130.116,143.773,130.116,143.773,130.115z"/>
	<path style="fill:#6F6571;" d="M143.758,130.116c0,0.074,0.021,0.142,0.022,0.216c0.001-0.073-0.008-0.143-0.007-0.216H143.758z"/>
</g>
<g>
	<path style="fill:#5D5360;" d="M143.78,130.333c0.001-0.073-0.008-0.143-0.007-0.216c0,0,0,0,0-0.001l-0.015,0.001
		C143.758,130.19,143.78,130.258,143.78,130.333z"/>
	<path style="fill:#5D5360;" d="M227.94,215.876h82.459c20.936,0,39.633,15.306,41.621,36.148
		c2.28,23.91-16.46,44.025-39.899,44.025H256c-35.422,0-64.139,28.716-64.139,64.139v32.07c0-35.422,28.716-64.139,64.139-64.139
		h53.375c42.701,0,79.987-32.225,82.746-74.837c3.023-46.695-33.955-85.51-80-85.51H181.413c-20.722,0-37.515-16.745-37.634-37.44
		C143.036,177.447,180.994,215.876,227.94,215.876z"/>
	<polygon style="fill:#5D5360;" points="163.802,441.864 191.862,400.275 219.923,441.864 191.862,504.499 	"/>
</g>
<path d="M399.877,55.529c0-4.143-3.358-7.501-7.501-7.501h-0.08c-4.143,0-7.461,3.358-7.461,7.501s3.399,7.501,7.541,7.501
	S399.877,59.672,399.877,55.529z"/>
<path d="M448.416,40.011h-20.945l-12.462-12.462c-2.199-2.199-4.617-4.1-7.195-5.698v-6.094c0-4.108-3.164-7.689-7.27-7.812
	c-4.248-0.128-7.732,3.278-7.732,7.498v0.935c-1.898-0.276-3.83-0.419-5.783-0.419h-7.662L365.753,2.345
	c-2.904-2.904-7.675-3.199-10.666-0.384c-3.094,2.913-3.149,7.785-0.166,10.769l3.229,3.229h-6.433
	c-6.114,0-12.167,0.89-17.981,2.603l-18.06-9.724c-3.929-2.116-8.906-0.37-10.568,3.935c-1.374,3.56,0.319,7.586,3.679,9.395
	l7.885,4.246l-11.117,6.669c-7.557,4.534-16.204,6.929-25.017,6.929h-49.809c-38.832,0-72.589,23.239-87.015,56.121h-52.07
	c-9.931,0-19.284,4.676-25.243,12.622l-14.586,19.448h-3.953c-4.108,0-7.689,3.164-7.812,7.27c-0.128,4.248,3.278,7.732,7.498,7.732
	h36.078c9.878,0,19.315-4.719,25.243-12.622l14.586-19.448h15.216c-1.419,5.936-2.237,12.086-2.385,18.389
	c-0.015,0.197-0.03,0.394-0.03,0.594c0,0.158,0.01,0.313,0.012,0.471c-0.293,24.623,9.028,47.824,26.295,65.385
	c17.486,17.783,41.645,27.404,66.584,27.404h50.591c4.108,0,7.689-3.164,7.812-7.27c0.128-4.248-3.279-7.732-7.498-7.732h-51.085
	c-19.446,0-38.399-6.937-52.746-20.063c-5.668-5.186-10.414-11.063-14.214-17.428c5.882,2.811,12.462,4.39,19.405,4.39h129.697
	c20.65,0,40.586,8.33,54.557,23.536c13.539,14.737,20.272,33.878,18.97,53.987c-2.461,38.03-35.52,67.82-75.261,67.82h-53.375
	c-22.027,0-41.762,9.991-54.915,25.682c6.209-24.538,28.475-42.748,54.915-42.748h56.121c13.378,0,26.215-5.68,35.219-15.584
	c8.997-9.896,13.424-23.255,12.147-36.653c-2.286-23.978-23.682-42.782-48.776-42.936c-3.873-0.024-7.329,2.778-7.763,6.627
	c-0.512,4.534,3.021,8.375,7.452,8.375c9.085,0,17.476,3.45,23.687,9.049h-58.042c-9.931,0-19.284,4.676-25.243,12.622
	l-16.703,22.271c-1.361,1.815-1.963,4.14-1.447,6.349c0.817,3.496,3.889,5.831,7.315,5.831h28.061
	c9.931,0,19.283-4.676,25.242-12.621l14.586-19.448h35.692c0.486,1.718,0.832,3.49,1.006,5.308c0.891,9.344-2.067,18.28-8.33,25.158
	c-6.306,6.925-15.393,10.654-24.76,10.654h-55.462c-39.566,0-71.64,32.074-71.64,71.64v32.899c0,3.189-0.953,6.306-2.737,8.95
	l-24.041,35.631c-1.45,2.149-1.687,4.896-0.627,7.262l27.972,62.436c0.973,2.171,2.845,3.875,5.161,4.424
	c3.615,0.857,7.173-0.995,8.62-4.226l28.06-62.635c1.06-2.366,0.823-5.113-0.627-7.262l-24.041-35.631
	c-1.784-2.644-2.737-5.761-2.737-8.95v-0.83c0-31.281,25.358-56.637,56.637-56.637h53.375c45.059,0,82.943-32.189,89.415-74.528
	l4.34,5.787c5.959,7.945,15.309,12.621,25.241,12.621h27.845c2.286,0,4.524-0.931,5.979-2.693c2.27-2.748,2.284-6.581,0.239-9.308
	l-16.837-22.448c-5.959-7.945-15.311-12.622-25.243-12.622h-21.911c-2.9-16.396-10.425-31.595-22.059-44.123
	c-16.831-18.122-40.717-28.033-65.449-28.033H181.417c-16.419,0-29.806-13.194-30.138-29.535c0.002-0.161-0.006-0.321-0.003-0.482
	c0.76-41.488,36.404-75.241,79.46-75.241h49.808c11.532,0,22.847-3.133,32.736-9.066l13.43-8.057
	c7.556-4.533,16.201-6.928,25.013-6.928h35.31c6.516,0,12.765,2.588,17.373,7.196l14.659,14.659
	c1.407,1.407,3.314,2.197,5.305,2.197h24.052c4.713,0,8.533,3.821,8.533,8.533v8.533H392.3c-12.999,0-23.536,10.538-23.536,23.536
	v8.532c-8.684-0.014-16.845-3.402-22.987-9.542l-20.105-20.105c-2.904-2.904-7.675-3.199-10.666-0.384
	c-3.094,2.913-3.149,7.785-0.166,10.769l11.247,11.247h-78.099c-11.125,0-21.798,4.723-29.285,12.958
	c-7.481,8.229-11.164,19.337-10.102,30.475c0.37,3.883,3.637,6.79,7.459,6.79c0.238,0,0.479-0.011,0.721-0.034
	c4.125-0.394,7.148-4.056,6.755-8.179c-0.671-7.042,1.554-13.775,6.267-18.959c0.807-0.887,1.676-1.704,2.593-2.456l10.393,13.856
	c5.959,7.945,15.311,12.622,25.243,12.622h28.06h7.703c4.108,0,7.689-3.164,7.812-7.27c0.128-4.248-3.279-7.732-7.498-7.732h-4.267
	l-12.801-17.068h55.319c7.764,5.214,16.895,8.017,26.457,8.017h79.289c4.108,0,7.689-3.164,7.812-7.27
	c0.128-4.248-3.279-7.732-7.498-7.732h-64.656v-8.533c0-4.713,3.821-8.533,8.533-8.533h56.637v0.202c0,4.108,3.164,7.689,7.27,7.812
	c4.248,0.128,7.732-3.278,7.732-7.498v-0.516h0.516c4.143,0,7.501-3.358,7.501-7.501V63.547
	C471.952,50.549,461.415,40.011,448.416,40.011z M96.869,121.581c-3.109,4.146-8.059,6.621-13.241,6.621H70.57l7.835-10.447
	c3.108-4.146,8.059-6.621,13.241-6.621h13.059L96.869,121.581z M281.267,257.875c-3.108,4.146-8.059,6.62-13.24,6.62h-13.059
	l7.835-10.447c3.108-4.146,8.059-6.62,13.241-6.62h13.058L281.267,257.875z M211.372,442.603l-19.51,43.549l-19.51-43.549
	l12.009-17.8v7.54c0,4.143,3.358,7.501,7.501,7.501c4.143,0,7.501-3.358,7.501-7.501v-7.539L211.372,442.603z M420.356,247.429
	c5.182,0,10.132,2.475,13.241,6.62l7.835,10.447h-13.059c-5.182,0-10.132-2.475-13.241-6.62l-7.835-10.447H420.356z M273.25,117.755
	l7.835,10.447h-13.058c-5.182,0-10.132-2.475-13.241-6.621l-7.815-10.42c0.337-0.014,0.674-0.027,1.012-0.027h12.026
	C265.191,111.135,270.14,113.609,273.25,117.755z"/>
<g>
</g>
<g>
</g>
<g>
</g>
<g>
</g>
<g>
</g>
<g>
</g>
<g>
</g>
<g>
</g>
<g>
</g>
<g>
</g>
<g>
</g>
<g>
</g>
<g>
</g>
<g>
</g>
<g>
</g>
</svg>
