<svg id="Capa_1" enable-background="new 0 0 497 497" height="512" viewBox="0 0 497 497" width="512" xmlns="http://www.w3.org/2000/svg"><g><path d="m61.159 476.287-16.446 16.446c-2.847 2.847-6.575 4.267-10.302 4.267-3.728 0-7.455-1.42-10.302-4.267-21.184-21.184-21.191-55.531-.007-76.715l203.616-203.616 24.332 24.332z" fill="#a6b6c4"/><path d="m276.381 261.065-215.222 215.222c-13.681-13.681-13.675-35.862 0-49.537l190.891-190.017z" fill="#95a9ba"/><path d="m260.603 171.239-38.984 38.984c-7.732 7.731-7.732 20.267 0 27.999l28.943 28.943c7.732 7.731 20.267 7.731 27.999 0l38.984-38.985z" fill="#879caf"/><path d="m482.045 22.861-16.123-16.123c-8.984-8.984-23.551-8.984-32.535 0l-16.633 16.633 12.965 35.693 35.693 12.965 16.633-16.633c8.984-8.984 8.984-23.551 0-32.535z" fill="#f9d888"/><path d="m438.953 98.493-26.468 26.468-37.562-11.101-11.101-37.562 26.468-26.468 37.563 11.1z" fill="#ff748f"/><path d="m386.023 151.423-26.461 26.461-37.566-11.097-11.097-37.566 26.461-26.461 37.563 11.1z" fill="#ff748f"/><path d="m354.89 107.94-17.53-5.181-26.462 26.461 7.831 26.508c9.509-16.89 21.796-32.999 36.161-47.788z" fill="#fd5f7e"/><path d="m295.039 135.79h47.087v68.82h-47.087z" fill="#516a80" transform="matrix(.707 -.707 .707 .707 -27.039 275.123)"/><path d="m419.448 58.446-29.158-8.616-26.468 26.468 5.323 18.011c15.216-13.543 32.196-25.662 50.303-35.863z" fill="#fd5f7e"/><path d="m356.212 79.45h37.422v68.82h-37.422z" fill="#516a80" transform="matrix(.707 -.707 .707 .707 29.301 298.459)"/><path d="m487.339 31.159c-1.116-3.025-2.865-5.869-5.294-8.298l-16.123-16.123c-8.984-8.984-23.551-8.984-32.535 0l-16.633 16.633 11.086 30.52c18.98-9.882 39.046-17.639 59.499-22.732z" fill="#fbc072"/><path d="m409.142 26.52h37.422v68.82h-37.422z" fill="#516a80" transform="matrix(.707 -.707 .707 .707 82.231 320.384)"/><path d="m325.793 144.116-14.894-14.895-33.295 33.295 26.459 26.459c4.944-15.402 12.35-30.472 21.73-44.859z" fill="#475c70"/><path d="m330.895 202.154-44.265-44.265c-14.049-14.049-36.826-14.049-50.875 0-7.698 7.698-7.698 20.18 0 27.878l67.262 67.262c7.698 7.698 20.18 7.698 27.878 0 14.048-14.049 14.048-36.826 0-50.875z" fill="#f9d888"/><path d="m296.989 232.441c0-18.013 3.793-36.035 10.67-53.523l-21.03-21.03c-14.049-14.049-36.826-14.049-50.875 0-7.698 7.698-7.698 20.18 0 27.878l61.94 61.94c-.46-5.035-.705-10.124-.705-15.265z" fill="#fbc072"/><g fill="#475c70"><path d="m375.959 88.435-12.137-12.137-26.462 26.462 11.553 11.553c8.279-9.117 17.341-17.782 27.046-25.878z"/><path d="m440.898 47.515-24.146-24.146-26.462 26.461 16.295 16.295c10.988-6.956 22.479-13.195 34.313-18.61z"/></g></g></svg>