<svg id="Capa_1" enable-background="new 0 0 512 512" height="512" viewBox="0 0 512 512" width="512" xmlns="http://www.w3.org/2000/svg"><g><g><path d="m88.027 406.859h332.252v50.438h-332.252z" fill="#ff7e96"/></g><g><path d="m124.514 10.283v41.866c0 10.452 3.521 20.6 9.995 28.806l21.896 27.753c4.623 5.86 4.234 14.232-.921 19.631-17.769 18.61-31.467 38.899-40.848 62.946h37.637c11.91 0 21.565 9.655 21.565 21.565v.469c0 11.906-9.659 21.565-21.565 21.565h12.805c12.181 0 21.993 10.093 21.551 22.362-.421 11.682-10.378 20.768-22.067 20.768h-8.853c11.377 0 20.606 9.219 20.606 20.606-.002 11.296-9.229 20.796-20.606 20.796h-11.027c11.628 0 21.002 9.641 20.583 21.362-.399 11.159-9.909 19.841-21.075 19.841h-15.379c6.163 10.808 13.335 20.916 21.445 30.115l14.214 16.121h183.039l14.203-16.121c8.111-9.199 15.282-19.308 21.446-30.115h-5.845c-11.167 0-20.193-8.682-20.591-19.843-.418-11.72 8.966-21.36 20.593-21.36h-21.026c-11.375 0-20.596-9.221-20.596-20.596v-.2c0-11.387 9.219-20.606 20.596-20.606h-9.369c-5.953 0-11.347-2.417-15.242-6.313-3.981-3.981-6.416-9.509-6.32-15.599.186-11.856 10.197-21.219 22.054-21.219h12.314c-11.906 0-21.565-9.659-21.565-21.565v-.469c0-11.91 9.655-21.565 21.565-21.565h37.647c-9.07-24.079-23.223-44.435-40.88-62.942-5.153-5.401-5.547-13.77-.924-19.631l21.894-27.758c6.472-8.205 9.992-18.351 9.992-28.801v-41.869z" fill="#e0a083"/></g><g><path d="m220.95 457.297h66.406v44.42h-66.406z" fill="#838eb1"/></g><g><path d="m114.631 191.285h37.641c11.91 0 21.566 9.655 21.566 21.566v.468c0 11.91-9.655 21.566-21.566 21.566h12.81c11.91 0 21.566 9.655 21.566 21.566-.173 11.739-9.693 21.566-21.566 21.566h-9.373c11.378 0 20.601 9.224 20.601 20.601.004 11.299-9.221 20.805-20.601 20.805h-11.033c11.378 0 20.601 9.224 20.601 20.601-.115 11.212-9.301 20.601-20.601 20.601h-20.086c-11.507 0-22.632-4.129-31.352-11.636l-38.555-33.19h-44.683v-117.145h44.684l24.602-52.141c5.8-12.293 20.459-17.567 32.762-11.788 11.743 5.516 17.196 19.193 12.471 31.276z" fill="#ffdad5"/></g><g><path d="m397.368 191.285h-37.641c-11.91 0-21.566 9.655-21.566 21.566v.468c0 11.91 9.655 21.566 21.566 21.566h-12.81c-11.91 0-21.566 9.655-21.566 21.566.173 11.739 9.693 21.566 21.566 21.566h9.373c-11.378 0-20.601 9.224-20.601 20.601v.203c0 11.378 9.224 20.601 20.601 20.601h15.84 5.181c-11.378 0-20.601 9.224-20.601 20.601.115 11.212 9.301 20.601 20.601 20.601h10.097c11.507 0 22.632-4.129 31.352-11.636l38.555-33.19h44.685v-117.144h-44.684l-24.602-52.141c-5.8-12.293-20.459-17.567-32.762-11.788-11.743 5.516-17.196 19.193-12.471 31.276z" fill="#ffdad5"/></g><g><path d="m502 188.654h-38.345l-21.897-46.409c-8.136-17.243-28.795-24.681-46.057-16.57-6.755 3.173-12.031 8.302-15.45 14.416-5.096-6.597-10.781-12.63-16.526-18.652-1.704-1.786-1.836-4.596-.308-6.534l9.211-11.678h23.362c5.522 0 10-4.478 10-10s-4.478-10-10-10h-7.856c6.034-9.183 9.317-20.047 9.317-31.074v-41.87c0-5.522-4.478-10-10-10h-88.261c-5.522 0-10 4.478-10 10s4.478 10 10 10h78.261v31.869c0 8.167-2.785 16.195-7.843 22.607l-6.678 8.467h-78.096c-5.522 0-10 4.478-10 10s4.478 10 10 10h62.372c-7.092 9.677-6.285 23.284 2.048 32.018 13.238 13.877 24.634 28.657 32.979 46.04h-22.509c-17.405 0-31.565 14.16-31.565 31.565-.072 5.418 1.278 10.869 3.887 15.619-.032-.059-4.819 2.822-7.624 5.866-5.598 6.074-9.236 14.207-9.056 22.498.096 8.289 3.351 16.051 9.24 21.941 1.641 1.64 3.43 3.077 5.337 4.299-2.81 4.741-4.286 10.237-4.252 15.748 0 14.337 9.909 26.401 23.238 29.706-1.692 4.173-2.43 8.753-2.153 13.245.695 12.38 8.583 22.664 19.552 26.841-3.772 5.454-7.823 10.641-12.118 15.513l-11.218 12.731h-174.009l-11.228-12.734c-3.789-4.298-7.388-8.841-10.773-13.595 15.271-1.163 27.728-14.082 28.274-29.391.202-5.556-1.131-11.203-3.855-16.053 9.262-5.556 14.89-15.698 14.913-26.462 0-5.705-1.57-11.053-4.3-15.63 8.508-5.397 14.222-14.66 14.606-25.385.432-11.941-6.162-23.414-16.713-29.045 2.66-4.803 3.968-10.231 3.93-15.712 0-17.405-14.16-31.565-31.565-31.565h-22.304c8.099-16.367 18.897-31.534 32.747-46.04 8.542-8.945 9.204-23.016 1.54-32.731l-21.896-27.751c-2.842-3.604-4.967-7.718-6.283-12.08h67.199c5.522 0 10-4.478 10-10s-4.478-10-10-10h-68.761v-22.399h76.786c5.522 0 10-4.478 10-10s-4.478-10-10-10h-86.786c-5.522 0-10 4.478-10 10v32.398h-14.87c-5.522 0-10 4.478-10 10s4.478 10 10 10h15.883c1.695 8.883 5.497 17.324 11.132 24.468l21.896 27.751c1.531 1.94 1.4 4.748-.303 6.532-5.931 6.212-11.353 12.545-16.301 19.031-3.411-6.277-8.76-11.552-15.651-14.789-17.262-8.113-37.92-.673-46.057 16.57l-21.897 46.409h-38.346c-5.522 0-10 4.478-10 10v117.145c0 5.522 4.478 10 10 10h40.973l35.742 30.769c10.151 8.738 23.018 13.678 36.378 14.023 5.727 9.388 12.18 18.202 19.24 26.268h-54.306c-5.522 0-10 4.478-10 10v50.438c0 5.522 4.478 10 10 10h122.923v34.42c0 5.522 4.478 10 10 10h66.405c5.522 0 10-4.478 10-10v-34.42h122.924c5.522 0 10-4.478 10-10v-50.438c0-5.522-4.478-10-10-10h-50.646c7.059-8.064 13.511-16.878 19.239-26.267 13.373-.338 26.253-5.278 36.414-14.024l35.741-30.769h40.973c5.522 0 10-4.478 10-10v-117.144c0-5.522-4.478-10-10-10zm-224.645 303.063h-46.405v-24.42h46.405zm132.924-44.42h-312.252v-30.438h312.252zm-349.071-139.077c-1.815-1.562-4.13-2.421-6.524-2.421h-34.684v-97.145h34.684c3.87 0 7.393-2.232 9.044-5.732l24.602-52.142c3.438-7.288 12.17-10.431 19.465-7.004 6.953 3.267 10.208 11.43 7.41 18.584l-9.887 25.283c-2.516 6.436 2.4 13.642 9.313 13.642h37.641c6.377 0 11.565 5.188 11.565 11.565.104 6.462-4.968 12.034-11.565 12.034h-21.402c-5.522 0-10 4.478-10 10s4.478 10 10 10h34.207c6.414 0 11.635 5.398 11.554 11.726-.258 6.403-5.677 11.404-12.07 11.404l-35.737.001c-5.522 0-10 4.478-10 10s4.478 10 10 10h26.885c5.846 0 10.602 4.756 10.602 10.602.008 5.831-4.686 10.8-10.603 10.8l-15.839.005c-5.522 0-10 4.478-10 10s4.478 10 10 10h4.808c5.884 0 10.659 4.948 10.589 10.735-.195 5.891-5.256 10.462-11.077 10.462l-19.598.005c-9.108 0-17.926-3.272-24.828-9.215zm430.792-2.421h-34.684c-2.395 0-4.709.859-6.524 2.421l-38.554 33.189c-6.903 5.942-15.721 9.215-24.829 9.215l-10.098-.005c-5.606 0-10.448-4.983-10.593-10.533-.038-5.741 4.71-10.664 10.593-10.664 5.383 0 10.002-4.595 10.002-10.005 0-5.522-4.478-10-10-10h-21.025c-5.843 0-10.597-4.754-10.597-10.597.001-5.823 4.687-10.805 10.6-10.805h26.885c5.522 0 10-4.478 10-10s-4.478-10-10-10l-36.258-.001c-.103 0-.204-.012-.307-.015-6.066-.167-11.033-5.218-11.247-11.462-.042-6.505 5.661-11.653 12.045-11.653h33.721c5.522 0 10-4.478 10-10s-4.478-10-10-10h-21.402c-6.377 0-11.565-5.188-11.565-11.566v-.468c0-6.377 5.188-11.565 11.565-11.565h37.641c6.859 0 11.78-7.097 9.36-13.525-.555-1.473-9.934-25.399-9.934-25.399-2.798-7.154.457-15.317 7.41-18.584 7.294-3.427 16.026-.284 19.465 7.004l24.603 52.142c1.651 3.5 5.174 5.732 9.044 5.732h34.683z"/><path d="m246.49 14.109c2.093 5.027 8.02 7.501 13.06 5.41 5.033-2.088 7.488-8.028 5.41-13.06-2.079-5.035-8.032-7.492-13.061-5.41-5.049 2.092-7.478 8.016-5.409 13.06z"/></g></g></svg>