<svg height="511pt" viewBox="0 -24 511.996 511" width="511pt" xmlns="http://www.w3.org/2000/svg"><path d="m244.472656 121.589844 80.554688 265.1875 80.558594-265.1875zm0 0" fill="#00d2d7"/><path d="m459.054688 185.941406 42.945312-64.351562h-96.414062l-80.558594 265.1875 90.171875-135.121094" fill="#52607e"/><path d="m325.027344 26.859375-80.535156 94.730469h161.070312zm0 0" fill="#ede6f5"/><path d="m214.285156 26.859375-66.230468 94.730469h96.4375l80.535156-94.730469zm0 0" fill="#43b0fc"/><path d="m435.769531 26.859375h-110.742187l80.535156 94.730469h96.4375zm0 0" fill="#43b0fc"/><path d="m438.597656 217.9375-.535156-.539062" fill="#52607e"/><path d="m438.601562 227.9375c-2.5625 0-5.121093-.976562-7.074218-2.929688l-.535156-.535156c-3.90625-3.90625-3.90625-10.238281 0-14.144531 3.90625-3.902344 10.238281-3.902344 14.144531 0l.535156.535156c3.90625 3.90625 3.90625 10.238281 0 14.144531-1.953125 1.953126-4.511719 2.929688-7.070313 2.929688zm0 0"/><path d="m269.011719 204.664062-24.539063-83.074218h-96.417968l22.15625 33.695312" fill="#52607e"/><path d="m301.570312 351.132812 23.457032 35.648438-17.753906-60.746094" fill="#52607e"/><path d="m497.460938 347.652344c-18.847657-4.882813-33.683594-19.71875-38.5625-38.5625-.492188-1.894532-2.941407-1.894532-3.433594 0-4.878906 18.84375-19.71875 33.679687-38.5625 38.5625-1.890625.488281-1.890625 2.9375 0 3.429687 18.847656 4.882813 33.683594 19.71875 38.5625 38.5625.492187 1.890625 2.941406 1.890625 3.433594 0 4.878906-18.84375 19.714843-33.679687 38.5625-38.5625 1.890624-.492187 1.890624-2.941406 0-3.429687zm0 0" fill="#ffe681"/><path d="m457.183594 401.0625c-5.351563 0-10.039063-3.664062-11.398438-8.910156-3.980468-15.378906-16.007812-27.40625-31.386718-31.390625-5.25-1.359375-8.914063-6.042969-8.914063-11.394531 0-5.351563 3.664063-10.039063 8.914063-11.394532 15.375-3.984375 27.40625-16.011718 31.386718-31.390625 1.359375-5.246093 6.046875-8.914062 11.398438-8.914062 5.347656 0 10.035156 3.667969 11.394531 8.914062 3.984375 15.378907 16.011719 27.40625 31.390625 31.390625 5.246094 1.355469 8.910156 6.042969 8.910156 11.390625 0 5.351563-3.660156 10.035157-8.90625 11.398438-15.382812 3.984375-27.410156 16.011719-31.394531 31.390625-1.359375 5.246094-6.046875 8.910156-11.394531 8.910156zm-19.476563-51.695312c7.828125 4.992187 14.480469 11.644531 19.476563 19.476562 4.996094-7.828125 11.644531-14.480469 19.476562-19.476562-7.832031-4.996094-14.480468-11.648438-19.476562-19.476563-4.996094 7.828125-11.648438 14.480469-19.476563 19.476563zm57.230469 7.960937c.003906 0 .007812.003906.015625.003906-.007813-.003906-.011719-.003906-.015625-.003906zm0 0"/><path d="m125.210938 50.480469c-18.847657-4.882813-33.683594-19.71875-38.5625-38.5625-.492188-1.894531-2.941407-1.894531-3.433594 0-4.878906 18.84375-19.71875 33.679687-38.5625 38.5625-1.890625.488281-1.890625 2.941406 0 3.429687 18.847656 4.882813 33.683594 19.71875 38.5625 38.5625.492187 1.894532 2.941406 1.894532 3.433594 0 4.878906-18.84375 19.714843-33.679687 38.5625-38.5625 1.890624-.488281 1.890624-2.941406 0-3.429687zm0 0" fill="#ffe681"/><path d="m84.933594 103.894531c-5.351563 0-10.039063-3.667969-11.398438-8.914062-3.980468-15.378907-16.007812-27.40625-31.386718-31.390625-5.25-1.359375-8.914063-6.042969-8.914063-11.394532 0-5.351562 3.664063-10.035156 8.914063-11.394531 15.378906-3.984375 27.40625-16.011719 31.386718-31.390625 1.359375-5.246094 6.046875-8.914062 11.398438-8.914062 5.347656 0 10.035156 3.667968 11.394531 8.914062 3.984375 15.378906 16.011719 27.40625 31.390625 31.390625 5.246094 1.355469 8.910156 6.042969 8.910156 11.394531 0 5.351563-3.664062 10.035157-8.910156 11.394532-15.378906 3.984375-27.40625 16.011718-31.390625 31.390625-1.359375 5.246093-6.046875 8.914062-11.394531 8.914062zm-19.480469-51.699219c7.832031 4.996094 14.484375 11.648438 19.480469 19.476563 4.996094-7.828125 11.644531-14.480469 19.476562-19.476563-7.832031-4.996093-14.480468-11.644531-19.476562-19.476562-4.996094 7.828125-11.648438 14.480469-19.480469 19.476562zm57.234375 7.960938c.003906 0 .007812.003906.011719.003906-.003907-.003906-.007813-.003906-.011719-.003906zm0 0"/><path d="m307.660156 304.609375c0 82.199219-66.632812 148.832031-148.828125 148.832031-82.199219 0-148.832031-66.632812-148.832031-148.832031 0-82.195313 66.632812-148.832031 148.832031-148.832031 82.195313 0 148.828125 66.636718 148.828125 148.832031zm0 0" fill="#ffdd52"/><path d="m510.984375 125.976562c.007813-.011718.015625-.027343.023437-.039062.015626-.035156.03125-.070312.050782-.109375.007812-.015625.011718-.03125.019531-.046875.015625-.035156.03125-.066406.046875-.097656.007812-.023438.019531-.042969.027344-.066406.011718-.027344.027344-.058594.039062-.089844.007813-.019532.019532-.042969.027344-.0625.011719-.03125.027344-.0625.039062-.09375.007813-.023438.019532-.042969.027344-.066406.011719-.03125.023438-.0625.035156-.09375.007813-.019532.015626-.039063.023438-.058594.011719-.035156.027344-.070313.039062-.105469.007813-.019531.011719-.035156.019532-.054687.011718-.035157.023437-.066407.035156-.101563.007812-.019531.015625-.039063.023438-.0625.011718-.03125.023437-.066406.03125-.097656.007812-.019531.015624-.039063.019531-.058594.011719-.035156.023437-.070313.035156-.105469.003906-.019531.011719-.035156.015625-.050781.011719-.039063.023438-.078125.035156-.113281.003906-.015625.007813-.035156.011719-.050782.011719-.035156.023437-.074218.03125-.109374.007813-.019532.011719-.039063.015625-.054688.007812-.035156.019531-.070312.027344-.109375.007812-.015625.011718-.035156.015625-.054687.007812-.039063.019531-.074219.027343-.113282.003907-.011718.007813-.027344.007813-.042968.011719-.039063.019531-.082032.027344-.121094.003906-.015625.007812-.027344.011719-.042969.007812-.042969.015624-.082031.023437-.121094.003906-.015625.007813-.027343.007813-.042969.007812-.039062.015624-.082031.023437-.121093.003906-.015625.007813-.03125.007813-.046875.007812-.039063.015624-.078125.023437-.117188 0-.015625.003906-.03125.007813-.050781.003906-.039063.011718-.074219.015624-.113281.003907-.015625.007813-.035156.007813-.050782.007813-.039062.011719-.078124.015625-.117187.003906-.015625.003906-.03125.007812-.042969.003907-.042968.011719-.082031.015626-.125 0-.015625.003906-.03125.003906-.050781.003906-.035156.007812-.074219.011718-.109375.003907-.019531.003907-.039062.007813-.058594.003906-.039062.007813-.074218.007813-.113281.003906-.015625.003906-.035156.003906-.050781.003906-.039063.007812-.074219.007812-.113282.003906-.019531.003906-.042968.003906-.0625.003907-.035156.003907-.066406.007813-.097656 0-.027344 0-.054687.003906-.078125 0-.03125 0-.058593.003907-.089843 0-.027344 0-.058594 0-.085938 0-.023438 0-.050781.003906-.074219 0-.039062 0-.074219 0-.113281 0-.015625 0-.035156 0-.050781 0-.039063 0-.074219 0-.113281 0-.019532 0-.039063 0-.058594-.003906-.039063-.003906-.078125-.003906-.121094 0-.011719 0-.027344 0-.042969-.003907-.042969-.003907-.089843-.007813-.132812 0-.011719 0-.023438 0-.03125-.003906-.050781-.003906-.101563-.007813-.152344 0-.003906 0-.007813 0-.011719-.003906-.054687-.007812-.105468-.011718-.160156 0-.003906 0-.003906-.003906-.007812-.058594-.71875-.195313-1.433594-.410157-2.132813-.003906-.007813-.003906-.011719-.003906-.019531-.015625-.046875-.03125-.097656-.050781-.144532 0-.003906 0-.011718-.003906-.015624-.011719-.042969-.027344-.085938-.042969-.128907-.003907-.011719-.007813-.023437-.011719-.035156-.011719-.035156-.027344-.070313-.039062-.101563-.003907-.019531-.011719-.042968-.019532-.0625-.011718-.03125-.023437-.0625-.035156-.09375-.007812-.023437-.015625-.042968-.023438-.0625-.011718-.03125-.023437-.058593-.035156-.085937-.007812-.027344-.019531-.050781-.03125-.078125-.007812-.019531-.015625-.042969-.023437-.0625-.015625-.03125-.027344-.0625-.042969-.09375-.007812-.019531-.015625-.039062-.023438-.054688-.015624-.035156-.027343-.070312-.046874-.105468-.003907-.015625-.011719-.03125-.019532-.046875-.015625-.035157-.03125-.070313-.050781-.105469-.007813-.023438-.019531-.042969-.027344-.066406-.015625-.03125-.03125-.058594-.042969-.089844-.011718-.023438-.023437-.042969-.035156-.066406-.015625-.027344-.03125-.058594-.042968-.089844-.011719-.019531-.023438-.042969-.035157-.066406-.015625-.027344-.03125-.054688-.042969-.082032-.003906-.003906-.003906-.007812-.007812-.011718-.011719-.023438-.023438-.046875-.039062-.070313-.011719-.023437-.023438-.046875-.035157-.070312-.015625-.027344-.03125-.054688-.046875-.082031-.015625-.019532-.027344-.042969-.039062-.066407-.019532-.03125-.039063-.0625-.054688-.09375-.011718-.015625-.023437-.035156-.03125-.054687-.023437-.035156-.042968-.070313-.066406-.109375-.007812-.011719-.015625-.023438-.023438-.035157-.09375-.152343-.195312-.304687-.300781-.453124l-66.210937-94.707032c-1.871094-2.675781-4.929688-4.269531-8.195313-4.269531h-221.484375c-3.265625 0-6.324218 1.59375-8.195312 4.273437l-66.230469 94.726563c-.015625.023437-.03125.046875-.046875.070313-.011719.015624-.023438.035156-.035156.050781-.019532.027343-.039063.058593-.058594.085937-.011719.019532-.023438.039063-.035156.058594-.023438.03125-.042969.0625-.0625.09375-.007813.015625-.019532.03125-.027344.046875-.023438.035156-.042969.070313-.066406.101563-.007813.015624-.015625.03125-.023438.042968-.023437.035156-.042968.066406-.0625.101563-.007812.015625-.019531.03125-.027344.046875-.023437.039062-.042968.074218-.0625.109375-.007812.011719-.015624.023437-.023437.035156-.019531.039063-.042969.078125-.0625.117187-.003906.007813-.007813.015626-.011719.023438-.003906.003906-.003906.007812-.007812.011719-.023438.042969-.046875.085937-.066406.128906-.003907.003906-.007813.011719-.007813.019531-.023437.042969-.046875.085938-.070313.132813-.003906.007812-.007812.011719-.007812.019531-.023438.042969-.042969.085938-.0625.128906-.007812.011719-.011719.019532-.015625.027344-.019531.042969-.039063.082031-.054687.125-.007813.011719-.011719.023438-.015626.03125-.019531.039062-.035156.078125-.054687.117188-.003906.015624-.011719.027343-.019531.042968-.015625.039063-.03125.078125-.046875.113282-.007813.015624-.011719.027343-.015625.042968-.015625.039063-.03125.074219-.046875.113282-.007813.015624-.015625.03125-.019531.046874-.015626.035157-.027344.070313-.039063.105469-.007813.019531-.015625.039063-.023437.058594-.011719.027344-.023438.058594-.03125.089844-.011719.023437-.019532.046875-.027344.074219-.011719.027343-.019532.054687-.027344.082031-.011719.027343-.019531.054687-.027344.082031-.007812.023438-.015625.046875-.023437.070312-.011719.03125-.019531.0625-.03125.089844-.007813.023438-.015625.046875-.019531.070313-.011719.03125-.019532.066406-.03125.097656-.007813.019531-.011719.039063-.015626.054687-.011718.039063-.019531.074219-.03125.113282-.003906.011718-.007812.027344-.011718.042968-.011719.039063-.023438.082032-.03125.121094-.003906.011719-.007813.023438-.011719.039063-.011719.042969-.019531.082031-.03125.125-.003906.011719-.003906.023437-.007813.039062-.011718.042969-.019531.085938-.03125.128907 0 .011718-.003906.019531-.003906.03125-.011718.046874-.019531.089843-.027344.132812-.003906.011719-.003906.023438-.007812.03125-.007812.046875-.019531.089844-.027344.136719 0 .007812-.003906.019531-.003906.027343-.007812.046876-.015625.09375-.023438.136719-.003906.011719-.003906.019531-.007812.03125-.007812.046875-.011719.089844-.019531.136719-.003907.007812-.003907.019531-.003907.027344-.007812.046875-.015624.09375-.019531.136718-.003906.011719-.003906.019532-.003906.03125-.007813.042969-.011719.089844-.019531.132813 0 .011719-.003906.027344-.003906.039063-.003907.042968-.007813.082031-.011719.125-.003907.015624-.003907.03125-.003907.046874-.003906.039063-.007812.078126-.011718.117188 0 .019531-.003906.035156-.003906.050781-.003907.039063-.007813.078125-.007813.117188-.003906.015625-.003906.035156-.003906.050781-.003907.039062-.003907.078125-.007813.113281v.058594c-.003906.035156-.003906.074219-.003906.109375-.003906.019531-.003906.039062-.003906.058594 0 .035156 0 .070312-.003906.105468v.066407.101562.066407.101562.066406c.003906.03125.003906.0625.003906.09375 0 .027344.003906.054688.003906.078125 0 .03125.003906.058594.003906.085938 0 .027343.003906.058593.003906.085937s.003907.050782.003907.078125c.003906.03125.003906.058594.007812.089844 0 .023437.003907.050781.003907.074219.003906.03125.007812.0625.007812.09375.003906.023437.003906.046875.007812.070312.003907.03125.007813.0625.011719.097656 0 .023438.003907.042969.007813.066407.003906.035156.007812.070312.011718.105469 0 .015624.003907.035156.007813.054687.003906.035156.007813.070313.011719.105469.003906.023437.007812.042968.011718.066406.003907.035156.007813.070312.015626.101562.003906.019532.003906.039063.007812.058594.007812.035156.011719.070313.019531.109375.003907.019531.007813.039063.011719.058594.003906.035156.011719.070313.019531.105469.003907.019531.003907.035156.007813.054687.011718.039063.015625.078125.023437.113281.003907.015626.007813.03125.011719.046876.007812.035156.015625.074218.027344.113281.003906.019531.007812.039062.011718.0625.007813.03125.015626.066406.023438.097656.007812.027344.011719.050781.019531.074219.007813.03125.015625.058594.023438.085937.003906.027344.011719.050781.019531.074219.007812.03125.015625.0625.023438.09375.007812.023438.011718.042969.019531.0625.007812.03125.019531.066406.027343.097656.007813.027344.019532.054688.027344.082032.007813.027343.015625.050781.023438.078124.011718.035157.023437.070313.035156.105469.003906.015625.007812.035157.015625.050781.011719.035157.023437.070313.035156.105469.007813.019531.015625.039063.023438.058594.011719.035156.023437.074219.039062.109375.003907.015625.011719.03125.015625.046875.140625.375.304688.742187.492188 1.101563v.003906c.007812.011718.015625.023437.019531.035156.019531.035156.039063.074219.058594.109375.011719.019531.023437.039063.035156.0625.015625.027344.03125.058594.050781.089844.011719.023437.027344.050781.042969.074219.011719.023437.027344.046874.039063.070312.019531.035156.039062.066406.058593.101562.007813.011719.019531.027344.027344.042969.019531.035157.042969.066407.0625.101563.011719.015625.019531.03125.03125.046875.019531.035156.042969.066406.0625.101562.007813.011719.015625.023438.023437.035157l.011719.015624c.003907.003907.003907.007813.007813.011719l12.367187 18.8125c-84.460937 3.542969-152.082031 73.363281-152.082031 158.683594 0 87.582031 71.25 158.832031 158.832031 158.832031 63.738281 0 118.828125-37.742187 144.097657-92.050781l13.746093 20.886719c0 .003906.003907.007812.003907.007812.117187.175782.238281.347656.363281.515625.003906.003907.003906.003907.003906.003907.089844.121093.183594.242187.28125.359374.007813.007813.011719.015626.019531.019532.027344.035156.058594.070312.089844.105468.007812.011719.015625.023438.027344.03125.046875.058594.097656.117188.148437.171876.015625.015624.027344.03125.042969.046874.023438.027344.046875.050782.070312.074219.019532.023438.042969.050781.066407.074219.019531.019531.042969.042969.0625.0625.039062.042969.082031.085938.125.128906.011719.011719.019531.019532.03125.027344.035156.039062.074219.074219.113281.113281.015625.011719.027344.023438.042969.039063.046875.042968.09375.085937.140625.128906.054687.050781.105468.097656.160156.144531.003906.003907.011719.007813.015625.011719.835937.722656 1.777344 1.292969 2.78125 1.703125.003906 0 .007813 0 .011719.003906.074218.027344.148437.058594.222656.085938.023438.007812.046875.015625.066406.023437.0625.023438.125.046875.1875.066406.035156.011719.070313.027344.105469.039063.03125.007813.058594.015625.089844.027344.074219.023437.148437.046875.222656.066406 0 .003906.003906.003906.003906.003906.640625.191407 1.289063.316407 1.9375.375h.003907c.089843.007813.179687.015625.265624.019531.015626 0 .027344.003907.042969.003907.042969 0 .082031.003906.125.007812.058594 0 .121094.003907.179688.003907.023437.003906.046875.003906.070312.003906.070313 0 .140625.003906.210938.003906h.011719.007812.003906.015625c.066407 0 .132813-.003906.199219-.003906.027344 0 .050781 0 .078125-.003906.058594 0 .117187-.003907.175781-.003907.042969-.003906.082032-.003906.125-.007812h.023438c.882812-.058594 1.765625-.230469 2.628906-.527344.03125-.007813.0625-.019531.089844-.03125.050781-.015625.101562-.035156.148437-.054687.054688-.019532.113281-.039063.164063-.0625.015625-.003907.03125-.011719.042968-.015626.082032-.03125.164063-.066406.242188-.097656.003906-.003906.003906-.003906.007812-.003906.640626-.277344 1.253907-.617188 1.832032-1.027344.117187-.082031.234375-.167968.347656-.257812.007812-.003906.015625-.011719.023438-.015625.054687-.042969.109374-.085938.164062-.128907.050781-.042968.101562-.085937.152344-.128906.015625-.011718.027344-.023437.039062-.035156.039063-.03125.078125-.066406.117188-.101562.011718-.011719.027344-.023438.039062-.035157.046875-.039062.089844-.082031.136719-.121093.019531-.015626.035156-.035157.054687-.050782.027344-.027344.054688-.050781.082032-.078125.019531-.019531.042968-.042969.066406-.066406.027344-.023437.054688-.050781.078125-.074219.039063-.042968.078125-.082031.117187-.121094.015626-.015624.03125-.03125.042969-.046874.03125-.03125.058594-.0625.085938-.09375.011719-.007813.019531-.019532.03125-.03125.097656-.105469.195312-.214844.289062-.328126 0 0 .003907-.003906.007813-.007812.234375-.277344.453125-.570312.65625-.875.003906-.003906.003906-.007812.007812-.011719l.042969-.0625c.003906-.003906.003906-.007812.007813-.015625l90.121093-135.042968c3.066407-4.597657 1.828125-10.804688-2.765625-13.871094-4.59375-3.0625-10.800781-1.824219-13.867187 2.769531l-52.628907 78.859375 58.742188-193.375h70.304688l-32.566407 48.800781c-3.066406 4.59375-1.828125 10.804688 2.765625 13.871094 4.59375 3.0625 10.804688 1.824219 13.871094-2.769531l42.902344-64.292969c.203125-.296875.394531-.609375.566406-.9375 0-.003906.003906-.007813.003906-.011719.007813-.015625.015625-.027344.023438-.042968.015625-.027344.03125-.058594.046875-.089844.003906-.007813.007812-.015625.011719-.023438.015624-.039062.035156-.078125.054687-.121094zm-127.046875-14.386718h-117.820312l58.910156-69.289063zm-207.363281 35.175781-9.976563-15.175781h70.402344l12.632812 42.769531c-21.175781-14.804687-46.109374-24.585937-73.058593-27.59375zm42.921875-109.90625h83.902344l-63.53125 74.730469h-72.621094zm-60.664063 406.582031c-76.554687 0-138.832031-62.28125-138.832031-138.832031s62.277344-138.828125 138.832031-138.828125c40.527344 0 77.050781 17.453125 102.457031 45.242188.203126.246093.417969.484374.644532.710937 22.199218 24.617187 35.726562 57.195313 35.726562 92.875 0 76.550781-62.277344 138.832031-138.828125 138.832031zm166.378907-91.671875-8.339844-28.539062c-.066406-.222657-.140625-.445313-.21875-.660157.667968-5.894531 1.007812-11.886718 1.007812-17.960937 0-40.183594-15-76.929687-39.695312-104.933594l-20.113282-68.085937h134.242188zm84.976562-240.179687-63.53125-74.730469h83.902344l52.246094 74.730469zm0 0"/><path d="m158.832031 407.738281c-56.867187 0-103.128906-46.261719-103.128906-103.128906s46.261719-103.128906 103.128906-103.128906c56.863281 0 103.128907 46.261719 103.128907 103.128906s-46.265626 103.128906-103.128907 103.128906zm0 0" fill="#ffe681"/><path d="m158.832031 417.738281c-62.378906 0-113.128906-50.75-113.128906-113.128906s50.75-113.128906 113.128906-113.128906c62.378907 0 113.128907 50.75 113.128907 113.128906s-50.75 113.128906-113.128907 113.128906zm0-206.257812c-51.351562 0-93.128906 41.777343-93.128906 93.128906 0 51.355469 41.777344 93.128906 93.128906 93.128906 51.351563 0 93.128907-41.773437 93.128907-93.128906 0-51.351563-41.777344-93.128906-93.128907-93.128906zm0 0"/><path d="m184.988281 293.960938s-24.628906-25.042969-26.15625-25.042969c-1.527343 0-26.15625 25.042969-26.15625 25.042969l-34.355469-9.894532 9.707032 56.238282h101.605468l9.710938-56.238282zm0 0" fill="#ffdd52"/><path d="m209.632812 350.300781h-101.605468c-4.867188 0-9.023438-3.5-9.851563-8.296875l-9.707031-56.234375c-.585938-3.394531.617188-6.851562 3.179688-9.148437 2.566406-2.300782 6.128906-3.117188 9.441406-2.164063l28.652344 8.25c2.324218-2.339843 5.359374-5.371093 8.417968-8.390625 14.304688-14.101562 16.039063-15.398437 20.671875-15.398437 4.632813 0 6.371094 1.296875 20.671875 15.398437 3.058594 3.019532 6.09375 6.050782 8.417969 8.390625l28.652344-8.25c3.308593-.953125 6.875-.136719 9.441406 2.164063 2.566406 2.296875 3.765625 5.753906 3.179687 9.148437l-9.707031 56.234375c-.828125 4.796875-4.988281 8.296875-9.855469 8.296875zm-93.183593-20h84.761719l5.5625-32.207031-19.015626 5.472656c-3.527343 1.015625-7.324218.019532-9.898437-2.59375-6.519531-6.628906-14.027344-14.085937-19.027344-18.863281-5 4.777344-12.507812 12.234375-19.027343 18.863281-2.574219 2.613282-6.371094 3.613282-9.898438 2.59375l-19.015625-5.472656zm0 0"/></svg>