<?xml version="1.0" encoding="iso-8859-1"?>
<!-- Generator: Adobe Illustrator 19.0.0, SVG Export Plug-In . SVG Version: 6.00 Build 0)  -->
<svg version="1.1" id="Capa_1" xmlns="http://www.w3.org/2000/svg" x="0px" y="0px"
     viewBox="0 0 512 512" style="enable-background:new 0 0 512 512;" xml:space="preserve">
<path style="fill:#4B3F4E;" d="M83.654,131.75v28.056l32.065-24.048V95.677l-22.445,16.834
	C87.218,117.053,83.654,124.181,83.654,131.75z"/>
  <path style="fill:#5D5360;" d="M412.316,47.581h-17.407c-4.252,0-8.33-1.689-11.337-4.696l-9.961-9.961
	c-6.013-6.014-14.17-9.392-22.674-9.392h-42.831l-8.989-8.989c-4.51-4.51-10.627-7.043-17.004-7.043h-30.12l32.065,32.065H195.88
	c-48.699,0-88.177,39.478-88.177,88.177l0,0c0,48.699,39.478,88.177,88.177,88.177h78.439c20.933,0,39.627,15.304,41.615,36.143
	c2.28,23.905-16.457,44.018-39.892,44.018h-56.113c-35.417,0-64.129,28.712-64.129,64.129v32.065
	c0-35.417,28.712-64.129,64.129-64.129h53.367c42.696,0,79.976-32.22,82.734-74.826c3.022-46.688-33.951-85.496-79.988-85.496
	h-78.784c-16.747,0-31.702-12.244-33.291-28.915c-1.824-19.124,13.165-35.214,31.914-35.214h128.258l8.016,8.016h24.048V95.677
	c0-8.854,7.178-16.032,16.032-16.032h56.113V63.613C428.348,54.759,421.17,47.581,412.316,47.581z"/>
  <path style="fill:#EBC9A0;" d="M164.107,378.51c-0.192,1.89-0.291,3.807-0.291,5.748
	C163.816,382.318,163.955,380.412,164.107,378.51z"/>
  <g>
	<path style="fill:#4B3F4E;" d="M200.589,476.193c-3.087-7.717-8.121-14.502-14.611-19.694l-18.145-14.516
		c-7.606-6.085-12.034-15.298-12.034-25.038c0,9.74-4.428,18.953-12.034,25.038l-18.145,14.516
		c-6.49,5.192-11.524,11.977-14.611,19.694L99.686,504.5l41.538-17.802c8.842-3.789,14.575-12.484,14.575-22.104
		c0,9.62,5.733,18.315,14.575,22.104l41.538,17.802L200.589,476.193z"/>
    <path style="fill:#4B3F4E;" d="M183.571,43.288c-7.517-7.517-17.711-11.739-28.341-11.739h-31.495l20.325,20.325
		c7.517,7.517,17.711,11.739,28.341,11.739h31.495L183.571,43.288z"/>
</g>
  <path style="fill:#EBC9A0;" d="M276.041,167.823H195.88c-17.709,0-32.065-14.356-32.065-32.065s14.355-32.065,32.065-32.065h56.113
	c0-13.281-10.764-24.048-24.048-24.048H195.88c-30.937,0-56.113,25.172-56.113,56.113s25.176,56.113,56.113,56.113h80.161
	c30.937,0,56.113,25.172,56.113,56.113s-25.176,54.891-56.113,54.891h-56.113c-18.232,0-35.189,6.784-49.264,16.3
	c-9.274,11.121-14.865,25.422-14.865,41.035v32.065c0-35.417,28.712-64.129,64.129-64.129h56.113
	c44.272,0,80.161-35.89,80.161-80.161C356.203,203.712,320.313,167.823,276.041,167.823z"/>
  <path d="M412.315,40.081h-20.942l-12.46-12.46c-7.473-7.473-17.408-11.588-27.977-11.588h-39.725l-4.444-4.444
	C299.295,4.115,289.36,0,278.792,0H235.96c-4.142,0-7.5,3.358-7.5,7.5s3.358,7.5,7.5,7.5h2.751c6.561,0,12.73,2.555,17.37,7.195
	l9.87,9.87H195.88c-4.329,0-8.671,0.309-12.941,0.886c-8.027-5.776-17.625-8.902-27.71-8.902h-31.48c-0.01,0-0.02,0-0.029,0h-16.018
	c-4.142,0-7.5,3.358-7.5,7.5s3.358,7.5,7.5,7.5h12.926l14.656,14.656c-12.87,10.542-22.645,24.137-28.565,39.349L91.98,104.108
	c-9.91,7.432-15.826,19.265-15.826,31.652v40.081c0,4.142,3.358,7.5,7.5,7.5s7.5-3.358,7.5-7.5v-12.266l12.739-9.485
	c11.469,39.986,48.365,69.331,91.987,69.331h48.098c4.142,0,7.5-3.358,7.5-7.5s-3.358-7.5-7.5-7.5H195.88
	c-44.485,0-80.677-36.192-80.677-80.678c0-25.191,11.757-48.825,31.649-64.067c7.565,4.836,16.355,7.438,25.55,7.438h31.495
	c3.034,0,5.768-1.827,6.929-4.63c1.161-2.803,0.519-6.028-1.626-8.173l-11.245-11.245h86.104c4.142,0,7.5-3.358,7.5-7.5
	c0-2.072-0.84-3.947-2.198-5.304L270.099,15h8.693c6.561,0,12.73,2.555,17.37,7.195l22.673,22.673
	c1.464,1.464,3.384,2.197,5.303,2.197s3.839-0.732,5.303-2.197c2.929-2.929,2.929-7.678,0-10.606l-3.229-3.229h24.725
	c6.562,0,12.73,2.555,17.37,7.195l14.657,14.657c1.406,1.407,3.314,2.197,5.303,2.197h24.048c4.705,0,8.532,3.828,8.532,8.532v8.532
	h-48.613c-12.976,0-23.532,10.557-23.532,23.532v8.532h-5.871c-9.952,0-19.225-4.457-25.441-12.228l-7.997-9.996
	c-9.079-11.349-22.621-17.857-37.154-17.857h-12.231c-4.142,0-7.5,3.358-7.5,7.5s3.358,7.5,7.5,7.5h12.231
	c9.952,0,19.225,4.457,25.441,12.228l7.997,9.996c9.079,11.349,22.621,17.857,37.154,17.857h69.483c4.142,0,7.5-3.358,7.5-7.5
	s-3.358-7.5-7.5-7.5h-48.613v-8.532c0-4.705,3.828-8.532,8.532-8.532h40.597v0.516c0,4.142,3.358,7.5,7.5,7.5s7.5-3.358,7.5-7.5
	v-0.516h0.516c4.142,0,7.5-3.358,7.5-7.5V63.613C435.848,50.637,425.291,40.081,412.315,40.081z M91.154,144.872v-9.114
	c0-7.659,3.645-14.976,9.752-19.593c-0.465,3.816-0.704,7.681-0.704,11.577c0,3.378,0.179,6.716,0.522,10.004L91.154,144.872z
	 M172.401,56.113c-8.703,0-16.884-3.389-23.038-9.542l-7.522-7.522h13.388c8.703,0,16.884,3.389,23.038,9.542l7.522,7.522H172.401z"
  />
  <path d="M363.783,55.597c0-4.142-3.358-7.5-7.5-7.5h-0.08c-4.142,0-7.46,3.358-7.46,7.5s3.398,7.5,7.54,7.5
	S363.783,59.739,363.783,55.597z"/>
  <path d="M276.042,160.323H195.88c-13.545,0-24.564-11.02-24.564-24.565s11.02-24.564,24.564-24.564h80.162
	c4.142,0,7.5-3.358,7.5-7.5s-3.358-7.5-7.5-7.5H195.88c-21.816,0-39.564,17.749-39.564,39.565s17.749,39.564,39.564,39.564h80.162
	c40.065,0,72.661,32.596,72.661,72.661s-32.596,72.661-72.661,72.661h-56.113c-22.024,0-41.756,9.99-54.907,25.678
	c6.208-24.534,28.471-42.742,54.907-42.742h56.113c26.236,0,47.581-21.345,47.581-47.581s-21.345-47.581-47.581-47.581
	c-4.142,0-7.5,3.358-7.5,7.5s3.358,7.5,7.5,7.5c17.965,0,32.581,14.616,32.581,32.581s-14.616,32.581-32.581,32.581h-56.113
	c-39.496,0-71.629,32.133-71.629,71.629v56.734c0,7.503-3.36,14.495-9.219,19.182l-18.146,14.516
	c-7.488,5.991-13.328,13.863-16.889,22.765l-11.323,28.308c-1.127,2.817-0.446,6.035,1.725,8.153c1.43,1.395,3.32,2.132,5.24,2.132
	c0.996,0,2-0.198,2.953-0.606l41.538-17.802c4.583-1.964,8.526-4.926,11.621-8.567c3.095,3.642,7.038,6.604,11.621,8.567
	l41.538,17.802c2.788,1.194,6.022,0.593,8.193-1.526s2.852-5.336,1.725-8.153l-11.323-28.308l0,0
	c-3.561-8.902-9.401-16.774-16.889-22.765l-18.145-14.516c-5.859-4.687-9.219-11.679-9.219-19.182v-24.669
	c0-31.226,25.404-56.629,56.629-56.629h56.113c48.336,0,87.661-39.325,87.661-87.661S324.378,160.323,276.042,160.323z
	 M181.293,462.354c5.468,4.375,9.733,10.123,12.333,16.623l4.598,11.497l-24.895-10.669c-6.093-2.611-10.03-8.582-10.03-15.21
	c0-4.142-3.358-7.5-7.5-7.5s-7.5,3.358-7.5,7.5c0,6.628-3.937,12.599-10.03,15.21l-24.895,10.669l4.599-11.496
	c2.6-6.5,6.864-12.249,12.332-16.623l18.145-14.516c2.822-2.257,5.284-4.847,7.349-7.69c2.065,2.844,4.527,5.433,7.349,7.69
	L181.293,462.354z"/>
  <g>
</g>
  <g>
</g>
  <g>
</g>
  <g>
</g>
  <g>
</g>
  <g>
</g>
  <g>
</g>
  <g>
</g>
  <g>
</g>
  <g>
</g>
  <g>
</g>
  <g>
</g>
  <g>
</g>
  <g>
</g>
  <g>
</g>
</svg>
