<?xml version="1.0" encoding="iso-8859-1"?>
<!-- Generator: Adobe Illustrator 19.0.0, SVG Export Plug-In . SVG Version: 6.00 Build 0)  -->
<svg version="1.1" id="Capa_1" xmlns="http://www.w3.org/2000/svg" xmlns:xlink="http://www.w3.org/1999/xlink" x="0px" y="0px"
	 viewBox="0 0 512 512" style="enable-background:new 0 0 512 512;" xml:space="preserve">
<path style="fill:#6F6571;" d="M247.953,182.668h-60.344c-22.218,0-40.229-18.011-40.229-40.229s18.011-40.229,40.229-40.229
	h128.733V45.889H183.587c-51.101,0-92.527,41.425-92.527,92.527c0,51.101,41.425,92.527,92.527,92.527h68.389
	c35.548,0,64.366,28.818,64.366,64.366s-28.818,64.366-64.366,64.366c-57.766,0-104.595,46.829-104.595,104.595v40.23
	c17.775,0,32.183-14.409,32.183-32.183v-8.046c0-35.549,28.818-64.366,64.366-64.366h4.023c59.988,0,108.618-48.63,108.618-108.618
	C356.572,231.298,307.941,182.668,247.953,182.668z"/>
<path style="fill:#867E88;" d="M396.801,45.889h-16.092l-14.711-14.711c-6.036-6.036-14.222-9.426-22.757-9.426h-51.036v56.321
	c0,17.774,14.409,32.183,32.183,32.183h8.046l22.757-22.757c6.036-6.036,14.221-9.426,22.757-9.426h42.99v-8.046
	C420.938,56.696,410.131,45.889,396.801,45.889z"/>
<path style="fill:#6F6571;" d="M280.937,16.692c-8.539-7.042-19.602-10.254-30.584-8.882l-25.349,3.169l2.302,0.41l35.711,25.508
	c8.187,5.848,17.997,8.992,28.059,8.992h25.267L280.937,16.692z"/>
<path d="M355.765,55.597c0-4.142-3.358-7.5-7.5-7.5h-0.08c-4.142,0-7.46,3.358-7.46,7.5c0,4.143,3.398,7.5,7.54,7.5
	S355.765,59.739,355.765,55.597z"/>
<path d="M203.894,239.452c4.142,0,7.5-3.358,7.5-7.5s-3.358-7.5-7.5-7.5h-16.548v-4.023c0-4.143-3.358-7.5-7.5-7.5
	s-7.5,3.357-7.5,7.5v3.22c-14.178-1.936-27.246-7.386-38.299-15.453l3.005-3.005c2.929-2.929,2.929-7.678,0-10.606
	c-2.929-2.929-7.678-2.929-10.606,0l-3.71,3.71c-12.071-12.6-20.291-28.902-22.765-47.02h7.729c4.142,0,7.5-3.358,7.5-7.5
	c0-4.143-3.358-7.5-7.5-7.5h-8.444c0.705-17.265,6.6-33.207,16.167-46.315l7.406,7.406c1.464,1.464,3.384,2.196,5.303,2.196
	s3.839-0.732,5.303-2.196c2.929-2.929,2.929-7.678,0-10.606l-8.11-8.111c12.6-12.071,28.902-20.291,47.02-22.765v12.76
	c0,4.142,3.358,7.5,7.5,7.5s7.5-3.358,7.5-7.5V55.081h40.09c4.142,0,7.5-3.358,7.5-7.5s-3.358-7.5-7.5-7.5h-43.582
	c-54.967,0-99.686,44.719-99.686,99.686c0,54.966,44.719,99.685,99.686,99.685H203.894z"/>
<path d="M420.33,32.065c-4.142,0-7.5,3.358-7.5,7.5v5.219c-4.814-2.979-10.483-4.703-16.548-4.703h-12.926l-12.46-12.46
	c-7.473-7.473-17.409-11.588-27.977-11.588h-53.268l-4.035-3.327c-10.055-8.293-23.237-12.121-36.173-10.505l-39.206,4.901
	c-2.631,0.329-5.216-0.558-7.092-2.433l-2.472-2.472c-2.929-2.929-7.678-2.929-10.606,0c-2.929,2.929-2.929,7.677,0,10.606
	l2.471,2.472c5.172,5.172,12.298,7.618,19.559,6.71l12.509-1.563l34.023,24.303c9.485,6.775,20.66,10.356,32.315,10.356h25.174
	c3.165,0,5.989-1.987,7.059-4.965s0.155-6.308-2.287-8.321l-13.051-10.762h35.078c6.562,0,12.73,2.555,17.37,7.195l14.657,14.657
	c1.406,1.406,3.314,2.197,5.303,2.197h16.032c9.125,0,16.548,7.423,16.548,16.548v0.517h-35.328
	c-10.568,0-20.504,4.115-27.977,11.588L335.15,98.107c-3.937,3.937-9.17,6.104-14.737,6.104c-11.492,0-20.841-9.35-20.841-20.842
	v-3.723c0-4.143-3.358-7.5-7.5-7.5s-7.5,3.357-7.5,7.5v3.723c0,4.519,0.849,8.84,2.382,12.825h-99.092
	c-26.236,0-47.581,21.345-47.581,47.581s21.345,47.581,47.581,47.581h60.121c55.536,0,100.718,45.182,100.718,100.718
	S303.519,392.79,247.983,392.79h-4.008c-39.496,0-71.629,32.133-71.629,71.629v8.016c0,10.931-7.176,20.217-17.064,23.394v-31.41
	c0-6.19,0.592-12.244,1.709-18.114c0.268,0.029,0.537,0.063,0.806,0.063c2.28,0,4.532-1.036,6.006-3
	c2.485-3.313,1.814-8.015-1.5-10.5l-1.368-1.026c5.235-14.589,13.882-27.564,24.975-37.962c1.416,1.252,3.185,1.887,4.96,1.887
	c1.919,0,3.839-0.732,5.304-2.197c2.424-2.424,2.835-6.093,1.246-8.947c13.605-9.333,29.702-15.286,47.073-16.624v0.227
	c0,4.143,3.358,7.5,7.5,7.5c4.142,0,7.5-3.357,7.5-7.5v-0.91c16.119-1.685,30.652-8.749,41.799-19.344l0.007,0.006
	c1.465,1.465,3.384,2.197,5.304,2.197c1.919,0,3.839-0.732,5.303-2.197c2.929-2.929,2.929-7.677,0-10.606l-0.84-0.84
	c6.576-9.574,10.893-20.814,12.161-32.951h0.91c4.142,0,7.5-3.358,7.5-7.5s-3.358-7.5-7.5-7.5h-0.91
	c-1.478-14.135-7.088-27.053-15.591-37.538l0.428-0.428c2.929-2.929,2.928-7.678,0-10.606c-2.93-2.929-7.678-2.929-10.607,0
	l-0.427,0.428c-12.314-9.986-27.985-15.985-45.037-15.985h-0.517v-0.516c0-4.142-3.358-7.5-7.5-7.5s-7.5,3.358-7.5,7.5v0.516h-0.518
	c-4.142,0-7.5,3.358-7.5,7.5s3.358,7.5,7.5,7.5h16.035c31.225,0,56.629,25.404,56.629,56.629s-25.404,56.629-56.629,56.629
	c-61.597,0-111.709,50.112-111.709,111.709V504.5c0,4.142,3.358,7.5,7.5,7.5c21.816,0,39.564-17.749,39.564-39.564v-8.016
	c0-31.225,25.404-56.629,56.629-56.629h4.008c63.807,0,115.718-51.911,115.718-115.718s-51.911-115.717-115.718-115.717h-60.121
	c-17.965,0-32.581-14.616-32.581-32.581s14.616-32.581,32.581-32.581h109.993c4.724,3.837,10.439,6.495,16.697,7.529
	c-2.646,5.624-8.351,9.535-14.967,9.535H283.55c-4.142,0-7.5,3.358-7.5,7.5c0,4.143,3.358,7.5,7.5,7.5h16.037
	c14.812,0,27.265-10.262,30.64-24.048h63.439c1.674,0,2.545,1.033,2.916,1.649c0.144,0.24,0.363,0.837,0.351,1.754
	c-0.053,3.898,2.702,7.264,6.566,7.78c4.453,0.595,8.459-2.794,8.584-7.285c0.098-3.525-0.833-7.06-2.784-10.205
	c-3.425-5.522-9.638-8.693-16.135-8.693h-42.903l9.87-9.87c4.64-4.64,10.809-7.194,17.37-7.194h27.315v0.516
	c0,4.143,3.358,7.5,7.5,7.5s7.5-3.357,7.5-7.5v-0.516h0.516c4.142,0,7.5-3.358,7.5-7.5V39.565
	C427.83,35.422,424.472,32.065,420.33,32.065z M290.946,40.081c-8.511,0-16.671-2.615-23.597-7.562L246.57,17.677l4.733-0.592
	c8.858-1.107,17.884,1.515,24.77,7.193l19.164,15.803C295.237,40.081,290.946,40.081,290.946,40.081z"/>
<g>
</g>
<g>
</g>
<g>
</g>
<g>
</g>
<g>
</g>
<g>
</g>
<g>
</g>
<g>
</g>
<g>
</g>
<g>
</g>
<g>
</g>
<g>
</g>
<g>
</g>
<g>
</g>
<g>
</g>
</svg>
