<svg id="Capa_1" enable-background="new 0 0 497 497" height="512" viewBox="0 0 497 497" width="512" xmlns="http://www.w3.org/2000/svg"><g><path d="m121.447 292.748s-25.601 40.575-70.427 44.425c-9.289.798-15.192 10.293-11.674 18.928l13.234 32.484c3.852 9.454 14.725 13.972 24.1 9.93 63.191-27.246 75.701-86.937 75.701-86.937z" fill="#fd5f7e"/><path d="m96.064 319.209c8.568 13.165 18.562 25.537 29.929 36.905.878.878 1.771 1.735 2.66 2.596 18.88-24.023 23.727-47.132 23.727-47.132l-30.934-18.83c.001 0-8.897 14.097-25.382 26.461z" fill="#f9496e"/><path d="m132.795 263.357s-46.794 10.588-81.213-18.386c-7.133-6.004-18.021-3.464-21.639 5.129l-13.612 32.327c-3.962 9.409.532 20.292 10.019 24.063 63.948 25.417 115.002-7.945 115.002-7.945z" fill="#ff748f"/><g fill="#fed2a4"><path d="m340.665 364.066-12.896 54.098-41.841 27.086-44.849-27.464-9.888-53.72z"/><path d="m184.373 364.066 25.341 81.184-25.341 51.75h-63.509c-.001-92.602 63.509-132.934 63.509-132.934z"/><path d="m450.992 497h-63.509l-22.015-51.75 22.015-81.184s63.509 40.332 63.509 132.934z"/></g><path d="m410.556 385.002c-12.51-14.225-23.073-20.936-23.073-20.936l-10.673 39.356c11.72-5.143 23.004-11.298 33.746-18.42z" fill="#ffbd86"/><path d="m196.907 404.221-12.534-40.154s-10.563 6.71-23.073 20.936c11.308 7.496 23.221 13.915 35.607 19.218z" fill="#ffbd86"/><path d="m387.483 364.066v132.934h-89.625l29.911-78.836z" fill="#516a80"/><path d="m262.519 479.977-11.479 17.023h-66.667v-132.934l56.706 53.72z" fill="#516a80"/><path d="m241.079 417.786.378.231c14.489 2.873 29.367 4.344 44.471 4.344 13.937 0 27.678-1.268 41.102-3.719l.739-.478 12.897-54.098h-109.475z" fill="#ffbd86"/><path d="m241.135 417.95-.056-.164-56.706-53.72v34.341c17.913 9.019 36.973 15.588 56.762 19.543z" fill="#475c70"/><g><path d="m285.928 445.25-23.409 34.727-78.146-115.911h46.818z" fill="#fd5f7e"/></g><path d="m327.629 418.531c20.895-3.873 41.011-10.638 59.854-20.124v-34.341l-59.714 54.098z" fill="#475c70"/><path d="m387.483 364.066-89.625 132.934h-46.818l11.479-17.023 23.409-34.727 54.737-81.184z" fill="#ff748f"/><path d="m67.556 255.428c5.648 20.949 14.299 40.924 25.733 59.409 29.181-3.953 48.064-16.291 48.064-16.291l-8.559-35.188c.001-.001-33.916 7.668-65.238-7.93z" fill="#fd5f7e"/><path d="m301.732 421.81c18.462-1.266 36.487-4.748 53.772-10.313l31.979-47.431h-46.818z" fill="#fd5f7e"/><path d="m231.191 364.066h-46.818l31.978 47.431c17.286 5.565 35.311 9.047 53.773 10.313z" fill="#f9496e"/><circle cx="285.928" cy="196.181" fill="#516a80" r="196.181"/><path d="m158.595 216.578c0-75.92 23.122-159.413 71.417-208.479-81.103 24.076-140.265 99.164-140.265 188.082 0 95.051 67.601 174.307 157.345 192.329-53.574-38.315-88.497-101.043-88.497-171.932z" fill="#475c70"/><path d="m387.612 94.094h-203.619c-28.721 27.093-46.65 65.502-46.65 108.102 0 .461.002.921.006 1.381.326 35.77 38.452 58.251 70.118 41.612 22.561-11.854 49.51-18.745 78.46-18.745 28.951 0 55.901 6.891 78.462 18.746 31.783 16.701 69.863-6.012 70.119-41.915.005-.648.005-1.298.001-1.948-.24-42.145-18.26-80.271-46.897-107.233z" fill="#fed2a4"/><path d="m158.595 216.578c0-38.089 5.821-78.085 17.717-114.686-24.2 26.432-38.969 61.642-38.969 100.303 0 .461.002.921.006 1.381.162 17.746 9.629 32.218 22.994 40.268-1.15-8.926-1.748-18.026-1.748-27.266z" fill="#ffbd86"/><path d="m468.557 107.129c-6.917-14.131-15.428-27.346-25.291-39.409-3.331-4.073-8.318-6.433-13.579-6.433h-287.517c-5.262 0-10.249 2.36-13.579 6.433-9.864 12.063-18.374 25.278-25.291 39.409-5.681 11.606 2.87 25.146 15.791 25.146h333.675c12.921-.001 21.472-13.541 15.791-25.146z" fill="#ff748f"/><path d="m335.808 45.449h-99.759c-18.5 0-33.498 14.997-33.498 33.497v38.902c0 18.5 14.997 33.498 33.498 33.498h99.759c18.5 0 33.498-14.997 33.498-33.498v-38.901c-.001-18.5-14.998-33.498-33.498-33.498z" fill="#879caf"/><path d="m302.65 110.233c-6.987 0-13.974-1.756-20.343-5.267-8.204-4.523-17.999-4.523-26.203 0-3.627 2-8.189.68-10.188-2.947-2-3.627-.68-8.189 2.947-10.189 12.737-7.022 27.948-7.022 40.686 0 8.205 4.523 18 4.522 26.203 0 3.628-2 8.189-.68 10.188 2.947 2 3.627.68 8.189-2.947 10.189-6.369 3.511-13.356 5.267-20.343 5.267z" fill="#a6b6c4"/><g fill="#334151"><path d="m226.29 183.968-29.271-7.843c-3.995-1.071-8.113 1.302-9.186 5.303-1.072 4.001 1.303 8.113 5.304 9.186l10.477 2.808c-.721 1.152-1.145 2.51-1.145 3.97v12.609c0 4.142 3.358 7.5 7.5 7.5s7.5-3.358 7.5-7.5v-12.609c0-.088-.01-.174-.013-.261l4.953 1.327c.65.174 1.303.257 1.946.257 3.311 0 6.342-2.21 7.24-5.561 1.071-4.002-1.304-8.115-5.305-9.186z"/><path d="m384.023 181.428c-1.072-4.001-5.187-6.375-9.186-5.303l-29.271 7.843c-4.001 1.072-6.375 5.185-5.304 9.186.898 3.351 3.928 5.561 7.24 5.561.643 0 1.296-.083 1.946-.257l4.953-1.327c-.003.087-.013.173-.013.261v12.609c0 4.142 3.358 7.5 7.5 7.5s7.5-3.358 7.5-7.5v-12.609c0-1.46-.424-2.817-1.145-3.97l10.477-2.808c4-1.073 6.374-5.185 5.303-9.186z"/></g><path d="m192.841 61.286h-50.671c-5.262 0-10.249 2.36-13.579 6.434-9.864 12.063-18.374 25.278-25.292 39.409-5.681 11.605 2.87 25.146 15.791 25.146h48.892c5.668-25.012 13.925-49.178 24.859-70.989z" fill="#fd5f7e"/><path d="m230.713 77.444c0-11.233 1.971-22.006 5.579-31.995h-.244c-18.5 0-33.498 14.998-33.498 33.498v38.902c0 18.5 14.997 33.498 33.498 33.498h30.471c-21.809-17.247-35.806-43.939-35.806-73.903z" fill="#7a8fa4"/></g></svg>