<svg id="Capa_1" enable-background="new 0 0 497 497" height="512" viewBox="0 0 497 497" width="512" xmlns="http://www.w3.org/2000/svg"><g><path d="m23.519 215.967c0 162.56 99.093 206.408 99.093 206.408l62.395-57.682-103.41-148.726z" fill="#3d4f61"/><path d="m476.042 311.955c-10.133-19.211-20.588-50.142-20.588-95.988h-50.377l-89.732 132.954 41.016 73.455c49.507-9.128 85.824-32.948 108.811-53.004 16.43-14.337 21.043-38.128 10.87-57.417z" fill="#475c70"/><path d="m162.165 448.48-23.758 48.52h-63.21c0-18.164 2.458-34.307 6.4-48.52l41.016-26.105z" fill="#59c2e7"/><path d="m316.808 448.48 23.757 48.52h63.21c0-18.164-2.458-34.307-6.4-48.52l-41.016-26.105z" fill="#59c2e7"/><path d="m163.628 445.494-1.463 2.986h-80.568c16.064-57.906 56.811-83.783 56.811-83.783z" fill="#fed2a4"/><path d="m315.344 445.494 1.463 2.986h80.568c-16.064-57.906-56.811-83.783-56.811-83.783z" fill="#fed2a4"/><path d="m340.562 364.693v132.307h-89.202l29.769-78.464z" fill="#90d3f1"/><path d="m151.985 408.194-13.577-43.496s-10.941 6.951-23.719 21.702c11.695 8.555 24.196 15.85 37.296 21.794z" fill="#ffbd86"/><path d="m216.188 480.058-11.425 16.942h-66.353v-132.307l56.439 53.466z" fill="#90d3f1"/><path d="m293.965 364.693-12.836 53.843-41.643 26.958-44.637-27.335-9.842-53.466z" fill="#fed2a4"/><path d="m23.519 215.967c0-57.687 22.464-111.921 63.255-152.712 40.791-40.791 95.025-63.255 152.712-63.255s111.921 22.464 152.712 63.255 63.256 95.025 63.256 152.712z" fill="#475c70"/><path d="m225.198.477c-52.308 3.394-101.019 25.374-138.423 62.779-40.791 40.791-63.255 95.024-63.255 152.711h87.729c2.053-82.416 46.362-173.051 113.949-215.49z" fill="#3d4f61"/><ellipse cx="420.618" cy="202.125" fill="#ffbd86" rx="42.773" ry="41.338"/><path d="m60.419 243.462c-1.33-8.77-2.03-17.76-2.06-26.91-.06-20.01 3.12-39.26 9.04-57.27 19.42-58.98 88.82-85.07 141.79-52.67 1.08.66 2.15 1.34 3.23 2.04 16.48 10.76 37.66 10.76 54.14 0 1.08-.7 2.15-1.38 3.23-2.04 53.35-32.63 122.91-5.83 142.12 53.69 5.65 17.53 8.71 36.24 8.71 55.66 0 9.35-.71 18.54-2.08 27.51l-40.694 51.132h-268.872z" fill="#fed2a4"/><path d="m138.41 401.429c18.164 9.875 37.706 17.039 57.996 21.248l-1.557-4.517-56.438-53.466v36.735z" fill="#78cbec"/><g><path d="m239.486 445.494-23.298 34.564-77.778-115.365h46.597z" fill="#fbe5c8"/></g><path d="m293.965 364.694h-108.958l9.842 53.466 9.914 6.071c11.409 1.893 23.019 2.871 34.726 2.871 10.855 0 21.631-.843 32.243-2.481l9.398-6.084z" fill="#ffbd86"/><path d="m340.562 364.693-89.202 132.307h-46.597l11.425-16.942 23.298-34.564 54.479-80.801z" fill="#ffefe0"/><g><path d="m156.038 209.695c-4.142 0-7.5-3.358-7.5-7.5v-16.035c0-4.142 3.358-7.5 7.5-7.5s7.5 3.358 7.5 7.5v16.035c0 4.142-3.358 7.5-7.5 7.5z" fill="#334151"/></g><g><path d="m322.934 209.695c-4.142 0-7.5-3.358-7.5-7.5v-16.035c0-4.142 3.358-7.5 7.5-7.5s7.5 3.358 7.5 7.5v16.035c0 4.142-3.357 7.5-7.5 7.5z" fill="#334151"/></g><path d="m143.275 93.943c-33.813 5.804-64.074 29.497-75.876 65.339-.25.761-.488 1.527-.729 2.293-2.691-.513-5.47-.788-8.316-.788-23.623 0-42.773 18.508-42.773 41.338s19.15 41.337 42.773 41.337c.69 0 1.376-.019 2.058-.05.002.017.004.033.007.049l48.554 51.143h15.404c-8.528-22.602-13.208-47.092-13.208-72.679-.001-42.716 11.598-88.038 32.106-127.982z" fill="#ffbd86"/><path d="m364.214 386.319c-12.748-14.697-23.649-21.621-23.649-21.621l-13.55 43.409c13.059-5.948 25.527-13.239 37.199-21.788z" fill="#ffbd86"/><path d="m279.322 423.3c21.44-4.117 42.1-11.531 61.24-21.966v-36.641l-59.433 53.843z" fill="#78cbec"/><path d="m252.151 426.711c18.305-1.099 36.285-4.568 53.51-10.251l34.901-51.766h-46.597z" fill="#fbe5c8"/><path d="m185.007 364.694h-46.597l34.939 51.824c17.207 5.652 35.174 9.102 53.473 10.195z" fill="#fbdab2"/><path d="m418.539 243.472c-13.25 86.99-88.36 153.63-179.05 153.63-90.89 0-165.87-66.46-179.07-153.64h.01c66.12 58.3 96.69-27.49 179.06-27.49s112.94 85.78 179.05 27.5z" fill="#90d3f1"/><path d="m115.233 262.807c-16.556 3.106-33.903-.916-54.804-19.345h-.01c11.392 75.241 68.804 135.04 142.742 150.01-44.606-29.684-76.976-76.294-87.928-130.665z" fill="#78cbec"/></g></svg>