<svg id="Capa_1" enable-background="new 0 0 511.994 511.994" height="512" viewBox="0 0 511.994 511.994" width="512" xmlns="http://www.w3.org/2000/svg"><g><g><path d="m383.173 220.089v57.427c0 6.958 8.326 10.539 13.377 5.753l32.802-31.079c5.99-5.99 9.355-14.114 9.355-22.584v-113.369l53.567 98.583c9.503 17.489 12.146 37.892 7.413 57.225l-29.738 121.482v108.467h-112.259l12.499-87.089c.89-8.793-1.152-17.277-6.127-25.45-10.611-18.649-24.579-50.726-31.444-71.055-3.822-11.332-5.789-23.272-5.789-35.232v-63.079c0-15.559 12.613-28.172 28.172-28.172 15.285.047 28.172 12.81 28.172 28.172z" fill="#ffdad5"/></g><g><path d="m438.702 100.194v129.41c0 8.47-3.36 16.6-9.35 22.59l-32.8 31.08c-5.05 4.78-13.38 1.2-13.38-5.76v-57.42c0-15.37-12.89-28.13-28.17-28.18-15.56 0-28.17 12.62-28.17 28.18v61.24c-.36-.02-.73-.03-1.1-.03h-61.3c-14.34 0-25.97-11.62-25.97-25.97v-37.67c0-8.361-9.473-12.365-15.95-8.56-4.75 2.77-10.27 4.37-16.16 4.37-18.49 0-33.33-15.62-32.04-34.39 1.1-15.89 14.02-28.74 29.91-29.76 6.83-.44 13.23 1.25 18.62 4.48 6.424 3.87 15.62-.281 15.62-8.51v-45.1c0-14.35 11.63-25.97 25.97-25.97h38.62c8.144 0 10.847-10.535 7.5-16.46-2.59-4.63-4.08-9.97-4.08-15.66 0-18.48 15.62-33.32 34.38-32.03 15.57 1.07 28.3 13.49 29.71 29.04.69 7.6-1.28 14.7-5.08 20.5-3.664 5.632-.426 14.61 7.15 14.61h40.1c14.35 0 25.97 11.62 25.97 25.97z" fill="#a0e4a5"/></g><g><path d="m169.61 344.233c12.36 14.185 33.899 14.736 46.973 1.662 4.165-4.165 6.937-9.199 8.337-14.517 1.626-6.258 10.225-12.331 17.331-5.225l26.651 26.651c12.787 12.787 7.411 29.288-3.728 40.427-9.167 9.167-99.081 99.224-101.119 101.119-10.372 9.645-26.456 10.347-36.765.038l-109.701-109.702c-10.147-10.147-10.14-26.587.007-36.734l27.301-27.301c5.789-5.789-.465-15.293-6.258-16.935-5.134-1.428-9.991-4.151-14.036-8.195-13.386-13.386-12.48-35.645 2.708-47.836 11.964-9.603 28.723-9.419 40.496.403 5.876 4.9 9.511 11.335 10.925 18.137 1.166 5.686 9.274 11.317 15.365 5.225l28.362-28.362c10.14-10.14 26.58-10.147 36.727 0l31.891 31.891c7.201 7.201 1.197 15.518-5.028 17.062-6.095 1.527-11.816 4.858-16.334 9.998-10.514 11.958-10.563 30.18-.105 42.194z" fill="#ffd88e"/></g><g><path d="m501.061 210.045-52.359-96.358v-13.494c0-19.834-16.136-35.97-35.97-35.97h-38.33c4.845-7.796 6.959-16.767 6.119-26.013-1.844-20.328-18.603-36.713-38.982-38.113-24.003-1.648-45.066 17.891-45.066 42.006 0 7.179 1.851 14.282 5.356 20.547.154.34.162 1.021.06 1.573h-37.456c-19.834 0-35.97 16.136-35.97 35.97l-.004 45.012c-.153.058-.373.083-.476.021-7.347-4.403-15.784-6.435-24.401-5.882-20.925 1.343-37.797 18.13-39.246 39.054-1.65 24.012 17.894 45.076 42.017 45.076 7.438 0 14.768-1.982 21.226-5.748.198-.115.632-.069.884.045v37.562c0 19.834 16.136 35.97 35.97 35.97h52.693c.697 10.307 2.698 20.467 6.017 30.297 7.406 21.925 21.863 54.583 32.228 72.8.049.085.099.17.149.254 3.811 6.259 5.361 12.493 4.738 19.051l-12.467 86.867c-.412 2.871.442 5.778 2.342 7.97 1.899 2.191 4.656 3.45 7.557 3.45h112.26c5.522 0 10-4.477 10-10v-107.26l29.45-120.31c5.336-21.797 2.374-44.66-8.339-64.377zm-252.599 45.288v-37.67c0-15.5-17.795-24.949-30.987-17.198-3.375 1.968-7.221 3.008-11.123 3.008-12.691 0-22.933-11.062-22.064-23.7.759-10.966 9.604-19.767 20.577-20.471 4.538-.294 8.986.771 12.816 3.066 13.144 7.918 30.781-1.633 30.781-17.075v-45.1c0-8.806 7.164-15.97 15.97-15.97h38.62c15.539 0 23.374-18.689 16.228-31.342-1.837-3.283-2.808-7.01-2.808-10.778 0-12.684 11.064-22.924 23.694-22.053 10.685.734 19.471 9.318 20.437 19.968.459 5.053-.746 9.934-3.503 14.142-8.008 12.309.493 30.063 15.532 30.063h40.1c8.806 0 15.97 7.164 15.97 15.97v129.41c0 5.687-2.329 11.38-6.334 15.428l-29.194 27.662v-52.604c0-20.755-17.425-38.107-38.171-38.175-20.795 0-38.174 17.406-38.174 38.175v51.215h-52.396c-8.807 0-15.971-7.164-15.971-15.971zm241.512 14.333-29.738 121.483c-.19.778-.287 1.577-.287 2.378v98.466h-90.722l10.859-75.667c.02-.138.037-.275.051-.413 1.105-10.92-1.402-21.526-7.453-31.524-9.836-17.319-23.543-48.315-30.593-69.188-3.704-10.97-5.26-22.318-5.26-33.868v-61.24c0-9.849 8.266-18.177 18.138-18.177 9.731.03 18.203 8.431 18.203 18.177v57.42c0 6.828 4.109 13.327 10.298 16.224 6.564 3.073 14.693 1.78 19.96-3.205l32.8-31.08c8.054-7.573 12.477-18.887 12.477-29.847v-74.02l34.78 64.009c8.333 15.336 10.637 33.119 6.487 50.072z"/><path d="m249.322 319.081c-11.166-11.169-30.134-5.407-34.073 9.75-.995 3.778-2.979 7.233-5.738 9.992-8.964 8.965-24.046 8.384-32.359-1.156-7.217-8.291-7.186-20.769.075-29.026 3.008-3.423 6.899-5.809 11.231-6.894 15.314-3.799 20.867-22.664 9.69-33.839l-31.891-31.891c-13.873-13.873-36.993-13.877-50.869 0l-27.104 27.1c-2.095-8.931-6.945-16.764-14.072-22.708-15.536-12.961-37.396-13.176-53.161-.523-19.276 15.471-21.046 45.179-3.521 62.706 5.056 5.056 11.355 8.753 18.182 10.689.374.229.844.755 1.159 1.252l-26.348 26.348c-14.028 14.029-14.031 36.852-.007 50.876l109.7 109.701c13.878 13.878 36.998 13.871 50.877-.007l25.529-25.529c3.905-3.905 3.905-10.237 0-14.143-3.905-3.905-10.237-3.905-14.143 0l-25.529 25.529c-6.23 6.231-16.365 6.234-22.592.007l-109.698-109.7c-6.227-6.227-6.224-16.361.007-22.592l27.301-27.301c10.821-10.822 3.101-29.741-10.648-33.641-3.638-1.012-6.973-2.959-9.646-5.632-9.242-9.241-8.246-24.826 1.896-32.965 8.25-6.621 19.695-6.504 27.832.284 3.911 3.261 6.518 7.582 7.533 12.466 2.981 14.545 21.541 20.981 32.232 10.289l28.363-28.362c6.146-6.147 16.436-6.148 22.584 0l31.891 31.891c.151.13.022.227-.387.291-8.309 2.082-15.714 6.611-21.413 13.095-13.847 15.747-13.906 39.547-.136 55.367 15.811 18.145 44.526 19.221 61.583 2.163 5.26-5.26 9.042-11.845 10.936-19.044.161-.72.357-.953.59-.698l26.651 26.65c6.14 6.14 6.143 16.416 0 22.557l-17.569 17.569c-3.905 3.905-3.906 10.237 0 14.142 3.907 3.906 10.238 3.905 14.143 0l17.569-17.569c14.017-14.017 14.017-36.824 0-50.841z"/><path d="m230.102 433.714c-3.349-8.04-15.115-8.076-18.47 0-1.635 3.936-.522 8.604 2.7 11.392 3.221 2.787 8.015 3.197 11.667 1.009 4.19-2.51 5.984-7.886 4.103-12.401z"/></g></g></svg>