<svg id="Capa_1" enable-background="new 0 0 511.958 511.958" height="512" viewBox="0 0 511.958 511.958" width="512" xmlns="http://www.w3.org/2000/svg"><g><g><path d="m430.601 37.008c0-14.916-12.092-27.008-27.008-27.008h-362.167c-14.916 0-27.008 12.092-27.008 27.008v42.546h416.183z" fill="#ff7e96"/></g><g><path d="m381.317 402.959-8.405-68.592c-.329-2.639 2.519-4.511 4.82-3.167l52.868 30.97v-282.612h-416.182v296.395c0 14.917 12.089 27.007 27.007 27.007h339.892z" fill="#fff"/></g><g><path d="m372.91 334.369 15.473 126.24c.347 2.828 3.926 3.844 5.707 1.62l17.815-22.246c1.367-1.707 4.001-1.583 5.202.244l39.644 60.321c.976 1.485 2.972 1.898 4.457.922l17.442-11.464 17.442-11.463c1.485-.976 1.898-2.972.922-4.457l-39.644-60.321c-1.201-1.827-.269-4.294 1.839-4.872l27.488-7.528c2.748-.753 3.235-4.441.777-5.881l-109.742-64.284c-2.3-1.346-5.146.524-4.822 3.169z" fill="#838eb1"/></g><g><path d="m92.541 141.035h67.104v66.842h-67.104z" fill="#ffd88e"/></g><g><path d="m505.372 468.594-34.519-52.521 18.485-5.062c11.038-3.023 13.071-18.366 3.189-24.155l-51.927-30.419v-319.429c0-20.406-16.601-37.008-37.007-37.008h-362.167c-20.406 0-37.008 16.602-37.008 37.008v338.944c0 20.405 16.601 37.006 37.007 37.006h145.128c5.523 0 10-4.477 10-10s-4.477-10-10-10h-145.128c-9.377 0-17.007-7.629-17.007-17.006v-286.394h396.182v255.164l-35.304-20.68c-4.982-2.918-10.149-4.685-15.692-1.542-4.608 2.612-7.27 7.772-6.619 13.086l5.607 45.747 1.424 11.626h-95.86c-5.523 0-10 4.477-10 10s4.477 10 10 10h98.312l5.99 48.867c1.393 11.357 16.28 15.595 23.438 6.654l11.981-14.96 34.518 52.521c3.951 6.012 12.276 7.75 18.306 3.787l34.886-22.928c6.09-4.004 7.787-12.215 3.785-18.306zm-480.954-431.586c0-9.378 7.63-17.008 17.008-17.008h362.167c9.378 0 17.008 7.63 17.008 17.008v32.546h-396.183zm436.966 452.381-35.921-54.655c-4.851-7.38-15.834-7.907-21.363-1.002l-7.75 9.677-11.845-96.651 84.021 49.216-11.958 3.275c-8.512 2.331-12.417 12.608-7.555 20.009l35.92 54.654z"/><path d="m92.541 217.876h67.104c5.523 0 10-4.477 10-10v-66.842c0-5.523-4.477-10-10-10h-67.104c-5.523 0-10 4.477-10 10v66.842c0 5.523 4.477 10 10 10zm10-66.841h47.104v46.842h-47.104z"/><path d="m221.726 151.035h130.93c5.523 0 10-4.477 10-10s-4.477-10-10-10h-130.93c-5.523 0-10 4.477-10 10s4.478 10 10 10z"/><path d="m221.726 214.205h130.93c5.523 0 10-4.477 10-10s-4.477-10-10-10h-130.93c-5.523 0-10 4.477-10 10s4.478 10 10 10z"/><path d="m92.541 277.375h260.115c5.523 0 10-4.477 10-10s-4.477-10-10-10h-260.115c-5.523 0-10 4.477-10 10s4.477 10 10 10z"/><path d="m92.541 340.544h216.065c5.523 0 10-4.477 10-10s-4.477-10-10-10h-216.065c-5.523 0-10 4.477-10 10s4.477 10 10 10z"/><path d="m62.891 41.83c-3.532-8.623-16.379-7.792-18.859 1.156-2.397 8.647 7.44 15.886 14.997 11.095 4.041-2.562 5.704-7.833 3.862-12.251z"/><path d="m99.531 41.83c-2.066-5.043-8.037-7.491-13.06-5.41-5.033 2.084-7.495 8.027-5.41 13.06 2.085 5.034 8.032 7.486 13.06 5.41 5.026-2.076 7.505-8.036 5.41-13.06z"/><path d="m136.238 41.83c-2.066-5.043-8.037-7.491-13.06-5.41-5.033 2.084-7.495 8.027-5.41 13.06 2.085 5.034 8.032 7.486 13.06 5.41 5.026-2.076 7.505-8.036 5.41-13.06z"/><path d="m240.011 399.13c-2.096-5.032-8.021-7.484-13.06-5.4-5.035 2.082-7.488 8.017-5.41 13.05 2.079 5.034 8.032 7.496 13.06 5.41 5.048-2.095 7.48-8.012 5.41-13.06z"/></g></g></svg>