<?xml version="1.0" encoding="iso-8859-1"?>
<!-- Generator: Adobe Illustrator 19.0.0, SVG Export Plug-In . SVG Version: 6.00 Build 0)  -->
<svg version="1.1" id="Capa_1" xmlns="http://www.w3.org/2000/svg" xmlns:xlink="http://www.w3.org/1999/xlink" x="0px" y="0px"
	 viewBox="0 0 511.999 511.999" style="enable-background:new 0 0 511.999 511.999;" xml:space="preserve">
<path style="fill:#ED7D5C;" d="M344.176,312.112c-25.553-60.121-99.2-39.079-99.2-39.079s-7.515-65.632-69.139-105.212
	C159.805,103.691,71.628,55.594,71.628,55.594c136.274,16.032,248.5,104.21,248.5,104.21l39.38,106.889
	c3.332,9.044,16.733,6.654,16.733-2.984v48.402H344.176z"/>
<path style="fill:#DC4655;" d="M488.467,119.723h-17.408c-4.252,0-8.331-1.69-11.337-4.697l-1.943-1.944
	c-6.012-6.013-14.166-9.391-22.669-9.391h-58.868v184.371c0,13.282-10.767,24.048-24.048,24.048H214.308
	c-29.766,0-58.313,11.825-79.36,32.873l-20.336,20.337c-5.607,5.607-12.783,9.671-20.652,10.648
	c-20.727,2.573-38.364-13.524-38.364-33.739v25.994c0,22.136,17.945,40.081,40.081,40.081h0.002c10.426,0,20.591-3.258,29.074-9.317
	l24.256-17.326c12.236-8.74,26.896-13.438,41.932-13.438h41.009l75.897,31.844c13.405,5.439,27.735,8.236,42.2,8.236h50.242
	l26.047-18.605c18.245-13.032,26.981-35.674,22.217-57.583l-27.124-124.765c-2.012-9.256,2.947-18.076,10.924-21.716v-17.816
	c0-8.854,7.178-16.032,16.032-16.032h56.114v-16.032C504.499,126.901,497.321,119.723,488.467,119.723z"/>
<path style="fill:#FFB464;" d="M448.553,332.117l-27.124-124.765c-1.306-6.007,0.337-11.821,3.823-16.163
	c-7.74-2.632-15.226-5.901-22.035-10.449c-5.795,9.506-7.68,20.707-5.286,31.72l27.123,124.766
	c2.725,12.534-2.258,25.45-12.695,32.905l-19.775,14.125h-42.536c-11.418,0-22.515-2.153-32.983-6.4l-75.81-31.808l-2.975-1.249
	l-1.488-0.624h-45.851c-20.167,0-39.5,6.196-55.911,17.918l-24.255,17.325c-4.43,3.165-9.65,4.837-15.098,4.837
	c-8.527,0-15.986-4.491-20.258-11.203c-11.676-5.387-19.823-17.121-19.823-30.823v25.994c0,22.136,17.944,40.081,40.081,40.081
	h0.002c10.425,0,20.59-3.257,29.074-9.317l24.256-17.325c12.236-8.74,26.896-13.438,41.933-13.438h41.009l75.897,31.844
	c13.405,5.439,27.735,8.236,42.2,8.236h50.242l26.047-18.605C444.581,376.668,453.316,354.026,448.553,332.117z"/>
<path style="fill:#FFD164;" d="M368.839,129.834l-26.662-21.329c-3.803-3.042-6.017-7.649-6.017-12.519V39.562l24.048,48.097
	l26.863,15.35c11.819,6.754,10.61,24.171-2.029,29.226l0,0C379.603,134.411,373.414,133.494,368.839,129.834z"/>
<g>
	<path style="fill:#BE4150;" d="M254.089,366.171l-3.06-16.131c-1.406-7.415-7.582-12.983-15.102-13.617l0,0
		c-8.649-0.729-16.42,5.251-17.961,13.793c-1.092,6.051-2.048,12.001-2.048,14.001c0,28.451,22.813,51.537,51.142,52.056
		l6.253-16.946c2.594-8.89-1.945-17.78-9.662-21.397C258.783,375.647,255.091,371.452,254.089,366.171z"/>
	<path style="fill:#BE4150;" d="M368.225,376.241v10.765c0,8.505,3.378,16.661,9.392,22.675l13.281,13.282
		c6.014,6.013,9.392,14.169,9.392,22.673v-69.395c0-8.854-7.178-16.032-16.032-16.032l0,0
		C375.403,360.207,368.225,367.385,368.225,376.241z"/>
</g>
<path d="M447.95,127.739c0-4.142-3.358-7.5-7.5-7.5h-0.08c-4.142,0-7.46,3.358-7.46,7.5s3.398,7.5,7.54,7.5
	C444.592,135.239,447.95,131.881,447.95,127.739z"/>
<path d="M488.467,112.223h-20.942l-4.444-4.444c-7.474-7.473-17.409-11.588-27.977-11.588h-44.848l-24.355-13.917l-23.033-46.065
	c-1.556-3.111-5.047-4.746-8.431-3.945c-3.385,0.799-5.777,3.821-5.777,7.299v56.424c0,7.188,3.219,13.886,8.832,18.375
	l26.662,21.329l0,0c1.428,1.143,2.973,2.085,4.587,2.856V263.71c0,0.4,0,0.948-0.934,1.115c-0.929,0.17-1.123-0.347-1.261-0.723
	l-39.38-106.889c-0.48-1.303-1.312-2.447-2.404-3.305c-1.167-0.917-29.096-22.73-74.251-46.813
	c-41.71-22.246-106.45-50.53-178.006-58.948c-3.573-0.416-6.933,1.75-8.023,5.173c-1.09,3.424,0.401,7.139,3.555,8.859
	c0.81,0.442,77.118,42.614,97.721,98.437c-3.137,0.897-5.436,3.78-5.436,7.205c0,4.142,3.358,7.5,7.5,7.5h5.771
	c49.298,32.701,61.275,83.615,63.496,95.851l-3.225,4.515c-2.408,3.371-1.627,8.055,1.744,10.462
	c1.321,0.944,2.844,1.397,4.353,1.397c2.34,0,4.646-1.092,6.109-3.141l3.397-4.756c5.493-1.236,19.569-3.822,35.171-2.119
	c25.53,2.784,43.239,15.406,52.636,37.514c1.213,2.855,3.988,4.568,6.906,4.568c0.979,0,1.973-0.193,2.93-0.6
	c3.812-1.62,5.589-6.024,3.969-9.836c-11.579-27.243-34.162-43.361-65.306-46.611c-8.858-0.924-17.183-0.673-24.098-0.007
	l58.266-81.572l32.531,88.299c2.399,6.513,8.332,10.569,15.007,10.569c0.975,0,1.966-0.087,2.963-0.265
	c7.831-1.396,13.3-7.927,13.3-15.882V140.408c1.383-0.281,2.752-0.675,4.087-1.209c8.542-3.417,14.245-11.242,14.882-20.42
	c0.181-2.608-0.071-5.159-0.69-7.587h33.084c6.561,0,12.73,2.555,17.37,7.195l6.641,6.641c1.406,1.407,3.314,2.197,5.303,2.197
	h24.048c4.705,0,8.532,3.828,8.532,8.533v8.532h-48.613c-12.976,0-23.532,10.557-23.532,23.532v8.532h-0.516
	c-9.125,0-16.548-7.423-16.548-16.548c0-4.142-3.358-7.5-7.5-7.5c-4.142,0-7.5,3.358-7.5,7.5c0,14.777,10.213,27.207,23.95,30.617
	c-3.056,5.614-4.025,12.145-2.638,18.524l27.123,124.766c4.13,19.001-3.425,38.583-19.248,49.885l-14.187,10.134v-17.491
	c0-4.142-3.358-7.5-7.5-7.5c-4.142,0-7.5,3.358-7.5,7.5v38.007l-9.87-9.87c-4.64-4.64-7.195-10.809-7.195-17.37v-10.767
	c0-4.142-3.358-7.5-7.5-7.5c-4.142,0-7.5,3.358-7.5,7.5v10.767c0,4.787,0.853,9.441,2.471,13.798h-13.148
	c-13.562,0-26.812-2.586-39.379-7.686l-33.974-13.787c-0.09-0.125-0.174-0.254-0.266-0.377
	c-4.869-6.491-12.315-10.214-20.429-10.214c-4.142,0-7.5,3.358-7.5,7.5s3.358,7.5,7.5,7.5c3.348,0,6.42,1.536,8.429,4.214
	c2.009,2.679,2.623,6.058,1.686,9.272l-3.291,11.282c-22.153-2.585-39.405-21.457-39.405-44.292c0-3.482,0.401-6.948,1.193-10.3
	c0.952-4.031-1.544-8.071-5.575-9.023c-4.034-0.95-8.071,1.545-9.023,5.575c-0.792,3.355-1.292,6.792-1.493,10.256h-17.579
	c-16.697,0-32.705,5.13-46.292,14.835l-24.255,17.325c-7.254,5.182-15.801,7.92-24.717,7.92c-15.762,0-28.944-11.253-31.94-26.147
	c7.101,5.676,16.092,9.082,25.869,9.082c11.088,0,21.512-4.318,29.352-12.158l21.298-21.298
	c19.78-19.78,46.079-30.673,74.052-30.673h94.298c4.142,0,7.5-3.358,7.5-7.5s-3.358-7.5-7.5-7.5h-94.298
	c-31.98,0-62.045,12.454-84.659,35.067l-21.298,21.298c-5.007,5.007-11.664,7.764-18.745,7.764c-14.618,0-26.51-11.892-26.51-26.509
	v-78.216c0-30.656-24.94-55.597-55.597-55.597c-4.142,0-7.5,3.358-7.5,7.5s3.358,7.5,7.5,7.5c22.385,0,40.597,18.211,40.597,40.597
	v104.209c0,26.236,21.345,47.581,47.583,47.581c12.059,0,23.62-3.705,33.434-10.714l24.255-17.325
	c11.029-7.877,24.021-12.042,37.574-12.042h18.602c4.78,24.335,24.411,43.403,49.034,47.341l-12.212,41.869h-14.415
	c-4.142,0-7.5,3.358-7.5,7.5s3.358,7.5,7.5,7.5h24.047c1.876,0,3.684-0.703,5.067-1.971c3.01-2.758,8.051-6.045,14.974-6.045
	c6.923,0,11.963,3.288,14.973,6.045c1.439,1.319,3.255,1.971,5.065,1.971c2.029,0,4.052-0.819,5.531-2.433
	c2.799-3.054,2.592-7.798-0.462-10.596c-7.027-6.44-15.944-9.987-25.107-9.987c-4.224,0-8.394,0.76-12.353,2.203l16.828-57.694
	c0.388-1.332,0.658-2.675,0.829-4.02l23.685,9.612c14.368,5.831,29.515,8.787,45.02,8.787h23.087l12.46,12.46
	c4.64,4.64,7.195,10.809,7.195,17.37v19.299h-12.542c-4.142,0-7.5,3.358-7.5,7.5s3.358,7.5,7.5,7.5h24.048
	c1.876,0,3.684-0.703,5.067-1.971c3.01-2.758,8.051-6.045,14.974-6.045c6.923,0,11.963,3.288,14.973,6.045
	c1.439,1.319,3.255,1.971,5.065,1.971c2.029,0,4.052-0.819,5.531-2.433c2.799-3.054,2.592-7.798-0.462-10.596
	c-7.027-6.44-15.944-9.987-25.107-9.987c-5.749,0-11.399,1.401-16.548,4.032v-48.785l22.906-16.362
	c20.706-14.79,30.592-40.413,25.187-65.277l-27.124-124.769c-0.767-3.53,0.093-7.167,2.359-9.98
	c2.267-2.812,5.639-4.426,9.252-4.426h40.081c4.142,0,7.5-3.358,7.5-7.5s-3.358-7.5-7.5-7.5h-40.597v-8.532
	c0-4.705,3.828-8.532,8.532-8.532h40.597v0.516c0,4.142,3.358,7.5,7.5,7.5c4.142,0,7.5-3.358,7.5-7.5v-0.516h0.516
	c4.142,0,7.5-3.358,7.5-7.5v-16.032C511.999,122.78,501.442,112.223,488.467,112.223z M198.369,175.32h57.627
	c4.142,0,7.5-3.358,7.5-7.5s-3.358-7.5-7.5-7.5h-74.488c-8.24-26.291-28.052-52.645-58.986-78.423
	c-5.81-4.842-11.49-9.218-16.783-13.081c55.048,11.61,103.873,33.488,137.417,51.356c31,16.511,54.038,32.211,65.077,40.148h-20.172
	c-4.142,0-7.5,3.358-7.5,7.5s3.358,7.5,7.5,7.5h17.493l-56.836,79.57C243.15,235.218,229.703,202.395,198.369,175.32z
	 M387.746,117.739c-0.238,3.437-2.291,6.253-5.49,7.533c-2.926,1.169-6.271,0.675-8.731-1.294l0,0l-26.662-21.329
	c-2.035-1.628-3.202-4.057-3.202-6.663V71.333l9.84,19.68c0.662,1.325,1.701,2.423,2.987,3.158l26.863,15.35
	C386.341,111.23,387.985,114.302,387.746,117.739z"/>
<g>
</g>
<g>
</g>
<g>
</g>
<g>
</g>
<g>
</g>
<g>
</g>
<g>
</g>
<g>
</g>
<g>
</g>
<g>
</g>
<g>
</g>
<g>
</g>
<g>
</g>
<g>
</g>
<g>
</g>
</svg>
