<svg id="Capa_1" enable-background="new 0 0 497 497" height="512" viewBox="0 0 497 497" width="512" xmlns="http://www.w3.org/2000/svg"><g><path d="m398.612 267.874c31.991 0 57.924-25.934 57.924-57.924 0-32.22-26.394-58.573-59.149-57.893-1.1-32.503-25.341-59.135-56.778-63.909-2.123-49.04-42.546-88.148-92.109-88.148-37.62 0-69.973 22.533-84.311 54.836-52.811-1.601-91.41 48.166-77.882 98.46-26.19 5.558-45.843 28.807-45.843 56.654 0 31.991 25.934 57.924 57.924 57.924z" fill="#a6b6c4"/><path d="m298.402 143.82c-9.746-6.764-22.992-4.973-30.704 4.041-34.047 39.797-31.384 87.52-31.219 89.992l45.876-3.067.01.169c-.081-1.571-1.313-31.755 20.245-57.078 8.898-10.453 7.069-26.231-4.208-34.057z" fill="#f9d888"/><path d="m259.417 180.611c-4.064 0-8.102.127-12.114.356-12.385 29.27-10.944 55.084-10.823 56.886l45.876-3.067.01.168c-.074-1.443-1.105-27.013 15.419-50.792-12.44-2.339-25.28-3.551-38.368-3.551z" fill="#fbc072"/><g><path d="m127.527 111.065c0-18.181 2.995-35.663 8.517-51.979-37.385 12.969-60.71 53.415-49.737 94.21-26.19 5.558-45.843 28.807-45.843 56.654 0 31.991 25.934 57.924 57.924 57.924h150.252c-69.676-18.127-121.113-81.459-121.113-156.809z" fill="#95a9ba"/></g><ellipse cx="259.417" cy="353.806" fill="#516a80" rx="153.412" ry="143.194"/><path d="m144.485 334.677c0-40.08 14.048-76.874 37.478-105.746-45.439 23.604-75.958 68.402-75.958 124.874 0 81.456 63.486 138.629 143.674 142.924-66.703-19.405-105.194-84.6-105.194-162.052z" fill="#475c70"/><g fill="#fbc072"><path d="m214.818 343.106 14.483 31.132-45.85 31.132h-60.333v-31.132l31.367-31.132z"/><path d="m335.475 343.106 10.296 31.132-41.653 31.132h-60.334l-14.483-31.132 45.851-31.132z"/><path d="m426.266 378.703c-.031.204-.072.419-.102.623-2.37 14.989-15.275 26.044-30.448 26.044h-31.275l-18.67-31.132 50.037-31.132c18.923 0 33.35 16.889 30.458 35.597z"/></g><path d="m395.808 343.106-31.367 62.264h-60.323l31.357-62.264z" fill="#f9d888"/><path d="m275.152 343.106-31.368 62.264h-60.333l31.367-62.264z" fill="#f9d888"/><path d="m145.17 352.35-22.053 21.888v31.132h33.297c-5.978-16.409-9.782-34.253-11.244-53.02z" fill="#f7ac3e"/><path d="m154.485 343.106-31.367 62.265c-15.173 0-28.077-11.055-30.448-26.044-.031-.204-.072-.419-.102-.623-2.892-18.708 11.535-35.597 30.458-35.597h31.459z" fill="#f9d888"/><g fill="#ff9db0"><ellipse cx="178.131" cy="297.806" rx="29.993" ry="23.885"/><ellipse cx="340.703" cy="297.806" rx="29.993" ry="23.885"/></g><path d="m195.611 282.314c-4.143 0-7.5-3.358-7.5-7.5v-12.261c0-4.142 3.357-7.5 7.5-7.5s7.5 3.358 7.5 7.5v12.261c0 4.142-3.357 7.5-7.5 7.5z" fill="#334151"/><path d="m323.223 282.314c-4.143 0-7.5-3.358-7.5-7.5v-12.261c0-4.142 3.357-7.5 7.5-7.5s7.5 3.358 7.5 7.5v12.261c0 4.142-3.357 7.5-7.5 7.5z" fill="#334151"/><path d="m259.417 289.612c-8.615 0-16.807-3.731-22.476-10.236-2.722-3.123-2.396-7.86.728-10.582 3.122-2.721 7.86-2.396 10.581.727 2.819 3.235 6.89 5.091 11.167 5.091 4.278 0 8.349-1.855 11.168-5.091 2.721-3.123 7.458-3.448 10.581-.727s3.449 7.459.728 10.582c-5.67 6.505-13.862 10.236-22.477 10.236z" fill="#334151"/><path d="m144.64 343.106h-21.614c-18.923 0-33.349 16.889-30.458 35.597.031.204.071.419.102.623 2.37 14.989 15.275 26.044 30.448 26.044l22.794-45.247c-.637-5.587-1.062-11.264-1.272-17.017z" fill="#fbc072"/></g></svg>