<svg height="512pt" viewBox="0 -31 512.0007 512" width="512pt" xmlns="http://www.w3.org/2000/svg"><path d="m256 217.722656v223.390625l-187.636719-103.859375v-223.390625" fill="#ffe681"/><path d="m256 217.722656v223.390625l187.636719-103.859375v-223.390625" fill="#00d2d7"/><path d="m68.363281 113.863281 187.636719-103.863281 187.636719 103.863281-187.636719 103.859375zm0 0" fill="#52607e"/><path d="m287.328125 117.960938c0 14.9375-17.53125 27.050781-39.160156 27.050781-21.621094 0-39.15625-12.113281-39.15625-27.050781 0-14.945313 17.53125-27.054688 39.15625-27.054688 21.628906 0 39.160156 12.109375 39.160156 27.054688zm0 0" fill="#ede6f5"/><path d="m248.167969 155.015625c-27.5625 0-49.15625-16.277344-49.15625-37.054687 0-20.78125 21.59375-37.054688 49.15625-37.054688 27.566406 0 49.160156 16.273438 49.160156 37.054688 0 20.777343-21.59375 37.054687-49.160156 37.054687zm0-54.109375c-17.183594 0-29.15625 8.984375-29.15625 17.054688 0 8.0625 11.972656 17.054687 29.15625 17.054687 17.183593 0 29.160156-8.988281 29.160156-17.054687 0-8.066407-11.976563-17.054688-29.160156-17.054688zm0 0"/><path d="m410.496094 214.070312c0 14.160157-7.972656 25.636719-17.800782 25.636719-9.828124 0-17.796874-11.476562-17.796874-25.636719 0-14.152343 7.96875-25.628906 17.796874-25.628906 9.828126 0 17.800782 11.476563 17.800782 25.628906zm0 0" fill="#ede6f5"/><path d="m392.695312 249.707031c-15.589843 0-27.796874-15.652343-27.796874-35.636719 0-19.976562 12.207031-35.628906 27.796874-35.628906 15.585938 0 27.796876 15.652344 27.796876 35.628906 0 19.984376-12.210938 35.636719-27.796876 35.636719zm0-51.265625c-3.105468 0-7.800781 6.234375-7.800781 15.632813 0 9.394531 4.695313 15.632812 7.800781 15.632812 3.105469 0 7.800782-6.234375 7.800782-15.632812 0-9.398438-4.695313-15.632813-7.800782-15.632813zm0 0"/><path d="m367.78125 283.132812c0 14.152344-7.972656 25.628907-17.800781 25.628907-9.832031 0-17.796875-11.476563-17.796875-25.628907 0-14.15625 7.964844-25.628906 17.796875-25.628906s17.800781 11.472656 17.800781 25.628906zm0 0" fill="#ede6f5"/><path d="m349.980469 318.761719c-15.585938 0-27.796875-15.648438-27.796875-35.628907 0-19.976562 12.210937-35.628906 27.796875-35.628906 15.589843 0 27.800781 15.648438 27.800781 35.628906 0 19.980469-12.210938 35.628907-27.800781 35.628907zm0-51.257813c-3.105469 0-7.796875 6.234375-7.796875 15.628906 0 9.398438 4.691406 15.628907 7.796875 15.628907s7.800781-6.230469 7.800781-15.628907c0-9.394531-4.695312-15.628906-7.800781-15.628906zm0 0"/><path d="m324.347656 352.191406c0 14.15625-7.972656 25.632813-17.800781 25.632813s-17.796875-11.476563-17.796875-25.632813 7.96875-25.628906 17.796875-25.628906c9.832031 0 17.800781 11.476562 17.800781 25.628906zm0 0" fill="#ede6f5"/><path d="m306.550781 387.824219c-15.589843 0-27.800781-15.652344-27.800781-35.632813 0-19.980468 12.210938-35.628906 27.800781-35.628906 15.585938 0 27.796875 15.648438 27.796875 35.628906 0 19.980469-12.210937 35.632813-27.796875 35.632813zm0-51.261719c-3.105469 0-7.800781 6.230469-7.800781 15.628906 0 9.398438 4.691406 15.632813 7.800781 15.632813 3.101563 0 7.796875-6.234375 7.796875-15.632813 0-9.398437-4.695312-15.628906-7.796875-15.628906zm0 0"/><path d="m138.527344 237.566406c0 14.945313-8.285156 27.054688-18.511719 27.054688-10.21875 0-18.511719-12.109375-18.511719-27.054688 0-14.9375 8.292969-27.054687 18.511719-27.054687 10.226563 0 18.511719 12.117187 18.511719 27.054687zm0 0" fill="#ede6f5"/><path d="m120.015625 274.621094c-15.984375 0-28.507813-16.277344-28.507813-37.054688s12.523438-37.054687 28.507813-37.054687c15.988281 0 28.511719 16.277343 28.511719 37.054687s-12.523438 37.054688-28.511719 37.054688zm0-54.109375c-3.386719 0-8.507813 6.804687-8.507813 17.058593 0 10.25 5.121094 17.050782 8.507813 17.050782 3.390625 0 8.515625-6.800782 8.515625-17.050782-.003906-10.253906-5.125-17.058593-8.515625-17.058593zm0 0"/><path d="m194.0625 328.699219c0 14.9375-8.289062 27.054687-18.511719 27.054687-10.222656 0-18.511719-12.117187-18.511719-27.054687 0-14.941407 8.289063-27.054688 18.511719-27.054688 10.222657 0 18.511719 12.109375 18.511719 27.054688zm0 0" fill="#ede6f5"/><path d="m175.550781 365.753906c-15.988281 0-28.511719-16.277344-28.511719-37.054687 0-20.777344 12.523438-37.054688 28.511719-37.054688s28.511719 16.277344 28.511719 37.054688c0 20.777343-12.523438 37.054687-28.511719 37.054687zm0-54.109375c-3.386719 0-8.511719 6.804688-8.511719 17.054688 0 10.253906 5.125 17.054687 8.511719 17.054687 3.390625 0 8.511719-6.800781 8.511719-17.054687 0-10.253907-5.121094-17.054688-8.511719-17.054688zm0 0"/><path d="m485.390625 116.980469c-4.511719 0-8.601563-3.074219-9.710937-7.652344-1.296876-5.367187 2.003906-10.773437 7.371093-12.070313l16.597657-4.011718c5.371093-1.304688 10.773437 2 12.070312 7.371094 1.296875 5.367187-2.003906 10.769531-7.371094 12.066406l-16.597656 4.015625c-.789062.1875-1.582031.28125-2.359375.28125zm0 0"/><path d="m442.761719 58.496094c-1.777344 0-3.574219-.472656-5.203125-1.464844-4.710938-2.878906-6.199219-9.03125-3.320313-13.746094l8.898438-14.574218c2.878906-4.710938 9.03125-6.199219 13.746093-3.320313 4.714844 2.875 6.199219 9.03125 3.320313 13.746094l-8.898437 14.570312c-1.882813 3.085938-5.171876 4.789063-8.542969 4.789063zm0 0"/><path d="m488.757812 197.371094c-1.777343 0-3.574218-.472656-5.203124-1.464844l-14.574219-8.898438c-4.714844-2.878906-6.203125-9.035156-3.324219-13.746093 2.878906-4.714844 9.035156-6.203125 13.746094-3.324219l14.574218 8.898438c4.714844 2.878906 6.203126 9.03125 3.324219 13.746093-1.882812 3.085938-5.175781 4.789063-8.542969 4.789063zm0 0"/><path d="m26.609375 116.980469c-.777344 0-1.570313-.09375-2.359375-.28125l-16.597656-4.015625c-5.367188-1.296875-8.667969-6.699219-7.371094-12.066406 1.296875-5.371094 6.703125-8.671876 12.070312-7.371094l16.597657 4.011718c5.367187 1.296876 8.667969 6.703126 7.371093 12.070313-1.105468 4.578125-5.199218 7.652344-9.710937 7.652344zm0 0"/><path d="m69.238281 58.496094c-3.371093 0-6.660156-1.703125-8.542969-4.789063l-8.898437-14.570312c-2.882813-4.714844-1.394531-10.871094 3.320313-13.746094 4.714843-2.878906 10.867187-1.390625 13.746093 3.320313l8.898438 14.574218c2.878906 4.714844 1.390625 10.867188-3.320313 13.746094-1.625.996094-3.425781 1.464844-5.203125 1.464844zm0 0"/><path d="m23.246094 197.371094c-3.371094 0-6.660156-1.703125-8.546875-4.789063-2.878907-4.714843-1.390625-10.867187 3.324219-13.746093l14.574218-8.898438c4.714844-2.878906 10.867188-1.390625 13.746094 3.324219 2.878906 4.710937 1.390625 10.867187-3.324219 13.746093l-14.574219 8.898438c-1.628906.992188-3.425781 1.464844-5.199218 1.464844zm0 0"/><path d="m224.070312 254.605469c-.648437 0-1.308593-.058594-1.949218-.1875-.640625-.128907-1.269532-.320313-1.871094-.570313-.609375-.25-1.1875-.558594-1.730469-.917968-.550781-.371094-1.058593-.792969-1.519531-1.25-.460938-.460938-.878906-.972657-1.238281-1.523438-.359375-.539062-.671875-1.117188-.921875-1.71875-.25-.609375-.4375-1.238281-.570313-1.871094-.128906-.648437-.199219-1.308594-.199219-1.957031 0-.652344.070313-1.3125.199219-1.953125.132813-.640625.320313-1.269531.570313-1.867188.25-.609374.5625-1.191406.921875-1.730468.359375-.550782.777343-1.058594 1.238281-1.519532.460938-.460937.96875-.882812 1.519531-1.242187.542969-.359375 1.121094-.667969 1.730469-.917969.601562-.25 1.230469-.441406 1.871094-.570312 1.277344-.261719 2.609375-.261719 3.898437 0 .640625.128906 1.269531.320312 1.878907.570312.601562.25 1.183593.558594 1.722656.917969.550781.359375 1.058594.78125 1.519531 1.242187.460937.457032.878906.96875 1.238281 1.519532.363282.539062.671875 1.121094.921875 1.730468.25.597657.441407 1.226563.570313 1.867188s.199218 1.300781.199218 1.953125c0 .648437-.070312 1.308594-.199218 1.957031-.128906.632813-.320313 1.261719-.570313 1.871094-.25.601562-.558593 1.179688-.921875 1.71875-.359375.550781-.777344 1.0625-1.238281 1.523438-1.859375 1.855468-4.441406 2.925781-7.070313 2.925781zm0 0"/><path d="m448.335938 105.035156-187.492188-103.785156c-3.015625-1.667969-6.671875-1.667969-9.6875 0l-187.492188 103.785156c-.347656.183594-5.300781 3.480469-5.300781 8.828125v223.390625c0 3.636719 1.976563 6.984375 5.15625 8.746094l187.550781 103.8125c4.929688 2.785156 9.738282.070312 9.859376 0l187.550781-103.8125c3.179687-1.761719 5.15625-5.109375 5.15625-8.746094v-223.390625c0-.078125 0-5.992187-5.300781-8.828125zm-192.335938-83.605468 166.988281 92.433593-166.988281 92.429688-166.988281-92.429688zm-177.636719 109.398437 167.636719 92.789063v200.53125l-11.929688-6.601563v-134.941406c0-5.523438-4.476562-10-10-10-5.523437 0-10 4.476562-10 10v123.871093l-135.707031-75.117187zm187.636719 293.320313v-200.53125l167.636719-92.789063v200.53125zm0 0"/></svg>