<svg height="512pt" viewBox="0 -26 512 511" width="512pt" xmlns="http://www.w3.org/2000/svg"><path d="m475.191406 241.257812c-.652344 0-1.3125-.070312-1.960937-.199218-.628907-.121094-1.261719-.320313-1.871094-.570313-.597656-.25-1.179687-.558593-1.71875-.921875-.550781-.359375-1.058594-.777344-1.519531-1.238281-1.859375-1.859375-2.933594-4.441406-2.933594-7.070313 0-.648437.070312-1.308593.203125-1.949218.117187-.640625.320313-1.269532.570313-1.871094.25-.609375.546874-1.191406.90625-1.730469.371093-.550781.792968-1.058593 1.25-1.519531.460937-.460938.972656-.878906 1.523437-1.238281.539063-.359375 1.117187-.671875 1.71875-.921875.609375-.25 1.238281-.449219 1.871094-.570313 1.289062-.257812 2.617187-.257812 3.910156 0 .640625.121094 1.269531.320313 1.867187.570313.609376.25 1.191407.5625 1.730469.921875.550781.359375 1.0625.777343 1.519531 1.238281.460938.460938.882813.96875 1.242188 1.519531.359375.539063.667969 1.121094.917969 1.730469.25.601562.441406 1.230469.570312 1.871094.128907.640625.199219 1.300781.199219 1.949218 0 2.628907-1.070312 5.210938-2.929688 7.070313-.460937.460937-.96875.878906-1.519531 1.238281-.539062.363282-1.121093.671875-1.730469.921875-.601562.25-1.230468.449219-1.871093.570313-.636719.128906-1.296875.199218-1.945313.199218zm0 0"/><path d="m435.683594 241.257812h-398.871094c-5.523438 0-10-4.476562-10-10 0-5.523437 4.476562-10 10-10h398.871094c5.523437 0 10 4.476563 10 10 0 5.523438-4.480469 10-10 10zm0 0"/><path d="m174 143.082031h164v46.097657h-164zm0 0" fill="#52607e"/><path d="m174 10.5h164v132.582031h-164zm0 0" fill="#ede6f5"/><path d="m256 38.371094-35.808594 62.035156h71.617188zm0 0" fill="#f05f90"/><path d="m291.808594 110.40625h-71.617188c-3.574218 0-6.875-1.90625-8.660156-5-1.789062-3.09375-1.789062-6.90625-.003906-10l35.8125-62.035156c1.785156-3.097656 5.085937-5.003906 8.660156-5.003906s6.875 1.90625 8.660156 5.003906l35.8125 62.035156c1.785156 3.09375 1.785156 6.90625-.003906 10-1.785156 3.09375-5.085938 5-8.660156 5zm-54.300782-20h36.984376l-18.492188-32.035156zm0 0"/><g fill="#52607e"><path d="m10 403.019531h164v46.097657h-164zm0 0"/><path d="m174 403.019531h164v46.097657h-164zm0 0"/><path d="m338 403.019531h164v46.097657h-164zm0 0"/></g><path d="m10 270.4375h164v132.582031h-164zm0 0" fill="#ede6f5"/><path d="m174 270.4375h164v132.582031h-164zm0 0" fill="#c7cde4"/><path d="m338 270.4375h164v132.582031h-164zm0 0" fill="#ede6f5"/><path d="m174 199.179688h164c5.523438 0 10-4.476563 10-10v-178.679688c0-5.523438-4.476562-10-10-10h-164c-5.523438 0-10 4.476562-10 10v178.679688c0 5.523437 4.476562 10 10 10zm154-20h-144v-26.097657h144zm-144-158.679688h144v112.582031h-144zm0 0"/><path d="m502 260.4375h-492c-5.523438 0-10 4.476562-10 10v178.679688c0 5.523437 4.476562 10 10 10h492c5.523438 0 10-4.476563 10-10v-178.679688c0-5.523438-4.476562-10-10-10zm-10 132.582031h-144v-112.582031h144zm-164 0h-144v-112.582031h144zm-308-112.582031h144v112.582031h-144zm0 132.582031h144v26.097657h-144zm164 0h144v26.097657h-144zm308 26.097657h-144v-26.097657h144zm0 0"/><path d="m256 368.589844 35.808594-62.035156h-71.617188zm0 0" fill="#f05f90"/><path d="m256 378.589844c-3.574219 0-6.875-1.90625-8.660156-5l-35.8125-62.039063c-1.785156-3.09375-1.785156-6.90625.003906-9.996093 1.785156-3.09375 5.085938-5 8.660156-5h71.617188c3.574218 0 6.875 1.90625 8.660156 5s1.785156 6.90625 0 9.996093l-35.808594 62.039063c-1.785156 3.09375-5.085937 5-8.660156 5zm-18.492188-62.035156 18.492188 32.03125 18.492188-32.03125zm0 0"/><path d="m451.953125 336.1875-62.019531-35.816406v71.632812zm0 0" fill="#ffdd52"/><path d="m389.933594 382.003906c-1.730469 0-3.453125-.445312-5-1.339844-3.09375-1.785156-5-5.085937-5-8.660156v-71.632812c0-3.574219 1.90625-6.875 5-8.660156 3.09375-1.785157 6.902344-1.789063 10 0l62.023437 35.816406c3.09375 1.785156 4.996094 5.085937 4.996094 8.660156 0 3.570312-1.902344 6.871094-4.996094 8.660156l-62.023437 35.816406c-1.546875.894532-3.277344 1.339844-5 1.339844zm10-64.3125v36.992188l32.023437-18.496094zm0 0"/><path d="m56.921875 336.1875 62.023437 35.816406v-71.632812zm0 0" fill="#ffdd52"/><path d="m118.945312 382.003906c-1.726562 0-3.453124-.445312-5-1.339844l-62.023437-35.816406c-3.09375-1.785156-5-5.085937-5-8.660156s1.90625-6.875 5-8.660156l62.023437-35.816406c3.09375-1.789063 6.90625-1.789063 10 0 3.09375 1.785156 5 5.085937 5 8.660156v71.632812c0 3.574219-1.90625 6.875-5 8.660156-1.546874.894532-3.273437 1.339844-5 1.339844zm-42.023437-45.816406 32.023437 18.496094v-36.992188zm0 0"/></svg>