<svg id="Capa_1" enable-background="new 0 0 512 512" height="512" viewBox="0 0 512 512" width="512"
     xmlns="http://www.w3.org/2000/svg">
  <g>
    <g>
      <path
        d="m140.781 392.989h-58.474c-12.375 0-22.407-10.032-22.407-22.407v-101.73c0-12.375 10.032-22.407 22.407-22.407h58.475v146.544z"
        fill="#838eb1"/>
    </g>
    <g>
      <path d="m59.9 359.378h-10.24c-21.904 0-39.66-17.756-39.66-39.66 0-21.904 17.756-39.66 39.66-39.66h10.24z"
            fill="#fff"/>
    </g>
    <g>
      <path
        d="m371.219 392.989h58.475c12.375 0 22.407-10.032 22.407-22.407v-101.73c0-12.375-10.032-22.407-22.407-22.407h-58.475z"
        fill="#838eb1"/>
    </g>
    <g>
      <path d="m452.1 359.378h10.24c21.904 0 39.66-17.756 39.66-39.66 0-21.904-17.756-39.66-39.66-39.66h-10.24z"
            fill="#fff"/>
    </g>
    <g>
      <path
        d="m431.656 246.446h-50v-22.42c0-74.802-50.855-125.658-125.657-125.658s-125.658 50.856-125.658 125.658v22.42h-50v-22.42c0-96.858 78.8-175.658 175.657-175.658 96.858 0 175.658 78.8 175.658 175.658z"
        fill="#ffd88e"/>
    </g>
    <g>
      <path
        d="m239.939 452.951-27.095 9.229c-15.959 5.436-32.533-6.428-32.533-23.287 0-10.53 6.701-19.892 16.669-23.287l27.095-9.229c15.959-5.436 32.533 6.428 32.533 23.287-.001 10.529-6.702 19.892-16.669 23.287z"
        fill="#a0c8ff"/>
    </g>
    <g>
      <path
        d="m256.61 291.875c0-7.07 4.52-13.35 11.24-15.59l57.84-19.31c0 14.68-4.67 28.55-12.8 39.94-8.14 11.38-19.75 20.29-33.64 25.05l-22.64 7.75z"
        fill="#a0c8ff"/>
    </g>
    <g>
      <path
        d="m462.34 270.058h-.24v-1.205c0-13.645-8.48-25.338-20.443-30.109v-14.718c0-84.473-59.712-160.462-141.786-180.421-5.365-1.303-10.774 1.987-12.08 7.354-1.305 5.366 1.987 10.774 7.354 12.08 73.306 17.827 126.513 85.596 126.513 160.987v12.42h-30v-12.42c0-77.867-57.787-135.658-135.657-135.658-77.867 0-135.658 57.788-135.658 135.658v12.42h-30v-12.42c0-75.319 50.894-141.234 123.763-160.293 5.344-1.397 8.542-6.862 7.145-12.205-1.397-5.344-6.868-8.539-12.205-7.145-81.666 21.36-138.702 95.232-138.702 179.643v14.719c-11.962 4.771-20.44 16.464-20.44 30.108v1.205h-.24c-27.383 0-49.66 22.277-49.66 49.66 0 27.382 22.277 49.66 49.66 49.66h.24v1.205c0 17.869 14.537 32.407 32.406 32.407h58.475c5.522 0 10-4.477 10-10v-146.544c0-5.523-4.478-10-10-10h-.44v-12.42c0-69.178 46.479-115.658 115.658-115.658 69.178 0 115.657 46.479 115.657 115.658v12.42h-.438c-5.522 0-10 4.477-10 10v146.543c0 5.523 4.478 10 10 10h58.475c17.869 0 32.406-14.538 32.406-32.407v-1.205h.24c27.383 0 49.66-22.277 49.66-49.66-.003-27.382-22.28-49.659-49.663-49.659zm-412.68 79.319c-16.354 0-29.66-13.305-29.66-29.66s13.306-29.66 29.66-29.66h.24v59.32zm81.121 33.612h-48.474c-6.841 0-12.406-5.565-12.406-12.407v-101.729c0-6.841 5.565-12.407 12.406-12.407h48.034.44zm311.319-12.407c0 6.841-5.565 12.407-12.406 12.407h-48.475v-126.543h.438 48.037c6.841 0 12.406 5.566 12.406 12.407zm20.24-21.205h-.24v-59.32h.24c16.354 0 29.66 13.306 29.66 29.66s-13.306 29.66-29.66 29.66z"/>
      <path
        d="m250.45 56.681c7.547 5.036 17.614-2.251 15.175-10.981-2.466-8.825-15.032-9.803-18.766-1.382-1.933 4.358-.424 9.739 3.591 12.363z"/>
      <path
        d="m331.532 248.864c-2.608-1.879-5.96-2.389-9.012-1.373l-57.84 19.305c-10.811 3.607-18.073 13.688-18.073 25.084v106.399c-8.021-3.775-17.119-4.31-25.758-1.368l-27.095 9.229c-14.022 4.777-23.444 17.939-23.444 32.753 0 11.302 5.271 21.557 14.462 28.136 9.059 6.486 20.746 8.211 31.296 4.617l27.095-9.229h-.001c14.023-4.776 23.445-17.938 23.445-32.753v-92.801l15.887-5.441c31.816-10.897 53.192-40.814 53.192-74.444.001-3.216-1.545-6.235-4.154-8.114zm-94.818 194.621-27.095 9.229c-9.344 3.181-19.309-3.97-19.309-13.821 0-6.251 3.976-11.806 9.894-13.821l27.095-9.229c9.345-3.184 19.309 3.976 19.309 13.821-.001 6.251-3.976 11.805-9.894 13.821zm39.3-130.985-9.406 3.222v-23.842c0-2.777 1.77-5.233 4.404-6.112l42.863-14.306c-4.808 18.877-18.83 34.52-37.861 41.038z"/>
    </g>
  </g>
</svg>
