<?xml version="1.0" encoding="iso-8859-1"?>
<!-- Generator: Adobe Illustrator 19.0.0, SVG Export Plug-In . SVG Version: 6.00 Build 0)  -->
<svg version="1.1" id="Capa_1" xmlns="http://www.w3.org/2000/svg" xmlns:xlink="http://www.w3.org/1999/xlink" x="0px" y="0px"
	 viewBox="0 0 512 512" style="enable-background:new 0 0 512 512;" xml:space="preserve">
<g>
	<path style="fill:#867E88;" d="M304.097,47.581v16.032h-104.21c-39.845,0-72.145,32.3-72.145,72.145l0,0H111.71l0,0
		c-18.42,0-32.21-17.549-27.156-35.262C99.872,46.807,149.297,7.5,207.903,7.5h42.831c8.504,0,16.66,3.378,22.673,9.391
		L304.097,47.581z"/>
	<path style="fill:#867E88;" d="M231.952,312.113v8.016h-32.065c-84.117,0-152.306,68.19-152.306,152.306l0,0h-8.016V440.37
		c0-83.347,63.601-151.839,144.917-159.591c9.429-0.899,18.77,2.634,25.467,9.331L231.952,312.113z"/>
	<path style="fill:#867E88;" d="M348.185,352.194h32.065c50.913,0,92.185-41.273,92.185-92.185l0,0
		c0-50.913-41.273-92.185-92.185-92.185h-32.065l-6.025,32.065h2.017c35.417,0,64.129,28.712,64.129,64.129l0,0
		c0,35.417-28.712,64.129-64.129,64.129h-2.229L348.185,352.194z"/>
</g>
<path style="fill:#64DCA0;" d="M348.185,167.823h-146.92c-16.747,0-31.702-12.244-33.292-28.915
	c-1.824-19.124,13.166-35.214,31.914-35.214h136.274v-8.016c0-8.854,7.178-16.032,16.032-16.032h48.097V63.613
	c0-8.854-7.178-16.032-16.032-16.032H198.671c-46.344,0-86.098,36.256-86.946,82.592c-0.864,47.207,37.144,85.747,84.155,85.747
	h146.282c26.336,0,49.301,20.294,50.091,46.618c0.817,27.238-21.02,49.576-48.074,49.576h-144.29
	c-88.544,0-160.323,71.779-160.323,160.323V504.5h8.016c13.282,0,24.048-10.767,24.048-24.048l0,0
	c0-70.835,57.423-128.258,128.258-128.258H345.13c50.758,0,94.299-39.71,95.227-90.46
	C441.301,210.031,399.672,167.823,348.185,167.823z"/>
<path style="fill:#64B4A0;" d="M416.289,261.816c-1.157-38.568-34.411-69.945-74.129-69.945H198.267
	c-16.47,0-31.597-5.474-42.593-15.416c-13.16-11.896-20.229-28.177-19.905-45.843c0.595-32.524,28.812-58.984,62.901-58.984h129.474
	c8.854,0,16.032-7.178,16.032-16.032V47.58H198.669c-46.343,0-86.098,36.256-86.946,82.592
	c-0.864,47.207,37.144,85.747,84.155,85.747H342.16c26.336,0,49.302,20.294,50.091,46.618c0.817,27.238-21.02,49.576-48.074,49.576
	h-144.29c-88.544,0-160.323,71.779-160.323,160.323V504.5h8.016c6.187,0,11.771-2.402,16.032-6.241v-25.823
	c0-75.262,61.012-136.274,136.275-136.274h142.06c19.562,0,37.646-6.714,50.921-18.904
	C408.611,302.802,416.928,283.112,416.289,261.816z"/>
<path d="M380.25,160.323H199.887c-13.545,0-24.564-11.02-24.564-24.565s11.02-24.564,24.564-24.564h112.226
	c0.065,0,0.129-0.008,0.193-0.01c6.637,5.033,14.902,8.026,23.855,8.026h48.097c4.142,0,7.5-3.358,7.5-7.5s-3.358-7.5-7.5-7.5
	h-40.597v-8.532c0-4.705,3.828-8.532,8.532-8.532h48.097c4.142,0,7.5-3.358,7.5-7.5V63.613c0-12.976-10.557-23.532-23.532-23.532
	h-77.055l-28.492-28.492C271.238,4.115,261.303,0,250.734,0h-42.831c-30.106,0-58.623,9.651-82.467,27.91
	c-23.081,17.674-40.161,42.721-48.095,70.528c-3.013,10.561-0.909,21.696,5.773,30.552c5.433,7.201,13.128,11.951,21.74,13.606
	c5.383,45.453,44.148,80.823,91.025,80.823h100.202c4.142,0,7.5-3.358,7.5-7.5s-3.358-7.5-7.5-7.5H195.879
	c-42.276,0-76.669-34.394-76.669-76.669s34.394-76.669,76.669-76.669h140.784c-0.012,0.171-0.026,0.342-0.026,0.516
	c0,4.142,3.398,7.5,7.54,7.5s7.5-3.358,7.5-7.5c0-0.174-0.014-0.345-0.026-0.516h32.607c4.705,0,8.532,3.828,8.532,8.532v8.532
	h-40.597c-12.976,0-23.532,10.557-23.532,23.532v7.357c-9.887-3.178-17.064-12.46-17.064-23.389v-0.012
	c0-4.142-3.358-7.494-7.5-7.494s-7.5,3.364-7.5,7.506c0,5.906,1.31,11.51,3.641,16.548h-100.35
	c-21.816,0-39.564,17.749-39.564,39.565s17.749,39.564,39.564,39.564h148.298c46.696,0,84.686,37.99,84.686,84.686
	c0,46.695-37.99,84.685-84.686,84.685H199.887c-74.857,0-135.758,60.901-135.758,135.758c0,9.125-7.423,16.548-16.548,16.548h-0.516
	v-24.564c0-84.267,68.556-152.823,152.823-152.823h144.29c30.656,0,55.597-24.94,55.597-55.597s-24.941-55.597-55.597-55.597
	h-16.036c-4.142,0-7.5,3.358-7.5,7.5s3.358,7.5,7.5,7.5h16.036c22.385,0,40.597,18.211,40.597,40.597s-18.212,40.597-40.597,40.597
	h-109.12l-19.806-19.806c-8.41-8.411-19.883-12.601-31.483-11.495c-41.356,3.943-79.631,23.068-107.775,53.854
	c-28.329,30.987-43.93,71.19-43.93,113.205v64.13c0,4.142,3.358,7.5,7.5,7.5h8.016c17.396,0,31.548-14.152,31.548-31.548
	c0-66.586,54.172-120.758,120.758-120.758H380.25c54.967,0,99.686-44.719,99.686-99.686
	C479.936,205.042,435.217,160.323,380.25,160.323z M250.734,15c6.562,0,12.73,2.555,17.37,7.195l17.886,17.886h-65.87
	l-15.327-25.018c1.036-0.026,2.069-0.062,3.109-0.062h42.832V15z M95.088,119.956c-3.822-5.065-5.033-11.408-3.323-17.402
	c0.711-2.493,1.527-4.953,2.401-7.393h17.67c-4.29,9.815-6.913,20.519-7.5,31.754C100.718,125.547,97.516,123.172,95.088,119.956z
	 M120.144,80.161h-19.435c7.039-13.501,16.642-25.675,28.197-35.702l15.431,11.524C134.844,62.461,126.627,70.673,120.144,80.161z
	 M158.682,47.975l-17.355-12.961c14.238-9.451,30.082-15.688,46.813-18.421l14.389,23.488h-6.65
	C182.643,40.081,170.056,42.905,158.682,47.975z M132.637,303.106l13.776,10.244c-12.859,4.334-25.023,10.189-36.284,17.345
	l-10.925-5.292C109.378,316.48,120.622,309,132.637,303.106z M185.193,288.245c7.123-0.684,14.217,1.933,19.453,7.168l9.199,9.199
	h-13.958c-12.037,0-23.778,1.285-35.104,3.705l-16.1-11.972C160.384,292.188,172.631,289.443,185.193,288.245z M87.065,337.287
	c0.233-0.255,0.472-0.502,0.706-0.755l8.39,4.064c-14.648,11.549-27.332,25.483-37.462,41.21
	C65.428,365.585,74.973,350.514,87.065,337.287z M451.698,305.383l-11.951-5.976c3.77-8.727,6.325-18.095,7.456-27.891h16.93
	C462.45,283.843,458.107,295.328,451.698,305.383z M447.803,256.516c-0.44-12.712-3.27-24.827-8.057-35.908l11.951-5.976
	c7.779,12.206,12.522,26.519,13.149,41.883h-17.043V256.516z M407.261,179.766c13.557,4.576,25.587,12.484,35.106,22.762
	l-9.593,4.797C426.076,196.609,417.401,187.251,407.261,179.766z M407.261,340.25c10.14-7.485,18.814-16.843,25.513-27.559
	l9.593,4.797C432.849,327.767,420.818,335.674,407.261,340.25z"/>
<g>
</g>
<g>
</g>
<g>
</g>
<g>
</g>
<g>
</g>
<g>
</g>
<g>
</g>
<g>
</g>
<g>
</g>
<g>
</g>
<g>
</g>
<g>
</g>
<g>
</g>
<g>
</g>
<g>
</g>
</svg>
