<svg id="Capa_1" enable-background="new 0 0 497 497" height="512" viewBox="0 0 497 497" width="512" xmlns="http://www.w3.org/2000/svg"><g><path d="m483.407 61.998-48.404-48.404c-18.125-18.125-47.51-18.125-65.635 0l-41.499 41.499 114.039 114.039 41.499-41.499c18.124-18.125 18.124-47.511 0-65.635z" fill="#516a80"/><path d="m61.998 483.407-48.404-48.404c-18.125-18.125-18.125-47.51 0-65.635l41.499-41.499 114.039 114.039-41.499 41.499c-18.125 18.124-47.511 18.124-65.635 0z" fill="#516a80"/><path d="m388.517 95.351c0-34.839 17.091-65.683 43.342-84.616-18.234-15.201-45.38-14.254-62.492 2.858l-41.499 41.499 63.183 63.183c-1.655-7.377-2.534-15.047-2.534-22.924z" fill="#475c70"/><path d="m447.991 141.456-92.447-92.447c-25.239-25.239-66.15-25.239-91.388 0l-44.542 44.541 72.688 111.148 111.148 72.688 44.541-44.541c25.239-25.239 25.239-66.15 0-91.389z" fill="#f9d888"/><path d="m277.386 403.45-44.542 44.541-106.148-77.687-77.687-106.148 44.541-44.542 108.194 75.642z" fill="#ff748f"/><path d="m126.021 287.628c0-14.581 1.256-28.867 3.637-42.769l-36.108-25.244-44.541 44.541 77.687 106.148 2.097 1.535c-2.62-26.329-2.772-54.676-2.772-84.211z" fill="#fd5f7e"/><path d="m232.844 447.991c-25.239 25.239-66.15 25.239-91.388 0l-92.447-92.447c-25.239-25.239-25.239-66.15 0-91.388z" fill="#f9d888"/><path d="m159.359 118.509h178.282v259.983h-178.282z" fill="#ffefe0" transform="matrix(.707 -.707 .707 .707 -102.932 248.5)"/><g><path d="m307.718 280.171c-23.315-6.744-41.262-24.69-48.006-48.005-5.305-18.341-19.422-32.458-37.763-37.763-3.979-1.151-6.271-5.31-5.121-9.289 1.152-3.979 5.313-6.271 9.289-5.121 23.315 6.744 41.261 24.69 48.005 48.005 5.305 18.341 19.422 32.458 37.763 37.763 3.979 1.151 6.272 5.31 5.121 9.289-1.154 3.991-5.32 6.269-9.288 5.121z" fill="#334151"/></g><g><path d="m270.882 317.006c-23.315-6.744-41.261-24.69-48.005-48.005-5.306-18.341-19.423-32.458-37.764-37.763-3.979-1.151-6.271-5.31-5.121-9.289 1.152-3.979 5.311-6.271 9.289-5.121 23.314 6.744 41.261 24.689 48.005 48.004 5.306 18.341 19.423 32.458 37.764 37.764 3.979 1.151 6.271 5.31 5.121 9.289-1.155 3.992-5.321 6.269-9.289 5.121z" fill="#334151"/></g><g><g><g><ellipse cx="288.498" cy="96.732" fill="#ff9db0" rx="23.223" ry="29.162" transform="matrix(.707 -.707 .707 .707 16.1 232.333)"/></g><g><ellipse cx="400.268" cy="208.502" fill="#ff9db0" rx="23.223" ry="29.162" transform="matrix(.707 -.707 .707 .707 -30.198 344.099)"/></g></g></g><g fill="#334151"><path d="m311.019 98.246c-2.929-2.929-2.929-7.678.001-10.607l8.429-8.429c2.931-2.929 7.679-2.929 10.607 0 2.929 2.929 2.929 7.678-.001 10.607l-8.429 8.429c-2.929 2.928-7.677 2.929-10.607 0z"/><path d="m398.753 185.98c-2.929-2.929-2.929-7.678.001-10.607l8.429-8.429c2.93-2.929 7.678-2.929 10.607 0s2.929 7.678-.001 10.607l-8.429 8.429c-2.928 2.929-7.677 2.93-10.607 0z"/><path d="m349.869 147.131c-5.964-5.965-9.054-14.22-8.476-22.65.283-4.133 3.87-7.253 7.995-6.969 4.133.283 7.253 3.863 6.97 7.995-.281 4.104 1.22 8.12 4.118 11.018 2.898 2.899 6.922 4.398 11.017 4.117 4.132-.283 7.712 2.836 7.996 6.969.284 4.132-2.836 7.712-6.969 7.996-8.419.578-16.677-2.502-22.651-8.476z"/></g><path d="m45.304 438.663c0-33.434 12.944-63.84 34.086-86.498l-24.297-24.298-41.499 41.5c-18.125 18.125-18.125 47.51 0 65.635l35.832 35.832c-2.687-10.274-4.122-21.054-4.122-32.171z" fill="#475c70"/><path d="m126.785 341.932-77.776-77.776c-25.239 25.238-25.239 66.15 0 91.388l92.447 92.447c3.705 3.706 7.755 6.851 12.037 9.468-19.117-32.008-24.943-71.616-26.708-115.527z" fill="#fbc072"/><path d="m175.818 137.347-82.268 82.268 34.674 34.674c5.754-43.461 22.592-83.422 47.594-116.942z" fill="#fbe5c8"/></g></svg>