<?xml version="1.0" encoding="iso-8859-1"?>
<!-- Generator: Adobe Illustrator 19.0.0, SVG Export Plug-In . SVG Version: 6.00 Build 0)  -->
<svg version="1.1" id="Capa_1" xmlns="http://www.w3.org/2000/svg" xmlns:xlink="http://www.w3.org/1999/xlink" x="0px" y="0px"
	 viewBox="0 0 512.002 512.002" style="enable-background:new 0 0 512.002 512.002;" xml:space="preserve">
<g>
	<polygon style="fill:#8CB4EB;" points="251.993,213.665 316.122,253.745 316.122,213.665 	"/>
	<polygon style="fill:#8CB4EB;" points="179.848,199.887 243.977,264.016 243.977,215.919 	"/>
	<polygon style="fill:#8CB4EB;" points="147.784,143.774 147.784,231.952 179.848,191.871 	"/>
	<polygon style="fill:#8CB4EB;" points="107.703,151.79 155.8,143.774 171.832,81.831 	"/>
</g>
<path style="fill:#5D5360;" d="M235.961,111.71h112.226l8.016,8.016h40.081V47.581H235.961l-4.008,8.016
	c-46.486,0-84.169,37.684-84.169,84.169s37.683,84.169,84.169,84.169h84.169c22.136,0,40.081,17.945,40.081,40.081
	s-17.944,40.081-40.081,40.081h-56.113c-35.417,0-64.129,28.712-64.129,64.129v32.065c0-35.417,28.712-64.129,64.129-64.129h56.113
	c44.272,0,80.161-35.89,80.161-80.161c0-11.409-2.419-22.24-6.715-32.065c-12.375-28.3-40.584-48.097-73.447-48.097h-80.16
	c-17.709,0-32.065-14.356-32.065-32.065C203.897,126.065,218.252,111.71,235.961,111.71z"/>
<g>
	<path style="fill:#A5CDFF;" d="M316.122,175.839h-80.161c-17.709,0-32.065-14.356-32.065-32.065s14.356-32.065,32.065-32.065
		h112.226l-16.032-16.032h-104.21c-26.521,0-48.097,21.576-48.097,48.097s21.576,48.097,48.097,48.097h88.177
		c35.361,0,64.129,28.768,64.129,64.129s-28.768,64.129-64.129,64.129h-48.097c-37.84,0-68.908,29.302-71.854,66.397
		c2.879-28.29,26.773-50.365,55.822-50.365h64.129c44.272,0,80.161-35.89,80.161-80.161
		C396.284,211.728,360.394,175.839,316.122,175.839z"/>
	<path style="fill:#A5CDFF;" d="M131.751,47.581l31.941,21.294c10.534,7.023,22.912,10.77,35.572,10.77h68.761l-40.081-40.081
		h-96.193V47.581z"/>
</g>
<g>
	<path style="fill:#8CB4EB;" d="M268.026,79.645l-53.362-53.362C202.637,14.256,186.326,7.5,169.317,7.5H43.574l50.483,31.552
		c8.918,5.574,19.222,8.529,29.739,8.529h68.368c7.921,0,15.562,2.932,21.45,8.231l26.481,23.833
		C240.095,79.645,268.026,79.645,268.026,79.645z"/>
	<polygon style="fill:#8CB4EB;" points="171.832,504.5 195.88,416.323 219.929,504.5 195.88,488.468 	"/>
</g>
<path style="fill:#5D5360;" d="M442.372,42.61L340.171,23.532h-24.048v56.113l28.341,28.341
	c7.517,7.517,17.711,11.739,28.341,11.739h23.479v-8.016c0-13.282,10.767-24.048,24.048-24.048h48.097V74.107
	C468.429,58.715,457.492,45.494,442.372,42.61z"/>
<path style="fill:#6F6571;" d="M332.155,49.223l99.149,18.59c7.578,1.421,13.078,8.031,13.078,15.718v4.13h24.047V74.107
	c0-15.392-10.937-28.613-26.056-31.497L340.171,23.532h-8.016L332.155,49.223L332.155,49.223z"/>
<path style="fill:#8CB4EB;" d="M372.235,47.581l-22.673-22.673c-6.013-6.013-14.169-9.391-22.673-9.391h-34.815l20.325,20.325
	c7.517,7.517,17.711,11.739,28.341,11.739H372.235z"/>
<path d="M443.777,35.243l-90.685-17.297c-7.238-6.417-16.449-9.93-26.203-9.93h-66.565c-4.107,0-7.688,3.164-7.811,7.269
	c-0.128,4.247,3.278,7.731,7.497,7.731h28.958l17.064,17.064h-21.66c-4.107,0-7.688,3.164-7.811,7.269
	c-0.128,4.247,3.278,7.731,7.497,7.731h87.96c2.453,0,4.839-1.082,6.275-3.071c2.223-3.08,1.803-7.174-0.755-9.732l-5.435-5.435
	l68.863,13.135c11.567,2.206,19.962,12.354,19.962,24.13v6.054h-40.597c-17.424,0-31.548,14.125-31.548,31.548v0.516h-15.979
	c-8.641,0-16.929-3.433-23.039-9.543l-20.324-20.324c-2.983-2.984-7.854-2.929-10.767,0.165c-2.815,2.99-2.521,7.761,0.384,10.665
	l11.022,11.022h-93.377c-21.605,0-39.784,17.011-40.296,38.61c-0.527,22.25,17.42,40.519,39.553,40.519h79.235
	c40.003,0,73.196,31.943,73.584,71.944c0.392,40.393-32.353,73.378-72.658,73.378h-56.113c-22.024,0-41.757,9.99-54.907,25.678
	c6.208-24.534,28.471-42.742,54.907-42.742h56.113c26.122,0,47.396-21.16,47.579-47.24c0.027-3.885-2.77-7.358-6.63-7.791
	c-4.531-0.509-8.369,3.023-8.369,7.451c0,17.965-14.616,32.581-32.581,32.581h-56.113c-39.56,0-71.629,32.07-71.629,71.629v42.271
	c0,3.2-0.427,6.385-1.268,9.472l-22.516,82.558c-0.975,3.578,0.802,7.428,4.405,8.923c2.352,0.976,5.054,0.583,7.172-0.83
	l19.707-13.138l19.888,13.259c1.261,0.841,2.711,1.26,4.16,1.26c1.54,0,3.079-0.473,4.386-1.416c2.538-1.829,3.673-5.04,2.851-8.058
	l-22.516-82.558c-0.842-3.087-1.269-6.272-1.269-9.472V400.29c0-31.275,25.354-56.629,56.629-56.629h54.996
	c48.262,0,88.307-38.538,88.775-86.797c0.472-48.731-39.033-88.525-87.657-88.525h-79.603c-13.742,0-25.352-11.245-25.119-24.986
	c0.226-13.351,11.157-24.143,24.561-24.143h110.391c7.763,5.213,16.892,8.016,26.453,8.016h79.277c4.106,0,7.687-3.164,7.811-7.268
	c0.128-4.247-3.277-7.732-7.496-7.732h-48.613v-0.516c0-9.14,7.409-16.549,16.549-16.549h32.58v0.202
	c0,4.107,3.164,7.688,7.269,7.811c4.247,0.127,7.731-3.278,7.731-7.497V95.16h0.516c4.142,0,7.5-3.358,7.5-7.5V74.107
	C475.929,55.142,462.407,38.797,443.777,35.243z M340.741,40.081c-8.703,0-16.884-3.389-23.038-9.542l-7.522-7.522h16.708
	c6.562,0,12.73,2.555,17.37,7.195l9.87,9.87L340.741,40.081L340.741,40.081z M200.04,482.227c-1.26-0.84-2.71-1.26-4.16-1.26
	s-2.9,0.42-4.16,1.26l-7.382,4.921l11.542-42.322l11.542,42.322L200.04,482.227z"/>
<path d="M403.864,63.613c0-4.142-3.358-7.5-7.5-7.5h-0.08c-4.142,0-7.46,3.358-7.46,7.5s3.398,7.5,7.54,7.5
	S403.864,67.755,403.864,63.613z"/>
<path d="M188.869,219.018l49.779,50.275c1.437,1.451,3.367,2.224,5.331,2.224c0.96,0,1.929-0.185,2.852-0.564
	c2.812-1.156,4.647-3.896,4.647-6.936v-32.581h14.278l46.207,30.805c1.255,0.837,2.706,1.26,4.161,1.26
	c1.213,0,2.43-0.294,3.539-0.888c2.438-1.305,3.961-3.847,3.961-6.612v-23.694c5.397,1.272,10.408,3.911,14.56,7.734
	c1.441,1.327,3.262,1.982,5.078,1.982c2.023,0,4.041-0.814,5.52-2.42c2.806-3.047,2.61-7.792-0.438-10.597
	c-8.804-8.105-20.247-12.569-32.22-12.569h-80.163c-44.485,0-80.677-36.192-80.677-80.678c0-19.562,6.975-38.176,19.72-52.849
	c7.732,2.786,15.917,4.236,24.261,4.236h36.696c4.142,0,7.5-3.358,7.5-7.5c0-4.143-3.358-7.5-7.5-7.5h-36.696
	c-11.217,0-22.079-3.289-31.413-9.511l-11.33-7.554h31.342c4.142,0,7.5-3.358,7.5-7.5s-3.358-7.5-7.5-7.5h-64.068
	c-9.121,0-18.03-2.555-25.765-7.389L69.725,15h98.471c15.997,0,31.355,5.894,43.246,16.595l59.583,53.625
	c1.433,1.29,3.227,1.926,5.015,1.926c2.052,0,4.096-0.838,5.577-2.483c2.771-3.079,2.521-7.821-0.558-10.592l-59.583-53.625
	C206.827,7.261,187.905,0,168.196,0H43.574c-3.346,0-6.287,2.216-7.209,5.433c-0.922,3.216,0.397,6.654,3.234,8.428l50.482,31.55
	c10.122,6.326,21.78,9.669,33.715,9.669h5.685l30.051,20.035c0.235,0.157,0.476,0.303,0.713,0.457l-58.352,71.475
	c-2.002,2.453-2.249,5.898-0.616,8.611c1.374,2.283,3.83,3.633,6.424,3.633c0.488,0,0.981-0.048,1.472-0.146l31.11-6.222v79.029
	c0,3.189,2.016,6.029,5.026,7.081c0.811,0.283,1.646,0.42,2.472,0.42c2.242,0,4.419-1.007,5.87-2.83l21.518-27.035
	C179.441,213.111,184.025,216.268,188.869,219.018z M292.796,231.436h15.826v10.551L292.796,231.436z M236.477,231.436v14.346
	l-15.343-15.497c4.834,0.755,9.785,1.15,14.827,1.15h0.516V231.436z M141.19,122.632c-0.592,4.319-0.906,8.7-0.906,13.125
	c0,0.623,0.012,1.243,0.024,1.863l-13.57,2.714L141.19,122.632z M155.284,187.14c2.704,4.23,5.734,8.231,9.05,11.975l-9.05,11.371
	V187.14z"/>
<g>
</g>
<g>
</g>
<g>
</g>
<g>
</g>
<g>
</g>
<g>
</g>
<g>
</g>
<g>
</g>
<g>
</g>
<g>
</g>
<g>
</g>
<g>
</g>
<g>
</g>
<g>
</g>
<g>
</g>
</svg>
