<svg id="Capa_1" enable-background="new 0 0 497 497" height="512" viewBox="0 0 497 497" width="512" xmlns="http://www.w3.org/2000/svg"><g><g><path d="m139.731 497c-67.808 0-122.974-55.166-122.974-122.974v-12.012h40.671v12.012c0 45.382 36.921 82.303 82.303 82.303 33.188 0 62.966-19.783 75.866-50.401 16.849-39.993 36.569-72.856 58.611-97.676 32.016-36.052 68.223-54.331 107.613-54.331v40.671c-27.264 0-53.24 13.682-77.203 40.666-19.081 21.486-36.422 50.575-51.542 86.461-19.267 45.732-63.757 75.281-113.345 75.281z" fill="#f9d888"/></g><path d="m337.622 135.672c-34.182-69.617-118.339-118.621-215.898-118.621-16.828 0-33.238 1.454-49.049 4.209l-35.583 58.888 35.583 63.837c88.122-37.895 176.527-25.775 232.778 17.806 17.886 13.858 42.141-5.809 32.169-26.119z" fill="#a6b6c4"/><g><path d="m110.561 92.186c-4.142 0-7.5-3.358-7.5-7.5v-12.201c0-4.142 3.358-7.5 7.5-7.5s7.5 3.358 7.5 7.5v12.201c0 4.142-3.358 7.5-7.5 7.5z" fill="#334151"/></g><g><path d="m237.554 92.186c-4.142 0-7.5-3.358-7.5-7.5v-12.201c0-4.142 3.358-7.5 7.5-7.5s7.5 3.358 7.5 7.5v12.201c0 4.142-3.358 7.5-7.5 7.5z" fill="#334151"/></g><g><path d="m174.057 99.449c-8.583 0-16.746-3.717-22.395-10.199-2.721-3.123-2.396-7.86.727-10.582 3.123-2.721 7.859-2.396 10.582.727 2.799 3.212 6.839 5.054 11.086 5.054s8.287-1.842 11.086-5.054c2.721-3.123 7.459-3.448 10.582-.727s3.448 7.459.727 10.582c-5.648 6.482-13.811 10.199-22.395 10.199z" fill="#334151"/></g><path d="m57.427 374.026v-12.011h-40.671v12.011c0 16.419 3.242 32.092 9.107 46.424h25.55c6.415 0 12.552-1.195 18.217-3.356-7.73-12.538-12.203-27.288-12.203-43.068z" fill="#fbc072"/><path d="m72.675 246.049v123.141c0 11.744-9.517 21.261-21.261 21.261h-28.642c-11.744 0-21.261-9.517-21.261-21.261v-123.141l35.582-26.375z" fill="#516a80"/><path d="m394.678 169.493c-4.46-11.872-21.254-11.872-25.714 0l-13.369 42.705h52.453z" fill="#95a9ba"/><path d="m486.585 287.114c11.872-4.46 11.872-21.254 0-25.714l-42.705-13.369v52.453z" fill="#95a9ba"/><path d="m378.355 294.676c-7.755-9.717-12.551-22.111-12.551-34.928 0-1.615.081-3.221.234-4.815-33.309 4.263-64.138 22.138-91.83 53.319-2.127 2.395-4.225 4.888-6.308 7.431l.241.075c13.21 4.136 24.754 12.192 33.609 22.82.953-1.122 1.907-2.237 2.869-3.32 22.944-25.837 47.735-39.47 73.736-40.582z" fill="#fbc072"/><path d="m368.964 379.022c4.46 11.872 21.254 11.872 25.714 0l13.369-42.705h-52.453z" fill="#879caf"/><path d="m277.057 261.401c-11.872 4.46-11.872 21.254 0 25.714l42.705 13.369v-52.453z" fill="#879caf"/><circle cx="381.821" cy="274.257" fill="#a6b6c4" r="72.705"/><circle cx="381.821" cy="274.257" fill="#95a9ba" r="26.226"/><path d="m72.675 21.261v172.038l-35.582 26.375-35.582-26.376v-172.037c0-11.744 9.517-21.261 21.261-21.261h28.642c11.744 0 21.261 9.517 21.261 21.261z" fill="#edb798"/><path d="m28.219 226.252-26.708 19.796v123.142c0 11.744 9.517 21.261 21.261 21.261h28.643c11.46 0 20.774-9.069 21.218-20.42-23.427-32.947-38.337-79.583-44.414-143.779z" fill="#475c70"/><path d="m25.092 154.061c0-57.887 1.267-111.265 19.953-154.061h-22.273c-11.744 0-21.261 9.517-21.261 21.261v172.038l25.539 18.931c-1.303-18.058-1.958-37.422-1.958-58.169z" fill="#e8a882"/><path d="m1.511 193.298h71.164v52.75h-71.164z" fill="#a6b6c4"/><g fill="#95a9ba"><path d="m335.803 259.748c0-20.57 7.73-39.328 20.431-53.552-27.527 10.354-47.118 36.915-47.118 68.061 0 40.154 32.551 72.705 72.705 72.705 7.987 0 15.665-1.307 22.854-3.686-38.945-6.203-68.872-43.029-68.872-83.528z"/><path d="m25.944 193.298h-24.433v52.75h28.932c-2.141-16.312-3.643-33.87-4.499-52.75z"/></g></g></svg>