<?xml version="1.0" encoding="iso-8859-1"?>
<!-- Generator: Adobe Illustrator 19.0.0, SVG Export Plug-In . SVG Version: 6.00 Build 0)  -->
<svg version="1.1" id="Capa_1" xmlns="http://www.w3.org/2000/svg" xmlns:xlink="http://www.w3.org/1999/xlink" x="0px" y="0px"
	 viewBox="0 0 512 512" style="enable-background:new 0 0 512 512;" xml:space="preserve">
<g>
	<path style="fill:#B67F5F;" d="M376.307,199.888c-35.418,0-64.129,28.712-64.129,64.129v0.125l-0.066-0.125v12.311
		c0,21.24-13.932,39.965-34.276,46.069l-14.913,4.473c-20.33,6.099-38.828,17.148-53.837,32.157l-38.519,38.517
		c-0.438,0.439-8.805,6.286-8.98,6.37c-5.489,2.633-11.671,3.688-17.814,2.789l0,0c-0.049-0.007-0.098-0.005-0.147-0.013
		C66.564,395.025,7.502,328.5,7.502,248.182V232.15L7.5,231.953v40.081c0,97.398,78.957,176.355,176.355,176.355l4.108-0.099l0,0
		c90.703,0,164.232-73.529,164.232-164.232v-36.073c0-17.709,14.356-32.065,32.065-32.065h24.048v-16.032L376.307,199.888
		L376.307,199.888z"/>
	<path style="fill:#B67F5F;" d="M472.437,256.001h-40.081v32.065c0,13.282,10.767,24.048,24.048,24.048l0,0v-8.016
		c0-8.854,7.178-16.032,16.032-16.032h32.063C504.501,270.357,490.145,256.001,472.437,256.001z"/>
	<path style="fill:#B67F5F;" d="M328.146,23.533h-40.081v32.065c0,13.282,10.767,24.048,24.048,24.048l0,0V71.63
		c0-8.854,7.178-16.032,16.032-16.032h32.063C360.211,37.889,345.855,23.533,328.146,23.533z"/>
	<path style="fill:#B67F5F;" d="M440.372,167.824h-40.081v32.065c0,13.282,10.767,24.048,24.048,24.048l0,0v-8.016
		c0-8.854,7.178-16.032,16.032-16.032h32.063C472.436,182.179,458.081,167.824,440.372,167.824z"/>
	<path style="fill:#B67F5F;" d="M392.275,79.646h-40.081v32.065c0,13.282,10.767,24.048,24.048,24.048l0,0v-8.016
		c0-8.854,7.178-16.032,16.032-16.032h32.063C424.34,94.002,409.984,79.646,392.275,79.646z"/>
</g>
<path style="fill:#BAB467;" d="M384.259,199.888c-26.562,0-56.112,21.534-56.112,48.097v35.974
	c0,63.065-34.565,116.973-88.177,138.371v17.431c65.188-21.769,112.225-83.195,112.225-155.704v-20.04
	c0-17.709,14.356-32.064,32.065-32.064h40.082V199.89h-40.083V199.888z"/>
<g>
	<path style="fill:#96735F;" d="M233.25,385.87L233.25,385.87c-10.981,9.138-17.331,22.684-17.331,36.97v33.566l24.859-9.943
		c9.56-3.824,16.702-12.006,19.199-21.995l0,0c2.573-10.293,0.693-21.194-5.18-30.03l-3.989-6.003
		C246.882,382.529,238.701,381.333,233.25,385.87z"/>
	<path style="fill:#96735F;" d="M352.195,448.388l-22.673-22.673c-6.013-6.013-9.391-14.169-9.391-22.673v-58.864
		c0-8.854,7.178-16.032,16.032-16.032l0,0c8.854,0,16.032,7.178,16.032,16.032L352.195,448.388L352.195,448.388z"/>
</g>
<path d="M472.436,248.501h-64.129c-4.142,0-7.5,3.358-7.5,7.5c0,4.142,3.358,7.5,7.5,7.5h40.597v0.516c0,4.142,3.358,7.5,7.5,7.5
	s7.5-3.358,7.5-7.5v-0.516h8.532c10.931,0,20.217,7.176,23.394,17.064h-23.394c-12.545,0-22.827,9.868-23.496,22.25
	c-5.381-2.734-9.085-8.312-9.085-14.75c0-4.142-3.358-7.5-7.5-7.5s-7.5,3.358-7.5,7.5c0,17.396,14.152,31.548,31.548,31.548h32.064
	c0.285,0,0.516,0.231,0.516,0.516c0,4.142,3.358,7.5,7.5,7.5s7.5-3.358,7.5-7.5c0-8.556-6.96-15.516-15.516-15.516h-24.564v-0.516
	c0-4.705,3.828-8.532,8.532-8.532H504.5c4.142,0,7.5-3.358,7.5-7.5C512,266.25,494.251,248.501,472.436,248.501z"/>
<path d="M376.242,160.324c-4.142,0-7.5,3.358-7.5,7.5s3.358,7.5,7.5,7.5h40.597v0.516c0,4.142,3.358,7.5,7.5,7.5s7.5-3.358,7.5-7.5
	v-0.516h8.532c10.931,0,20.217,7.176,23.394,17.064h-23.394c-12.545,0-22.827,9.868-23.496,22.25
	c-5.381-2.734-9.085-8.312-9.085-14.75c0-4.142-3.358-7.5-7.5-7.5s-7.5,3.358-7.5,7.5c0,17.396,14.152,31.548,31.548,31.548h32.064
	c0.285,0,0.516,0.231,0.516,0.516c0,4.142,3.358,7.5,7.5,7.5s7.5-3.358,7.5-7.5c0-8.556-6.96-15.516-15.516-15.516h-24.564v-0.516
	c0-4.705,3.828-8.532,8.532-8.532h32.064c4.142,0,7.5-3.358,7.5-7.5c0-21.816-17.749-39.564-39.564-39.564H376.242z"/>
<path d="M264.016,31.033h40.597v0.516c0,4.142,3.358,7.5,7.5,7.5s7.5-3.358,7.5-7.5v-0.516h8.532
	c10.931,0,20.217,7.176,23.394,17.064h-23.394c-12.545,0-22.827,9.868-23.496,22.25c-5.381-2.734-9.085-8.312-9.085-14.75
	c0-4.142-3.358-7.5-7.5-7.5s-7.5,3.358-7.5,7.5c0,17.396,14.152,31.548,31.548,31.548h56.629v0.516c0,4.142,3.358,7.5,7.5,7.5
	s7.5-3.358,7.5-7.5v-0.516h8.533c10.931,0,20.217,7.176,23.394,17.064h-23.394c-12.546,0-22.828,9.869-23.496,22.25
	c-5.381-2.734-9.085-8.312-9.085-14.75c0-4.142-3.358-7.5-7.5-7.5s-7.5,3.358-7.5,7.5c0,17.396,14.152,31.549,31.548,31.549h32.065
	c0.285,0,0.516,0.231,0.516,0.516c0,4.142,3.358,7.5,7.5,7.5s7.5-3.358,7.5-7.5c0-8.556-6.96-15.516-15.516-15.516h-24.565v-0.517
	c0-4.705,3.828-8.532,8.533-8.532h32.064c4.142,0,7.5-3.358,7.5-7.5c0-21.816-17.749-39.564-39.564-39.564h-72.662v-0.516
	c0-4.705,3.828-8.532,8.532-8.532h32.064c4.142,0,7.5-3.358,7.5-7.5c0-21.816-17.749-39.564-39.564-39.564h-64.129
	c-4.142,0-7.5,3.358-7.5,7.5S259.874,31.033,264.016,31.033z"/>
<path d="M400.29,280.565c-16.005,0-30.443,6.807-40.597,17.668v-34.216c0-13.545,11.02-24.564,24.564-24.564
	c4.142,0,7.5-3.358,7.5-7.5s-3.358-7.5-7.5-7.5c-21.816,0-39.564,17.749-39.564,39.564v166.264l-9.87-9.87
	c-4.64-4.64-7.195-10.809-7.195-17.37V360.21c0-4.142-3.358-7.5-7.5-7.5s-7.5,3.358-7.5,7.5v21.495
	c-12.052,15.516-26.973,28.568-43.836,38.417l2.499-9.997c1.005-4.019-1.438-8.09-5.457-9.095c-4.016-1.004-8.09,1.438-9.095,5.457
	l-4.04,16.158c-1.908,7.63-7.406,13.93-14.708,16.851l-14.573,5.829v-22.488c0-12.095,5.332-23.468,14.628-31.205l10.207-8.494
	c3.184-2.65,3.617-7.379,0.968-10.562c-2.65-3.184-7.379-3.617-10.562-0.968l-10.207,8.495
	c-12.731,10.595-20.033,26.171-20.033,42.734v58.13h-16.548c-4.142,0-7.5,3.358-7.5,7.5s3.358,7.5,7.5,7.5h24.048
	c1.876,0,3.684-0.703,5.067-1.971c3.01-2.758,8.05-6.045,14.973-6.045s11.964,3.288,14.974,6.045
	c1.439,1.319,3.255,1.971,5.065,1.971c2.029,0,4.052-0.819,5.531-2.433c2.799-3.054,2.592-7.798-0.462-10.596
	c-7.027-6.44-15.944-9.987-25.107-9.987c-4.291,0-8.526,0.785-12.54,2.273V461.48l20.144-8.058
	c6.291-2.516,11.738-6.6,15.927-11.726c19.963-8.799,38.044-21.468,53.176-37.151c0.372,10.003,4.435,19.354,11.552,26.47
	l13.282,13.282c4.639,4.64,7.194,10.808,7.194,17.37v19.299h-12.54c-4.142,0-7.5,3.358-7.5,7.5s3.358,7.5,7.5,7.5h24.048
	c1.876,0,3.684-0.703,5.067-1.971c3.01-2.758,8.05-6.045,14.973-6.045s11.964,3.288,14.974,6.045
	c1.439,1.319,3.255,1.971,5.065,1.971c2.029,0,4.052-0.819,5.531-2.433c2.799-3.054,2.592-7.798-0.462-10.596
	c-7.027-6.44-15.944-9.987-25.107-9.987c-5.749,0-11.399,1.401-16.548,4.032V336.163c0-22.385,18.212-40.597,40.597-40.597
	c4.142,0,7.5-3.358,7.5-7.5S404.432,280.565,400.29,280.565z"/>
<path d="M191.355,448.388c0-4.142-3.358-7.5-7.5-7.5c-65.517,0-122.439-37.509-150.421-92.179c2.402,3.209,4.925,6.341,7.567,9.386
	c26.17,30.172,62.219,50.063,101.504,56.011c12.022,1.823,24.499-2.388,33.367-11.258l38.518-38.518
	c14.083-14.083,31.612-24.553,50.689-30.276l14.913-4.474c23.699-7.11,39.621-28.51,39.621-53.252v-12.312
	c0-31.225,25.404-56.629,56.629-56.629c4.142,0,7.5-3.358,7.5-7.5s-3.358-7.5-7.5-7.5h-76.153c-13,0-24.429-6.82-30.921-17.064
	h75.01c4.142,0,7.5-3.358,7.5-7.5s-3.358-7.5-7.5-7.5H263.79c-0.184-1.484-0.29-2.992-0.29-4.524
	c0-20.175,16.414-36.589,36.589-36.589h20.04c4.142,0,7.5-3.358,7.5-7.5s-3.358-7.5-7.5-7.5h-20.04
	c-28.446,0-51.589,23.143-51.589,51.589c0,1.337,0.067,2.659,0.168,3.971c-23.339-3.546-41.281-23.746-41.281-48.06
	c0-26.805,21.808-48.613,48.613-48.613c4.142,0,7.5-3.358,7.5-7.5s-3.358-7.5-7.5-7.5c-35.076,0-63.613,28.537-63.613,63.613
	c0,33.834,26.554,61.575,59.916,63.497c7.685,18.853,26.204,32.18,47.786,32.18h32.368c-16.921,13.114-27.844,33.614-27.844,56.629
	v12.312c0,12.661-5.716,24.118-15.089,31.631l-27.812-6.49c-4.034-0.942-8.067,1.566-9.008,5.6s1.565,8.067,5.6,9.008l8.154,1.903
	l-5.689,1.707c-7.586,2.276-14.948,5.232-22.003,8.786l-37.016-4.271c-4.12-0.478-7.835,2.476-8.311,6.591
	c-0.475,4.115,2.476,7.835,6.591,8.311l18.213,2.101c-5.099,3.827-9.941,8.001-14.459,12.519l-7.599,7.599l-30.849,6.232
	c-4.06,0.82-6.687,4.777-5.866,8.837c0.719,3.559,3.848,6.016,7.344,6.016c0.492,0,0.992-0.049,1.493-0.15l8.701-1.758
	l-11.741,11.741c-5.514,5.514-13.184,8.14-20.516,7.033c-35.762-5.414-68.583-23.529-92.418-51.008
	c-24.073-27.753-37.33-63.297-37.33-100.085v-16.106L15,231.878c-0.041-4.128-3.415-7.465-7.537-7.426
	C3.335,224.473,0,227.825,0,231.953v40.081c0,101.377,82.477,183.854,183.855,183.854
	C187.997,455.888,191.355,452.53,191.355,448.388z"/>
<g>
</g>
<g>
</g>
<g>
</g>
<g>
</g>
<g>
</g>
<g>
</g>
<g>
</g>
<g>
</g>
<g>
</g>
<g>
</g>
<g>
</g>
<g>
</g>
<g>
</g>
<g>
</g>
<g>
</g>
</svg>
