<svg height="512pt" viewBox="0 0 512 512" width="512pt" xmlns="http://www.w3.org/2000/svg"><path d="m501.972656 256c0-135.863281-110.132812-246-245.988281-246-135.851563 0-245.984375 110.136719-245.984375 246s110.132812 246 245.984375 246c135.855469 0 245.988281-110.136719 245.988281-246zm0 0" fill="#52607e"/><path d="m255.984375 512c-68.375 0-132.660156-26.628906-181.007813-74.980469-48.347656-48.351562-74.976562-112.640625-74.976562-181.019531s26.628906-132.667969 74.976562-181.019531c48.347657-48.351563 112.632813-74.980469 181.007813-74.980469 68.378906 0 132.660156 26.628906 181.011719 74.980469 48.347656 48.351562 74.976562 112.640625 74.976562 181.019531s-26.628906 132.667969-74.976562 181.019531c-48.351563 48.351563-112.632813 74.980469-181.011719 74.980469zm0-492c-130.121094 0-235.984375 105.867188-235.984375 236s105.863281 236 235.984375 236c130.125 0 235.988281-105.867188 235.988281-236s-105.863281-236-235.988281-236zm0 0"/><path d="m255.984375 461.945312c-113.550781 0-205.933594-92.386718-205.933594-205.945312s92.382813-205.945312 205.933594-205.945312c113.554687 0 205.9375 92.386718 205.9375 205.945312s-92.382813 205.945312-205.9375 205.945312zm0 0" fill="#ede6f5"/><path d="m255.984375 471.945312c-119.0625 0-215.933594-96.871093-215.933594-215.945312s96.871094-215.945312 215.933594-215.945312c51.21875 0 100.910156 18.324218 139.929687 51.59375 4.203126 3.585937 4.703126 9.898437 1.121094 14.097656-3.582031 4.203125-9.894531 4.707031-14.097656 1.121094-35.402344-30.1875-80.488281-46.8125-126.953125-46.8125-108.035156 0-195.933594 87.902343-195.933594 195.945312s87.898438 195.945312 195.933594 195.945312c108.039063 0 195.9375-87.902343 195.9375-195.945312 0-26.320312-5.15625-51.875-15.320313-75.953125-2.148437-5.089844.234376-10.957031 5.324219-13.105469 5.089844-2.144531 10.953125.238282 13.101563 5.324219 11.207031 26.554687 16.894531 54.726563 16.894531 83.734375 0 119.074219-96.871094 215.945312-215.9375 215.945312zm0 0"/><path d="m423.214844 145.898438c-.648438 0-1.308594-.058594-1.949219-.1875-.640625-.132813-1.269531-.320313-1.871094-.570313-.609375-.25-1.1875-.5625-1.730469-.921875-.546874-.367188-1.058593-.777344-1.519531-1.25-1.859375-1.859375-2.929687-4.429688-2.929687-7.070312 0-.648438.070312-1.296876.199218-1.949219.132813-.640625.320313-1.269531.570313-1.871094.25-.597656.5625-1.1875.921875-1.726563.359375-.550781.78125-1.0625 1.238281-1.523437.460938-.457031.972657-.878906 1.519531-1.238281.542969-.359375 1.121094-.667969 1.730469-.917969.601563-.25 1.230469-.441406 1.871094-.570313 1.289063-.261718 2.621094-.261718 3.910156 0 .628907.128907 1.261719.320313 1.871094.570313.597656.25 1.179687.558594 1.71875.917969.550781.359375 1.058594.78125 1.519531 1.238281.460938.460937.878906.972656 1.25 1.523437.359375.539063.671875 1.128907.921875 1.726563.25.601563.4375 1.230469.570313 1.871094.128906.652343.1875 1.300781.1875 1.949219 0 2.640624-1.070313 5.210937-2.929688 7.070312-.460937.472656-.96875.882812-1.519531 1.25-.539063.359375-1.121094.671875-1.71875.921875-.609375.25-1.242187.4375-1.871094.570313-.648437.128906-1.308593.1875-1.960937.1875zm0 0"/><path d="m223.402344 256c0-35.148438-28.492188-63.640625-63.636719-63.640625s-63.632813 28.492187-63.632813 63.640625 28.488282 63.640625 63.632813 63.640625 63.636719-28.492187 63.636719-63.640625zm0 0" fill="#7ccafd"/><path d="m140.03125 236.265625h39.46875v39.46875h-39.46875zm0 0" fill="#ede6f5"/><path d="m179.5 285.734375h-39.46875c-5.523438 0-10-4.476563-10-10v-39.46875c0-5.523437 4.476562-10 10-10h39.46875c5.523438 0 10 4.476563 10 10v39.46875c0 5.523437-4.476562 10-10 10zm-29.46875-20h19.46875v-19.46875h-19.46875zm0 0"/><path d="m319.621094 159.773438c0-35.144532-28.492188-63.636719-63.636719-63.636719s-63.632813 28.492187-63.632813 63.636719c0 35.148437 28.488282 63.640624 63.632813 63.640624s63.636719-28.492187 63.636719-63.640624zm0 0" fill="#f05f90"/><path d="m255.984375 130.824219-28.105469 48.6875h56.214844zm0 0" fill="#ede6f5"/><path d="m284.09375 189.511719h-56.214844c-3.574218 0-6.875-1.90625-8.660156-5s-1.785156-6.90625 0-10l28.105469-48.6875c1.789062-3.09375 5.089843-5 8.660156-5 3.574219 0 6.875 1.90625 8.660156 5l28.109375 48.6875c1.785156 3.09375 1.785156 6.90625 0 10s-5.089844 5-8.660156 5zm-38.894531-20h21.574219l-10.789063-18.6875zm0 0"/><path d="m319.621094 352.226562c0-35.148437-28.492188-63.640624-63.636719-63.640624s-63.632813 28.492187-63.632813 63.640624c0 35.144532 28.488282 63.636719 63.632813 63.636719s63.636719-28.492187 63.636719-63.636719zm0 0" fill="#ffe681"/><path d="m415.839844 256c0-35.148438-28.488282-63.640625-63.632813-63.640625s-63.636719 28.492187-63.636719 63.640625 28.492188 63.640625 63.636719 63.640625 63.632813-28.492187 63.632813-63.640625zm0 0" fill="#00d2d7"/><path d="m280.269531 327.941406c-3.90625-3.90625-10.238281-3.90625-14.140625 0l-10.144531 10.140625-10.140625-10.140625c-3.902344-3.90625-10.234375-3.90625-14.140625 0-3.90625 3.902344-3.90625 10.234375 0 14.140625l10.140625 10.140625-10.140625 10.144532c-3.90625 3.902343-3.90625 10.234374 0 14.140624 1.953125 1.953126 4.511719 2.929688 7.070313 2.929688 2.558593 0 5.121093-.976562 7.070312-2.929688l10.140625-10.140624 10.144531 10.140624c1.949219 1.953126 4.511719 2.929688 7.070313 2.929688 2.558593 0 5.117187-.976562 7.070312-2.929688 3.90625-3.902343 3.90625-10.234374 0-14.140624l-10.140625-10.140626 10.140625-10.144531c3.90625-3.902343 3.90625-10.234375 0-14.140625zm0 0"/><path d="m352.207031 182.359375c-9.984375 0-19.507812 2-28.199219 5.613281 3.617188-8.691406 5.613282-18.214844 5.613282-28.199218 0-40.605469-33.03125-73.636719-73.636719-73.636719-40.601563 0-73.632813 33.03125-73.632813 73.636719 0 9.984374 1.996094 19.507812 5.613282 28.199218-8.691406-3.613281-18.214844-5.613281-28.199219-5.613281-40.601563 0-73.632813 33.035156-73.632813 73.640625s33.03125 73.640625 73.632813 73.640625c9.984375 0 19.507813-2 28.199219-5.613281-3.617188 8.691406-5.613282 18.214844-5.613282 28.199218 0 40.605469 33.03125 73.636719 73.632813 73.636719 40.605469 0 73.636719-33.03125 73.636719-73.636719 0-9.984374-1.996094-19.507812-5.613282-28.199218 8.691407 3.613281 18.214844 5.613281 28.199219 5.613281 40.601563 0 73.632813-33.035156 73.632813-73.640625s-33.03125-73.640625-73.632813-73.640625zm-96.222656-76.222656c29.578125 0 53.636719 24.0625 53.636719 53.636719 0 29.578124-24.058594 53.640624-53.636719 53.640624-29.574219 0-53.632813-24.0625-53.632813-53.640624 0-29.574219 24.058594-53.636719 53.632813-53.636719zm28.199219 121.664062c-3.617188 8.691407-5.613282 18.214844-5.613282 28.199219s1.996094 19.507812 5.613282 28.199219c-8.691406-3.613281-18.214844-5.613281-28.199219-5.613281-9.980469 0-19.507813 2-28.195313 5.613281 3.613282-8.691407 5.613282-18.214844 5.613282-28.199219s-2-19.507812-5.613282-28.199219c8.6875 3.613281 18.214844 5.613281 28.195313 5.613281 9.984375 0 19.507813-1.996093 28.199219-5.613281zm-178.050782 28.199219c0-29.578125 24.058594-53.640625 53.632813-53.640625s53.636719 24.0625 53.636719 53.640625-24.0625 53.640625-53.636719 53.640625-53.632813-24.0625-53.632813-53.640625zm149.851563 149.863281c-29.574219 0-53.632813-24.0625-53.632813-53.636719 0-29.578124 24.058594-53.640624 53.632813-53.640624s53.636719 24.0625 53.636719 53.640624c0 29.574219-24.058594 53.636719-53.636719 53.636719zm96.222656-96.222656c-29.574219 0-53.636719-24.0625-53.636719-53.640625s24.0625-53.640625 53.636719-53.640625 53.632813 24.0625 53.632813 53.640625-24.058594 53.640625-53.632813 53.640625zm0 0"/><path d="m376.726562 256c0 13.542969-10.976562 24.519531-24.519531 24.519531s-24.523437-10.976562-24.523437-24.519531 10.980468-24.519531 24.523437-24.519531 24.519531 10.976562 24.519531 24.519531zm0 0" fill="#ede6f5"/><path d="m352.207031 290.519531c-19.035156 0-34.519531-15.484375-34.519531-34.519531s15.484375-34.519531 34.519531-34.519531c19.03125 0 34.519531 15.484375 34.519531 34.519531s-15.488281 34.519531-34.519531 34.519531zm0-49.039062c-8.007812 0-14.519531 6.511719-14.519531 14.519531s6.511719 14.519531 14.519531 14.519531c8.003907 0 14.519531-6.511719 14.519531-14.519531s-6.515624-14.519531-14.519531-14.519531zm0 0"/></svg>