<svg id="Capa_1" enable-background="new 0 0 512 512" height="512" viewBox="0 0 512 512" width="512" xmlns="http://www.w3.org/2000/svg"><g><g><path d="m502 487.771v-145.02c-11.62-.62-23.41 2.81-33.15 10.27-17.99 13.78-42.99 13.78-60.98 0-17.799-13.627-43.191-13.626-60.99 0-17.782 13.613-43.21 13.626-60.99 0-17.79-13.635-43.197-13.622-60.99 0-17.788 13.617-43.192 13.617-60.98 0-17.793-13.621-43.199-13.635-60.99 0-17.78 13.626-43.208 13.613-60.99 0-9-6.89-19.74-10.34-30.49-10.34-.48 0-.96.01-1.45.02v145.07z" fill="#a0c8ff"/></g><g><path d="m469.86 280.231s-18.07 55.34-55.89 76.8c-2.1-1.17-4.14-2.51-6.1-4.01-17.799-13.627-43.191-13.626-60.99 0-17.782 13.613-43.21 13.626-60.99 0-17.79-13.635-43.197-13.622-60.99 0-17.788 13.617-43.192 13.617-60.98 0-17.793-13.621-43.199-13.635-60.99 0-11.465 8.787-26.642 12.263-40.78 9.26v-43.612c0-3.855 1.325-7.592 3.752-10.586l18.323-22.603c2.692-3.32 6.738-5.249 11.012-5.249z" fill="#e0a083"/></g><g><path d="m294.616 280.231s57.729-99.531-8.612-221.201c0 0 150.938 93.294 109.286 221.201z" fill="#fff"/></g><g><path d="m291.444 24.231-40.019 256h-135.602s70.917-101.471 175.621-256z" fill="#fff"/></g><g><path d="m502.533 332.766c-14.272-.77-28.399 3.612-39.764 12.316-7.879 6.035-17.471 8.753-26.899 8.171 29.061-26.568 42.828-67.872 43.496-69.918 2.056-6.294-2.854-13.104-9.506-13.104h-61.423c20.604-88.061-42.657-169.039-111.558-216.016l4.446-28.439c.723-4.625-1.859-9.133-6.214-10.849-4.355-1.719-9.318-.181-11.944 3.694-91.606 135.197-158.044 230.776-172.56 251.609h-15.37c-7.324 0-14.169 3.263-18.78 8.951l-18.323 22.604c-3.859 4.76-5.984 10.756-5.984 16.883v29.193c-1.422-.836-2.801-1.763-4.131-2.782-10.597-8.111-23.242-12.399-36.568-12.399-.552 0-1.105.011-1.669.022-5.437.12-9.782 4.562-9.782 9.999v145.069c0 5.522 4.477 10 10 10h200.706c5.523 0 10-4.478 10-10s-4.477-10-10-10h-190.706v-124.181c5.72 1.238 11.1 3.727 15.861 7.372 21.316 16.319 51.778 16.379 73.152-.003 14.243-10.917 34.588-10.899 48.828.003 21.328 16.329 51.808 16.331 73.138 0 14.25-10.909 34.571-10.93 48.828-.004 21.311 16.335 51.85 16.313 73.152.004 14.271-10.925 34.543-10.939 48.834.001 21.245 16.26 51.859 16.298 73.138-.003 5.047-3.865 10.907-6.451 17.069-7.601v124.412h-193.341c-5.523 0-10 4.478-10 10s4.477 10 10 10h203.341c5.523 0 10-4.478 10-10v-145.02c0-5.314-4.159-9.701-9.467-9.984zm-191.062-242.086c51.508 43.925 95.46 108.999 76.369 179.552h-77.447c4.893-11.837 11.119-30.202 14.681-53.461 4.726-30.865 5.282-75.529-13.603-126.091zm-6.035 122.189c-4.173 27.987-12.683 48.427-16.937 57.362h-25.389l27.752-177.529c15.725 39.22 20.636 79.514 14.574 120.167zm-30.759-146.126-31.811 203.488h-107.897c21.27-30.612 72.077-104.004 139.708-203.488zm102.693 265.938c-13.327 0-25.972 4.288-36.569 12.399-14.222 10.891-34.591 10.916-48.828.003-21.3-16.324-51.846-16.312-73.152-.003-14.244 10.908-34.572 10.912-48.822 0-21.314-16.315-51.826-16.341-73.152.004-7.024 5.384-15.843 8.346-24.697 8.261v-34.676c0-1.557.54-3.079 1.52-4.289l18.324-22.604c.796-.981 1.978-1.545 3.244-1.545h359.887c-6.885 15.441-20.567 40.777-41.055 54.937-10.508-7.973-23.485-12.487-36.7-12.487z"/><path d="m352.958 429.507c4.385-3.357 5.219-9.634 1.862-14.019-3.356-4.386-9.633-5.22-14.019-1.862-14.223 10.888-34.589 10.915-48.828.004-21.3-16.325-51.847-16.315-73.152-.004-14.246 10.906-34.571 10.911-48.823 0-4.386-3.357-10.663-2.523-14.019 1.862-3.357 4.385-2.523 10.661 1.862 14.019 21.33 16.328 51.806 16.329 73.138 0 14.251-10.912 34.572-10.931 48.828-.003 21.314 16.332 51.848 16.31 73.151.003z"/><path d="m260.95 479.461c-3.553-2.371-8.329-2.18-11.699.432-3.443 2.668-4.729 7.419-3.169 11.471 1.527 3.964 5.549 6.614 9.807 6.394 4.062-.209 7.662-2.934 8.972-6.775 1.432-4.202-.171-9.079-3.911-11.522z"/></g></g></svg>