<svg id="Capa_1" enable-background="new 0 0 511.926 511.926" height="512" viewBox="0 0 511.926 511.926" width="512" xmlns="http://www.w3.org/2000/svg"><g><g><path d="m425.418 393.371c-6.391 1.951-13.1 5.495-19.231 11.626-6.151 6.142-9.695 12.86-11.636 19.271l-73.58-65.567 38.452-39.396z" fill="#61a2ff"/></g><g><g><path d="m242.245 103.851c-77.083 0-139.574 62.491-139.574 139.574 0 77.093 62.491 139.584 139.574 139.584 29.205 0 56.319-8.969 78.726-24.308l38.452-39.396c14.174-21.839 22.406-47.9 22.406-75.881 0-77.082-62.49-139.573-139.584-139.573z" fill="#838eb1"/></g><g><g><path d="m242.245 103.851c-77.083 0-139.574 62.491-139.574 139.574 0 77.093 62.491 139.584 139.574 139.584 29.205 0 56.319-8.969 78.726-24.308l38.452-39.396c14.174-21.839 22.406-47.9 22.406-75.881 0-77.082-62.49-139.573-139.584-139.573z" fill="#838eb1"/></g><g><g><path d="m359.423 319.306-38.452 39.396c-22.099 15.218-49.854 24.418-78.726 24.308-77.083-.295-139.574-62.491-139.574-139.584 0-77.083 62.491-139.574 139.574-139.574 77.093 0 139.584 62.491 139.584 139.574 0 27.98-8.231 54.041-22.406 75.88z" fill="#ff7e96"/></g></g></g></g><g><path d="m340.939 243.425c0 16.613-4.111 32.271-11.367 46.007-9.705-8.74-24.656-8.431-33.993.906l-4.071 4.071c-9.566 9.566-9.656 25.034-.259 34.699-14.433 8.282-31.166 13.01-49.003 13.01-54.508 0-98.693-44.185-98.693-98.693s44.186-98.693 98.693-98.693 98.693 44.186 98.693 98.693z" fill="#fff"/></g><g><path d="m242.245 11.18c-128.266 0-232.245 103.979-232.245 232.245s103.979 232.245 232.245 232.245c56.787 0 108.806-20.386 149.15-54.219l-29.772-26.527-40.652-36.223c-22.406 15.339-49.521 24.308-78.726 24.308-77.083 0-139.574-62.491-139.574-139.584 0-77.083 62.491-139.574 139.574-139.574 77.093 0 139.584 62.491 139.584 139.574 0 27.98-8.232 54.042-22.406 75.881l36.392 40.839 26.587 29.842c32.569-39.965 52.089-90.989 52.089-146.562 0-128.266-103.979-232.245-232.246-232.245z" fill="#ff7e96"/></g><g><path d="m395.815 360.147c24.666-32.4 39.308-72.853 39.308-116.72 0-106.517-86.35-192.878-192.878-192.878-106.517 0-192.878 86.36-192.878 192.878 0 106.527 86.36 192.877 192.878 192.877 45.081 0 86.539-15.468 119.378-41.378l-40.652-36.224c-22.406 15.339-49.521 24.31-78.726 24.31-77.083 0-139.574-62.491-139.574-139.584 0-77.083 62.491-139.574 139.574-139.574 77.093 0 139.584 62.491 139.584 139.574 0 27.98-8.232 54.04-22.406 75.879z" fill="#fff"/></g><g><path d="m295.576 290.342-4.071 4.071c-9.656 9.656-9.656 25.31 0 34.966l29.466 29.323 38.452-39.396-28.881-28.964c-9.656-9.656-25.311-9.656-34.966 0z" fill="#ffd88e"/></g><g><circle cx="244.622" cy="243.427" fill="#ff7e96" r="39.641"/></g><g><path d="m406.183 404.996c-7.71 7.71-11.322 16.324-12.827 24.078-2.326 11.985 1.727 24.326 10.36 32.959l38.787 38.787 12.865-46.64 46.632-12.857-38.772-38.773c-8.932-8.932-21.792-12.842-34.131-10.136-7.446 1.633-15.589 5.258-22.914 12.582z" fill="#61a2ff"/></g><g><path d="m233.01 54.37c1.616 3.94 5.732 6.466 9.974 6.148 4.253-.318 7.915-3.408 8.958-7.541 2.144-8.496-7.374-15.434-14.833-10.998-4.198 2.497-5.974 7.886-4.099 12.391z"/><path d="m509.071 434.251-38.788-38.788c-8.007-8.007-18.363-12.77-29.165-13.737 28.072-40.375 43.373-88.822 43.373-138.301 0-132.057-110.189-242.245-242.246-242.245s-242.245 110.187-242.245 242.245c0 64.707 25.198 125.54 70.951 171.294 45.754 45.754 106.588 70.952 171.294 70.952 50.55 0 99.839-15.901 140.722-45.075 1.099 10.566 5.832 20.663 13.678 28.509l38.786 38.787c5.329 5.327 14.715 2.826 16.711-4.412l11.356-41.168 41.16-11.349c7.236-1.995 9.743-11.38 4.413-16.712zm-117.92-26.411-55.714-49.642 23.653-24.234 49.911 56.016c-3.525 2.232-6.827 4.883-9.889 7.945-3.069 3.07-5.725 6.38-7.961 9.915zm-33.832-104.807-15.645-15.69c6.072-13.757 9.265-28.791 9.265-43.918 0-59.934-48.76-108.693-108.693-108.693s-108.693 48.76-108.693 108.693 48.76 108.693 108.693 108.693c16.373 0 32.516-3.701 47.139-10.742l15.543 15.468c-19.124 10.604-40.821 16.166-62.683 16.166-71.447 0-129.574-58.132-129.574-129.585 0-71.447 58.127-129.573 129.574-129.573 71.453 0 129.584 58.126 129.584 129.573 0 20.908-4.997 41.278-14.51 59.608zm-36.452 41.457-22.291-22.183c-5.644-5.644-5.648-15.175 0-20.823l4.071-4.071c5.635-5.661 15.161-5.663 20.813-.011l21.915 21.979zm4.187-69.266c-10.153-3.729-21.832-2.451-30.897 3.466l-8.05-8.05c5.148-7.821 8.155-17.171 8.155-27.214 0-27.372-22.269-49.641-49.641-49.641s-49.641 22.269-49.641 49.641 22.269 49.641 49.641 49.641c10.11 0 19.519-3.045 27.371-8.256l7.985 7.986c-6.268 9.477-7.444 21.802-3.122 32.308-10.88 4.608-22.668 7.013-34.612 7.013-48.905 0-88.693-39.788-88.693-88.693s39.788-88.693 88.693-88.693 88.693 39.788 88.693 88.693c.002 10.883-2.014 21.706-5.882 31.799zm-73.232-38.868c-3.906-3.904-10.236-3.904-14.143 0-3.905 3.905-3.905 10.237 0 14.143l19.685 19.686c-3.863 1.847-8.184 2.884-12.743 2.884-16.344 0-29.641-13.297-29.641-29.641s13.297-29.641 29.641-29.641 29.641 13.297 29.641 29.641c0 4.49-1.009 8.748-2.804 12.565zm-9.577 229.315c-59.364 0-115.175-23.117-157.151-65.094s-65.094-97.788-65.094-157.152c0-121.153 101.092-222.245 222.245-222.245s222.246 101.092 222.246 222.245c0 47.052-15.069 93.092-42.643 130.909l-13.198-14.813c23.89-34.123 36.473-74.083 36.473-116.096 0-93.398-66.586-177.088-157.692-197.818-5.391-1.226-10.744 2.147-11.97 7.532-1.225 5.386 2.147 10.744 7.532 11.97 82.107 18.681 142.13 94.13 142.13 178.316 0 36.268-10.398 70.835-30.187 100.705l-23.107-25.934c13.106-22.666 20-48.356 20-74.771 0-82.475-67.104-149.573-149.584-149.573-82.476 0-149.574 67.099-149.574 149.573 0 82.481 67.099 149.585 149.574 149.585 27.654 0 54.372-7.505 77.758-21.777l25.776 22.968c-30.493 21.04-66.044 32.103-103.534 32.103-100.839 0-182.877-82.039-182.877-182.878 0-83.864 59.427-159.055 141.222-178.108 5.379-1.253 8.724-6.629 7.471-12.008s-6.628-8.724-12.008-7.471c-90.627 21.109-156.685 104.568-156.685 197.586 0 111.867 91.01 202.878 202.877 202.878 43.239 0 84.152-13.266 118.858-38.449l14.772 13.163c-38.361 28.872-85.372 44.654-133.63 44.654zm210.464-21.131c-3.394.937-6.046 3.588-6.981 6.981l-8.299 30.083-26.642-26.643c-12.31-12.308-9.115-31.314 2.468-42.895 11.56-11.562 30.589-14.761 42.886-2.462l26.643 26.643z"/></g></g></svg>