<?xml version="1.0" encoding="iso-8859-1"?>
<!-- Generator: Adobe Illustrator 19.0.0, SVG Export Plug-In . SVG Version: 6.00 Build 0)  -->
<svg version="1.1" id="Capa_1" xmlns="http://www.w3.org/2000/svg" xmlns:xlink="http://www.w3.org/1999/xlink" x="0px" y="0px"
	 viewBox="0 0 512.001 512.001" style="enable-background:new 0 0 512.001 512.001;" xml:space="preserve">
<path style="fill:#FFB464;" d="M7.5,23.534c0,0,93.688,60.622,98.198,126.254c71.477,19.706,69.139,84.169,69.139,84.169
	s76.487-13.36,137.276,54.109h40.081l-35.531-59.218c-8.222-13.704-12.566-29.385-12.566-45.367v-63.754L7.5,23.534z"/>
<path style="fill:#BE4150;" d="M223.935,280.05c-61.981,0-112.226,50.245-112.226,112.226c0,22.136-17.945,40.081-40.081,40.081
	s-40.081-17.945-40.081-40.081v-40.081c0-21.77-8.648-42.649-24.042-58.043l-0.006-0.006v98.13c0,39.845,32.3,72.145,72.145,72.145
	s72.145-32.3,72.145-72.145c0-26.563,21.534-48.097,48.097-48.097h24.048l56.117-64.129L223.935,280.05L223.935,280.05z"/>
<path style="fill:#DC4655;" d="M488.468,111.712h-9.41c-4.241,0-8.308-1.685-11.307-4.684l-1.724-1.725
	c-6.241-6.243-14.399-9.623-22.905-9.623h-39.91c-15.589,0-28.919,11.212-31.59,26.571l-19.357,111.302
	c-4.674,26.878-28.002,46.499-55.283,46.498h-32.895c-26.54,0-48.064,21.497-48.097,48.037l-0.011,8.4
	c-0.014,10.956,2.595,19.88,7.517,27.615l32.745,51.456l3.567-3.448c7.813-7.552,12.225-17.952,12.225-28.818v-23.079h15.463
	c10.631,0,20.826,4.223,28.343,11.74l8.584,8.585c7.381,7.38,25.366,11.533,35.788,11.682v40.138l26.642-37.299
	c8.74-12.236,13.438-26.897,13.438-41.934V183.857c0-8.854,7.178-16.032,16.032-16.032h16.032h8.016v-8.016
	c0-8.854,7.178-16.032,16.032-16.032H504.5v-16.032C504.5,118.89,497.322,111.712,488.468,111.712z"/>
<path d="M488.468,104.212h-12.926l-4.444-4.444c-7.474-7.473-17.409-11.588-27.977-11.588h-98.944c-4.142,0-7.5,3.358-7.5,7.5
	s3.358,7.5,7.5,7.5h98.944c6.561,0,12.73,2.555,17.37,7.195l6.641,6.641c1.406,1.407,3.314,2.197,5.303,2.197h16.032
	c4.705,0,8.532,3.828,8.532,8.532v8.533h-40.597c-12.976,0-23.532,10.557-23.532,23.532v0.516h-0.516
	c-9.125,0-16.548-7.423-16.548-16.548c0-4.142-3.358-7.5-7.5-7.5s-7.5,3.358-7.5,7.5c0,5.489,1.412,10.653,3.887,15.153
	c-7.599,5.882-12.229,15.001-12.229,24.928v171.836c0,11.873-3.647,23.254-10.548,32.915l-14.532,20.345V368.23
	c0-4.142-3.358-7.5-7.5-7.5s-7.5,3.358-7.5,7.5v16.539c-8.561-0.097-16.595-3.469-22.659-9.533l-8.586-8.585
	c-8.987-8.987-20.936-13.937-33.645-13.937h-7.962v-16.548c0-4.142-3.358-7.5-7.5-7.5s-7.5,3.358-7.5,7.5v50.848
	c0,6.363-2.409,12.353-6.787,16.941l-27.923-43.878c-4.184-6.574-6.378-14.167-6.347-21.959l0.073-17.952
	c0.017-4.142-3.328-7.513-7.47-7.53c-0.01,0-0.021,0-0.031,0c-4.128,0-7.483,3.338-7.5,7.47l-0.067,16.577h-8.594
	c-30.656,0-55.597,24.941-55.597,55.597c0,35.646-29,64.645-64.646,64.645s-64.645-29-64.645-64.645v-75.761
	c5.91,10.819,9.048,23.008,9.048,35.68v40.081c0,26.236,21.345,47.581,47.581,47.581s47.581-21.345,47.581-47.581
	c0-57.746,46.98-104.726,104.726-104.726h80.161c2.962,0,5.647-1.744,6.852-4.451s0.703-5.869-1.28-8.069
	c-32.947-36.568-68.252-47.792-92.067-50.77c-6.421-0.803-12.357-1.065-17.682-1.008l96.677-79.617v41.279
	c0,16.447,4.607,32.513,13.325,46.46l17.197,27.515c2.881,4.61,7.831,7.298,13.115,7.298c0.936,0,1.882-0.084,2.83-0.257
	c6.294-1.149,11.173-5.946,12.428-12.221l24.899-124.493c0.812-4.062-1.822-8.013-5.884-8.825c-4.065-0.812-8.012,1.822-8.825,5.884
	l-24.899,124.493c-0.037,0.184-0.068,0.343-0.413,0.406c-0.345,0.064-0.43-0.075-0.53-0.234l-17.197-27.515
	c-7.225-11.561-11.044-24.877-11.044-38.51v-52.11l6.161,2.053c3.928,1.311,8.176-0.814,9.487-4.744
	c1.31-3.93-0.814-8.177-4.744-9.487L9.872,16.419c-3.583-1.194-7.495,0.462-9.131,3.866s-0.486,7.494,2.686,9.546
	c0.874,0.566,84.544,55.343,94.056,114.203l-2.665,0.307c-4.115,0.475-7.065,4.195-6.591,8.311c0.441,3.823,3.684,6.641,7.441,6.641
	c0.287,0,0.577-0.016,0.869-0.05l10.588-1.222c53.778,16.558,59.594,60.648,60.166,72.67l-4.236,3.489
	c-3.197,2.633-3.655,7.36-1.021,10.558c1.483,1.801,3.63,2.732,5.794,2.732c1.678,0,3.367-0.561,4.763-1.71l6.173-5.084
	c4.753-1.14,18.998-3.893,37.694-1.439c25.459,3.341,48.803,14.527,69.596,33.313h-62.118c-66.017,0-119.726,53.709-119.726,119.726
	c0,17.965-14.616,32.581-32.581,32.581s-32.581-14.616-32.581-32.581v-40.081c0-22.867-8.528-44.412-24.048-61.046V280.05
	c0-4.142-3.358-7.5-7.5-7.5s-7.5,3.358-7.5,7.5v112.226c0,43.917,35.729,79.645,79.645,79.645s79.646-35.729,79.646-79.646
	c0-22.385,18.211-40.597,40.597-40.597h10.226c1.438,5.794,3.808,11.345,7.055,16.448l29.72,46.703l-26.88,26.88
	c-7.473,7.473-11.588,17.408-11.588,27.977v11.283h-12.542c-4.142,0-7.5,3.358-7.5,7.5s3.358,7.5,7.5,7.5h24.048
	c1.876,0,3.684-0.703,5.067-1.97c3.01-2.758,8.051-6.046,14.974-6.046s11.964,3.288,14.974,6.046c1.44,1.319,3.255,1.97,5.065,1.97
	c2.029,0,4.053-0.819,5.532-2.433c2.798-3.054,2.591-7.798-0.463-10.597c-7.028-6.44-15.945-9.986-25.107-9.986
	c-5.749,0-11.399,1.401-16.548,4.032v-7.3c0-6.562,2.555-12.73,7.195-17.37l37.33-37.33c7.473-7.473,11.588-17.408,11.588-27.976
	V367.71h7.962c8.702,0,16.884,3.389,23.038,9.543l8.586,8.585c8.897,8.897,20.698,13.829,33.266,13.927v81.203h-12.541
	c-4.142,0-7.5,3.358-7.5,7.5s3.358,7.5,7.5,7.5h24.048c1.876,0,3.684-0.703,5.067-1.97c3.01-2.758,8.051-6.046,14.974-6.046
	s11.963,3.288,14.973,6.045c1.439,1.319,3.255,1.971,5.065,1.971c2.029,0,4.052-0.819,5.531-2.433
	c2.799-3.054,2.592-7.798-0.462-10.596c-7.027-6.44-15.944-9.987-25.107-9.987c-5.749,0-11.399,1.401-16.548,4.032v-24.078
	c0-11.872,3.647-23.254,10.548-32.915l16.19-22.667c8.729-12.219,13.342-26.616,13.342-41.633V183.857
	c0-5.641,2.848-10.787,7.442-13.812c5.001,3.333,11,5.28,17.448,5.28h48.097c0.285,0,0.516,0.231,0.516,0.516
	c0,4.142,3.358,7.5,7.5,7.5s7.5-3.358,7.5-7.5c0-8.556-6.96-15.516-15.516-15.516h-32.581v-0.516c0-4.705,3.828-8.532,8.532-8.532
	h48.097c4.142,0,7.5-3.358,7.5-7.5v-16.033C512,114.768,501.443,104.212,488.468,104.212z M173.912,196.188
	c-5.935-13.204-16.973-29.407-37.384-41.559l72.238-8.335c4.115-0.475,7.065-4.195,6.591-8.311
	c-0.475-4.115-4.192-7.067-8.311-6.591l-94.665,10.923c-5.976-38.699-38.551-74.349-65.113-97.619l234.294,78.098l-42.461,4.899
	c-4.115,0.475-7.065,4.195-6.591,8.311c0.441,3.823,3.684,6.641,7.441,6.641c0.287,0,0.577-0.016,0.869-0.05l38.893-4.488
	l-98.704,81.286C179.871,212.883,177.773,204.779,173.912,196.188z"/>
<path d="M455.967,119.728c0-4.142-3.358-7.5-7.5-7.5h-0.08c-4.142,0-7.46,3.358-7.46,7.5s3.398,7.5,7.54,7.5
	S455.967,123.87,455.967,119.728z"/>
<g>
</g>
<g>
</g>
<g>
</g>
<g>
</g>
<g>
</g>
<g>
</g>
<g>
</g>
<g>
</g>
<g>
</g>
<g>
</g>
<g>
</g>
<g>
</g>
<g>
</g>
<g>
</g>
<g>
</g>
</svg>
