<svg height="512pt" viewBox="-97 0 512 512" width="512pt" xmlns="http://www.w3.org/2000/svg"><path d="m276.652344 10h-234.429688c-17.796875 0-32.222656 14.425781-32.222656 32.222656v427.554688c0 17.796875 14.425781 32.222656 32.222656 32.222656h234.429688c17.796875 0 32.222656-14.425781 32.222656-32.222656v-427.554688c0-17.796875-14.425781-32.222656-32.222656-32.222656zm0 0" fill="#52607e"/><path d="m276.652344 512h-234.429688c-23.28125 0-42.222656-18.941406-42.222656-42.222656v-427.554688c0-23.28125 18.941406-42.222656 42.222656-42.222656h234.429688c23.28125 0 42.222656 18.941406 42.222656 42.222656v427.554688c0 23.28125-18.941406 42.222656-42.222656 42.222656zm-234.429688-492c-12.253906 0-22.222656 9.96875-22.222656 22.222656v427.554688c0 12.253906 9.96875 22.222656 22.222656 22.222656h234.429688c12.253906 0 22.222656-9.96875 22.222656-22.222656v-427.554688c0-12.253906-9.96875-22.222656-22.222656-22.222656zm0 0"/><path d="m258.871094 258.992188h-198.871094v-198.992188h198.871094v116.996094" fill="#e7ebed"/><path d="m258.871094 268.992188h-198.871094c-5.523438 0-10-4.476563-10-10v-198.992188c0-5.519531 4.476562-10 10-10h198.871094c5.523437 0 10 4.480469 10 10v116.996094c0 5.519531-4.476563 10-10 10-5.519532 0-10-4.480469-10-10v-106.996094h-178.871094v178.992188h188.871094c5.523437 0 10 4.480468 10 10 0 5.523437-4.476563 10-10 10zm0 0"/><path d="m258.878906 233.988281c-.660156 0-1.3125-.058593-1.960937-.1875-.640625-.128906-1.269531-.320312-1.871094-.570312s-1.179687-.558594-1.730469-.921875c-.539062-.359375-1.050781-.777344-1.519531-1.238282-.460937-.460937-.871094-.980468-1.238281-1.519531-.363282-.550781-.671875-1.128906-.921875-1.730469-.25-.601562-.441407-1.230468-.570313-1.871093-.128906-.648438-.1875-1.300781-.1875-1.949219 0-.660156.058594-1.308594.1875-1.960938.128906-.640624.320313-1.269531.570313-1.867187.25-.601563.558593-1.179687.921875-1.730469.367187-.539062.777344-1.058594 1.238281-1.519531 2.332031-2.320313 5.78125-3.382813 9.03125-2.730469.640625.128906 1.269531.320313 1.867187.570313.601563.25 1.191407.558593 1.730469.917969.550781.359374 1.0625.78125 1.519531 1.242187.460938.460937.882813.976563 1.242188 1.519531.359375.550782.667969 1.128906.917969 1.730469.25.597656.441406 1.226563.570312 1.867187.132813.652344.203125 1.300782.203125 1.960938 0 .648438-.070312 1.300781-.203125 1.949219-.128906.640625-.320312 1.273437-.570312 1.871093-.25.601563-.558594 1.179688-.917969 1.730469-.359375.539063-.78125 1.058594-1.242188 1.519531-.457031.460938-.976562.878907-1.519531 1.238282-.546875.363281-1.128906.671875-1.730469.921875-.597656.25-1.226562.441406-1.867187.570312-.640625.128907-1.300781.1875-1.949219.1875zm0 0"/><path d="m108.894531 311.765625c0 11.96875-9.703125 21.667969-21.667969 21.667969-11.964843 0-21.667968-9.699219-21.667968-21.667969 0-11.964844 9.703125-21.664063 21.667968-21.664063 11.964844 0 21.667969 9.699219 21.667969 21.664063zm0 0" fill="#f05f90"/><path d="m87.226562 343.433594c-17.460937 0-31.667968-14.203125-31.667968-31.664063 0-17.460937 14.207031-31.667969 31.667968-31.667969 17.460938 0 31.667969 14.207032 31.667969 31.667969 0 17.457031-14.207031 31.664063-31.667969 31.664063zm0-43.332032c-6.433593 0-11.667968 5.234376-11.667968 11.667969 0 6.433594 5.234375 11.664063 11.667968 11.664063 6.433594 0 11.667969-5.230469 11.667969-11.664063 0-6.433593-5.234375-11.667969-11.667969-11.667969zm0 0"/><path d="m181.105469 311.765625c0 11.96875-9.703125 21.667969-21.667969 21.667969-11.96875 0-21.667969-9.699219-21.667969-21.667969 0-11.964844 9.699219-21.664063 21.667969-21.664063 11.964844 0 21.667969 9.699219 21.667969 21.664063zm0 0" fill="#e7ebed"/><path d="m159.4375 343.433594c-17.460938 0-31.667969-14.203125-31.667969-31.664063 0-17.460937 14.207031-31.667969 31.667969-31.667969s31.667969 14.207032 31.667969 31.667969c0 17.457031-14.207031 31.664063-31.667969 31.664063zm0-43.332032c-6.433594 0-11.667969 5.234376-11.667969 11.667969 0 6.433594 5.234375 11.664063 11.667969 11.664063s11.667969-5.230469 11.667969-11.664063c0-6.433593-5.234375-11.667969-11.667969-11.667969zm0 0"/><path d="m253.3125 311.765625c0 11.96875-9.699219 21.667969-21.664062 21.667969-11.96875 0-21.667969-9.699219-21.667969-21.667969 0-11.964844 9.699219-21.664063 21.667969-21.664063 11.964843 0 21.664062 9.699219 21.664062 21.664063zm0 0" fill="#ffe681"/><path d="m231.648438 343.433594c-17.460938 0-31.667969-14.203125-31.667969-31.664063 0-17.460937 14.207031-31.667969 31.667969-31.667969 17.460937 0 31.664062 14.207032 31.664062 31.667969 0 17.457031-14.203125 31.664063-31.664062 31.664063zm0-43.332032c-6.433594 0-11.667969 5.234376-11.667969 11.667969 0 6.433594 5.234375 11.664063 11.667969 11.664063 6.433593 0 11.664062-5.230469 11.664062-11.664063 0-6.433593-5.234375-11.667969-11.664062-11.667969zm0 0"/><path d="m138.324219 398.996094h-22.472657v-22.472656h-31.039062v22.472656h-22.472656v31.039062h22.472656v22.472656h31.039062v-22.472656h22.472657zm0 0" fill="#e7ebed"/><path d="m115.851562 462.507812h-31.039062c-5.523438 0-10-4.476562-10-10v-12.472656h-12.472656c-5.523438 0-10-4.476562-10-10v-31.039062c0-5.519532 4.476562-10 10-10h12.472656v-12.472656c0-5.523438 4.476562-10 10-10h31.039062c5.523438 0 10 4.476562 10 10v12.472656h12.472657c5.523437 0 10 4.480468 10 10v31.039062c0 5.523438-4.476563 10-10 10h-12.472657v12.472656c0 5.523438-4.476562 10-10 10zm-21.039062-20h11.039062v-12.472656c0-5.523437 4.476563-10 10-10h12.472657v-11.039062h-12.472657c-5.523437 0-10-4.476563-10-10v-12.472656h-11.039062v12.472656c0 5.523437-4.476562 10-10 10h-12.472656v11.039062h12.472656c5.523438 0 10 4.476563 10 10zm0 0"/><path d="m256.535156 414.515625c0 18.40625-14.921875 33.328125-33.328125 33.328125s-33.324219-14.921875-33.324219-33.328125 14.917969-33.328125 33.324219-33.328125 33.328125 14.921875 33.328125 33.328125zm0 0" fill="#00d2d7"/><path d="m223.207031 457.84375c-23.890625 0-43.324219-19.4375-43.324219-43.328125s19.433594-43.324219 43.324219-43.324219 43.328125 19.433594 43.328125 43.324219-19.4375 43.328125-43.328125 43.328125zm0-66.652344c-12.859375 0-23.324219 10.460938-23.324219 23.324219s10.460938 23.328125 23.324219 23.328125 23.328125-10.464844 23.328125-23.328125-10.464844-23.324219-23.328125-23.324219zm0 0"/></svg>