<?xml version="1.0" encoding="iso-8859-1"?>
<!-- Generator: Adobe Illustrator 19.0.0, SVG Export Plug-In . SVG Version: 6.00 Build 0)  -->
<svg version="1.1" id="Capa_1" xmlns="http://www.w3.org/2000/svg" x="0px" y="0px"
     viewBox="0 0 512.001 512.001" style="enable-background:new 0 0 512.001 512.001;" xml:space="preserve">
<path style="fill:#5D5360;" d="M488.468,159.807h-9.392c-4.252,0-8.329-1.689-11.336-4.696l-1.944-1.945
	c-6.014-6.014-14.169-9.391-22.674-9.391H360.21l44.145,63.065l-20.097,1.068v66.817c0,14.346-12.48,25.501-26.737,23.898
	l-130.354-14.667c-48.448-6.319-91.409,31.402-91.407,80.261v0.815c0,19.086-10.382,37.008-27.436,45.576
	c-6.995,3.513-13.977,5.303-20.667,5.652c-26.321,1.373-56.109-19.563-56.109-45.583v5.317c0,38.026,29.411,69.575,67.343,72.239
	c42.02,2.72,76.948-30.555,76.948-71.989v-0.022c0-18.214,12.155-33.588,28.794-38.453c5.914-1.729,12.262-1.282,18.107,0.666
	l41.276,13.76l56.599,25.155c10.25,4.556,21.342,6.909,32.559,6.909h49.995c3.341,0,6.599-1.044,9.318-2.986l10.968-7.835
	c24.047-17.177,33.244-48.563,22.268-76.001l-27.9-77.356c4.607,2.482,9.808,3.855,15.194,3.855h7.354v-16.032
	c0-8.855,7.178-16.032,16.032-16.032H504.5V175.84C504.5,166.984,497.322,159.807,488.468,159.807z"/>
  <path style="fill:#DC4655;" d="M322.869,254.408c-11.836-9.105-18.772-23.19-18.772-38.123V151.79L7.5,47.581
	c0,0,93.689,60.622,98.198,126.254c71.477,19.706,69.139,84.169,69.139,84.169s82.514-22.117,145.65,37.108
	c11.675,10.952,26.352,18.187,42.262,19.955l34.128,3.792c3.232,0.359,4.892-3.759,2.315-5.742L322.869,254.408z"/>
  <polygon style="fill:#BE4150;" points="31.549,320.129 7.5,296.081 31.549,231.952 55.597,296.081 "/>
  <path style="fill:#4B3F4E;" d="M445.724,297.437l-26.509-73.501c-12.441,0-21.112,12.345-16.89,24.048l20.778,57.613l0.14,0.388
	l0.154,0.384c6.865,17.142,1.123,36.756-13.903,47.489l-2.158,1.542c-2.2-6.23-8.078-10.72-15.061-10.72
	c-8.682,0-15.711,6.914-15.981,15.531h-23.119c-7.852,0-15.616-1.648-22.792-4.837L230.346,315.62
	c-5.928-1.976-11.986-2.978-18.004-2.978c-4.959,0-9.826,0.688-14.467,2.046c-27.195,7.956-46.171,33.357-46.085,61.747
	c0.001,0.242,0.002,0.484,0.002,0.727c0.076,25.874-20.851,46.902-46.725,46.979c-6.069,0.018-11.074,0.034-13.659,0.049
	c-32.999,0.191-59.86-26.526-59.86-59.524v16.379c0,37.167,30.176,67.273,67.343,67.186c42.02,2.72,76.948-30.555,76.948-71.989
	v-0.022c0-18.212,12.153-33.585,28.79-38.452c4.863-1.423,10.008-1.312,14.938-0.166l-19.68,78.72l26.07-15.643
	c9.151-5.491,16.546-13.476,21.318-23.021l13.305-26.611l3.436,1.145l56.599,25.155c10.25,4.556,21.342,6.909,32.559,6.909h23.588
	c1.094,6.544,4.117,12.652,8.869,17.406l13.283,13.284c6.014,6.013,9.392,14.169,9.392,22.673v-54.25
	c1.477-0.501,2.896-1.181,4.18-2.098l10.968-7.835C447.503,356.261,456.699,324.875,445.724,297.437z"/>
  <path d="M488.468,152.307h-12.925l-4.444-4.445c-7.473-7.472-17.409-11.587-27.977-11.587h-106.96c-4.142,0-7.5,3.358-7.5,7.5
	s3.358,7.5,7.5,7.5h20.144l11.945,17.064h-8.041c-4.142,0-7.5,3.358-7.5,7.5s3.358,7.5,7.5,7.5h18.541l11.945,17.064h-6.437
	c-4.142,0-7.5,3.358-7.5,7.5s3.358,7.5,7.5,7.5h17.327c4.99,5.63,11.214,9.947,18.11,12.677c-3.661,6.249-4.254,13.847-1.542,20.627
	l20.606,51.515c9.72,24.302,1.634,51.899-19.664,67.112l-3.289,2.349v-17.49c0-4.142-3.358-7.5-7.5-7.5s-7.5,3.358-7.5,7.5v54.039
	l-9.87-9.87c-4.64-4.64-7.195-10.809-7.195-17.37v-26.799c0-4.142-3.358-7.5-7.5-7.5s-7.5,3.358-7.5,7.5v24.565h-15.569
	c-10.231,0-20.161-2.107-29.511-6.263l-52.731-23.436c1.507-3.608-0.011-7.816-3.561-9.59c-3.705-1.853-8.21-0.351-10.062,3.354
	l-16.741,33.482c-4.142,8.283-10.529,15.18-18.47,19.945l-10.542,6.326l19.657-78.628c1.005-4.018-1.438-8.09-5.457-9.095
	c-4.014-1.004-8.09,1.438-9.095,5.457l-2.599,10.396c-12.008,0.453-23.236,5.334-31.783,13.876
	c-8.989,8.983-13.939,20.93-13.939,33.66c0,35.646-29,64.645-64.646,64.645c-21.373,0-40.359-10.429-52.135-26.462
	c9.27,5.946,20.288,9.398,32.095,9.398c32.866,0,59.605-26.739,59.605-59.605c0-21.131,9.107-41.246,24.985-55.188
	s37.002-20.371,57.955-17.637l92.96,12.125c3.112,0.407,6.15-1.17,7.61-3.95s1.034-6.174-1.068-8.507
	c-33.155-36.798-73.078-45.769-100.73-46.813c-8.045-0.303-15.512,0.021-22.147,0.662l93.774-77.226v48.602
	c0,17.142,8.112,33.615,21.699,44.068l85.438,65.721c3.283,2.525,7.992,1.912,10.518-1.372c2.525-3.283,1.911-7.992-1.372-10.518
	l-21.121-16.247v-57.97c0-4.142-3.358-7.5-7.5-7.5s-7.5,3.358-7.5,7.5v46.431l-49.317-37.936
	c-9.921-7.632-15.845-19.662-15.845-32.179V151.79c0-3.184-2.01-6.021-5.014-7.076L9.987,40.505
	c-3.583-1.258-7.542,0.361-9.218,3.771c-1.674,3.41-0.533,7.534,2.655,9.6c0.874,0.567,84.544,55.417,94.057,114.205l-2.664,0.307
	c-4.115,0.475-7.065,4.195-6.591,8.311c0.441,3.823,3.684,6.641,7.441,6.641c0.287,0,0.577-0.016,0.869-0.05l10.589-1.222
	c53.778,16.559,59.593,60.649,60.165,72.671l-4.236,3.488c-3.198,2.633-3.655,7.36-1.022,10.557c1.483,1.801,3.63,2.732,5.794,2.732
	c1.678,0,3.367-0.561,4.763-1.71l6.348-5.228c5.361-1.587,23.321-6.262,46.011-5.321c27.978,1.163,52.511,10.023,73.199,26.393
	l-70.009-9.131c-25.232-3.291-50.671,4.45-69.792,21.239s-30.088,41.013-30.088,66.46c0,24.595-20.01,44.605-44.605,44.605
	s-44.605-20.01-44.605-44.605v-40.982L60.9,301.384c2.08-2.08,2.752-5.183,1.719-7.937l-24.048-64.129
	c-1.098-2.927-3.896-4.867-7.022-4.867s-5.925,1.939-7.022,4.867l-24.049,64.13c-1.033,2.754-0.36,5.857,1.719,7.937l21.852,21.852
	v53.007c0,43.917,35.729,79.645,79.646,79.645s79.645-35.729,79.645-79.667c0-8.7,3.389-16.878,9.542-23.029
	c4.782-4.78,10.791-7.88,17.314-9.026l-17.584,70.338c-0.435,1.737-0.233,3.572,0.568,5.173l18.621,37.243h-7.906
	c-4.142,0-7.5,3.358-7.5,7.5s3.358,7.5,7.5,7.5h24.048c1.876,0,3.684-0.703,5.067-1.97c3.01-2.758,8.051-6.046,14.974-6.046
	s11.964,3.288,14.974,6.046c1.44,1.319,3.255,1.97,5.065,1.97c2.029,0,4.053-0.819,5.532-2.433
	c2.798-3.054,2.591-7.798-0.463-10.597c-7.028-6.44-15.945-9.986-25.107-9.986c-7.185,0-14.217,2.182-20.307,6.228l-17.975-35.951
	l20.114-12.068c10.392-6.235,18.749-15.26,24.168-26.099L264.24,360.5l53.331,23.703c11.28,5.014,23.259,7.556,35.603,7.556h17.674
	c1.925,5.664,5.129,10.857,9.483,15.21l13.282,13.282c4.64,4.64,7.195,10.809,7.195,17.37v19.299h-12.541
	c-4.142,0-7.5,3.358-7.5,7.5s3.358,7.5,7.5,7.5h24.048c1.876,0,3.684-0.703,5.067-1.971c3.01-2.758,8.051-6.045,14.974-6.045
	s11.963,3.288,14.973,6.045c1.439,1.319,3.255,1.971,5.065,1.971c2.029,0,4.052-0.819,5.531-2.433
	c2.799-3.054,2.592-7.798-0.462-10.596c-7.027-6.44-15.944-9.987-25.107-9.987c-5.749,0-11.399,1.401-16.548,4.032v-64.818
	l12.008-8.577c26.939-19.243,37.167-54.15,24.872-84.889l-20.606-51.515c-1.068-2.671-0.756-5.569,0.857-7.952
	s4.188-3.749,7.065-3.749h48.465c4.142,0,7.5-3.358,7.5-7.5s-3.358-7.5-7.5-7.5h-40.597v-8.532c0-4.705,3.828-8.532,8.532-8.532
	h32.581v0.516c0,4.142,3.358,7.5,7.5,7.5s7.5-3.358,7.5-7.5v-0.516h0.516c4.142,0,7.5-3.358,7.5-7.5V175.84
	C512,162.864,501.444,152.307,488.468,152.307z M173.912,220.235c-5.935-13.205-16.973-29.407-37.384-41.56l72.238-8.335
	c4.115-0.475,7.065-4.195,6.591-8.311c-0.476-4.114-4.194-7.071-8.311-6.591l-94.664,10.923
	c-5.868-38.002-37.391-73.069-63.678-96.354l222.184,78.065l-31.787,3.667c-4.115,0.475-7.065,4.195-6.591,8.311
	c0.441,3.823,3.684,6.641,7.441,6.641c0.287,0,0.577-0.016,0.869-0.05l38.894-4.488l-98.705,81.286
	C179.871,236.93,177.773,228.826,173.912,220.235z M16.218,294.192l15.33-40.88l15.33,40.88l-15.33,15.331L16.218,294.192z
	 M497,184.372h-40.597c-12.976,0-23.532,10.557-23.532,23.532v8.235c-8.962-1.201-17.115-6.09-22.372-13.6l-13.44-19.2h11.247
	c4.142,0,7.5-3.358,7.5-7.5s-3.358-7.5-7.5-7.5H386.56l-11.945-17.064h68.507c6.562,0,12.73,2.555,17.37,7.194l6.641,6.641
	c1.407,1.407,3.314,2.197,5.304,2.197h16.032c4.705,0,8.532,3.828,8.532,8.532v8.533H497z"/>
  <path d="M448.467,160.323h-0.08c-4.142,0-7.46,3.358-7.46,7.5s3.398,7.5,7.54,7.5s7.5-3.358,7.5-7.5S452.61,160.323,448.467,160.323
	z"/>
  <g>
</g>
  <g>
</g>
  <g>
</g>
  <g>
</g>
  <g>
</g>
  <g>
</g>
  <g>
</g>
  <g>
</g>
  <g>
</g>
  <g>
</g>
  <g>
</g>
  <g>
</g>
  <g>
</g>
  <g>
</g>
  <g>
</g>
</svg>
