<svg id="Capa_1" enable-background="new 0 0 512 512" height="512" viewBox="0 0 512 512" width="512" xmlns="http://www.w3.org/2000/svg"><g><g><path d="m258.582 314.455v45.897c0 6.656 7.964 10.081 12.796 5.503l31.376-29.729c5.729-5.729 8.948-13.5 8.948-21.603v-108.441l51.239 94.298c9.09 16.729 11.618 36.245 7.091 54.738l-28.446 116.203v30.679h-107.38v-37.031c0-7.209-1.68-14.254-4.831-20.604-7.202-14.513-13.875-29.282-19.059-44.632l-.092-.273c-3.667-10.858-5.537-22.241-5.537-33.701v-51.303c0-14.883 12.065-26.948 26.948-26.948 14.62.045 26.947 12.253 26.947 26.947z" fill="#ffdad5"/></g><g><path d="m139.762 370.71c0 47.46 38.47 85.93 85.93 85.93 2.59 0 5.16-.11 7.69-.34-.79-4.15-2.14-8.16-4.01-11.93-7.2-14.52-13.87-29.29-19.06-44.64l-.09-.27c-3.14-9.29-4.96-18.97-5.42-28.75-.08-1.65-.12-3.3-.12-4.95v-51.3c0-14.89 12.07-26.95 26.95-26.95 14.62.04 26.95 12.25 26.95 26.95v45.89c0 6.66 7.96 10.08 12.8 5.51l31.37-29.73c5.21-5.21 8.34-12.11 8.86-19.41v-286.23c0-11.32-9.17-20.49-20.49-20.49h-130.87c-11.32 0-20.49 9.17-20.49 20.49z" fill="#ccd3dd"/></g><g><circle cx="225.687" cy="242.574" fill="#838eb1" r="45.172"/></g><g><path d="m258.582 314.455v45.897c0 6.656 7.964 10.081 12.796 5.503l31.376-29.729c5.729-5.729 8.948-13.5 8.948-21.603v-108.441l51.239 94.298c9.09 16.729 11.618 36.245 7.091 54.738l-28.446 116.203v30.679h-107.38v-37.031c0-7.209-1.68-14.254-4.831-20.604-7.202-14.513-13.875-29.282-19.059-44.632l-.092-.273c-3.667-10.858-5.537-22.241-5.537-33.701v-51.303c0-14.883 12.065-26.948 26.948-26.948 14.62.045 26.947 12.253 26.947 26.947z" fill="#ffdad5"/></g><g><path d="m233.382 456.3c-2.53.23-5.1.34-7.69.34-47.46 0-85.93-38.47-85.93-85.93h65.04c.46 9.78 2.28 19.46 5.42 28.75l.09.27c5.19 15.35 11.86 30.12 19.06 44.64 1.87 3.77 3.22 7.78 4.01 11.93z" fill="#838eb1"/></g><g><path d="m229.515 251.81c8.156-3.4 8.01-15.385-.231-18.558-3.966-1.527-8.633-.327-11.327 2.978-2.642 3.242-2.988 7.888-.843 11.478 2.519 4.215 7.871 5.958 12.401 4.102z"/><path d="m205.451 90.146h-20.362c-5.523 0-10 4.477-10 10s4.477 10 10 10h20.362c5.523 0 10-4.477 10-10s-4.477-10-10-10z"/><path d="m266.314 110.146c5.523 0 10-4.477 10-10s-4.477-10-10-10h-19.362c-5.523 0-10 4.477-10 10s4.477 10 10 10z"/><path d="m371.728 295.606-50.116-92.232v-172.884c0-16.812-13.678-30.49-30.49-30.49h-130.87c-16.812 0-30.49 13.678-30.49 30.49v117.959c0 5.523 4.477 10 10 10s10-4.477 10-10v-117.959c0-5.784 4.706-10.49 10.49-10.49h130.87c5.784 0 10.49 4.706 10.49 10.49v285.839c-.41 4.719-2.513 9.272-5.844 12.641l-27.186 25.758v-40.268c.001-9.996-4.195-19.711-11.404-26.622 14.3-9.979 23.682-26.542 23.682-45.264 0-30.422-24.75-55.172-55.172-55.172s-55.172 24.75-55.172 55.172c0 21.952 12.889 40.946 31.495 49.823-4.601 6.161-7.328 13.799-7.328 22.062v46.25h-44.92v-124.312c0-5.523-4.477-10-10-10s-10 4.477-10 10v134.313c0 52.399 42.231 95.113 94.444 95.911v35.379c0 5.523 4.477 10 10 10h107.381c5.523 0 10-4.477 10-10v-29.472l28.159-115.031c5.129-20.955 2.281-42.935-8.019-61.891zm-181.213-53.032c0-19.394 15.778-35.172 35.172-35.172s35.172 15.778 35.172 35.172-15.778 35.172-35.172 35.172-35.172-15.778-35.172-35.172zm25.221 203.413c-33.568-4.417-60.862-31.728-65.301-65.277h45.223c3.007 23.027 13.419 44.999 23.548 65.656-1.164-.099-2.321-.228-3.47-.379zm144.583-93.246-28.446 116.203c-.19.778-.287 1.577-.287 2.378v20.678h-87.381v-27.031c0-8.64-2.031-17.309-5.873-25.049-3.434-6.919-13.457-29.541-15.273-34.306-4.917-12.904-8.374-25.944-8.374-39.856v-51.303c0-9.209 7.701-16.946 16.919-16.946 9.078.025 16.978 7.85 16.978 16.95v45.89c-.002 15.225 18.671 23.16 29.679 12.768l31.37-29.73c7.771-7.362 12.071-18.241 12.071-28.865v-69.092l32.452 59.724c7.921 14.576 10.11 31.475 6.165 47.587z"/><path d="m215.52 138.894c-5.523 0-10 4.477-10 10s4.477 10 10 10h20.362c5.523 0 10-4.477 10-10s-4.477-10-10-10z"/><path d="m131.445 197.3c3.049 4.529 9.323 5.788 13.87 2.76 4.542-3.024 5.768-9.326 2.76-13.86-3.016-4.546-9.334-5.763-13.86-2.76-4.54 3.012-5.787 9.333-2.77 13.86z"/></g></g></svg>