<svg id="Capa_1" enable-background="new 0 0 497 497" height="512" viewBox="0 0 497 497" width="512" xmlns="http://www.w3.org/2000/svg"><g><g fill="#edb798"><path d="m34.22 402.499 45.7 14.584 14.584 45.7-26.103 26.103c-10.818 10.818-28.369 10.818-39.187 0l-21.098-21.097c-10.825-10.825-10.818-28.369 0-39.187z"/><path d="m467.789 8.116 21.097 21.097c10.818 10.818 10.818 28.369 0 39.187l-26.103 26.103-45.7-14.584-14.584-45.7 26.103-26.103c10.818-10.818 28.362-10.825 39.187 0z"/><path d="m371.382 65.336 45.701 14.584 14.583 45.701-306.046 306.045-45.7-14.583-14.584-45.701z"/></g><path d="m382.382 156.344-41.728-41.728c-3.168-3.168-6.661-5.894-10.4-8.152l-223.774 223.775c2.232 3.712 4.938 7.217 8.136 10.416l41.728 41.728c3.17 3.17 6.664 5.897 10.406 8.156l223.773-223.773c-2.233-3.716-4.941-7.223-8.141-10.422z" fill="#e8a882"/><path d="m361.169 177.557-41.728-41.728c-9.489-9.489-24.874-9.489-34.364 0l-149.248 149.248c-9.489 9.489-9.489 24.875 0 34.364l41.728 41.728c9.489 9.489 24.874 9.489 34.364 0l149.248-149.248c9.489-9.489 9.489-24.875 0-34.364z" fill="#ffefe0"/><path d="m178.612 317.144c0-74.675 72.785-153.338 157.153-164.991l-16.323-16.324c-9.489-9.489-24.874-9.489-34.364 0l-149.249 149.248c-9.489 9.489-9.489 24.875 0 34.364l41.728 41.728c3.232 3.232 7.154 5.336 11.288 6.366-6.62-15.712-10.233-32.684-10.233-50.391z" fill="#fbe5c8"/><g><g><g><ellipse cx="200.173" cy="314.623" fill="#ff9db0" rx="29.861" ry="23.78" transform="matrix(.707 -.707 .707 .707 -163.843 233.696)"/></g><g><ellipse cx="314.622" cy="200.173" fill="#ff9db0" rx="29.861" ry="23.78" transform="matrix(.707 -.707 .707 .707 -49.393 281.099)"/></g></g></g><path d="m190.989 291.434-8.631-8.632c-2.929-2.929-2.929-7.678 0-10.607s7.678-2.929 10.606 0l8.631 8.632c2.929 2.929 2.929 7.678 0 10.607-2.928 2.928-7.677 2.929-10.606 0z" fill="#334151"/><path d="m280.827 201.596-8.632-8.631c-2.929-2.929-2.929-7.678 0-10.607s7.678-2.929 10.606 0l8.632 8.631c2.929 2.929 2.929 7.678 0 10.607-2.928 2.928-7.677 2.929-10.606 0z" fill="#334151"/><path d="m228.598 260.28c-4.132-.284-7.252-3.864-6.969-7.996.284-4.132 3.869-7.25 7.996-6.969 4.251.293 8.416-1.263 11.421-4.268 3.004-3.005 4.56-7.167 4.268-11.421-.284-4.132 2.836-7.713 6.968-7.996 4.134-.284 7.713 2.836 7.997 6.968.589 8.58-2.555 16.984-8.626 23.055-6.073 6.073-14.477 9.216-23.055 8.627z" fill="#334151"/><path d="m57.917 374.455h44.006v85.255h-44.006z" fill="#f9d888" transform="matrix(.707 -.707 .707 .707 -271.514 178.673)"/><path d="m395.08 37.293h44.006v85.255h-44.006z" fill="#f9d888" transform="matrix(.707 -.707 .707 .707 65.649 318.33)"/></g></svg>