<svg height="512pt" viewBox="-82 0 512 512.001" width="512pt" xmlns="http://www.w3.org/2000/svg"><path d="m338.878906 42.222656c0-17.796875-14.425781-32.222656-32.222656-32.222656h-264.433594c-17.796875 0-32.222656 14.425781-32.222656 32.222656v286.777344h328.878906zm0 0" fill="#52607e"/><path d="m10 329v140.777344c0 17.796875 14.425781 32.222656 32.222656 32.222656h264.433594c17.796875 0 32.222656-14.425781 32.222656-32.222656v-140.777344zm0 0" fill="#43b0fc"/><path d="m288.878906 278.996094h-228.878906v-218.996094h228.878906v136.996094" fill="#e7ebed"/><path d="m288.878906 254c-.648437 0-1.308594-.070312-1.960937-.199219-.628907-.128906-1.257813-.320312-1.867188-.570312-.601562-.25-1.179687-.558594-1.722656-.921875-.546875-.359375-1.058594-.777344-1.519531-1.238282-.460938-.460937-.878906-.96875-1.25-1.519531-.359375-.539062-.667969-1.121093-.917969-1.730469-.25-.601562-.441406-1.230468-.570313-1.871093-.128906-.640625-.191406-1.300781-.191406-1.949219s.0625-1.308594.191406-1.960938c.128907-.640624.320313-1.269531.570313-1.867187.25-.601563.558594-1.179687.917969-1.722656.371094-.550781.789062-1.058594 1.25-1.519531.460937-.457032.972656-.878907 1.519531-1.25.542969-.359376 1.121094-.667969 1.722656-.917969.609375-.25 1.238281-.441407 1.867188-.570313 1.292969-.261718 2.621093-.261718 3.910156 0 .640625.128906 1.273437.320313 1.871094.570313.609375.25 1.191406.558593 1.730469.917969.550781.371093 1.058593.792968 1.519531 1.25.460937.460937.878906.972656 1.242187 1.519531.355469.542969.667969 1.121093.917969 1.722656.25.597656.441406 1.226563.570313 1.867187.128906.652344.199218 1.3125.199218 1.960938s-.070312 1.3125-.199218 1.949219c-.132813.640625-.320313 1.273437-.570313 1.871093-.25.609376-.558594 1.191407-.917969 1.730469-.363281.550781-.78125 1.058594-1.242187 1.519531-.460938.460938-.96875.878907-1.519531 1.238282-.539063.363281-1.121094.671875-1.730469.921875-.601563.25-1.230469.441406-1.871094.570312-.636719.128907-1.296875.199219-1.949219.199219zm0 0"/><path d="m238.152344 278.996094v-41.179688h-42.476563v-42.476562h-42.472656v42.476562h-42.476563v41.179688zm0 0" fill="#f05f90"/><path d="m306.65625 0h-264.433594c-23.28125 0-42.222656 18.941406-42.222656 42.222656v427.554688c0 23.28125 18.941406 42.222656 42.222656 42.222656h264.433594c23.28125 0 42.222656-18.9375 42.222656-42.222656v-427.554688c0-23.28125-18.941406-42.222656-42.222656-42.222656zm-286.65625 42.222656c0-12.253906 9.96875-22.222656 22.222656-22.222656h264.4375c12.25 0 22.21875 9.96875 22.21875 22.222656v276.777344h-308.878906zm308.878906 427.554688c0 12.253906-9.96875 22.222656-22.222656 22.222656h-264.433594c-12.253906 0-22.222656-9.96875-22.222656-22.222656v-130.777344h308.878906zm0 0"/><path d="m288.878906 50h-228.875c-5.523437 0-10 4.480469-10 10v218.996094c0 5.523437 4.476563 10 10 10h228.875c5.519532 0 10-4.476563 10-10 0-5.523438-4.480468-10-10-10h-40.726562v-31.179688c0-5.523437-4.476563-10-10-10h-32.476563v-32.476562c0-5.523438-4.476562-10-10-10h-42.472656c-5.523437 0-10 4.476562-10 10v32.476562h-32.476563c-5.523437 0-10 4.476563-10 10v31.179688h-30.726562v-198.996094h208.875v126.996094c0 5.523437 4.476562 10 10 10s10-4.476563 10-10v-136.996094c.003906-5.519531-4.476562-10-9.996094-10zm-168.152344 197.816406h32.476563c5.523437 0 10-4.476562 10-10v-32.476562h22.472656v32.476562c0 5.523438 4.480469 10 10 10h32.476563v21.179688h-107.425782zm0 0"/><path d="m110.726562 103.125h127.425782v41.179688h-127.425782zm0 0" fill="#00d2d7"/><path d="m238.152344 154.304688h-127.425782c-5.523437 0-10-4.476563-10-10v-41.179688c0-5.523438 4.476563-10 10-10h127.425782c5.523437 0 10 4.476562 10 10v41.179688c0 5.519531-4.476563 10-10 10zm-117.425782-20h107.425782v-21.179688h-107.425782zm0 0"/><path d="m131.203125 394.589844h-24.648437v-24.644532h-34.03125v24.644532h-24.648438v34.035156h24.648438v24.644531h34.03125v-24.644531h24.648437zm0 0" fill="#e7ebed"/><path d="m106.554688 463.269531h-34.03125c-5.523438 0-10-4.480469-10-10v-14.644531h-14.648438c-5.519531 0-10-4.476562-10-10v-34.035156c0-5.523438 4.480469-10 10-10h14.648438v-14.644532c0-5.523437 4.476562-10 10-10h34.03125c5.523437 0 10 4.476563 10 10v14.644532h14.648437c5.519531 0 10 4.476562 10 10v34.035156c0 5.523438-4.480469 10-10 10h-14.648437v14.644531c0 5.519531-4.476563 10-10 10zm-24.03125-20h14.03125v-14.644531c0-5.523438 4.480468-10 10-10h14.648437v-14.035156h-14.648437c-5.519532 0-10-4.480469-10-10v-14.644532h-14.03125v14.644532c0 5.519531-4.480469 10-10 10h-14.648438v14.035156h14.648438c5.519531 0 10 4.476562 10 10zm0 0"/><path d="m293.695312 366.976562c-9.738281-9.734374-25.523437-9.734374-35.257812 0-9.738281 9.738282-9.738281 25.523438 0 35.257813 9.734375 9.738281 25.519531 9.738281 35.257812 0 9.734376-9.734375 9.734376-25.519531 0-35.257813zm0 0" fill="#ffe681"/><path d="m276.070312 419.523438c-8.945312 0-17.890624-3.40625-24.699218-10.214844-6.597656-6.597656-10.234375-15.371094-10.234375-24.703125 0-9.328125 3.636719-18.101563 10.234375-24.699219s15.371094-10.230469 24.699218-10.230469c9.332032 0 18.105469 3.632813 24.703126 10.230469 13.617187 13.621094 13.617187 35.78125 0 49.402344-6.8125 6.808594-15.757813 10.214844-24.703126 10.214844zm0-49.839844c-3.824218 0-7.644531 1.453125-10.558593 4.363281-5.820313 5.820313-5.820313 15.296875 0 21.117187 5.824219 5.824219 15.296875 5.820313 21.117187 0 5.820313-5.820312 5.820313-15.296874 0-21.117187-2.910156-2.910156-6.734375-4.363281-10.558594-4.363281zm0 0"/><path d="m239.695312 420.976562c-9.738281-9.738281-25.523437-9.738281-35.261718 0-9.734375 9.734376-9.734375 25.523438 0 35.257813 9.738281 9.738281 25.523437 9.738281 35.261718 0 9.734376-9.734375 9.734376-25.523437 0-35.257813zm0 0" fill="#00d2d7"/><path d="m222.070312 473.539062c-9.332031 0-18.105468-3.632812-24.703124-10.230468-13.617188-13.621094-13.617188-35.78125 0-49.402344 13.621093-13.621094 35.78125-13.617188 49.402343 0 13.617188 13.621094 13.617188 35.78125 0 49.402344-6.597656 6.597656-15.371093 10.230468-24.699219 10.230468zm0-49.855468c-3.824218 0-7.648437 1.453125-10.558593 4.367187-5.820313 5.820313-5.824219 15.292969 0 21.113281 2.820312 2.820313 6.570312 4.375 10.558593 4.375 3.984376 0 7.734376-1.554687 10.558594-4.375 5.820313-5.820312 5.820313-15.292968 0-21.117187-2.914062-2.910156-6.738281-4.363281-10.558594-4.363281zm0 0"/></svg>