<svg height="512pt" viewBox="-95 0 512 512" width="512pt" xmlns="http://www.w3.org/2000/svg"><path d="m68.324219 283.789062v218.210938l93.058593-40.234375 93.054688 40.234375v-218.210938" fill="#52607e"/><path d="m312.761719 161.382812c0 83.605469-67.773438 151.378907-151.378907 151.378907-83.605468 0-151.382812-67.773438-151.382812-151.378907 0-83.605468 67.777344-151.382812 151.382812-151.382812 83.605469 0 151.378907 67.777344 151.378907 151.382812zm0 0" fill="#43b0fc"/><path d="m161.382812 272.761719c-61.417968 0-111.382812-49.964844-111.382812-111.378907 0-61.417968 49.964844-111.382812 111.382812-111.382812 61.414063 0 111.378907 49.964844 111.378907 111.382812 0 61.414063-49.964844 111.378907-111.378907 111.378907zm0 0" fill="#ffe681"/><path d="m161.382812 282.761719c-66.933593 0-121.382812-54.453125-121.382812-121.378907 0-66.933593 54.449219-121.382812 121.382812-121.382812 66.929688 0 121.378907 54.449219 121.378907 121.382812 0 66.929688-54.449219 121.378907-121.378907 121.378907zm0-222.761719c-55.902343 0-101.382812 45.480469-101.382812 101.382812 0 55.898438 45.480469 101.378907 101.382812 101.378907 55.898438 0 101.378907-45.480469 101.378907-101.378907 0-55.902343-45.480469-101.382812-101.378907-101.382812zm0 0"/><path d="m161.382812 105.507812 20.527344 33.515626 38.222656 9.167968-25.53125 29.882813 3.089844 39.183593-36.308594-15.050781-36.3125 15.050781 3.089844-39.183593-25.53125-29.882813 38.222656-9.167968zm0 0" fill="#ffdd52"/><path d="m197.691406 227.257812c-1.292968 0-2.59375-.25-3.828125-.761718l-32.480469-13.464844-32.484374 13.464844c-3.210938 1.332031-6.890626.894531-9.707032-1.148438-2.8125-2.046875-4.363281-5.410156-4.089844-8.878906l2.765626-35.050781-22.839844-26.730469c-2.261719-2.648438-2.980469-6.277344-1.90625-9.585938 1.074218-3.3125 3.792968-5.824218 7.175781-6.632812l34.191406-8.203125 18.367188-29.984375c1.816406-2.96875 5.046875-4.777344 8.527343-4.777344 3.476563 0 6.707032 1.808594 8.523438 4.777344l18.367188 29.984375 34.191406 8.203125c3.382812.808594 6.101562 3.320312 7.175781 6.632812 1.078125 3.308594.355469 6.9375-1.90625 9.585938l-22.839844 26.730469 2.765625 35.050781c.273438 3.46875-1.273437 6.832031-4.089844 8.878906-1.734374 1.261719-3.800781 1.910156-5.878906 1.910156zm-36.308594-35.050781c1.300782 0 2.601563.253907 3.828126.761719l21.226562 8.800781-1.808594-22.910156c-.207031-2.644531.644532-5.265625 2.367188-7.28125l14.925781-17.472656-22.34375-5.359375c-2.582031-.617188-4.808594-2.238282-6.195313-4.5l-12-19.597656-12.003906 19.597656c-1.386718 2.261718-3.613281 3.882812-6.195312 4.5l-22.34375 5.359375 14.925781 17.472656c1.722656 2.015625 2.574219 4.636719 2.367187 7.28125l-1.808593 22.910156 21.230469-8.800781c1.222656-.507812 2.523437-.761719 3.828124-.761719zm0 0"/><path d="m161.382812 362.449219c-.652343 0-1.3125-.070313-1.953124-.199219-.640626-.128906-1.269532-.320312-1.867188-.570312-.613281-.25-1.191406-.558594-1.730469-.917969-.550781-.363281-1.0625-.78125-1.519531-1.242188-.460938-.460937-.882812-.96875-1.242188-1.519531-.371093-.539062-.667968-1.128906-.917968-1.730469-.25-.597656-.453125-1.230469-.570313-1.871093-.132812-.636719-.199219-1.296876-.199219-1.949219 0-.660157.066407-1.308594.199219-1.960938.117188-.636719.320313-1.269531.570313-1.867187.25-.601563.546875-1.179688.917968-1.730469.359376-.539063.78125-1.0625 1.242188-1.519531.457031-.460938.96875-.871094 1.519531-1.242188.539063-.359375 1.117188-.667968 1.730469-.917968.597656-.25 1.226562-.441407 1.867188-.570313 1.292968-.261719 2.609374-.261719 3.902343 0 .640625.128906 1.269531.320313 1.878907.570313.601562.25 1.179687.558593 1.71875.917968.550781.371094 1.0625.78125 1.519531 1.242188.460937.457031.882812.980468 1.242187 1.519531.359375.550781.667969 1.128906.917969 1.730469.25.597656.453125 1.230468.582031 1.867187.128906.652344.191406 1.300781.191406 1.960938 0 .652343-.0625 1.3125-.191406 1.949219-.128906.640624-.332031 1.273437-.582031 1.871093-.25.601563-.558594 1.191407-.917969 1.730469s-.78125 1.058594-1.242187 1.519531c-.457031.460938-.96875.878907-1.519531 1.242188-.539063.359375-1.117188.667969-1.71875.917969-.609376.25-1.238282.441406-1.878907.570312s-1.300781.199219-1.949219.199219zm0 0"/><path d="m322.761719 161.382812c0-88.988281-72.394531-161.382812-161.378907-161.382812-88.988281 0-161.382812 72.394531-161.382812 161.382812 0 49.835938 22.710938 94.46875 58.324219 124.097657v216.519531c0 3.367188 1.691406 6.507812 4.507812 8.355469 2.8125 1.847656 6.367188 2.160156 9.460938.824219l89.089843-38.519532 89.085938 38.519532c1.273438.550781 2.625.820312 3.96875.820312 1.925781 0 3.835938-.554688 5.492188-1.644531 2.816406-1.847657 4.507812-4.988281 4.507812-8.355469v-216.519531c35.613281-29.628907 58.324219-74.261719 58.324219-124.097657zm-302.761719 0c0-77.960937 63.421875-141.382812 141.382812-141.382812 77.957032 0 141.378907 63.421875 141.378907 141.382812 0 77.957032-63.421875 141.378907-141.378907 141.378907-77.960937 0-141.382812-63.421875-141.382812-141.378907zm224.4375 325.398438-73.054688-31.585938v-65.628906c0-5.523437-4.480468-10-10-10-5.523437 0-10 4.476563-10 10v65.628906l-73.058593 31.585938v-187.078125c24.277343 14.632813 52.703125 23.058594 83.058593 23.058594 30.351563 0 58.777344-8.425781 83.054688-23.058594zm0 0"/></svg>