<?xml version="1.0" encoding="iso-8859-1"?>
<!-- Generator: Adobe Illustrator 19.0.0, SVG Export Plug-In . SVG Version: 6.00 Build 0)  -->
<svg version="1.1" id="Capa_1" xmlns="http://www.w3.org/2000/svg" xmlns:xlink="http://www.w3.org/1999/xlink" x="0px" y="0px"
	 viewBox="0 0 512 512" style="enable-background:new 0 0 512 512;" xml:space="preserve">
<path style="fill:#867E88;" d="M488.468,115.72h-16.032l-6.64-6.641c-6.013-6.013-14.168-9.391-22.671-9.391h-34.817
	c-17.709,0-32.065,14.356-32.065,32.065v128.258c0,17.709-14.356,32.065-32.065,32.065H207.903
	c-35.417,0-64.129,28.712-64.129,64.129v10.475c0,18.841-13.775,35.665-32.53,37.453c-21.515,2.051-39.615-14.812-39.615-35.903
	v-87.729c0-23.386-9.29-45.814-25.826-62.35L7.5,179.849l21.298,21.298c12.026,12.026,18.783,28.338,18.783,45.346v123.936
	c0,32.97,24.149,61.971,56.925,65.543c38.531,4.199,71.142-25.769,71.332-63.405c0.09-17.842,14.223-32.396,32.065-32.396h40.081
	l73.693,49.129c13.036,8.69,28.09,14.33,43.744,14.936c2.18,0.084,6.821-0.047,12.028-0.259c14.613-0.594,28.604-6.14,39.668-15.708
	c24.984-18.697,38.483-51.313,30.158-84.608l-23.483-93.933c-3.218-12.873,4.599-25.308,16.578-28.817v-17.096
	c0-8.854,7.178-16.032,16.032-16.032H504.5v-16.032C504.5,122.898,497.322,115.72,488.468,115.72z"/>
<path style="fill:#FF969C;" d="M272.032,235.962l20.386,20.386c7.036,7.036,17.679,9.012,26.772,4.971l57.052-25.357H272.032z"/>
<path style="fill:#FF8087;" d="M374.455,228.252l-31.21-32.371H204.341l34.719,28.933c8.644,7.203,19.539,11.148,30.791,11.148
	h110.48C378.389,233.436,376.442,230.878,374.455,228.252z"/>
<path style="fill:#E6646E;" d="M290.514,163.817h-146.74l34.719,28.933c8.644,7.203,19.539,11.148,30.791,11.148H347.74
	l-21.278-23.938C317.335,169.691,304.252,163.817,290.514,163.817z"/>
<polygon style="fill:#FFC350;" points="448.387,99.688 400.29,99.688 392.274,67.623 456.403,67.623 "/>
<g>
	<path style="fill:#6F6571;" d="M62.048,246.225c-0.006,0-0.031-0.046-0.04-0.051c-0.034-0.023-0.091-0.099-0.16-0.209
		c-0.031-0.049-0.054-0.077-0.092-0.142c-0.122-0.208-0.268-0.477-0.452-0.834l0.65,0.65c0.104,0.361,0.114,0.491,0.085,0.526
		C62.035,246.167,62.053,246.225,62.048,246.225z"/>
	<path style="fill:#6F6571;" d="M402.232,340.275c-10.431,1.044-17.974,10.596-17.974,21.079l0,0
		c0,10.024-7.883,18.31-17.893,18.851c-0.008,0-0.012,0.001-0.012,0.001c-10.392-0.402-21.228-4.177-31.336-10.915l-63.596-42.397
		c-10.535-7.023-22.912-10.771-35.573-10.771h-27.944c-30.951,0-64.129,25.162-64.129,56.113c0,8.016-11.438,33.634-34.815,32.065
		c-21.336-1.432-37.33-20.344-37.33-41.728v-2.267v-79.804c0-23.386-9.29-45.813-25.826-62.349l-17.005-17.004
		c12.027,12.026,18.783,28.338,18.783,45.346V370.43c0,32.97,24.148,61.971,56.925,65.544c38.531,4.2,71.142-25.769,71.332-63.405
		c0.09-17.811,14.254-32.395,32.066-32.395h8.016v93.443c0-8.504,3.378-16.66,9.392-22.673l21.298-21.299
		c6.012-6.013,9.39-14.167,9.39-22.67v-10.768v-10.688l65.677,43.785c13.036,8.69,28.09,14.33,43.744,14.936
		c0.503,0.02,18.771-0.935,18.837-0.945v17.041l30.69-30.69c6.013-6.013,9.391-14.168,9.391-22.672v-6.759
		C424.339,348.462,414.228,339.075,402.232,340.275z"/>
</g>
<path d="M455.967,123.736c0-4.142-3.358-7.5-7.5-7.5h-0.08c-4.142,0-7.46,3.358-7.46,7.5s3.398,7.5,7.54,7.5
	S455.967,127.878,455.967,123.736z"/>
<path d="M488.468,108.22h-12.926l-4.444-4.444c-3.846-3.846-8.347-6.795-13.248-8.759l13.685-41.055
	c1.31-3.929-0.814-8.177-4.744-9.487c-3.928-1.31-8.177,0.814-9.487,4.744l-3.635,10.904h-21.831v-8.532c0-4.142-3.358-7.5-7.5-7.5
	s-7.5,3.358-7.5,7.5v8.532h-21.831l-3.635-10.904c-1.31-3.93-5.558-6.054-9.487-4.744c-3.93,1.31-6.053,5.558-4.744,9.487
	l14.042,42.125c-13.267,6.395-22.443,19.978-22.443,35.664v84.483l-36.674-41.258c-10.542-11.859-25.688-18.66-41.554-18.66h-146.74
	c-3.158,0-5.977,1.978-7.052,4.947c-1.075,2.969-0.175,6.293,2.251,8.315l34.719,28.933c9.971,8.31,22.611,12.886,35.592,12.886
	h3.529l18.128,18.128c8.987,8.987,20.935,13.936,33.645,13.936h4.34l18.189,18.189c6.013,6.013,14.157,9.209,22.393,9.209
	c4.315,0,8.656-0.878,12.728-2.688l46.506-20.67v12.508c0,13.545-11.02,24.564-24.564,24.564c-4.142,0-7.5,3.358-7.5,7.5
	s3.358,7.5,7.5,7.5c21.816,0,39.564-17.749,39.564-39.564V131.752c0-13.545,11.02-24.564,24.565-24.564h34.815
	c6.562,0,12.73,2.555,17.37,7.195l6.641,6.641c1.406,1.407,3.314,2.197,5.303,2.197h16.032c4.705,0,8.532,3.828,8.532,8.532v8.532
	h-40.597c-12.976,0-23.532,10.557-23.532,23.532v8.532h-0.516c-9.125,0-16.548-7.423-16.548-16.548c0-4.142-3.358-7.5-7.5-7.5
	s-7.5,3.358-7.5,7.5c0,13.602,8.653,25.22,20.743,29.642c-5.466,7.561-7.309,17.003-5.033,26.106L440,305.482
	c4.812,19.248,1.602,39.085-8.161,55.455v-12.749c0-4.142-3.358-7.5-7.5-7.5s-7.5,3.358-7.5,7.5v18.783
	c0,6.562-2.555,12.73-7.195,17.37l-17.886,17.885v-21.973c0-4.142-3.358-7.5-7.5-7.5s-7.5,3.358-7.5,7.5v16.101
	c-2.667,0.287-5.358,0.448-8.058,0.448c-14.558,0-28.655-4.268-40.767-12.343L263.5,341.502v-9.346c0-4.142-3.358-7.5-7.5-7.5
	c-4.142,0-7.5,3.358-7.5,7.5v34.815c0,6.562-2.555,12.73-7.195,17.37l-17.886,17.886V324.14c0-4.142-3.358-7.5-7.5-7.5
	s-7.5,3.358-7.5,7.5v8.532h-0.516c-21.816,0-39.564,17.749-39.564,39.564c0,31.225-25.404,56.629-56.629,56.629
	s-56.629-25.404-56.629-56.629V246.493c0-1.12-0.025-2.234-0.076-3.346c5.964,11.391,9.125,24.129,9.125,37.355v87.726
	c0,24.026,19.547,43.572,43.573,43.572s43.573-19.546,43.573-43.572v-12.024c0-31.225,25.404-56.629,56.629-56.629h104.209
	c4.142,0,7.5-3.358,7.5-7.5s-3.358-7.5-7.5-7.5H207.903c-39.496,0-71.629,32.133-71.629,71.629v12.024
	c0,15.755-12.818,28.572-28.573,28.572s-28.573-12.817-28.573-28.572v-87.726c0-25.557-9.952-49.583-28.023-67.654l-38.302-38.303
	c-2.929-2.929-7.678-2.929-10.606,0c-2.929,2.929-2.929,7.678,0,10.606l21.398,21.398c10.632,10.684,16.486,24.863,16.486,39.942
	v125.743c0,39.496,32.133,71.629,71.629,71.629s71.629-32.133,71.629-71.629c0-13.545,11.02-24.564,24.564-24.564h0.516v105.242
	h-12.541c-4.142,0-7.5,3.358-7.5,7.5s3.358,7.5,7.5,7.5h24.048c1.876,0,3.684-0.703,5.067-1.97c3.01-2.758,8.051-6.046,14.974-6.046
	s11.964,3.288,14.974,6.046c1.44,1.319,3.255,1.97,5.065,1.97c2.029,0,4.053-0.819,5.532-2.433
	c2.798-3.054,2.591-7.798-0.463-10.597c-7.028-6.44-15.945-9.986-25.107-9.986c-5.749,0-11.399,1.401-16.548,4.032v-15.315
	c0-6.562,2.555-12.73,7.195-17.37l21.297-21.297c7.473-7.473,11.588-17.408,11.588-27.977v-7.441l56.113,37.408
	c14.584,9.723,31.559,14.863,49.088,14.863c2.694,0,5.384-0.131,8.058-0.37v41.482h-12.541c-4.142,0-7.5,3.358-7.5,7.5
	s3.358,7.5,7.5,7.5h24.048c1.876,0,3.684-0.703,5.067-1.971c3.01-2.758,8.051-6.045,14.974-6.045s11.963,3.288,14.973,6.045
	c1.439,1.319,3.255,1.971,5.065,1.971c2.029,0,4.052-0.819,5.531-2.433c2.799-3.054,2.592-7.798-0.462-10.596
	c-7.027-6.44-15.944-9.987-25.107-9.987c-5.749,0-11.399,1.401-16.548,4.032v-15.315c0-6.562,2.555-12.73,7.194-17.37
	c0,0,22.166-21.601,22.658-21.969c28.683-21.465,41.613-57.747,32.941-92.431l-23.483-93.933
	c-1.244-4.979-0.147-10.153,3.011-14.198c3.158-4.044,7.912-6.364,13.043-6.364h41.345c4.142,0,7.5-3.358,7.5-7.5
	s-3.358-7.5-7.5-7.5h-40.597v-8.532c0-4.705,3.828-8.532,8.532-8.532h32.581v0.516c0,4.142,3.358,7.5,7.5,7.5s7.5-3.358,7.5-7.5
	v-0.516h0.516c4.142,0,7.5-3.358,7.5-7.5v-16.032C512,118.777,501.443,108.22,488.468,108.22z M234.026,211.397h62.055
	c4.142,0,7.5-3.358,7.5-7.5s-3.358-7.5-7.5-7.5h-86.796c-9.479,0-18.708-3.341-25.989-9.409l-18.805-15.671h126.024
	c11.586,0,22.645,4.966,30.343,13.626l38.683,43.519h-94.954c-8.703,0-16.884-3.389-23.038-9.542L234.026,211.397z M316.144,254.465
	c-6.212,2.761-13.616,1.386-18.422-3.421l-7.583-7.583h50.762L316.144,254.465z M448.67,75.123l-5.688,17.064h-11.143V75.123H448.67
	z M405.727,92.281l-5.719-17.158h16.831v17.064h-8.532C407.439,92.188,406.581,92.226,405.727,92.281z"/>
<g>
</g>
<g>
</g>
<g>
</g>
<g>
</g>
<g>
</g>
<g>
</g>
<g>
</g>
<g>
</g>
<g>
</g>
<g>
</g>
<g>
</g>
<g>
</g>
<g>
</g>
<g>
</g>
<g>
</g>
</svg>
