<svg id="Capa_1" enable-background="new 0 0 497 497" height="512" viewBox="0 0 497 497" width="512" xmlns="http://www.w3.org/2000/svg"><g><path d="m85.955 411.045 16.721-364.204h-41.382l-16.722 384.896c0 5.488 2.18 10.75 6.06 14.63 3.881 3.881 9.143 6.061 14.63 6.06l384.896-16.722v-41.381z" fill="#ffefe0"/><path d="m102.676 46.842h-41.382l-2.531 58.262c.149.001.296.01.444.01 1.936 0 3.895-.107 5.835-.32 11.641-1.282 23.43-1.947 35.064-1.99z" fill="#fbe5c8"/><path d="m52.603 30.354c-11.128 3.252-17.975 14.414-15.985 25.834 2.073 11.938 13.101 20.106 25.14 18.786 69.768-7.683 140.89 4.866 201.946 39.068l51.511-8.149.7-44.062c-79.734-46.776-175.368-57.185-263.312-31.477z" fill="#516a80"/><path d="m450.158 394.325-58.442 2.683c-.126 10.792-.774 21.637-1.971 32.504-.327 2.978-.383 5.925-.217 8.827l60.63-2.634z" fill="#fbe5c8"/><path d="m432.71 178.626-44.486.275-7.725 51.936c34.203 61.056 46.751 132.178 39.068 201.946-1.321 12.039 6.847 23.066 18.786 25.14 7.566 1.313 15.015-1.237 20.132-6.354 2.608-2.608 4.607-5.877 5.702-9.631 25.708-87.944 15.299-183.579-31.477-263.312z" fill="#516a80"/><path d="m381.761 112.78c-20.157-20.157-42.304-37.137-65.847-50.949l-52.211 52.211c23.944 13.41 46.333 30.147 66.49 50.305 20.157 20.157 36.895 42.546 50.305 66.49l52.211-52.211c-13.811-23.543-30.791-45.69-50.948-65.846z" fill="#ff748f"/><path d="m85.955 411.045 5.153-112.23-13.212 2.469c-9.591 1.792-18.941 4.352-27.987 7.63l-5.336 122.823c0 5.488 2.18 10.75 6.06 14.63 3.881 3.881 9.143 6.061 14.63 6.06l122.823-5.336c3.278-9.045 5.838-18.396 7.629-27.985l2.469-13.213z" fill="#fbe5c8"/><path d="m138.99 320.388-55.586 10.386c-29.185 5.453-56.039 19.606-77.033 40.601-12.124 12.124-6.055 32.858 10.693 36.532l28.218 6.189 37.622 37.622 6.19 28.219c3.674 16.748 24.408 22.816 36.532 10.692 20.994-20.995 35.148-47.848 40.601-77.033l10.386-55.585z" fill="#ff748f"/><path d="m130.53 385.102c0-22.342 3.017-43.977 8.637-64.536l-.178-.178-55.586 10.386c-29.185 5.453-56.039 19.606-77.033 40.601-12.124 12.124-6.055 32.858 10.693 36.532l28.218 6.189 37.622 37.622 6.19 28.219c3.674 16.748 24.408 22.816 36.532 10.692 5.396-5.396 10.331-11.185 14.792-17.295-6.897-27.368-9.887-57.117-9.887-88.232z" fill="#fd5f7e"/><path d="m381.761 112.78c-13.215-13.215-27.29-25.055-42.048-35.542l-51.857 51.856c14.943 10.301 29.123 22.037 42.338 35.252 14.074 14.074 26.476 29.239 37.247 45.26l51.893-51.894c-10.978-15.811-23.498-30.858-37.573-44.932z" fill="#fd5f7e"/><path d="m494.529 2.471c-10.389-10.389-52.314 14.692-62.703 25.081l-401.09 401.09c-7.597 7.597-7.597 19.913 0 27.51l10.112 10.112c7.596 7.597 19.913 7.597 27.509 0l401.09-401.09c10.39-10.389 35.471-52.314 25.082-62.703z" fill="#edb798"/><g><path d="m130.53 385.102c0-22.519 3.063-44.319 8.769-65.023l-108.563 108.563c-7.597 7.597-7.597 19.913 0 27.51l10.112 10.112c7.596 7.597 19.913 7.597 27.509 0l62.544-62.543c-.249-6.146-.371-12.355-.371-18.619z" fill="#e8a882"/></g></g></svg>