<svg id="Capa_1" enable-background="new 0 0 512 512" height="512" viewBox="0 0 512 512" width="512" xmlns="http://www.w3.org/2000/svg"><g><g><circle cx="419.024" cy="311.655" fill="#fff" r="21.423"/></g><g><path d="m175.225 233.571c-2.65 8.785-4.629 19.136-4.629 30.458h98.888c0-11.322-1.98-21.673-4.629-30.458-3.14-10.411-12.747-17.52-23.622-17.52h-42.386c-10.875-.001-20.482 7.108-23.622 17.52z" fill="#ffd88e"/></g><g><path d="m199.967 352.734h40.441c7.138 0 13.563-4.284 16.337-10.861 5.334-12.644 12.738-45.942 12.738-77.845h-98.888c0 30.489 7.634 64.582 12.983 77.721 2.711 6.656 9.203 10.985 16.389 10.985z" fill="#ff7e96"/></g><g><path d="m220.101 153.538c-11.75 0-21.275 9.525-21.275 21.275v41.237h42.551v-41.237c0-11.749-9.526-21.275-21.276-21.275z" fill="#ffd88e"/></g><g><path d="m241.377 352.734h-42.551v40.453l21.214 30.453 21.337-30.453z" fill="#ff7e96"/></g><g><path d="m99.633 292.243c-5.523 0-10 4.477-10 10v60.968c0 15.31-12.455 27.765-27.765 27.765s-27.765-12.455-27.765-27.765v-353.211c0-5.523-4.477-10-10-10s-10 4.477-10 10v353.211c0 26.337 21.427 47.765 47.765 47.765s47.765-21.427 47.765-47.765v-60.968c0-5.523-4.477-10-10-10z"/><path d="m491.723 363.936c-3.737-1.548-8.039-.691-10.898 2.167l-16.894 16.894c-3.905 3.905-3.905 10.237 0 14.143 3.401 3.402 8.643 3.84 12.521 1.316-3.4 9.411-12.423 16.155-22.991 16.155-13.474 0-24.436-10.962-24.436-24.436v-48.738c12.437-4.188 21.423-15.951 21.423-29.782s-8.986-25.594-21.423-29.782v-30.713c11.352 11.573 23.014 16.051 23.837 16.355 5.111 1.896 10.986-.776 12.881-5.89 1.919-5.179-.693-10.921-5.872-12.841-.987-.381-23.99-9.563-30.847-37.635v-3.684c11.352 11.573 23.014 16.051 23.837 16.355 5.111 1.896 10.986-.776 12.881-5.89 1.919-5.179-.693-10.921-5.872-12.841-.987-.381-23.99-9.563-30.847-37.636v-114.495c0-26.99-21.958-48.948-48.948-48.948s-48.948 21.958-48.948 48.948v388.498c0 27.87-22.674 50.544-50.544 50.544s-50.544-22.674-50.544-50.544v-14.66l19.526-27.87c1.178-1.682 1.81-3.685 1.81-5.738v-32.728c6.444-2.777 11.735-7.948 14.583-14.699 5.616-13.312 13.524-47.471 13.524-81.732 0-11.004-1.701-22.223-5.055-33.345-3.43-11.371-12.161-19.858-23.052-23.141v-32.728c0-13.771-8.951-25.483-21.337-29.647v-10.763c0-38.71-31.493-70.203-70.203-70.203s-70.203 31.493-70.203 70.203v78.31c0 5.523 4.477 10 10 10s10-4.477 10-10v-78.31c0-27.682 22.521-50.203 50.203-50.203s50.203 22.521 50.203 50.203v10.805c-12.322 4.2-21.214 15.88-21.214 29.605v32.69c-10.948 3.256-19.732 11.765-23.175 23.179-3.354 11.122-5.055 22.341-5.055 33.345 0 32.601 8.188 67.9 13.722 81.492 2.779 6.827 8.043 12.06 14.508 14.882v32.785c0 2.044.626 4.039 1.795 5.716l19.419 27.877v14.676c0 38.898 31.646 70.544 70.544 70.544s70.544-31.646 70.544-70.544v-388.499c0-15.962 12.986-28.948 28.948-28.948s28.948 12.986 28.948 28.948v114.501c-6.827 28.032-28.87 37.237-29.949 37.671-5.12 1.999-7.671 7.759-5.7 12.897 1.951 5.086 7.825 7.71 12.918 5.754.786-.302 11.814-4.686 22.73-15.939v3.311c-6.827 28.032-28.87 37.237-29.949 37.67-5.12 1.999-7.671 7.759-5.7 12.897 1.951 5.086 7.825 7.71 12.918 5.754.786-.302 11.814-4.686 22.73-15.939v30.336c-12.437 4.188-21.423 15.951-21.423 29.782s8.986 25.594 21.423 29.782v48.738c0 24.502 19.934 44.436 44.436 44.436s44.436-19.934 44.436-44.436v-17c.004-4.043-2.433-7.69-6.169-9.237zm-282.897-189.123c0-6.217 5.058-11.275 11.275-11.275s11.275 5.058 11.275 11.275v31.237h-22.551v-31.237zm-24.027 61.645c1.877-6.226 7.522-10.408 14.047-10.408h42.386c6.525 0 12.17 4.183 14.047 10.408 1.77 5.867 2.986 11.746 3.639 17.57h-77.758c.653-5.824 1.869-11.702 3.639-17.57zm74.439 37.57c-1.275 26.707-7.253 53.402-11.707 63.958-1.216 2.884-4.012 4.747-7.123 4.747h-40.441c-3.153 0-5.95-1.866-7.126-4.755-4.543-11.159-10.636-38.066-11.977-63.95zm-50.412 88.706h22.551v27.298l-11.313 16.147-11.238-16.132zm210.198-62.502c6.299 0 11.423 5.124 11.423 11.423s-5.124 11.423-11.423 11.423-11.423-5.124-11.423-11.423 5.125-11.423 11.423-11.423z"/><path d="m90.4 261.96c2.067 5.042 8.037 7.493 13.06 5.41 5.032-2.087 7.494-8.024 5.41-13.06-2.085-5.036-8.03-7.487-13.06-5.41-5.027 2.076-7.503 8.036-5.41 13.06z"/></g></g></svg>