<svg height="512pt" viewBox="0 -3 512 512" width="512pt" xmlns="http://www.w3.org/2000/svg"><path d="m502 252.582031v-212.601562c0-16.558594-13.414062-29.980469-29.964844-29.980469h-432.070312c-16.550782 0-29.964844 13.421875-29.964844 29.980469v212.601562zm0 0" fill="#00d2d7"/><path d="m10 252.582031v212.601563c0 16.558594 13.414062 29.980468 29.964844 29.980468h432.070312c16.550782 0 29.964844-13.421874 29.964844-29.980468v-212.601563zm0 0" fill="#52607e"/><path d="m97.363281 207.703125v-153.019531h317.273438v153.019531h-202.273438" fill="#ede6f5"/><path d="m414.636719 217.703125h-202.273438c-5.523437 0-10-4.476563-10-10s4.476563-10 10-10h192.273438v-133.019531h-297.273438v143.019531c0 5.523437-4.476562 10-10 10-5.523437 0-10-4.476563-10-10v-153.019531c0-5.519532 4.476563-10 10-10h317.273438c5.519531 0 10 4.480468 10 10v153.019531c0 5.523437-4.480469 10-10 10zm0 0"/><path d="m164.101562 217.703125c-.652343 0-1.300781-.0625-1.953124-.191406-.636719-.128907-1.269532-.320313-1.867188-.570313-.601562-.25-1.179688-.558594-1.730469-.917968-.539062-.371094-1.0625-.792969-1.519531-1.25-.460938-.460938-.882812-.972657-1.242188-1.519532-.359374-.542968-.667968-1.121094-.917968-1.722656-.25-.609375-.441406-1.238281-.570313-1.871094-.128906-.648437-.199219-1.308594-.199219-1.957031 0-2.632813 1.070313-5.210937 2.929688-7.070313.457031-.460937.980469-.878906 1.519531-1.242187.550781-.359375 1.128907-.667969 1.730469-.917969.597656-.25 1.230469-.441406 1.867188-.570312 1.292968-.261719 2.621093-.261719 3.910156 0 .640625.128906 1.269531.320312 1.871094.570312.601562.25 1.179687.558594 1.71875.917969.550781.363281 1.0625.78125 1.523437 1.242187 1.867187 1.859376 2.929687 4.4375 2.929687 7.070313 0 .648437-.0625 1.308594-.191406 1.957031-.128906.632813-.320312 1.261719-.570312 1.871094-.25.601562-.558594 1.179688-.917969 1.722656-.371094.546875-.78125 1.058594-1.25 1.519532-.460937.457031-.972656.878906-1.523437 1.25-.539063.359374-1.117188.667968-1.71875.917968-.601563.25-1.230469.441406-1.871094.570313-.648438.128906-1.296875.191406-1.957032.191406zm0 0"/><path d="m117.902344 296.363281h276.195312v153.019531h-276.195312zm0 0" fill="#c7cde4"/><path d="m394.097656 459.382812h-276.195312c-5.523438 0-10-4.480468-10-10v-153.019531c0-5.523437 4.476562-10 10-10h276.195312c5.523438 0 10 4.476563 10 10v153.019531c0 5.519532-4.476562 10-10 10zm-266.195312-20h256.195312v-133.019531h-256.195312zm0 0"/><path d="m472.035156 0h-432.070312c-22.035156 0-39.964844 17.9375-39.964844 39.980469v425.203125c0 22.042968 17.929688 39.980468 39.964844 39.980468h432.070312c22.035156 0 39.964844-17.9375 39.964844-39.980468v-425.203125c0-22.042969-17.929688-39.980469-39.964844-39.980469zm-452.035156 39.980469c0-11.015625 8.957031-19.980469 19.964844-19.980469h432.070312c11.007813 0 19.964844 8.964844 19.964844 19.980469v202.601562h-472zm472 425.203125c0 11.015625-8.957031 19.980468-19.964844 19.980468h-432.070312c-11.007813 0-19.964844-8.964843-19.964844-19.980468v-202.601563h472zm0 0"/><path d="m425.503906 431.347656h7.964844v7.984375c0 5.523438 4.476562 10 10 10 5.519531 0 10-4.476562 10-10v-7.984375h7.964844c5.523437 0 10-4.476562 10-10 0-5.519531-4.476563-10-10-10h-7.964844v-7.984375c0-5.523437-4.480469-10-10-10-5.523438 0-10 4.476563-10 10v7.984375h-7.964844c-5.523437 0-10 4.480469-10 10 0 5.523438 4.476563 10 10 10zm0 0"/><path d="m464.003906 329.023438c0-11.351563-9.195312-20.558594-20.535156-20.558594-11.34375 0-20.535156 9.207031-20.535156 20.558594 0 11.355468 9.191406 20.558593 20.535156 20.558593 11.339844 0 20.535156-9.203125 20.535156-20.558593zm0 0" fill="#ede6f5"/><path d="m443.46875 359.582031c-16.839844 0-30.535156-13.707031-30.535156-30.558593 0-16.847657 13.695312-30.558594 30.535156-30.558594 16.835938 0 30.535156 13.710937 30.535156 30.558594 0 16.851562-13.699218 30.558593-30.535156 30.558593zm0-41.113281c-5.8125 0-10.535156 4.734375-10.535156 10.554688 0 5.824218 4.722656 10.558593 10.535156 10.558593 5.808594 0 10.535156-4.734375 10.535156-10.558593 0-5.820313-4.726562-10.554688-10.535156-10.554688zm0 0"/><path d="m87.8125 329.023438c0-11.351563-9.195312-20.558594-20.535156-20.558594s-20.535156 9.207031-20.535156 20.558594c0 11.355468 9.195312 20.558593 20.535156 20.558593s20.535156-9.203125 20.535156-20.558593zm0 0" fill="#f05f90"/><path d="m67.277344 359.582031c-16.835938 0-30.535156-13.707031-30.535156-30.558593 0-16.847657 13.699218-30.558594 30.535156-30.558594 16.835937 0 30.535156 13.710937 30.535156 30.558594 0 16.851562-13.699219 30.558593-30.535156 30.558593zm0-41.113281c-5.808594 0-10.535156 4.734375-10.535156 10.554688 0 5.824218 4.726562 10.558593 10.535156 10.558593s10.535156-4.734375 10.535156-10.558593c0-5.820313-4.726562-10.554688-10.535156-10.554688zm0 0"/><path d="m87.8125 421.347656c0-11.355468-9.195312-20.558594-20.535156-20.558594s-20.535156 9.203126-20.535156 20.558594c0 11.355469 9.195312 20.558594 20.535156 20.558594s20.535156-9.203125 20.535156-20.558594zm0 0" fill="#00d2d7"/><path d="m67.277344 451.90625c-16.835938 0-30.535156-13.707031-30.535156-30.558594 0-16.851562 13.699218-30.558594 30.535156-30.558594 16.835937 0 30.535156 13.707032 30.535156 30.558594 0 16.851563-13.699219 30.558594-30.535156 30.558594zm0-41.117188c-5.808594 0-10.535156 4.738282-10.535156 10.558594 0 5.824219 4.726562 10.558594 10.535156 10.558594s10.535156-4.734375 10.535156-10.558594c0-5.820312-4.726562-10.558594-10.535156-10.558594zm0 0"/></svg>